<svg xmlns="http://www.w3.org/2000/svg" xmlns:xlink="http://www.w3.org/1999/xlink" width="400.001" height="237.618" viewBox="0 0 400.001 237.618">
  <defs>
    <clipPath id="clip-path">
      <rect id="Rect치ngulo_373722" data-name="Rect치ngulo 373722" width="187.507" height="220.302" fill="#77c8e5"/>
    </clipPath>
  </defs>
  <g id="Grupo_1065527" data-name="Grupo 1065527" transform="translate(-1020 -2064)">
    <g id="Grupo_1065454" data-name="Grupo 1065454">
      <path id="Uni칩n_2" data-name="Uni칩n 2" d="M369.929,207.018A41.043,41.043,0,0,1,359,208.49H41a41,41,0,0,1-41-41V41A41,41,0,0,1,41,0H359a41,41,0,0,1,41,41V159.945h0v77.673Z" transform="translate(1019.998 2064.001)" fill="#f3f9ff"/>
      <g id="Grupo_1064538" data-name="Grupo 1064538" transform="translate(1127.493 2072.658)" style="isolation: isolate">
        <g id="Grupo_1064534" data-name="Grupo 1064534" clip-path="url(#clip-path)">
          <path id="Trazado_797530" data-name="Trazado 797530" d="M85.592,54.536c0,1.722,1.087,2.931,3.061,3.98,0,0-.008-.3-.015-.765l-1.24-1.2.651-1.156.543-.138c-.046-2.005-.092-4.248-.092-4.569l-.092.015c-1.822.964-2.816,2.143-2.816,3.834M42.128,93.017l.13-.459L41.3,90.553l-1.133-.413Zm76.863-45.935.046.8,1.844-.528.559-1.087-1.27-1.607.681-.98,1.722,1.179.314-.245-.344-.23-.39-.712.7-.4-.689-.872-1.615.8-.559.934-.321.857.712,1.14-.268.543Zm6.452-28.891-.651-.995-1.385-.673-1.079.8,1.378.712,1.554,1.071ZM48.488,21.925l7.5,7.24A49.007,49.007,0,0,0,41.631,63.047H31.008a58.916,58.916,0,0,1,17.48-41.121M43.9,78.315l-.628-.107-.6-.643-2.977-.253.934,1.209-2.778-.513.735-.635-.681-.643-1.99.842-.712,1.27.276,2.916,2.288,5.3,1.1,1.661.635.214-1.737-3.168-.383-1.615.39-.4-.237-.888L38.577,83l1.607,2.334.406.161-.054-1.714.651.367.138.934,1.691.429.7-.5.237.168-.023,1.247.742.88.9.2,1.967,3.214,1.194.321.375-1.508A50.81,50.81,0,0,0,56.44,98.65l-7.508,7.232A59.045,59.045,0,0,1,31.016,65.075H41.654A48.084,48.084,0,0,0,43.9,78.315m10.493-13.24q.069,1.492.253,2.962l-1.309.283-.26,1.278L50.356,72.9l.069,4.569-2.778.888-1.523.015a45.925,45.925,0,0,1-2.373-13.3ZM56.777,93.89l2.388,1.332.49.321-1.73,1.668c-.811-.788-1.584-1.63-2.334-2.487Zm9.712-54.622L74,46.5a25.638,25.638,0,0,0-4,5.541L69.482,52l-1.056.321-.36-.031L66.933,53.3l1.431-.222,1.278-.306c-.084.153-.153.314-.23.467l-1.117.666h-.528l-1.653,1.209L64.522,55,62.2,59.144l.467.827L61.407,61.31l-.191,1.737H56.471A35.028,35.028,0,0,1,66.489,39.268m7.692,29.879.543-.253,1.385,1.01-.6.475,1.561,1L76.974,70.3l.827-1.324.872.888.9,1.232-1.607.344.727,1.408,1.125-.582-.145-.444.842-.543L81,69.055a13.51,13.51,0,0,0,2.434,3.589l-7.508,7.232a23.038,23.038,0,0,1-6.582-13.592l1.538,1.584,1.439-.031ZM63.4,61.493l.2-2.036,1.255-.7,2.258.383.337.383a25.512,25.512,0,0,0-.344,3.521H64.553Zm-3.5,7.026-1.01,1.515H57.175l-.138-.084a35.451,35.451,0,0,1-.543-4.875H59.7l-.773,2.472ZM66.925,88.54c-.765-.758-1.5-1.561-2.2-2.4l.329-2.587-1.117-2.48-.276-3.9L62.4,74.818l.268-1.462-1.523-2.809-1.332-.635.543-1.492L59.8,67.233l.551-1.339h1.454l.52-.819h2.48l.383.712-.467,2.426-.3.421.934,1.952-.62.329-.429-.52-.176.191.429,1.163.719,1.362.344-.038.207-1.209-.36-.452-.038-.827-.107-1.691.528-3.015-.513-.8h1.791a24.971,24.971,0,0,0,7.317,16.233Zm63.99,9.926a49,49,0,0,0,14.626-33.392h10.623a59.078,59.078,0,0,1-17.733,40.639Zm-2.924-2.816.819-.9-.773-3.957-.551-.207.337-.673-1.776-.536L125.7,90.8l-.168,1.8-.367.321L121.915,89.8a36.936,36.936,0,0,0,10.875-24.72h10.638a47.017,47.017,0,0,1-14,31.968Zm-9.368,9.567.995-2.059-.39-.926,1.477-1.255v-.742l-1.263-.758,1.041-2,1.554-1.952-1.554-1.623h-1.171l-.727-1.14c.628-.49,1.24-1.01,1.829-1.546l7.531,7.248a50.375,50.375,0,0,1-9.322,6.75m-1.439-19.975-1.026-.98.781-.987.98-1.921-.383-.543.651-1.424-.069-1.286-.39-1.332-.926-.321-.344.758-.551-.145a25.192,25.192,0,0,0,2.227-3.735l.949-.406.536-.689.26.291.651-.75-.52-.628.474-.13.865.337,1.645.046.995-.5,2.594-.666-.49-.834-.168-1,1.393.589.52-.3-.26-1.041-1.707.62-1.883-.375-1.431-2.816h8.136a34.953,34.953,0,0,1-10.271,23.289l-1.11-1.079.475-1.431-.857-3.161Zm-3.827-38.55,7.516-7.248a36.5,36.5,0,0,1,4.653,6.016l-.941.253.046,1.623,2.824,1.707a35.53,35.53,0,0,1,1.76,4.577l-.5.7-1.01.62-.26,1.508-.689.375-.582.658-.589-.207-1.033-.038.6-.788.429-2.043.689-.413L124.241,52.1l-1.515.5-.337,1.385-.957.995-.995-.8-.352-.834.574-.344.314.551.459-.161-.2-.918-.666-.038-.038.367-.429.084-2.342-2.625-.788-.582.3-.314.712-.237-.658-.245s-.819.176-.918.176l.467.566-1.186-.023a26.614,26.614,0,0,0-2.327-2.916m1.156,39.514-2.3-.635-.7.245-1.293-.957-1.217-.429c.6-.413,1.186-.85,1.76-1.324l1.883,1.286,1.446.742.712.689ZM110.45,52.187l.949-.207-.046-.214-.941-.62.321-1.929,1.133-1.1a24.21,24.21,0,0,1,1.975,2.464l-.4,1.194-1.033-.712-.8.207.39.712h.39l-.429,1.041-.306-.421Zm12.758,7.041,1.906-1,1.952-.291.429-.911,1.079-.635.421-.865.329-1.515c.161.536.306,1.071.429,1.623l-1.026,2.954-.046,1,1.508-1.921a34.728,34.728,0,0,1,.52,5.38h-9.314l-.222-.773,1.087-.842.214-.5.474-.329,1.263-.13.122-.536Zm2.128-24,2.556.107.612.712-.306,1.041,3.544,2.12.7-.084,4.538,5.005,1.86-.628a46.306,46.306,0,0,1,4.607,19.547h-10.63a36.362,36.362,0,0,0-.987-7.783l.482-.635.658-3.207-.49-3.452-1.286-3.964-2.962-4.179.719.367.36-.352-2.38-1.546-.161.505,2.38,3.276,1.355,2.694.957,2.656.306,1.791.49,3.015-.888.061s-1.026-1.844-1.347-2.61L130.5,49l-.911-1.255V46.5l-.643-.788-.811.092c-.291-.505-.589-1.018-.9-1.523l.566.283.161-.145-.306-.643.7-.383-.314-.375L127,43.393l.375-1.554-.612-.329-.543,1.24a38.822,38.822,0,0,0-3.865-4.737ZM138.882,22.1a58.981,58.981,0,0,1,17.3,40.945H145.548A48.207,48.207,0,0,0,140,41.189l.092-.191.742.375.168-.536L139.1,37.63l-2.25-3.008-2.64-2.12q-1.355-1.63-2.847-3.161ZM107.557,82.946l-.008-.046.023.038-.015.008M93.6,126c35.672,0,64.686-27.942,64.686-62.314,0-32.236-25.532-58.816-58.135-61.992l-.077.36c-.13.6-.253,1.148-.344,1.623a63.494,63.494,0,0,1,37.67,16.99l-7.133,6.88.275-1.217-.941-.39-1.286-.077.276-.8-.865-2.809-1.776-1.883-5.579-2.832-.475.5-1.018.283a15.71,15.71,0,0,1,2.954,9.031c0,.413-.015.819-.031,1.217l2.771,3.345-1.309.291.865,1.247-2.441,2.357-.98-1.814a15.675,15.675,0,0,1-1.844,3.513c.176.168.36.321.543.49l-7.516,7.232c-.452-.406-.934-.811-1.416-1.2-.719.321-1.454.628-2.2.9.214.161.421.314.635.49l-.375.367-.888.475-.329.842-.543-.528-1.592.505.444.673,1.087-.283.712.054.054-.375.551-.253.168-.321.987-.26.765-.038c.153.138.306.26.459.4l-2.992,2.87-.214-.306-3.115.5-.7.666-.681.084,1.936-1.791-.7-.337-1.8,2.327.528-.054-.038.865.666.237.13.918-1.087-.207-1.133.207-2.732-1.362s-.145,7.079-.23,10.631c6.459,2.089,13.309,5.112,13.309,13.049a9.712,9.712,0,0,1-4.638,8.38h.023l-.145.084-.015-.008-.207.145c-2.61,1.661-5.962,2.541-8.878,3.421l-.084,5.556c4.63,2.219,10.248,5.449,9.727,14.664-.061,2.273-.987,2.9-1.768,3.107a50.8,50.8,0,0,1-8.365,1.27c-.015.712-.031,1.408-.046,2.036A52.751,52.751,0,0,0,129.43,99.9l7.516,7.24a64.241,64.241,0,0,1-86.529.168l7.523-7.24A52.779,52.779,0,0,0,89.732,113.6c-.008-.628-.023-1.316-.038-2.043A50.576,50.576,0,0,1,59.425,98.635L61.43,96.7,64.178,97l1.469-1.515,3.834.122.574-1.286-.138-.536A39.937,39.937,0,0,0,89.5,101.268c-.015-.788-.031-1.485-.046-2.043a37.662,37.662,0,0,1-21.031-9.261l7.523-7.248a26.244,26.244,0,0,0,6.1,3.934,6.781,6.781,0,0,1,.75-1.9,24.4,24.4,0,0,1-5.365-3.467l7.546-7.263a13.254,13.254,0,0,0,4.026,2.158c-.015-.719-.038-1.469-.054-2.181a11.737,11.737,0,0,1-2.487-1.416l2.128-2.043c-.742-.214-1.5-.452-2.25-.7l-1.416,1.37a11.446,11.446,0,0,1-1.814-2.579,26.628,26.628,0,0,1-3.72-1.913A13.9,13.9,0,0,1,72.42,54.414a14.347,14.347,0,0,1,3.038-9.352l-7.5-7.232a37.671,37.671,0,0,1,20.075-9.513c-.015-.712-.031-1.385-.046-2.036A39.734,39.734,0,0,0,66.481,36.406l-1.263-1.225a19.726,19.726,0,0,0-1.01,1.89l.8.765a36.934,36.934,0,0,0-10.631,25.21H43.736A46.941,46.941,0,0,1,57.481,30.6l3.375,3.253c.161,0,.321,0,.482-.015a5.24,5.24,0,0,0,1.913-.536l-4.294-4.133a49.318,49.318,0,0,1,7.4-5.7,14.483,14.483,0,0,1,.52-1.508c.138-.245.811-1.1,1.63-2.089a52.133,52.133,0,0,0-11.036,7.86l-7.508-7.232A63.542,63.542,0,0,1,87.23,3.7l-.077-.429c-.107-.49-.214-1.01-.314-1.561C54.328,4.973,28.9,31.515,28.9,63.682,28.9,98.053,57.917,126,93.6,126M63.244,36.138a7.017,7.017,0,0,1,.268-1.117,5.478,5.478,0,0,1-1.3.13ZM99.98,74.963c0-.52-.712-1.033-1.776-1.508h-.184c-.015.413-.054,2.48-.077,3.5,1.309-.574,2.036-1.179,2.036-1.99m6.107-65.872.628-.551-1.2-.49-3.169-.061-.819.551-1.875-.145-.023.436c1.186.069,2.35.184,3.26.329l1.554-.13Zm2.4,19.646a40.048,40.048,0,0,0-9.452-2.48c-.015.673-.023,1.347-.038,2.036a37.538,37.538,0,0,1,8.71,2.311,5.4,5.4,0,0,0,.781-1.867m40.272-9.016c5.021,15.873,16.883,12.345,24.82,29.006-.834-5.6,5.786-23.45-9.743-34.486,5.189,6.123,3.658,17.473,6.72,24.881-6.008-12.475-18.965-14.534-21.8-19.4M34.927,17.862C38.5,13.752,39.718,8.1,45.343,4.017,33.8,6.389,24.051,16.339,21.426,28.515c3.666-4.118,9.919-6.544,13.5-10.653M163.2,53.641c-.788,16.126,8.556,18.973,7.975,33.078,3.98-9.835,19.44-12.628,13.646-36.116.115,9.008-8.212,14.243-11.694,28.333.689-15.858-5.771-17.618-9.926-25.294m23.81,17.825c-3.092,8.886-13.745,13.707-20.633,26.657,3.9-15.284-1.875-19.363-2.487-27.72-5.794,14.855,1.829,20.182-2.457,35.649,5.112-6.7,25.356-10.294,25.577-34.585M174.952,59a30.148,30.148,0,0,0-11.227-17.664c-3.857-3.054-4.875-3.88-6.314-5.832,5.5,17.84,13.975,17.939,17.649,31.417.528-7,15.559-18.582,1.339-37.922,3.674,9.023-1.837,21.4-1.447,30M29.646,35.5c-1.439,1.952-2.464,2.778-6.322,5.832A30.112,30.112,0,0,0,12.1,59c.4-8.6-5.128-20.978-1.446-30-14.228,19.34.8,30.927,1.332,37.922C15.663,53.442,24.135,53.342,29.646,35.5M23.837,53.641c-4.156,7.676-10.608,9.437-9.926,25.294C10.428,64.845,2.117,59.611,2.216,50.6-3.577,74.091,11.9,76.884,15.862,86.719c-.582-14.105,8.771-16.952,7.975-33.078m104.706,79.442a86.383,86.383,0,0,0-18.322-2.648,45.986,45.986,0,0,0-16.692,2.732,46.1,46.1,0,0,0-16.707-2.732,86.318,86.318,0,0,0-18.314,2.648c-10.079,2.587-18.789,4.577-26.373.88C39.4,140.185,47.9,142.4,60.16,141.134c10.217-1.064,18.46-5.977,28.088-5.916.122,0,.253.015.375.015a51.078,51.078,0,0,0-15.873,11.893l4.646.6A25.3,25.3,0,0,1,93.528,135.8a25.3,25.3,0,0,1,16.126,11.924l4.646-.6a51.056,51.056,0,0,0-15.881-11.893c.13,0,.253-.015.375-.015,9.636-.061,17.871,4.852,28.088,5.916,12.276,1.27,20.764-.949,28.034-7.171-7.592,3.7-16.3,1.707-26.373-.88M155.3,113.467c6.651-8.947,2.464-18.3,3.9-24.789-10.707,15.529-4.829,22.156-12.023,32.113,8.755-6.016,28.149-.314,35.6-27.988-5.97,11.335-20.572,13.225-27.468,20.664M137.78,127.312c11.3-10.309,7.638-16.937,11.189-22.21-16.746,14.434-12.682,18.927-18.644,26.879,6.291-2.893,28.486,6.613,41.106-16.661-7.347,8.4-22.6,5.709-33.652,11.993m-81.064,4.669c-5.954-7.952-1.89-12.444-18.636-26.879,3.543,5.273-.107,11.9,11.189,22.21-11.059-6.283-26.3-3.6-33.659-11.993,12.628,23.274,34.823,13.768,41.106,16.661m-31.1-25.93c-4.3-15.467,3.329-20.794-2.472-35.649-.6,8.357-6.391,12.437-2.48,27.72C13.78,85.173,3.119,80.351.035,71.466.249,95.757,20.508,99.354,25.62,106.051m2.235-17.373c1.424,6.49-2.763,15.842,3.888,24.789-6.9-7.439-21.491-9.329-27.46-20.664,7.447,27.675,26.848,21.973,35.6,27.988-7.2-9.957-1.316-16.585-12.031-32.113M13.467,48.728c7.937-16.661,19.8-13.133,24.82-29.006-2.832,4.868-15.789,6.926-21.8,19.4,3.077-7.408,1.538-18.758,6.72-24.881C7.681,25.278,14.293,43.125,13.467,48.728M152.122,17.862c3.582,4.11,9.835,6.536,13.508,10.653C163,16.339,153.24,6.389,141.706,4.017c5.618,4.087,6.834,9.735,10.416,13.845" transform="translate(0.233 11.241)" fill="#77c8e5"/>
          <path id="Trazado_797531" data-name="Trazado 797531" d="M12.766,17.907c3.329,1.623,6.414,3.873,7.7,8.128.559-7.041-3.544-10.11-7.615-12.169l-.084,4.041" transform="translate(84.937 92.252)" fill="#77c8e5"/>
          <path id="Trazado_797532" data-name="Trazado 797532" d="M54.818,19.321c0-6.414-4.829-13.523-16.654-16.034a27.706,27.706,0,0,0-3.6-.39l-.077,3.176c-.023.689-.077,3.253-.092,3.811a16.029,16.029,0,0,1,2.273.306C43.537,11.767,46,15.571,46,19.321c0,6.077-5.4,8.373-12.039,10.1-.719.191-1.454.367-2.2.559-2.005.475-4.087.949-6.13,1.477-.735.184-1.462.39-2.181.6C16.092,34.215,9.778,37.636,9.778,46.383c0,8.671,7.217,11.916,14.251,14-.046-2.495-.092-5.005-.145-7.516-3.107-1.4-5.3-3.253-5.3-6.36,0-3.046,2-4.875,5.051-6.207a22.292,22.292,0,0,1,2.174-.811c1.753-.574,3.72-1.064,5.794-1.538.719-.176,1.446-.352,2.189-.52,9.919-2.311,21.031-5.3,21.031-18.108" transform="translate(65.056 19.272)" fill="#77c8e5"/>
          <path id="Trazado_797533" data-name="Trazado 797533" d="M11.008,34.231c.015,3.5,2.686,5.411,5.357,6.857-.008-.6-.107-6.023-.107-6.107.054-1.079,1.14-1.73,2.013-2.135a43.64,43.64,0,0,1,4.271-1.561c.781-.268,1.469-.528,2.227-.742,5.38-1.561,11.6-3.551,11.6-9.858s-5.334-8.9-11.166-10.837c-.038,2.013-.107,4.944-.145,6.972,2.464.934,4.095,2.066,4.095,3.865,0,2.25-2.5,3.551-4.278,4.209-.735.283-1.867.643-2.174.742-1.431.429-2.969.918-4.4,1.424a20.051,20.051,0,0,0-2.181.918c-2.526,1.247-5.135,3.061-5.112,6.253" transform="translate(73.24 65.512)" fill="#77c8e5"/>
          <path id="Trazado_797534" data-name="Trazado 797534" d="M21.163,14.774l-1.676.352,2-3.138,2.327.077ZM34.771,3.026a45.3,45.3,0,0,0-6.49,2.549c-2.311.742-5.587.865-8.962,4.408a46.337,46.337,0,0,0-3.1,3.857c-1.018,1.416-1.064,3.689-1.814,4.906a3.981,3.981,0,0,0-.827,2.778l.031.054a4.612,4.612,0,0,1-1.24,2.219,4.8,4.8,0,0,1-4.385,1.6c1.538.742,3.674-.291,3.674-.291a26.878,26.878,0,0,0-.819,2.947c1.73-3.765,3.314-5.143,3.8-5.518.75.161,2.281.092,5.135-1.485,3.222-1.783,8.082-4.7,9.444-6.544a12.746,12.746,0,0,1,5.725-4.148c-.061-2.771-.122-5.243-.176-7.332" transform="translate(53.12 20.13)" fill="#77c8e5"/>
          <path id="Trazado_797535" data-name="Trazado 797535" d="M14.836,13.316c-.306.107-1.117.436-1.63.6-.536.191-1.225.459-1.225.643,0,.046.513,27.154.513,27.751,0,5.587,2.962,5.618,2.962,0,0-.406.589-29.389.589-29.389s-.712.214-1.209.39" transform="translate(79.714 85.998)" fill="#77c8e5"/>
          <path id="Trazado_797536" data-name="Trazado 797536" d="M12.467,38.726c.918-.306,1.837-.574,2.694-.827.635-.191,1.232-.367,1.783-.543.038-1.7.528-25.3.628-29.6-2.2.528-4.11,1.026-5.694,1.584.069,3.222.543,26.81.589,29.381" transform="translate(79.029 51.634)" fill="#77c8e5"/>
          <path id="Trazado_797537" data-name="Trazado 797537" d="M16.982,0c-8.289,0-4.768,11.847-4.11,15.712.031.176.673,26.756.8,32.856,1.263-.321,2.51-.62,3.727-.911.872-.2,1.7-.4,2.5-.6.13-5.87.735-31.241.75-31.4C21.153,11.534,25.493,0,16.982,0" transform="translate(76.97 -0.003)" fill="#77c8e5"/>
          <path id="Trazado_797538" data-name="Trazado 797538" d="M132.881,28.208a3.709,3.709,0,0,0-3.322,2.143l-.038-.949-.046-.972h-3.123l.015.13a19.987,19.987,0,0,1,.1,2.311v11.9h3.306V34.438c0-1.2.268-3.207,2.051-3.207,1.179,0,1.63.834,1.63,2.954v8.587h3.306V33.558c0-3.551-1.3-5.35-3.88-5.35M81.167,31.476V28.43H72.6v2.8h5.166c-.214.337-5.334,8.457-5.334,8.457v3.084h8.9V39.964H75.925c.207-.337,5.243-8.488,5.243-8.488m8.8,5.067c0,2.671-.758,3.911-2.373,3.911a1.825,1.825,0,0,1-1.837-2.043c0-1.806,1.179-2.541,4.056-2.541h.153Zm3.107,3.62V33.994c0-3.475-.857-5.786-4.99-5.786a8.275,8.275,0,0,0-4.079,1.056l-.069.038.191,3.061.191-.168a5.352,5.352,0,0,1,3.4-1.347,2.259,2.259,0,0,1,2.25,2.572v.406h-.5c-3.176,0-6.819.559-6.819,4.913a3.965,3.965,0,0,0,3.926,4.255,4.05,4.05,0,0,0,3.5-1.959,6.706,6.706,0,0,0,.168,1.645l.015.092h3.008l-.023-.13a20.01,20.01,0,0,1-.168-2.48M66.8,26h3.4V22.43H66.8Zm.046,16.769h3.306V28.43H66.848Zm51.591-2.426c-1.929,0-2.327-2.587-2.327-4.76,0-2.158.4-4.737,2.327-4.737,1.531,0,2.3,1.6,2.3,4.737,0,3.161-.765,4.76-2.3,4.76m0-12.138c-1.73,0-5.725.719-5.725,7.378,0,6.444,3.582,7.408,5.725,7.408,2.128,0,5.694-.964,5.694-7.408,0-6.658-3.98-7.378-5.694-7.378M106.783,42.773h3.306V28.43h-3.306Zm-2.441-3.253a4.47,4.47,0,0,1-2.1.666c-2.1,0-3.36-1.7-3.36-4.546,0-3.115,1.049-4.623,3.214-4.623a4.377,4.377,0,0,1,2.082.666l.176.1.191-2.954-.077-.031a7.8,7.8,0,0,0-2.717-.589c-3.934,0-6.268,2.771-6.268,7.4s2.273,7.385,6.092,7.385a8.08,8.08,0,0,0,3.061-.589l.077-.031-.191-2.977ZM106.737,26h3.4V22.43h-3.4Zm-81.1,2.2a3.612,3.612,0,0,0-3.176,2.449l-.038-1.094-.054-1.133H19.351l.015.13a19.986,19.986,0,0,1,.1,2.311v11.9h3.306V34.928c0-3.123,1.929-3.36,2.518-3.36a2.691,2.691,0,0,1,.827.13l.161.046V28.315l-.26-.054ZM10.527,40.132c-2.242,0-3.482-2.5-3.482-7.041s1.24-7.033,3.482-7.033,3.49,2.495,3.49,7.033-1.24,7.041-3.49,7.041m0-16.99c-3.375,0-6.98,2.61-6.98,9.949s3.6,9.949,6.98,9.949,6.988-2.61,6.988-9.949-3.6-9.949-6.988-9.949m111.111-.222h-3.161L116.809,27.1h2.158ZM60.006,28.208a3.712,3.712,0,0,0-3.329,2.143l-.038-.949-.046-.972H53.477l.008.13a19.988,19.988,0,0,1,.1,2.311v11.9h3.306V34.438c0-1.2.268-3.207,2.051-3.207,1.179,0,1.638.834,1.638,2.954v8.587h3.3V33.558c0-3.551-1.3-5.35-3.873-5.35M32.614,40.048c-.865,0-1.883-1.209-1.883-4.6,0-3,.673-4.408,2.112-4.431a1.656,1.656,0,0,1,1.209.482c.735.689,1.133,2.082,1.133,3.919,0,3.245-.765,4.63-2.572,4.63M35.492,28.43l-.054.995s-.023.7-.038,1.049a3.675,3.675,0,0,0-3.352-2.265c-2.992,0-4.714,2.709-4.714,7.431,0,6.62,3.5,7.133,4.569,7.133a3.489,3.489,0,0,0,3.283-2.082v.918c0,2.013-.367,4.324-3.237,4.324a7.214,7.214,0,0,1-3.689-1.186l-.176-.107-.184,3.3.077.031a11.682,11.682,0,0,0,4.416.88c5.319,0,6-4.1,6-7.676V30.764l.107-2.327-.13-.008Zm12.245,8.113c0,2.671-.758,3.911-2.38,3.911a1.814,1.814,0,0,1-1.821-2.043c0-1.806,1.163-2.541,4.049-2.541h.153Zm3.1,3.62V33.994c0-3.475-.85-5.786-4.982-5.786a8.249,8.249,0,0,0-4.079,1.056l-.069.038.191,3.061.191-.168a5.352,5.352,0,0,1,3.4-1.347,2.259,2.259,0,0,1,2.25,2.572v.406h-.5c-3.176,0-6.819.559-6.819,4.913a3.969,3.969,0,0,0,3.926,4.255,4.05,4.05,0,0,0,3.5-1.959,6.249,6.249,0,0,0,.168,1.645l.023.092h2.992l-.015-.13a18.411,18.411,0,0,1-.176-2.48" transform="translate(23.599 149.232)" fill="#77c8e5"/>
          <path id="Trazado_797539" data-name="Trazado 797539" d="M125.316,39.81c0,2.441-.7,3.589-2.181,3.589a1.678,1.678,0,0,1-1.684-1.883c0-1.661,1.079-2.334,3.727-2.334h.138Zm2.847,3.314V37.468c0-3.191-.781-5.311-4.577-5.311a7.681,7.681,0,0,0-3.75.964l-.061.031.176,2.816.176-.161a4.906,4.906,0,0,1,3.115-1.225,2.074,2.074,0,0,1,2.074,2.357v.367h-.459c-2.916,0-6.26.513-6.26,4.508a3.638,3.638,0,0,0,3.6,3.9,3.727,3.727,0,0,0,3.214-1.791,6.266,6.266,0,0,0,.145,1.508l.031.084h2.748l-.023-.115a17.65,17.65,0,0,1-.153-2.281m14.932-7.554-1.707-1.064c-.865-.543-1.615-1.018-1.615-2.273a1.856,1.856,0,0,1,2.082-1.952,6.6,6.6,0,0,1,2.755.666l.321.138.145-2.924-.237-.077a9.133,9.133,0,0,0-3.184-.582c-2.541,0-5.1,1.508-5.1,4.883a5.063,5.063,0,0,0,2.633,4.691l1.477.9c1.362.834,2.005,1.362,2.005,2.579a2.192,2.192,0,0,1-2.288,2.434,5.916,5.916,0,0,1-3.291-1.064l-.168-.115-.168,3.123.046.031a6.7,6.7,0,0,0,3.666.8c3.4,0,5.419-2.013,5.419-5.388a4.908,4.908,0,0,0-2.793-4.814M88.037,43.223c-1.424,0-1.944-1.194-1.944-4.4,0-2.809.651-4.171,2-4.171,1.791,0,2.066,2.663,2.066,4.248,0,1.967-.375,4.324-2.12,4.324M93.18,43.2V26.447H90.156v7.485a3.219,3.219,0,0,0-2.962-1.776c-2.587,0-4.14,2.533-4.14,6.8,0,4.24,1.577,6.766,4.209,6.766a3.176,3.176,0,0,0,3.069-2.02c.015.781.054,1.408.092,1.73l.015.092h2.855l-.023-.122a17.53,17.53,0,0,1-.092-2.2m20.274,2.35h3.031V26.233h-3.031ZM98.307,37.713c.031-1.515.543-3.237,1.975-3.237,1.485,0,1.814,1.73,1.837,3.237Zm1.975-5.556c-2.893,0-4.913,2.862-4.913,6.965,0,3.191,1.446,6.6,5.5,6.6a8.177,8.177,0,0,0,3.536-.834l.069-.038-.153-2.748-.168.138a4.216,4.216,0,0,1-2.992.987c-1.921,0-2.824-1.064-2.855-3.337h6.758v-.712c0-5.8-2.6-7.018-4.783-7.018m81.975,11.067c-1.431,0-1.952-1.194-1.952-4.4,0-2.809.651-4.171,2-4.171,1.8,0,2.066,2.663,2.066,4.248,0,1.967-.375,4.324-2.112,4.324m5.227,2.174a18.143,18.143,0,0,1-.084-2.2V26.447h-3.031v7.485a3.2,3.2,0,0,0-2.954-1.776c-2.594,0-4.148,2.533-4.148,6.8,0,4.24,1.577,6.766,4.217,6.766a3.19,3.19,0,0,0,3.069-2.02c.008.788.054,1.416.084,1.73l.015.092h2.855Zm-27.56.122h3.031V26.447h-3.031Zm15.207-2.242V32.356H172.1v7.523c0,1.4-.314,3.061-1.821,3.061-1.11,0-1.561-.781-1.561-2.709V32.356h-3.031v8.457c0,3.26,1.2,4.906,3.551,4.906a3.38,3.38,0,0,0,3.061-1.982c.008.344.038.911.038.911l.038.872h2.862l-.015-.115a18.939,18.939,0,0,1-.092-2.128M154.284,39.81c0,2.441-.7,3.589-2.181,3.589a1.677,1.677,0,0,1-1.676-1.883c0-1.661,1.071-2.334,3.72-2.334h.138Zm2.847,3.314V37.468c0-3.191-.773-5.311-4.569-5.311a7.68,7.68,0,0,0-3.75.964l-.061.031.176,2.816.168-.161a4.95,4.95,0,0,1,3.123-1.225,2.068,2.068,0,0,1,2.066,2.357v.367h-.459c-2.908,0-6.253.513-6.253,4.508a3.634,3.634,0,0,0,3.6,3.9,3.713,3.713,0,0,0,3.207-1.791,6.361,6.361,0,0,0,.153,1.515l.023.077h2.748l-.015-.115a18.3,18.3,0,0,1-.161-2.281m-103.052,2.4h3.031V32.356H54.079Zm17.5,0h3.031V26.447H71.582Zm-25.417-2.3c-1.424,0-1.952-1.194-1.952-4.4,0-2.809.658-4.171,2-4.171,1.8,0,2.066,2.663,2.066,4.248,0,1.967-.367,4.324-2.112,4.324m5.143-.023V26.447H48.277v7.485a3.2,3.2,0,0,0-2.947-1.776c-2.6,0-4.148,2.533-4.148,6.8,0,4.24,1.577,6.766,4.209,6.766a3.176,3.176,0,0,0,3.069-2.02,17.208,17.208,0,0,0,.092,1.73l.008.092h2.855L51.4,45.4a17.533,17.533,0,0,1-.092-2.2m2.725-13.072h3.123V26.853H54.033ZM27.146,43.277V32.356H24.116v7.523c0,1.4-.321,3.061-1.821,3.061-1.11,0-1.569-.781-1.569-2.709V32.356H17.695v8.457c0,3.26,1.194,4.906,3.559,4.906a3.361,3.361,0,0,0,3.054-1.99l.038.9.046.888h2.855l-.008-.115a17.181,17.181,0,0,1-.092-2.128M7.722,40.606c-.153-.643-3.2-12.85-3.2-12.85H0V45.519H2.847V31.468c.314,1.209,3.635,14.052,3.635,14.052H8.717s3.505-12.934,3.819-14.09v14.09h2.847V27.756H10.99s-3.1,12.215-3.268,12.85m27.766-8.449a3.4,3.4,0,0,0-3.054,1.967l-.038-.88-.046-.888H29.5l.008.115A17.181,17.181,0,0,1,29.6,34.6V45.519h3.031V37.866c0-1.094.245-2.931,1.89-2.931,1.079,0,1.5.758,1.5,2.709v7.875h3.031V37.063c0-3.26-1.2-4.906-3.559-4.906M65.941,39.81c0,2.441-.689,3.589-2.181,3.589a1.678,1.678,0,0,1-1.684-1.883c0-1.661,1.079-2.334,3.727-2.334h.138Zm2.847,3.314V37.468c0-3.191-.781-5.311-4.569-5.311a7.742,7.742,0,0,0-3.758.964l-.061.031.184,2.816.168-.161a4.945,4.945,0,0,1,3.115-1.225,2.074,2.074,0,0,1,2.074,2.357v.367h-.459c-2.916,0-6.253.513-6.253,4.508a3.634,3.634,0,0,0,3.6,3.9,3.7,3.7,0,0,0,3.207-1.8,6.7,6.7,0,0,0,.145,1.515l.031.084h2.748l-.015-.115a17.245,17.245,0,0,1-.161-2.281" transform="translate(0 174.534)" fill="#77c8e5"/>
        </g>
      </g>
    </g>
  </g>
</svg>
