<svg xmlns="http://www.w3.org/2000/svg" xmlns:xlink="http://www.w3.org/1999/xlink" width="400" height="237.618" viewBox="0 0 400 237.618">
  <defs>
    <clipPath id="clip-path">
      <rect id="Rectángulo_373679" data-name="Rectángulo 373679" width="295" height="201.25" fill="none"/>
    </clipPath>
    <clipPath id="clip-path-9">
      <rect id="Rectángulo_373674" data-name="Rectángulo 373674" width="14.883" height="10.281" fill="none"/>
    </clipPath>
    <clipPath id="clip-path-10">
      <rect id="Rectángulo_373675" data-name="Rectángulo 373675" width="9.921" height="10.421" fill="none"/>
    </clipPath>
  </defs>
  <g id="Grupo_1065525" data-name="Grupo 1065525" transform="translate(-180 -908.382)">
    <g id="Grupo_1065506" data-name="Grupo 1065506">
      <path id="Unión_13" data-name="Unión 13" d="M41,237.618a41,41,0,0,1-41-41V70.127a41,41,0,0,1,41-41H359A41.04,41.04,0,0,1,369.927,30.6L400,0V196.618a41,41,0,0,1-41,41Z" transform="translate(580 1146) rotate(180)" fill="#f3f9ff"/>
      <g id="Grupo_1064421" data-name="Grupo 1064421" transform="translate(241.5 926.566)">
        <g id="Grupo_1064415" data-name="Grupo 1064415" clip-path="url(#clip-path)">
          <g id="Grupo_1064392" data-name="Grupo 1064392">
            <g id="Grupo_1064391" data-name="Grupo 1064391" clip-path="url(#clip-path)">
              <path id="Trazado_797232" data-name="Trazado 797232" d="M91.226,426.744A37.617,37.617,0,0,1,95.577,400.3c5.668,11.512-4.351,26.443-4.351,26.443" transform="translate(-50.939 -225.494)" fill="#e0e0e0"/>
              <path id="Trazado_797233" data-name="Trazado 797233" d="M90.329,359.692a24.623,24.623,0,0,1,15.779,6.168c-7.494,2-15.779-6.168-15.779-6.168" transform="translate(-50.883 -202.618)" fill="#e0e0e0"/>
              <path id="Trazado_797234" data-name="Trazado 797234" d="M129.613,376.3c2.2,10.96-3.575,20.017-3.575,20.017-4.07-8.37,3.575-20.017,3.575-20.017" transform="translate(-70.326 -211.971)" fill="#e0e0e0"/>
              <path id="Trazado_797235" data-name="Trazado 797235" d="M80.3,382.982c-.12-.169,6.38-4.983,14.517-10.75s14.833-10.306,14.953-10.137-6.379,4.981-14.519,10.75S80.421,383.151,80.3,382.982" transform="translate(-45.233 -203.97)" fill="#e0e0e0"/>
              <path id="Trazado_797236" data-name="Trazado 797236" d="M39.968,423.644s5.675-16.343,20.981-18.5a31.154,31.154,0,0,1-20.981,18.5" transform="translate(-22.514 -228.225)" fill="#e0e0e0"/>
              <path id="Trazado_797237" data-name="Trazado 797237" d="M43.769,384.648s14.3-9.739,27.871-2.344a31.153,31.153,0,0,1-27.871,2.344" transform="translate(-24.656 -213.795)" fill="#e0e0e0"/>
              <path id="Trazado_797238" data-name="Trazado 797238" d="M530.306,6.728A37.618,37.618,0,0,1,525.042,33c-5.266-11.7,5.265-26.276,5.265-26.276" transform="translate(-294.931 -3.79)" fill="#e0e0e0"/>
              <path id="Trazado_797239" data-name="Trazado 797239" d="M517.352,98.936A24.622,24.622,0,0,1,501.8,92.224c7.558-1.74,15.555,6.711,15.555,6.711" transform="translate(-282.668 -51.818)" fill="#e0e0e0"/>
              <path id="Trazado_797240" data-name="Trazado 797240" d="M492.147,64.083c-1.822-11.029,4.267-19.881,4.267-19.881,3.777,8.506-4.267,19.881-4.267,19.881" transform="translate(-277.04 -24.899)" fill="#e0e0e0"/>
              <path id="Trazado_797241" data-name="Trazado 797241" d="M510.252,58.029c.114.173-6.549,4.758-14.881,10.239s-15.181,9.786-15.3,9.613,6.548-4.757,14.883-10.24,15.18-9.785,15.294-9.612" transform="translate(-270.431 -32.685)" fill="#e0e0e0"/>
              <path id="Trazado_797242" data-name="Trazado 797242" d="M562.918,21.884s-6.239,16.136-21.61,17.757a31.153,31.153,0,0,1,21.61-17.757" transform="translate(-304.925 -12.327)" fill="#e0e0e0"/>
              <path id="Trazado_797243" data-name="Trazado 797243" d="M549.008,74.556s-14.627,9.237-27.936,1.376a31.154,31.154,0,0,1,27.936-1.376" transform="translate(-293.526 -40.506)" fill="#e0e0e0"/>
              <path id="Trazado_797244" data-name="Trazado 797244" d="M19.487,178.861a23.367,23.367,0,0,1,5.7-2.478l1.175-5.644,9.536-.167,1.372,5.6a23.363,23.363,0,0,1,5.786,2.276l4.82-3.159,6.861,6.625-2.987,4.927a23.35,23.35,0,0,1,2.478,5.7l5.643,1.174.168,9.536-5.6,1.372a23.355,23.355,0,0,1-2.276,5.786l3.159,4.82L48.7,222.092,43.773,219.1a23.327,23.327,0,0,1-5.7,2.478L36.9,227.226l-9.536.167-1.373-5.6a23.388,23.388,0,0,1-5.786-2.276l-4.819,3.159-6.861-6.625,2.987-4.927a23.353,23.353,0,0,1-2.478-5.7l-5.644-1.175-.167-9.536,5.6-1.373a23.382,23.382,0,0,1,2.276-5.786l-3.159-4.819,6.624-6.862Zm5.083,12.7a10.231,10.231,0,1,0,14.467-.255,10.231,10.231,0,0,0-14.467.255" transform="translate(-1.813 -96.085)" fill="#ebebeb"/>
              <path id="Trazado_797245" data-name="Trazado 797245" d="M627.644,231.415a9.811,9.811,0,0,1,2.4-1.042l.494-2.375,4.011-.07.577,2.356a9.806,9.806,0,0,1,2.434.958l2.027-1.329,2.887,2.787-1.257,2.073a9.814,9.814,0,0,1,1.042,2.4l2.374.494.07,4.011-2.355.577a9.842,9.842,0,0,1-.958,2.434l1.329,2.028-2.787,2.886-2.073-1.257a9.828,9.828,0,0,1-2.4,1.042l-.494,2.374-4.011.07-.577-2.355a9.826,9.826,0,0,1-2.434-.958l-2.027,1.329-2.887-2.787,1.257-2.073a9.824,9.824,0,0,1-1.043-2.4l-2.374-.494-.071-4.011,2.356-.578a9.829,9.829,0,0,1,.958-2.434l-1.329-2.028,2.786-2.886Zm2.138,5.344a4.3,4.3,0,1,0,6.086-.107,4.3,4.3,0,0,0-6.086.107" transform="translate(-349.703 -128.394)" fill="#ebebeb"/>
              <path id="Trazado_797246" data-name="Trazado 797246" d="M277.72,196.137a18.993,18.993,0,0,1,4.635-2.014l.954-4.587,7.75-.136,1.115,4.55a18.987,18.987,0,0,1,4.7,1.85l3.917-2.568,5.577,5.384-2.428,4a18.993,18.993,0,0,1,2.014,4.635l4.587.955.136,7.75-4.551,1.116a18.98,18.98,0,0,1-1.85,4.7l2.567,3.917-5.383,5.577-4-2.428a18.977,18.977,0,0,1-4.635,2.014l-.955,4.587-7.75.136L283,231.031a19.01,19.01,0,0,1-4.7-1.85l-3.917,2.567-5.577-5.384,2.428-4a18.971,18.971,0,0,1-2.014-4.635l-4.587-.955-.136-7.75,4.551-1.116a19,19,0,0,1,1.85-4.7l-2.567-3.917,5.384-5.577Zm4.132,10.325a8.315,8.315,0,1,0,11.758-.207,8.315,8.315,0,0,0-11.758.207" transform="translate(-148.995 -106.691)" fill="#ebebeb"/>
              <path id="Trazado_797247" data-name="Trazado 797247" d="M180.363,350.21A19,19,0,0,1,185,348.2l.955-4.587,7.75-.136,1.116,4.55a18.992,18.992,0,0,1,4.7,1.85l3.917-2.568,5.577,5.384-2.428,4a18.994,18.994,0,0,1,2.014,4.635l4.587.955.136,7.75-4.551,1.116a18.98,18.98,0,0,1-1.85,4.7l2.567,3.917-5.383,5.577-4-2.428a18.978,18.978,0,0,1-4.635,2.014l-.955,4.587-7.75.136-1.115-4.551a19.008,19.008,0,0,1-4.7-1.85l-3.917,2.567-5.577-5.384,2.428-4a18.974,18.974,0,0,1-2.014-4.635l-4.587-.955-.136-7.75,4.551-1.116a19,19,0,0,1,1.85-4.7l-2.567-3.917,5.384-5.577Zm4.132,10.325a8.315,8.315,0,1,0,11.758-.207,8.315,8.315,0,0,0-11.758.207" transform="translate(-94.152 -193.482)" fill="#ebebeb"/>
              <path id="Trazado_797248" data-name="Trazado 797248" d="M549.634,294.584a20.944,20.944,0,0,1,5.114-2.222L555.8,287.3l8.551-.15,1.231,5.021a20.918,20.918,0,0,1,5.189,2.042l4.322-2.833,6.153,5.941-2.679,4.418a20.94,20.94,0,0,1,2.222,5.115l5.061,1.053.15,8.552-5.021,1.231a20.95,20.95,0,0,1-2.041,5.188l2.832,4.322-5.94,6.153-4.418-2.679A20.933,20.933,0,0,1,566.3,332.9l-1.054,5.061-8.551.151-1.231-5.022a20.965,20.965,0,0,1-5.188-2.041l-4.322,2.833-6.153-5.941,2.679-4.418a20.934,20.934,0,0,1-2.222-5.115l-5.061-1.053-.15-8.552,5.021-1.231a20.967,20.967,0,0,1,2.041-5.188l-2.833-4.322,5.94-6.153Zm4.559,11.391a9.175,9.175,0,1,0,12.973-.228,9.175,9.175,0,0,0-12.973.228" transform="translate(-301.397 -161.755)" fill="#ebebeb"/>
            </g>
          </g>
          <g id="Grupo_1064394" data-name="Grupo 1064394">
            <g id="Grupo_1064393" data-name="Grupo 1064393" clip-path="url(#clip-path)">
              <path id="Trazado_797249" data-name="Trazado 797249" d="M609.547,104.165a7.482,7.482,0,0,0,2.892-7.709,7.032,7.032,0,1,0-13.73,2.907,7.472,7.472,0,0,0,5.849,5.882c-10.209,3.876-7.246,15.243-7.246,15.243l24.982-5.291s-1.943-11.719-12.747-11.033" transform="translate(-336.247 -50.949)" fill="#ebebeb"/>
              <path id="Trazado_797250" data-name="Trazado 797250" d="M609.4,104.064l.341-.018a8.352,8.352,0,0,1,.961-.023,10.66,10.66,0,0,1,8.336,4.094,16.526,16.526,0,0,1,3.2,6.966l.017.082-.085.018L597.191,120.5l-.108.023-.024-.1a16.51,16.51,0,0,1-.4-3.625,15.252,15.252,0,0,1,.431-3.741,11.067,11.067,0,0,1,2.678-5.019,11.584,11.584,0,0,1,2.159-1.774,14.565,14.565,0,0,1,2.449-1.216l.019.213a7.279,7.279,0,0,1-3.766-1.983,7.879,7.879,0,0,1-2.058-3.556,7.778,7.778,0,0,1,1.689-7.257,6.745,6.745,0,0,1,6.319-2.062,7.388,7.388,0,0,1,4.738,3.361,7.617,7.617,0,0,1,.985,2.371,7.816,7.816,0,0,1,.208,2.269,7.561,7.561,0,0,1-1.032,3.45,7.011,7.011,0,0,1-1.449,1.742,3.987,3.987,0,0,1-.457.356l-.169.119.148-.121c.1-.084.267-.207.451-.383a7.211,7.211,0,0,0,1.408-1.751,7.531,7.531,0,0,0,.987-3.417,7.745,7.745,0,0,0-.221-2.234,7.513,7.513,0,0,0-.982-2.325,7.248,7.248,0,0,0-4.65-3.27A6.568,6.568,0,0,0,600.4,92.59a7.581,7.581,0,0,0-1.628,7.072,7.662,7.662,0,0,0,2.006,3.455,7.057,7.057,0,0,0,3.655,1.919l.375.069-.356.145a14.422,14.422,0,0,0-2.408,1.2,11.342,11.342,0,0,0-2.115,1.739,10.848,10.848,0,0,0-2.622,4.919,15.011,15.011,0,0,0-.425,3.685,16.309,16.309,0,0,0,.393,3.569l-.132-.081,24.987-5.266-.068.1a16.444,16.444,0,0,0-3.132-6.907,10.745,10.745,0,0,0-4.612-3.422,11.116,11.116,0,0,0-3.617-.708c-.42-.033-.764,0-.979-.011H609.4" transform="translate(-336.103 -50.848)" fill="#263238"/>
              <path id="Trazado_797251" data-name="Trazado 797251" d="M645.169,127.051l-4.907,1.063-1.063-4.907-4.183.906,1.063,4.907-4.907,1.063.906,4.183,4.907-1.063,1.063,4.907,4.183-.906-1.063-4.907,4.907-1.063Z" transform="translate(-355.546 -69.404)" fill="#1969d5"/>
            </g>
          </g>
          <path id="Trazado_797252" data-name="Trazado 797252" d="M19.408,332.843,15.2,334.1l-1.255-4.206-3.585,1.07,1.255,4.206L7.41,336.424l1.07,3.585,4.206-1.255,1.255,4.206,3.585-1.07-1.255-4.206,4.206-1.255Z" transform="translate(-4.174 -185.832)" fill="#288640"/>
          <g id="Grupo_1064396" data-name="Grupo 1064396">
            <g id="Grupo_1064395" data-name="Grupo 1064395" clip-path="url(#clip-path)">
              <path id="Trazado_797253" data-name="Trazado 797253" d="M14.423,84.66a5.57,5.57,0,0,0,4.822-3.783,5.409,5.409,0,0,0-3.083-6.989,5.4,5.4,0,0,0-6.772,3.524,5.56,5.56,0,0,0,1.443,6C2.84,81.93.326,90.3.326,90.3l17.932,6.3s3.3-8.2-3.835-11.948" transform="translate(-0.184 -41.465)" fill="#ebebeb"/>
              <path id="Trazado_797254" data-name="Trazado 797254" d="M14.239,84.545l.227.12a5.826,5.826,0,0,1,.62.352,7.933,7.933,0,0,1,3.73,5.832,12.318,12.318,0,0,1-.661,5.676l-.028.079-.082-.029L.105,90.3,0,90.259l.034-.1a12.232,12.232,0,0,1,2.876-4.685A8.27,8.27,0,0,1,6.569,83.31a8.646,8.646,0,0,1,2.066-.293,10.906,10.906,0,0,1,2.034.175l-.094.192a5.441,5.441,0,0,1-1.635-2.733,5.885,5.885,0,0,1,.069-3.071,5.814,5.814,0,0,1,3.9-3.977,5.043,5.043,0,0,1,4.838,1.142,5.52,5.52,0,0,1,1.715,3.987,5.962,5.962,0,0,1-1.044,3.421,5.636,5.636,0,0,1-2,1.795,5.2,5.2,0,0,1-1.6.543,4.636,4.636,0,0,1-.583.055c-.013,0,.2-.02.576-.094a5.394,5.394,0,0,0,1.569-.572,5.6,5.6,0,0,0,1.943-1.79,5.866,5.866,0,0,0,.993-3.356,5.376,5.376,0,0,0-1.688-3.863,4.867,4.867,0,0,0-4.669-1.082A5.711,5.711,0,0,0,9.15,80.6a5.23,5.23,0,0,0,1.573,2.621l.285.253-.379-.062a10.678,10.678,0,0,0-1.989-.169,8.409,8.409,0,0,0-2.011.286A8.052,8.052,0,0,0,3.07,85.634,12.047,12.047,0,0,0,.25,90.222l-.07-.138L18.1,96.411l-.11.05a12.236,12.236,0,0,0,.684-5.593,7.992,7.992,0,0,0-1.6-3.956,8.308,8.308,0,0,0-2.02-1.852c-.253-.183-.486-.3-.618-.39l-.2-.124" transform="translate(0 -41.35)" fill="#263238"/>
            </g>
          </g>
          <g id="Grupo_1064398" data-name="Grupo 1064398">
            <g id="Grupo_1064397" data-name="Grupo 1064397" clip-path="url(#clip-path)">
              <path id="Trazado_797255" data-name="Trazado 797255" d="M428.6,241.633H351.126a4.4,4.4,0,0,0-4.4,4.4V274.6h-1.934a5.952,5.952,0,0,1-2.588-.621,11.889,11.889,0,1,0-.358,21.593,5.94,5.94,0,0,1,2.4-.529h2.482v27.852a4.4,4.4,0,0,0,4.4,4.4H428.6a3.586,3.586,0,0,0,3.587-3.587V245.22a3.586,3.586,0,0,0-3.587-3.587" transform="translate(-183.169 -136.115)" fill="#e0e0e0"/>
              <path id="Trazado_797256" data-name="Trazado 797256" d="M428.456,241.514s.081,0,.242.007a1.836,1.836,0,0,1,.3.03,2.561,2.561,0,0,1,.411.083,3.569,3.569,0,0,1,2.185,1.686,3.74,3.74,0,0,1,.478,2.007q0,1.148.005,2.507c0,1.812.007,3.9.01,6.256.009,9.418.021,23.041.036,39.874,0,8.418.009,17.638.014,27.535q0,.928,0,1.864a4.851,4.851,0,0,1-.072.952,3.738,3.738,0,0,1-.315.911,3.675,3.675,0,0,1-3.117,2.038l-7.8.012-16.263,0-34.922.007-18.471,0a4.679,4.679,0,0,1-2.318-.53,4.534,4.534,0,0,1-2.394-3.947q0-1.186,0-2.375v-9.573q0-8.064,0-15.944l.113.114h-1.888c-.314,0-.631-.008-.935.011a5.535,5.535,0,0,0-.91.137,6.068,6.068,0,0,0-.878.278c-.281.116-.576.249-.87.356a11.9,11.9,0,0,1-3.681.745,7.149,7.149,0,0,1-.938-.012c-.312-.02-.625-.027-.935-.057a13.217,13.217,0,0,1-3.587-.989,12.053,12.053,0,0,1-5.406-4.877,13.078,13.078,0,0,1-1.335-3.39c-.071-.295-.1-.6-.157-.9l-.072-.448c-.014-.151-.018-.3-.027-.453l-.045-.9.05-.9a11.886,11.886,0,0,1,2.587-6.57,11.992,11.992,0,0,1,12.56-4.053,11.933,11.933,0,0,1,1.61.576,8.287,8.287,0,0,0,1.552.609,5.791,5.791,0,0,0,1.637.18h1.671l-.1.1c0-8.3,0-16.3.007-23.927q0-1.431,0-2.844,0-.707,0-1.409a5.611,5.611,0,0,1,.124-1.412,4.489,4.489,0,0,1,1.449-2.379,4.43,4.43,0,0,1,2.536-1.065c3.642-.038,7.16-.007,10.589-.015l35.711.024,23.255.03,6.177.016,1.59.009c.357,0,.538.009.538.009s-.182.006-.538.009l-1.59.009-6.177.016-23.255.03-35.711.024c-3.422.01-6.963-.015-10.574.024a4.24,4.24,0,0,0-2.429,1.023,4.3,4.3,0,0,0-1.387,2.28,5.414,5.414,0,0,0-.118,1.369q0,.7,0,1.409,0,1.413,0,2.844c0,7.63,0,15.623.008,23.927v.1h-1.776a6.013,6.013,0,0,1-1.69-.186,8.506,8.506,0,0,1-1.585-.619,11.729,11.729,0,0,0-8.287-.44,11.863,11.863,0,0,0-5.627,3.86,11.671,11.671,0,0,0-2.536,6.45l-.049.887.045.888c.009.148.013.3.027.445l.071.44c.053.293.084.59.154.88a12.851,12.851,0,0,0,1.311,3.326,11.825,11.825,0,0,0,5.306,4.785,13,13,0,0,0,3.52.969c.3.029.612.036.918.056a7.035,7.035,0,0,0,.921.012,11.678,11.678,0,0,0,3.611-.731c.293-.107.568-.231.866-.355a6.337,6.337,0,0,1,.91-.288,5.813,5.813,0,0,1,.947-.142c.323-.021.635-.009.949-.012h2v25.63q0,1.188,0,2.373a4.309,4.309,0,0,0,2.274,3.749,4.447,4.447,0,0,0,2.211.5l18.471,0,34.922.007,16.263,0,7.786-.006a3.481,3.481,0,0,0,2.955-1.929,3.528,3.528,0,0,0,.3-.863,4.612,4.612,0,0,0,.069-.915q0-.936,0-1.864c0-9.9.01-19.118.014-27.535.015-16.833.028-30.456.036-39.874,0-2.353.007-4.444.01-6.256q0-1.359.006-2.507a3.694,3.694,0,0,0-.461-1.984,3.559,3.559,0,0,0-2.151-1.686,2.587,2.587,0,0,0-.407-.089,1.922,1.922,0,0,0-.3-.036c-.16-.01-.241-.018-.241-.018" transform="translate(-183.028 -135.996)" fill="#263238"/>
              <path id="Trazado_797257" data-name="Trazado 797257" d="M465.935,311.939a100.638,100.638,0,0,0-1.4-15.751c-1.015-5.179-2.287-10.227-5.549-14.389l-30.519,1.621c-1.178,4.675-2.365,9.465-1.876,14.26.475,4.653,2.518,9.15,2.189,13.815-.233,3.3-1.635,6.379-2.669,9.519s-1.7,6.628-.469,9.7A4.1,4.1,0,0,0,427.1,332.7a5.43,5.43,0,0,0,2.98.58q18.3.026,36.589-.834-.369-10.251-.738-20.5" transform="translate(-239.395 -158.74)" fill="#263238"/>
              <path id="Trazado_797258" data-name="Trazado 797258" d="M494.3,311.8a22.985,22.985,0,0,1-7.4,17.4l-3.308-9.526" transform="translate(-272.413 -175.641)" fill="#263238"/>
              <path id="Trazado_797259" data-name="Trazado 797259" d="M444.125,266.521a14.131,14.131,0,0,1,9.444-1.133,29.856,29.856,0,0,1,8.932,3.67,14.574,14.574,0,0,1,4.269,3.31c2.062,2.579,4.1,6.814,4.3,10.1.161,2.659-.864,9.315-1.994,11.73-1.037,2.216-5.893,3.9-8.29,4.45l-21.992-25.423a11.078,11.078,0,0,1,5.333-6.708" transform="translate(-247.176 -149.311)" fill="#263238"/>
              <path id="Trazado_797260" data-name="Trazado 797260" d="M434.242,275.052l5.272-.937c-2.882,6.822-3.663,22.423-5.312,29.638-1.943-2.8-6.456-11.34-6.215-14.735s-.01-14.545,6.255-13.966" transform="translate(-241.085 -154.412)" fill="#263238"/>
              <path id="Trazado_797261" data-name="Trazado 797261" d="M462.952,287.594a8.967,8.967,0,0,0-6.722-8.207L444.038,276.3c-5.247-.563-8.751,5.853-9.094,11.087-.382,5.816-.617,11.953.067,16.294,1.375,8.73,8.1,9.855,8.1,9.855s0,2.015.006,4.564l.137.321a9.408,9.408,0,0,0,17.02.556l2.71-31.251c0-.154-.018.11-.032-.128" transform="translate(-244.801 -155.621)" fill="#ffc09d"/>
              <path id="Trazado_797262" data-name="Trazado 797262" d="M439.273,315.414a1.122,1.122,0,0,0,1.083,1.132,1.075,1.075,0,0,0,1.163-1.007,1.122,1.122,0,0,0-1.082-1.132,1.075,1.075,0,0,0-1.164,1.007" transform="translate(-247.447 -177.108)" fill="#263238"/>
              <path id="Trazado_797263" data-name="Trazado 797263" d="M438.415,308.047c.139.146.994-.479,2.205-.473,1.211-.011,2.1.61,2.23.463.065-.065-.077-.329-.464-.61a3.106,3.106,0,0,0-1.785-.551,2.978,2.978,0,0,0-1.755.559c-.373.283-.5.547-.431.612" transform="translate(-246.954 -172.866)" fill="#263238"/>
              <path id="Trazado_797264" data-name="Trazado 797264" d="M464.531,315.065a1.122,1.122,0,0,0,1.083,1.131,1.075,1.075,0,0,0,1.163-1.007,1.123,1.123,0,0,0-1.083-1.132,1.075,1.075,0,0,0-1.164,1.007" transform="translate(-261.675 -176.911)" fill="#263238"/>
              <path id="Trazado_797265" data-name="Trazado 797265" d="M464.764,308.047c.14.146,1-.48,2.206-.473,1.21-.011,2.1.61,2.23.463.064-.065-.076-.329-.464-.61a3.1,3.1,0,0,0-1.785-.552,2.984,2.984,0,0,0-1.756.559c-.372.283-.5.547-.431.613" transform="translate(-261.797 -172.866)" fill="#263238"/>
              <path id="Trazado_797266" data-name="Trazado 797266" d="M452.133,318.276a8.107,8.107,0,0,0-1.967-.357c-.309-.032-.6-.094-.653-.3a1.553,1.553,0,0,1,.208-.911l.92-2.34a40.144,40.144,0,0,0,2.069-6.121,40.194,40.194,0,0,0-2.559,5.941q-.461,1.232-.882,2.354a1.769,1.769,0,0,0-.163,1.207.773.773,0,0,0,.507.451,2.115,2.115,0,0,0,.525.074,7.909,7.909,0,0,0,1.995.007" transform="translate(-252.954 -173.636)" fill="#263238"/>
              <path id="Trazado_797267" data-name="Trazado 797267" d="M465.769,354.5s-2.857,5.994-11.642,5.158l0-2.053a22.228,22.228,0,0,0,11.645-3.105" transform="translate(-255.813 -199.693)" fill="#ff9b6c"/>
              <path id="Trazado_797268" data-name="Trazado 797268" d="M465.65,298.435c.118.328,1.329.175,2.749.348,1.425.145,2.57.561,2.759.268.085-.141-.114-.449-.577-.767a4.844,4.844,0,0,0-4.2-.47c-.522.208-.786.465-.734.621" transform="translate(-262.302 -167.606)" fill="#263238"/>
              <path id="Trazado_797269" data-name="Trazado 797269" d="M439.3,299.518c.213.274,1.048-.008,2.052-.019,1-.046,1.853.188,2.049-.1.086-.139-.047-.413-.418-.673a2.985,2.985,0,0,0-3.3.094c-.355.28-.472.562-.379.7" transform="translate(-247.447 -168.022)" fill="#263238"/>
              <path id="Trazado_797270" data-name="Trazado 797270" d="M440.677,275.052a3.864,3.864,0,0,1,3.411-2.173,7.532,7.532,0,0,1,4.049,1.173c5.229,3,7.916,10.26,13.083,13.369,1.271.764,2.925.064,4.005,1.076a3.692,3.692,0,0,1,1.184,3.982,12.2,12.2,0,0,0,1.793-3.014,4.1,4.1,0,0,0-.145-3.4c-.447-.77-1.237-1.358-1.453-2.22a11.615,11.615,0,0,1,.077-2.333,5.066,5.066,0,0,0-.8-2.226,22.714,22.714,0,0,0-8.393-8.777,14.927,14.927,0,0,0-7.705-1.98,11.4,11.4,0,0,0-7.331,2.892c-1.156,1.071-2.371,2.179-1.771,3.632" transform="translate(-248.149 -151.26)" fill="#263238"/>
              <path id="Trazado_797271" data-name="Trazado 797271" d="M496.806,316.137c.093-.251,4.672-1.893,4.733,2.945.059,4.7-4.713,3.775-4.722,3.64s-.011-6.586-.011-6.586" transform="translate(-279.856 -177.819)" fill="#ffc09d"/>
              <path id="Trazado_797272" data-name="Trazado 797272" d="M500.128,322.907c.021-.015.083.057.223.119a.831.831,0,0,0,.616.007,2.024,2.024,0,0,0,.926-1.827,2.7,2.7,0,0,0-.242-1.17.95.95,0,0,0-.625-.623.42.42,0,0,0-.484.229c-.062.132-.031.225-.056.234s-.1-.078-.066-.272a.519.519,0,0,1,.183-.3.622.622,0,0,1,.454-.124,1.156,1.156,0,0,1,.868.721,2.764,2.764,0,0,1,.3,1.308,2.124,2.124,0,0,1-1.183,2.041.886.886,0,0,1-.755-.117c-.148-.115-.173-.22-.157-.228" transform="translate(-281.725 -179.798)" fill="#ff9b6c"/>
              <path id="Trazado_797273" data-name="Trazado 797273" d="M468.291,290.776a1.837,1.837,0,0,1-.286-.158c-.181-.114-.46-.267-.793-.5a16.224,16.224,0,0,1-2.553-2.31,45.289,45.289,0,0,1-3.122-4.031,37.026,37.026,0,0,0-3.9-4.831,14.845,14.845,0,0,0-2.518-1.978,12.293,12.293,0,0,0-2.721-1.227,13.538,13.538,0,0,0-5.009-.611,12.984,12.984,0,0,0-3.356.654c-.389.117-.676.247-.876.323a1.9,1.9,0,0,1-.309.109,1.859,1.859,0,0,1,.291-.148A8.079,8.079,0,0,1,444,275.7a12.326,12.326,0,0,1,3.373-.726,13.454,13.454,0,0,1,5.08.574,12.364,12.364,0,0,1,2.77,1.236,14.838,14.838,0,0,1,2.56,2,36.009,36.009,0,0,1,3.914,4.869,48.3,48.3,0,0,0,3.074,4.045,17.483,17.483,0,0,0,2.488,2.343c.323.243.594.406.766.531a1.876,1.876,0,0,1,.262.2" transform="translate(-249.46 -154.874)" fill="#455a64"/>
              <path id="Trazado_797274" data-name="Trazado 797274" d="M490.442,305.646a7.2,7.2,0,0,1-.463,3.78,2.515,2.515,0,0,1-3.225,1.279,3.544,3.544,0,0,1-1.346-2.724c-.448-2.994-.654-6.02-1.128-9.01Z" transform="translate(-272.8 -168.414)" fill="#263238"/>
              <path id="Trazado_797275" data-name="Trazado 797275" d="M443.547,278.073c.005.027.418-.079,1.176-.1a8.136,8.136,0,0,1,3.13.568,10.372,10.372,0,0,1,1.961,1,21.164,21.164,0,0,1,2.022,1.535,24.206,24.206,0,0,1,3.96,4.243c.6.838,1.133,1.7,1.709,2.5a11.981,11.981,0,0,0,1.9,2.119,21.106,21.106,0,0,0,4,2.658c1.21.636,2.221,1.081,2.919,1.389l.809.342a1.323,1.323,0,0,0,.29.1,1.355,1.355,0,0,0-.268-.151l-.787-.387c-.684-.336-1.682-.806-2.873-1.459a21.823,21.823,0,0,1-3.924-2.676,11.927,11.927,0,0,1-1.846-2.087c-.566-.79-1.1-1.653-1.7-2.5a23.745,23.745,0,0,0-4.018-4.276,20.753,20.753,0,0,0-2.062-1.534,10.3,10.3,0,0,0-2.014-.994,7.851,7.851,0,0,0-3.2-.5,5.537,5.537,0,0,0-.875.121,1.338,1.338,0,0,0-.3.084" transform="translate(-249.855 -156.518)" fill="#455a64"/>
              <path id="Trazado_797276" data-name="Trazado 797276" d="M530.01,401.374l14.036,14.95c2.316,2.467,4,4.721,7.28,5.581,2.3.6,5.908.288,7.1-1.227,1.633-2.078,2.412-6.342.623-9.089s-14.355-14.974-14.355-14.974Z" transform="translate(-298.56 -223.418)" fill="#ffc09d"/>
              <path id="Trazado_797277" data-name="Trazado 797277" d="M543.889,382.215s-14.586-17.3-20.131-17.3c0,0-3.506,6.135-3.622,9.48S531.357,393.4,531.357,393.4Z" transform="translate(-292.998 -205.561)" fill="#59bee2"/>
              <path id="Trazado_797278" data-name="Trazado 797278" d="M470.555,387.594l-4.634-22.966-15-.155c-5.525,6.247-11.169,10.723-17.6,3.536l-15.793,6.21,4.1,22.3,47.633-.031c1.856-6.113,1.287-8.9,1.287-8.9" transform="translate(-235.199 -205.312)" fill="#59bee2"/>
              <path id="Trazado_797279" data-name="Trazado 797279" d="M393.2,409.064c0-.923,5.286-20.082,10.623-22.273l4.122,6.325,1.162,15.966Z" transform="translate(-221.496 -217.884)" fill="#59bee2"/>
              <path id="Trazado_797280" data-name="Trazado 797280" d="M534.116,415.16a2.87,2.87,0,0,1-.39-.431c-.24-.286-.577-.71-.987-1.237-.821-1.055-1.919-2.537-3.138-4.167s-2.351-3.085-3.2-4.114c-.423-.515-.769-.93-1.011-1.213a2.833,2.833,0,0,1-.357-.459,2.875,2.875,0,0,1,.423.4c.263.266.628.665,1.068,1.169.882,1.005,2.037,2.448,3.258,4.081s2.3,3.129,3.085,4.207l.928,1.279a2.861,2.861,0,0,1,.32.486" transform="translate(-295.757 -227.317)" fill="#263238"/>
              <path id="Trazado_797281" data-name="Trazado 797281" d="M421.146,419.554a2.793,2.793,0,0,1-.171-.552c-.1-.359-.217-.883-.345-1.536a31.83,31.83,0,0,1-.256-10.347c.094-.658.187-1.188.268-1.551a2.832,2.832,0,0,1,.144-.56,2.775,2.775,0,0,1-.056.575c-.053.367-.122.9-.2,1.556a37.536,37.536,0,0,0,.255,10.3c.106.653.2,1.18.272,1.544a2.822,2.822,0,0,1,.085.571" transform="translate(-236.63 -228.146)" fill="#263238"/>
              <path id="Trazado_797282" data-name="Trazado 797282" d="M421.507,322.663c.007.058.165.1.469.1a3.464,3.464,0,0,0,1.288-.33,5.425,5.425,0,0,0,1.7-1.263,6.87,6.87,0,0,0,1.417-2.419,11.939,11.939,0,0,0,.6-3.266c.066-1.175.043-2.393,0-3.683-.1-2.576-.407-5.38-.747-8.294s-.655-5.67-.781-8.175a47.156,47.156,0,0,1,.08-6.64c.331-3.767,1.125-6.022.859-6.12-.058-.022-.165.1-.316.346-.076.125-.163.282-.26.47s-.189.414-.3.666a21.233,21.233,0,0,0-1.243,4.474,36.573,36.573,0,0,0-.474,6.859c.038,2.585.31,5.4.651,8.323s.691,5.678.879,8.185c.09,1.251.166,2.452.166,3.54a11.781,11.781,0,0,1-.322,2.945,6.021,6.021,0,0,1-2.251,3.449c-.824.583-1.431.693-1.408.835" transform="translate(-237.439 -159.173)" fill="#263238"/>
              <path id="Trazado_797283" data-name="Trazado 797283" d="M457.592,335.36a2.177,2.177,0,0,1,1.914-.876,1.987,1.987,0,0,1,1.4.677,1.243,1.243,0,0,1,.151,1.423,1.463,1.463,0,0,1-1.563.458,4.578,4.578,0,0,1-1.575-.854,1.325,1.325,0,0,1-.358-.341.4.4,0,0,1-.016-.445" transform="translate(-257.704 -188.415)" fill="#ff9b6c"/>
              <path id="Trazado_797284" data-name="Trazado 797284" d="M459.709,331.518c-.2,0-.148,1.3-1.231,2.261s-2.48.876-2.483,1.058c-.015.082.32.241.909.234a3.268,3.268,0,0,0,2.076-.81,2.812,2.812,0,0,0,.948-1.893c.029-.545-.13-.862-.219-.851" transform="translate(-256.867 -186.747)" fill="#263238"/>
              <path id="Trazado_797285" data-name="Trazado 797285" d="M500.448,319.18c1.654,6.006.251,14.033,1.886,18.856s2.826,10.174.976,14.919l-2.547-5.607a7.193,7.193,0,0,1-.55,6.943c-1.362,2.014-8.227,3.73-10.665,3.614-2.469-13.02-1.787-22.977,2.475-33.042l3.291,3.637,2.964-1.268Z" transform="translate(-274.964 -179.798)" fill="#263238"/>
              <path id="Trazado_797286" data-name="Trazado 797286" d="M456.9,308.319a9.006,9.006,0,0,1,.21-1.366,5.345,5.345,0,0,1,.633-1.482,5.63,5.63,0,0,1,3.786-2.607,5.644,5.644,0,0,1,2.931.247,5.262,5.262,0,0,1,1.41.756,5.1,5.1,0,0,1,1.178,1.177,5.492,5.492,0,0,1,0,6.548,6.384,6.384,0,0,1-.545.642,6.28,6.28,0,0,1-.632.535,5.247,5.247,0,0,1-1.41.756,5.648,5.648,0,0,1-2.932.247,5.635,5.635,0,0,1-3.786-2.607,5.357,5.357,0,0,1-.632-1.483,9,9,0,0,1-.21-1.365.331.331,0,0,0,0,.091c0,.071,0,.159,0,.268a2.622,2.622,0,0,0,.035.435,4,4,0,0,0,.107.587,5.287,5.287,0,0,0,.614,1.516,5.709,5.709,0,0,0,3.845,2.7,5.776,5.776,0,0,0,3.015-.238,5.4,5.4,0,0,0,1.456-.773,5.247,5.247,0,0,0,1.217-1.211,5.65,5.65,0,0,0,0-6.755,6.517,6.517,0,0,0-.565-.661,6.447,6.447,0,0,0-.653-.549,5.4,5.4,0,0,0-1.455-.773,5.776,5.776,0,0,0-3.015-.238,5.707,5.707,0,0,0-3.845,2.7,5.329,5.329,0,0,0-.614,1.517,3.991,3.991,0,0,0-.107.587,2.626,2.626,0,0,0-.035.435c0,.11,0,.2,0,.269a.331.331,0,0,0,0,.091" transform="translate(-257.372 -170.47)" fill="#455a64"/>
              <path id="Trazado_797287" data-name="Trazado 797287" d="M427.809,307.762a9.049,9.049,0,0,1,.211-1.366,5.351,5.351,0,0,1,.632-1.482,5.633,5.633,0,0,1,3.787-2.607,5.643,5.643,0,0,1,2.931.247,5.257,5.257,0,0,1,1.41.756,5.1,5.1,0,0,1,1.178,1.177,5.49,5.49,0,0,1,0,6.548,5.084,5.084,0,0,1-1.178,1.177,5.239,5.239,0,0,1-1.41.756,5.647,5.647,0,0,1-2.932.247,5.637,5.637,0,0,1-3.786-2.607,5.368,5.368,0,0,1-.632-1.483,9.039,9.039,0,0,1-.211-1.365.352.352,0,0,0,0,.091c0,.071,0,.159,0,.269a2.622,2.622,0,0,0,.036.435,3.95,3.95,0,0,0,.107.587,5.3,5.3,0,0,0,.614,1.516,5.709,5.709,0,0,0,3.845,2.7,5.776,5.776,0,0,0,3.015-.238,5.41,5.41,0,0,0,1.456-.773,6.539,6.539,0,0,0,.653-.55,6.471,6.471,0,0,0,.564-.662,5.648,5.648,0,0,0,0-6.755,6.523,6.523,0,0,0-.565-.661,6.377,6.377,0,0,0-.653-.549,5.4,5.4,0,0,0-1.456-.773,5.779,5.779,0,0,0-3.015-.238,5.71,5.71,0,0,0-3.845,2.7,5.3,5.3,0,0,0-.614,1.517,3.945,3.945,0,0,0-.107.587,2.629,2.629,0,0,0-.036.435c0,.11,0,.2,0,.269a.352.352,0,0,0,0,.091" transform="translate(-240.987 -170.157)" fill="#455a64"/>
              <path id="Trazado_797288" data-name="Trazado 797288" d="M453.485,312.757c.023.014.09-.073.222-.173a1.056,1.056,0,0,1,1.189-.093c.146.079.226.153.247.136s-.029-.122-.176-.241a1,1,0,0,0-1.346.105c-.126.14-.155.255-.136.265" transform="translate(-255.45 -175.851)" fill="#455a64"/>
              <path id="Trazado_797289" data-name="Trazado 797289" d="M482.4,312.37a69.734,69.734,0,0,0,6.9,1.447,69.767,69.767,0,0,0-6.9-1.447" transform="translate(-271.74 -175.959)" fill="#455a64"/>
              <path id="Trazado_797290" data-name="Trazado 797290" d="M476.435,314.419a.89.89,0,0,0,.338-.143,2.966,2.966,0,0,0,.744-.671,4.857,4.857,0,0,0,.749-1.28,5.14,5.14,0,0,0,.327-1.784,5.493,5.493,0,0,0-.963-3.11,4.638,4.638,0,0,0-.65-.757,1.432,1.432,0,0,0-.289-.225,9.814,9.814,0,0,1,.833,1.052,5.668,5.668,0,0,1,.889,3.04,5.177,5.177,0,0,1-.3,1.727,5.069,5.069,0,0,1-.694,1.26,3.375,3.375,0,0,1-.683.691c-.187.134-.307.186-.3.2" transform="translate(-268.381 -172.626)" fill="#fff"/>
              <path id="Trazado_797291" data-name="Trazado 797291" d="M470.734,325.909a3.1,3.1,0,0,0,1.931-.621,67.222,67.222,0,0,0-1.931.621" transform="translate(-265.17 -183.234)" fill="#fff"/>
              <path id="Trazado_797292" data-name="Trazado 797292" d="M440.453,303.826c0,.031.384.032.981.162a5.587,5.587,0,0,1,3.713,2.723c.3.529.416.894.445.884a.731.731,0,0,0-.055-.264,4.285,4.285,0,0,0-.278-.679,5.233,5.233,0,0,0-3.8-2.788,4.327,4.327,0,0,0-.735-.063.738.738,0,0,0-.27.025" transform="translate(-248.112 -171.134)" fill="#fff"/>
              <path id="Trazado_797293" data-name="Trazado 797293" d="M451.557,316.242a2.158,2.158,0,0,0,.328-1.836,13.45,13.45,0,0,1-.328,1.836" transform="translate(-254.362 -177.108)" fill="#fff"/>
              <path id="Trazado_797294" data-name="Trazado 797294" d="M480.668,368.291c.1.061.463-.285.972-1.023a15.091,15.091,0,0,0,1.666-3.4,26.853,26.853,0,0,0,1.269-5.448,65.493,65.493,0,0,0,.488-6.747c.073-2.373.14-4.611.313-6.627a37.049,37.049,0,0,1,.79-5.285c.679-2.963,1.594-4.664,1.349-4.807-.1-.059-.457.293-.953,1.039a15.334,15.334,0,0,0-1.614,3.421,27.6,27.6,0,0,0-1.214,5.456c-.27,2.079-.388,4.368-.462,6.745s-.15,4.605-.337,6.618a35.607,35.607,0,0,1-.842,5.272c-.717,2.952-1.667,4.636-1.423,4.783" transform="translate(-270.743 -188.681)" fill="#263238"/>
              <path id="Trazado_797295" data-name="Trazado 797295" d="M500.77,330.655c-.01.013.107.094.264.287a1.846,1.846,0,0,1,.386.954,1.659,1.659,0,0,1-.507,1.381,1.816,1.816,0,0,1-1.718.48,1.954,1.954,0,0,1-1.356-1.18,2.144,2.144,0,0,1,0-1.5,1.42,1.42,0,0,1,.635-.791,1.208,1.208,0,0,1,.37-.1s-.034-.017-.1-.021a.686.686,0,0,0-.3.056,1.435,1.435,0,0,0-.724.807,2.229,2.229,0,0,0-.036,1.606,2.1,2.1,0,0,0,1.467,1.3,1.932,1.932,0,0,0,1.048-.028,2.061,2.061,0,0,0,.831-.509,1.867,1.867,0,0,0,.458-.751,1.775,1.775,0,0,0,.058-.761,1.807,1.807,0,0,0-.459-.984.882.882,0,0,0-.317-.242" transform="translate(-280.277 -185.986)" fill="#e0e0e0"/>
              <path id="Trazado_797296" data-name="Trazado 797296" d="M551.379,332.486l-.45-5.7-1.165-7.191-1.808-5.89s-.368-.558-1.083-.03.3,3.739.3,3.739l.387,2.455s-.241,1.953-.4,1.808-1-3.425-1-3.425L544,311.251a.964.964,0,0,0-1.268-.364c-.474.207-.718.951-.542,2.005s.836,2.793.95,3.39.891,4.033.891,4.033l-3.3-7.742s-.733-2.555-1.784-2.064-.119,2.281.017,3.083,2.307,6.08,2.34,7.614-.293.8-.293.8l-1.617-4.362c-.713-1.923-1.59-2.987-2.466-3.039s.775,4.4.775,4.4l2.153,6.243-.142,2.076-1.634-1.68s-.3-2.4-1.921-3.237c-1.645-.853-1.886.328-1.886.328l3.823,9c.831,1.449,5.464,3.942,5.464,3.942l1.781,9.24,9.684-1.611Z" transform="translate(-300.961 -174.878)" fill="#ffc09d"/>
              <path id="Trazado_797297" data-name="Trazado 797297" d="M552.558,349.1a10.3,10.3,0,0,1-1.395-.93A5.3,5.3,0,0,0,547.5,347.1a2.839,2.839,0,0,0-1.665.812l-.145.155-.159-.168c-.7-.74-1.437-1.371-1.884-1.836-.467-.46-.707-.779-.665-.81a5.376,5.376,0,0,1,.829.631,26.635,26.635,0,0,1,2.034,1.773l-.3-.013a3.134,3.134,0,0,1,1.894-.962,4.357,4.357,0,0,1,2.3.3,6.9,6.9,0,0,1,1.605.944,4.928,4.928,0,0,1,1.219,1.173" transform="translate(-305.866 -194.486)" fill="#ff9b6c"/>
              <path id="Trazado_797298" data-name="Trazado 797298" d="M561.444,395.159l-5.177-28.792,7.839-3.4L574.684,394.7Z" transform="translate(-313.351 -204.465)" fill="#ffc09d"/>
              <path id="Trazado_797299" data-name="Trazado 797299" d="M561.757,398.384a7.5,7.5,0,0,1-.347-1.162c-.2-.754-.472-1.849-.79-3.206-.641-2.714-1.461-6.477-2.305-10.644s-1.561-7.953-2.058-10.695c-.231-1.325-.423-2.421-.568-3.251a7.493,7.493,0,0,1-.158-1.2,7.568,7.568,0,0,1,.3,1.174l.685,3.228,2.166,10.671,2.2,10.661c.275,1.317.5,2.406.673,3.23a7.461,7.461,0,0,1,.2,1.195" transform="translate(-312.934 -207.425)" fill="#ff9b6c"/>
            </g>
          </g>
          <g id="Grupo_1064400" data-name="Grupo 1064400">
            <g id="Grupo_1064399" data-name="Grupo 1064399" clip-path="url(#clip-path)">
              <path id="Trazado_797300" data-name="Trazado 797300" d="M381.307,64.616a12.18,12.18,0,0,0-4.707.94,6.121,6.121,0,0,1-2.359.493l-3.094-.183-.154-25.954a4.22,4.22,0,0,0-4.332-4.1l-3.43.012H289.465a4.147,4.147,0,0,0-4.194,4.1V65.709h-1.841a5.646,5.646,0,0,1-2.464-.578c-1.948-.944-5.583-2.158-8.062-1.746-4.919.817-9.915,5.769-9.916,10.647a13.009,13.009,0,0,0,13.08,13.3,11.464,11.464,0,0,0,4.557-.94,4.577,4.577,0,0,1,2.021-.485l2.625-.007v25.537a4.147,4.147,0,0,0,4.194,4.1h77.059a4.22,4.22,0,0,0,4.332-4.1l.137-26.559,2.708.19a6.127,6.127,0,0,1,2.546.578,12.244,12.244,0,0,0,7.077.935,11.356,11.356,0,0,0,9.608-9.655c.772-6.67-4.73-12.314-11.625-12.314" transform="translate(-148.145 -20.173)" fill="#e8e8e8"/>
              <path id="Trazado_797301" data-name="Trazado 797301" d="M381.163,64.5s.268.007.793.03l.442.02c.163.016.34.048.534.076l.627.094c.225.033.456.11.708.169a11.668,11.668,0,0,1,7.138,5.27,9.856,9.856,0,0,1,.681,1.374,10.6,10.6,0,0,1,.513,1.535c.075.267.1.548.157.827.024.14.048.281.073.423s.02.288.03.433c.014.291.04.585.044.883q-.025.447-.052.9a10.423,10.423,0,0,1-1.008,3.666,11.149,11.149,0,0,1-2.462,3.3,12.053,12.053,0,0,1-8.416,3.187,12.225,12.225,0,0,1-4.907-1.1,6.075,6.075,0,0,0-2.519-.564l-2.7-.186.077-.072q-.029,6.337-.061,13.457-.016,3.556-.034,7.294-.009,1.869-.018,3.781,0,.956-.009,1.924a4.027,4.027,0,0,1-.441,1.916,4.4,4.4,0,0,1-3.144,2.3,12.89,12.89,0,0,1-2.02.078h-2.028l-8.315,0-17.542.006-38.294.008h-8.871c-.427,0-.849.011-1.291-.025a4.356,4.356,0,0,1-2.382-1.033,4.174,4.174,0,0,1-1.351-2.23,5.571,5.571,0,0,1-.107-1.312v-3.9q0-10.446,0-21.241l.114.114-2.7.009a3.886,3.886,0,0,0-1.316.241c-.426.152-.85.361-1.3.514a11.5,11.5,0,0,1-2.785.617,9.173,9.173,0,0,1-1.441.036,10.974,10.974,0,0,1-1.44-.118,13.138,13.138,0,0,1-9.8-6.7,13.719,13.719,0,0,1-1.577-5.815,7.976,7.976,0,0,1,.3-3,10.628,10.628,0,0,1,.522-1.413,12.509,12.509,0,0,1,.733-1.308,13.952,13.952,0,0,1,.872-1.214c.334-.369.646-.757,1.014-1.091a13.288,13.288,0,0,1,2.322-1.836,11.929,11.929,0,0,1,2.655-1.272,7.954,7.954,0,0,1,2.89-.477,17.38,17.38,0,0,1,5.615,1.317c.445.175.884.376,1.31.578a5.693,5.693,0,0,0,1.326.418,6.784,6.784,0,0,0,1.39.088h1.41l-.11.11q0-12.714,0-24.741c.007-.5-.018-.993.028-1.509a4.044,4.044,0,0,1,.449-1.454,4.3,4.3,0,0,1,2.22-1.98,4.191,4.191,0,0,1,1.472-.3c.5-.013.981,0,1.47-.006h2.915l11.4,0,40.9.017,17.226.01,1.985-.006.978,0a8.377,8.377,0,0,1,.975.031,4.433,4.433,0,0,1,3.187,1.9,4.044,4.044,0,0,1,.651,1.721c.064.614.028,1.2.042,1.793q.009,1.765.017,3.448c.042,8.971.076,16.148.1,21.224l-.032-.035,2.46.15a5.736,5.736,0,0,0,2.1-.15c.63-.155,1.162-.432,1.677-.593a12.087,12.087,0,0,1,3.3-.614c.421-.016.629-.007.629-.007l-.628.025a12.606,12.606,0,0,0-1.889.254,12.346,12.346,0,0,0-1.392.384c-.511.162-1.042.442-1.678.6a5.8,5.8,0,0,1-2.112.16L371,65.781l-.032,0v-.032c-.037-5.076-.088-12.253-.152-21.224q-.012-1.682-.024-3.448c-.015-.586.019-1.192-.044-1.776a3.917,3.917,0,0,0-.632-1.663,4.3,4.3,0,0,0-3.092-1.841,8.19,8.19,0,0,0-.959-.029l-.978,0-1.985.008-17.226.01-40.9.017-11.4,0h-2.915a7.451,7.451,0,0,0-2.865.291,4.093,4.093,0,0,0-2.111,1.884,3.839,3.839,0,0,0-.426,1.38c-.043.478-.02.988-.026,1.485q0,12.008,0,24.741v.11h-1.521a7.031,7.031,0,0,1-1.43-.091,5.915,5.915,0,0,1-1.378-.434c-.432-.2-.857-.4-1.3-.573a17.171,17.171,0,0,0-5.538-1.3,7.734,7.734,0,0,0-2.813.466,11.714,11.714,0,0,0-2.606,1.249,13.081,13.081,0,0,0-2.284,1.807c-.362.329-.669.711-1,1.073a13.748,13.748,0,0,0-.856,1.192,12.237,12.237,0,0,0-.718,1.283,10.436,10.436,0,0,0-.51,1.38A7.754,7.754,0,0,0,263,74.674a13.491,13.491,0,0,0,1.551,5.718,12.912,12.912,0,0,0,9.63,6.579,10.747,10.747,0,0,0,1.415.117,8.932,8.932,0,0,0,1.414-.036,11.3,11.3,0,0,0,2.73-.6c.438-.149.852-.354,1.3-.514a4.128,4.128,0,0,1,1.388-.254l2.705-.008h.114v.114q0,10.784,0,21.241v3.9a5.347,5.347,0,0,0,.1,1.263,3.955,3.955,0,0,0,1.279,2.111,4.135,4.135,0,0,0,2.259.98c.411.034.842.022,1.268.024h8.871l38.294.008,17.542.006,8.315,0H365.2a12.777,12.777,0,0,0,1.987-.073,4.22,4.22,0,0,0,3.018-2.2,3.846,3.846,0,0,0,.423-1.836q.006-.967.011-1.924.011-1.913.021-3.781.022-3.738.042-7.294.041-7.11.078-13.457v-.077l.077.005,2.69.19a6.222,6.222,0,0,1,2.571.58,12.089,12.089,0,0,0,4.852,1.1,11.934,11.934,0,0,0,8.337-3.14,11.032,11.032,0,0,0,2.445-3.267,10.327,10.327,0,0,0,1.006-3.628q.028-.453.054-.9c0-.3-.029-.587-.042-.875-.01-.144-.01-.288-.029-.429l-.071-.419c-.053-.276-.08-.555-.154-.82a10.573,10.573,0,0,0-.5-1.525,9.8,9.8,0,0,0-.672-1.366,11.654,11.654,0,0,0-7.081-5.271c-.25-.06-.48-.139-.7-.173l-.625-.1c-.193-.029-.369-.063-.531-.08l-.441-.025c-.524-.03-.792-.051-.792-.051" transform="translate(-148 -20.054)" fill="#263238"/>
              <path id="Trazado_797302" data-name="Trazado 797302" d="M483.8,190.832a15,15,0,0,0-1.659-3.411c-2.6-2.363-5.147-2.959-8-5.006l.577,23.069c.85,1.236,2.667,1.091,4.076.575a6.4,6.4,0,0,0,3.2-3.028,18.008,18.008,0,0,0,2.412-8.38,11.493,11.493,0,0,0-.6-3.819" transform="translate(-267.091 -102.756)" fill="#74c67b"/>
              <path id="Trazado_797303" data-name="Trazado 797303" d="M371.463,139.532c-2.739-1.68-11.723-3.277-13.74-3.457l-2.516-2.062-17.723-1.071-2.6,3.586-9.084,2.418a12.227,12.227,0,0,0-6.134,3.851l-5.408,4.255.009,18.418c0,2.835,1.447,4.721,4.282,4.722L373,170.055c3.332,5.856,7.555,8.965,14.69,8.461l-1.062-23.753s-11.306-12.867-15.161-15.232" transform="translate(-177.024 -74.888)" fill="#74c67b"/>
              <path id="Trazado_797304" data-name="Trazado 797304" d="M448.9,168.3a.809.809,0,0,1,.037.218c.017.17.038.378.062.629.051.547.107,1.339.165,2.32.113,1.96.2,4.674.151,7.67s-.19,5.707-.31,7.666c-.065.953-.119,1.737-.159,2.319-.022.252-.041.46-.056.63a.8.8,0,0,1-.035.219.853.853,0,0,1-.01-.221c0-.171.008-.38.013-.632.022-.583.052-1.368.087-2.322.078-1.96.2-4.669.242-7.661s-.012-5.7-.084-7.66c-.038-.954-.069-1.738-.093-2.321-.008-.253-.014-.461-.02-.632a.824.824,0,0,1,.009-.221" transform="translate(-252.781 -94.808)" fill="#263238"/>
              <path id="Trazado_797305" data-name="Trazado 797305" d="M339.38,182.748c-.06.017-1.255-4.042-2.668-9.065s-2.509-9.11-2.449-9.127,1.255,4.041,2.668,9.066,2.509,9.109,2.449,9.126" transform="translate(-188.293 -92.696)" fill="#263238"/>
              <path id="Trazado_797306" data-name="Trazado 797306" d="M378.2,151.2a.43.43,0,0,1-.121-.048l-.339-.166c-.294-.151-.721-.381-1.251-.7a27.412,27.412,0,0,1-4.121-3.031l.161-.09a21.3,21.3,0,0,1,.271,5.276l-.014.2-.161-.111-.84-.583-.85-.627a36.494,36.494,0,0,1-7.148-7.236c-.776-1.05-1.342-1.941-1.722-2.563-.188-.313-.325-.56-.419-.728a1.39,1.39,0,0,1-.131-.262,1.461,1.461,0,0,1,.171.238l.455.7c.4.606.987,1.481,1.776,2.514a38.327,38.327,0,0,0,7.157,7.151l.845.624.833.581-.175.085a21.74,21.74,0,0,0-.239-5.226l-.047-.278.209.189a29.908,29.908,0,0,0,4.051,3.08c.519.33.936.575,1.22.742a3.333,3.333,0,0,1,.431.266" transform="translate(-203.645 -79.161)" fill="#263238"/>
              <path id="Trazado_797307" data-name="Trazado 797307" d="M407.327,140.117a.765.765,0,0,1,.03.212c.013.139.027.345.037.611.022.531.034,1.3-.01,2.252a29.4,29.4,0,0,1-.346,3.324c-.1.622-.224,1.269-.381,1.939a6.575,6.575,0,0,1-.779,1.994,3.1,3.1,0,0,1-1,.994l-.175.1,0-.2c.038-1.761.074-3.382.1-4.756l.176.039a19.874,19.874,0,0,1-1.526,2.792,6.509,6.509,0,0,1-.539.7,1.235,1.235,0,0,1-.228.211,1.4,1.4,0,0,1,.186-.247c.119-.162.3-.4.493-.721a23.154,23.154,0,0,0,1.445-2.809l.183-.414-.006.453c-.018,1.373-.04,2.995-.063,4.756l-.17-.1a2.883,2.883,0,0,0,.924-.923,6.437,6.437,0,0,0,.754-1.924c.157-.659.285-1.3.391-1.921a32.931,32.931,0,0,0,.392-3.3c.063-.944.076-1.711.082-2.241a6.8,6.8,0,0,1,.021-.824" transform="translate(-226.843 -78.929)" fill="#263238"/>
              <path id="Trazado_797308" data-name="Trazado 797308" d="M468.965,214.465a3.672,3.672,0,0,1-.634.2,10.269,10.269,0,0,1-1.792.276,9.52,9.52,0,0,1-2.686-.192,7.842,7.842,0,0,1-1.523-.486,5.752,5.752,0,0,1-1.474-.894,4.555,4.555,0,0,1-1.045-1.378,7.218,7.218,0,0,1-.567-1.5,10.805,10.805,0,0,1-.314-2.675c0-.766.043-1.382.076-1.807a3.6,3.6,0,0,1,.079-.659,3.74,3.74,0,0,1,.01.663c-.005.426-.026,1.042,0,1.8a11.274,11.274,0,0,0,.355,2.623,7.2,7.2,0,0,0,.562,1.449,4.4,4.4,0,0,0,1,1.309,6.924,6.924,0,0,0,2.894,1.348,9.866,9.866,0,0,0,2.632.236,20.762,20.762,0,0,0,2.434-.313" transform="translate(-258.52 -115.676)" fill="#263238"/>
              <path id="Trazado_797309" data-name="Trazado 797309" d="M457.494,187.14c.026.037-.567.42-1.387,1.192a12.905,12.905,0,0,0-1.325,1.464,12.862,12.862,0,0,0-2.18,4.285,12.931,12.931,0,0,0-.4,1.933c-.141,1.118-.1,1.822-.146,1.823a2.049,2.049,0,0,1-.05-.492,4.671,4.671,0,0,1-.007-.58c.009-.226.006-.486.044-.769a11.586,11.586,0,0,1,.361-1.972,12.153,12.153,0,0,1,2.216-4.358A11.572,11.572,0,0,1,456,188.214c.207-.2.418-.348.6-.488a4.615,4.615,0,0,1,.473-.336,2.059,2.059,0,0,1,.428-.249" transform="translate(-254.611 -105.418)" fill="#263238"/>
              <path id="Trazado_797310" data-name="Trazado 797310" d="M463.129,153.324l3.938-26.439,7.125,1.086s1.683,22.223,1.372,28.986c-.1,2.112.049,5.655-1.381,7.965-2.443,3.944-9.61,3.951-11.829-.123-1.155-1.733-.657-4.193-.411-5.442Z" transform="translate(-260.038 -71.476)" fill="#ae7461"/>
              <path id="Trazado_797311" data-name="Trazado 797311" d="M475.561,102.908l1.2-5.257.977-6.8.036-5.813s-.172-.605-.961-.329-.781,3.453-.781,3.453l-.344,2.32s-.765,1.692-.868,1.517.065-3.366.065-3.366l.032-6.916a.9.9,0,0,0-1.033-.682c-.483.053-.91.656-1.048,1.655s-.036,2.75-.1,3.32-.335,3.883-.335,3.883l-.779-7.9s.062-2.507-1.017-2.358-.748,2.022-.851,2.783.358,6.123-.045,7.513-.487.639-.487.639-.124-2.45-.222-4.382-.584-3.135-1.354-3.427-.544,4.185-.544,4.185l.174,6.227L466.562,95l-.992-1.97s.4-2.245-.811-3.453c-1.234-1.228-1.781-.232-1.781-.232l.9,9.174c.337,1.537,3.786,5.078,3.786,5.078l-1,8.823,9.125,1.253Z" transform="translate(-260.801 -44.855)" fill="#ae7461"/>
              <path id="Trazado_797312" data-name="Trazado 797312" d="M476.286,116.926a9.709,9.709,0,0,1-.988-1.228,4.953,4.953,0,0,0-2.98-1.982,2.659,2.659,0,0,0-1.719.266l-.173.1-.1-.2c-.421-.862-.9-1.637-1.172-2.18-.289-.545-.414-.9-.368-.916a5.057,5.057,0,0,1,.565.8,25.068,25.068,0,0,1,1.324,2.166l-.269-.1a2.932,2.932,0,0,1,1.967-.338,4.066,4.066,0,0,1,1.973.907,6.473,6.473,0,0,1,1.172,1.3,4.648,4.648,0,0,1,.762,1.4" transform="translate(-264.07 -62.409)" fill="#6f4439"/>
              <path id="Trazado_797313" data-name="Trazado 797313" d="M348.315,204.563c-1.251-1.1-3.269,1.545-3.269,1.545-.392-.824-3-.731-3.407.449-.262-.607-.216-.976-.759-1.352a2.1,2.1,0,0,0-1.883-.3,1.506,1.506,0,0,0-.99,1.543,2.478,2.478,0,0,0-4.408,1.135,1.018,1.018,0,0,0-.031.345.417.417,0,0,0,.067.145c.135.207.3.387.427.606.047.082.089.166.13.252a4.63,4.63,0,0,1,.366,1.231,4.107,4.107,0,0,0,.082.6,2.237,2.237,0,0,0,.2.341,6.085,6.085,0,0,1,.443,2.476,4.8,4.8,0,0,0,.7,2.633,1.77,1.77,0,0,0,2.413.515,1.206,1.206,0,0,0,1.015,1.231,1.742,1.742,0,0,0,1.556-.639,3.236,3.236,0,0,0,.666-1.6,1.332,1.332,0,0,0,1.435,1.165,2.052,2.052,0,0,0,1.586-1.178,4.716,4.716,0,0,0,.4-2.009c.019-.689.318-2.671.438-3.349,0,0,1.132-.007,1.527,0l.3-.743c.449-1.179.8-1.932,1.132-3,.246-.8.382-1.582-.138-2.039" transform="translate(-187.899 -115.081)" fill="#ae7461"/>
              <path id="Trazado_797314" data-name="Trazado 797314" d="M325.7,211.086a1.977,1.977,0,0,0-1.514.657,4.008,4.008,0,0,0-.266,2.464c0,.022,1.961,0,1.961,0h.487c.385.225.379,1.04.562,1.446a1.515,1.515,0,0,0,1.978.645,2.033,2.033,0,0,0,1.063-1.913,3.14,3.14,0,0,0-.985-2.038,4.389,4.389,0,0,0-3.285-1.256" transform="translate(-182.428 -118.904)" fill="#ae7461"/>
              <path id="Trazado_797315" data-name="Trazado 797315" d="M343.547,208.7a26.07,26.07,0,0,1,.466,5.242,26.049,26.049,0,0,1-.069,5.263,26.062,26.062,0,0,1-.466-5.243,26.089,26.089,0,0,1,.069-5.263" transform="translate(-193.448 -117.565)" fill="#6f4439"/>
              <path id="Trazado_797316" data-name="Trazado 797316" d="M351.984,209.108a22.316,22.316,0,0,1,.028,9.5,38.8,38.8,0,0,1-.037-4.751,38.842,38.842,0,0,1,.009-4.75" transform="translate(-198.236 -117.793)" fill="#6f4439"/>
              <path id="Trazado_797317" data-name="Trazado 797317" d="M359.874,209.495a11.077,11.077,0,0,1,.286,3.936,15.511,15.511,0,0,1-.4,3.919,13.913,13.913,0,0,1-.133-3.935,21.771,21.771,0,0,1,.248-3.919" transform="translate(-202.56 -118.011)" fill="#6f4439"/>
              <path id="Trazado_797318" data-name="Trazado 797318" d="M330.751,211.584c-.01-.063.363-.181.928.019a2.959,2.959,0,0,1,1.593,1.558,5.946,5.946,0,0,1,.55,2.128c-.007.656-.461.886-.48.8-.046-.055.189-.3.1-.781a10.626,10.626,0,0,0-.654-1.917,3.213,3.213,0,0,0-1.269-1.448c-.434-.251-.77-.281-.77-.362" transform="translate(-186.315 -119.135)" fill="#6f4439"/>
              <path id="Trazado_797319" data-name="Trazado 797319" d="M372.487,11.007a3.48,3.48,0,0,0-3.971-2.989,4.452,4.452,0,0,0-5.89-1.8c-.953.529-1.673,1.4-2.6,1.969a31.364,31.364,0,0,1-2.884,1.236,3.176,3.176,0,0,0-1.967,2.275,2.757,2.757,0,0,0,1.869,2.656,8.062,8.062,0,0,0,3.448.31,1.208,1.208,0,0,0-.357,1.554,2.436,2.436,0,0,0,1.337,1.079,5.3,5.3,0,0,0,5.439-1l2.174-1.668a3.48,3.48,0,0,0,3.4-3.62" transform="translate(-200.065 -3.229)" fill="#263238"/>
              <path id="Trazado_797320" data-name="Trazado 797320" d="M379.853,29.254a1.151,1.151,0,0,1-1.534-.028,1.555,1.555,0,0,1-.369-1.565,2.437,2.437,0,0,1,1.039-1.294,5.863,5.863,0,0,1,1.555-.656,10.9,10.9,0,0,1,2.563-.486,2.086,2.086,0,0,1,.913.111.869.869,0,0,1,.556.685c.035.433-.344.776-.693,1.034a26.907,26.907,0,0,1-4.151,2.52" transform="translate(-212.864 -14.206)" fill="#ff725e"/>
              <path id="Trazado_797321" data-name="Trazado 797321" d="M344.5,27.482c-2.062-2.3-7.193-1.993-8.419-.5a3.913,3.913,0,0,0-5.134,1.667l-5.464,1.155a5.686,5.686,0,0,0-2.627,1.038,1.955,1.955,0,0,0-.478,2.545,2.966,2.966,0,0,0-1.283,4.735,2.067,2.067,0,0,0,.286,2.994,20.722,20.722,0,0,0-3.558,6.051,4.215,4.215,0,0,0-.293,2.873,1.682,1.682,0,0,0,2.347,1,2.421,2.421,0,0,0-.132,2.613c-.923.016-1.208,1.441-.579,2.117a3.368,3.368,0,0,0,2.582.738,4.449,4.449,0,0,1,2.678.476.841.841,0,0,1-.305.584,3.8,3.8,0,0,0-.883,5.165c.109.155.211.3.3.426a8.305,8.305,0,0,0,2.668,1.9c2.079,1.1,3.324.906,5.652,1.259-.646,1.5,3.114,4.853,7.468,1.613a83.513,83.513,0,0,0,23.794,3.395c1.277.013,2.812-.149,3.387-1.29a3.17,3.17,0,0,0,2.924-.935,9.356,9.356,0,0,0,1.731-2.686,5.561,5.561,0,0,0,4.038-4.983,6.874,6.874,0,0,0,2.628-4.87,4.034,4.034,0,0,0,2.352-5.429,24.331,24.331,0,0,0-2.6-7.551c1.466-.306,2.031-2.276,1.438-3.651a7.677,7.677,0,0,0-3.175-3.08c1.092.3,2.056-1.069,1.8-2.173a4.322,4.322,0,0,0-2.205-2.46,20.573,20.573,0,0,0-4.521-2.055c-.507-1.93-2.953-4.141-4.752-5.007-7.251-3.494-12.343-4.4-21.664,2.325" transform="translate(-178.781 -12.656)" fill="#263238"/>
              <path id="Trazado_797322" data-name="Trazado 797322" d="M366.55,50.355c-.1-1.529-.353-3.044,1.161-3.274l15.464-4.662c4.986-.757,8.6,5.261,9.14,10.274.6,5.57,1.124,12.394.651,16.592a12.765,12.765,0,0,1-8.389,10.707c0-.011.193,5.12.193,5.12-.643,3.939-1.638,8.37-3.237,9.947-5.471-1.021-14.425-13.05-14.425-13.05Z" transform="translate(-206.437 -23.859)" fill="#ae7461"/>
              <path id="Trazado_797323" data-name="Trazado 797323" d="M405.859,82.8a7.665,7.665,0,0,1,1.863-.424c.294-.044.571-.115.611-.319a1.506,1.506,0,0,0-.237-.866l-.975-2.209a38.667,38.667,0,0,1-2.228-5.794,38.778,38.778,0,0,1,2.689,5.6q.491,1.165.939,2.224a1.711,1.711,0,0,1,.206,1.152.742.742,0,0,1-.466.454,2,2,0,0,1-.5.093,7.528,7.528,0,0,1-1.9.089" transform="translate(-228.075 -41.229)" fill="#263238"/>
              <path id="Trazado_797324" data-name="Trazado 797324" d="M394.652,124.164a27.626,27.626,0,0,1-10.3-3.4s1.944,5.29,10.37,5.934Z" transform="translate(-216.511 -68.031)" fill="#6f4439"/>
              <path id="Trazado_797325" data-name="Trazado 797325" d="M389.03,64.7c-.1.32-1.261.223-2.61.448-1.354.2-2.43.645-2.623.371-.086-.131.091-.436.52-.76a4.6,4.6,0,0,1,3.987-.624c.507.179.769.414.727.566" transform="translate(-216.185 -36.009)" fill="#263238"/>
              <path id="Trazado_797326" data-name="Trazado 797326" d="M416.19,63.821c-.192.272-1,.035-1.959.066-.959,0-1.761.256-1.96-.01-.088-.13.028-.4.371-.663a2.839,2.839,0,0,1,3.158-.045c.351.255.474.52.39.652" transform="translate(-232.221 -35.326)" fill="#263238"/>
              <path id="Trazado_797327" data-name="Trazado 797327" d="M404.822,52.579a5.76,5.76,0,0,0-1.393-3.609,21.4,21.4,0,0,1-1.555-1.5c-.944-1.238-.811-2.959-1.213-4.464a6.333,6.333,0,0,0-3.924-4.257c-1.573-.561-3.355-.484-4.831-1.266-1.091-.578-1.922-1.582-3.045-2.094-2.187-1-4.724.125-6.789,1.357-.408,1.641.631,3.06,1.632,4.423a5.863,5.863,0,0,0,4.314,2.347c1.309.078,2.838-.219,3.759.715.969.982.595,2.714,1.391,3.84,1.139,1.61,3.727,1,5.43,1.99,1.314.768,1.868,2.341,2.531,3.711s1.808,2.8,3.329,2.728a17.147,17.147,0,0,0,.365-3.921" transform="translate(-215.174 -19.718)" fill="#263238"/>
              <path id="Trazado_797328" data-name="Trazado 797328" d="M370.875,45.822a29.71,29.71,0,0,0-11.225,2.033,5.412,5.412,0,0,0-2.766,1.91,5.308,5.308,0,0,0-.583,2.908c.039,3.14,1.306,6.983,2.505,9.885l3.923,2.345c3.019-.717,1.629-5.929,1.481-8.542a6.171,6.171,0,0,0,3.6-5.451,6.83,6.83,0,0,0,3.064-5.087" transform="translate(-200.707 -25.81)" fill="#263238"/>
              <path id="Trazado_797329" data-name="Trazado 797329" d="M364.12,84.725c-.12-1.8-2.325-2.142-3.868-1.216-.847.509-1.484,1.514-1.373,3.42.3,5.084,5.338,3.738,5.339,3.593,0-.091.043-3.694-.1-5.8" transform="translate(-202.153 -46.761)" fill="#ae7461"/>
              <path id="Trazado_797330" data-name="Trazado 797330" d="M364.231,90.886c-.023-.015-.085.067-.231.145a.891.891,0,0,1-.662.052,2.2,2.2,0,0,1-1.128-1.907,2.931,2.931,0,0,1,.174-1.283,1.025,1.025,0,0,1,.627-.718.451.451,0,0,1,.537.212c.076.138.05.241.078.249s.1-.092.051-.3a.567.567,0,0,0-.219-.307.668.668,0,0,0-.5-.1,1.245,1.245,0,0,0-.88.841,3.008,3.008,0,0,0-.225,1.435,2.3,2.3,0,0,0,1.419,2.121.949.949,0,0,0,.8-.182c.15-.135.171-.25.152-.258" transform="translate(-203.832 -48.962)" fill="#6f4439"/>
              <path id="Trazado_797331" data-name="Trazado 797331" d="M353.208,69.417a.29.29,0,0,1-.015.068.692.692,0,0,1-.068.193,1.177,1.177,0,0,1-.59.528,3.121,3.121,0,0,1-1.257.263,4.267,4.267,0,0,1-.816-.052,2.993,2.993,0,0,1-.89-.269l.061-.031a2.529,2.529,0,0,1-4.025,1.61l.086-.015a1.046,1.046,0,0,1-.666.445,1.452,1.452,0,0,1-.824-.068,1.331,1.331,0,0,1-.663-.538,1.773,1.773,0,0,1-.259-.837,2.6,2.6,0,0,1,.552-1.7,7.641,7.641,0,0,1,1.339-1.306l.009.117a1.791,1.791,0,0,1-.807-1.2,2.606,2.606,0,0,1,.144-1.5,4.027,4.027,0,0,1,.889-1.269,12.2,12.2,0,0,1,1.2-1.02l-.007.115a1.909,1.909,0,0,1-.5-1.475,2.756,2.756,0,0,1,.573-1.511,6.807,6.807,0,0,1,2.478-1.733l-.041.088a3.376,3.376,0,0,1,3.664-4.171l-.079.087a2.913,2.913,0,0,1,.686-2.475,2.873,2.873,0,0,1,2.147-1.057l-.064.064a2.855,2.855,0,0,1,1.152-2.218,2.8,2.8,0,0,1,2.125-.589l-.058.05a2.794,2.794,0,0,1,.412-1.3,3.582,3.582,0,0,1,.771-.934,2.915,2.915,0,0,1,1.738-.752l.191-.014c.062,0,.121.01.179.014a2.614,2.614,0,0,1,.322.037,3.523,3.523,0,0,1,.486.136l.284.121a.578.578,0,0,1,.094.045.653.653,0,0,1-.1-.033l-.287-.108a3.9,3.9,0,0,0-.484-.122,2.628,2.628,0,0,0-.317-.03c-.057,0-.116-.01-.176-.01l-.187.016a2.878,2.878,0,0,0-1.69.757,3.528,3.528,0,0,0-.745.919,2.718,2.718,0,0,0-.39,1.259v.059l-.057-.009a2.69,2.69,0,0,0-2.038.58,2.738,2.738,0,0,0-1.1,2.126v.064h-.064a2.742,2.742,0,0,0-2.043,1.018,2.775,2.775,0,0,0-.649,2.355l.022.1-.1-.012a3.229,3.229,0,0,0-3.5,3.991l.015.06-.055.028a6.68,6.68,0,0,0-2.424,1.69,2.6,2.6,0,0,0-.541,1.425,1.753,1.753,0,0,0,.458,1.358l.061.062-.069.053a5.976,5.976,0,0,0-2.046,2.224,2.461,2.461,0,0,0-.138,1.413,1.647,1.647,0,0,0,.737,1.11l.089.052-.08.066a7.524,7.524,0,0,0-1.318,1.277,2.463,2.463,0,0,0-.531,1.606,1.363,1.363,0,0,0,.834,1.264,1.118,1.118,0,0,0,1.344-.323l.035-.055.052.039a2.461,2.461,0,0,0,2.562.241,2.494,2.494,0,0,0,1.309-1.769l.009-.057.052.026a2.935,2.935,0,0,0,.863.269,4.23,4.23,0,0,0,.8.061,3.12,3.12,0,0,0,1.24-.239,1.172,1.172,0,0,0,.588-.5c.081-.157.094-.253.1-.25" transform="translate(-193.373 -25.355)" fill="#455a64"/>
              <path id="Trazado_797332" data-name="Trazado 797332" d="M321.053,60.414a1.7,1.7,0,0,1-.192-.307,2.61,2.61,0,0,1-.27-1.006,2.563,2.563,0,0,1,.416-1.6,2.7,2.7,0,0,1,1.842-1.173l-.043.061a3.485,3.485,0,0,1,.459-2.51,3.4,3.4,0,0,1,.995-1.058,8.041,8.041,0,0,1,1.39-.655,2.788,2.788,0,0,0,.666-.4,1.726,1.726,0,0,0,.464-.626c.226-.488.3-1.064.584-1.589a3.091,3.091,0,0,1,3.1-1.537l-.087.086a4.073,4.073,0,0,1,4.511-4.619l-.085.084a3.577,3.577,0,0,1,5.561-3.346l-.082.008a4.9,4.9,0,0,1,1.776-1.085,7.332,7.332,0,0,1,1.824-.42,8.527,8.527,0,0,1,3.015.2,6.072,6.072,0,0,1,1.791.743,3.483,3.483,0,0,1,.414.3c.09.072.134.112.134.112s-.19-.145-.568-.379a6.284,6.284,0,0,0-1.789-.7,8.571,8.571,0,0,0-2.986-.17,7.26,7.26,0,0,0-1.794.426,4.789,4.789,0,0,0-1.726,1.066l-.038.038-.045-.03a3.439,3.439,0,0,0-5.337,3.223l.01.095-.095-.011a3.925,3.925,0,0,0-4.342,4.446l.014.1-.1-.016a2.947,2.947,0,0,0-2.944,1.457c-.271.491-.346,1.063-.583,1.577a1.87,1.87,0,0,1-.5.673,2.908,2.908,0,0,1-.7.413,8.054,8.054,0,0,0-1.373.638,3.283,3.283,0,0,0-.964,1.015,3.384,3.384,0,0,0-.461,2.426l.011.053-.054.008a2.62,2.62,0,0,0-1.789,1.116,2.522,2.522,0,0,0-.427,1.548,2.682,2.682,0,0,0,.24,1c.1.214.173.315.166.319" transform="translate(-180.589 -21.788)" fill="#455a64"/>
              <path id="Trazado_797333" data-name="Trazado 797333" d="M408.333,62.142a.5.5,0,0,1-.02-.417.991.991,0,0,1,.3-.421,1.73,1.73,0,0,1,.628-.316,2.973,2.973,0,0,0,.794-.331,1.576,1.576,0,0,0,.572-.816,3.092,3.092,0,0,0,.128-1.164c-.018-.419-.084-.864-.084-1.339a13.675,13.675,0,0,1,.646-3.006,4.217,4.217,0,0,0,.069-1.672,2.037,2.037,0,0,0-.922-1.43,7.622,7.622,0,0,0-1.783-.6,3.058,3.058,0,0,1-.911-.424,2.046,2.046,0,0,1-.643-.8,9.839,9.839,0,0,1-.535-2,3.386,3.386,0,0,0-.352-.964,1.553,1.553,0,0,0-.75-.657,5.683,5.683,0,0,0-1.407-.192,2.2,2.2,0,0,1-.713-.179,1.405,1.405,0,0,1-.562-.474,4.948,4.948,0,0,1-.532-1.3,3.134,3.134,0,0,0-.638-1.147,3.064,3.064,0,0,0-2.215-1.059,3.148,3.148,0,0,0-2.158.782l-.068.061-.038-.083a4.842,4.842,0,0,0-3.02-2.607,4.467,4.467,0,0,0-1.7-.147,4.066,4.066,0,0,0-1.4.389,3.575,3.575,0,0,0-1.485,1.366,3.5,3.5,0,0,0-.252.478l-.06.125a.153.153,0,0,1-.024.041.177.177,0,0,1,.014-.045l.051-.13a3.047,3.047,0,0,1,.237-.491,3.555,3.555,0,0,1,1.485-1.414,4.143,4.143,0,0,1,1.421-.413,4.545,4.545,0,0,1,1.739.136,4.945,4.945,0,0,1,3.111,2.656l-.1-.022a3.281,3.281,0,0,1,2.251-.825,3.208,3.208,0,0,1,2.323,1.1,3.277,3.277,0,0,1,.669,1.2,4.888,4.888,0,0,0,.514,1.259,1.488,1.488,0,0,0,1.166.588,5.738,5.738,0,0,1,1.446.2,1.708,1.708,0,0,1,.827.723,3.514,3.514,0,0,1,.369,1.007,9.836,9.836,0,0,0,.522,1.971,1.9,1.9,0,0,0,.595.749,2.941,2.941,0,0,0,.866.4,7.657,7.657,0,0,1,1.814.624,1.957,1.957,0,0,1,.666.668,2.571,2.571,0,0,1,.315.859,4.337,4.337,0,0,1-.077,1.725,13.77,13.77,0,0,0-.662,2.978c0,.465.058.909.073,1.335a3.165,3.165,0,0,1-.144,1.2,1.652,1.652,0,0,1-.612.849,2.992,2.992,0,0,1-.818.328,1.7,1.7,0,0,0-.617.294.968.968,0,0,0-.3.4.618.618,0,0,0-.01.407" transform="translate(-219.24 -22.142)" fill="#455a64"/>
              <path id="Trazado_797334" data-name="Trazado 797334" d="M416.876,49.483a.541.541,0,0,1-.052-.095l-.14-.285-.524-1.1c-.23-.477-.488-1.074-.857-1.727a4.527,4.527,0,0,0-1.7-1.825c-.411-.223-.886-.37-1.364-.583a3.183,3.183,0,0,1-.695-.406,1.747,1.747,0,0,1-.519-.663c-.242-.528-.248-1.126-.441-1.672a1.434,1.434,0,0,0-.49-.695,2.726,2.726,0,0,0-.817-.378,5.215,5.215,0,0,1-.9-.345,1.636,1.636,0,0,1-.695-.719,7.431,7.431,0,0,1-.435-1.973,2.449,2.449,0,0,0-.338-.933,1.272,1.272,0,0,0-.807-.531c-.669-.139-1.387.094-2.132-.023a1.791,1.791,0,0,1-.978-.518,4.634,4.634,0,0,1-.634-.875,9.783,9.783,0,0,0-.558-.877,1.963,1.963,0,0,0-.748-.639,2.983,2.983,0,0,0-1.921.017,4.484,4.484,0,0,1-1.931.168,5.154,5.154,0,0,1-1.68-.765,8.737,8.737,0,0,0-1.5-.83,5.248,5.248,0,0,0-3.017-.1,5.624,5.624,0,0,0-2.235,1.152,6.273,6.273,0,0,0-1.233,1.46,7.1,7.1,0,0,0-.528,1.093l-.117.295a.567.567,0,0,1-.045.1.515.515,0,0,1,.03-.1l.1-.3a6.548,6.548,0,0,1,.505-1.113,6.232,6.232,0,0,1,1.229-1.5,5.685,5.685,0,0,1,2.263-1.192,5.343,5.343,0,0,1,3.09.082,8.773,8.773,0,0,1,1.523.835,5.06,5.06,0,0,0,1.636.741,4.361,4.361,0,0,0,1.87-.172,6.373,6.373,0,0,1,.99-.173,1.939,1.939,0,0,1,1.833.847,9.82,9.82,0,0,1,.569.89,4.464,4.464,0,0,0,.611.845,1.63,1.63,0,0,0,.895.475c.693.115,1.411-.12,2.138.025a1.423,1.423,0,0,1,.9.594,2.585,2.585,0,0,1,.361.992,7.4,7.4,0,0,0,.418,1.934,1.487,1.487,0,0,0,.633.659,5.156,5.156,0,0,0,.874.336,2.851,2.851,0,0,1,.856.4,1.572,1.572,0,0,1,.534.76c.2.577.2,1.169.43,1.665a2.083,2.083,0,0,0,1.146,1.014c.466.211.945.362,1.367.6a4.6,4.6,0,0,1,1.726,1.878c.365.663.614,1.263.836,1.744l.5,1.115.126.292a.545.545,0,0,1,.038.1" transform="translate(-217.914 -17.36)" fill="#455a64"/>
              <path id="Trazado_797335" data-name="Trazado 797335" d="M429.875,61.357a.4.4,0,0,1,.093-.016.573.573,0,0,1,.271.06,1.092,1.092,0,0,1,.506.9,2.687,2.687,0,0,1-.109.76,3.148,3.148,0,0,0-.131.881,1.962,1.962,0,0,0,.358.938c.2.307.449.607.652.973a1.459,1.459,0,0,1,.127,1.28c-.162.433-.476.8-.631,1.235a1.9,1.9,0,0,0,.139,1.4c.2.465.481.915.675,1.431a2.284,2.284,0,0,1,.164.826,2.078,2.078,0,0,1-.193.842,9.885,9.885,0,0,1-.967,1.45,2.34,2.34,0,0,0-.537,1.611,7.694,7.694,0,0,0,.615,1.715,2.653,2.653,0,0,1,.19.935,2.106,2.106,0,0,1-.238.914,7.781,7.781,0,0,1-1.1,1.439,4.118,4.118,0,0,0-.889,1.439,12.409,12.409,0,0,1-.527,1.583,1.853,1.853,0,0,1-.516.643,2.361,2.361,0,0,1-.719.347,6.237,6.237,0,0,0-.7.251,2.528,2.528,0,0,0-.588.4,5.187,5.187,0,0,0-.832,1.088c-.234.379-.451.751-.694,1.085a3.483,3.483,0,0,1-1.771,1.3,3.749,3.749,0,0,1-1.661.159,3.33,3.33,0,0,1-1.013-.3,2.562,2.562,0,0,1-.319-.183,3.858,3.858,0,0,0,1.34.42,3.729,3.729,0,0,0,1.626-.182,3.406,3.406,0,0,0,1.71-1.286c.236-.33.448-.7.68-1.083a5.241,5.241,0,0,1,.847-1.12,2.655,2.655,0,0,1,.618-.426,6.452,6.452,0,0,1,.719-.261,2.223,2.223,0,0,0,.677-.328,1.7,1.7,0,0,0,.474-.6,12.415,12.415,0,0,0,.514-1.566,4.275,4.275,0,0,1,.914-1.49,7.7,7.7,0,0,0,1.074-1.409,1.945,1.945,0,0,0,.221-.847,2.5,2.5,0,0,0-.18-.879,7.691,7.691,0,0,1-.623-1.752,1.94,1.94,0,0,1,.124-.922,3.739,3.739,0,0,1,.441-.792,9.93,9.93,0,0,0,.956-1.424,1.933,1.933,0,0,0,.182-.781,2.16,2.16,0,0,0-.152-.776c-.185-.5-.465-.949-.667-1.428a2.025,2.025,0,0,1-.135-1.495c.17-.471.487-.829.64-1.235a1.345,1.345,0,0,0-.112-1.186c-.192-.353-.44-.656-.638-.971a2.043,2.043,0,0,1-.362-.988,3.178,3.178,0,0,1,.146-.9,2.674,2.674,0,0,0,.12-.739,1.068,1.068,0,0,0-.461-.877.653.653,0,0,0-.349-.071" transform="translate(-236.326 -34.554)" fill="#455a64"/>
              <path id="Trazado_797336" data-name="Trazado 797336" d="M398.189,98.565a.691.691,0,0,1,.876-.377l3.186,1.169.355.13a7.79,7.79,0,0,1-.7,1.866,2,2,0,0,1-1.379.974,2.243,2.243,0,0,1-1.342-.335,2.617,2.617,0,0,1-1.41-1.607,3.831,3.831,0,0,1,.418-1.82" transform="translate(-224.057 -55.286)" fill="#6f4439"/>
              <path id="Trazado_797337" data-name="Trazado 797337" d="M356.459,98.446a2.652,2.652,0,0,0-.761.44,3.442,3.442,0,0,0-1.234,2.031,3.638,3.638,0,0,0,.041,1.668,4.091,4.091,0,0,0,.931,1.674,4.172,4.172,0,0,0,1.768,1.162,3.84,3.84,0,0,0,2.267.049,4.133,4.133,0,0,0,1.939-1.182,3.724,3.724,0,0,0,.924-1.9,3.95,3.95,0,0,0-1-3.345,3.81,3.81,0,0,0-2.161-1.008,2.143,2.143,0,0,0-.655.023.761.761,0,0,0-.217.069,2.8,2.8,0,0,1,.863-.017,3.681,3.681,0,0,1,.97.286,3.507,3.507,0,0,1,1.1.742,3.833,3.833,0,0,1,.923,3.219,3.561,3.561,0,0,1-.888,1.8,3.971,3.971,0,0,1-1.85,1.124,3.667,3.667,0,0,1-2.155-.042,4.025,4.025,0,0,1-1.7-1.1,3.963,3.963,0,0,1-.907-1.6,3.534,3.534,0,0,1-.061-1.6,3.443,3.443,0,0,1,1.147-2,7.806,7.806,0,0,1,.713-.5" transform="translate(-199.63 -55.215)" fill="#e0e0e0"/>
              <path id="Trazado_797338" data-name="Trazado 797338" d="M392.975,82.763a1.1,1.1,0,0,1-1.015,1.159,1.056,1.056,0,0,1-1.181-.945,1.105,1.105,0,0,1,1.014-1.16,1.057,1.057,0,0,1,1.182.946" transform="translate(-220.128 -46.085)" fill="#263238"/>
              <path id="Trazado_797339" data-name="Trazado 797339" d="M416.47,82.763a1.1,1.1,0,0,1-1.015,1.159,1.056,1.056,0,0,1-1.18-.945,1.1,1.1,0,0,1,1.014-1.159,1.057,1.057,0,0,1,1.182.946" transform="translate(-233.363 -46.085)" fill="#263238"/>
              <path id="Trazado_797340" data-name="Trazado 797340" d="M415.868,72.729c-.106.166-.949-.407-2.033-.286-1.084.1-1.8.838-1.936.7-.066-.062.027-.352.338-.682a2.461,2.461,0,0,1,3.169-.328c.369.261.517.525.463.6" transform="translate(-232.016 -40.388)" fill="#263238"/>
              <path id="Trazado_797341" data-name="Trazado 797341" d="M391.12,74.359c-.148.17-1.077-.552-2.38-.54-1.3-.008-2.251.717-2.395.547-.07-.076.077-.382.492-.71a3.159,3.159,0,0,1,1.914-.648,3.077,3.077,0,0,1,1.9.641c.4.327.545.632.472.709" transform="translate(-217.623 -41.127)" fill="#263238"/>
              <path id="Trazado_797342" data-name="Trazado 797342" d="M401.016,101.582c.01.01-.09.138-.349.259a1.978,1.978,0,0,1-1.183.1,3.126,3.126,0,0,1-1.557-.827,1.92,1.92,0,0,1-.532-.941,2.5,2.5,0,0,1,.033-1.148,4.81,4.81,0,0,1,.4-1.045.777.777,0,0,1,.462-.433.938.938,0,0,1,.575.094l1.581.638a7.189,7.189,0,0,1,1.426.671,7.181,7.181,0,0,1-1.512-.443l-1.607-.57c-.324-.135-.476-.117-.625.2a4.766,4.766,0,0,0-.367.971,1.813,1.813,0,0,0,.393,1.788,3.057,3.057,0,0,0,1.383.81,2.07,2.07,0,0,0,1.083.013c.251-.072.377-.159.4-.132" transform="translate(-223.828 -54.939)" fill="#263238"/>
              <path id="Trazado_797343" data-name="Trazado 797343" d="M413.16,19.165a6.367,6.367,0,0,0-1.389-.8,4.872,4.872,0,0,0-1.828-.324,4.5,4.5,0,0,0-2.328.671l-.111.069-.066-.115a4.2,4.2,0,0,0-2.547-1.871,4.263,4.263,0,0,0-3.577.566l-.134.1-.1-.132a6.858,6.858,0,0,0-4.348-2.635,6.545,6.545,0,0,0-3.96.6,6.831,6.831,0,0,0-2.755,2.444l-.044.07-.083,0a10.266,10.266,0,0,0-4.1,1.017,10.68,10.68,0,0,0-2.732,1.867,14.242,14.242,0,0,0-1.869,2.255c-.008,0,.02-.066.081-.183s.148-.291.285-.5a9.709,9.709,0,0,1,1.374-1.7,10.494,10.494,0,0,1,2.748-1.966,10.368,10.368,0,0,1,4.206-1.1l-.127.073a7.086,7.086,0,0,1,2.87-2.58,6.837,6.837,0,0,1,4.164-.636,7.146,7.146,0,0,1,4.558,2.78l-.23-.036a4.554,4.554,0,0,1,3.85-.588,4.435,4.435,0,0,1,2.688,2.035l-.177-.045a4.655,4.655,0,0,1,2.461-.657,4.851,4.851,0,0,1,1.883.4,4.329,4.329,0,0,1,1.037.633,1.626,1.626,0,0,1,.3.3" transform="translate(-214.728 -8.03)" fill="#263238"/>
              <path id="Trazado_797344" data-name="Trazado 797344" d="M367.794,9.362a2.994,2.994,0,0,1-1.27.305,4.582,4.582,0,0,1-3.344-1.2,4.227,4.227,0,0,1-1.241-2.2,4.723,4.723,0,0,1,.282-2.9,4.315,4.315,0,0,1,2.335-2.237,4.613,4.613,0,0,1,3.5-.029l-.2.048A3.276,3.276,0,0,1,369.771.063a3.416,3.416,0,0,1,1.853.158,3.056,3.056,0,0,1,1.409,1.142,3.388,3.388,0,0,1,.29,3.3l-.229-.207a2.788,2.788,0,0,1,2.619-.053,2.874,2.874,0,0,1,1.546,1.82,3.7,3.7,0,0,1-1.013,3.655A4.6,4.6,0,0,1,374,11.045a4.259,4.259,0,0,1-.669.089.76.76,0,0,1-.233-.008c0-.027.317-.033.878-.183a4.687,4.687,0,0,0,2.13-1.2A3.5,3.5,0,0,0,377,6.3a2.6,2.6,0,0,0-1.415-1.628,2.489,2.489,0,0,0-2.323.057l-.464.283.235-.49a3.07,3.07,0,0,0-.281-2.975A2.719,2.719,0,0,0,371.5.54,3.083,3.083,0,0,0,369.835.4a2.945,2.945,0,0,0-1.714.971l-.081.1-.117-.049a4.3,4.3,0,0,0-3.241.019A4.015,4.015,0,0,0,362.5,3.5a4.469,4.469,0,0,0-.294,2.719A4.018,4.018,0,0,0,363.338,8.3a4.54,4.54,0,0,0,3.181,1.239,6.711,6.711,0,0,0,1.274-.18" transform="translate(-203.822 -0.001)" fill="#263238"/>
              <path id="Trazado_797345" data-name="Trazado 797345" d="M319.545,37.336c-.009,0-.042-.062-.1-.192a3.789,3.789,0,0,1-.2-.593,5.447,5.447,0,0,1,1.722-5.411,5.659,5.659,0,0,1,4.289-1.305l-.169.091a6.738,6.738,0,0,1,3.421-3.23,6.512,6.512,0,0,1,3.568-.413,6.7,6.7,0,0,1,3.019,1.307l-.17-.014a7.4,7.4,0,0,1,3.618-.862,7.632,7.632,0,0,1,2.833.577,6.893,6.893,0,0,1,1.621.937,2.8,2.8,0,0,1,.487.454,9.934,9.934,0,0,0-2.176-1.217,7.7,7.7,0,0,0-2.766-.492,7.239,7.239,0,0,0-3.467.877l-.09.048-.081-.062a6.441,6.441,0,0,0-2.881-1.221,6.229,6.229,0,0,0-3.381.4,6.464,6.464,0,0,0-3.259,3.056l-.052.106-.117-.015a5.412,5.412,0,0,0-4.067,1.194,5.215,5.215,0,0,0-1.757,2.9,5.659,5.659,0,0,0-.038,2.271c.1.526.212.8.187.809" transform="translate(-179.749 -14.757)" fill="#263238"/>
            </g>
          </g>
          <g id="Grupo_1064402" data-name="Grupo 1064402">
            <g id="Grupo_1064401" data-name="Grupo 1064401" clip-path="url(#clip-path)">
              <path id="Trazado_797346" data-name="Trazado 797346" d="M199.923,85.848a4.579,4.579,0,0,0-2.022.485,11.462,11.462,0,0,1-4.556.94c-6.674,0-13.08-3.955-13.08-12.133,0-4.878,5-9.83,9.915-10.647,2.479-.411,6.114.8,8.062,1.746a5.653,5.653,0,0,0,2.464.578h1.2l.081-26.9a3.388,3.388,0,0,0-3.121-3.317h-79.76c-2.537,0-4.169,1.485-4.169,3.317V67.67l3.207-.172a6.293,6.293,0,0,0,2.175-.39c1.391-.512,2.839-1.4,4.432-1.4,6.838,0,11.606,3.863,11.331,10.141-.242,5.533-4.339,9.854-10.408,10.239a12.342,12.342,0,0,1-5.776-1.158,6.915,6.915,0,0,0-2.621-.588l-2.34.049v27.176a4.289,4.289,0,0,0,4.476,4.073h78.1a4.289,4.289,0,0,0,4.476-4.073V85.842Z" transform="translate(-64.748 -20.615)" fill="#e8e8e8"/>
              <path id="Trazado_797347" data-name="Trazado 797347" d="M190.122,77.723l-.4-32.637c-.363-8.116,4.057-15.092,12.179-15.23l.752.031a14.522,14.522,0,0,1,13.914,13.939c.276,7.036.49,14.813.289,18.574-.418,7.784-8.258,8.674-8.258,8.674-.017,0-.048,4.739-.044,7.026l-2.472,4.94-2.107-1.157Z" transform="translate(-106.862 -16.818)" fill="#ffc09d"/>
              <path id="Trazado_797348" data-name="Trazado 797348" d="M220.055,118.982a18.83,18.83,0,0,1-10.017-3.416s2.2,5.956,10,5.575Z" transform="translate(-118.317 -65.1)" fill="#ff9b6c"/>
              <path id="Trazado_797349" data-name="Trazado 797349" d="M240.6,75.025A1.113,1.113,0,0,1,239.48,76.1a1.065,1.065,0,0,1-1.1-1.05,1.113,1.113,0,0,1,1.117-1.079,1.066,1.066,0,0,1,1.106,1.051" transform="translate(-134.279 -41.67)" fill="#263238"/>
              <path id="Trazado_797350" data-name="Trazado 797350" d="M241.441,67.086c-.144.139-.961-.519-2.158-.566-1.195-.063-2.1.516-2.222.364-.061-.067.09-.324.484-.586a3.057,3.057,0,0,1,1.787-.471,2.935,2.935,0,0,1,1.71.631c.356.3.47.565.4.627" transform="translate(-133.532 -37.08)" fill="#263238"/>
              <path id="Trazado_797351" data-name="Trazado 797351" d="M216.359,74.533a1.113,1.113,0,0,1-1.119,1.078,1.064,1.064,0,0,1-1.105-1.05,1.114,1.114,0,0,1,1.118-1.078,1.065,1.065,0,0,1,1.106,1.051" transform="translate(-120.625 -41.393)" fill="#263238"/>
              <path id="Trazado_797352" data-name="Trazado 797352" d="M214.548,66.612c-.144.139-.962-.519-2.158-.565-1.195-.063-2.1.516-2.223.364-.061-.068.089-.324.484-.586a3.054,3.054,0,0,1,1.787-.471,2.937,2.937,0,0,1,1.71.631c.355.3.469.565.4.627" transform="translate(-118.382 -36.813)" fill="#263238"/>
              <path id="Trazado_797353" data-name="Trazado 797353" d="M228.984,76.812a7.923,7.923,0,0,1,1.959-.27c.307-.019.6-.068.659-.274a1.558,1.558,0,0,0-.166-.914l-.808-2.365a40,40,0,0,1-1.778-6.171,40.16,40.16,0,0,1,2.271,6.013c.268.83.525,1.621.769,2.377A1.773,1.773,0,0,1,232,76.414a.767.767,0,0,1-.521.426,2.077,2.077,0,0,1-.522.051,7.793,7.793,0,0,1-1.97-.079" transform="translate(-128.904 -37.639)" fill="#263238"/>
              <path id="Trazado_797354" data-name="Trazado 797354" d="M214.4,57.916c-.175.3-1.324-.07-2.736-.159-1.411-.117-2.6.082-2.731-.239-.056-.153.193-.418.7-.645a4.765,4.765,0,0,1,4.164.3c.47.3.679.6.6.74" transform="translate(-117.688 -31.845)" fill="#263238"/>
              <path id="Trazado_797355" data-name="Trazado 797355" d="M241.358,58.975c-.256.265-1.224-.043-2.4-.087-1.17-.079-2.17.126-2.391-.165-.1-.141.067-.409.507-.655a3.777,3.777,0,0,1,1.96-.394,3.713,3.713,0,0,1,1.9.6c.407.29.535.574.422.7" transform="translate(-133.248 -32.485)" fill="#263238"/>
              <path id="Trazado_797356" data-name="Trazado 797356" d="M183.778,76.732c-.13-.063-5.286-1.8-5.336,3.528s5.313,4.282,5.324,4.129.012-7.657.012-7.657" transform="translate(-100.518 -43.043)" fill="#ffc09d"/>
              <path id="Trazado_797357" data-name="Trazado 797357" d="M183.9,84.567c-.023-.017-.093.064-.251.134a.929.929,0,0,1-.694.008,2.3,2.3,0,0,1-1.044-2.072,3.064,3.064,0,0,1,.272-1.327,1.073,1.073,0,0,1,.705-.707.473.473,0,0,1,.546.26c.07.15.035.256.063.266s.115-.089.074-.309a.593.593,0,0,0-.207-.336.7.7,0,0,0-.512-.141,1.305,1.305,0,0,0-.978.817,3.157,3.157,0,0,0-.336,1.483,2.412,2.412,0,0,0,1.333,2.315.994.994,0,0,0,.851-.133c.166-.13.2-.249.177-.259" transform="translate(-102.263 -45.256)" fill="#ff9b6c"/>
              <path id="Trazado_797358" data-name="Trazado 797358" d="M220.336,91.4c.183-.011.191,1.213,1.243,2.077s2.354.724,2.365.895c.017.077-.29.239-.84.256a3.05,3.05,0,0,1-1.974-.677,2.656,2.656,0,0,1-.964-1.742c-.049-.511.086-.816.17-.809" transform="translate(-124.016 -51.488)" fill="#263238"/>
              <path id="Trazado_797359" data-name="Trazado 797359" d="M217.036,28.876a1.266,1.266,0,0,0-.585-.745,3.887,3.887,0,0,0-1.991-.346A11.228,11.228,0,0,1,209.6,26.5a5.562,5.562,0,0,0,1.446-.99,3.347,3.347,0,0,0,1-3.317.742.742,0,0,0-.413-.514c-.345-.11-.652.226-.9.493a2.881,2.881,0,0,1-2.725,1.117,4.726,4.726,0,0,1-2.02-.622c-.023-.024-.043-.051-.066-.075-.274-.29-.542-.566-.805-.833l0,0v0a17.647,17.647,0,0,0-5.46-4.145,18.121,18.121,0,0,0-9.662-.87,7.32,7.32,0,0,0-5.594,5.632,5.629,5.629,0,0,0-5.655-.595l-.046-.021c-2.073.712-3.27,2.88-3.9,4.979-.034.114-.065.231-.1.346a8.187,8.187,0,0,1-2.809,2.682c-.2.114-.431.253-.459.483s.163.418.348.553a4.118,4.118,0,0,0,1.663.714,9.26,9.26,0,0,1-.7,1.443c-.238.392-.52.862-.321,1.274a.871.871,0,0,0,.907.407,2.558,2.558,0,0,0,.966-.424l-.71,1.646a4.883,4.883,0,0,0,2.248-.124c.416,1.974.7,5.624,1.2,6.964a8.112,8.112,0,0,1,2.472.136c.92.317.549,1.947,1.755,1.5.614-.229,1.579-2.537,1.792-3.158a30.449,30.449,0,0,0,1.465-12.871,9.785,9.785,0,0,1,3.046-2.147l-.093.083c2.189-.732,4.663-1.449,6.72-.4,1.6.812,2.52,2.488,3.7,3.83a11.161,11.161,0,0,0,8.19,4.1c.279,2.357.326,6.208.416,8.4l1.925-4.375v.018c.155-.256.283-.514.407-.773l.042-.079v-.01a13.69,13.69,0,0,1,.632-1.242l.021.019a1.372,1.372,0,0,0,2.026-1.812,3.069,3.069,0,0,0-.656-.674,2.172,2.172,0,0,0,2.062.559,1.7,1.7,0,0,0,1.224-1.671,1.448,1.448,0,0,0-.85-1.172,4.889,4.889,0,0,0,2.79-.582c.553-.307,1.1-.817.919-1.51" transform="translate(-96.568 -9.255)" fill="#263238"/>
              <path id="Trazado_797360" data-name="Trazado 797360" d="M191.777,32.167a6.747,6.747,0,0,0-.791.707,5.6,5.6,0,0,0-1.227,2.577,9.867,9.867,0,0,0-.222,1.981c-.011.718.038,1.489.083,2.3a20.507,20.507,0,0,1,.029,2.56,8.955,8.955,0,0,1-.191,1.348,2.809,2.809,0,0,1-.566,1.3,1.177,1.177,0,0,1-1.105.358,1.751,1.751,0,0,1-.984-.571,4.039,4.039,0,0,1-.729-1.992l.163.021a6.545,6.545,0,0,1-.968,1.624,2.326,2.326,0,0,1-1.528.809,1.494,1.494,0,0,1-.8-.15,1.3,1.3,0,0,1-.54-.545,1.34,1.34,0,0,1-.158-.693.97.97,0,0,1,.258-.6l.082.075a5.025,5.025,0,0,1-1.691,1.238,4.489,4.489,0,0,1-.521.2.871.871,0,0,1-.187.044.932.932,0,0,1,.177-.073c.117-.046.29-.114.506-.221A5.193,5.193,0,0,0,182.5,43.2l.082.075a1,1,0,0,0-.065,1.159,1.169,1.169,0,0,0,.489.483,1.365,1.365,0,0,0,.727.127,2.181,2.181,0,0,0,1.418-.769,6.44,6.44,0,0,0,.932-1.59l.115-.248.049.27a3.907,3.907,0,0,0,.694,1.9,1.573,1.573,0,0,0,.881.51.993.993,0,0,0,.94-.3,2.658,2.658,0,0,0,.523-1.219,8.972,8.972,0,0,0,.19-1.32,20.835,20.835,0,0,0-.019-2.538c-.041-.811-.085-1.585-.067-2.313a9.8,9.8,0,0,1,.248-2.006,5.524,5.524,0,0,1,1.3-2.6,3.171,3.171,0,0,1,.843-.659" transform="translate(-101.498 -18.12)" fill="#455a64"/>
              <path id="Trazado_797361" data-name="Trazado 797361" d="M231.142,34.448a.312.312,0,0,1-.064.052l-.2.14a2.617,2.617,0,0,1-.333.208,4.108,4.108,0,0,1-.478.245,6.916,6.916,0,0,1-3.346.563,8.842,8.842,0,0,1-4.69-1.793,15.3,15.3,0,0,1-3.992-4.709c-.557-.952-1.009-1.925-1.508-2.825a10.358,10.358,0,0,0-1.717-2.4,5.325,5.325,0,0,0-2.233-1.39,3.814,3.814,0,0,0-1.184-.15,4.209,4.209,0,0,0-1.088.2,4.521,4.521,0,0,0-2.532,2.093,5.369,5.369,0,0,0-.416,1.165.257.257,0,0,1,.007-.082c.011-.065.024-.143.04-.238a3.909,3.909,0,0,1,.306-.878,4.431,4.431,0,0,1,.887-1.174,4.565,4.565,0,0,1,1.667-1.009,4.31,4.31,0,0,1,1.122-.214,3.942,3.942,0,0,1,1.233.145,5.456,5.456,0,0,1,2.309,1.416,10.393,10.393,0,0,1,1.754,2.428c.506.907.958,1.878,1.51,2.821a15.318,15.318,0,0,0,3.936,4.666,8.789,8.789,0,0,0,4.6,1.8,7.026,7.026,0,0,0,3.308-.5,11.154,11.154,0,0,0,1.1-.58" transform="translate(-116.811 -12.535)" fill="#455a64"/>
              <path id="Trazado_797362" data-name="Trazado 797362" d="M252.857,42.345a1.216,1.216,0,0,1-.282.192,6.042,6.042,0,0,1-.833.411,8.09,8.09,0,0,1-1.317.416,8.486,8.486,0,0,1-3.368.069,8.084,8.084,0,0,1-1.333-.361,6.072,6.072,0,0,1-.849-.377,1.243,1.243,0,0,1-.29-.179c.016-.031.444.2,1.181.434a9.134,9.134,0,0,0,1.32.317,9.085,9.085,0,0,0,3.3-.068,9.214,9.214,0,0,0,1.305-.372c.727-.269,1.145-.513,1.162-.483" transform="translate(-137.777 -23.852)" fill="#455a64"/>
              <path id="Trazado_797363" data-name="Trazado 797363" d="M217.432,158.816S203.99,138.4,200.021,137.508l-3.541-1.01-10.716-2.907s.079,4.13-5.892,4.261c-6.877.151-12.649-5.9-12.649-5.9s-14.3,4.455-17.3,6.877,1.94,30.441,1.94,30.441h52.32l-.038-.308Z" transform="translate(-83.909 -74.332)" fill="#59bee2"/>
              <path id="Trazado_797364" data-name="Trazado 797364" d="M138.391,147.651a15.634,15.634,0,0,0-5.778,9.367c-1.258,6.291-3.876,21.084-3.876,21.084l21.869.012s-1-9.139-1-9.825-3.787-15.668-4.016-16.011-7.2-4.628-7.2-4.628" transform="translate(-72.518 -83.173)" fill="#59bee2"/>
              <path id="Trazado_797365" data-name="Trazado 797365" d="M158.484,148.452a33.193,33.193,0,0,1,3.132,2.461,33.077,33.077,0,0,1,2.542,3.067,10.4,10.4,0,0,0-5.674-5.528" transform="translate(-89.275 -83.621)" fill="#263238"/>
              <path id="Trazado_797366" data-name="Trazado 797366" d="M172.25,192.567a4.816,4.816,0,0,1-.023-.759c0-.526.007-1.223.011-2.067.012-1.745.019-4.155-.016-6.816s-.106-5.072-.164-6.816c-.027-.844-.049-1.54-.066-2.066a4.853,4.853,0,0,1,0-.759,4.82,4.82,0,0,1,.086.754c.041.487.089,1.192.138,2.063.1,1.743.2,4.155.231,6.82s0,5.077-.051,6.822c-.027.873-.055,1.579-.083,2.066a4.832,4.832,0,0,1-.066.756" transform="translate(-96.881 -97.613)" fill="#263238"/>
              <path id="Trazado_797367" data-name="Trazado 797367" d="M285.239,199.388l2.631,7.953-12.492-.083-.038-.308Z" transform="translate(-155.102 -112.318)" fill="#ffc09d"/>
              <path id="Trazado_797368" data-name="Trazado 797368" d="M268.534,168.931c.062-.008.742,4.683,1.519,10.476s1.355,10.5,1.293,10.507-.742-4.681-1.519-10.477-1.355-10.5-1.293-10.506" transform="translate(-151.266 -95.161)" fill="#263238"/>
              <path id="Trazado_797369" data-name="Trazado 797369" d="M179.336,36.522s.3-.007.9-.011l2.632-.011,10.148-.021,3.5,0c.614,0,1.239-.01,1.887.006a3.928,3.928,0,0,1,1.893.575,3.474,3.474,0,0,1,1.359,1.552,2.987,2.987,0,0,1,.25,1.048c.021.365,0,.722.008,1.089q0,2.192-.009,4.555c-.014,6.3-.03,13.481-.048,21.444v.079h-.079c-.5,0-.989.009-1.5-.007a5.66,5.66,0,0,1-1.5-.29c-.495-.16-.942-.418-1.414-.609s-.954-.386-1.445-.555a18.734,18.734,0,0,0-3.049-.784,10.452,10.452,0,0,0-1.59-.15,5.93,5.93,0,0,0-1.6.161,12.456,12.456,0,0,0-5.782,3.124,12.59,12.59,0,0,0-2.184,2.634,9.887,9.887,0,0,0-1.319,3.21,10.337,10.337,0,0,0-.008,3.538c.049.3.085.595.145.889l.236.873a5.573,5.573,0,0,0,.3.857,7.563,7.563,0,0,0,.356.838,11.056,11.056,0,0,0,5.215,5.093,15.131,15.131,0,0,0,1.755.717,16.821,16.821,0,0,0,1.857.457,15.651,15.651,0,0,0,3.85.246,11.462,11.462,0,0,0,3.779-.962,4.56,4.56,0,0,1,1.973-.431l2.009-.006h.1v.1q0,8.488,0,17.455,0,2.24,0,4.506,0,1.133,0,2.273v1.142a5.354,5.354,0,0,1-.088,1.162,4.077,4.077,0,0,1-1.14,2.03A4.672,4.672,0,0,1,198.7,115.5a5.026,5.026,0,0,1-1.171.172c-.393.014-.776,0-1.166.007h-2.335l-38.788,0-36.179-.012a4.649,4.649,0,0,1-3.756-2.087,3.947,3.947,0,0,1-.615-2.11q0-1.08,0-2.156,0-4.3,0-8.516,0-8.428,0-16.482v-.1l.1,0,1.9-.039a6.226,6.226,0,0,1,1.9.183,12.025,12.025,0,0,1,1.777.64,15.207,15.207,0,0,0,1.76.578,10.472,10.472,0,0,0,3.63.313,11.734,11.734,0,0,0,3.511-.807,10.288,10.288,0,0,0,5.243-4.539,10.984,10.984,0,0,0,1.242-6.642,9.126,9.126,0,0,0-1.008-3.173,8.84,8.84,0,0,0-2.114-2.5,9.771,9.771,0,0,0-2.806-1.6,12.936,12.936,0,0,0-1.528-.483c-.257-.068-.521-.1-.781-.159a6.81,6.81,0,0,0-.783-.124l-.785-.087c-.262-.023-.525-.023-.786-.035a5.342,5.342,0,0,0-1.542.089,16.346,16.346,0,0,0-2.88,1.073,7.6,7.6,0,0,1-1.464.476,8.2,8.2,0,0,1-1.515.143l-2.966.157-.087,0v-.087c.006-8.981.012-17.107.017-24.245q0-1.338,0-2.63c.007-.431-.018-.854.031-1.286a3.142,3.142,0,0,1,.418-1.2,3.659,3.659,0,0,1,1.893-1.528,6.389,6.389,0,0,1,2.335-.238l8.365.01,11.578.022,3.012.012c.679,0,1.026.012,1.026.012s-.348.008-1.026.012l-3.012.012-11.578.022-8.365.01a6.283,6.283,0,0,0-2.295.235,3.539,3.539,0,0,0-1.828,1.479,3.019,3.019,0,0,0-.4,1.155c-.046.408-.021.841-.027,1.27q0,1.292,0,2.63c.005,7.138.011,15.264.017,24.245l-.087-.083,2.97-.161a8.006,8.006,0,0,0,1.486-.141,7.423,7.423,0,0,0,1.431-.468,16.466,16.466,0,0,1,2.911-1.086,5.523,5.523,0,0,1,1.583-.094c.264.013.53.012.794.035l.794.088a6.809,6.809,0,0,1,.793.125c.263.054.53.092.791.16a13.03,13.03,0,0,1,1.55.488,9.946,9.946,0,0,1,2.858,1.623,9.022,9.022,0,0,1,2.162,2.552,9.3,9.3,0,0,1,1.033,3.239,11.175,11.175,0,0,1-1.26,6.763,10.488,10.488,0,0,1-5.34,4.63,11.931,11.931,0,0,1-3.569.822,10.684,10.684,0,0,1-3.7-.317,15.4,15.4,0,0,1-1.784-.585,11.921,11.921,0,0,0-1.752-.631,6,6,0,0,0-1.847-.176l-1.9.041.1-.105q0,8.046,0,16.482,0,4.215,0,8.516c.059,1.417-.248,2.946.582,4.147a4.429,4.429,0,0,0,3.578,1.983l36.169.007,38.788,0h2.335a8.364,8.364,0,0,0,2.278-.171,4.167,4.167,0,0,0,3.016-3.025,5.182,5.182,0,0,0,.083-1.115V110q0-1.139,0-2.273,0-2.266,0-4.506,0-8.957,0-17.455l.1.1-2.009,0a4.342,4.342,0,0,0-1.894.414,11.66,11.66,0,0,1-3.843.975,15.8,15.8,0,0,1-3.9-.252,16.969,16.969,0,0,1-1.881-.464,15.267,15.267,0,0,1-1.78-.729,11.248,11.248,0,0,1-5.3-5.186,7.867,7.867,0,0,1-.362-.853,5.726,5.726,0,0,1-.3-.872l-.238-.888c-.062-.3-.1-.6-.147-.9a10.515,10.515,0,0,1,.013-3.6,10.08,10.08,0,0,1,1.346-3.269,12.782,12.782,0,0,1,2.217-2.669,12.632,12.632,0,0,1,5.869-3.161,6.1,6.1,0,0,1,1.636-.162,10.551,10.551,0,0,1,1.614.154,18.872,18.872,0,0,1,3.075.794c.495.17.98.359,1.455.561s.927.453,1.4.606a5.5,5.5,0,0,0,1.461.284c.493.017,1,0,1.49.009l-.079.079c.03-7.963.057-15.147.081-21.444q.009-2.361.018-4.554c0-.364.014-.731-.006-1.082a2.859,2.859,0,0,0-.238-1.011,3.369,3.369,0,0,0-1.314-1.506,3.831,3.831,0,0,0-1.842-.564c-.638-.018-1.27-.006-1.882-.011l-3.5,0-10.148-.021-2.632-.011c-.592,0-.9-.011-.9-.011" transform="translate(-64.606 -20.54)" fill="#263238"/>
            </g>
          </g>
          <g id="Grupo_1064410" data-name="Grupo 1064410">
            <g id="Grupo_1064409" data-name="Grupo 1064409" clip-path="url(#clip-path)">
              <path id="Trazado_797370" data-name="Trazado 797370" d="M190.805,247.377a12.042,12.042,0,0,1,5.7,1.158,6.749,6.749,0,0,0,2.586.588l2.309-.049V221.9a4.255,4.255,0,0,0-4.417-4.073H119.915A4.255,4.255,0,0,0,115.5,221.9V293.55a3.466,3.466,0,0,0,3.6,3.317H197.8a3.465,3.465,0,0,0,3.6-3.317V267.656h-3.186a6.147,6.147,0,0,0-2.146.39,12.688,12.688,0,0,1-4.441.8c-6.748,0-12.186-5.169-11.915-11.448.239-5.533,5.1-9.633,11.093-10.019" transform="translate(-65.061 -122.703)" fill="#e0e0e0"/>
              <path id="Trazado_797371" data-name="Trazado 797371" d="M190.659,247.237s-.259.034-.766.09a8.446,8.446,0,0,0-.938.151,11.555,11.555,0,0,0-1.28.309,12.848,12.848,0,0,0-3.351,1.54,8.906,8.906,0,0,0-.922.672c-.152.126-.313.247-.465.383l-.447.435-.228.224-.211.247-.431.507a10.957,10.957,0,0,0-.762,1.164,10.35,10.35,0,0,0-.637,1.327,10.029,10.029,0,0,0-.418,1.495,9.565,9.565,0,0,0-.086,3.328,10.186,10.186,0,0,0,1.131,3.458,11.3,11.3,0,0,0,2.475,3.066,12.364,12.364,0,0,0,8.084,3,12.785,12.785,0,0,0,4.725-.877,6.315,6.315,0,0,1,1.24-.273,10.915,10.915,0,0,1,1.281-.04l2.6,0h.075v.075q0,6.085.008,12.909,0,3.407,0,6.986,0,1.789,0,3.619,0,.915,0,1.84a8.611,8.611,0,0,1-.027.938,3.391,3.391,0,0,1-.259.921A3.7,3.7,0,0,1,198,296.8c-1.288.032-2.563.01-3.865.017l-7.939,0-16.724.006-36.391.008h-9.621c-1.623-.008-3.235.018-4.888-.017a3.882,3.882,0,0,1-2.269-1.012,3.289,3.289,0,0,1-1.054-2.254q0-9.885-.008-20.074c0-9.818,0-19.454,0-28.844q0-7.043,0-13.9,0-3.425,0-6.8,0-.843,0-1.683a4.982,4.982,0,0,1,.187-1.69,4.272,4.272,0,0,1,2.194-2.5,4.71,4.71,0,0,1,1.617-.468c.566-.05,1.108-.023,1.657-.03h3.272l6.453,0,12.522,0,23.353.009,20.795.011,9.324.006a4.667,4.667,0,0,1,3.892,1.767,4.007,4.007,0,0,1,.793,1.97c.044.709.011,1.386.021,2.069-.013,10.857-.023,19.524-.031,25.518v.037h-.037c-.91.013-1.759.047-2.557.038a6.839,6.839,0,0,1-2.152-.505,15.516,15.516,0,0,0-3.206-1.067,10.57,10.57,0,0,0-2.009-.21c-.224,0-.393,0-.5.007s-.168,0-.168,0a6.419,6.419,0,0,1,.673-.03,10.2,10.2,0,0,1,2.017.191,15.366,15.366,0,0,1,3.22,1.052,6.792,6.792,0,0,0,2.134.492c.79.006,1.644-.031,2.552-.047l-.037.038c-.007-5.994-.018-14.661-.031-25.518-.01-.676.021-1.374-.024-2.054a3.856,3.856,0,0,0-.769-1.9,4.519,4.519,0,0,0-3.777-1.7l-9.324.007-20.795.011-23.353.009-12.522,0-6.453,0H120.9c-.545.007-1.1-.018-1.635.03a4.484,4.484,0,0,0-1.544.447,4.058,4.058,0,0,0-2.084,2.372,4.772,4.772,0,0,0-.176,1.624q0,.84,0,1.683,0,3.371,0,6.8,0,6.848,0,13.9c0,9.391,0,19.026,0,28.844q0,10.173.007,20.063a3.06,3.06,0,0,0,.983,2.1,3.657,3.657,0,0,0,2.135.952c1.612.034,3.253.01,4.867.017h9.621l36.391.008,16.724.006,7.939,0c1.295-.006,2.593.016,3.849-.013a3.518,3.518,0,0,0,2.912-1.967,3.246,3.246,0,0,0,.245-.868,8.563,8.563,0,0,0,.026-.915q0-.926,0-1.84,0-1.83,0-3.619,0-3.578,0-6.986,0-6.814.008-12.909l.075.075-2.6,0a10.828,10.828,0,0,0-1.265.038,6.129,6.129,0,0,0-1.212.265,12.907,12.907,0,0,1-4.77.876,12.481,12.481,0,0,1-8.16-3.046,11.381,11.381,0,0,1-2.493-3.1,10.264,10.264,0,0,1-1.134-3.495,9.656,9.656,0,0,1,.1-3.359,10.125,10.125,0,0,1,.427-1.507,10.374,10.374,0,0,1,.646-1.337,11.021,11.021,0,0,1,.772-1.17l.435-.51.214-.248.231-.224.452-.436c.153-.137.316-.258.469-.384a8.974,8.974,0,0,1,.931-.672,12.784,12.784,0,0,1,3.373-1.529,11.362,11.362,0,0,1,1.286-.3,8.174,8.174,0,0,1,.941-.141c.508-.049.768-.069.768-.069" transform="translate(-64.915 -122.563)" fill="#263238"/>
              <path id="Trazado_797372" data-name="Trazado 797372" d="M181.493,244.622a58.227,58.227,0,0,1-2.652-9.691,20.339,20.339,0,0,1,.675-9.933c.171-.479,1.642-3.694,2.148-3.65.362.031-.532,3.024-.345,3.336a17.25,17.25,0,0,1,2.064,10.032,45.419,45.419,0,0,1-1.89,9.905" transform="translate(-100.569 -124.688)" fill="#263238"/>
              <path id="Trazado_797373" data-name="Trazado 797373" d="M185.006,255.158l-.836-30.139c-.376-8.4,4.2-15.624,12.609-15.767l.778.032a15.035,15.035,0,0,1,14.405,14.431c.286,7.284.508,15.336.3,19.229-.433,8.059-8.549,8.98-8.549,8.98-.018,0-.072,8.373-.068,10.741l-5.729,6.084.33-1.842Z" transform="translate(-103.733 -117.874)" fill="#ffc09d"/>
              <path id="Trazado_797374" data-name="Trazado 797374" d="M215.571,302.4a19.492,19.492,0,0,1-10.37-3.537s2.276,6.167,10.351,5.773Z" transform="translate(-115.592 -168.355)" fill="#ff9b6c"/>
              <path id="Trazado_797375" data-name="Trazado 797375" d="M238.752,256.385a1.153,1.153,0,0,1-1.158,1.116,1.1,1.1,0,0,1-1.144-1.087,1.153,1.153,0,0,1,1.157-1.117,1.1,1.1,0,0,1,1.145,1.088" transform="translate(-133.195 -143.811)" fill="#263238"/>
              <path id="Trazado_797376" data-name="Trazado 797376" d="M237.712,248.677c-.149.144-.994-.538-2.234-.585-1.237-.066-2.173.534-2.3.377-.063-.07.093-.335.5-.607a3.163,3.163,0,0,1,1.85-.487,3.036,3.036,0,0,1,1.77.653c.369.308.487.585.414.649" transform="translate(-131.344 -139.347)" fill="#263238"/>
              <path id="Trazado_797377" data-name="Trazado 797377" d="M213.522,256.386a1.152,1.152,0,0,1-1.158,1.116,1.1,1.1,0,0,1-1.144-1.087,1.153,1.153,0,0,1,1.157-1.116,1.1,1.1,0,0,1,1.145,1.088" transform="translate(-118.983 -143.812)" fill="#263238"/>
              <path id="Trazado_797378" data-name="Trazado 797378" d="M209.87,248.186c-.149.144-1-.537-2.235-.585-1.237-.066-2.173.535-2.3.377-.063-.07.092-.335.5-.607a3.161,3.161,0,0,1,1.849-.488,3.039,3.039,0,0,1,1.77.653c.368.308.486.585.414.649" transform="translate(-115.66 -139.071)" fill="#263238"/>
              <path id="Trazado_797379" data-name="Trazado 797379" d="M224.815,258.747a8.2,8.2,0,0,1,2.028-.28c.318-.02.62-.07.682-.284a1.615,1.615,0,0,0-.173-.947l-.836-2.448a41.445,41.445,0,0,1-1.841-6.389,41.485,41.485,0,0,1,2.351,6.226c.278.859.543,1.677.8,2.461a1.833,1.833,0,0,1,.113,1.249.792.792,0,0,1-.539.441,2.149,2.149,0,0,1-.541.053,8.054,8.054,0,0,1-2.04-.082" transform="translate(-126.553 -139.926)" fill="#263238"/>
              <path id="Trazado_797380" data-name="Trazado 797380" d="M209.712,239.184c-.181.309-1.37-.073-2.832-.165-1.461-.122-2.692.084-2.827-.248-.058-.158.2-.433.727-.668a4.933,4.933,0,0,1,4.311.314c.486.309.7.618.621.766" transform="translate(-114.941 -133.927)" fill="#263238"/>
              <path id="Trazado_797381" data-name="Trazado 797381" d="M237.626,240.279c-.265.275-1.267-.044-2.48-.09-1.211-.082-2.246.13-2.475-.171-.1-.145.069-.424.525-.678a3.907,3.907,0,0,1,2.029-.408,3.849,3.849,0,0,1,1.964.618c.421.3.554.594.437.729" transform="translate(-131.05 -134.59)" fill="#263238"/>
              <path id="Trazado_797382" data-name="Trazado 797382" d="M178.015,258.664c-.135-.065-5.473-1.867-5.524,3.652s5.5,4.433,5.511,4.275.013-7.927.013-7.927" transform="translate(-97.166 -145.521)" fill="#ffc09d"/>
              <path id="Trazado_797383" data-name="Trazado 797383" d="M178.142,266.774c-.024-.018-.1.066-.26.139a.961.961,0,0,1-.719.008,2.379,2.379,0,0,1-1.081-2.145,3.178,3.178,0,0,1,.282-1.374,1.112,1.112,0,0,1,.73-.731.489.489,0,0,1,.565.269c.072.155.036.265.066.275s.119-.092.077-.32a.614.614,0,0,0-.214-.348.724.724,0,0,0-.531-.145,1.351,1.351,0,0,0-1.013.846,3.265,3.265,0,0,0-.348,1.535,2.5,2.5,0,0,0,1.38,2.4,1.03,1.03,0,0,0,.881-.138c.172-.135.2-.258.183-.268" transform="translate(-98.972 -147.811)" fill="#ff9b6c"/>
              <path id="Trazado_797384" data-name="Trazado 797384" d="M205.527,213.315c.893-.493-1.786-3.387-3.981-4.384-3.317-1.507-8.383-2.437-11.443-1.571-3.684,1.043-6.745,2.873-8.6,6.225a21.712,21.712,0,0,0-2.443,11.085,6.594,6.594,0,0,0,.776,3.373c.77,1.221,2.249,1.99,2.183,3.674a2.311,2.311,0,0,0,.573,1.685c1.009,1.075,2.245.066,2.814-.945,1.214-2.162,1.351-4.742,1.459-7.219a16.132,16.132,0,0,0-.346-5.25c-.269-.92-.7-1.79-.921-2.724a3.314,3.314,0,0,1,.393-2.755,3.466,3.466,0,0,1,.448-.454,5.757,5.757,0,0,1,5.712-1.084c3.108,1.1,8.415,2.747,9.8,1.693a8.508,8.508,0,0,0,2.473-2.506Z" transform="translate(-100.863 -116.62)" fill="#263238"/>
              <path id="Trazado_797385" data-name="Trazado 797385" d="M215.863,273.852c.19-.012.2,1.255,1.286,2.15s2.438.749,2.449.927c.018.079-.3.248-.87.265a3.156,3.156,0,0,1-2.043-.7,2.75,2.75,0,0,1-1-1.8c-.051-.53.089-.845.176-.838" transform="translate(-121.492 -154.264)" fill="#263238"/>
              <g id="Grupo_1064405" data-name="Grupo 1064405" transform="translate(78.983 135.522)" opacity="0.3">
                <g id="Grupo_1064404" data-name="Grupo 1064404">
                  <g id="Grupo_1064403" data-name="Grupo 1064403" clip-path="url(#clip-path-9)">
                    <path id="Trazado_797386" data-name="Trazado 797386" d="M195.612,318.868c-.681-1.14-1.457-1.975-2.138-3.114-.054-.09-.386-.443-.345-.54a3.422,3.422,0,0,0-.461.558c-.7,1.068-1.791,2.05-2.526,2.993l-9.272-8.425a62.216,62.216,0,0,0,8.572,9.932,1.158,1.158,0,0,0,.872.345,1.369,1.369,0,0,0,.826-.593l1.412-1.708a.6.6,0,0,1,1.03-.069l1.427,1.1c.2.155.508.3.676.113.141-.159.036-.407-.073-.59" transform="translate(-180.87 -310.339)"/>
                  </g>
                </g>
              </g>
              <path id="Trazado_797387" data-name="Trazado 797387" d="M151.144,310.086s-12.963-3.337-20.391,5.066a15.721,15.721,0,0,0-3.78,11.507c.2,2.865.479,7,.731,10.81.445,6.711,1.915,23.289,5.463,27.242s13.093,2.031,16.442.715,8.545-.943,11.114-3.374,6.417-3.929,10.443-5.536,2.416-3.742,2.416-3.742l-6.02-12.737-21.819,4.358s-.9-8.4.034-10.929,2.507-5.823,3.015-9.688,2.35-13.691,2.35-13.691" transform="translate(-71.503 -174.307)" fill="#74c67b"/>
              <path id="Trazado_797388" data-name="Trazado 797388" d="M161.088,389.233c.015.041-.593.252-1.493.752a12.362,12.362,0,0,0-1.506.992,12.236,12.236,0,0,0-2.942,3.262,12.393,12.393,0,0,0-.832,1.6c-.4.947-.552,1.573-.594,1.563a1.723,1.723,0,0,1,.077-.446,4.438,4.438,0,0,1,.139-.512c.064-.2.127-.425.23-.665a10.907,10.907,0,0,1,.8-1.648,11.451,11.451,0,0,1,2.994-3.32,10.87,10.87,0,0,1,1.557-.967c.228-.127.449-.213.638-.3a4.427,4.427,0,0,1,.5-.19,1.728,1.728,0,0,1,.436-.122" transform="translate(-86.59 -219.258)" fill="#263238"/>
              <g id="Grupo_1064408" data-name="Grupo 1064408" transform="translate(64.578 169.868)" opacity="0.3">
                <g id="Grupo_1064407" data-name="Grupo 1064407">
                  <g id="Grupo_1064406" data-name="Grupo 1064406" clip-path="url(#clip-path-10)">
                    <path id="Trazado_797389" data-name="Trazado 797389" d="M157.054,389.074a11.658,11.658,0,0,0-9.088,8.572c-.144.6-.16,1.39.389,1.68a1.054,1.054,0,0,0,1.229-.345,3.563,3.563,0,0,0,.571-1.246,15.005,15.005,0,0,1,7.647-8.743Z" transform="translate(-147.881 -388.992)"/>
                  </g>
                </g>
              </g>
              <path id="Trazado_797390" data-name="Trazado 797390" d="M173.2,303.18h2.387l2.728-3.989,10.458,8.564,3.45,5.132,1.68-5.056,3.643-1.81.939,2.766,3.044,1.4-3.814,9.543-3.066,3.714s-4.74,3.5-11.029-2.266l-6.291-5.767Z" transform="translate(-97.563 -168.538)" fill="#fff"/>
              <path id="Trazado_797391" data-name="Trazado 797391" d="M161.282,308.326s12.513,18.92,17.577,17.133,10.093-10.636,10.093-10.636,11.011,3.487,14.437,7.211,9.16,25.573,9.16,25.573l-52.659-3.835s-7.844-11.758-7.844-12.652,2.313-21.833,2.313-21.833Z" transform="translate(-85.649 -173.683)" fill="#74c67b"/>
              <path id="Trazado_797392" data-name="Trazado 797392" d="M220.689,377.6s7.092-2.641,10.238-2.318,15.428,10.025,15.428,10.025l-15.984-.093-1.388-1.268-3.561,3.842Z" transform="translate(-124.317 -211.386)" fill="#ffc09d"/>
              <path id="Trazado_797393" data-name="Trazado 797393" d="M219.148,399.917a5.071,5.071,0,0,1-.718.432l-.048.027-.022-.054c-.477-1.168-1.443-3.678-2.532-6.589-.764-2.043-1.444-3.9-1.925-5.242l-.559-1.6a3.242,3.242,0,0,1-.176-.6,3.267,3.267,0,0,1,.259.565l.627,1.572c.52,1.331,1.223,3.176,1.987,5.218,1.089,2.911,2.007,5.439,2.414,6.633l-.07-.027a5.016,5.016,0,0,1,.765-.343" transform="translate(-120.079 -217.606)" fill="#263238"/>
              <path id="Trazado_797394" data-name="Trazado 797394" d="M140.972,337.526a2.519,2.519,0,0,1,.5.234c.31.168.753.421,1.283.764a30.46,30.46,0,0,1,3.89,3.016c.714.645,1.369,1.286,1.949,1.884a13.181,13.181,0,0,1,1.462,1.672,3.4,3.4,0,0,1,.589,1.383,1.938,1.938,0,0,1,.024.41c-.007.094-.014.142-.021.142s-.014-.2-.089-.534a3.613,3.613,0,0,0-.634-1.308,14.575,14.575,0,0,0-1.479-1.617c-.586-.587-1.242-1.221-1.952-1.862a37.363,37.363,0,0,0-3.828-3.051c-.514-.358-.943-.631-1.238-.821a2.543,2.543,0,0,1-.451-.31" transform="translate(-79.411 -190.131)" fill="#263238"/>
              <path id="Trazado_797395" data-name="Trazado 797395" d="M195.136,383.977a1.723,1.723,0,0,1-.135-.246l-.362-.728-1.335-2.754-4.61-9.658.115.058-9.288,1.864L166.989,375l-.095.019-.019-.094c-.689-3.4-1.264-6.221-1.669-8.217l-.452-2.3c-.047-.254-.084-.455-.111-.606a1.108,1.108,0,0,1-.028-.21,1.166,1.166,0,0,1,.058.2l.14.6c.12.544.29,1.314.5,2.288.424,1.991,1.026,4.812,1.749,8.2l-.114-.075,12.526-2.519,9.291-1.846.08-.016.035.074,4.535,9.693,1.281,2.78.333.742a1.753,1.753,0,0,1,.1.261" transform="translate(-92.728 -204.815)" fill="#263238"/>
              <path id="Trazado_797396" data-name="Trazado 797396" d="M178.663,308.325a.951.951,0,0,1,.2.137l.536.428c.456.382,1.11.945,1.889,1.671s1.69,1.607,2.7,2.586,2.116,2.057,3.369,3.076a14.812,14.812,0,0,0,1.657,1.158l-.148.033c1-1.334,2.179-2.322,2.948-3.39l.079-.11.076.11,2.146,3.125.586.879a1.875,1.875,0,0,1,.191.321,1.819,1.819,0,0,1-.238-.289l-.628-.849-2.212-3.079h.155c-.776,1.1-1.952,2.109-2.919,3.41l-.062.083-.086-.05a14.741,14.741,0,0,1-1.688-1.175c-1.266-1.03-2.37-2.118-3.373-3.1s-1.9-1.883-2.662-2.619-1.4-1.319-1.836-1.721l-.507-.459a.961.961,0,0,1-.167-.173" transform="translate(-100.642 -173.683)" fill="#263238"/>
              <path id="Trazado_797397" data-name="Trazado 797397" d="M224.213,322.412a4.656,4.656,0,0,1-.8.435c-.514.254-1.245.6-2.107,1l-.1.046-.043-.1a9.18,9.18,0,0,0-1.479-2.43l.187-.029c-.458,1.075-.869,2.014-1.171,2.681a6.764,6.764,0,0,1-.521,1.052,6.787,6.787,0,0,1,.388-1.108c.266-.683.65-1.632,1.1-2.711l.069-.167.118.138a8.8,8.8,0,0,1,.626.82,8.675,8.675,0,0,1,.881,1.677l-.142-.057c.868-.385,1.612-.707,2.141-.928a4.637,4.637,0,0,1,.853-.317" transform="translate(-122.902 -180.868)" fill="#263238"/>
            </g>
          </g>
          <g id="Grupo_1064412" data-name="Grupo 1064412">
            <g id="Grupo_1064411" data-name="Grupo 1064411" clip-path="url(#clip-path)">
              <path id="Trazado_797398" data-name="Trazado 797398" d="M525.2,236.041l6.189,1.1a18.8,18.8,0,1,0-3.486-5.757l-.006-.009Z" transform="translate(-295.851 -115.989)" fill="#fafafa"/>
              <path id="Trazado_797399" data-name="Trazado 797399" d="M525.2,235.913s.052-.1.164-.3.284-.5.5-.894l1.989-3.5a.046.046,0,0,1,.063-.017.043.043,0,0,1,.015.014l.007.008-.082.044a18.691,18.691,0,0,1-.524-11.966c.141-.487.335-.967.5-1.464a11.159,11.159,0,0,1,.632-1.47,18.685,18.685,0,0,1,4.048-5.553,18.981,18.981,0,0,1,14.6-5.074,19.262,19.262,0,0,1,8.272,2.8,17.923,17.923,0,0,1,1.857,1.31,10.763,10.763,0,0,1,.862.755c.276.266.579.506.835.794a18.884,18.884,0,0,1,1.5,1.773c.228.315.467.624.688.946l.6,1.009a18.886,18.886,0,0,1,.941,16.939,18.84,18.84,0,0,1-17.818,11.3,20.652,20.652,0,0,1-3.094-.335,24.9,24.9,0,0,1-2.8-.786,18.652,18.652,0,0,1-7.619-5.208l.028.016-4.619-.852-1.173-.22c-.262-.05-.388-.077-.388-.077s.142.02.411.065l1.192.2,4.6.787a.048.048,0,0,1,.028.016,18.667,18.667,0,0,0,7.6,5.132,24.994,24.994,0,0,0,2.779.768,20.528,20.528,0,0,0,3.068.322,18.7,18.7,0,0,0,17.613-11.216,18.687,18.687,0,0,0-.937-16.739l-.6-1c-.219-.318-.455-.623-.681-.935a18.72,18.72,0,0,0-1.48-1.752c-.252-.285-.552-.522-.825-.784a10.508,10.508,0,0,0-.851-.747,17.623,17.623,0,0,0-1.835-1.294,19.067,19.067,0,0,0-8.173-2.775,18.807,18.807,0,0,0-14.454,5,18.553,18.553,0,0,0-4.025,5.487,11.174,11.174,0,0,0-.632,1.455c-.17.492-.364.967-.505,1.449a18.557,18.557,0,0,0-.6,2.841,18.843,18.843,0,0,0,1.059,9.047.047.047,0,0,1-.082.043l-.006-.008.077,0c-.88,1.5-1.558,2.652-2.022,3.439l-.529.894c-.121.2-.187.308-.187.308" transform="translate(-295.851 -115.861)" fill="#263238"/>
              <path id="Trazado_797400" data-name="Trazado 797400" d="M584.659,247.672a1.906,1.906,0,1,1,1.906,1.906,1.906,1.906,0,0,1-1.906-1.906" transform="translate(-329.345 -138.443)" fill="#263238"/>
              <path id="Trazado_797401" data-name="Trazado 797401" d="M567.189,247.672a1.906,1.906,0,1,1,1.906,1.906,1.906,1.906,0,0,1-1.906-1.906" transform="translate(-319.504 -138.443)" fill="#263238"/>
              <path id="Trazado_797402" data-name="Trazado 797402" d="M549.435,248.625a1.906,1.906,0,1,1,2.6.7,1.906,1.906,0,0,1-2.6-.7" transform="translate(-309.359 -138.443)" fill="#263238"/>
            </g>
          </g>
          <g id="Grupo_1064414" data-name="Grupo 1064414">
            <g id="Grupo_1064413" data-name="Grupo 1064413" clip-path="url(#clip-path)">
              <path id="Trazado_797403" data-name="Trazado 797403" d="M103.083,38.856l-6.19,1.1a18.806,18.806,0,1,1,3.485-5.757l.007-.009Z" transform="translate(-36.122 -4.912)" fill="#fafafa"/>
              <path id="Trazado_797404" data-name="Trazado 797404" d="M102.961,38.728s-.067-.106-.187-.308l-.529-.894-2.022-3.439.078,0-.006.008a.046.046,0,0,1-.065.011.047.047,0,0,1-.017-.055,18.844,18.844,0,0,0,1.058-9.047,18.555,18.555,0,0,0-.6-2.841c-.142-.482-.336-.957-.506-1.449a11.1,11.1,0,0,0-.631-1.456,18.557,18.557,0,0,0-4.025-5.487,18.807,18.807,0,0,0-14.454-5,19.071,19.071,0,0,0-8.173,2.775,17.662,17.662,0,0,0-1.834,1.294,10.662,10.662,0,0,0-.851.747c-.272.262-.572.5-.825.784a18.728,18.728,0,0,0-1.48,1.752c-.226.311-.462.617-.68.935l-.6,1A18.684,18.684,0,0,0,65.679,34.8,18.677,18.677,0,0,0,83.291,46.018a20.525,20.525,0,0,0,3.068-.322,24.986,24.986,0,0,0,2.778-.768,18.659,18.659,0,0,0,7.6-5.132.051.051,0,0,1,.028-.016l4.6-.787,1.191-.2c.269-.045.411-.065.411-.065s-.127.028-.389.077l-1.173.22-4.619.852.028-.016a18.649,18.649,0,0,1-7.619,5.208,24.924,24.924,0,0,1-2.8.786,20.657,20.657,0,0,1-3.094.335,18.869,18.869,0,0,1-17.818-11.3,18.886,18.886,0,0,1,.94-16.939l.6-1.009c.222-.321.46-.631.689-.946a18.877,18.877,0,0,1,1.5-1.773c.255-.288.559-.528.835-.794a10.758,10.758,0,0,1,.862-.755,17.873,17.873,0,0,1,1.857-1.31,19.266,19.266,0,0,1,8.272-2.8,18.981,18.981,0,0,1,14.6,5.074,18.7,18.7,0,0,1,4.049,5.553,11.3,11.3,0,0,1,.631,1.47c.17.5.364.977.5,1.464a18.677,18.677,0,0,1-.524,11.966l-.081-.044.006-.008a.046.046,0,0,1,.064-.011.048.048,0,0,1,.014.015l1.989,3.5.5.894c.112.2.164.3.164.3" transform="translate(-36 -4.784)" fill="#263238"/>
              <path id="Trazado_797405" data-name="Trazado 797405" d="M88.962,50.488a1.906,1.906,0,1,0-1.906,1.906,1.906,1.906,0,0,0,1.906-1.906" transform="translate(-47.965 -27.367)" fill="#263238"/>
              <path id="Trazado_797406" data-name="Trazado 797406" d="M106.431,50.488a1.906,1.906,0,1,0-1.906,1.906,1.906,1.906,0,0,0,1.906-1.906" transform="translate(-57.806 -27.367)" fill="#263238"/>
              <path id="Trazado_797407" data-name="Trazado 797407" d="M124.185,51.44a1.906,1.906,0,1,0-2.6.7,1.906,1.906,0,0,0,2.6-.7" transform="translate(-67.951 -27.366)" fill="#263238"/>
            </g>
          </g>
        </g>
      </g>
    </g>
  </g>
</svg>
