<svg xmlns="http://www.w3.org/2000/svg" xmlns:xlink="http://www.w3.org/1999/xlink" width="400" height="237.618" viewBox="0 0 400 237.618">
  <defs>
    <clipPath id="clip-path">
      <rect id="Rect치ngulo_373723" data-name="Rect치ngulo 373723" width="280.105" height="196.885" transform="translate(0 0)" fill="none"/>
    </clipPath>
  </defs>
  <g id="Grupo_1065529" data-name="Grupo 1065529" transform="translate(-180 -4724)">
    <g id="Grupo_1065458" data-name="Grupo 1065458" transform="translate(0 35)">
      <path id="Uni칩n_11" data-name="Uni칩n 11" d="M41,237.618a41,41,0,0,1-41-41V70.127a41,41,0,0,1,41-41H359A41.04,41.04,0,0,1,369.927,30.6L400,0V196.618a41,41,0,0,1-41,41Z" transform="translate(580 4926.618) rotate(180)" fill="#f3f9ff"/>
      <g id="Grupo_1064545" data-name="Grupo 1064545" transform="translate(239.947 4694.055)">
        <g id="Grupo_1064544" data-name="Grupo 1064544" transform="translate(0 -0.004)" clip-path="url(#clip-path)">
          <path id="Trazado_797543" data-name="Trazado 797543" d="M908.923,213.4c-.5,6.88-1.516,7.828-8.075,8.358,6.559.53,7.574,1.479,8.075,8.359.5-6.88,1.516-7.829,8.075-8.359-6.559-.53-7.574-1.478-8.075-8.358m26.663,18.144c-.267,3.673-.81,4.18-4.31,4.463,3.5.283,4.043.79,4.31,4.462.267-3.673.81-4.179,4.312-4.462-3.5-.283-4.045-.79-4.312-4.463m-11.677-28.268c-.271,3.72-.819,4.233-4.366,4.52,3.547.286,4.1.8,4.366,4.52.271-3.721.819-4.234,4.366-4.52-3.547-.286-4.095-.8-4.366-4.52" transform="translate(-779.039 -175.79)" fill="#fff" fill-rule="evenodd"/>
          <path id="Trazado_797544" data-name="Trazado 797544" d="M728.577,1059.873c.406,5.574,1.229,6.342,6.542,6.772-5.314.429-6.136,1.2-6.542,6.771-.406-5.573-1.228-6.342-6.542-6.771,5.314-.43,6.136-1.2,6.542-6.772m-21.6,14.7c.217,2.975.656,3.385,3.493,3.615-2.837.229-3.276.64-3.493,3.615-.216-2.975-.656-3.386-3.492-3.615,2.837-.23,3.276-.639,3.492-3.615m9.46-22.9c.219,3.014.664,3.43,3.538,3.661-2.874.233-3.318.648-3.538,3.662-.22-3.014-.664-3.429-3.537-3.662,2.873-.231,3.318-.647,3.537-3.661" transform="translate(-608.362 -909.468)" fill="#fff" fill-rule="evenodd"/>
          <path id="Trazado_797545" data-name="Trazado 797545" d="M1484.836,970.557c-.312,4.268-.941,4.856-5.008,5.185,4.068.328,4.7.917,5.008,5.184.311-4.267.94-4.856,5.008-5.184-4.068-.329-4.7-.918-5.008-5.185m16.538,11.254c-.166,2.279-.5,2.593-2.675,2.769,2.172.175,2.508.49,2.675,2.768.166-2.278.5-2.593,2.674-2.768-2.172-.176-2.508-.49-2.674-2.769m-7.242-17.534c-.168,2.308-.509,2.626-2.708,2.8,2.2.178,2.54.5,2.708,2.8.167-2.308.508-2.626,2.708-2.8-2.2-.177-2.541-.5-2.708-2.8" transform="translate(-1279.731 -833.891)" fill="#fff" fill-rule="evenodd"/>
          <path id="Trazado_797546" data-name="Trazado 797546" d="M1750.012,689.544a11.371,11.371,0,0,0-3.8,9.453q9.888,6.734,10.224,12.613c-7.743-6.893-13.563-6.875-16.183-2.642,1.934,2.34,3.286,10.412,2.82,14.128-.825,6.563.962,12.451,5.921,14.665q1.706,3.822,3.583,4.029-1.8,11.028-3.033,22.388a2.91,2.91,0,0,0,2.675-.047c.257-2.951.444-5.034.637-6.431q.762-8.245,1.716-15.947c.307-.036.612-.087.912-.152,5.8-1.218,3.577-4.836,8.884-5.925,3.266-.669,6.235-3.426,6.973-5.892-3.4-1.071-7.678-2.214-12.018-1.4,2.256-3.17,6.837-2.932,13.052-2.167,2.349-4.563,5.684-4.147,4.36-11.288-1.843-9.954,4.669-12.713,2.479-24.7q-4.8-1.816-12.715.426,3.355-4.965,12.738-4.109a18.5,18.5,0,0,1-.67-9.983,5.534,5.534,0,0,0-7.045.027,5.782,5.782,0,0,1,4.127-3.121,10.93,10.93,0,0,0-2.014-5.229,23.062,23.062,0,0,0-6.919,1.383q1.729,1.139,1.119,4.1-2.08-2.446-6.148-1.634c-.572,7.115-6.877,10-6.984,13.065q5.568,4.9,6.522,10.7a28.642,28.642,0,0,0-11.215-6.314" transform="translate(-1504.946 -577.886)" fill="#1969d5" fill-rule="evenodd"/>
          <path id="Trazado_797547" data-name="Trazado 797547" d="M1808.967,796.77q1.232-11.36,3.033-22.388c4.281-27.767,11.76-56.449,18.268-68.452q-13.027,30.7-17.99,84.361c-.192,1.4-.38,3.479-.637,6.431a2.91,2.91,0,0,1-2.675.047" transform="translate(-1564.366 -610.477)" fill="#61a0e0" fill-rule="evenodd"/>
          <path id="Trazado_797548" data-name="Trazado 797548" d="M1664.4,514.211a12.951,12.951,0,0,1,2.668,11.29q-12.279,5.9-13.659,12.462c9.893-6.444,16.442-5.434,18.671-.222-2.575,2.306-5.471,11.166-5.577,15.428-.188,7.53-3.2,13.857-9.162,15.505q-2.574,4.013-4.72,3.927.15,12.723-.393,25.723a3.312,3.312,0,0,1-3-.508c.214-3.367.356-5.745.377-7.349q.545-9.412.781-18.248c-.338-.092-.673-.2-1-.325-6.322-2.357-3.206-6.055-9-8.182-3.562-1.309-6.437-4.919-6.849-7.821,4.009-.628,9.022-1.187,13.769.466-2-3.952-7.2-4.463-14.325-4.659-1.868-5.537-5.694-5.635-2.991-13.452,3.768-10.893-3.094-15.108,1.41-28.227q5.718-1.227,14.244,2.643-2.934-6.161-13.644-6.794c2.062-3.73,2.821-8.842,2.454-11.126a6.3,6.3,0,0,1,7.927,1.23,6.581,6.581,0,0,0-4.115-4.216,12.427,12.427,0,0,1,3.157-5.545,26.275,26.275,0,0,1,7.555,2.734q-2.142.99-1.959,4.429,2.759-2.4,7.2-.793c-.567,8.108,6.041,12.429,5.641,15.9q-7.106,4.574-9.165,10.935a32.635,32.635,0,0,1,13.7-5.2" transform="translate(-1408.784 -420.467)" fill="#59bee2" fill-rule="evenodd"/>
          <path id="Trazado_797549" data-name="Trazado 797549" d="M1745.866,638.055q.545-13,.393-25.723c-.1-31.992-3.639-65.558-8.925-80.178q9.444,36.784,5.906,98.044c-.021,1.6-.164,3.982-.377,7.349a3.312,3.312,0,0,0,3,.508" transform="translate(-1502.418 -460.198)" fill="#8bbae9" fill-rule="evenodd"/>
          <path id="Trazado_797550" data-name="Trazado 797550" d="M1734.838,1248.355h20.98a1.717,1.717,0,0,1,1.712,1.712v4.818a1.717,1.717,0,0,1-1.712,1.712h-20.98a1.717,1.717,0,0,1-1.713-1.712v-4.818a1.717,1.717,0,0,1,1.713-1.712" transform="translate(-1498.779 -1079.557)" fill="#c3dffa" fill-rule="evenodd"/>
          <path id="Trazado_797551" data-name="Trazado 797551" d="M1747.17,1309.305h20.6l-2.021,10.651h-16.56Z" transform="translate(-1510.925 -1132.266)" fill="#c3dffa" fill-rule="evenodd"/>
          <path id="Trazado_797552" data-name="Trazado 797552" d="M1767.775,1309.305h-20.6l.366,1.927h19.873Z" transform="translate(-1510.925 -1132.266)" fill="#a4d0fc" fill-rule="evenodd"/>
          <path id="Trazado_797553" data-name="Trazado 797553" d="M740.509,175.284c-7.983.3-8.829,13.545.151,19.352h9.329c-1.014-9.285-3.339-18.606-9.48-19.352" transform="translate(-634.942 -151.582)" fill="#1969d5" fill-rule="evenodd"/>
          <path id="Trazado_797554" data-name="Trazado 797554" d="M323.066,585.687H345.7v22.631h22.631v22.631H345.7V653.58H323.066V630.949h-22.63V608.318h22.63Z" transform="translate(-259.811 -506.492)" fill="#fff" fill-rule="evenodd"/>
          <path id="Trazado_797555" data-name="Trazado 797555" d="M345.124,653H322.28V630.373H299.65V607.529h22.63V584.9h22.844v22.631h22.631v22.844H345.124Zm-22.632-.213h22.419V630.16h22.631V607.742H344.912V585.111H322.493v22.631h-22.63V630.16h22.63Z" transform="translate(-259.132 -505.81)" fill="#fff"/>
          <path id="Trazado_797556" data-name="Trazado 797556" d="M268.381,250.33c-3.8,56.023-17.288,118.1-79.022,134.168l-1.533.4-1.533-.4c-61.734-16.064-75.219-78.145-79.022-134.168l-.366-5.4,5.317-1c25.745-4.826,49.352-14.473,73.065-25.36l2.539-1.166,2.539,1.166c23.713,10.887,47.32,20.534,73.065,25.36l5.317,1Z" transform="translate(-92.45 -188.011)" fill="#faf4ea" fill-rule="evenodd"/>
          <path id="Trazado_797557" data-name="Trazado 797557" d="M303.488,291.24c-25.44-4.769-48.134-13.715-74.482-25.81-26.348,12.095-49.041,21.041-74.482,25.81,5.193,76.518,27.885,116.568,74.482,128.691,46.6-12.124,69.289-52.173,74.482-128.691" transform="translate(-133.63 -229.539)" fill="#92df98" fill-rule="evenodd"/>
          <path id="Trazado_797558" data-name="Trazado 797558" d="M367.322,378.127c-21.785-5.1-42.194-13.219-62.651-22.458-20.458,9.239-40.866,17.356-62.651,22.458,3.062,34.034,11.357,76.111,39.319,96.926a73.355,73.355,0,0,0,23.332,11.4A73.347,73.347,0,0,0,328,475.052c27.963-20.814,36.258-62.892,39.32-96.926" transform="translate(-209.295 -307.576)" fill="#faf4ea" fill-rule="evenodd"/>
          <path id="Trazado_797559" data-name="Trazado 797559" d="M303.94,485.814l-.03-.009a73.814,73.814,0,0,1-23.366-11.412c-12.571-9.358-22.339-24.012-29.034-43.557-5.037-14.7-8.415-32.185-10.327-53.445l-.009-.093.09-.021c23.643-5.536,44.928-14.456,62.632-22.451l.044-.019.044.019c17.7,8,38.989,16.915,62.632,22.451l.09.021-.009.093c-1.913,21.259-5.291,38.742-10.327,53.445-6.695,19.545-16.464,34.2-29.035,43.557a73.8,73.8,0,0,1-23.365,11.412ZM241.4,377.465c4.394,48.711,17.24,80.36,39.268,96.757a73.6,73.6,0,0,0,23.269,11.371,73.589,73.589,0,0,0,23.268-11.371c22.028-16.4,34.873-48.045,39.269-96.757-23.6-5.538-44.855-14.439-62.537-22.424-17.682,7.985-38.932,16.886-62.537,22.424" transform="translate(-208.563 -306.832)" fill="#fc9774"/>
          <path id="Trazado_797560" data-name="Trazado 797560" d="M768.013,378.127c-21.785-5.1-42.194-13.219-62.651-22.458V486.448a73.4,73.4,0,0,0,23.332-11.4c27.962-20.813,36.257-62.892,39.319-96.926" transform="translate(-609.986 -307.576)" fill="#fad4a5" fill-rule="evenodd" opacity="0.19"/>
          <path id="Trazado_797561" data-name="Trazado 797561" d="M638.551,753.51a11.4,11.4,0,1,1-11.4,11.4,11.4,11.4,0,0,1,11.4-11.4" transform="translate(-542.352 -651.623)" fill="#f57a44" fill-rule="evenodd"/>
          <path id="Trazado_797562" data-name="Trazado 797562" d="M652.566,773.09H658.4v5.833h5.834v5.833H658.4v5.835h-5.833v-5.835h-5.834v-5.833h5.834Z" transform="translate(-559.284 -668.556)" fill="#fff" fill-rule="evenodd"/>
          <path id="Trazado_797563" data-name="Trazado 797563" d="M605.041,744.526a13.13,13.13,0,1,1,13.13,13.13,13.13,13.13,0,0,1-13.13-13.13m13.13,14.585a14.585,14.585,0,1,0-14.585-14.585,14.585,14.585,0,0,0,14.585,14.585" transform="translate(-521.972 -631.241)" fill="#f57a44" fill-rule="evenodd"/>
          <path id="Trazado_797564" data-name="Trazado 797564" d="M413.669,585.513a46.562,46.562,0,1,0-46.561-46.562,46.651,46.651,0,0,0,46.561,46.562" transform="translate(-317.469 -425.81)" fill="#fff" fill-rule="evenodd"/>
          <path id="Trazado_797565" data-name="Trazado 797565" d="M485.17,575.076a35.381,35.381,0,1,1-35.381,35.382,35.38,35.38,0,0,1,35.381-35.382" transform="translate(-388.97 -497.316)" fill="#fefefe" fill-rule="evenodd"/>
          <path id="Trazado_797566" data-name="Trazado 797566" d="M519.061,674.428a30.082,30.082,0,1,0-30.082-30.083,30.14,30.14,0,0,0,30.082,30.083" transform="translate(-422.861 -531.204)" fill="#59bee2" fill-rule="evenodd"/>
          <path id="Trazado_797567" data-name="Trazado 797567" d="M556.052,665.947h15.4v15.4h15.4v15.4h-15.4v15.4h-15.4v-15.4h-15.4v-15.4h15.4Z" transform="translate(-467.551 -575.9)" fill="#fff" fill-rule="evenodd"/>
          <path id="Trazado_797568" data-name="Trazado 797568" d="M430.634,590.574a34.652,34.652,0,1,1,34.653,34.652,34.653,34.653,0,0,1-34.653-34.652m34.653,38.49a38.49,38.49,0,1,0-38.49-38.49,38.489,38.489,0,0,0,38.49,38.49" transform="translate(-369.086 -477.432)" fill="#59bee2" fill-rule="evenodd"/>
          <path id="Trazado_797570" data-name="Trazado 797570" d="M857.305,174.9H780.728a6.464,6.464,0,0,1,1.985.591c8.576,3.834,7.883,28.271,8.6,35.76,1.823,19.021,4.4,41.136,7.38,46.583,3.921,7.16,12.681,11.7,14.729,19.639,4.108,15.918-2.267,60.8,14.73,58.919H904.73c-14.509-1.762-8.81-43.655-12.749-58.919-2.048-7.938-10.808-12.48-14.73-19.639-3.423-6.249-6.306-34.431-8.135-54.716-.61-6.764.7-29.6-11.811-28.218" transform="translate(-675.161 -151.196)" fill="#ddf2f9" fill-rule="evenodd"/>
          <path id="Trazado_797571" data-name="Trazado 797571" d="M1201.354,1245.727h6.89c7.88-5.094,7.37-10.4,1.06-16.551-3.927-3.825-3.04-2.127-8.082-.649-23.431,6.865-76.4-.507-74.589-2.17,1.5.11,10.307,10.564-2.9,19.428l40.324-.058h37.3Z" transform="translate(-971.785 -1060.533)" fill="#1969d5" fill-rule="evenodd"/>
          <path id="Trazado_797572" data-name="Trazado 797572" d="M1107.471,1231.347a11.677,11.677,0,0,0-2.214-6.451,9.237,9.237,0,0,0-.675-.831,6.009,6.009,0,0,0-1.232-.973.58.58,0,0,0-.13-.028c0-.006.023-.007.081,0-2.4-.989-5.366-.791-6.5,2.749-.776,2.43,1.581,5.607,5.2,5.492,2.321.03,3.551.044,5.463.042" transform="translate(-948.372 -1057.24)" fill="#d2dfee" fill-rule="evenodd"/>
          <path id="Trazado_797573" data-name="Trazado 797573" d="M1119.656,1258.506l-2.651-.144c-1.437,2.417-3.366,3.424-5.355,2.9,0,.084.208.1.206.186a5.481,5.481,0,0,0,3.117.825c2.321.03,3.552.044,5.463.042a11.291,11.291,0,0,0-.779-3.811" transform="translate(-961.337 -1088.211)" fill="#c5def8" fill-rule="evenodd"/>
          <path id="Trazado_797574" data-name="Trazado 797574" d="M914.072,259.153a7.8,7.8,0,0,1-7.824,8.813,9.869,9.869,0,0,1-9.664-8.688,7.8,7.8,0,0,1,7.824-8.813,9.868,9.868,0,0,1,9.664,8.688" transform="translate(-775.309 -216.598)" fill="#eff9fc" fill-rule="evenodd"/>
          <path id="Trazado_797575" data-name="Trazado 797575" d="M1054.1,272.549h38.447c.375,0,.682.155.682.341h0c0,.187-.307.341-.682.341H1054.1c-.375,0-.683-.154-.683-.341h0c0-.187.308-.341.683-.341" transform="translate(-910.976 -235.695)" fill="#8bbae9" fill-rule="evenodd"/>
          <path id="Trazado_797576" data-name="Trazado 797576" d="M1056.359,296.119h26.791c.376,0,.683.155.683.34h0c0,.186-.308.341-.683.341h-26.791c-.374,0-.682-.154-.682-.341h0c0-.188.306-.34.682-.34" transform="translate(-912.932 -256.078)" fill="#8bbae9" fill-rule="evenodd"/>
          <path id="Trazado_797577" data-name="Trazado 797577" d="M1058.2,319.681h16.728c.376,0,.682.154.682.341s-.308.341-.682.341H1058.2c-.374,0-.682-.153-.682-.341s.307-.341.682-.341" transform="translate(-914.526 -276.454)" fill="#8bbae9" fill-rule="evenodd"/>
          <path id="Trazado_797578" data-name="Trazado 797578" d="M1205.422,319.681h18.008c.375,0,.683.155.683.341s-.309.341-.683.341h-18.008c-.373,0-.682-.153-.682-.341s.307-.341.682-.341" transform="translate(-1041.84 -276.454)" fill="#8bbae9" fill-rule="evenodd"/>
          <path id="Trazado_797579" data-name="Trazado 797579" d="M1281.471,296.119h7.766c.375,0,.682.155.682.34h0c0,.186-.309.341-.682.341h-7.766c-.374,0-.683-.154-.683-.341h0c0-.188.307-.34.683-.34" transform="translate(-1107.605 -256.078)" fill="#8bbae9" fill-rule="evenodd"/>
          <path id="Trazado_797580" data-name="Trazado 797580" d="M943.676,492.8h56.838c.375,0,.682.156.682.341h0c0,.186-.309.341-.682.341H943.676c-.374,0-.683-.153-.683-.341h0c0-.188.307-.341.683-.341" transform="translate(-815.485 -426.161)" fill="#8bbae9" fill-rule="evenodd"/>
          <path id="Trazado_797581" data-name="Trazado 797581" d="M945.934,516.359h26.792c.375,0,.682.155.682.341h0c0,.186-.308.341-.682.341H945.934c-.374,0-.682-.154-.682-.341h0c0-.188.307-.341.682-.341" transform="translate(-817.439 -446.538)" fill="#8bbae9" fill-rule="evenodd"/>
          <path id="Trazado_797582" data-name="Trazado 797582" d="M947.783,539.921H964.51c.376,0,.683.155.683.341h0c0,.187-.308.341-.683.341H947.783c-.375,0-.682-.154-.682-.341h0c0-.188.307-.341.682-.341" transform="translate(-819.038 -466.914)" fill="#8bbae9" fill-rule="evenodd"/>
          <path id="Trazado_797583" data-name="Trazado 797583" d="M1095,539.921h37.838c.374,0,.682.155.682.342s-.31.341-.682.341H1095c-.372,0-.683-.154-.683-.341s.307-.342.683-.342" transform="translate(-946.348 -466.914)" fill="#8bbae9" fill-rule="evenodd"/>
          <path id="Trazado_797584" data-name="Trazado 797584" d="M1171.049,516.365h26.974c.376,0,.683.157.683.34h0c0,.184-.311.341-.683.341h-26.974c-.373,0-.683-.154-.683-.341h0c0-.187.308-.34.683-.34" transform="translate(-1012.114 -446.544)" fill="#8bbae9" fill-rule="evenodd"/>
          <path id="Trazado_797585" data-name="Trazado 797585" d="M973.088,624.028h16.727c.376,0,.683.154.683.34h0c0,.188-.307.341-.683.341H973.088c-.375,0-.682-.154-.682-.341h0c0-.187.307-.34.682-.34" transform="translate(-840.921 -539.649)" fill="#8bbae9" fill-rule="evenodd"/>
          <path id="Trazado_797586" data-name="Trazado 797586" d="M1120.311,624.028h37.838c.374,0,.682.154.682.341s-.31.341-.682.341h-37.838c-.372,0-.682-.154-.682-.341s.306-.341.682-.341" transform="translate(-968.237 -539.649)" fill="#8bbae9" fill-rule="evenodd"/>
          <path id="Trazado_797587" data-name="Trazado 797587" d="M975.388,649.333h16.727c.376,0,.683.154.683.341s-.308.341-.683.341H975.388c-.375,0-.682-.154-.682-.341s.307-.341.682-.341" transform="translate(-842.91 -561.532)" fill="#8bbae9" fill-rule="evenodd"/>
          <path id="Trazado_797588" data-name="Trazado 797588" d="M1122.6,649.333h37.838c.375,0,.683.154.683.341s-.31.341-.683.341H1122.6c-.371,0-.683-.154-.683-.341s.308-.341.683-.341" transform="translate(-970.217 -561.532)" fill="#8bbae9" fill-rule="evenodd"/>
          <path id="Trazado_797589" data-name="Trazado 797589" d="M980.847,674.638h16.727c.375,0,.683.154.683.341s-.308.341-.683.341H980.847c-.374,0-.682-.154-.682-.341s.307-.341.682-.341" transform="translate(-847.631 -583.415)" fill="#8bbae9" fill-rule="evenodd"/>
          <path id="Trazado_797590" data-name="Trazado 797590" d="M1128.064,674.638H1165.9c.374,0,.683.155.683.341s-.311.341-.683.341h-37.838c-.372,0-.683-.154-.683-.341s.308-.341.683-.341" transform="translate(-974.941 -583.415)" fill="#8bbae9" fill-rule="evenodd"/>
          <path id="Trazado_797591" data-name="Trazado 797591" d="M1014.2,788.118h16.727c.376,0,.683.155.683.341h0c0,.187-.308.341-.683.341H1014.2c-.375,0-.682-.154-.682-.341h0c0-.187.307-.341.682-.341" transform="translate(-876.477 -681.551)" fill="#8bbae9" fill-rule="evenodd"/>
          <path id="Trazado_797592" data-name="Trazado 797592" d="M791.528,319.915l-2.291-.125a5.684,5.684,0,0,1-4.189,3.016,5.188,5.188,0,0,0,2.006.31c1.719.023,3.437.043,5.156.043a11.022,11.022,0,0,0-.683-3.244m-.239-.593-2.195-.119a.29.29,0,0,0-.264.142c-1.069,1.8-2.8,3.358-5.033,2.769l-.048-.009a3.907,3.907,0,0,1-1.629-4.1c.887-2.8,3.143-3.652,5.816-2.684.067.222.446.457,1.1.7a4.71,4.71,0,0,1,.534.531,10.957,10.957,0,0,1,1.72,2.779m-7.524,3.495.012.009a5.733,5.733,0,0,0,2.977.87c1.825,0,3.651.041,5.479.041-.056,4.608-3.344,8.12-6.958,10.563-6.66-.106-9.272-8.431-10.445-19.026-.639-5.783-.849-12.232-1.049-18.405-.272-8.4-.528-16.287-1.828-21.324-2.086-8.083-10.842-12.56-14.755-19.706-1.473-2.69-2.853-9.547-4.093-18.1-1.244-8.59-2.343-18.867-3.253-28.368-.123-1.286-.205-3.088-.3-5.2-.459-10.119-1.243-27.341-8.548-30.831h74.553l.032,0c7.465-.826,9.866,7.366,10.747,15.336.348,3.136.46,6.236.552,8.755.056,1.542.1,2.87.193,3.865.915,10.148,2.094,22.271,3.471,32.634,1.381,10.394,2.968,19.036,4.7,22.2,1.684,3.074,4.235,5.658,6.772,8.227,3.4,3.437,6.772,6.854,7.931,11.345,1.284,4.976,1.539,12.834,1.81,21.2.243,7.5.5,15.4,1.528,22.046-16.823,2.154-40.107.384-53.767-1.508a88.509,88.509,0,0,1-10.081-1.829,3.954,3.954,0,0,0-.992-.7c-3.039-1.254-5.836-.352-6.88,2.929a4.556,4.556,0,0,0,2.194,4.991m6.4-6.459q.472.124,1.035.248c1.964.43,4.8.915,8.24,1.391,13.246,1.836,35.532,3.554,52.27,1.7a34.283,34.283,0,0,0,5.174-.723,54.718,54.718,0,0,0,6.041-1.366,22.16,22.16,0,0,0,3.059-1.156c1.742-.782,2.027-.91,4.741,1.734,3.1,3.017,4.771,5.812,4.7,8.457-.065,2.616-1.844,5.123-5.645,7.6H786.4l-.05,0c4.536-3.3,6.2-6.8,6.432-9.892a11.668,11.668,0,0,0-2.616-8M738.853,173.3c-3.964.23-5.809,3.769-5.9,7.344l-.5-.228c.163-3.834,2.271-7.39,6.378-7.625a.285.285,0,0,1,.15-.042h76.57c7.925-.859,10.45,7.61,11.36,15.85.349,3.147.461,6.264.554,8.8.056,1.539.1,2.863.191,3.835.915,10.137,2.092,22.248,3.469,32.609,1.373,10.331,2.941,18.9,4.632,21.993,3.914,7.146,12.67,11.624,14.756,19.706,1.3,5.037,1.555,12.927,1.827,21.324.243,7.491.5,15.389,1.515,21.99a61.056,61.056,0,0,0,8.915-1.8,21.2,21.2,0,0,0,2.985-1.129c2.048-.919,2.385-1.069,5.38,1.848,3.213,3.13,4.949,6.064,4.879,8.885s-1.947,5.5-5.958,8.1a.282.282,0,0,1-.183.065H825.682c-13.442,0-26.886.058-40.328.058-7.13-.019-9.889-8.6-11.1-19.544-.641-5.794-.851-12.261-1.051-18.45-.271-8.367-.526-16.225-1.81-21.2-1.16-4.49-4.534-7.908-7.93-11.345-2.538-2.57-5.089-5.153-6.773-8.227-1.51-2.758-2.909-9.682-4.158-18.3-1.244-8.585-2.344-18.878-3.256-28.4-.125-1.306-.208-3.113-.3-5.232-.364-8.006-.974-29.747-10.021-30.857a.311.311,0,0,1-.1-.028" transform="translate(-633.412 -149.34)" fill="#59bee2" fill-rule="evenodd"/>
          <path id="Trazado_797593" data-name="Trazado 797593" d="M1109.061,954.171H1165.9c.375,0,.683.156.683.341h0c0,.185-.31.34-.683.34h-56.838c-.373,0-.683-.153-.683-.34h0c0-.187.308-.341.683-.341" transform="translate(-958.508 -825.151)" fill="#8bbae9" fill-rule="evenodd"/>
          <path id="Trazado_797594" data-name="Trazado 797594" d="M1111.322,977.733h26.791c.376,0,.682.155.682.341h0c0,.187-.308.341-.682.341h-26.791c-.375,0-.683-.154-.683-.341h0c0-.188.307-.341.683-.341" transform="translate(-960.463 -845.527)" fill="#8bbae9" fill-rule="evenodd"/>
          <path id="Trazado_797595" data-name="Trazado 797595" d="M1113.165,1001.3h16.727c.376,0,.683.155.683.342s-.308.341-.683.341h-16.727c-.374,0-.683-.154-.683-.341s.308-.342.683-.342" transform="translate(-962.057 -865.904)" fill="#8bbae9" fill-rule="evenodd"/>
          <path id="Trazado_797596" data-name="Trazado 797596" d="M1260.39,1001.3h37.838c.374,0,.682.155.682.342s-.31.341-.682.341H1260.39c-.372,0-.682-.154-.682-.341s.306-.342.682-.342" transform="translate(-1089.375 -865.904)" fill="#8bbae9" fill-rule="evenodd"/>
          <path id="Trazado_797597" data-name="Trazado 797597" d="M1336.434,977.74h26.974c.376,0,.683.157.683.341h0c0,.184-.311.341-.683.341h-26.974c-.372,0-.683-.154-.683-.341h0c0-.188.308-.341.683-.341" transform="translate(-1155.136 -845.533)" fill="#8bbae9" fill-rule="evenodd"/>
          <path id="Trazado_797598" data-name="Trazado 797598" d="M1138.475,1085.4H1155.2c.375,0,.682.154.682.341s-.308.342-.682.342h-16.728c-.374,0-.682-.154-.682-.342s.306-.341.682-.341" transform="translate(-983.945 -938.638)" fill="#8bbae9" fill-rule="evenodd"/>
          <path id="Trazado_797599" data-name="Trazado 797599" d="M1285.695,1085.4h37.838c.374,0,.682.154.682.341s-.31.342-.682.342h-37.838c-.372,0-.682-.154-.682-.342s.307-.341.682-.341" transform="translate(-1111.259 -938.638)" fill="#8bbae9" fill-rule="evenodd"/>
          <path id="Trazado_797600" data-name="Trazado 797600" d="M1140.766,1110.708h16.727c.376,0,.683.154.683.34h0c0,.188-.308.342-.683.342h-16.727c-.374,0-.683-.154-.683-.342h0c0-.187.308-.34.683-.34" transform="translate(-985.925 -960.522)" fill="#8bbae9" fill-rule="evenodd"/>
          <path id="Trazado_797601" data-name="Trazado 797601" d="M1287.993,1110.708h37.838c.375,0,.683.154.683.341s-.31.342-.683.342h-37.838c-.371,0-.682-.154-.682-.342s.307-.341.682-.341" transform="translate(-1113.246 -960.522)" fill="#8bbae9" fill-rule="evenodd"/>
          <path id="Trazado_797602" data-name="Trazado 797602" d="M1146.228,1136.012h16.727c.376,0,.683.154.683.341s-.308.342-.683.342h-16.727c-.375,0-.683-.154-.683-.342s.308-.341.683-.341" transform="translate(-990.649 -982.404)" fill="#8bbae9" fill-rule="evenodd"/>
          <path id="Trazado_797603" data-name="Trazado 797603" d="M1293.449,1136.012h37.838c.374,0,.683.154.683.341s-.31.342-.683.342h-37.838c-.372,0-.683-.154-.683-.342s.308-.341.683-.341" transform="translate(-1117.963 -982.404)" fill="#8bbae9" fill-rule="evenodd"/>
          <path id="Trazado_797604" data-name="Trazado 797604" d="M935.232,262.464a7.032,7.032,0,0,1,6.743,5.914,5.023,5.023,0,0,1-5.086,5.914,7.033,7.033,0,0,1-6.743-5.914,5.024,5.024,0,0,1,5.086-5.914" transform="translate(-804.324 -226.974)" fill="#fccd92" fill-rule="evenodd"/>
          <path id="Trazado_797605" data-name="Trazado 797605" d="M941.714,272.62h3.027l.424,3.027h3.027l.424,3.027h-3.027l.424,3.027h-3.027l-.424-3.027h-3.027l-.425-3.027h3.027Z" transform="translate(-812.128 -235.757)" fill="#fff" fill-rule="evenodd"/>
          <path id="Trazado_797606" data-name="Trazado 797606" d="M918.569,257.8a5.787,5.787,0,0,1,5.859-6.813A8.1,8.1,0,0,1,932.2,257.8a5.787,5.787,0,0,1-5.859,6.814,8.1,8.1,0,0,1-7.768-6.814m7.874,7.568a6.428,6.428,0,0,0,6.508-7.568,9,9,0,0,0-8.628-7.568,6.428,6.428,0,0,0-6.508,7.568,9,9,0,0,0,8.628,7.568" transform="translate(-793.646 -216.395)" fill="#fad4a5" fill-rule="evenodd"/>
        </g>
      </g>
    </g>
  </g>
</svg>
