<svg xmlns="http://www.w3.org/2000/svg" xmlns:xlink="http://www.w3.org/1999/xlink" width="76.999" height="76.999" viewBox="0 0 76.999 76.999">
  <defs>
    <clipPath id="clip-path">
      <circle id="Elipse_8292" data-name="Elipse 8292" cx="38.5" cy="38.5" r="38.5" transform="translate(330 1539)" fill="#59bee2"/>
    </clipPath>
  </defs>
  <g id="Enmascarar_grupo_1064344" data-name="Enmascarar grupo 1064344" transform="translate(-330 -1539)" clip-path="url(#clip-path)">
    <g id="entrevista" transform="translate(338.758 1546.803)">
      <path id="Trazado_797693" data-name="Trazado 797693" d="M1.389,55.024a.9.9,0,0,0,.028,1.02.929.929,0,0,0,.754.4.788.788,0,0,0,.2-.018l8.446-1.875A17.446,17.446,0,0,0,36.166,39.253,17.66,17.66,0,0,0,48.674,38l8.446,1.866a.721.721,0,0,0,.2.018.926.926,0,0,0,.781-1.415l-3.446-5.45A17.459,17.459,0,1,0,23.336,22.131a17.46,17.46,0,0,0-18.5,27.443ZM40.761,6.8A15.621,15.621,0,0,1,52.8,32.378a.913.913,0,0,0-.074,1.075l2.619,4.136-6.617-1.461a.948.948,0,0,0-.634.083A15.819,15.819,0,0,1,36.074,37.3,17.487,17.487,0,0,0,25.137,22.747c0-.11-.009-.221-.009-.331A15.646,15.646,0,0,1,40.752,6.792ZM3.08,38.968A15.636,15.636,0,1,1,11.36,52.754a.915.915,0,0,0-.432-.11.754.754,0,0,0-.2.018L4.118,54.123l2.619-4.136a.926.926,0,0,0-.064-1.075A15.637,15.637,0,0,1,3.089,38.95Z" fill="#12263f"/>
      <circle id="Elipse_8293" data-name="Elipse 8293" cx="1.379" cy="1.379" r="1.379" transform="translate(17.325 44.482)" fill="#12263f"/>
      <path id="Trazado_797694" data-name="Trazado 797694" d="M23.218,40.325a2.757,2.757,0,1,1,0,5.514.922.922,0,0,0-.919.919v4.6h1.838V47.586a4.6,4.6,0,1,0-5.514-4.5h1.838A2.765,2.765,0,0,1,23.218,40.325Z" transform="translate(-4.514 -8.709)" fill="#12263f"/>
      <path id="Trazado_797695" data-name="Trazado 797695" d="M44.694,19.864H59.4V21.7h-14.7Z" transform="translate(-11.286 -3.873)" fill="#12263f"/>
      <path id="Trazado_797696" data-name="Trazado 797696" d="M44.694,27.313H59.4v1.838h-14.7Z" transform="translate(-11.286 -5.807)" fill="#12263f"/>
      <path id="Trazado_797697" data-name="Trazado 797697" d="M49.66,34.762H60.689V36.6H49.66Z" transform="translate(-12.576 -7.742)" fill="#12263f"/>
    </g>
  </g>
</svg>
