<svg xmlns="http://www.w3.org/2000/svg" xmlns:xlink="http://www.w3.org/1999/xlink" width="76.999" height="76.999" viewBox="0 0 76.999 76.999">
  <defs>
    <clipPath id="clip-path">
      <circle id="Elipse_8295" data-name="Elipse 8295" cx="38.5" cy="38.5" r="38.5" transform="translate(331 1539)" fill="#59bee2"/>
    </clipPath>
  </defs>
  <g id="Grupo_1064241" data-name="Grupo 1064241" transform="translate(-331 -1539)">
    <g id="Enmascarar_grupo_1064347" data-name="Enmascarar grupo 1064347" clip-path="url(#clip-path)">
      <g id="retorno-de-la-inversion" transform="translate(338.9 1546.901)">
        <path id="Trazado_797712" data-name="Trazado 797712" d="M39.509,43.582a3.78,3.78,0,0,0-.947-7.442,1.894,1.894,0,1,1,1.894-1.894H42.35a3.784,3.784,0,0,0-2.841-3.654V28.564H37.615v2.028a3.78,3.78,0,0,0,.947,7.442,1.894,1.894,0,1,1-1.894,1.894H34.774a3.784,3.784,0,0,0,2.841,3.654V45.61h1.894Z" transform="translate(-7.963 -6.488)" fill="#12263f"/>
        <path id="Trazado_797713" data-name="Trazado 797713" d="M35.908,23.6A12.325,12.325,0,0,0,23.6,35.908H25.49A10.429,10.429,0,0,1,35.908,25.49Z" transform="translate(-5.308 -5.308)" fill="#12263f"/>
        <path id="Trazado_797714" data-name="Trazado 797714" d="M50.159,39.741A10.429,10.429,0,0,1,39.741,50.159v1.894A12.325,12.325,0,0,0,52.053,39.741Z" transform="translate(-9.142 -9.142)" fill="#12263f"/>
        <path id="Trazado_797715" data-name="Trazado 797715" d="M24.372,10.139a24.527,24.527,0,0,0-7.878,5.485l1.363,1.315a22.683,22.683,0,0,1,7.274-5.066Z" transform="translate(-3.622 -2.113)" fill="#12263f"/>
        <path id="Trazado_797716" data-name="Trazado 797716" d="M31.379,8.388c-.667.164-1.33.357-1.972.574l.608,1.795c.591-.2,1.2-.378,1.816-.53Z" transform="translate(-6.688 -1.697)" fill="#12263f"/>
        <path id="Trazado_797717" data-name="Trazado 797717" d="M36.547,7.553c-.647.051-1.31.131-1.97.236l.3,1.87c.61-.1,1.222-.171,1.818-.217Z" transform="translate(-7.916 -1.499)" fill="#12263f"/>
        <path id="Trazado_797718" data-name="Trazado 797718" d="M30.6,3.136A27.283,27.283,0,0,1,50.018,11.18a.975.975,0,0,0,1.339,0l1.97-1.97v7.184H46.143l1.867-1.867a.946.946,0,0,0,0-1.339A24.46,24.46,0,0,0,30.6,5.977V7.871a22.565,22.565,0,0,1,15.388,6l-2.8,2.8a.947.947,0,0,0,.67,1.617H54.274a.947.947,0,0,0,.947-.947V6.924a.947.947,0,0,0-1.617-.67L50.678,9.182A29.357,29.357,0,0,0,1.242,30.6H3.136A27.494,27.494,0,0,1,30.6,3.136Z" fill="#12263f"/>
        <path id="Trazado_797719" data-name="Trazado 797719" d="M60.3,61.741l-1.363-1.315a22.683,22.683,0,0,1-7.274,5.066l.759,1.735A24.537,24.537,0,0,0,60.3,61.741Z" transform="translate(-11.973 -14.054)" fill="#12263f"/>
        <path id="Trazado_797720" data-name="Trazado 797720" d="M47.349,70.357c.667-.164,1.33-.357,1.972-.574l-.608-1.795c-.591.2-1.2.378-1.816.53Z" transform="translate(-10.841 -15.85)" fill="#12263f"/>
        <path id="Trazado_797721" data-name="Trazado 797721" d="M42.276,71.274c.647-.051,1.31-.131,1.97-.236l-.3-1.87c-.61.1-1.222.171-1.818.217Z" transform="translate(-9.709 -16.13)" fill="#12263f"/>
        <path id="Trazado_797722" data-name="Trazado 797722" d="M59.537,39.741A27.463,27.463,0,0,1,12.654,59.161a.975.975,0,0,0-1.339,0l-1.97,1.97V53.947H16.53l-1.867,1.867a.946.946,0,0,0,0,1.339,24.46,24.46,0,0,0,17.411,7.211V62.47a22.565,22.565,0,0,1-15.388-6l2.8-2.8a.947.947,0,0,0-.67-1.617H8.4A.947.947,0,0,0,7.452,53V63.417a.947.947,0,0,0,1.617.67L12,61.159A29.357,29.357,0,0,0,61.431,39.741Z" transform="translate(-1.475 -9.142)" fill="#12263f"/>
        <path id="Trazado_797723" data-name="Trazado 797723" d="M50.827,34.728a16.1,16.1,0,1,0-16.1,16.1A16.117,16.117,0,0,0,50.827,34.728Zm-16.1,14.205A14.205,14.205,0,1,1,48.933,34.728,14.221,14.221,0,0,1,34.728,48.933Z" transform="translate(-4.129 -4.129)" fill="#12263f"/>
      </g>
    </g>
  </g>
</svg>
