<svg xmlns="http://www.w3.org/2000/svg" xmlns:xlink="http://www.w3.org/1999/xlink" width="76.999" height="76.999" viewBox="0 0 76.999 76.999">
  <defs>
    <clipPath id="clip-path">
      <circle id="Elipse_8297" data-name="Elipse 8297" cx="38.5" cy="38.5" r="38.5" transform="translate(331 1539)" fill="#59bee2"/>
    </clipPath>
  </defs>
  <g id="Enmascarar_grupo_1064349" data-name="Enmascarar grupo 1064349" transform="translate(-331 -1539)" clip-path="url(#clip-path)">
    <g id="politicas" transform="translate(337.229 1546.66)">
      <path id="Trazado_797740" data-name="Trazado 797740" d="M8.754,57.135,15.118,36.96V59.177Z" transform="translate(0 -8.822)" fill="none" stroke="#12263f" stroke-linecap="round" stroke-linejoin="round" stroke-miterlimit="10" stroke-width="1.4"/>
      <path id="Trazado_797741" data-name="Trazado 797741" d="M40.354,6.881H26.423l1.2-3.963Z" transform="translate(-4.579)" fill="none" stroke="#12263f" stroke-linecap="round" stroke-linejoin="round" stroke-miterlimit="10" stroke-width="1.4"/>
      <path id="Trazado_797742" data-name="Trazado 797742" d="M49.269,72.784l-1.321,4.083-12.61-4.083" transform="translate(-6.89 -18.106)" fill="none" stroke="#12263f" stroke-linecap="round" stroke-linejoin="round" stroke-miterlimit="10" stroke-width="1.4"/>
      <path id="Trazado_797743" data-name="Trazado 797743" d="M69.423,16.145,63.058,36.32V14.1Z" transform="translate(-14.073 -2.899)" fill="none" stroke="#12263f" stroke-linecap="round" stroke-linejoin="round" stroke-miterlimit="10" stroke-width="1.4"/>
      <path id="Trazado_797744" data-name="Trazado 797744" d="M51.211,50.06v6H17.345V8.267H51.211V44.9" transform="translate(-2.227 -1.386)" fill="none" stroke="#12263f" stroke-linecap="round" stroke-linejoin="round" stroke-miterlimit="10" stroke-width="1.4"/>
      <path id="Trazado_797745" data-name="Trazado 797745" d="M23.991,19.614h6.845V26.58H23.991Z" transform="translate(-3.949 -4.327)" fill="none" stroke="#12263f" stroke-linecap="round" stroke-linejoin="round" stroke-miterlimit="10" stroke-width="1.4"/>
      <path id="Trazado_797746" data-name="Trazado 797746" d="M27.558,22.077l.961.961,5.164-5.044" transform="translate(-4.873 -3.907)" fill="none" stroke="#12263f" stroke-linecap="round" stroke-linejoin="round" stroke-miterlimit="10" stroke-width="1.4"/>
      <path id="Trazado_797747" data-name="Trazado 797747" d="M40.85,20.1h5.885" transform="translate(-8.318 -4.453)" fill="none" stroke="#12263f" stroke-linecap="round" stroke-linejoin="round" stroke-miterlimit="10" stroke-width="1.4"/>
      <path id="Trazado_797748" data-name="Trazado 797748" d="M40.85,24.153H52.5" transform="translate(-8.318 -5.503)" fill="none" stroke="#12263f" stroke-linecap="round" stroke-linejoin="round" stroke-miterlimit="10" stroke-width="1.4"/>
      <path id="Trazado_797749" data-name="Trazado 797749" d="M40.85,28.206H52.5" transform="translate(-8.318 -6.554)" fill="none" stroke="#12263f" stroke-linecap="round" stroke-linejoin="round" stroke-miterlimit="10" stroke-width="1.4"/>
      <path id="Trazado_797750" data-name="Trazado 797750" d="M23.991,36.635h6.845V43.6H23.991Z" transform="translate(-3.949 -8.738)" fill="none" stroke="#12263f" stroke-linecap="round" stroke-linejoin="round" stroke-miterlimit="10" stroke-width="1.4"/>
      <path id="Trazado_797751" data-name="Trazado 797751" d="M27.558,39.218l.961.961,5.164-5.164" transform="translate(-4.873 -8.318)" fill="none" stroke="#12263f" stroke-linecap="round" stroke-linejoin="round" stroke-miterlimit="10" stroke-width="1.4"/>
      <path id="Trazado_797752" data-name="Trazado 797752" d="M40.85,37.122h5.885" transform="translate(-8.318 -8.864)" fill="none" stroke="#12263f" stroke-linecap="round" stroke-linejoin="round" stroke-miterlimit="10" stroke-width="1.4"/>
      <path id="Trazado_797753" data-name="Trazado 797753" d="M23.991,53.656h6.845v6.965H23.991Z" transform="translate(-3.949 -13.149)" fill="none" stroke="#12263f" stroke-linecap="round" stroke-linejoin="round" stroke-miterlimit="10" stroke-width="1.4"/>
      <path id="Trazado_797754" data-name="Trazado 797754" d="M27.558,56.238l.961.961,5.164-5.164" transform="translate(-4.873 -12.729)" fill="none" stroke="#12263f" stroke-linecap="round" stroke-linejoin="round" stroke-miterlimit="10" stroke-width="1.4"/>
      <path id="Trazado_797755" data-name="Trazado 797755" d="M48.339,64.17a2.045,2.045,0,0,1-2.642,1.2l-6.605-2.4a2.052,2.052,0,1,1,1.441-3.843l6.605,2.4A2.033,2.033,0,0,1,48.339,64.17Z" transform="translate(-7.52 -14.536)" fill="none" stroke="#12263f" stroke-linecap="round" stroke-linejoin="round" stroke-miterlimit="10" stroke-width="1.4"/>
      <path id="Trazado_797756" data-name="Trazado 797756" d="M54.175,48.446a2.045,2.045,0,0,1-2.642,1.2l-6.605-2.4A2.052,2.052,0,0,1,46.369,43.4l6.605,2.4A2.045,2.045,0,0,1,54.175,48.446Z" transform="translate(-9.033 -10.461)" fill="none" stroke="#12263f" stroke-linecap="round" stroke-linejoin="round" stroke-miterlimit="10" stroke-width="1.4"/>
      <path id="Trazado_797757" data-name="Trazado 797757" d="M0,0H8.407V7.566H0Z" transform="translate(32.803 44.555) rotate(-69.88)" fill="none" stroke="#12263f" stroke-linecap="round" stroke-linejoin="round" stroke-miterlimit="10" stroke-width="1.4"/>
      <path id="Trazado_797758" data-name="Trazado 797758" d="M53.116,55.277,52.035,58.4l10.928,5.284a2.747,2.747,0,0,0,3.843-1.561A2.874,2.874,0,0,0,64.885,58.4Z" transform="translate(-11.217 -13.569)" fill="none" stroke="#12263f" stroke-linecap="round" stroke-linejoin="round" stroke-miterlimit="10" stroke-width="1.4"/>
      <path id="Trazado_797759" data-name="Trazado 797759" d="M31.076,11.834H27.233" transform="translate(-4.789 -2.311)" fill="none" stroke="#12263f" stroke-linecap="round" stroke-linejoin="round" stroke-miterlimit="10" stroke-width="1.4"/>
      <path id="Trazado_797760" data-name="Trazado 797760" d="M24.021,11.834h-.841" transform="translate(-3.739 -2.311)" fill="none" stroke="#12263f" stroke-linecap="round" stroke-linejoin="round" stroke-miterlimit="10" stroke-width="1.4"/>
      <path id="Trazado_797761" data-name="Trazado 797761" d="M49.928,46.686l1.561.6" transform="translate(-10.671 -11.343)" fill="none" stroke="#12263f" stroke-linecap="round" stroke-linejoin="round" stroke-miterlimit="10" stroke-width="1.4"/>
      <path id="Trazado_797762" data-name="Trazado 797762" d="M47.172,45.713l.48.24" transform="translate(-9.956 -11.091)" fill="none" stroke="#12263f" stroke-linecap="round" stroke-linejoin="round" stroke-miterlimit="10" stroke-width="1.4"/>
    </g>
  </g>
</svg>
