<svg xmlns="http://www.w3.org/2000/svg" xmlns:xlink="http://www.w3.org/1999/xlink" width="76.999" height="76.999" viewBox="0 0 76.999 76.999">
  <defs>
    <clipPath id="clip-path">
      <path id="Trazado_797709" data-name="Trazado 797709" d="M38.5,0A38.5,38.5,0,1,1,1.476,49.095,37.971,37.971,0,0,1,0,38.5,38.5,38.5,0,0,1,38.5,0Z" transform="translate(331.001 1539)" fill="#59bee2"/>
    </clipPath>
  </defs>
  <g id="Grupo_1064239" data-name="Grupo 1064239" transform="translate(-331.001 -1539)">
    <g id="Enmascarar_grupo_1064345" data-name="Enmascarar grupo 1064345" clip-path="url(#clip-path)">
      <g id="reunion" transform="translate(335.707 1542.783)">
        <path id="Trazado_797698" data-name="Trazado 797698" d="M19.563,45.167a.857.857,0,0,1-.181-.018.9.9,0,0,1-.708-1.062L21.563,29.74a.9.9,0,0,1,.885-.722h28.6a.9.9,0,0,1,.885.722L54.82,44.078a.9.9,0,0,1-1.77.357L50.308,30.82H23.191L20.447,44.442A.9.9,0,0,1,19.563,45.167Z" transform="translate(-2.952 -3.886)" fill="#12263f"/>
        <path id="Trazado_797699" data-name="Trazado 797699" d="M28.434,66.624H15.4a.9.9,0,0,1-.886-1.083l2.135-10.573a.9.9,0,0,1,1.77.361l-1.92,9.49H28.434a.9.9,0,0,1,0,1.805Z" transform="translate(-2.206 -8.411)" fill="#12263f"/>
        <path id="Trazado_797700" data-name="Trazado 797700" d="M62.762,66.623H49.721a.9.9,0,1,1,0-1.805H61.659l-1.917-9.491a.9.9,0,1,1,1.77-.361l2.136,10.576a.9.9,0,0,1-.886,1.083Z" transform="translate(-8.363 -8.411)" fill="#12263f"/>
        <path id="Trazado_797701" data-name="Trazado 797701" d="M47.237,29.516a.9.9,0,0,1-.9-.9V28.29a4.745,4.745,0,0,0-4.743-4.735H35.646A4.745,4.745,0,0,0,30.9,28.29v.324a.9.9,0,1,1-1.805,0V28.29a6.552,6.552,0,0,1,6.549-6.541h5.945a6.552,6.552,0,0,1,6.549,6.541v.324A.9.9,0,0,1,47.237,29.516Z" transform="translate(-4.825 -2.582)" fill="#12263f"/>
        <path id="Trazado_797702" data-name="Trazado 797702" d="M39.583,17.568a5.105,5.105,0,1,1,5.105-5.105A5.105,5.105,0,0,1,39.583,17.568Zm0-8.406a3.3,3.3,0,1,0,3.3,3.3,3.3,3.3,0,0,0-3.3-3.3Z" transform="translate(-5.79)" fill="#12263f"/>
        <path id="Trazado_797703" data-name="Trazado 797703" d="M18.869,54.468H3.1a.9.9,0,0,1-.9-.9V51.473a6.073,6.073,0,0,1,6.066-6.066h5.44a6.073,6.073,0,0,1,6.066,6.066v2.1A.9.9,0,0,1,18.869,54.468ZM4.005,52.663H17.967v-1.19a4.265,4.265,0,0,0-4.261-4.261H8.266a4.265,4.265,0,0,0-4.261,4.261Z" transform="translate(0 -6.826)" fill="#12263f"/>
        <path id="Trazado_797704" data-name="Trazado 797704" d="M11.868,41.735a4.749,4.749,0,1,1,4.749-4.749A4.749,4.749,0,0,1,11.868,41.735Zm0-7.692a2.944,2.944,0,1,0,2.944,2.944,2.944,2.944,0,0,0-2.944-2.944Z" transform="translate(-0.882 -4.463)" fill="#12263f"/>
        <path id="Trazado_797705" data-name="Trazado 797705" d="M74.455,54.468H58.688a.9.9,0,0,1-.9-.9V51.473a6.073,6.073,0,0,1,6.066-6.066h5.44a6.073,6.073,0,0,1,6.066,6.066v2.1A.9.9,0,0,1,74.455,54.468ZM59.591,52.663H73.552v-1.19a4.265,4.265,0,0,0-4.261-4.261h-5.44a4.265,4.265,0,0,0-4.261,4.261Z" transform="translate(-9.972 -6.826)" fill="#12263f"/>
        <path id="Trazado_797706" data-name="Trazado 797706" d="M67.454,41.735A4.749,4.749,0,1,1,72.2,36.986,4.749,4.749,0,0,1,67.454,41.735Zm0-7.692A2.944,2.944,0,1,0,70.4,36.986a2.944,2.944,0,0,0-2.943-2.943Z" transform="translate(-10.854 -4.463)" fill="#12263f"/>
        <path id="Trazado_797707" data-name="Trazado 797707" d="M46.662,72.057H30.9a.9.9,0,0,1-.9-.9v-2.1a6.071,6.071,0,0,1,6.065-6.065H41.5a6.071,6.071,0,0,1,6.065,6.065v2.1A.9.9,0,0,1,46.662,72.057ZM31.8,70.251H45.759V69.059A4.264,4.264,0,0,0,41.5,64.8H36.058a4.264,4.264,0,0,0-4.26,4.26Z" transform="translate(-4.986 -9.981)" fill="#12263f"/>
        <path id="Trazado_797708" data-name="Trazado 797708" d="M39.661,59.324a4.749,4.749,0,1,1,4.749-4.749,4.749,4.749,0,0,1-4.749,4.749Zm0-7.69A2.944,2.944,0,1,0,42.6,54.578a2.944,2.944,0,0,0-2.944-2.944Z" transform="translate(-5.868 -7.619)" fill="#12263f"/>
      </g>
    </g>
  </g>
</svg>
