<svg xmlns="http://www.w3.org/2000/svg" xmlns:xlink="http://www.w3.org/1999/xlink" width="76.999" height="76.999" viewBox="0 0 76.999 76.999">
  <defs>
    <clipPath id="clip-path">
      <circle id="Elipse_8294" data-name="Elipse 8294" cx="38.5" cy="38.5" r="38.5" transform="translate(331 1539)" fill="#fff"/>
    </clipPath>
  </defs>
  <g id="Enmascarar_grupo_1064346" data-name="Enmascarar grupo 1064346" transform="translate(-331 -1539)" clip-path="url(#clip-path)">
    <g id="trabajo-en-equipo" transform="translate(340.929 1548.77)">
      <g id="Grupo_1064643" data-name="Grupo 1064643" transform="translate(25.684 37.779)">
        <g id="Grupo_1064642" data-name="Grupo 1064642">
          <path id="Trazado_797710" data-name="Trazado 797710" d="M35.563,50.695a.953.953,0,0,0,0,1.906,2.86,2.86,0,0,1,2.86,2.86.953.953,0,1,0,1.906,0A4.772,4.772,0,0,0,35.563,50.695Z" transform="translate(-34.61 -50.695)" fill="#12263f"/>
        </g>
      </g>
      <g id="Grupo_1064645" data-name="Grupo 1064645" transform="translate(0 0.614)">
        <g id="Grupo_1064644" data-name="Grupo 1064644">
          <path id="Trazado_797711" data-name="Trazado 797711" d="M56.863,12.342h0L45.4.882a.981.981,0,0,0-1.348,0L38.662,6.275a.953.953,0,0,0,0,1.348l.674.674-.46.461a10.867,10.867,0,0,0-5.719,3.02l-2.927,2.933L28.589,13.07A10.093,10.093,0,0,0,21.4,10.1H18.872L17.8,9.027l.674-.674a.953.953,0,0,0,0-1.348l-5.393-5.4a.953.953,0,0,0-1.348,0L.279,13.067a.953.953,0,0,0,0,1.348l5.392,5.393a.953.953,0,0,0,1.348,0l.674-.674.461.461a10.884,10.884,0,0,0,3.02,5.719L18.058,32.2v4.631a10.086,10.086,0,0,0,2.976,7.183l1.79,1.791v1.512h-.953a.953.953,0,0,0-.953.953v7.626a.953.953,0,0,0,.953.953H38.076a.953.953,0,0,0,.953-.953V48.265a.953.953,0,0,0-.953-.953h-.953V46.66a10.885,10.885,0,0,0,1.906-6.177V34.716a2.8,2.8,0,0,0,1.644-.8L45.4,29.192a10.225,10.225,0,0,0,2.976-7.183V19.477l1.069-1.07.674.675a.953.953,0,0,0,1.348,0l5.393-5.393A.953.953,0,0,0,56.863,12.342ZM7.019,17.112l-.674.674L2.3,13.741l10.11-10.11,4.045,4.045-.673.673Zm5.5,6.851a8.99,8.99,0,0,1-2.538-4.979.953.953,0,0,0-.268-.524l-.674-.674,3.707-3.707,3.707-3.707L17.8,11.72a.953.953,0,0,0,.674.279H21.4a8.2,8.2,0,0,1,5.836,2.416l1.641,1.641L27.532,17.4l-1.641-1.641a.954.954,0,1,0-1.352,1.348l1.641,1.641-3.71,3.71a2.819,2.819,0,0,0-.829,2.018A2.875,2.875,0,0,0,23.379,27.1a2.776,2.776,0,0,0-.328,2l-2.927-2.927A.953.953,0,0,0,18.752,27.5l.023.023,3.732,3.732a.928.928,0,0,1,.272.667.963.963,0,0,1-.959.953.819.819,0,0,1-.662-.271Zm24.6,30.975h-14.3V49.218h14.3Zm0-14.455A8.99,8.99,0,0,1,35.4,45.8a.953.953,0,0,0-.181.56v.953H24.731V45.405a.953.953,0,0,0-.279-.674l-2.069-2.07a8.2,8.2,0,0,1-2.417-5.835V34.075a2.842,2.842,0,0,0,1.853.706h.015a2.874,2.874,0,0,0,2.86-2.86,2.813,2.813,0,0,0-.153-.885,2.821,2.821,0,0,0,1.168.324,2.86,2.86,0,0,0,2.693,2.7,2.868,2.868,0,0,0,2.842,2.711h.01a2.814,2.814,0,0,0,2.008-.83l2.829-2.834a2.88,2.88,0,0,0,1.034,1.181Zm9.628-22.075a.953.953,0,0,0-.279.674v2.927a8.309,8.309,0,0,1-2.417,5.835l-4.729,4.729a.926.926,0,0,1-.659.272.963.963,0,0,1-.953-.953.928.928,0,0,1,.271-.667l.006-.006,4.724-4.723a.953.953,0,0,0-1.348-1.348L38,28.517,36.643,29.87l-4.723,4.723a.927.927,0,0,1-.66.272.964.964,0,0,1-.953-.953.929.929,0,0,1,.273-.667l6.077-6.077a.953.953,0,0,0-1.348-1.348L29.231,31.9a.926.926,0,0,1-.659.272.965.965,0,0,1-.953-.953.925.925,0,0,1,.272-.667l6.078-6.077a.953.953,0,0,0-1.349-1.348l-6.1,6.077a.921.921,0,0,1-.658.271h-.006a.963.963,0,0,1-.953-.953.936.936,0,0,1,.272-.662l6.077-6.078A.954.954,0,1,0,29.9,20.43l-4.107,4.107-.621.622a.929.929,0,0,1-.659.272.963.963,0,0,1-.953-.953.924.924,0,0,1,.271-.667L34.518,13.125A8.993,8.993,0,0,1,39.5,10.585a.953.953,0,0,0,.524-.268l.674-.674,7.415,7.415Zm4.044-1.348L40.684,6.949,44.729,2.9,54.84,13.015Z" transform="translate(0 -0.614)" fill="#12263f"/>
        </g>
      </g>
    </g>
  </g>
</svg>
