<svg xmlns="http://www.w3.org/2000/svg" xmlns:xlink="http://www.w3.org/1999/xlink" width="400" height="281.579" viewBox="0 0 400 281.579">
  <defs>
    <clipPath id="clip-path">
      <rect id="Rectángulo_373763" data-name="Rectángulo 373763" width="382.572" height="250.181" fill="none"/>
    </clipPath>
    <clipPath id="clip-path-3">
      <rect id="Rectángulo_373748" data-name="Rectángulo 373748" width="4.198" height="2.656" fill="none"/>
    </clipPath>
    <clipPath id="clip-path-4">
      <rect id="Rectángulo_373749" data-name="Rectángulo 373749" width="0.061" height="2.279" fill="none"/>
    </clipPath>
    <clipPath id="clip-path-8">
      <rect id="Rectángulo_373753" data-name="Rectángulo 373753" width="16.971" height="21.447" fill="none"/>
    </clipPath>
    <clipPath id="clip-path-9">
      <rect id="Rectángulo_373754" data-name="Rectángulo 373754" width="67.319" height="22.406" fill="none"/>
    </clipPath>
    <clipPath id="clip-path-10">
      <rect id="Rectángulo_373755" data-name="Rectángulo 373755" width="5.26" height="24.831" fill="none"/>
    </clipPath>
    <clipPath id="clip-path-11">
      <rect id="Rectángulo_373756" data-name="Rectángulo 373756" width="70.26" height="27.356" fill="none"/>
    </clipPath>
    <clipPath id="clip-path-12">
      <rect id="Rectángulo_373757" data-name="Rectángulo 373757" width="5.093" height="22.348" fill="none"/>
    </clipPath>
    <clipPath id="clip-path-13">
      <rect id="Rectángulo_373758" data-name="Rectángulo 373758" width="45.544" height="51.164" fill="none"/>
    </clipPath>
    <clipPath id="clip-path-14">
      <rect id="Rectángulo_373759" data-name="Rectángulo 373759" width="6.784" height="23.942" fill="none"/>
    </clipPath>
    <clipPath id="clip-path-15">
      <rect id="Rectángulo_373760" data-name="Rectángulo 373760" width="9.746" height="44.928" fill="none"/>
    </clipPath>
    <clipPath id="clip-path-16">
      <rect id="Rectángulo_373761" data-name="Rectángulo 373761" width="39.86" height="7.841" fill="none"/>
    </clipPath>
  </defs>
  <g id="Grupo_1065488" data-name="Grupo 1065488" transform="translate(-180 -9072.002)">
    <path id="Unión_12" data-name="Unión 12" d="M41,237.618a41,41,0,0,1-41-41V70.127a41,41,0,0,1,41-41H359A41.04,41.04,0,0,1,369.927,30.6L400,0V196.618a41,41,0,0,1-41,41Z" transform="translate(580 9309.621) rotate(180)" fill="#f3f9ff"/>
    <g id="Grupo_1064692" data-name="Grupo 1064692" transform="translate(197.428 9103.4)">
      <g id="Grupo_1064691" data-name="Grupo 1064691" clip-path="url(#clip-path)">
        <g id="Grupo_1064657" data-name="Grupo 1064657">
          <g id="Grupo_1064656" data-name="Grupo 1064656" clip-path="url(#clip-path)">
            <path id="Trazado_797767" data-name="Trazado 797767" d="M359.184,99.938c-.942-2.127-1.154-4.481-1.777-6.714a4.445,4.445,0,0,0-2.02-3.007,17.935,17.935,0,0,0-2.416-.547c-2.841-.851-3.615-4.816-6.3-6.046a9.127,9.127,0,0,0-2.7-.562c-3.6-.425-7.322-1.671-9.585-4.5a17.634,17.634,0,0,0-2.218-2.735,2.655,2.655,0,0,0-3.251-.3c.759,1.518,1.5,3.038,2.248,4.542a11.957,11.957,0,0,0,2.521,3.782,4.071,4.071,0,0,0,4.239.912,2.8,2.8,0,0,1,1.428-.5,1.542,1.542,0,0,1,.927.592c1.959,2.172,1.322,5.772-.592,7.99-1.9,2.2-4.724,3.357-7.443,4.435a5.77,5.77,0,0,1-3.038.592c-1.884-.35-2.886-2.4-3.433-4.238-1.231-4.071-1.823-8.492-4.345-11.924a14.942,14.942,0,0,1-2.293-3.327c-.517-1.367-.4-2.962-1.216-4.162-.851-1.261-2.658-1.99-2.78-3.509a2.77,2.77,0,0,1,1.777-2.461c.972-.471,2.066-.608,3.069-1.018.4-.167.835-.456.85-.881,0-.638-.881-.9-1.109-1.488-.243-.669.441-1.292.729-1.945.622-1.488-.927-2.992-2.431-3.6-1.488-.607-3.3-1.048-4-2.507a8.668,8.668,0,0,1-.486-2.172,4.753,4.753,0,0,0-3.554-3.919c-1.869-.3-3.935,1.352-3.631,3.205a13.185,13.185,0,0,0,1.352,2.749c.425.942.3,2.339-.669,2.643-1.595.486-3.129-2.431-4.466-1.428.547,1.869,1.078,3.737,1.626,5.62-2.1,1.063-4.6-.866-5.5-3.053s-.927-4.664-1.989-6.76-3.935-3.676-5.758-2.187c-.091,2.7,3.479,3.8,5.058,5.985,1.139,1.58.972,4.147-.714,5.15-1.671,1-4.329-.744-3.691-2.582.228-.638.759-1.169.82-1.853.061-.851-.654-1.535-1.307-2.082-1.018-.866-2.036-1.716-3.053-2.567a6.426,6.426,0,0,0-2.173-1.367c-2.1-.607-4.192,1.094-5.3,2.962-1.109,1.884-1.731,4.086-3.266,5.651-2.2,2.279-6.38,2.416-8.445.031-2.082-2.385-1.019-6.851,2.035-7.717,1.154-.319,2.613-.288,3.22-1.306,1.063-1.808-1.975-4.117-.926-5.94.8-1.4,2.931-.759,4.48-1.23,1.534-.471,2.4-2.02,3.312-3.357.9-1.322,2.309-2.658,3.889-2.309a4.863,4.863,0,0,1,.167-2.764,1.691,1.691,0,0,1,2.324-.851c-.774,1.276.152,3.053,1.5,3.691a8.2,8.2,0,0,0,4.42.319c1.489-.182,3.357-.729,3.478-2.218.046-.486-.137-1,.046-1.458.653-1.777,3.934.669,5.195-.759.729-.744-.076-2.066-1.094-2.309a11.14,11.14,0,0,0-3.084.152c-1.033.046-2.294-.5-2.339-1.534s1.094-1.747,1.216-2.75c.2-1.7-2.689-2.142-3.707-.76-1,1.382-.653,3.282-.349,4.967.319,1.686.471,3.676-.775,4.861-.532.8-1.914.38-2.37-.471a6.867,6.867,0,0,1-.441-2.841,2.447,2.447,0,0,0-1.443-2.324,5.149,5.149,0,0,0-2.02.228c-2.643.319-4.482-3.1-3.646-5.62.82-2.537,3.22-4.162,5.545-5.453,1.7-.942,3.812-1.823,5.5-.866.79.44,1.337,1.2,2.112,1.656,1.337.79,2.992.5,4.527.531a10.546,10.546,0,0,1,6.608,2.567c.684.623,1.322,1.656.79,2.4-.577.79-2.233.957-1.945,1.883a3.294,3.294,0,0,0,4.132-2.658,2.765,2.765,0,0,1,1.6,2.248,4.918,4.918,0,0,1,7.216.592,6.226,6.226,0,0,0,1.337,1.717c.608.395,1.671.2,1.747-.517a1.454,1.454,0,0,0-.122-.668c-.365-1.033-.744-2.051-1.109-3.069,1.413-.76,3.084.425,4.041,1.7,3.554,4.755,6.092,1.9,11.1,2.673,3.388.516,4.876,2.688,6.79,5.317,5.863,8.081,13.611,14.7,18.943,23.15.562.881,1.078,1.777,1.564,2.688-.091-.228-.167-.455-.258-.683A93.611,93.611,0,0,0,354.338,46q-.98-1.595-2.005-3.144c-.425-.638-.866-1.291-1.306-1.914-.562-.82-1.154-1.61-1.747-2.4-.471-.638-.942-1.261-1.428-1.869-.333-.425-.683-.85-1.032-1.276-.365-.486-.76-.957-1.186-1.428l-1.276-1.473a5.62,5.62,0,0,0-.41-.456c-.441-.516-.912-1.017-1.382-1.519a.435.435,0,0,0-.137-.152c-.121-.137-.258-.273-.4-.41-.38-.425-.79-.835-1.185-1.246-.653-.668-1.322-1.336-2-1.975-.562-.562-1.139-1.093-1.732-1.625-.516-.471-1.033-.942-1.565-1.4-.516-.456-1.033-.9-1.565-1.337-.638-.547-1.291-1.079-1.96-1.611h-.015q-2.757-2.21-5.681-4.177c-.486-.335-.957-.654-1.443-.972-.486-.335-.987-.639-1.473-.942-.5-.3-.987-.623-1.488-.912-.5-.319-1-.608-1.5-.9-.41-.242-.8-.471-1.215-.683a6.507,6.507,0,0,0-.623-.35c-.865-.486-1.747-.957-2.628-1.4-.44-.228-.881-.456-1.337-.669-.562-.288-1.139-.562-1.716-.82a1.365,1.365,0,0,0-.258-.121c-.516-.243-1.033-.486-1.565-.714-.745-.319-1.488-.638-2.233-.942-.85-.35-1.7-.7-2.567-1.018-.957-.365-1.914-.714-2.886-1.033-.972-.334-1.96-.653-2.947-.957s-1.975-.577-2.978-.85c-1.974-.532-3.98-1-6-1.413-.03-.015-.076-.015-.106-.03-.775-.152-1.55-.3-2.324-.425a.647.647,0,0,0-.152-.031c-.335-.061-.684-.122-1.033-.167-1.443-.243-2.9-.44-4.375-.608-.167-.03-.35-.046-.532-.061-.425-.061-.85-.091-1.291-.137-.972-.092-1.944-.167-2.932-.228-1.017-.076-2.05-.122-3.083-.152C274.558.015,273.479,0,272.4,0q-4.284,0-8.476.38c-.669.046-1.322.107-1.975.182-.684.076-1.367.152-2.05.243s-1.368.182-2.036.288c-.684.106-1.352.212-2.035.334-.578.091-1.17.2-1.747.319q-2.142.41-4.238.912-.98.228-1.959.5c-.654.167-1.307.349-1.945.532-1.079.3-2.127.638-3.175.972h-.016c-.85.288-1.716.577-2.552.866a.111.111,0,0,0-.061.03c-.867.3-1.7.623-2.552.957l-.136.046c-.775.3-1.55.623-2.309.942-.957.4-1.9.82-2.826,1.246-.79.365-1.565.729-2.324,1.109-.82.41-1.64.82-2.445,1.246l-.091.046c-.775.41-1.55.835-2.309,1.276-.79.44-1.565.9-2.339,1.383h-.016c-.729.44-1.442.88-2.157,1.336-.273.167-.531.35-.8.532-.76.486-1.49.987-2.234,1.5-.911.623-1.792,1.276-2.673,1.93-.775.577-1.534,1.169-2.278,1.762A95.57,95.57,0,0,0,200.7,32.189c-1.291,1.428-2.506,2.886-3.692,4.375-1,1.276-1.974,2.567-2.9,3.9q-1.253,1.743-2.417,3.551,1.164-1.806,2.417-3.551c.243-.031.486-.061.729-.076a11.22,11.22,0,0,0,4.041-.653,24.019,24.019,0,0,0,2.977-2.309c2.644-1.884,6.973-2.233,7.687-5.393.243-1.063-.046-2.218.35-3.235.744-1.9,3.28-2.172,5.316-2.142.865,0,1.884.121,2.279.881A2.171,2.171,0,0,1,217.4,29.3a16.512,16.512,0,0,1-6.972,8.567c-2.643,1.611-6.092,2.856-6.82,5.864.365,1.018,2.217.942,2.369,2,.106.851-.987,1.292-1.382,2.051-.577,1.109.745,2.461,2.005,2.4a5.55,5.55,0,0,0,3.235-1.823c2.765-2.567,5.666-5.332,6.669-8.977.425-1.5.577-3.267,1.792-4.269a2.97,2.97,0,0,1,4.512,1.443c1.2-.668,3.068-1.169,3.691.076a6.4,6.4,0,0,1,.258,1.428c.4,1.944,3.054,2.825,3.327,4.785.32,2.263-2.582,3.433-4.846,3.782-2.051.319-4.1.638-6.152.972a5.689,5.689,0,0,0-2.552.82,1.99,1.99,0,0,0-.759,2.385,5.988,5.988,0,0,0,1.063,1.094c1.7,1.7.3,5.21-2.1,5.286-.821.03-1.626-.273-2.446-.3-2.431-.106-4.36,2.035-5.514,4.177s-2.02,4.588-3.965,6.046c-3.129,2.354-8.522,1.808-10.041,5.423-.608,1.458-.289,3.1-.046,4.664.243,1.55.35,3.281-.562,4.572-.9,1.276-3.235,1.549-3.9.122a3.5,3.5,0,0,1-.091-2.02c.364-2.248.714-4.5,1.063-6.745.257-1.671.485-3.539-.5-4.907-1.382-1.914-4.481-1.731-6.274-.2-1.776,1.535-2.521,3.935-3.022,6.228A27.057,27.057,0,0,1,177.7,80.3h0c-.318,1.884-.577,3.8-.774,5.727-.2,1.975-.335,3.935-.411,5.94a8.291,8.291,0,0,0,.775-.729c.957-.988,2.886-5.165,4.617-3.114a1.551,1.551,0,0,1,.031,1.9c-.531.683-1.6.835-2,1.579-.5.882.2,1.975,1.018,2.552a8.878,8.878,0,0,1,2.4,1.792c1.109,1.6.046,4.01,1.124,5.636.927,1.4,2.9,1.488,4.588,1.671.2.031.38.061.577.091.471-3.342,2.035-6.061,6.592-7.094,6.29-1.428,14.553,3.782,18.092,8.522,3.95,5.3,5.818,12.805,11.864,15.464,4.33,1.9,10.481,1.216,12.594,5.454,1.883,3.8-1.4,8.066-1.9,12.274-.319,2.78.592,5.544.8,8.324s-.623,6.046-3.159,7.216c-1.412.638-3.19.562-4.329,1.625-2.02,1.914-.365,5.864-2.385,7.777a10.337,10.337,0,0,1-2.567,1.352c-4.542,2.294-4.42,8.977-2.309,13.61.076.167.152.32.228.486a95.969,95.969,0,0,0,49.232,13.6,95.528,95.528,0,0,0,45.04-11.211h.015a96.06,96.06,0,0,0,8.492-5.119,94.716,94.716,0,0,0,11.924-9.479,93.327,93.327,0,0,0,7.291-7.611c1.611-1.853,3.129-3.782,4.588-5.757.744-1.018,1.473-2.035,2.157-3.084a94.332,94.332,0,0,0,11.94-24.563,93.277,93.277,0,0,0,3.661-16.269c.289-2.157.516-4.345.669-6.547a5.525,5.525,0,0,1-3.858,1.716c-2.309-.03-4.208-1.96-5.135-4.086" transform="translate(-78.407 0)" fill="#f5f5f5"/>
            <path id="Trazado_797768" data-name="Trazado 797768" d="M298.523,26.71c-1.9,1.137-2.914,3.283-4.38,4.943s-4.1,2.844-5.831,1.462a4.01,4.01,0,0,1-1.3-2.825,7.243,7.243,0,0,1,1.033-4.4c.827-1.347,2.089-2.407,2.788-3.825s.557-3.493-.877-4.157c-.776-.36-1.752-.218-2.441-.726-1.237-.912-.351-3.066,1.086-3.611s3.033-.122,4.567-.024c5.564.355,9.656-3.288,13.839-6.315,3.253-2.353,10.182-5.133,13.948-2.728,1.5.959,2.089,3.425.674,4.509-.633.485-1.507.592-2.1,1.129-.708.644-.807,1.7-1.212,2.57-1.053,2.252-4.09,3.069-5.068,5.355-.589,1.376-.323,3.088-1.231,4.278A5.257,5.257,0,0,1,308.9,23.9l-7.256,1.725a10.9,10.9,0,0,0-3.119,1.086" transform="translate(-127.449 -1.591)" fill="#ebebeb"/>
            <path id="Trazado_797769" data-name="Trazado 797769" d="M376.475,192.866c-2.407,3.627-2.844,8.16-3.512,12.461s-1.815,8.874-5.121,11.707-9.377,2.665-11.2-1.29c-.988-2.147-.481-4.678-1.019-6.98-.7-3-3.088-5.31-4.22-8.173-.965-2.442-.968-5.14-1.047-7.765-.431-14.344-3.928-29.315-13.695-39.831a9.467,9.467,0,0,0-4.265-3,5.449,5.449,0,0,0-5.6,1.933c-.784,1.038-1.189,2.362-2.149,3.239-2.087,1.906-5.731.54-7.125-1.918s-1.2-5.471-.968-8.288q.433-5.238.868-10.476c.151-1.827.356-3.788,1.555-5.174,1.7-1.971,4.762-2.064,6.848-3.627,2.735-2.048,3.1-5.956,4.823-8.906s7.122-4.2,7.92-.875c5.709-12.219,18.325,5.934,25.827,4.569,2.178-.4,4.307-1.443,6.5-1.136,3.873.541,5.872,4.808,7.19,8.49q3.281,9.167,6.561,18.333c.833,2.327,1.91,4.916,4.215,5.809,1.767.685,3.82.162,5.6.81,4.707,1.713,3.177,9.122-.611,12.4s-9.105,5.346-10.906,10.021c-1.357,3.522-.275,7.649-1.735,11.128-1.045,2.49-3.242,4.29-4.736,6.54" transform="translate(-140.537 -49.594)" fill="#ebebeb"/>
            <path id="Trazado_797770" data-name="Trazado 797770" d="M446.741,254.7c-1.548.217-3.373-.547-4.549.482a5.045,5.045,0,0,0-1.11,2.454,5.242,5.242,0,0,1-2.192,2.994,3.291,3.291,0,0,1-3.578-.064,2.422,2.422,0,0,1-.492-3.352,16.868,16.868,0,0,1,1.336-1.091c2.053-1.94.647-5.539,2.209-7.846.92-1.36,2.369-2.741,3.38-4.12.777-1.059,1.063-1.9,2.493-2.182,6.257-1.232,9.085,11.8,2.5,12.724" transform="translate(-192.931 -107.448)" fill="#ebebeb"/>
            <g id="Grupo_1064652" data-name="Grupo 1064652" transform="translate(140.563 175.695)" opacity="0.6">
              <g id="Grupo_1064651" data-name="Grupo 1064651">
                <g id="Grupo_1064650" data-name="Grupo 1064650" clip-path="url(#clip-path-3)">
                  <path id="Trazado_797771" data-name="Trazado 797771" d="M252.9,316.106q1.211.818,2.451,1.593c.577.365,1.155.714,1.747,1.063-.592-.349-1.169-.7-1.747-1.063q-1.241-.775-2.451-1.593" transform="translate(-252.897 -316.106)" fill="#263238"/>
                </g>
              </g>
            </g>
            <g id="Grupo_1064655" data-name="Grupo 1064655" transform="translate(98.05 91.964)" opacity="0.6">
              <g id="Grupo_1064654" data-name="Grupo 1064654">
                <g id="Grupo_1064653" data-name="Grupo 1064653" clip-path="url(#clip-path-4)">
                  <path id="Trazado_797772" data-name="Trazado 797772" d="M176.471,165.473v0c-.015.182-.031.349-.031.531-.023.57-.021,1.153-.03,1.732.009-.579.007-1.162.03-1.732,0-.182.016-.349.031-.531" transform="translate(-176.409 -165.458)" fill="#263238"/>
                </g>
              </g>
            </g>
            <path id="Trazado_797773" data-name="Trazado 797773" d="M188.923,200.15c-.3-2.75.608-5.5.653-8.279.031-1.914-.106-3.935-.137-5.864a26.434,26.434,0,0,1-4.876-.683,1.461,1.461,0,0,1-.9-.456,1.778,1.778,0,0,1-.2-1.018c-.122-2.157-2.2-3.584-4.071-4.663a16.276,16.276,0,0,0-2.962-1.458c0,.228,0,.441.015.669a95.653,95.653,0,0,0,6.107,30.457,91.9,91.9,0,0,0,5.864,12.578c.942,1.747,1.974,3.463,3.053,5.149,1.337,2.082,2.734,4.117,4.238,6.077,1.4,1.884,2.886,3.722,4.451,5.484a95.083,95.083,0,0,0,6.79,6.988q3.167,2.962,6.608,5.62c-5.241-14.066-10.178-28.421-19.14-40.391-2.354-3.13-5.058-6.32-5.5-10.208" transform="translate(-78.371 -78.945)" fill="#ebebeb"/>
            <path id="Trazado_797774" data-name="Trazado 797774" d="M189.568,173.317c-.2-.03-.38-.061-.577-.091-1.686-.182-3.661-.273-4.587-1.671-1.078-1.625-.016-4.04-1.124-5.635a8.86,8.86,0,0,0-2.4-1.792c-.82-.577-1.519-1.671-1.018-2.552.41-.744,1.473-.9,2.005-1.58a1.551,1.551,0,0,0-.031-1.9c-1.732-2.051-3.661,2.127-4.618,3.114a8.362,8.362,0,0,1-.775.729v.015c-.015.182-.031.349-.031.531-.023.57-.021,1.153-.031,1.732s-.03,1.154-.03,1.732c0,.471-.008.446,0,.915s.03,1.431.046,1.895a16.231,16.231,0,0,1,2.962,1.458c1.869,1.079,3.95,2.507,4.071,4.664a1.778,1.778,0,0,0,.2,1.018,1.46,1.46,0,0,0,.9.456,26.4,26.4,0,0,0,4.876.684" transform="translate(-78.332 -69.976)" fill="#ebebeb"/>
            <path id="Trazado_797775" data-name="Trazado 797775" d="M199.369,183.789c.031,1.929.167,3.95.137,5.863-.046,2.78-.957,5.53-.653,8.279.441,3.888,3.144,7.078,5.5,10.208,8.962,11.97,13.9,26.325,19.14,40.391h.015c.972.775,1.96,1.5,2.962,2.218q1.185.855,2.394,1.673t2.452,1.593c.577.365,1.154.714,1.747,1.063-.076-.167-.152-.319-.228-.486-2.112-4.633-2.233-11.317,2.309-13.611a10.366,10.366,0,0,0,2.567-1.352c2.02-1.914.365-5.863,2.385-7.777,1.139-1.063,2.917-.987,4.329-1.625,2.537-1.169,3.357-4.42,3.159-7.216s-1.124-5.545-.8-8.324c.5-4.208,3.782-8.476,1.9-12.274-2.112-4.238-8.263-3.554-12.593-5.454-6.046-2.658-7.914-10.162-11.864-15.464-3.539-4.739-11.8-9.95-18.092-8.522-4.557,1.033-6.122,3.752-6.592,7.094" transform="translate(-88.3 -76.726)" fill="#ebebeb"/>
            <path id="Trazado_797776" data-name="Trazado 797776" d="M183.405,89.327c1.793-1.534,4.892-1.717,6.274.2.987,1.367.759,3.235.5,4.907-.35,2.248-.7,4.5-1.063,6.745a3.51,3.51,0,0,0,.091,2.02c.669,1.427,3.008,1.154,3.9-.122.912-1.291.805-3.023.562-4.573s-.562-3.2.046-4.663c1.519-3.615,6.911-3.069,10.041-5.423,1.944-1.458,2.81-3.9,3.965-6.046s3.084-4.284,5.514-4.177c.82.031,1.625.334,2.446.3,2.4-.076,3.8-3.586,2.1-5.286a6.008,6.008,0,0,1-1.063-1.094,1.992,1.992,0,0,1,.759-2.385,5.685,5.685,0,0,1,2.552-.82c2.05-.334,4.1-.653,6.152-.972,2.264-.35,5.165-1.519,4.846-3.782-.273-1.96-2.932-2.841-3.327-4.785a6.4,6.4,0,0,0-.258-1.428c-.623-1.246-2.491-.744-3.691-.076a2.97,2.97,0,0,0-4.512-1.443c-1.215,1-1.367,2.765-1.792,4.269-1,3.646-3.9,6.41-6.669,8.977a5.55,5.55,0,0,1-3.236,1.823c-1.261.061-2.582-1.291-2-2.4.395-.76,1.488-1.2,1.382-2.051-.152-1.063-2-.987-2.369-2.005.729-3.007,4.177-4.253,6.82-5.863a16.511,16.511,0,0,0,6.973-8.567,2.173,2.173,0,0,0,.091-1.762c-.4-.759-1.413-.88-2.279-.88-2.035-.031-4.572.243-5.316,2.142-.4,1.018-.106,2.172-.35,3.235-.714,3.16-5.043,3.509-7.686,5.393a24.04,24.04,0,0,1-2.977,2.309,11.218,11.218,0,0,1-4.041.653c-.243.015-.486.046-.729.076q-1.252,1.743-2.417,3.551t-2.247,3.665a95.031,95.031,0,0,0-8.324,18.563q-1.116,3.406-1.971,6.923t-1.447,7.128a27.065,27.065,0,0,0,1.732-6.046c.5-2.294,1.246-4.694,3.023-6.228" transform="translate(-79.355 -21.304)" fill="#ebebeb"/>
            <path id="Trazado_797777" data-name="Trazado 797777" d="M441.125,118.121s-2.416,1.762-3.858,1.731c-2.309-.03-4.208-1.959-5.135-4.086s-1.154-4.482-1.777-6.714a4.448,4.448,0,0,0-2.02-3.008,18.114,18.114,0,0,0-2.415-.547c-2.841-.85-3.616-4.815-6.3-6.046a9.146,9.146,0,0,0-2.7-.562c-3.6-.425-7.322-1.671-9.586-4.5a17.6,17.6,0,0,0-2.218-2.734,2.654,2.654,0,0,0-3.251-.3c.759,1.519,1.5,3.038,2.248,4.542a11.961,11.961,0,0,0,2.522,3.782,4.069,4.069,0,0,0,4.238.912,2.791,2.791,0,0,1,1.428-.5,1.542,1.542,0,0,1,.927.592c1.959,2.172,1.322,5.772-.592,7.99-1.9,2.2-4.724,3.357-7.443,4.435a5.774,5.774,0,0,1-3.038.592c-1.884-.35-2.886-2.4-3.433-4.238-1.231-4.071-1.823-8.492-4.345-11.925a14.928,14.928,0,0,1-2.293-3.327c-.517-1.367-.4-2.962-1.216-4.162-.851-1.261-2.658-1.99-2.78-3.509a2.771,2.771,0,0,1,1.777-2.461c.972-.471,2.066-.607,3.069-1.018.4-.167.835-.456.851-.882,0-.638-.882-.9-1.109-1.488-.243-.669.441-1.291.729-1.944.623-1.489-.927-2.993-2.431-3.6-1.489-.608-3.3-1.048-4-2.506a8.7,8.7,0,0,1-.486-2.172,4.752,4.752,0,0,0-3.554-3.919c-1.869-.3-3.935,1.352-3.631,3.2a13.2,13.2,0,0,0,1.352,2.75c.425.942.3,2.339-.668,2.643-1.6.486-3.13-2.43-4.466-1.428.546,1.869,1.078,3.737,1.625,5.621-2.1,1.063-4.6-.866-5.5-3.054-.9-2.172-.927-4.663-1.99-6.76s-3.935-3.676-5.757-2.188c-.091,2.7,3.479,3.8,5.058,5.986,1.139,1.58.972,4.147-.714,5.15-1.671,1-4.329-.745-3.691-2.582.228-.638.759-1.17.82-1.854.061-.85-.654-1.534-1.307-2.081-1.018-.866-2.035-1.717-3.053-2.567a6.414,6.414,0,0,0-2.173-1.367c-2.1-.607-4.192,1.094-5.3,2.962s-1.731,4.086-3.266,5.651c-2.2,2.278-6.38,2.415-8.446.03s-1.018-6.85,2.035-7.716c1.154-.319,2.613-.288,3.22-1.307,1.063-1.807-1.975-4.116-.927-5.939.8-1.4,2.932-.759,4.481-1.231s2.4-2.02,3.312-3.357c.9-1.322,2.309-2.658,3.889-2.309A4.865,4.865,0,0,1,358,52.043a1.692,1.692,0,0,1,2.324-.85c-.775,1.276.152,3.053,1.5,3.691a8.2,8.2,0,0,0,4.42.319c1.488-.182,3.357-.729,3.478-2.218.046-.486-.136-1,.046-1.458.653-1.777,3.934.668,5.2-.76.729-.744-.076-2.066-1.094-2.309a11.134,11.134,0,0,0-3.083.152c-1.033.046-2.294-.5-2.34-1.534-.045-1.018,1.094-1.747,1.216-2.75.2-1.7-2.688-2.142-3.707-.759-1,1.382-.653,3.281-.349,4.967.319,1.686.471,3.676-.775,4.861-.531.805-1.914.38-2.369-.471a6.847,6.847,0,0,1-.441-2.841,2.447,2.447,0,0,0-1.443-2.324,5.151,5.151,0,0,0-2.02.228c-2.643.319-4.482-3.1-3.646-5.62.82-2.537,3.22-4.162,5.545-5.454,1.7-.942,3.813-1.823,5.5-.866.79.441,1.337,1.2,2.112,1.656,1.337.79,2.992.5,4.527.532a10.542,10.542,0,0,1,6.607,2.567c.684.623,1.322,1.656.79,2.4-.578.79-2.233.957-1.944,1.884a3.293,3.293,0,0,0,4.131-2.658,2.764,2.764,0,0,1,1.6,2.248,4.918,4.918,0,0,1,7.216.592,6.214,6.214,0,0,0,1.337,1.716c.608.4,1.671.2,1.747-.516a1.45,1.45,0,0,0-.122-.669c-.364-1.033-.744-2.05-1.109-3.068,1.413-.76,3.084.425,4.041,1.7,3.554,4.754,6.092,1.9,11.1,2.673,3.388.516,4.877,2.688,6.79,5.316,5.864,8.082,13.611,14.7,18.943,23.151.562.881,1.078,1.777,1.565,2.688h0v.016q.684,1.823,1.289,3.67t1.141,3.727a83.95,83.95,0,0,1,2.3,9.422s.667,5.428.828,7.2c.123,1.353.243,2.707.317,4.071s.116,2.735.123,4.117Z" transform="translate(-151.355 -15.828)" fill="#ebebeb"/>
            <path id="Trazado_797778" data-name="Trazado 797778" d="M59.11,133.255c.37-2.685-3.42-4.894-6.268-5.123a16.115,16.115,0,0,1-4.055-.351c-2.787-.971-3.9-4.572-6.621-5.719-2.033-.858-4.374-.094-6.345.9S31.9,125.2,29.7,125.341c-1.916.123-4-.587-5.672.348-1.249.7-1.9,2.137-3.054,2.986a7.283,7.283,0,0,1-3.992,1.082,11.24,11.24,0,0,0-4.116.673,3.254,3.254,0,0,0-2.061,3.3Z" transform="translate(-4.781 -54.053)" fill="#f5f5f5"/>
            <path id="Trazado_797779" data-name="Trazado 797779" d="M161.435,36.366c.37-2.685-3.42-4.894-6.268-5.123a16.115,16.115,0,0,1-4.055-.351c-2.787-.971-3.9-4.572-6.621-5.719-2.033-.858-4.374-.094-6.345.9s-3.92,2.241-6.122,2.382c-1.916.123-4-.587-5.672.348-1.249.7-1.9,2.137-3.054,2.986a7.283,7.283,0,0,1-3.992,1.082,11.24,11.24,0,0,0-4.116.673,3.253,3.253,0,0,0-2.061,3.3Z" transform="translate(-50.233 -11.016)" fill="#ebebeb"/>
            <path id="Trazado_797781" data-name="Trazado 797781" d="M559.995,38.352a7.341,7.341,0,0,0-1.228-4.235,7.053,7.053,0,0,0-3.271-2.817,5.693,5.693,0,0,0-6.652,1.9,5.688,5.688,0,0,0-5.637-3.646,7.049,7.049,0,0,0-3.988,1.651,7.341,7.341,0,0,0-2.492,3.638,8.932,8.932,0,0,0,.226,5.6,12.632,12.632,0,0,0,3.653,4.718c2.537,2.143,5.9,4.856,5.9,4.856s3.5-1.836,6.583-3.078a12.638,12.638,0,0,0,4.946-3.338,8.931,8.931,0,0,0,1.968-5.25" transform="translate(-238.254 -13.123)" fill="#ebebeb"/>
            <path id="Trazado_797782" data-name="Trazado 797782" d="M113.8,81.353A5.638,5.638,0,0,0,111.18,79.2a5.415,5.415,0,0,0-3.3-.365,4.372,4.372,0,0,0-3.392,4.089,4.368,4.368,0,0,0-5.154.134,5.42,5.42,0,0,0-1.811,2.777,5.631,5.631,0,0,0,0,3.386,6.857,6.857,0,0,0,2.573,3.452,9.7,9.7,0,0,0,4.361,1.405c2.537.257,5.842.519,5.842.519s1.422-2.683,2.836-4.806a9.71,9.71,0,0,0,1.686-4.26,6.86,6.86,0,0,0-1.031-4.181" transform="translate(-43.205 -34.967)" fill="#ebebeb"/>
          </g>
        </g>
        <g id="Grupo_1064659" data-name="Grupo 1064659">
          <g id="Grupo_1064658" data-name="Grupo 1064658" clip-path="url(#clip-path)">
            <path id="Trazado_797783" data-name="Trazado 797783" d="M382.572,449.373c0,.08-85.648.145-191.277.145C85.63,449.517,0,449.453,0,449.373s85.63-.145,191.295-.145c105.629,0,191.277.064,191.277.145" transform="translate(0 -199.542)" fill="#263238"/>
          </g>
        </g>
        <g id="Grupo_1064661" data-name="Grupo 1064661">
          <g id="Grupo_1064660" data-name="Grupo 1064660" clip-path="url(#clip-path)">
            <path id="Trazado_797784" data-name="Trazado 797784" d="M348.64,73.068a19.041,19.041,0,1,0-5.685.186l3.274,4.967Z" transform="translate(-144.877 -15.706)" fill="#fff"/>
            <path id="Trazado_797785" data-name="Trazado 797785" d="M348.507,72.908s-.044.126-.143.353c-.108.244-.256.577-.447,1l-1.744,3.83-.063.137-.084-.126-3.3-4.948.085.052a19.012,19.012,0,0,1-9.063-3.516,19.276,19.276,0,0,1-2.169-1.833,21.484,21.484,0,0,1-1.941-2.259,18.5,18.5,0,0,1-2.892-5.621,19.194,19.194,0,0,1,11.913-23.874,18.911,18.911,0,0,1,12.528-.083,18.035,18.035,0,0,1,5.346,2.815,18.594,18.594,0,0,1,4.059,4.131l.421.569c.129.2.243.4.364.6.233.405.489.795.7,1.2a19.845,19.845,0,0,1,1.065,2.509,20.7,20.7,0,0,1,.715,2.549c.076.428.13.857.194,1.279l.091.633.032.633a19.168,19.168,0,0,1-6.138,15.312,19.077,19.077,0,0,1-4.812,3.214,18.325,18.325,0,0,1-3.457,1.2c-.41.1-.718.158-.927.189a2.388,2.388,0,0,1-.326.046,1.952,1.952,0,0,1,.308-.083c.212-.047.525-.123.925-.231a19.679,19.679,0,0,0,3.409-1.264,19.216,19.216,0,0,0,4.725-3.238A18.72,18.72,0,0,0,363.83,52.97l-.033-.621-.092-.621c-.066-.415-.119-.835-.2-1.255a20.383,20.383,0,0,0-.711-2.5,19.471,19.471,0,0,0-1.053-2.458c-.207-.4-.46-.783-.69-1.179-.12-.2-.231-.4-.358-.589l-.415-.557a18.264,18.264,0,0,0-3.988-4.04,17.688,17.688,0,0,0-5.24-2.748,18.54,18.54,0,0,0-12.265.088,18.842,18.842,0,0,0-11.7,23.382A18.2,18.2,0,0,0,329.9,65.4a21.3,21.3,0,0,0,1.9,2.23,19.084,19.084,0,0,0,2.124,1.815,18.865,18.865,0,0,0,8.91,3.529l.055.007.03.046,3.246,4.985-.147.011,1.836-3.821.48-.977a2.417,2.417,0,0,1,.172-.319" transform="translate(-144.744 -15.545)" fill="#263238"/>
            <path id="Trazado_797786" data-name="Trazado 797786" d="M361.87,62.4a4.688,4.688,0,0,0-1.1-2.593,4.5,4.5,0,0,0-2.287-1.54,3.637,3.637,0,0,0-4.075,1.706,3.631,3.631,0,0,0-3.849-1.887,4.5,4.5,0,0,0-2.405,1.348,4.685,4.685,0,0,0-1.306,2.5,5.7,5.7,0,0,0,.565,3.535,8.067,8.067,0,0,0,2.672,2.716c1.771,1.168,4.1,2.635,4.1,2.635s2.082-1.428,3.942-2.448a8.071,8.071,0,0,0,2.885-2.489,5.705,5.705,0,0,0,.852-3.478" transform="translate(-154.036 -25.776)" fill="#fccd92"/>
          </g>
        </g>
        <path id="Trazado_797787" data-name="Trazado 797787" d="M202.123,405.612l-3.114,22.912,74.26.067-4.679-26.148Z" transform="translate(-88.397 -178.76)" fill="#263238"/>
        <g id="Grupo_1064690" data-name="Grupo 1064690">
          <g id="Grupo_1064689" data-name="Grupo 1064689" clip-path="url(#clip-path)">
            <path id="Trazado_797788" data-name="Trazado 797788" d="M311.053,273.124l19.941,22.126c3.291,3.651,5.667,6.975,10.4,8.312,3.314.935,10.293,1.322,12.054-.855,2.417-2.986,3.917-8.149.532-14.643-2.2-4.227-21.549-21.5-21.549-21.5Z" transform="translate(-138.166 -118.404)" fill="#c27461"/>
            <path id="Trazado_797789" data-name="Trazado 797789" d="M322.869,263.336c.113,1.093,5.328,11.971,5.328,11.971l17.119-11.168S334.3,237.96,326.249,236.2Z" transform="translate(-143.415 -104.918)" fill="#59bee2"/>
            <path id="Trazado_797790" data-name="Trazado 797790" d="M357.141,203.1l.242-8.318-.554-10.6-1.684-8.812s-.442-.865-1.554-.211-.15,5.462-.15,5.462l.173,3.616s-.651,2.791-.86,2.556-.907-5.115-.907-5.115L349.828,171.2a1.393,1.393,0,0,0-1.769-.724c-.715.226-1.182,1.266-1.092,2.82s.766,4.175.838,5.057.653,5.979.653,5.979L344.918,172.6s-.656-3.815-2.245-3.266-.528,3.285-.456,4.469,2.372,9.164,2.179,11.389-.546,1.113-.546,1.113l-1.647-6.569c-.726-2.9-1.822-4.572-3.076-4.784s.428,6.5.428,6.5l2.125,9.376-.528,2.985-2.09-2.686s-.061-3.519-2.26-4.986c-2.234-1.491-2.766.182-2.766.182l4.1,13.621c.969,2.227,7.25,6.556,7.25,6.556l1.121,13.659,13.954-.278Z" transform="translate(-148.374 -75.194)" fill="#c27461"/>
            <path id="Trazado_797791" data-name="Trazado 797791" d="M356.256,215.637a14.99,14.99,0,0,1-1.863-1.564,7.642,7.642,0,0,0-5.105-2.109,4.1,4.1,0,0,0-2.523.917l-.233.2-.2-.267c-.895-1.18-1.855-2.209-2.426-2.951-.6-.739-.9-1.237-.83-1.277a7.879,7.879,0,0,1,1.1,1.042,38.872,38.872,0,0,1,2.651,2.884l-.435-.065a4.528,4.528,0,0,1,2.877-1.1,6.276,6.276,0,0,1,3.258.785,9.983,9.983,0,0,1,2.164,1.616,7.166,7.166,0,0,1,1.572,1.889" transform="translate(-152.385 -92.652)" fill="#7d4336"/>
            <path id="Trazado_797792" data-name="Trazado 797792" d="M357.926,278.753l-2.958-42.5,11.815-3.7,8.578,46.2Z" transform="translate(-157.673 -103.295)" fill="#c27461"/>
            <path id="Trazado_797793" data-name="Trazado 797793" d="M295.024,121.055a4.78,4.78,0,0,0,2.557-9.161,4.973,4.973,0,0,0-3.843-8.621,5.951,5.951,0,0,0-8.677-5.386,6.69,6.69,0,0,0-8.215-.641,4.759,4.759,0,0,0-4.66,7.817" transform="translate(-120.367 -42.7)" fill="#263238"/>
            <path id="Trazado_797794" data-name="Trazado 797794" d="M283.989,152.305c.374-5.245.266-16.107.054-25.936a20.28,20.28,0,0,0-19.083-19.8l-1.048-.062c-11.344-.007-17.686,9.624-17.379,20.963l-1.745,43.672,6.851,6.188a12.929,12.929,0,0,0,20.079-3.517l.529-9.6s10.967-1.049,11.742-11.907" transform="translate(-108.732 -47.307)" fill="#c27461"/>
            <path id="Trazado_797795" data-name="Trazado 797795" d="M283.172,206.311a26.4,26.4,0,0,1-13.991-5.006s2.887,8.017,13.787,7.677Z" transform="translate(-119.567 -89.417)" fill="#7d4336"/>
            <path id="Trazado_797796" data-name="Trazado 797796" d="M304.293,157.548a1.554,1.554,0,0,1-1.589,1.477,1.487,1.487,0,0,1-1.517-1.493,1.555,1.555,0,0,1,1.587-1.478,1.489,1.489,0,0,1,1.519,1.495" transform="translate(-133.784 -69.317)" fill="#263238"/>
            <path id="Trazado_797797" data-name="Trazado 797797" d="M305.751,150.116c-.2.191-1.328-.749-3-.843-1.667-.118-2.943.669-3.111.454-.084-.1.134-.45.69-.806a4.263,4.263,0,0,1,2.506-.614,4.094,4.094,0,0,1,2.372.923c.49.424.643.8.542.885" transform="translate(-133.089 -65.872)" fill="#263238"/>
            <path id="Trazado_797798" data-name="Trazado 797798" d="M276.72,157.548a1.554,1.554,0,0,1-1.589,1.477,1.486,1.486,0,0,1-1.517-1.493,1.555,1.555,0,0,1,1.587-1.478,1.488,1.488,0,0,1,1.518,1.495" transform="translate(-121.536 -69.317)" fill="#263238"/>
            <path id="Trazado_797799" data-name="Trazado 797799" d="M276.188,148.935c-.205.191-1.33-.748-3-.842-1.666-.118-2.942.669-3.111.454-.084-.1.132-.45.69-.806a4.27,4.27,0,0,1,2.506-.614,4.1,4.1,0,0,1,2.372.923c.489.424.642.8.543.885" transform="translate(-119.957 -65.348)" fill="#263238"/>
            <path id="Trazado_797800" data-name="Trazado 797800" d="M290.674,162.154a11.039,11.039,0,0,1,2.741-.33c.429-.018.838-.079.927-.367a2.175,2.175,0,0,0-.21-1.28q-.51-1.583-1.069-3.322c-1.478-4.726-2.522-8.6-2.331-8.659s1.544,3.726,3.022,8.452q.531,1.747,1.015,3.338a2.472,2.472,0,0,1,.123,1.686,1.073,1.073,0,0,1-.738.582,2.892,2.892,0,0,1-.73.058,10.9,10.9,0,0,1-2.749-.158" transform="translate(-129.114 -65.827)" fill="#263238"/>
            <path id="Trazado_797801" data-name="Trazado 797801" d="M281.448,174.866c.272,0,.169,1.813,1.644,3.19s3.417,1.292,3.416,1.546c.019.116-.451.327-1.268.3a4.522,4.522,0,0,1-2.857-1.188,3.941,3.941,0,0,1-1.263-2.668c-.024-.763.2-1.2.328-1.181" transform="translate(-124.869 -77.673)" fill="#263238"/>
            <path id="Trazado_797802" data-name="Trazado 797802" d="M276.431,137.5c-.192.444-1.846.131-3.818.251-1.976.081-3.589.561-3.825.139-.1-.2.2-.612.861-1.014a6.654,6.654,0,0,1,5.823-.3c.7.332,1.044.71.96.922" transform="translate(-119.383 -60.43)" fill="#263238"/>
            <path id="Trazado_797803" data-name="Trazado 797803" d="M305.526,141.284c-.316.362-1.443-.1-2.825-.2-1.378-.148-2.57.1-2.815-.309-.107-.2.1-.569.633-.9a4.1,4.1,0,0,1,4.545.41c.465.419.6.819.462,1" transform="translate(-133.194 -61.909)" fill="#263238"/>
            <path id="Trazado_797804" data-name="Trazado 797804" d="M282.586,120.31s-2.464-6.974-5.652-8.755c-3.859-2.157-5.826,2.1-9.549.822s-7.406-3.349-11.447-.651c-4.423,2.953-2.572,5.317-3.118,10.123-2.213,19.483-6.109,24.8-6.581,15.534-.052-1.015-2.8-1.983-2.967-6.269-.212-5.558-.029-12.28,1.436-16.129,1.234-3.244,3.254-5.417,6.781-7.735,5.57-3.66,12.9-3.313,17.849-2.519s14.2,7.087,13.248,15.58" transform="translate(-108.026 -46.29)" fill="#263238"/>
            <path id="Trazado_797805" data-name="Trazado 797805" d="M243.957,161.009a2.954,2.954,0,0,0-3.017-3.03c-2.038.073-4.36,1.09-4.474,5.286-.2,7.442,7.313,6.109,7.331,5.9.013-.145.1-5.037.16-8.152" transform="translate(-105.034 -70.172)" fill="#c27461"/>
            <path id="Trazado_797806" data-name="Trazado 797806" d="M244.284,168.245c-.032-.024-.132.087-.354.182a1.3,1.3,0,0,1-.97-.007,3.21,3.21,0,0,1-1.407-2.919,4.29,4.29,0,0,1,.414-1.846,1.5,1.5,0,0,1,1-.969.661.661,0,0,1,.756.376c.094.211.043.358.082.372.021.019.163-.12.112-.429a.831.831,0,0,0-.28-.474.979.979,0,0,0-.712-.209,1.824,1.824,0,0,0-1.386,1.117,4.407,4.407,0,0,0-.505,2.062c.007,1.5.737,2.925,1.8,3.265a1.385,1.385,0,0,0,1.191-.165c.236-.177.28-.343.254-.357" transform="translate(-107.065 -72.1)" fill="#7d4336"/>
            <path id="Trazado_797807" data-name="Trazado 797807" d="M246.265,120.81a7.059,7.059,0,0,0,3.061,1.639,2.427,2.427,0,0,0,2.788-1.546c.119-.512.028-1.119.391-1.5.434-.453,1.173-.259,1.792-.157a4.749,4.749,0,0,0,5.122-3.109,1.994,1.994,0,0,0,2.655.409,10.674,10.674,0,0,0,2.15-2.045,3.063,3.063,0,0,1,2.625-1.125,7.327,7.327,0,0,0,1.595.451c.98-.029,1.524-1.143,1.729-2.1s.386-2.082,1.243-2.56c.794-.443,1.77-.1,2.66.083s2.062.043,2.344-.821a1.766,1.766,0,0,0-.253-1.367A4.819,4.819,0,0,0,270.6,104.9a6.532,6.532,0,0,0-11.907-1.97,6.629,6.629,0,0,0-10.721,1.789,4.8,4.8,0,0,0-5.82,6.658,4.563,4.563,0,0,0-2.72,3.479c-.118,1.536,1.289,3.156,2.8,2.84a2.661,2.661,0,0,0,4.438,2.92" transform="translate(-106.349 -44.357)" fill="#263238"/>
            <path id="Trazado_797808" data-name="Trazado 797808" d="M271.478,112.926a.38.38,0,0,1-.01.136c-.015.089-.028.223-.071.394a4.673,4.673,0,0,1-.624,1.4,5.317,5.317,0,0,1-1.751,1.659,4.96,4.96,0,0,1-3.094.689l.136-.157a2.69,2.69,0,0,1-.27,2.042,7.678,7.678,0,0,1-1.379,1.752,5.514,5.514,0,0,1-.882.8,2.61,2.61,0,0,1-1.2.367,2.717,2.717,0,0,1-2.341-1l.282-.063a5.583,5.583,0,0,1-2.591,3.716,4.074,4.074,0,0,1-2.487.656,7.354,7.354,0,0,1-2.372-.67l.2-.076a5.871,5.871,0,0,1-1.894,2.189,3.123,3.123,0,0,1-2.63.552,4.1,4.1,0,0,1-2.962-3.388l.164.088a3.834,3.834,0,0,1-2.575.225,4.164,4.164,0,0,1-1.734-.9,3.61,3.61,0,0,1-.776-.957,1.762,1.762,0,0,1-.166-.4,4.467,4.467,0,0,0,1.023,1.256,4.125,4.125,0,0,0,1.695.819,3.666,3.666,0,0,0,2.432-.253l.144-.071.02.159a3.866,3.866,0,0,0,2.806,3.143,2.834,2.834,0,0,0,2.388-.528,5.591,5.591,0,0,0,1.78-2.078l.067-.134.137.058a7.1,7.1,0,0,0,2.27.638,3.757,3.757,0,0,0,2.3-.611,5.28,5.28,0,0,0,2.448-3.5l.067-.349.216.285a2.413,2.413,0,0,0,2.067.881,2.308,2.308,0,0,0,1.065-.317,5.392,5.392,0,0,0,.831-.753,7.516,7.516,0,0,0,1.346-1.675,2.442,2.442,0,0,0,.271-1.847l-.051-.181.186.023a4.779,4.779,0,0,0,2.962-.614,5.293,5.293,0,0,0,1.735-1.565,5.773,5.773,0,0,0,.819-1.851" transform="translate(-106.807 -50.16)" fill="#455a64"/>
            <path id="Trazado_797809" data-name="Trazado 797809" d="M270.413,265.889l.785-7.916,2.728-29.016c-1.4-1.477-7.048-3.8-7.048-3.8l-14.021-5.04s-1.343,3.848-11.875,4c-10.772.16-15.235-6.58-15.235-6.58-5.382,1.732-17.135,6.194-17.135,6.194l-1.795,16.895L204.6,261.489l-.2,12.462-2.479,63.465s70.583-3,71.641-3.18L270.7,311.382Z" transform="translate(-89.69 -96.632)" fill="#59bee2"/>
            <g id="Grupo_1064664" data-name="Grupo 1064664" transform="translate(160.465 150.627)" opacity="0.3">
              <g id="Grupo_1064663" data-name="Grupo 1064663">
                <g id="Grupo_1064662" data-name="Grupo 1064662" clip-path="url(#clip-path-8)">
                  <path id="Trazado_797810" data-name="Trazado 797810" d="M288.7,271v14.853l8.082,6.594,8.425-6.536.464-14.5Z" transform="translate(-288.704 -271.003)"/>
                </g>
              </g>
            </g>
            <g id="Grupo_1064667" data-name="Grupo 1064667" transform="translate(113.508 185.627)" opacity="0.3">
              <g id="Grupo_1064666" data-name="Grupo 1064666">
                <g id="Grupo_1064665" data-name="Grupo 1064665" clip-path="url(#clip-path-9)">
                  <path id="Trazado_797811" data-name="Trazado 797811" d="M204.426,351.1l-.206,5.276s44.588-8.081,52.381-11.221A98.955,98.955,0,0,0,271.377,338l.162-4.025Z" transform="translate(-204.22 -333.974)"/>
                </g>
              </g>
            </g>
            <path id="Trazado_797812" data-name="Trazado 797812" d="M198.33,234.4s-10.055,1.605-12.125,14.423c-1.335,8.265-5.376,44.669.15,54.451,6.393,11.318,64.116-7.669,64.116-7.669l1.972-14.649L207.962,283.9l-5.585-30.873Z" transform="translate(-81.52 -104.118)" fill="#c27461"/>
            <path id="Trazado_797813" data-name="Trazado 797813" d="M181.156,274.279h28.19l-7.712-47.018s-16.159,3.273-18.273,20.154a254.912,254.912,0,0,0-2.2,26.865" transform="translate(-80.467 -100.947)" fill="#59bee2"/>
            <path id="Trazado_797814" data-name="Trazado 797814" d="M187.534,290.386a.432.432,0,0,1,.126-.014l.37-.014,1.425-.027,5.255-.045,17.469-.044-.145.157c-.031-.365-.065-.759-.1-1.154-.592-7.091-1.127-13.509-1.517-18.184-.179-2.309-.324-4.186-.427-5.514q-.064-.949-.1-1.5c-.008-.157-.014-.286-.019-.391a.459.459,0,0,1,0-.134.452.452,0,0,1,.026.131c.013.105.029.232.048.389q.058.549.156,1.5c.125,1.326.3,3.2.519,5.505l1.6,18.178c.034.4.067.788.1,1.154l.013.157h-.157l-17.469-.044-5.255-.045-1.425-.027-.37-.014a.434.434,0,0,1-.126-.014" transform="translate(-83.3 -117.053)" fill="#263238"/>
            <path id="Trazado_797815" data-name="Trazado 797815" d="M327.211,260.463a6.047,6.047,0,0,1,.013.96c-.006.618-.046,1.511-.1,2.614-.115,2.206-.346,5.249-.663,8.6s-.652,6.387-.919,8.579c-.133,1.1-.248,1.982-.336,2.593a5.944,5.944,0,0,1-.166.945,6.173,6.173,0,0,1,.054-.958c.062-.663.144-1.541.244-2.6.218-2.242.51-5.254.834-8.584.317-3.352.58-6.389.746-8.589.078-1.064.142-1.943.191-2.606a6.08,6.08,0,0,1,.1-.955" transform="translate(-144.377 -115.695)" fill="#263238"/>
            <path id="Trazado_797816" data-name="Trazado 797816" d="M224.041,243.3a2.51,2.51,0,0,1-.317-.524l-.784-1.465a22.9,22.9,0,0,0-3.027-4.517,10.481,10.481,0,0,0-4.449-2.983,12.322,12.322,0,0,0-2.211-.416,2.055,2.055,0,0,1,.613-.039,6.63,6.63,0,0,1,1.657.259,10.067,10.067,0,0,1,4.6,2.984,20.223,20.223,0,0,1,2.994,4.618c.311.631.546,1.149.7,1.51a2.478,2.478,0,0,1,.216.573" transform="translate(-94.724 -103.655)" fill="#263238"/>
            <g id="Grupo_1064670" data-name="Grupo 1064670" transform="translate(125.274 150.627)" opacity="0.3">
              <g id="Grupo_1064669" data-name="Grupo 1064669">
                <g id="Grupo_1064668" data-name="Grupo 1064668" clip-path="url(#clip-path-10)">
                  <path id="Trazado_797817" data-name="Trazado 797817" d="M225.775,295.833c-.05-.277,4.876-1.478,4.876-1.478L227.046,271l1.948,22.705h-3.6Z" transform="translate(-225.39 -271.003)"/>
                </g>
              </g>
            </g>
            <path id="Trazado_797818" data-name="Trazado 797818" d="M347.238,319.479l-.87,12-3.987,5.018-9.756,12.946,11.817.771s13.859-3.445,15.9-7.714,2.159-23.023,2.159-23.023Z" transform="translate(-147.748 -141.909)" fill="#ffcfb4"/>
            <path id="Trazado_797819" data-name="Trazado 797819" d="M435.3,193.607l.665-46.684c.428-11.108-5.094-20.72-16.21-20.841l-1.028.048A19.868,19.868,0,0,0,399.8,145.31c-.318,9.632-.546,20.282-.238,25.427.638,10.648,11.372,11.8,11.372,11.8.017.326-.013,2.977-.058,6.155l.017,5.289Z" transform="translate(-177.417 -56.005)" fill="#ffcfb4"/>
            <path id="Trazado_797820" data-name="Trazado 797820" d="M420.08,223.847a25.765,25.765,0,0,0,13.677-4.76s-3.014,7.943-13.691,7.488Z" transform="translate(-186.588 -97.316)" fill="#ff9d64"/>
            <path id="Trazado_797821" data-name="Trazado 797821" d="M431.378,168.976c.233.068,1.308-.711,3.043-1.114s3.143-.226,3.3-.386c.077-.073-.187-.233-.805-.324a7.494,7.494,0,0,0-2.681.167,6.724,6.724,0,0,0-2.379,1.03c-.467.349-.586.6-.473.628" transform="translate(-191.595 -74.222)" fill="#263238"/>
            <path id="Trazado_797822" data-name="Trazado 797822" d="M434.5,175.311a1.441,1.441,0,0,0,1.457,1.386,1.379,1.379,0,0,0,1.422-1.368,1.441,1.441,0,0,0-1.456-1.387,1.379,1.379,0,0,0-1.423,1.369" transform="translate(-193 -77.263)" fill="#263238"/>
            <path id="Trazado_797823" data-name="Trazado 797823" d="M420.115,180.472a10.834,10.834,0,0,0-2.682-.353c-.42-.023-.82-.087-.9-.369a2.132,2.132,0,0,1,.22-1.253q.518-1.546,1.085-3.242c1.5-4.614,2.567-8.4,2.381-8.459s-1.555,3.633-3.056,8.247c-.361,1.138-.7,2.222-1.033,3.259a2.428,2.428,0,0,0-.138,1.651,1.05,1.05,0,0,0,.716.579,2.858,2.858,0,0,0,.715.065,10.646,10.646,0,0,0,2.7-.125" transform="translate(-184.732 -74.088)" fill="#263238"/>
            <path id="Trazado_797824" data-name="Trazado 797824" d="M433.745,156.317c.162.4,1.595.138,3.3.27,1.706.1,3.1.543,3.3.168.092-.179-.165-.549-.735-.917a5.391,5.391,0,0,0-2.481-.766,5.33,5.33,0,0,0-2.551.434c-.609.288-.907.623-.837.812" transform="translate(-192.66 -68.875)" fill="#263238"/>
            <path id="Trazado_797825" data-name="Trazado 797825" d="M403.175,161.448c.178.327,1.577,0,3.261,0,1.686-.039,3.076.242,3.263-.09.082-.158-.188-.454-.768-.725a5.893,5.893,0,0,0-2.479-.475,6.081,6.081,0,0,0-2.491.547c-.587.287-.864.591-.785.747" transform="translate(-179.08 -71.138)" fill="#263238"/>
            <path id="Trazado_797826" data-name="Trazado 797826" d="M464.1,177.789c.189-.087,7.642-2.439,7.561,5.219s-7.752,6-7.763,5.777.2-11,.2-11" transform="translate(-206.057 -78.791)" fill="#ffcfb4"/>
            <path id="Trazado_797827" data-name="Trazado 797827" d="M468.154,187.892c.034-.024.133.094.357.2a1.336,1.336,0,0,0,1,.031c.812-.288,1.507-1.566,1.558-2.945a4.418,4.418,0,0,0-.353-1.914,1.543,1.543,0,0,0-.993-1.034.679.679,0,0,0-.791.357c-.105.213-.058.366-.1.379-.022.019-.163-.13-.1-.446a.849.849,0,0,1,.306-.477,1.009,1.009,0,0,1,.739-.187,1.875,1.875,0,0,1,1.381,1.2,4.531,4.531,0,0,1,.44,2.139c-.066,1.543-.871,2.978-1.981,3.286a1.428,1.428,0,0,1-1.218-.216c-.235-.192-.273-.364-.247-.377" transform="translate(-207.945 -80.775)" fill="#ff9d64"/>
            <path id="Trazado_797828" data-name="Trazado 797828" d="M403.433,168.817c.166.174,1.48.089,3.171.645s2.812,1.416,3.025,1.364c.1-.02-.043-.283-.529-.672a7.858,7.858,0,0,0-2.387-1.228,7,7,0,0,0-2.56-.375c-.576.044-.8.186-.721.267" transform="translate(-179.193 -74.863)" fill="#263238"/>
            <path id="Trazado_797829" data-name="Trazado 797829" d="M407.12,174.99a1.441,1.441,0,0,0,1.457,1.386A1.379,1.379,0,0,0,410,175.008a1.442,1.442,0,0,0-1.456-1.387,1.379,1.379,0,0,0-1.423,1.369" transform="translate(-180.838 -77.12)" fill="#263238"/>
            <path id="Trazado_797830" data-name="Trazado 797830" d="M374.605,130.266a1.722,1.722,0,0,1,.834-.984,5.3,5.3,0,0,1,2.727-.372,15.3,15.3,0,0,0,6.687-1.5,7.6,7.6,0,0,1-1.919-1.421,4.56,4.56,0,0,1-1.2-4.566,1.009,1.009,0,0,1,.587-.68c.475-.133.877.341,1.2.717a3.926,3.926,0,0,0,3.654,1.658,6.444,6.444,0,0,0,2.781-.746c.032-.032.062-.068.094-.1.387-.38.766-.743,1.138-1.094l0,0v0c2.8-2.64,5.2-4.458,7.642-5.37,3.582-1.337,9.526-1.765,13.2-.7s6.915,4.147,7.333,7.948c2.118-1.7,5.23-1.606,7.729-.527l.064-.026c2.787,1.074,4.309,4.086,5.066,6.974.041.158.077.318.115.477a11.159,11.159,0,0,0,3.691,3.792c.268.165.574.367.6.68s-.243.561-.5.736a5.611,5.611,0,0,1-2.3.888,12.65,12.65,0,0,0,.882,2c.3.546.665,1.2.373,1.751a1.185,1.185,0,0,1-1.255.509,3.478,3.478,0,0,1-1.294-.625l.884,2.277a6.653,6.653,0,0,1-3.054-.282,74.171,74.171,0,0,1-2.165,7.871c-1.176-.033-2.282-.337-3.022.3-1.008.86-1.49,2.516-3.111,1.841-.825-.344-1.54-2.11-1.8-2.966a41.486,41.486,0,0,1-1.35-17.6,13.317,13.317,0,0,0-4.04-3.075l.123.116c-2.943-1.107-6.276-2.207-9.129-.884-2.213,1.026-3.556,3.261-5.235,5.028a15.759,15.759,0,0,1-11.613,5.18c-.5,3.2-.257,7.271-.491,10.259l-2.642-4.9,0,.024c-.2-.356-.358-.714-.515-1.073l-.053-.109v-.014a18.594,18.594,0,0,0-.8-1.723l-.029.025a1.869,1.869,0,0,1-2.667-2.569,4.2,4.2,0,0,1,.927-.885,2.959,2.959,0,0,1-2.835.659,2.321,2.321,0,0,1-1.582-2.336,1.974,1.974,0,0,1,1.216-1.553,6.659,6.659,0,0,1-3.768-.932c-.738-.446-1.454-1.167-1.176-2.1" transform="translate(-166.368 -50.863)" fill="#263238"/>
            <path id="Trazado_797831" data-name="Trazado 797831" d="M449.108,131.927a9.112,9.112,0,0,1,1.041,1,7.622,7.622,0,0,1,1.542,3.571,13.417,13.417,0,0,1,.2,2.708c-.021.978-.126,2.025-.229,3.127a28.018,28.018,0,0,0-.168,3.483,12.247,12.247,0,0,0,.193,1.845,3.827,3.827,0,0,0,.7,1.8,1.6,1.6,0,0,0,1.487.542,2.387,2.387,0,0,0,1.369-.728,5.515,5.515,0,0,0,1.093-2.676l-.224.022a8.911,8.911,0,0,0,1.237,2.259,3.168,3.168,0,0,0,2.039,1.178,2.045,2.045,0,0,0,1.1-.164,1.77,1.77,0,0,0,.764-.715,1.827,1.827,0,0,0,.25-.936,1.319,1.319,0,0,0-.321-.835l-.115.1a6.853,6.853,0,0,0,2.239,1.771,6.252,6.252,0,0,0,.7.293,1.253,1.253,0,0,0,.252.069,1.3,1.3,0,0,0-.237-.108c-.156-.069-.389-.17-.678-.326a7.068,7.068,0,0,1-2.159-1.794l-.116.1a1.363,1.363,0,0,1,.031,1.581,1.589,1.589,0,0,1-.689.632,1.857,1.857,0,0,1-1,.137,2.971,2.971,0,0,1-1.892-1.119,8.778,8.778,0,0,1-1.189-2.21l-.145-.345-.079.366a5.332,5.332,0,0,1-1.041,2.557,2.149,2.149,0,0,1-1.225.651,1.352,1.352,0,0,1-1.264-.46,3.617,3.617,0,0,1-.65-1.686,12.188,12.188,0,0,1-.192-1.807,28.436,28.436,0,0,1,.153-3.454c.1-1.1.194-2.154.207-3.145a13.356,13.356,0,0,0-.236-2.744,7.524,7.524,0,0,0-1.641-3.6,4.327,4.327,0,0,0-1.115-.939" transform="translate(-199.488 -58.6)" fill="#455a64"/>
            <path id="Trazado_797832" data-name="Trazado 797832" d="M389.482,136.539s.025.028.083.075l.26.2a3.525,3.525,0,0,0,.443.3,5.76,5.76,0,0,0,.638.357,9.435,9.435,0,0,0,4.529.934,12.047,12.047,0,0,0,6.474-2.206,20.86,20.86,0,0,0,5.672-6.211c.805-1.267,1.469-2.571,2.195-3.771a14.107,14.107,0,0,1,2.457-3.175,7.266,7.266,0,0,1,3.11-1.781,5.218,5.218,0,0,1,1.62-.145,5.724,5.724,0,0,1,1.472.322,6.161,6.161,0,0,1,3.342,2.977,7.383,7.383,0,0,1,.508,1.607.361.361,0,0,0-.006-.112c-.012-.088-.025-.2-.042-.327a5.349,5.349,0,0,0-.373-1.21,6.035,6.035,0,0,0-1.149-1.644,6.215,6.215,0,0,0-2.219-1.457,5.856,5.856,0,0,0-1.517-.348,5.384,5.384,0,0,0-1.685.136,7.432,7.432,0,0,0-3.215,1.813,14.172,14.172,0,0,0-2.511,3.218c-.734,1.209-1.4,2.509-2.2,3.764a20.872,20.872,0,0,1-5.591,6.155,11.975,11.975,0,0,1-6.351,2.219,9.572,9.572,0,0,1-4.48-.846,14.862,14.862,0,0,1-1.466-.845" transform="translate(-173.003 -53.707)" fill="#455a64"/>
            <path id="Trazado_797833" data-name="Trazado 797833" d="M387.955,140.578a1.666,1.666,0,0,0,.375.276,8.276,8.276,0,0,0,1.114.6,11.045,11.045,0,0,0,1.772.633,11.566,11.566,0,0,0,4.582.263,11.048,11.048,0,0,0,1.833-.425,8.268,8.268,0,0,0,1.176-.471,1.7,1.7,0,0,0,.4-.23c-.019-.043-.614.244-1.63.532a12.435,12.435,0,0,1-1.812.366,12.389,12.389,0,0,1-4.5-.258,12.662,12.662,0,0,1-1.759-.571c-.975-.4-1.533-.756-1.558-.716" transform="translate(-172.325 -62.442)" fill="#455a64"/>
            <path id="Trazado_797834" data-name="Trazado 797834" d="M428.851,196.385s-3.875,1.127-5.344,1.663l.587,1.686a2.694,2.694,0,0,0,3.641,1.555,2.658,2.658,0,0,0,.894-.687,2.721,2.721,0,0,0,.615-1.892,15.2,15.2,0,0,0-.394-2.324" transform="translate(-188.117 -87.232)" fill="#ff9d64"/>
            <path id="Trazado_797835" data-name="Trazado 797835" d="M423.506,197.77a29.589,29.589,0,0,1,5.269-1.922l.28-.087.061.293.026.125a12.3,12.3,0,0,1,.351,2.24,2.635,2.635,0,0,1-.563,1.841c-.73.87-1.491.92-1.483.868-.045-.085.622-.28,1.174-1.093.643-.8.349-2.2-.008-3.745-.009-.044-.018-.088-.027-.128l.34.206a29.773,29.773,0,0,1-5.42,1.4" transform="translate(-188.116 -86.955)" fill="#263238"/>
            <path id="Trazado_797836" data-name="Trazado 797836" d="M367.839,352.666l75.446-.351-4.161-64.175-.312-19.131-4.42-34.671-16.861-3.616s-4.218,7.752-14.99,7.593c-10.532-.156-10.194-4.635-10.194-4.635l-17.913,6.725s-9.818,4.778-11.62,9.411c-1.754,4.509-5.152,30.453-5.152,30.453l15.447-.191L371.7,329.164Z" transform="translate(-158.869 -102.484)" fill="#727997"/>
            <path id="Trazado_797837" data-name="Trazado 797837" d="M385.713,278.567a1.5,1.5,0,0,1,.04.337c.014.253.034.574.057.97.039.842.073,2.063.079,3.57.021,3.016-.047,7.181-.188,11.778s-.327,8.758-.481,11.769c-.084,1.476-.153,2.685-.2,3.564l-.072.968a1.471,1.471,0,0,1-.045.336,1.506,1.506,0,0,1-.013-.339c0-.253.011-.575.018-.971.027-.88.065-2.089.111-3.567.1-3.046.242-7.189.4-11.77s.242-8.757.273-11.769c.021-1.506.017-2.725.013-3.568,0-.4,0-.717,0-.97a1.5,1.5,0,0,1,.018-.34" transform="translate(-170.962 -123.736)" fill="#263238"/>
            <path id="Trazado_797838" data-name="Trazado 797838" d="M494.773,238.076s7.588.8,11.654,6.122c3.737,4.9,10.942,20.308,10.751,20.69s-16.967,11.377-16.967,11.377l-4.147-7.65Z" transform="translate(-219.772 -105.751)" fill="#727997"/>
            <path id="Trazado_797839" data-name="Trazado 797839" d="M501.415,251.7a1.125,1.125,0,0,1,.044.292c.018.225.042.5.069.84.056.73.117,1.787.182,3.095.129,2.614.227,6.23.287,10.221s.125,7.605.2,10.22c.037,1.276.068,2.323.091,3.1.006.339.011.617.015.842a1.152,1.152,0,0,1-.014.3,1.122,1.122,0,0,1-.044-.292c-.019-.225-.042-.5-.069-.84-.056-.73-.117-1.788-.182-3.095-.128-2.615-.227-6.23-.286-10.223s-.125-7.6-.2-10.219c-.037-1.275-.067-2.323-.09-3.1-.006-.339-.011-.618-.015-.843a1.149,1.149,0,0,1,.014-.3" transform="translate(-222.716 -111.8)" fill="#263238"/>
            <path id="Trazado_797840" data-name="Trazado 797840" d="M312.435,364.622s2.5,1.676,4.071,1.467,6.706-1.467,6.706-1.467.105.455,1.467,1.485,9.64,2.392,13.1,1.973a54.777,54.777,0,0,0,9.326-2.62l-1.761-9.907-15.573,2.456L312.435,362v2.62Z" transform="translate(-138.78 -157.932)" fill="#824e44"/>
            <path id="Trazado_797841" data-name="Trazado 797841" d="M321.158,347.89s-1.362,5.973-.629,6.811,1.657,1.048,2.181-.1a50.781,50.781,0,0,0,1.486-5.251l.629-1.456s-.838,9.85.839,10.374a3.514,3.514,0,0,0,2.62,0s3.353,2.515,3.562-1.467a57.588,57.588,0,0,1,1.422-8.907l.778-1.3v2.239s-1.766,5.239-.778,5.973,2.036,1.257,2.665.419a63,63,0,0,0,4.2-9.126s1.964,2.837,4.7,2.874c2.149.029,3.4-.894,2.521-2.236a9.593,9.593,0,0,0-3.039-2.459l-2.829-6.61-6.916-1.618h-7.859Z" transform="translate(-142.279 -149.269)" fill="#ffcfb4"/>
            <path id="Trazado_797842" data-name="Trazado 797842" d="M301.651,343.642s6.607,3.933,9.646,4.667,19.331-2.16,19.162-3.187-2.292-1.947-3.759-2.157-5.763-.943-5.763-.943h11.526l5.554,3.512s1.971-.794,1.331-2.4c-.341-.855-4.684-4.251-4.684-4.251l-10.583-2.1-18.756-.734Z" transform="translate(-133.99 -149.269)" fill="#ffc09d"/>
            <path id="Trazado_797843" data-name="Trazado 797843" d="M310.308,317.951s18.756,3.144,19.176,3.667,5.239,5.973,5.239,5.973,7.226,2.486,6.287,4.087-3.039.629-3.039.629,2.934,4.61,1.572,5.554-2.829.314-3.877-1.048-4.087-6.392-4.087-6.392,2.515,10.269,1.258,10.583a3.057,3.057,0,0,1-4.087-2.2,28.059,28.059,0,0,1-1.048-4.086l-3.982-6.6s1.572,12.055.629,13.048c0,0-2.41.784-3.248-1.312s-1.991-6.886-1.991-6.886l-1.991-5.269-.21,3.353s1.676,6.182.629,6.6a2.517,2.517,0,0,1-3.144-1.412,22.928,22.928,0,0,1-1.886-4.456c-.206-.819-1.318-3.608-1.318-3.608l-3.982-.524Z" transform="translate(-136.458 -141.23)" fill="#c27461"/>
            <path id="Trazado_797844" data-name="Trazado 797844" d="M354.329,332.413a58.644,58.644,0,0,1,4.739,6.73,58.6,58.6,0,0,1-4.739-6.73" transform="translate(-157.387 -147.654)" fill="#7d4336"/>
            <path id="Trazado_797845" data-name="Trazado 797845" d="M343.088,326.171a5.369,5.369,0,0,1,.878,1.049,26.793,26.793,0,0,1,1.763,2.788,32.457,32.457,0,0,1,1.45,2.961,5.812,5.812,0,0,1,.462,1.286,7.156,7.156,0,0,1-.649-1.2c-.376-.751-.9-1.787-1.517-2.907s-1.226-2.107-1.679-2.812a7.952,7.952,0,0,1-.709-1.165" transform="translate(-152.394 -144.881)" fill="#7d4336"/>
            <path id="Trazado_797846" data-name="Trazado 797846" d="M333.153,327.173c.02-.028.31.132.664.524a5.092,5.092,0,0,1,1,1.778,9.381,9.381,0,0,1,.408,1.984,2.334,2.334,0,0,1,.017.838,2.576,2.576,0,0,1-.22-.806,16.422,16.422,0,0,0-.48-1.922,6.4,6.4,0,0,0-.88-1.742c-.3-.405-.534-.618-.5-.653" transform="translate(-147.982 -145.325)" fill="#7d4336"/>
            <path id="Trazado_797847" data-name="Trazado 797847" d="M321.169,328.194c.016-.032.293.056.675.325a3.774,3.774,0,0,1,1.559,3.155c-.018.467-.117.741-.152.734a4.853,4.853,0,0,0-2.082-4.215" transform="translate(-142.659 -145.777)" fill="#7d4336"/>
            <g id="Grupo_1064673" data-name="Grupo 1064673" transform="translate(213.316 182.422)" opacity="0.3">
              <g id="Grupo_1064672" data-name="Grupo 1064672">
                <g id="Grupo_1064671" data-name="Grupo 1064671" clip-path="url(#clip-path-11)">
                  <path id="Trazado_797848" data-name="Trazado 797848" d="M383.792,355.564c1.338-.01,52.287-3.741,52.287-3.741l17.972-3.717-4.439-19.9-65.679,21.135Z" transform="translate(-383.792 -328.209)"/>
                </g>
              </g>
            </g>
            <path id="Trazado_797849" data-name="Trazado 797849" d="M371.64,326.56l47.166-10.841s42.94-25.029,43.6-25.433c.732-.449-3.32,25.433-3.32,25.433S431.729,330.131,423.855,332c-4.288,1.018-51.869,4.972-51.869,4.972Z" transform="translate(-165.078 -128.939)" fill="#824e44"/>
            <path id="Trazado_797850" data-name="Trazado 797850" d="M540.232,164.593c2.907-3.136,10-2.591,11.663-.493a5.416,5.416,0,0,1,7.067,2.426l7.536,1.725a7.869,7.869,0,0,1,3.612,1.5,2.706,2.706,0,0,1,.6,3.533,4.1,4.1,0,0,1,1.665,6.582,2.862,2.862,0,0,1-.465,4.137,28.669,28.669,0,0,1,4.783,8.457,5.837,5.837,0,0,1,.338,3.983c-.486,1.272-2.174,2.136-3.271,1.328a3.35,3.35,0,0,1,.123,3.619c1.277.044,1.639,2.023.751,2.942a4.662,4.662,0,0,1-3.591.962,6.151,6.151,0,0,0-3.717.6,1.163,1.163,0,0,0,.409.814,5.253,5.253,0,0,1,1.1,7.168c-.154.211-.3.407-.425.583a11.494,11.494,0,0,1-3.737,2.57c-2.9,1.478-4.621,1.177-7.85,1.611.859,2.088-4.423,6.644-10.373,2.058a115.606,115.606,0,0,1-33.009,4.144c-1.767-.012-3.888-.272-4.657-1.864a4.388,4.388,0,0,1-4.025-1.362,12.942,12.942,0,0,1-2.333-3.758,7.7,7.7,0,0,1-5.473-6.99,9.512,9.512,0,0,1-3.523-6.8,5.583,5.583,0,0,1-3.128-7.568,33.681,33.681,0,0,1,3.777-10.39c-2.021-.457-2.757-3.2-1.906-5.087s2.707-3.092,4.466-4.188c-1.518.389-2.82-1.526-2.444-3.048s1.757-2.56,3.109-3.354a28.513,28.513,0,0,1,6.3-2.738c.747-2.66,4.184-5.662,6.692-6.819,10.117-4.667,17.185-5.8,29.927,3.722" transform="translate(-217.55 -69.9)" fill="#263238"/>
            <path id="Trazado_797851" data-name="Trazado 797851" d="M528.6,193.126c.87-6.925,6.007-15.169,12.889-14.006l21.292,6.812a4.085,4.085,0,0,1,3.391,4.361l-3.611,46.3a12.736,12.736,0,0,1-11.127,11.649h0a12.738,12.738,0,0,1-14.3-12.88c.06-3.185.1-5.578.1-5.563s-8.791-2.027-9.911-13.73c-.557-5.82.32-15.252,1.287-22.946" transform="translate(-234.15 -79.514)" fill="#824e44"/>
            <path id="Trazado_797852" data-name="Trazado 797852" d="M536.759,220.333a1.489,1.489,0,0,0,1.34,1.589,1.425,1.425,0,0,0,1.616-1.245,1.491,1.491,0,0,0-1.338-1.589,1.426,1.426,0,0,0-1.617,1.246" transform="translate(-238.419 -97.311)" fill="#263238"/>
            <path id="Trazado_797853" data-name="Trazado 797853" d="M532.892,212.37c.172.206,1.35-.558,2.949-.455,1.6.081,2.721.977,2.907.791.091-.081-.076-.443-.563-.846a4.092,4.092,0,0,0-2.312-.874,3.929,3.929,0,0,0-2.363.6c-.515.347-.7.687-.618.779" transform="translate(-236.696 -93.715)" fill="#263238"/>
            <path id="Trazado_797854" data-name="Trazado 797854" d="M563.144,221.439a1.489,1.489,0,0,0,1.34,1.588,1.424,1.424,0,0,0,1.615-1.245,1.49,1.49,0,0,0-1.338-1.589,1.425,1.425,0,0,0-1.617,1.246" transform="translate(-250.139 -97.803)" fill="#263238"/>
            <path id="Trazado_797855" data-name="Trazado 797855" d="M561.144,214.665c.173.205,1.352-.557,2.95-.454,1.6.08,2.722.976,2.907.791.09-.081-.074-.442-.564-.847a4.083,4.083,0,0,0-2.312-.874,3.926,3.926,0,0,0-2.363.6c-.514.347-.7.687-.619.779" transform="translate(-249.245 -94.734)" fill="#263238"/>
            <path id="Trazado_797856" data-name="Trazado 797856" d="M546.189,225.853a10.611,10.611,0,0,0-2.569-.63c-.406-.067-.787-.173-.839-.455a2.085,2.085,0,0,1,.348-1.194q.669-1.447,1.4-3.035c1.952-4.324,3.393-7.889,3.218-7.966s-1.9,3.365-3.852,7.688q-.707,1.6-1.351,3.057a2.362,2.362,0,0,0-.312,1.59,1.028,1.028,0,0,0,.635.639,2.767,2.767,0,0,0,.688.139,10.433,10.433,0,0,0,2.633.167" transform="translate(-240.831 -94.422)" fill="#263238"/>
            <path id="Trazado_797857" data-name="Trazado 797857" d="M545.275,267.857a29.543,29.543,0,0,0,15.778-3.175s-4.26,7.727-15.792,5.922Z" transform="translate(-242.198 -117.569)" fill="#5b342f"/>
            <path id="Trazado_797858" data-name="Trazado 797858" d="M560.62,203.035c.131.445,1.74.338,3.6.681,1.87.305,3.349.948,3.622.574.122-.18-.116-.6-.7-1.064a6.374,6.374,0,0,0-5.5-.956c-.706.235-1.074.555-1.019.765" transform="translate(-249.018 -89.733)" fill="#263238"/>
            <path id="Trazado_797859" data-name="Trazado 797859" d="M534.51,202.45c.259.381,1.384.072,2.71.137,1.328.018,2.431.4,2.714.032.125-.178-.03-.552-.5-.927a3.929,3.929,0,0,0-4.37-.136c-.491.344-.669.709-.555.894" transform="translate(-237.408 -89.263)" fill="#263238"/>
            <path id="Trazado_797860" data-name="Trazado 797860" d="M520.185,195.166A7.97,7.97,0,0,1,522.2,190.2a29.606,29.606,0,0,0,2.187-2.039c1.336-1.692,1.192-4.076,1.782-6.15a8.767,8.767,0,0,1,5.53-5.8c2.191-.739,4.655-.592,6.716-1.64,1.523-.775,2.7-2.145,4.263-2.828,3.051-1.331,6.535.283,9.364,2.036.528,2.28-.944,4.22-2.361,6.082a8.115,8.115,0,0,1-6.024,3.148c-1.814.078-3.923-.368-5.22.9-1.365,1.337-.887,3.742-2.015,5.282-1.613,2.2-5.181,1.291-7.561,2.628-1.837,1.033-2.64,3.2-3.589,5.078s-2.567,3.834-4.67,3.7a23.735,23.735,0,0,1-.413-5.434" transform="translate(-231.043 -76.07)" fill="#263238"/>
            <path id="Trazado_797861" data-name="Trazado 797861" d="M569.257,183.1a41.136,41.136,0,0,1,15.488,3.074,7.489,7.489,0,0,1,3.783,2.708,7.344,7.344,0,0,1,.739,4.038c-.127,4.345-1.97,9.633-3.7,13.622l-5.484,3.153c-4.162-1.062-2.117-8.243-1.851-11.856a8.54,8.54,0,0,1-4.856-7.628,9.452,9.452,0,0,1-4.122-7.111" transform="translate(-252.857 -81.329)" fill="#263238"/>
            <path id="Trazado_797862" data-name="Trazado 797862" d="M588.71,226.282c.208-2.482,3.268-2.911,5.381-1.593,1.16.724,2.019,2.13,1.821,4.765-.527,7.029-7.475,5.051-7.472,4.848,0-.126.027-5.113.27-8.02" transform="translate(-261.378 -99.48)" fill="#824e44"/>
            <path id="Trazado_797863" data-name="Trazado 797863" d="M592.657,233.7c.033-.02.116.1.316.206a1.229,1.229,0,0,0,.914.087,3.041,3.041,0,0,0,1.606-2.613,4.056,4.056,0,0,0-.212-1.779,1.416,1.416,0,0,0-.85-1.009.625.625,0,0,0-.747.281c-.109.19-.075.333-.113.342-.021.016-.142-.129-.063-.415a.785.785,0,0,1,.31-.42.923.923,0,0,1,.69-.128,1.726,1.726,0,0,1,1.2,1.185,4.177,4.177,0,0,1,.277,1.991c-.151,1.413-.975,2.684-2.014,2.9a1.316,1.316,0,0,1-1.106-.27c-.2-.19-.23-.35-.2-.361" transform="translate(-263.247 -101.379)" fill="#5b342f"/>
            <path id="Trazado_797864" data-name="Trazado 797864" d="M586.062,217.761a5.881,5.881,0,0,0,1.13-.053,4.151,4.151,0,0,0,1.238-.351l-.084-.044a3.5,3.5,0,0,0,5.534,2.321l-.119-.023a1.448,1.448,0,0,0,.911.631,2.006,2.006,0,0,0,1.142-.075,1.841,1.841,0,0,0,.93-.728,2.457,2.457,0,0,0,.378-1.152,3.6,3.6,0,0,0-.725-2.361,10.549,10.549,0,0,0-1.823-1.839l-.015.163a2.48,2.48,0,0,0,1.146-1.648,3.609,3.609,0,0,0-.164-2.079,5.565,5.565,0,0,0-1.2-1.777,16.824,16.824,0,0,0-1.64-1.439l.008.159a2.644,2.644,0,0,0,.73-2.03,3.81,3.81,0,0,0-.759-2.1,9.408,9.408,0,0,0-3.389-2.456l.054.122a4.672,4.672,0,0,0-4.973-5.857l.106.122a4.027,4.027,0,0,0-.891-3.44,3.974,3.974,0,0,0-2.946-1.513l.086.09a3.953,3.953,0,0,0-1.542-3.1,3.864,3.864,0,0,0-2.927-.864l.079.07a3.871,3.871,0,0,0-.539-1.815,4.992,4.992,0,0,0-1.045-1.31,4.043,4.043,0,0,0-2.388-1.081l-.264-.023c-.086,0-.168.011-.248.015a3.533,3.533,0,0,0-.446.043,4.883,4.883,0,0,0-.675.177l-.4.161a.842.842,0,0,0-.131.061.883.883,0,0,0,.139-.042l.4-.142a5.216,5.216,0,0,1,.673-.158,3.651,3.651,0,0,1,.44-.034c.079,0,.16-.012.244-.01l.258.027a3.982,3.982,0,0,1,2.322,1.086,4.888,4.888,0,0,1,1.01,1.289,3.763,3.763,0,0,1,.509,1.752v.081l.079-.011a3.724,3.724,0,0,1,2.807.851,3.79,3.79,0,0,1,1.466,2.967l0,.089.088,0a3.8,3.8,0,0,1,2.8,1.456,3.842,3.842,0,0,1,.844,3.274l-.033.136.14-.013a4.469,4.469,0,0,1,4.748,5.6l-.022.083.076.039a9.241,9.241,0,0,1,3.315,2.395,3.6,3.6,0,0,1,.716,1.984,2.426,2.426,0,0,1-.665,1.869l-.087.083.1.076a8.274,8.274,0,0,1,2.78,3.125,3.407,3.407,0,0,1,.158,1.958,2.279,2.279,0,0,1-1.046,1.52l-.124.07.109.093a10.385,10.385,0,0,1,1.8,1.8,3.412,3.412,0,0,1,.7,2.235,1.888,1.888,0,0,1-1.184,1.73,1.547,1.547,0,0,1-1.853-.479l-.047-.076-.073.053a3.406,3.406,0,0,1-3.551.273,3.45,3.45,0,0,1-1.77-2.478l-.012-.079-.072.036a4.052,4.052,0,0,1-1.2.352,5.872,5.872,0,0,1-1.112.066,4.316,4.316,0,0,1-1.71-.359,1.629,1.629,0,0,1-.8-.7c-.108-.22-.123-.353-.137-.349a.432.432,0,0,0,.019.094.969.969,0,0,0,.09.269,1.628,1.628,0,0,0,.8.745" transform="translate(-253.277 -80.968)" fill="#455a64"/>
            <path id="Trazado_797865" data-name="Trazado 797865" d="M611.653,206.206a2.39,2.39,0,0,0,.272-.42,3.616,3.616,0,0,0,.4-1.387,3.547,3.547,0,0,0-.538-2.218,3.74,3.74,0,0,0-2.521-1.666l.058.086a4.824,4.824,0,0,0-.576-3.484,4.7,4.7,0,0,0-1.352-1.487,11.168,11.168,0,0,0-1.909-.939,3.875,3.875,0,0,1-.913-.564,2.4,2.4,0,0,1-.628-.877c-.3-.68-.387-1.479-.77-2.212a4.278,4.278,0,0,0-4.249-2.2l.119.121a5.638,5.638,0,0,0-6.135-6.5l.116.118a4.951,4.951,0,0,0-7.619-4.76l.113.013a6.774,6.774,0,0,0-2.432-1.542,10.2,10.2,0,0,0-2.515-.624,11.81,11.81,0,0,0-4.177.211,8.373,8.373,0,0,0-2.5.987,4.811,4.811,0,0,0-.579.406c-.127.1-.188.152-.188.152.012.016.267-.2.795-.511a8.666,8.666,0,0,1,2.492-.933,11.852,11.852,0,0,1,4.136-.167,10.072,10.072,0,0,1,2.473.631,6.62,6.62,0,0,1,2.363,1.515l.051.053.062-.04a4.76,4.76,0,0,1,7.312,4.584l-.016.131.131-.013a5.432,5.432,0,0,1,5.9,6.255l-.022.141.141-.019A4.076,4.076,0,0,1,603,191.132c.364.685.454,1.479.771,2.2a2.581,2.581,0,0,0,.68.942,4.056,4.056,0,0,0,.959.589,11.124,11.124,0,0,1,1.886.915A4.541,4.541,0,0,1,608.6,197.2a4.684,4.684,0,0,1,.582,3.368l-.016.074.074.012a3.628,3.628,0,0,1,2.45,1.587,3.491,3.491,0,0,1,.554,2.152,3.719,3.719,0,0,1-.356,1.374c-.143.294-.246.432-.237.438" transform="translate(-254.578 -77.986)" fill="#455a64"/>
            <path id="Trazado_797866" data-name="Trazado 797866" d="M517.9,207.1a.689.689,0,0,0,.037-.576,1.368,1.368,0,0,0-.4-.59,2.394,2.394,0,0,0-.862-.452,4.134,4.134,0,0,1-1.091-.477,2.184,2.184,0,0,1-.773-1.143,4.286,4.286,0,0,1-.15-1.614c.035-.58.137-1.194.148-1.852a18.881,18.881,0,0,0-.825-4.175,5.845,5.845,0,0,1-.056-2.315,2.819,2.819,0,0,1,1.31-1.957,10.539,10.539,0,0,1,2.481-.794,4.26,4.26,0,0,0,1.271-.566,2.834,2.834,0,0,0,.909-1.1,13.667,13.667,0,0,0,.787-2.757,4.7,4.7,0,0,1,.51-1.326,2.151,2.151,0,0,1,1.053-.892,7.856,7.856,0,0,1,1.951-.233,3.047,3.047,0,0,0,.99-.231,1.947,1.947,0,0,0,.789-.644,6.858,6.858,0,0,0,.767-1.785,4.33,4.33,0,0,1,.91-1.573,4.242,4.242,0,0,1,3.09-1.413,4.36,4.36,0,0,1,2.969,1.132l.092.086.054-.113a6.7,6.7,0,0,1,4.24-3.537,6.177,6.177,0,0,1,2.355-.164,5.634,5.634,0,0,1,1.924.571,4.941,4.941,0,0,1,2.023,1.925,4.739,4.739,0,0,1,.338.668l.081.175a.263.263,0,0,0,.032.058.222.222,0,0,0-.018-.063l-.067-.181a4.244,4.244,0,0,0-.316-.685,4.918,4.918,0,0,0-2.023-1.991,5.708,5.708,0,0,0-1.958-.6,6.283,6.283,0,0,0-2.41.147,6.846,6.846,0,0,0-4.368,3.6l.146-.028a4.544,4.544,0,0,0-3.1-1.194,4.437,4.437,0,0,0-3.24,1.471,4.536,4.536,0,0,0-.955,1.641,6.747,6.747,0,0,1-.74,1.73,2.062,2.062,0,0,1-1.628.788,7.916,7.916,0,0,0-2.006.245,2.372,2.372,0,0,0-1.161.981,4.877,4.877,0,0,0-.534,1.386,13.616,13.616,0,0,1-.769,2.716,2.624,2.624,0,0,1-.841,1.023,4.064,4.064,0,0,1-1.208.538,10.629,10.629,0,0,0-2.525.821,2.7,2.7,0,0,0-.937.909,3.565,3.565,0,0,0-.456,1.181,6,6,0,0,0,.067,2.389,19.12,19.12,0,0,1,.847,4.137c-.006.643-.1,1.257-.132,1.845a4.4,4.4,0,0,0,.172,1.659,2.282,2.282,0,0,0,.828,1.189,4.138,4.138,0,0,0,1.123.474,2.344,2.344,0,0,1,.846.421,1.339,1.339,0,0,1,.4.555.858.858,0,0,1,0,.563" transform="translate(-228.159 -78.115)" fill="#455a64"/>
            <path id="Trazado_797867" data-name="Trazado 797867" d="M497.055,191.857a.792.792,0,0,0,.075-.13l.2-.391.751-1.513c.33-.655.7-1.475,1.227-2.37a6.268,6.268,0,0,1,2.4-2.486c.574-.3,1.236-.491,1.9-.774a4.436,4.436,0,0,0,.971-.546,2.423,2.423,0,0,0,.734-.906c.346-.725.37-1.552.649-2.3a1.984,1.984,0,0,1,.694-.95,3.778,3.778,0,0,1,1.139-.5,7.2,7.2,0,0,0,1.253-.456,2.265,2.265,0,0,0,.979-.979,10.288,10.288,0,0,0,.648-2.72,3.39,3.39,0,0,1,.489-1.283,1.761,1.761,0,0,1,1.129-.716c.929-.177,1.918.163,2.951.018a2.487,2.487,0,0,0,1.366-.694,6.4,6.4,0,0,0,.9-1.2,13.486,13.486,0,0,1,.794-1.2,2.712,2.712,0,0,1,1.049-.868,4.131,4.131,0,0,1,2.657.068,6.212,6.212,0,0,0,2.669.277,7.158,7.158,0,0,0,2.343-1.019,12.072,12.072,0,0,1,2.09-1.115,7.265,7.265,0,0,1,4.178-.063,7.784,7.784,0,0,1,3.066,1.646,8.7,8.7,0,0,1,1.673,2.049,9.859,9.859,0,0,1,.7,1.526l.156.41a.853.853,0,0,0,.06.138.721.721,0,0,0-.039-.145c-.034-.1-.079-.243-.137-.419a9,9,0,0,0-.673-1.552,8.619,8.619,0,0,0-1.666-2.1,7.869,7.869,0,0,0-3.1-1.7,7.39,7.39,0,0,0-4.278.042,12.179,12.179,0,0,0-2.128,1.12,6.975,6.975,0,0,1-2.282.987,6.026,6.026,0,0,1-2.585-.282,8.889,8.889,0,0,0-1.366-.262,2.687,2.687,0,0,0-2.556,1.129,13.508,13.508,0,0,0-.808,1.219,6.293,6.293,0,0,1-.865,1.156,2.268,2.268,0,0,1-1.25.636c-.962.142-1.95-.2-2.96-.016a1.975,1.975,0,0,0-1.26.8,3.572,3.572,0,0,0-.522,1.365,10.285,10.285,0,0,1-.624,2.666,2.059,2.059,0,0,1-.892.9,7.051,7.051,0,0,1-1.217.445,3.954,3.954,0,0,0-1.195.537,2.184,2.184,0,0,0-.756,1.04c-.287.794-.308,1.613-.633,2.293a2.88,2.88,0,0,1-1.61,1.376c-.65.282-1.316.48-1.905.792a6.359,6.359,0,0,0-2.433,2.559c-.521.909-.88,1.734-1.2,2.394l-.715,1.531-.181.4a.8.8,0,0,0-.055.14" transform="translate(-220.786 -73.999)" fill="#455a64"/>
            <path id="Trazado_797868" data-name="Trazado 797868" d="M508.218,199.007a.576.576,0,0,0-.128-.024.786.786,0,0,0-.376.077,1.511,1.511,0,0,0-.721,1.235,3.726,3.726,0,0,0,.132,1.055,4.347,4.347,0,0,1,.161,1.221,2.717,2.717,0,0,1-.517,1.291c-.281.42-.635.83-.925,1.33a2.019,2.019,0,0,0-.206,1.769c.214.6.641,1.112.844,1.724a2.624,2.624,0,0,1-.225,1.934c-.285.639-.686,1.256-.968,1.965a3.178,3.178,0,0,0-.245,1.139,2.872,2.872,0,0,0,.247,1.169,13.692,13.692,0,0,0,1.3,2.029,3.234,3.234,0,0,1,.705,2.241,10.649,10.649,0,0,1-.892,2.36,3.66,3.66,0,0,0-.283,1.289,2.908,2.908,0,0,0,.309,1.271,10.736,10.736,0,0,0,1.483,2.016,5.712,5.712,0,0,1,1.2,2.013,17.266,17.266,0,0,0,.693,2.2,2.551,2.551,0,0,0,.7.9,3.24,3.24,0,0,0,.987.5,8.809,8.809,0,0,1,.97.365,3.5,3.5,0,0,1,.8.567,7.181,7.181,0,0,1,1.128,1.526c.314.53.605,1.05.934,1.518a4.825,4.825,0,0,0,2.42,1.845,5.184,5.184,0,0,0,2.3.259,4.6,4.6,0,0,0,1.409-.386,3.462,3.462,0,0,0,.446-.246,5.354,5.354,0,0,1-1.864.55,5.169,5.169,0,0,1-2.247-.289,4.714,4.714,0,0,1-2.337-1.82c-.319-.462-.6-.98-.916-1.515a7.315,7.315,0,0,0-1.147-1.57,3.657,3.657,0,0,0-.846-.6,8.725,8.725,0,0,0-.988-.378,3.076,3.076,0,0,1-.929-.47,2.355,2.355,0,0,1-.641-.838,17.255,17.255,0,0,1-.676-2.18,5.915,5.915,0,0,0-1.229-2.084,10.656,10.656,0,0,1-1.453-1.975,2.7,2.7,0,0,1-.286-1.178,3.457,3.457,0,0,1,.269-1.211,10.686,10.686,0,0,0,.9-2.411,2.683,2.683,0,0,0-.151-1.279,5.178,5.178,0,0,0-.591-1.106,13.639,13.639,0,0,1-1.291-1.994,2.663,2.663,0,0,1-.233-1.085,2.974,2.974,0,0,1,.228-1.07c.267-.685.665-1.3.956-1.96a2.8,2.8,0,0,0,.222-2.065c-.225-.655-.655-1.159-.857-1.725a1.861,1.861,0,0,1,.182-1.639c.273-.484.624-.9.906-1.329a2.827,2.827,0,0,0,.524-1.358,4.4,4.4,0,0,0-.181-1.252,3.7,3.7,0,0,1-.149-1.025,1.479,1.479,0,0,1,.658-1.2.908.908,0,0,1,.485-.091" transform="translate(-224.334 -88.386)" fill="#455a64"/>
            <path id="Trazado_797869" data-name="Trazado 797869" d="M614.449,200.762a2.6,2.6,0,0,0,.559-.045,3.848,3.848,0,0,0,1.494-.61,3.759,3.759,0,0,0,1.52-2.047,3.956,3.956,0,0,0-.513-3.333,9.939,9.939,0,0,0-1.381-1.471,4.746,4.746,0,0,1-1.286-1.7,3.1,3.1,0,0,1,.15-2.234c.283-.75.709-1.478.982-2.309a6.9,6.9,0,0,0-5.037-8.883l.061.166a3.5,3.5,0,0,0,.638-1.527,4.43,4.43,0,0,0-.074-1.676,4.852,4.852,0,0,0-.678-1.56,5.751,5.751,0,0,0-1.171-1.259,10.9,10.9,0,0,0-4.6-1.956,16.5,16.5,0,0,0-4.729-.291l.111.1a5,5,0,0,0-2.747-4.38,5.1,5.1,0,0,0-2.464-.521,8.224,8.224,0,0,0-2.319.567,4.632,4.632,0,0,1-1.09.231,2.855,2.855,0,0,1-1.058-.131,8.63,8.63,0,0,1-1.845-.94,7.556,7.556,0,0,0-1.764-.846,6.139,6.139,0,0,0-1.774-.271,5.92,5.92,0,0,0-2.937.743,6.086,6.086,0,0,0-1.74,1.455,5.824,5.824,0,0,0-.762,1.2,3.152,3.152,0,0,0-.184.455c.009,0,.068-.154.216-.439a6.189,6.189,0,0,1,.783-1.169,6.115,6.115,0,0,1,1.735-1.411,5.847,5.847,0,0,1,2.887-.7,6,6,0,0,1,1.733.277,7.436,7.436,0,0,1,1.726.843,8.716,8.716,0,0,0,1.877.967,3.009,3.009,0,0,0,1.118.143,4.811,4.811,0,0,0,1.131-.233,8.1,8.1,0,0,1,2.275-.55,4.911,4.911,0,0,1,2.37.51,4.807,4.807,0,0,1,2.628,4.209v.111l.111-.009a16.343,16.343,0,0,1,4.668.293,10.723,10.723,0,0,1,4.5,1.916,5.532,5.532,0,0,1,1.128,1.211,4.627,4.627,0,0,1,.648,1.491,4.192,4.192,0,0,1,.072,1.593,3.3,3.3,0,0,1-.6,1.433l-.1.13.157.036a6.713,6.713,0,0,1,4.908,8.621c-.261.807-.682,1.537-.97,2.3a3.268,3.268,0,0,0-.139,2.352,4.878,4.878,0,0,0,1.336,1.75,9.861,9.861,0,0,1,1.372,1.44,3.848,3.848,0,0,1,.523,3.225,3.691,3.691,0,0,1-1.459,2.016,3.943,3.943,0,0,1-1.459.634c-.358.071-.552.071-.551.082" transform="translate(-257.546 -72.775)" fill="#263238"/>
            <path id="Trazado_797870" data-name="Trazado 797870" d="M506.448,174.635a.649.649,0,0,0,.023-.134c.011-.1.026-.231.044-.395l.168-1.517c.081-.657.188-1.461.383-2.379a13.592,13.592,0,0,1,.984-3.02,9.022,9.022,0,0,1,2.3-3.043,6.659,6.659,0,0,1,1.825-1.08,19.125,19.125,0,0,1,2.2-.591,6.389,6.389,0,0,0,2.238-.944,10.071,10.071,0,0,0,1.826-1.752c.557-.649,1.089-1.335,1.706-1.952a7.162,7.162,0,0,1,2.141-1.522,12.7,12.7,0,0,1,5.1-.991,33.17,33.17,0,0,1,4.89.287,25.107,25.107,0,0,1,7.917,2.364,17.808,17.808,0,0,1,4.537,3.234c.23.237.442.441.613.63l.417.492.26.3a.632.632,0,0,0,.094.1.654.654,0,0,0-.077-.112l-.244-.313-.4-.507c-.166-.194-.375-.4-.6-.646a17.343,17.343,0,0,0-4.527-3.311,24.918,24.918,0,0,0-7.959-2.424,32.864,32.864,0,0,0-4.922-.3,12.853,12.853,0,0,0-5.191,1.007,7.372,7.372,0,0,0-2.2,1.565c-.629.631-1.162,1.321-1.715,1.966a9.9,9.9,0,0,1-1.784,1.72,6.2,6.2,0,0,1-2.169.921,19.1,19.1,0,0,0-2.219.607,6.83,6.83,0,0,0-1.871,1.12,9.136,9.136,0,0,0-2.321,3.114,13.548,13.548,0,0,0-.965,3.06c-.185.927-.28,1.735-.349,2.4s-.1,1.174-.128,1.522c-.01.165-.018.3-.024.4a.628.628,0,0,0,0,.136" transform="translate(-224.957 -68.894)" fill="#263238"/>
            <path id="Trazado_797871" data-name="Trazado 797871" d="M558.088,241.2a2.63,2.63,0,0,0-1.526-2.232,2.32,2.32,0,0,0-2.6.562,2.085,2.085,0,0,0-.131,2.5,2.275,2.275,0,0,0,1,.885,2.887,2.887,0,0,0,1.7.181,1.967,1.967,0,0,0,1.23-.669,1.846,1.846,0,0,0,.321-1.228" transform="translate(-245.847 -106.067)" fill="#5b342f"/>
            <path id="Trazado_797872" data-name="Trazado 797872" d="M556.324,236.966c-.265.006-.123,1.767-1.526,3.141s-3.293,1.336-3.286,1.584c-.015.112.446.307,1.241.263a4.4,4.4,0,0,0,2.752-1.222,3.833,3.833,0,0,0,1.166-2.625c.006-.742-.227-1.162-.346-1.141" transform="translate(-244.975 -105.257)" fill="#263238"/>
            <path id="Trazado_797873" data-name="Trazado 797873" d="M564.36,285.388l-13.66-5.181s-10.529,6.258-18.645,4.961c-6.29-1.005-6.806-4.239-6.806-4.239l-7.569,1.22s-11.462,9.527-13.856,19.211c-1.414,5.72-1.757,13.208-1.757,19.781,0,2.628,3.349,13.025,3.349,13.025l1.3,15.049-6.332,25.08h66.065V304.9Z" transform="translate(-222.264 -124.465)" fill="#92df98"/>
            <path id="Trazado_797874" data-name="Trazado 797874" d="M474.8,328.336l-9.592-24.022,27.529-19.178,9.32-1.436-2.424,34Z" transform="translate(-206.639 -126.016)" fill="#92df98"/>
            <path id="Trazado_797875" data-name="Trazado 797875" d="M506.032,343.362a1.837,1.837,0,0,1-.174-.333c-.1-.225-.268-.548-.437-.984a27.172,27.172,0,0,1-1.228-3.765,39.267,39.267,0,0,1-.845-12.994,81.044,81.044,0,0,1,2.392-12.828c.419-1.616.779-2.919,1.034-3.816l.3-1.032a1.819,1.819,0,0,1,.124-.355,1.794,1.794,0,0,1-.068.37l-.249,1.045-.944,3.837a89.025,89.025,0,0,0-2.3,12.8,40.831,40.831,0,0,0,.756,12.92A31.247,31.247,0,0,0,505.526,342c.152.441.3.77.385,1a1.876,1.876,0,0,1,.121.356" transform="translate(-223.498 -136.479)" fill="#263238"/>
            <g id="Grupo_1064676" data-name="Grupo 1064676" transform="translate(278.483 171.248)" opacity="0.3">
              <g id="Grupo_1064675" data-name="Grupo 1064675">
                <g id="Grupo_1064674" data-name="Grupo 1064674" clip-path="url(#clip-path-12)">
                  <path id="Trazado_797876" data-name="Trazado 797876" d="M501.947,330.453l.6-.432a67.28,67.28,0,0,1,3.581-21.916c-4.468,6.616-6.371,14.949-4.183,22.348" transform="translate(-501.038 -308.105)"/>
                </g>
              </g>
            </g>
            <g id="Grupo_1064679" data-name="Grupo 1064679" transform="translate(298.334 189.651)" opacity="0.3">
              <g id="Grupo_1064678" data-name="Grupo 1064678">
                <g id="Grupo_1064677" data-name="Grupo 1064677" clip-path="url(#clip-path-13)">
                  <path id="Trazado_797877" data-name="Trazado 797877" d="M536.753,341.84s9.479,35.076,14.757,41.508,8.164,8.353,16.31,9,11.166-8.771,12.974-12.446,1.479-9.188,1.479-9.188l-11.1-6.2-8.782,14.471-22.622-37.768Z" transform="translate(-536.753 -341.215)"/>
                </g>
              </g>
            </g>
            <path id="Trazado_797878" data-name="Trazado 797878" d="M539.423,349.033s9.651,22.453,16.571,35.326c5.859,10.9,17.81,9.69,21.6,3.627s10.138-24.216,10.138-24.216l-20.161-3.542-2.244,6.387-15.284-19.489Z" transform="translate(-239.605 -154.189)" fill="#824e44"/>
            <path id="Trazado_797879" data-name="Trazado 797879" d="M553.39,326.532l-1.483-6.715s-.678-1.858-1.784-.22-.592,4.733-.592,4.733-2.086-15.972-3.922-17.711c-.67-.635-1.59.238-1.59.238s-.215-3.124-1.193-3.1-1.905,2.348-1.905,2.348a1.745,1.745,0,0,0-2.173.5c-.857,1.04-.862,9.723-.862,9.723s-.815-7.153-2.1-7.6c-2.053-.723-2.053,2-2.053,2l.6,9.311a81.854,81.854,0,0,0,2.532,10.35c1.412,4,2.235,4.037,2.235,4.037l9.2-.245s2.075-1.9,3.712-3.368a4.444,4.444,0,0,0,1.372-4.268" transform="translate(-237.08 -134.924)" fill="#824e44"/>
            <path id="Trazado_797880" data-name="Trazado 797880" d="M582.136,378.617a1.352,1.352,0,0,1-.156-.279l-.393-.818-.716-1.245c-.293-.476-.65-1.006-1.033-1.6-1.592-2.332-4-5.408-6.737-8.738s-5.27-6.311-7.044-8.515c-.889-1.1-1.59-2.007-2.061-2.643l-.526-.745a1.284,1.284,0,0,1-.167-.271,1.378,1.378,0,0,1,.215.237l.568.71c.5.614,1.221,1.5,2.129,2.582,1.813,2.168,4.364,5.127,7.109,8.461s5.128,6.438,6.684,8.809c.374.6.72,1.142,1,1.63.266.5.5.922.678,1.277l.347.846a1.329,1.329,0,0,1,.1.3" transform="translate(-250.212 -157.138)" fill="#5b342f"/>
            <path id="Trazado_797881" data-name="Trazado 797881" d="M599.872,288.455a19.022,19.022,0,0,1,13.774,14.706c2.547,11.456,1.757,35.821,1.757,35.821l-29.97-5.275,7.291-41.6Z" transform="translate(-260.043 -128.128)" fill="#92df98"/>
            <path id="Trazado_797882" data-name="Trazado 797882" d="M589.553,324.213a.455.455,0,0,1-.007.132c-.014.1-.03.229-.051.384q-.08.539-.22,1.473c-.207,1.3-.5,3.148-.863,5.423-.76,4.6-1.806,10.94-2.97,17.988l-.117-.166.98.175,18.6,3.358,5.631,1.05,1.528.3.4.085a.516.516,0,0,1,.133.039.493.493,0,0,1-.138-.009l-.4-.057-1.538-.246-5.647-.96-18.616-3.275-.98-.174-.142-.026.024-.141c1.2-7.043,2.275-13.375,3.058-17.974.4-2.269.724-4.109.953-5.408q.173-.927.272-1.465c.032-.153.057-.277.078-.38a.441.441,0,0,1,.036-.127" transform="translate(-259.909 -144.012)" fill="#263238"/>
            <path id="Trazado_797883" data-name="Trazado 797883" d="M596.107,307.769a3.653,3.653,0,0,1,.228-.714c.166-.452.415-1.1.754-1.9a17.9,17.9,0,0,1,3.6-5.693,10.771,10.771,0,0,1,3.063-2.133,12.348,12.348,0,0,1,2.9-.927,11.726,11.726,0,0,1,2.039-.211,3.091,3.091,0,0,1,.75.035c0,.061-1.074.015-2.748.376a11.693,11.693,0,0,0-5.8,3.065,19.106,19.106,0,0,0-3.616,5.571l-.836,1.857a3.73,3.73,0,0,1-.333.672" transform="translate(-264.783 -131.565)" fill="#263238"/>
            <path id="Trazado_797884" data-name="Trazado 797884" d="M546.135,319.6a10.113,10.113,0,0,1-.151-1.7c-.056-1.052-.116-2.506-.123-4.115a40.807,40.807,0,0,1,.166-4.119,7.422,7.422,0,0,1,.279-1.686,15.275,15.275,0,0,1-.075,1.7c-.057,1.048-.087,2.5-.081,4.1.014,1.559.027,2.968.038,4.109a9.808,9.808,0,0,1-.054,1.706" transform="translate(-242.465 -136.801)" fill="#5b342f"/>
            <path id="Trazado_797885" data-name="Trazado 797885" d="M551.718,309.536a7.306,7.306,0,0,1,.088,1.389c.026.856.062,2.039.128,3.344s.154,2.485.217,3.34a7.28,7.28,0,0,1,.054,1.391,6.181,6.181,0,0,1-.258-1.37c-.115-.852-.233-2.035-.3-3.346s-.071-2.5-.044-3.359a6.137,6.137,0,0,1,.116-1.389" transform="translate(-245.008 -137.492)" fill="#5b342f"/>
            <path id="Trazado_797886" data-name="Trazado 797886" d="M159.641,174.614c-.743-4.947-1.968-10.355-5.232-14.145a31.092,31.092,0,0,0-7.755-6.7,21.769,21.769,0,0,0-9.753-3.027l-2.322,2.058A28.56,28.56,0,0,1,152.267,166.4a33.929,33.929,0,0,1,3.755,22.177c-.809,4.941-2.6,9.657-3.968,14.473s-2.306,9.9-1.36,14.817c4.085-1.587,2.93,1.1,4.654-2.932s2.619-12.895,3.619-17.161a67.757,67.757,0,0,0,.674-23.156" transform="translate(-59.778 -66.959)" fill="#74c67b"/>
            <path id="Trazado_797887" data-name="Trazado 797887" d="M133.716,163.617c-6.263-9.733-20.879-12.733-20.879-12.733-21.4-1.531-25.222,14.912-27.382,29.889-1.343,9.313,3.6,38.407,3.6,38.407l5.244,1.894,34.435-.013c-.018-.628,2.437-5.9,3.037-7.617,3.166-15.567,5.633-44.1,1.949-49.828" transform="translate(-37.855 -66.977)" fill="#263238"/>
            <path id="Trazado_797888" data-name="Trazado 797888" d="M174.189,266.231v0h0Z" transform="translate(-77.373 -118.256)" fill="#263238"/>
            <path id="Trazado_797889" data-name="Trazado 797889" d="M124.7,159.978l-1.339-1.276-14.468,5.83a4.039,4.039,0,0,0-3.813,3.91l.127,47.139a13.215,13.215,0,0,0,2.552,8.513l2.032,2.682c4.633,6.117,14.163,5.614,17.832-1.126a5.134,5.134,0,0,0,.511-1.219,9.582,9.582,0,0,0,.216-1.054c.43-3.793.455-7.081.455-7.081.258-4.164.343-5.873.344-5.834,0,0,8.861-1.018,11.256-12.393,1.192-5.657.967-13.44.632-21.1-.464-10.6-7.816-17-16.336-16.993" transform="translate(-46.677 -70.494)" fill="#ffc09d"/>
            <path id="Trazado_797890" data-name="Trazado 797890" d="M133.324,203.168a1.473,1.473,0,0,1-1.493,1.412,1.408,1.408,0,0,1-1.45-1.4,1.474,1.474,0,0,1,1.491-1.413,1.409,1.409,0,0,1,1.452,1.4" transform="translate(-57.914 -89.622)" fill="#263238"/>
            <path id="Trazado_797891" data-name="Trazado 797891" d="M159.545,204.057a1.472,1.472,0,0,1-1.492,1.412,1.408,1.408,0,0,1-1.45-1.4,1.473,1.473,0,0,1,1.491-1.413,1.409,1.409,0,0,1,1.451,1.4" transform="translate(-69.561 -90.017)" fill="#263238"/>
            <path id="Trazado_797892" data-name="Trazado 797892" d="M162.411,195.669c-.192.183-1.264-.7-2.847-.773-1.58-.1-2.782.659-2.944.456-.081-.09.123-.427.647-.77a4.039,4.039,0,0,1,2.368-.6,3.878,3.878,0,0,1,2.254.854c.468.4.615.753.521.834" transform="translate(-69.561 -86.161)" fill="#263238"/>
            <path id="Trazado_797893" data-name="Trazado 797893" d="M133.574,195.707c-.21.162-1.188-.824-2.753-1.061-1.561-.26-2.835.368-2.975.151-.069-.1.165-.412.723-.7a4.039,4.039,0,0,1,2.418-.356,3.885,3.885,0,0,1,2.155,1.082c.423.443.534.812.433.883" transform="translate(-56.782 -86.035)" fill="#263238"/>
            <path id="Trazado_797894" data-name="Trazado 797894" d="M148.041,207.476a10.524,10.524,0,0,1,2.593-.335c.406-.021.793-.082.874-.355a2.057,2.057,0,0,0-.21-1.211q-.5-1.5-1.041-3.137c-1.44-4.463-2.46-8.126-2.28-8.182s1.494,3.516,2.934,7.98q.518,1.65.989,3.153a2.34,2.34,0,0,1,.13,1.6,1.015,1.015,0,0,1-.694.557,2.752,2.752,0,0,1-.691.061,10.331,10.331,0,0,1-2.605-.127" transform="translate(-65.721 -86.286)" fill="#263238"/>
            <path id="Trazado_797895" data-name="Trazado 797895" d="M136.277,247.942a29.208,29.208,0,0,1-15.15-4.866s3.463,8.13,14.992,7.633Z" transform="translate(-53.803 -107.971)" fill="#ff9b6c"/>
            <path id="Trazado_797896" data-name="Trazado 797896" d="M142.746,223.89a2.854,2.854,0,0,0-2.5-1.187,2.606,2.606,0,0,0-1.846.874,1.652,1.652,0,0,0-.22,1.88,1.916,1.916,0,0,0,2.048.629,6.008,6.008,0,0,0,2.083-1.106,1.753,1.753,0,0,0,.476-.446.53.53,0,0,0,.027-.589" transform="translate(-61.287 -98.92)" fill="#ff9b6c"/>
            <path id="Trazado_797897" data-name="Trazado 797897" d="M139.389,219.591c.258,0,.175,1.716,1.585,3.009s3.246,1.2,3.248,1.436c.019.109-.425.313-1.2.3a4.278,4.278,0,0,1-2.716-1.1,3.726,3.726,0,0,1-1.218-2.517c-.029-.721.183-1.137.3-1.121" transform="translate(-61.78 -97.539)" fill="#263238"/>
            <path id="Trazado_797898" data-name="Trazado 797898" d="M135.089,184.85c-.22.4-1.752-.039-3.623-.1-1.871-.1-3.434.213-3.619-.207-.081-.2.238-.56.9-.88a6.3,6.3,0,0,1,5.518.233c.633.375.921.762.824.953" transform="translate(-56.782 -81.348)" fill="#263238"/>
            <path id="Trazado_797899" data-name="Trazado 797899" d="M162.348,183.367c-.3.345-1.368-.082-2.678-.166-1.307-.129-2.433.12-2.669-.268-.1-.188.09-.539.592-.855a3.884,3.884,0,0,1,4.308.35c.445.393.579.771.447.94" transform="translate(-69.726 -80.658)" fill="#263238"/>
            <path id="Trazado_797900" data-name="Trazado 797900" d="M103.8,187.942s8.1,2.522,12.691-17.48c1.568-6.84,7.909-12.379,7.909-12.379l-2.572-.774s-15.982,4.5-16.251,4.7-4.032,8.265-4.032,8.265Z" transform="translate(-45.106 -69.875)" fill="#263238"/>
            <path id="Trazado_797901" data-name="Trazado 797901" d="M102.542,208.464c.041-.854-.845-2.916-1.682-3.09-2.234-.464-6.3-.487-6.626,5.23-.444,7.815,7.495,6.648,7.521,6.425.021-.175.648-5.616.788-8.565" transform="translate(-41.849 -91.142)" fill="#ffc09d"/>
            <path id="Trazado_797902" data-name="Trazado 797902" d="M101.124,215.912c-.033-.027-.141.087-.377.18a1.365,1.365,0,0,1-1.019-.037c-.809-.35-1.43-1.7-1.387-3.111a4.5,4.5,0,0,1,.491-1.928,1.575,1.575,0,0,1,1.084-.987.694.694,0,0,1,.782.419c.092.225.034.378.074.393.021.021.175-.121.131-.447a.87.87,0,0,0-.28-.507,1.026,1.026,0,0,0-.741-.242,1.916,1.916,0,0,0-1.491,1.131,4.629,4.629,0,0,0-.6,2.152c-.039,1.577.683,3.1,1.794,3.488a1.465,1.465,0,0,0,1.257-.136c.253-.179.3-.352.277-.367" transform="translate(-43.439 -93.121)" fill="#ff9b6c"/>
            <path id="Trazado_797903" data-name="Trazado 797903" d="M115.492,185.337a11.527,11.527,0,0,0,1.171-.236,7.061,7.061,0,0,0,2.783-1.615,9.644,9.644,0,0,0,1.451-1.7,13.043,13.043,0,0,0,1.181-2.284,49.066,49.066,0,0,0,1.684-5.684c.549-2.038,1.144-3.964,1.8-5.675a32.576,32.576,0,0,1,2.036-4.415,23.5,23.5,0,0,1,1.79-2.746c.231-.311.432-.535.56-.694a1.7,1.7,0,0,1,.208-.23,1.746,1.746,0,0,1-.176.257c-.117.166-.308.4-.527.715a26.69,26.69,0,0,0-1.727,2.769,34.27,34.27,0,0,0-1.986,4.412c-.64,1.707-1.228,3.627-1.776,5.661a46.939,46.939,0,0,1-1.707,5.7,13.063,13.063,0,0,1-1.216,2.308,9.679,9.679,0,0,1-1.5,1.713,6.923,6.923,0,0,1-2.86,1.584,4.324,4.324,0,0,1-1.192.158" transform="translate(-51.3 -71.096)" fill="#263238"/>
            <path id="Trazado_797904" data-name="Trazado 797904" d="M91.782,215.731A19.273,19.273,0,0,0,91.954,213a42.379,42.379,0,0,0-.758-7.423l-.911-5.071a48.394,48.394,0,0,1-.7-5.856,23.921,23.921,0,0,1,.472-6.469,16.4,16.4,0,0,1,1.1-3.245,15.563,15.563,0,0,1,1.85-3,36.286,36.286,0,0,1,4.922-4.957c1.712-1.483,3.353-2.939,4.811-4.431A60.588,60.588,0,0,0,109.767,164a58.94,58.94,0,0,0,3.808-6.418c.4-.786.7-1.4.886-1.826l.218-.481a1.148,1.148,0,0,0,.068-.167,1.071,1.071,0,0,0-.088.157l-.237.471c-.2.417-.51,1.027-.922,1.806a62.615,62.615,0,0,1-3.859,6.371,61.613,61.613,0,0,1-7.043,8.5c-1.457,1.485-3.093,2.929-4.809,4.412a36.243,36.243,0,0,0-4.953,4.984,15.693,15.693,0,0,0-1.874,3.044,16.52,16.52,0,0,0-1.111,3.289,23.982,23.982,0,0,0-.465,6.525,48.155,48.155,0,0,0,.723,5.877c.337,1.821.651,3.517.937,5.067a44.164,44.164,0,0,1,.824,7.4c.011.879-.019,1.563-.05,2.025-.014.223-.026.4-.034.526a1.075,1.075,0,0,0,0,.18" transform="translate(-39.686 -68.895)" fill="#455a64"/>
            <path id="Trazado_797905" data-name="Trazado 797905" d="M87.256,217.053a19.272,19.272,0,0,0,.172-2.732,42.324,42.324,0,0,0-.758-7.423l-.911-5.071a48.393,48.393,0,0,1-.7-5.856,23.922,23.922,0,0,1,.472-6.469,16.4,16.4,0,0,1,1.1-3.245,15.564,15.564,0,0,1,1.85-3A36.285,36.285,0,0,1,93.4,178.3c1.712-1.483,3.353-2.939,4.811-4.432a60.635,60.635,0,0,0,7.028-8.549,58.916,58.916,0,0,0,3.807-6.418c.4-.786.7-1.4.886-1.826l.218-.481a1.144,1.144,0,0,0,.068-.167,1.109,1.109,0,0,0-.088.158c-.058.114-.137.271-.237.471-.2.417-.51,1.027-.922,1.806a62.62,62.62,0,0,1-3.859,6.371,61.647,61.647,0,0,1-7.043,8.5c-1.458,1.485-3.094,2.929-4.809,4.412a36.24,36.24,0,0,0-4.953,4.984,15.693,15.693,0,0,0-1.874,3.044,16.52,16.52,0,0,0-1.111,3.289,23.981,23.981,0,0,0-.465,6.525,48.155,48.155,0,0,0,.723,5.877c.337,1.821.651,3.517.937,5.067a44.165,44.165,0,0,1,.824,7.4c.011.879-.019,1.563-.05,2.025-.014.223-.026.4-.034.526a1.075,1.075,0,0,0,0,.18" transform="translate(-37.676 -69.483)" fill="#455a64"/>
            <path id="Trazado_797906" data-name="Trazado 797906" d="M68.829,421.6s-.729-6.5,3.432-17.374A54.512,54.512,0,0,1,79.672,390.4l53.893-3.551,4.155,34.747Z" transform="translate(-30.551 -171.835)" fill="#263238"/>
            <path id="Trazado_797907" data-name="Trazado 797907" d="M105.349,312.372c.791-12,0-30.2,0-30.2l-8.9-14.933-11.724-1.838s-.028,8.2-6.161,9.559c-10.487,2.32-17.322-10.294-17.322-10.294-.99,0-15.912,3.134-20.642,7.636C35.739,276.93,27.7,289.2,25.43,292.711c0,0-15.713,22.942-18.015,29.237a11.419,11.419,0,0,0,.771,9.9c.477,1.419,15.021,22.274,26.271,30.605l.878-1.663,5.844-10.017L26.046,325.909,43.6,307.419l3.449-3.242.991,4.366L52.3,329.064s-8.483,16.957-9.671,25.771c0,0,41.7,14.374,67.434,7.276,0,0-5.506-37.736-4.714-49.739" transform="translate(-2.95 -117.563)" fill="#ebebeb"/>
            <path id="Trazado_797908" data-name="Trazado 797908" d="M84.42,410.241s-7.057-1.9-7.769-1.5-5.979,3.179-5.979,3.179a27,27,0,0,1-2.487,2.695s-1.809,1.716-3.056,1.774a5.535,5.535,0,0,1-1.984-.213l-4.881,8.59s2.9,2.759,4.428,2.732,10.037-3.6,10.037-3.6l2.054-.448s7.715,1.116,8.347-1.206l.071-.661-7.58-1.483-2.884.168,5.11-1.319s7.223.352,7.9.234S87.3,418.1,87.08,417.5l-1.491-.351s1.752-.952,1.805-2l-6.679-1.809s4.309-1.605,3.705-3.1" transform="translate(-25.881 -181.532)" fill="#ffc09d"/>
            <path id="Trazado_797909" data-name="Trazado 797909" d="M96.719,421.97a2.784,2.784,0,0,1-.613-.153c-.389-.114-.953-.27-1.654-.451-1.4-.364-3.35-.825-5.51-1.3a6.955,6.955,0,0,0-.784-.152,2.4,2.4,0,0,0-.743.052c-.481.132-.97.3-1.419.45-.9.309-1.708.617-2.371.9a16.755,16.755,0,0,0-1.534.749,3.5,3.5,0,0,1-.554.3,1.9,1.9,0,0,1,.489-.406,11.477,11.477,0,0,1,1.507-.847c.658-.315,1.461-.649,2.367-.975.459-.162.92-.328,1.445-.477a2.69,2.69,0,0,1,.839-.063,6.991,6.991,0,0,1,.826.156c2.163.48,4.109.977,5.5,1.4.7.21,1.254.4,1.634.549a2.2,2.2,0,0,1,.574.27" transform="translate(-36.218 -186.376)" fill="#ff9b6c"/>
            <path id="Trazado_797910" data-name="Trazado 797910" d="M91.328,416.7c-.026.047-.534-.245-1.423-.518A8.009,8.009,0,0,0,83,417.206c-.772.518-1.174.945-1.212.908a3.829,3.829,0,0,1,1.083-1.089,7.493,7.493,0,0,1,7.108-1.049,3.834,3.834,0,0,1,1.352.73" transform="translate(-36.327 -184.566)" fill="#ff9b6c"/>
            <path id="Trazado_797911" data-name="Trazado 797911" d="M213.146,298.088,185.632,277.6l-10.274-6.761-7.59-1.542,3.225,32.076h7.128L208.8,314.711l37.578,3.188.554-11.648Z" transform="translate(-74.521 -119.62)" fill="#ebebeb"/>
            <path id="Trazado_797912" data-name="Trazado 797912" d="M181.831,338.641a2.966,2.966,0,0,1-.04-.476q-.023-.507-.059-1.365c-.046-1.186-.1-2.9-.134-5.024s-.067-4.648-.07-7.453.026-5.89-.024-9.123a72.118,72.118,0,0,0-2.193-16.368c-.486-2.064-.909-3.727-1.193-4.879l-.323-1.328a2.953,2.953,0,0,1-.094-.467,2.9,2.9,0,0,1,.151.452q.139.488.376,1.314c.318,1.143.771,2.8,1.283,4.86a68.917,68.917,0,0,1,2.283,16.41c.051,3.24.007,6.323,0,9.128s-.006,5.33.008,7.451c.017,2.1.031,3.81.041,5.024q0,.86.005,1.367a2.934,2.934,0,0,1-.018.477" transform="translate(-78.931 -129.773)" fill="#263238"/>
            <g id="Grupo_1064682" data-name="Grupo 1064682" transform="translate(96.816 158.419)" opacity="0.3">
              <g id="Grupo_1064681" data-name="Grupo 1064681">
                <g id="Grupo_1064680" data-name="Grupo 1064680" clip-path="url(#clip-path-14)">
                  <path id="Trazado_797913" data-name="Trazado 797913" d="M180.1,308.964a25.61,25.61,0,0,0-5.906-23.942,83.565,83.565,0,0,1,5.977,23.467" transform="translate(-174.189 -285.022)"/>
                </g>
              </g>
            </g>
            <path id="Trazado_797914" data-name="Trazado 797914" d="M112.529,149.964c-17.229,1.546-17.907,22.6-20.2,39.216-3.273,23.733,14.094,28.83,14.094,28.83l-21.574-4.044s-11.8-4.777-11.715-17.877,2.143-29.134,15.879-41.321c11.86-10.523,22.427-5.523,23.513-4.8" transform="translate(-32.486 -65.806)" fill="#74c67b"/>
            <path id="Trazado_797915" data-name="Trazado 797915" d="M133.142,253.933c-1.3-1.175-.8-1.626-4.522-1.969-4.205-.387-8.9,2.306-13.089,2.862s-8.658,0-12.172-2.341c-4.119-2.747-6.367-7.483-8.423-11.987l-10.116,8.321a8.17,8.17,0,0,0-3.036,6.583,2.791,2.791,0,0,0,.24,1.247c.591.89,4.932-1.208,5.807-.6,4.634,3.241,6.608,8.388,10.853,12.123,4.964,4.368,9.555,7.834,13.05,7.714,3.429-.118,9.947-3.822,12.262-8.112,2.139-3.964,4.009-6.854,5.688-9.878.887-1.6,3.971.649,4.342-1.251a2.946,2.946,0,0,0-.885-2.716" transform="translate(-36.325 -106.826)" fill="#74c67b"/>
            <path id="Trazado_797916" data-name="Trazado 797916" d="M73.134,309.19a2.21,2.21,0,0,1,.125.394c.076.289.177.669.3,1.144.254,1.028.61,2.463,1.045,4.224.864,3.571,2.024,8.511,3.254,13.98s2.287,10.435,2.992,14.042c.351,1.8.61,3.268.776,4.283.069.486.124.876.166,1.172a2.165,2.165,0,0,1,.038.412,2.213,2.213,0,0,1-.1-.4c-.055-.293-.128-.679-.22-1.162-.211-1.038-.505-2.486-.866-4.261-.755-3.594-1.846-8.549-3.074-14.019l-3.17-14-.956-4.244L73.2,309.6a2.16,2.16,0,0,1-.068-.408" transform="translate(-32.484 -137.338)" fill="#263238"/>
            <path id="Trazado_797917" data-name="Trazado 797917" d="M133.975,264.486a.47.47,0,0,1-.113.077l-.346.2a15.043,15.043,0,0,1-1.362.714,24.963,24.963,0,0,1-5.36,1.795,42.86,42.86,0,0,1-8.331.945c-3.159.1-6.63-.067-10.26-.3-1.818-.118-3.593-.295-5.293-.559s-3.324-.614-4.856-1a42.956,42.956,0,0,1-7.874-2.885A35.09,35.09,0,0,1,85.3,260.61c-.557-.368-.952-.708-1.235-.915l-.313-.248c-.07-.057-.1-.088-.1-.092a.484.484,0,0,1,.118.068l.33.225c.293.192.7.516,1.263.869a38.161,38.161,0,0,0,4.9,2.765,44.074,44.074,0,0,0,7.852,2.811c1.525.38,3.142.716,4.832.982s3.455.432,5.268.55c3.628.236,7.089.407,10.235.325a44.015,44.015,0,0,0,8.294-.879,26.43,26.43,0,0,0,5.356-1.7c.62-.243,1.06-.52,1.381-.663l.36-.175a.48.48,0,0,1,.128-.051" transform="translate(-37.158 -115.202)" fill="#263238"/>
            <path id="Trazado_797918" data-name="Trazado 797918" d="M103.953,237.427a.444.444,0,0,1-.11-.067l-.306-.22-1.16-.869c-.5-.38-1.088-.879-1.783-1.443-.343-.286-.695-.611-1.076-.946s-.777-.7-1.177-1.094a31.056,31.056,0,0,1-5.022-6.107,18.955,18.955,0,0,1-2.811-9.214,33.1,33.1,0,0,1,1.313-9.59c.762-2.88,1.592-5.428,2.262-7.574l1.578-5.085q.265-.875.419-1.386l.116-.359a.422.422,0,0,1,.049-.12.447.447,0,0,1-.021.127l-.088.367-.367,1.4c-.333,1.213-.838,2.962-1.491,5.114s-1.454,4.708-2.2,7.581a33.348,33.348,0,0,0-1.283,9.511,18.854,18.854,0,0,0,2.75,9.088,31.648,31.648,0,0,0,4.937,6.1q.59.6,1.158,1.1c.375.339.72.669,1.058.96.683.574,1.257,1.085,1.748,1.477l1.124.912.288.243c.064.056.1.087.092.091" transform="translate(-40.196 -85.885)" fill="#263238"/>
            <path id="Trazado_797919" data-name="Trazado 797919" d="M133.444,151.4c.006.06-.9.106-2.281.506a15.435,15.435,0,0,0-2.356.905,21.778,21.778,0,0,0-2.664,1.572,31.173,31.173,0,0,0-4.278,3.666c-1.015,1.03-1.606,1.706-1.642,1.676a2.6,2.6,0,0,1,.369-.515c.251-.32.633-.767,1.125-1.3a26.509,26.509,0,0,1,4.261-3.761,20.05,20.05,0,0,1,2.715-1.576,13.982,13.982,0,0,1,2.416-.862,8.294,8.294,0,0,1,.965-.2,4.938,4.938,0,0,1,.737-.092,2.661,2.661,0,0,1,.633-.015" transform="translate(-53.401 -67.247)" fill="#263238"/>
            <g id="Grupo_1064685" data-name="Grupo 1064685" transform="translate(48.609 99.601)" opacity="0.3">
              <g id="Grupo_1064684" data-name="Grupo 1064684">
                <g id="Grupo_1064683" data-name="Grupo 1064683" clip-path="url(#clip-path-15)">
                  <path id="Trazado_797920" data-name="Trazado 797920" d="M96.867,181.753a13.879,13.879,0,0,0,.326-1.59.867.867,0,0,0-1.673-.4l-3.413,9.05c-2.249,5.965-4.528,12.076-4.646,18.449s1.915,13.463,7.3,16.867l-1.566-2.79c-4.064-5.573-4.177-13.162-2.624-19.882s4.569-13.022,6.292-19.7" transform="translate(-87.456 -179.199)"/>
                </g>
              </g>
            </g>
            <path id="Trazado_797921" data-name="Trazado 797921" d="M162.374,266.686c-.027-.014.136-.252.254-.736a3.424,3.424,0,0,0-.18-2.056,4.1,4.1,0,0,0-2.132-2.142,7.27,7.27,0,0,0-3.741-.561,28.987,28.987,0,0,0-3.82.658c-1.166.266-2.2.554-3.07.815s-1.56.5-2.04.659a4.466,4.466,0,0,1-.755.231,3.815,3.815,0,0,1,.715-.336c.469-.2,1.156-.46,2.018-.749s1.9-.6,3.07-.88a26.941,26.941,0,0,1,3.859-.686,7.385,7.385,0,0,1,3.878.609,4.248,4.248,0,0,1,2.207,2.309,3.393,3.393,0,0,1,.1,2.159,2.486,2.486,0,0,1-.239.542c-.073.114-.116.17-.124.165" transform="translate(-65.247 -115.874)" fill="#263238"/>
            <g id="Grupo_1064688" data-name="Grupo 1064688" transform="translate(51.536 147.401)" opacity="0.3">
              <g id="Grupo_1064687" data-name="Grupo 1064687">
                <g id="Grupo_1064686" data-name="Grupo 1064686" clip-path="url(#clip-path-16)">
                  <path id="Trazado_797922" data-name="Trazado 797922" d="M132.582,269.626a39.658,39.658,0,0,1-21.136,3.093c-7.15-.928-13.108-3-18.725-7.518,0,0,8.955,5.171,22.855,5.281,11.553.091,17.006-.855,17.006-.855" transform="translate(-92.721 -265.2)"/>
                </g>
              </g>
            </g>
          </g>
        </g>
      </g>
    </g>
  </g>
</svg>
