<svg xmlns="http://www.w3.org/2000/svg" xmlns:xlink="http://www.w3.org/1999/xlink" width="186.514" height="277.591" viewBox="0 0 186.514 277.591">
  <defs>
    <clipPath id="clip-path">
      <path id="Trazado_801434" data-name="Trazado 801434" d="M613.18,107.954A59.854,59.854,0,1,1,553.327,48.1a59.854,59.854,0,0,1,59.853,59.854" transform="translate(-493.473 -48.1)" fill="#f6f6f6"/>
    </clipPath>
  </defs>
  <g id="Grupo_1065526" data-name="Grupo 1065526" transform="translate(-707.091 -4270.85)">
    <path id="Trazado_801799" data-name="Trazado 801799" d="M2.82-4.453V0H1.32V-11.375h4.2a4.215,4.215,0,0,1,2.926.953A3.231,3.231,0,0,1,9.5-7.9,3.189,3.189,0,0,1,8.465-5.348,4.4,4.4,0,0,1,5.5-4.453Zm0-1.227h2.7a2.7,2.7,0,0,0,1.844-.567A2.075,2.075,0,0,0,8-7.887a2.143,2.143,0,0,0-.641-1.628A2.525,2.525,0,0,0,5.6-10.148H2.82ZM15.273-7.156a4.331,4.331,0,0,0-.711-.055A1.9,1.9,0,0,0,12.633-6V0H11.188V-8.453h1.406l.023.977a2.251,2.251,0,0,1,2.016-1.133,1.477,1.477,0,0,1,.641.109ZM19.961.156a3.693,3.693,0,0,1-2.8-1.129,4.19,4.19,0,0,1-1.078-3.02v-.266a5.073,5.073,0,0,1,.48-2.246A3.748,3.748,0,0,1,17.91-8.051a3.378,3.378,0,0,1,1.871-.559,3.166,3.166,0,0,1,2.563,1.086,4.7,4.7,0,0,1,.914,3.109v.6H17.531a3,3,0,0,0,.73,2.02,2.3,2.3,0,0,0,1.777.77,2.517,2.517,0,0,0,1.3-.312,3.259,3.259,0,0,0,.93-.828l.883.688A3.55,3.55,0,0,1,19.961.156Zm-.18-7.578a1.928,1.928,0,0,0-1.469.637A3.1,3.1,0,0,0,17.578-5h4.234v-.109a2.753,2.753,0,0,0-.594-1.707A1.815,1.815,0,0,0,19.781-7.422Zm7.836,5.461,2.094-6.492h1.477L28.156,0h-1.1L23.992-8.453h1.477ZM35.984.156a3.693,3.693,0,0,1-2.8-1.129,4.19,4.19,0,0,1-1.078-3.02v-.266A5.073,5.073,0,0,1,32.59-6.5a3.748,3.748,0,0,1,1.344-1.547A3.378,3.378,0,0,1,35.8-8.609a3.166,3.166,0,0,1,2.563,1.086,4.7,4.7,0,0,1,.914,3.109v.6H33.555a3,3,0,0,0,.73,2.02,2.3,2.3,0,0,0,1.777.77,2.517,2.517,0,0,0,1.3-.312,3.259,3.259,0,0,0,.93-.828l.883.688A3.55,3.55,0,0,1,35.984.156ZM35.8-7.422a1.928,1.928,0,0,0-1.469.637A3.1,3.1,0,0,0,33.6-5h4.234v-.109a2.753,2.753,0,0,0-.594-1.707A1.815,1.815,0,0,0,35.8-7.422ZM42.32-8.453l.047,1.063A3.08,3.08,0,0,1,44.9-8.609q2.68,0,2.7,3.023V0H46.156V-5.594a1.946,1.946,0,0,0-.418-1.352,1.675,1.675,0,0,0-1.277-.437,2.086,2.086,0,0,0-1.234.375,2.546,2.546,0,0,0-.828.984V0H40.953V-8.453Zm10.852,7.43a2.082,2.082,0,0,0,1.352-.469,1.649,1.649,0,0,0,.641-1.172h1.367a2.621,2.621,0,0,1-.5,1.383A3.293,3.293,0,0,1,54.8-.234a3.55,3.55,0,0,1-1.629.391A3.482,3.482,0,0,1,50.426-1a4.59,4.59,0,0,1-1.02-3.152v-.242a5.089,5.089,0,0,1,.453-2.2,3.451,3.451,0,0,1,1.3-1.492,3.7,3.7,0,0,1,2-.531,3.39,3.39,0,0,1,2.363.852,3.043,3.043,0,0,1,1,2.211H55.164a1.992,1.992,0,0,0-.621-1.348,1.932,1.932,0,0,0-1.379-.527,2.023,2.023,0,0,0-1.707.793,3.724,3.724,0,0,0-.605,2.293v.273a3.65,3.65,0,0,0,.6,2.25A2.033,2.033,0,0,0,53.172-1.023ZM59.727,0H58.281V-8.453h1.445ZM58.164-10.7a.863.863,0,0,1,.215-.594.807.807,0,0,1,.637-.242.819.819,0,0,1,.641.242.854.854,0,0,1,.219.594.826.826,0,0,1-.219.586.834.834,0,0,1-.641.234.821.821,0,0,1-.637-.234A.834.834,0,0,1,58.164-10.7ZM61.656-4.3a4.993,4.993,0,0,1,.488-2.234A3.643,3.643,0,0,1,63.5-8.07a3.7,3.7,0,0,1,1.988-.539,3.565,3.565,0,0,1,2.793,1.2,4.6,4.6,0,0,1,1.066,3.18v.1a5.036,5.036,0,0,1-.473,2.215A3.589,3.589,0,0,1,67.527-.391a3.743,3.743,0,0,1-2.02.547,3.556,3.556,0,0,1-2.785-1.2A4.575,4.575,0,0,1,61.656-4.2Zm1.453.172a3.616,3.616,0,0,0,.652,2.258,2.088,2.088,0,0,0,1.746.852,2.075,2.075,0,0,0,1.75-.863A3.955,3.955,0,0,0,67.906-4.3a3.61,3.61,0,0,0-.66-2.254,2.1,2.1,0,0,0-1.754-.863,2.075,2.075,0,0,0-1.727.852A3.925,3.925,0,0,0,63.109-4.133ZM66.148-12H67.9L65.8-9.7l-1.164,0Zm6.383,3.547.047,1.063a3.08,3.08,0,0,1,2.531-1.219q2.68,0,2.7,3.023V0H76.367V-5.594a1.946,1.946,0,0,0-.418-1.352,1.675,1.675,0,0,0-1.277-.437,2.086,2.086,0,0,0-1.234.375,2.546,2.546,0,0,0-.828.984V0H71.164V-8.453Z" transform="translate(752.478 4548.285)" fill="#12263f"/>
    <path id="Trazado_801271" data-name="Trazado 801271" d="M538.654,0A93.351,93.351,0,0,0,445.4,93.25H631.9A93.351,93.351,0,0,0,538.654,0" transform="translate(261.698 4270.85)" fill="#92df98"/>
    <g id="Grupo_1065291" data-name="Grupo 1065291" transform="translate(707.091 4364.11)">
      <path id="Trazado_801300" data-name="Trazado 801300" d="M833.615,196.5q0,2.188-.1,4.349l2.2.1q.1-2.213.1-4.452Z" transform="translate(-649.301 -196.499)" fill="#12263f"/>
      <path id="Trazado_801301" data-name="Trazado 801301" d="M577.818,380.009c2.783.961,5.649,1.8,8.516,2.486l.513-2.14c-2.8-.673-5.595-1.489-8.312-2.426Z" transform="translate(-514.962 -291.82)" fill="#12263f"/>
      <path id="Trazado_801302" data-name="Trazado 801302" d="M552.036,369.129c2.614,1.347,5.329,2.586,8.071,3.681l.816-2.043c-2.677-1.069-5.327-2.278-7.879-3.593Z" transform="translate(-501.416 -286.17)" fill="#12263f"/>
      <path id="Trazado_801303" data-name="Trazado 801303" d="M613.886,386.177c-2.875-.266-5.76-.675-8.572-1.212l-.412,2.161c2.881.55,5.836.967,8.781,1.242Z" transform="translate(-529.191 -295.518)" fill="#12263f"/>
      <path id="Trazado_801304" data-name="Trazado 801304" d="M528.095,354.732c2.4,1.708,4.911,3.321,7.464,4.794l1.1-1.906c-2.492-1.439-4.944-3.013-7.288-4.68Z" transform="translate(-488.838 -278.692)" fill="#12263f"/>
      <path id="Trazado_801305" data-name="Trazado 801305" d="M448.485,215.143l-2.189.213c.283,2.94.711,5.892,1.27,8.776l2.159-.418c-.544-2.816-.962-5.7-1.24-8.571" transform="translate(-445.861 -206.295)" fill="#12263f"/>
      <path id="Trazado_801306" data-name="Trazado 801306" d="M506.467,337.127c2.136,2.03,4.393,3.983,6.709,5.8l1.36-1.73c-2.262-1.777-4.466-3.683-6.552-5.666Z" transform="translate(-477.475 -269.546)" fill="#12263f"/>
      <path id="Trazado_801307" data-name="Trazado 801307" d="M471.833,293.807c1.477,2.544,3.1,5.051,4.813,7.45l1.79-1.281c-1.676-2.342-3.258-4.789-4.7-7.273Z" transform="translate(-459.278 -247.044)" fill="#12263f"/>
      <path id="Trazado_801308" data-name="Trazado 801308" d="M453.106,242.113l-2.138.522c.7,2.868,1.546,5.73,2.513,8.507l2.078-.724c-.944-2.711-1.769-5.505-2.453-8.305" transform="translate(-448.316 -220.464)" fill="#12263f"/>
      <path id="Trazado_801309" data-name="Trazado 801309" d="M487.59,316.682c1.822,2.308,3.78,4.56,5.82,6.693l1.59-1.522c-1.992-2.083-3.9-4.281-5.682-6.534Z" transform="translate(-467.557 -258.926)" fill="#12263f"/>
      <path id="Trazado_801310" data-name="Trazado 801310" d="M459.538,268.957c1.1,2.728,2.344,5.439,3.7,8.059L465.194,276c-1.327-2.558-2.543-5.206-3.615-7.868Z" transform="translate(-452.819 -234.136)" fill="#12263f"/>
      <path id="Trazado_801311" data-name="Trazado 801311" d="M660.289,386.126l.208,2.192c2.937-.281,5.891-.7,8.779-1.259l-.417-2.162c-2.818.544-5.7.956-8.57,1.229" transform="translate(-558.291 -295.481)" fill="#12263f"/>
      <path id="Trazado_801312" data-name="Trazado 801312" d="M812.442,275.7l1.955,1.01c1.352-2.617,2.594-5.332,3.689-8.067l-2.043-.819c-1.07,2.671-2.282,5.321-3.6,7.876" transform="translate(-638.231 -233.974)" fill="#12263f"/>
      <path id="Trazado_801313" data-name="Trazado 801313" d="M798.179,299.72,799.971,301c1.713-2.4,3.329-4.913,4.8-7.458l-1.9-1.1c-1.439,2.486-3.016,4.935-4.69,7.282" transform="translate(-630.737 -246.905)" fill="#12263f"/>
      <path id="Trazado_801314" data-name="Trazado 801314" d="M830.294,223.343l2.162.415c.553-2.888.974-5.842,1.252-8.78l-2.19-.206c-.272,2.868-.683,5.752-1.224,8.571" transform="translate(-647.61 -206.1)" fill="#12263f"/>
      <path id="Trazado_801315" data-name="Trazado 801315" d="M823.229,250.06l2.08.72c.963-2.781,1.8-5.645,2.5-8.514l-2.138-.518c-.677,2.8-1.5,5.6-2.438,8.311" transform="translate(-643.898 -220.273)" fill="#12263f"/>
      <path id="Trazado_801316" data-name="Trazado 801316" d="M780.744,321.635l1.592,1.519c2.036-2.136,3.991-4.391,5.811-6.7l-1.729-1.36c-1.777,2.257-3.686,4.459-5.674,6.544" transform="translate(-621.577 -258.806)" fill="#12263f"/>
      <path id="Trazado_801317" data-name="Trazado 801317" d="M737.876,357.453l1.1,1.9c2.551-1.476,5.058-3.093,7.455-4.8l-1.279-1.79c-2.34,1.671-4.79,3.249-7.279,4.691" transform="translate(-599.054 -278.598)" fill="#12263f"/>
      <path id="Trazado_801318" data-name="Trazado 801318" d="M713.292,370.632l.821,2.041c2.735-1.1,5.448-2.341,8.062-3.693l-1.01-1.955c-2.553,1.32-5.2,2.533-7.873,3.607" transform="translate(-586.138 -286.092)" fill="#12263f"/>
      <path id="Trazado_801319" data-name="Trazado 801319" d="M687.266,380.248l.518,2.14c2.856-.692,5.719-1.534,8.511-2.5l-.722-2.078c-2.726.945-5.52,1.766-8.307,2.441" transform="translate(-572.465 -291.757)" fill="#12263f"/>
      <path id="Trazado_801320" data-name="Trazado 801320" d="M760.51,341.007l1.362,1.727c2.313-1.822,4.568-3.777,6.7-5.811l-1.519-1.592c-2.081,1.986-4.282,3.9-6.542,5.676" transform="translate(-610.947 -269.44)" fill="#12263f"/>
      <path id="Trazado_801321" data-name="Trazado 801321" d="M447.581,196.5h-2.2q0,2.238.1,4.452l2.2-.1q-.1-2.161-.1-4.349" transform="translate(-445.381 -196.499)" fill="#12263f"/>
      <path id="Trazado_801322" data-name="Trazado 801322" d="M635.966,393.742h2.2v-3.324c1.146-.013,2.29-.028,3.425-.084l-.105-2.2q-2.134.1-4.3.1c-1.472.015-2.919-.03-4.364-.1l-.1,2.2c1.075.051,2.159.06,3.243.074Z" transform="translate(-543.808 -297.184)" fill="#12263f"/>
      <rect id="Rectángulo_374193" data-name="Rectángulo 374193" width="2.2" height="7.25" transform="translate(92.158 111.056)" fill="#12263f"/>
      <rect id="Rectángulo_374194" data-name="Rectángulo 374194" width="2.2" height="7.25" transform="translate(92.158 100.183)" fill="#12263f"/>
      <rect id="Rectángulo_374195" data-name="Rectángulo 374195" width="2.2" height="4.401" transform="translate(92.158 121.929)" fill="#12263f"/>
    </g>
    <path id="Trazado_801396" data-name="Trazado 801396" d="M634.338,118.533A70.432,70.432,0,1,1,563.906,48.1a70.433,70.433,0,0,1,70.432,70.433" transform="translate(236.443 4245.579)" fill="#f6f6f6"/>
    <g id="Enmascarar_grupo_1064364" data-name="Enmascarar grupo 1064364" transform="translate(740.02 4304.257)" clip-path="url(#clip-path)">
      <g id="prevencion" transform="translate(20.596 16.232)">
        <path id="Trazado_801435" data-name="Trazado 801435" d="M84.473,12.707a4.346,4.346,0,0,0-4.217-4.391C61.709,7.8,50.347,2.229,47.292.524a4.344,4.344,0,0,0-4.167.009c-3.04,1.7-14.4,7.27-32.949,7.783a4.346,4.346,0,0,0-4.218,4.391V33a56.888,56.888,0,0,0,5.3,23.89,11.063,11.063,0,0,0,.423,9.761A11.388,11.388,0,0,0,21.867,72.7h.388a55.625,55.625,0,0,0,12.9,9.724l7.809,4.254a4.8,4.8,0,0,0,2.251.561,4.858,4.858,0,0,0,2.271-.567l7.795-4.246A55.647,55.647,0,0,0,68.175,72.7h.388a11.385,11.385,0,0,0,10.178-6.043,11.059,11.059,0,0,0,.425-9.761A56.888,56.888,0,0,0,84.473,33ZM53.884,79.869l-7.779,4.238a1.89,1.89,0,0,1-1.765.009l-7.792-4.247A53.024,53.024,0,0,1,26.459,72.7h4.507A49.419,49.419,0,0,0,37.931,77.3l5.205,2.843a4.433,4.433,0,0,0,4.171,0L52.5,77.311A49.347,49.347,0,0,0,59.464,72.7h4.507a53.059,53.059,0,0,1-10.088,7.171ZM35.927,72.7H54.5c-1.1.727-2.229,1.415-3.4,2.053l-5.178,2.828a1.5,1.5,0,0,1-1.41.007l-5.194-2.835C38.155,74.113,37.025,73.425,35.927,72.7Zm40.258-7.415a8.514,8.514,0,0,1-7.622,4.507h-46.7a8.515,8.515,0,0,1-7.622-4.507,8.244,8.244,0,0,1,.387-8.578L37.978,21.311a8.709,8.709,0,0,1,14.476,0L75.8,56.7A8.244,8.244,0,0,1,76.185,65.283ZM54.88,19.71a11.616,11.616,0,0,0-19.329,0L17.026,47.8A47.785,47.785,0,0,1,14.682,33l.013-16.171a82.554,82.554,0,0,0,30.52-7.561,82.648,82.648,0,0,0,30.534,7.561V33a47.8,47.8,0,0,1-2.347,14.8ZM81.565,33a54.024,54.024,0,0,1-4.2,20.8l-1.951-2.959A50.663,50.663,0,0,0,78.657,33V16.836a2.94,2.94,0,0,0-2.722-2.908A79.624,79.624,0,0,1,46.47,6.649a2.975,2.975,0,0,0-2.537.013,79.634,79.634,0,0,1-29.45,7.27,2.936,2.936,0,0,0-2.709,2.9V33a50.662,50.662,0,0,0,3.241,17.842L13.064,53.8A54.024,54.024,0,0,1,8.866,33v-20.3a1.454,1.454,0,0,1,1.391-1.483c18.682-.516,30.2-5.873,34.27-8.142a1.454,1.454,0,0,1,1.361-.009c4.084,2.278,15.6,7.635,34.283,8.151a1.454,1.454,0,0,1,1.393,1.483Z" transform="translate(-5.958 0.004)" fill="#12263f"/>
        <path id="Trazado_801436" data-name="Trazado 801436" d="M57.985,31.777a4.362,4.362,0,0,0-4.362,4.362v21.81a4.362,4.362,0,1,0,8.724,0V36.139A4.362,4.362,0,0,0,57.985,31.777Zm1.454,26.172a1.454,1.454,0,0,1-2.908,0V36.139a1.454,1.454,0,1,1,2.908,0Z" transform="translate(-18.727 -8.51)" fill="#12263f"/>
        <path id="Trazado_801437" data-name="Trazado 801437" d="M57.985,77.455a4.362,4.362,0,1,0,4.362,4.362A4.362,4.362,0,0,0,57.985,77.455Zm0,5.816a1.454,1.454,0,1,1,1.454-1.454A1.454,1.454,0,0,1,57.985,83.271Z" transform="translate(-18.727 -20.747)" fill="#12263f"/>
      </g>
    </g>
    <path id="Trazado_801489" data-name="Trazado 801489" d="M187.053,462.675a16.591,16.591,0,1,0,16.59,16.591,16.591,16.591,0,0,0-16.59-16.591" transform="translate(612.821 4023.528)" fill="#12263f"/>
    <path id="Trazado_801800" data-name="Trazado 801800" d="M4.478,0H-4.293V-1.74l4.14-4.412A10.212,10.212,0,0,0,1.107-7.778,2.612,2.612,0,0,0,1.516-9.1a1.955,1.955,0,0,0-.431-1.34,1.555,1.555,0,0,0-1.23-.488,1.677,1.677,0,0,0-1.358.593A2.35,2.35,0,0,0-2-8.771H-4.548a4.2,4.2,0,0,1,.558-2.136,3.934,3.934,0,0,1,1.578-1.516A4.8,4.8,0,0,1-.1-12.973a4.54,4.54,0,0,1,3.072.949A3.358,3.358,0,0,1,4.065-9.343a4.3,4.3,0,0,1-.492,1.934A10.745,10.745,0,0,1,1.885-5.115L-1.024-2.048h5.5Z" transform="translate(799.234 4508.299)" fill="#fff"/>
  </g>
</svg>
