<svg id="Grupo_1065200" data-name="Grupo 1065200" xmlns="http://www.w3.org/2000/svg" xmlns:xlink="http://www.w3.org/1999/xlink" width="290.32" height="278.145" viewBox="0 0 290.32 278.145">
  <defs>
    <clipPath id="clip-path">
      <rect id="Rectángulo_374139" data-name="Rectángulo 374139" width="290.32" height="278.145" fill="none"/>
    </clipPath>
    <clipPath id="clip-path-6">
      <rect id="Rectángulo_374134" data-name="Rectángulo 374134" width="57.433" height="89.989" fill="#288640"/>
    </clipPath>
    <clipPath id="clip-path-8">
      <rect id="Rectángulo_374136" data-name="Rectángulo 374136" width="26.91" height="16.027" fill="none"/>
    </clipPath>
    <clipPath id="clip-path-9">
      <rect id="Rectángulo_374137" data-name="Rectángulo 374137" width="41.07" height="6.331" fill="none"/>
    </clipPath>
  </defs>
  <g id="Grupo_1065199" data-name="Grupo 1065199" clip-path="url(#clip-path)">
    <rect id="Rectángulo_374120" data-name="Rectángulo 374120" width="82.176" height="145.028" transform="translate(0.341 14.488)" fill="#e0e0e0"/>
    <g id="Grupo_1065181" data-name="Grupo 1065181">
      <g id="Grupo_1065180" data-name="Grupo 1065180" clip-path="url(#clip-path)">
        <path id="Rectángulo_374121" data-name="Rectángulo 374121" d="M-.5-.5H82.676V145.528H-.5ZM81.676.5H.5V144.528H81.676Z" transform="translate(0.341 14.488)" fill="#e0e0e0"/>
      </g>
    </g>
    <path id="Trazado_800817" data-name="Trazado 800817" d="M18.457,95.2H39.614v36.489H18.457Zm25.743,0H64.753v36.489H44.2ZM18.457,55.562H39.614V90.615H18.457Zm25.743,0H64.753V90.615H44.2Zm-4.586-37V54.649H18.457V19.585H17.276V54.649H.377v.913h16.9V90.615H.377V95.2h16.9V131.69H.377v.914h16.9v32.8h1.181V132.6H39.614v31.773H44.2V132.6H64.753v32.8h1.18V132.6h17.5v-.914h-17.5V95.2h17.5V90.615h-17.5V55.562h17.5v-.913h-17.5V19.585h-1.18V54.649H44.2V18.56Z" transform="translate(-0.12 -5.906)" fill="#fafafa"/>
    <rect id="Rectángulo_374123" data-name="Rectángulo 374123" width="4.868" height="19.354" transform="translate(199.976 185.513)" fill="#ebebeb"/>
    <rect id="Rectángulo_374124" data-name="Rectángulo 374124" width="4.868" height="19.354" transform="translate(261.416 185.513)" fill="#ebebeb"/>
    <rect id="Rectángulo_374125" data-name="Rectángulo 374125" width="4.868" height="19.354" transform="translate(232.351 185.513)" fill="#e0e0e0"/>
    <rect id="Rectángulo_374126" data-name="Rectángulo 374126" width="4.868" height="19.354" transform="translate(284.593 185.513)" fill="#e0e0e0"/>
    <rect id="Rectángulo_374127" data-name="Rectángulo 374127" width="66.398" height="44.628" transform="translate(199.976 140.885)" fill="#ebebeb"/>
    <rect id="Rectángulo_374128" data-name="Rectángulo 374128" width="23.947" height="44.628" transform="translate(266.374 140.885)" fill="#e0e0e0"/>
    <g id="Grupo_1065183" data-name="Grupo 1065183">
      <g id="Grupo_1065182" data-name="Grupo 1065182" clip-path="url(#clip-path)">
        <path id="Trazado_800818" data-name="Trazado 800818" d="M356.477,232.66s-.007-.089-.011-.252-.006-.415-.011-.723c-.006-.648-.015-1.58-.027-2.787-.014-2.433-.034-5.967-.06-10.43l.108.108-53.442.07c.078-.079-.18.177.175-.177v1.82q0,.908,0,1.811,0,1.8,0,3.582,0,3.553,0,6.979l-.174-.174,38.12.079,11.231.05,3.029.022.789.012c.179,0,.276.011.276.011a1.921,1.921,0,0,1-.254.011l-.768.012-2.992.022-11.19.05-38.241.079h-.173v-.174q0-3.422,0-6.979,0-1.777,0-3.582v-3.63c.355-.355.1-.1.181-.178l53.442.07h.108v.108c-.026,4.491-.046,8.046-.06,10.495-.012,1.2-.021,2.12-.027,2.763,0,.3-.008.532-.011.7a1.924,1.924,0,0,1-.011.231" transform="translate(-96.376 -69.461)" fill="#e0e0e0"/>
        <path id="Trazado_800819" data-name="Trazado 800819" d="M343.558,227.874a2.34,2.34,0,1,1-2.34-2.339,2.339,2.339,0,0,1,2.34,2.339" transform="translate(-107.84 -71.771)" fill="#e0e0e0"/>
        <path id="Trazado_800820" data-name="Trazado 800820" d="M306.385,181.678,309,185.439s-5.886,1.635-5.886,6.867,3.6,6.213,7.521,6.213,7.685-1.145,7.521-6.377-5.069-7.194-5.069-7.194l2.452-3.27Z" transform="translate(-96.459 -57.815)" fill="#f5f5f5"/>
        <path id="Trazado_800821" data-name="Trazado 800821" d="M394.856,191.854v9.582h-41.2a4.791,4.791,0,0,1,0-9.582" transform="translate(-111.017 -61.053)" fill="#e0e0e0"/>
        <path id="Trazado_800822" data-name="Trazado 800822" d="M408.693,200.365h-15.16a1.19,1.19,0,0,1-1.19-1.19V195.99a1.19,1.19,0,0,1,1.19-1.19h15.16Z" transform="translate(-124.854 -61.991)" fill="#fafafa"/>
        <path id="Trazado_800823" data-name="Trazado 800823" d="M394.856,178.354v9.582h-41.2a4.791,4.791,0,1,1,0-9.582Z" transform="translate(-111.017 -56.757)" fill="#f5f5f5"/>
        <path id="Trazado_800824" data-name="Trazado 800824" d="M408.693,186.866h-15.16a1.19,1.19,0,0,1-1.19-1.19v-3.185a1.189,1.189,0,0,1,1.19-1.19h15.16Z" transform="translate(-124.854 -57.695)" fill="#e0e0e0"/>
        <path id="Trazado_800825" data-name="Trazado 800825" d="M248.3,39.847c.164-.158,1.289.648,2.765,2.311a26,26,0,0,1,2.347,3.116,29.532,29.532,0,0,1,3.793,8.756,26.123,26.123,0,0,1,.669,3.844c.2,2.214.021,3.586-.206,3.6-.532.038-1.014-5.322-3.633-11.268-2.546-5.976-6.127-9.995-5.736-10.356" transform="translate(-79.007 -12.674)" fill="#ebebeb"/>
        <path id="Trazado_800826" data-name="Trazado 800826" d="M263.3,53.247c-.23.031-.867-2.9-1.457-7.709s-1.093-11.479-1.287-18.852-.116-14.049.029-18.876S260.957,0,261.2,0s.464,2.984.634,7.807.291,11.483.491,18.83.485,13.984.763,18.79.462,7.787.207,7.82" transform="translate(-82.877 0)" fill="#ebebeb"/>
        <path id="Trazado_800827" data-name="Trazado 800827" d="M275.28,16.618c.228.13-.7,2.181-1.916,5.6-1.244,3.412-2.771,8.2-4.271,13.541-1.47,5.352-2.631,10.242-3.325,13.807-.723,3.561-.985,5.8-1.248,5.789-.228,0-.408-2.307.008-5.98a92.932,92.932,0,0,1,2.855-14.091,92.96,92.96,0,0,1,4.82-13.542c1.538-3.361,2.883-5.245,3.078-5.128" transform="translate(-84.1 -5.287)" fill="#ebebeb"/>
        <path id="Trazado_800828" data-name="Trazado 800828" d="M244.32,69.107v5.87a12.528,12.528,0,0,0,25.055,0v-5.87Z" transform="translate(-77.749 -21.992)" fill="#e0e0e0"/>
        <path id="Trazado_800829" data-name="Trazado 800829" d="M269.6,76.308c0,.1-5.66.177-12.641.177s-12.642-.079-12.642-.177,5.659-.177,12.642-.177,12.641.079,12.641.177" transform="translate(-77.749 -24.227)" fill="#fafafa"/>
        <path id="Trazado_800830" data-name="Trazado 800830" d="M269.6,78.7c0,.1-5.66.177-12.641.177s-12.642-.079-12.642-.177,5.659-.177,12.642-.177S269.6,78.6,269.6,78.7" transform="translate(-77.749 -24.987)" fill="#fafafa"/>
        <rect id="Rectángulo_374129" data-name="Rectángulo 374129" width="115.609" height="6.687" transform="translate(149.832 65.513)" fill="#ebebeb"/>
        <rect id="Rectángulo_374130" data-name="Rectángulo 374130" width="3.812" height="11.578" transform="translate(171.755 72.2)" fill="#e0e0e0"/>
        <rect id="Rectángulo_374131" data-name="Rectángulo 374131" width="3.812" height="11.578" transform="translate(235.172 72.2)" fill="#e0e0e0"/>
        <path id="Trazado_800831" data-name="Trazado 800831" d="M315.445,60.2l-2.619,24.3h33.556l2.783-24.3Z" transform="translate(-99.549 -19.159)" fill="#ebebeb"/>
        <path id="Trazado_800832" data-name="Trazado 800832" d="M317.5,62.765l-2.548,21.267h30.284l2.45-21.267Z" transform="translate(-100.227 -19.974)" fill="#fff"/>
        <path id="Trazado_800833" data-name="Trazado 800833" d="M325.434,68.012l-1.568,14.113h19.112l.98-14.113Z" transform="translate(-103.063 -21.643)" fill="#e0e0e0"/>
        <path id="Trazado_800834" data-name="Trazado 800834" d="M363.629,75.132l6.931,13.935-8.515-.1,1.689-14.747" transform="translate(-115.212 -23.62)" fill="#e0e0e0"/>
      </g>
    </g>
    <g id="Grupo_1065185" data-name="Grupo 1065185">
      <g id="Grupo_1065184" data-name="Grupo 1065184" clip-path="url(#clip-path)">
        <path id="Trazado_800835" data-name="Trazado 800835" d="M261.314,346.537c0,17.548-52.606,31.773-117.5,31.773s-117.5-14.225-117.5-31.773,52.606-31.773,117.5-31.773,117.5,14.226,117.5,31.773" transform="translate(-8.374 -100.166)" fill="#12263f"/>
      </g>
    </g>
    <g id="Grupo_1065190" data-name="Grupo 1065190">
      <g id="Grupo_1065189" data-name="Grupo 1065189" clip-path="url(#clip-path)">
        <path id="Trazado_800836" data-name="Trazado 800836" d="M270.32,155.735s-4.7-2.956-10.094,8.257a144.042,144.042,0,0,0-7.382,17.654s-1.439,2.356-3.069.876-3.915-5.735-6.608-4.9c-2.793.869-3.645,4.029-3,8.627s1.683,14.724,1.773,15.64c.089.9-.4,2.239-1.668,1.408s-8.662-8.685-12.179-4.956.379,16.246.779,17.622.143,1.974-.507,2.332-2.885-2.516-5.079-4.664-5.113-4.254-6.962-1.932-2.238,11.79,7.116,26.936l4.794,6.735,8.277-.652c17.629-2.476,24.666-8.822,25.271-11.728s-2.879-3.807-5.933-4.123-6.693-.2-6.832-.929.156-1.309,1.471-1.88,13.434-5.566,14.057-10.655-10.141-5.758-11.592-6.206-.731-1.677.018-2.183,9.219-6.182,13.168-8.624,5.835-5.115,4.721-7.82c-1.075-2.607-5.807-1.648-7.988-1.957s-1.286-2.921-1.286-2.921a143.927,143.927,0,0,0,8.87-16.954c5.186-11.309-.234-13.058-.234-13.058" transform="translate(-68.504 -49.447)" fill="#92df98"/>
        <path id="Trazado_800837" data-name="Trazado 800837" d="M268.847,170.616a1.467,1.467,0,0,1-.092.245c-.076.174-.176.406-.3.7l-1.2,2.688c-1.044,2.332-2.583,5.695-4.5,9.841-3.833,8.294-9.23,19.7-15.236,32.284l-15.332,32.243-4.6,9.792-1.257,2.66-.335.687a1.437,1.437,0,0,1-.125.23,1.466,1.466,0,0,1,.092-.245c.076-.174.176-.406.3-.7l1.2-2.688c1.044-2.332,2.582-5.693,4.5-9.84,3.833-8.294,9.231-19.705,15.239-32.289l15.329-32.237,4.6-9.792c.539-1.141.961-2.034,1.258-2.66l.335-.688a1.432,1.432,0,0,1,.125-.23" transform="translate(-71.876 -54.294)" fill="#263238"/>
        <path id="Trazado_800838" data-name="Trazado 800838" d="M260.523,196.925a12.641,12.641,0,0,1,.757,2.094c.414,1.31.932,3.137,1.462,5.163.5,1.977.959,3.765,1.323,5.2a17.836,17.836,0,0,1,.511,2.163,11.225,11.225,0,0,1-.753-2.1c-.4-1.315-.9-3.147-1.425-5.173-.517-1.972-.985-3.756-1.36-5.184a15.194,15.194,0,0,1-.515-2.163" transform="translate(-82.903 -62.667)" fill="#263238"/>
        <path id="Trazado_800839" data-name="Trazado 800839" d="M267.591,216.112c-.03-.093,3.684-1.338,8.293-2.78s8.372-2.536,8.4-2.441-3.684,1.338-8.3,2.78-8.369,2.535-8.4,2.441" transform="translate(-85.154 -67.109)" fill="#263238"/>
        <path id="Trazado_800840" data-name="Trazado 800840" d="M252.781,245.835a16.122,16.122,0,0,1,2.268-.11c1.4-.038,3.332-.093,5.462-.226s4.056-.3,5.449-.439a16.253,16.253,0,0,1,2.264-.166,12.911,12.911,0,0,1-2.235.416c-1.389.2-3.318.416-5.458.544s-4.079.148-5.481.122a12.956,12.956,0,0,1-2.269-.141" transform="translate(-80.442 -77.927)" fill="#263238"/>
        <path id="Trazado_800841" data-name="Trazado 800841" d="M242.084,228.126a12.283,12.283,0,0,1,1.194,1.727c.7,1.09,1.643,2.609,2.668,4.3s1.935,3.23,2.579,4.353a12.226,12.226,0,0,1,.979,1.857,12.384,12.384,0,0,1-1.194-1.727c-.7-1.091-1.644-2.61-2.668-4.3s-1.935-3.229-2.578-4.352a12.315,12.315,0,0,1-.98-1.857" transform="translate(-77.036 -72.595)" fill="#263238"/>
        <path id="Trazado_800842" data-name="Trazado 800842" d="M225.9,250.944a2.85,2.85,0,0,1,.438.576c.263.384.633.944,1.083,1.642.9,1.393,2.126,3.331,3.46,5.483s2.524,4.112,3.371,5.541c.423.713.761,1.294.987,1.7a2.774,2.774,0,0,1,.32.65,2.946,2.946,0,0,1-.438-.577c-.262-.384-.631-.944-1.083-1.64-.9-1.394-2.126-3.332-3.46-5.486s-2.523-4.111-3.371-5.538c-.423-.715-.761-1.295-.987-1.7a2.764,2.764,0,0,1-.32-.649" transform="translate(-71.887 -79.857)" fill="#263238"/>
        <path id="Trazado_800843" data-name="Trazado 800843" d="M239.886,272.359a3.267,3.267,0,0,1,.77-.092l2.1-.133c1.773-.11,4.222-.265,6.92-.505s5.138-.51,6.9-.715l2.091-.237a3.3,3.3,0,0,1,.774-.045,3.243,3.243,0,0,1-.753.182c-.489.093-1.2.215-2.078.348-1.759.269-4.2.583-6.9.82s-5.162.357-6.94.4c-.89.02-1.61.028-2.107.02a3.268,3.268,0,0,1-.774-.046" transform="translate(-76.338 -86.119)" fill="#263238"/>
        <g id="Grupo_1065188" data-name="Grupo 1065188" transform="translate(146.446 105.936)" opacity="0.2">
          <g id="Grupo_1065187" data-name="Grupo 1065187">
            <g id="Grupo_1065186" data-name="Grupo 1065186" clip-path="url(#clip-path-6)">
              <path id="Trazado_800844" data-name="Trazado 800844" d="M270.32,155.735s-4.7-2.956-10.094,8.257a144.042,144.042,0,0,0-7.382,17.654s-1.439,2.356-3.069.876-3.915-5.735-6.608-4.9c-2.793.869-3.645,4.029-3,8.627s1.683,14.724,1.773,15.64c.089.9-.4,2.239-1.668,1.408s-8.662-8.685-12.179-4.956.379,16.246.779,17.622.143,1.974-.507,2.332-2.885-2.516-5.079-4.664-5.113-4.254-6.962-1.932-2.238,11.79,7.116,26.936l4.794,6.735,8.277-.652c17.629-2.476,24.666-8.822,25.271-11.728s-2.879-3.807-5.933-4.123-6.693-.2-6.832-.929.156-1.309,1.471-1.88,13.434-5.566,14.057-10.655-10.141-5.758-11.592-6.206-.731-1.677.018-2.183,9.219-6.182,13.168-8.624,5.835-5.115,4.721-7.82c-1.075-2.607-5.807-1.648-7.988-1.957s-1.286-2.921-1.286-2.921a143.927,143.927,0,0,0,8.87-16.954c5.186-11.309-.234-13.058-.234-13.058" transform="translate(-215.267 -155.383)" fill="#288640"/>
            </g>
          </g>
        </g>
        <path id="Trazado_800845" data-name="Trazado 800845" d="M136.909,118.434a1.349,1.349,0,0,1,.385-.084,2.529,2.529,0,0,1,1.147.17A4.29,4.29,0,0,1,140,119.6a9.1,9.1,0,0,1,1.448,2.179,35.645,35.645,0,0,1,2.135,6.925,97.028,97.028,0,0,1,1.869,9.592l-.005-.025c.217.524.622,1.122,1.208,1.149a1.456,1.456,0,0,0,.822-.327c.261-.185.517-.389.775-.6a15.505,15.505,0,0,1,1.636-1.217,2.763,2.763,0,0,1,2.071-.482,2.81,2.81,0,0,1,1.642,1.46,4.472,4.472,0,0,1,.362,2.226,20.183,20.183,0,0,1-1.128,4.5q-.7,2.257-1.44,4.623-.369,1.182-.745,2.391l-.379,1.215a2.538,2.538,0,0,0-.145.591,1.1,1.1,0,0,0,.083.552c.142.342.575.266.933.063l1.146-.632a23.339,23.339,0,0,1,2.407-1.174,8.432,8.432,0,0,1,2.666-.679,3.191,3.191,0,0,1,1.414.22,2.335,2.335,0,0,1,1.1.957,4.6,4.6,0,0,1,.453,2.824,14.3,14.3,0,0,1-.591,2.817,34.974,34.974,0,0,1-2.242,5.406,9.479,9.479,0,0,0-.616,1.31.87.87,0,0,0,.016.612.8.8,0,0,0,.189.243c.038.03.072.031.192,0a6.094,6.094,0,0,0,1.252-.721l1.237-.867a16.528,16.528,0,0,1,2.64-1.59,5.159,5.159,0,0,1,1.524-.448,2.027,2.027,0,0,1,1.582.425,2.3,2.3,0,0,1,.76,1.454,5.843,5.843,0,0,1,.074.807c-.014.267-.012.537-.042.8a12.716,12.716,0,0,1-.751,3.1,26.226,26.226,0,0,1-2.975,5.71,43.822,43.822,0,0,1-4.06,5.14,30.688,30.688,0,0,1-2.351,2.329l-2.428,2.282-.075.07-.1-.03-.453-.137-3.213-.974-1.6-.485c-.526-.177-1.038-.4-1.557-.6a48.472,48.472,0,0,1-5.949-2.855,27.975,27.975,0,0,1-5.249-3.813,13.583,13.583,0,0,1-2.09-2.446,5.892,5.892,0,0,1-.693-1.468,2.2,2.2,0,0,1,.115-1.655,2.171,2.171,0,0,1,1.349-.954,6.108,6.108,0,0,1,1.584-.181,19.414,19.414,0,0,1,3.084.329l1.5.242c.248.034.5.07.742.086a1.729,1.729,0,0,0,.66-.035c.048-.027.014.006.044-.037a.825.825,0,0,0,.043-.152.613.613,0,0,0-.014-.295,1.27,1.27,0,0,0-.379-.532c-.349-.309-.789-.582-1.182-.882a37.048,37.048,0,0,1-4.488-3.822,14.821,14.821,0,0,1-1.84-2.241,4.612,4.612,0,0,1-.909-2.732,2.244,2.244,0,0,1,.585-1.351,3.228,3.228,0,0,1,1.214-.776,8.983,8.983,0,0,1,2.725-.495,25.134,25.134,0,0,1,2.7.037c.442.023.886.062,1.312.07a.917.917,0,0,0,.539-.123.4.4,0,0,0,.137-.433,1.954,1.954,0,0,0-.676-.977l-.9-.91-1.775-1.79-3.431-3.462a22.054,22.054,0,0,1-3.11-3.474,4.669,4.669,0,0,1-.772-2.134,2.67,2.67,0,0,1,.764-2.071,2.76,2.76,0,0,1,2.088-.462,16.14,16.14,0,0,1,2.014.384c.324.074.645.15.963.2a1.593,1.593,0,0,0,.894-.037c.539-.247.62-.988.564-1.55l.007.025c-1.274-3.411-2.143-6.545-2.871-9.282a37.174,37.174,0,0,1-1.409-7.067,6.01,6.01,0,0,1,1.043-4.282,2.348,2.348,0,0,1,.937-.67,1.277,1.277,0,0,1,.38-.093,1.932,1.932,0,0,0-.368.121,2.387,2.387,0,0,0-.9.681,6,6,0,0,0-.972,4.238,37.67,37.67,0,0,0,1.456,7.03c.742,2.727,1.628,5.861,2.908,9.246l.005.014v.011a2.72,2.72,0,0,1-.06.977,1.177,1.177,0,0,1-.625.805,1.8,1.8,0,0,1-1.023.058c-.33-.053-.653-.129-.98-.2a16.134,16.134,0,0,0-1.984-.371,2.533,2.533,0,0,0-1.9.409,2.43,2.43,0,0,0-.674,1.871,4.416,4.416,0,0,0,.74,2.012,21.924,21.924,0,0,0,3.08,3.416l3.444,3.456,1.781,1.788.9.909a2.206,2.206,0,0,1,.757,1.127.7.7,0,0,1-.255.73,1.2,1.2,0,0,1-.714.18c-.452-.008-.886-.046-1.328-.069a24.934,24.934,0,0,0-2.663-.031,8.712,8.712,0,0,0-2.627.479,2.926,2.926,0,0,0-1.1.7,1.922,1.922,0,0,0-.5,1.162,4.323,4.323,0,0,0,.863,2.532,14.516,14.516,0,0,0,1.8,2.188,36.67,36.67,0,0,0,4.452,3.781c.4.3.81.553,1.212.9a1.582,1.582,0,0,1,.475.682.959.959,0,0,1,.022.45,1.111,1.111,0,0,1-.059.21c-.018.069-.137.211-.21.222a1.877,1.877,0,0,1-.834.07c-.259-.018-.512-.053-.766-.088l-1.508-.241a19.062,19.062,0,0,0-3.029-.322,5.72,5.72,0,0,0-1.491.17,1.828,1.828,0,0,0-1.14.791c-.452.868.04,1.919.57,2.769a13.292,13.292,0,0,0,2.037,2.379,27.668,27.668,0,0,0,5.184,3.761,48.294,48.294,0,0,0,5.9,2.83c.513.2,1.017.419,1.541.6l1.595.483,3.207.972.452.137-.173.04,2.424-2.276a30.781,30.781,0,0,0,2.341-2.317,43.633,43.633,0,0,0,4.027-5.095,25.884,25.884,0,0,0,2.938-5.631,12.411,12.411,0,0,0,.735-3.02c.029-.255.025-.51.04-.764a5.534,5.534,0,0,0-.068-.749,1.962,1.962,0,0,0-.643-1.252,1.681,1.681,0,0,0-1.324-.345,4.819,4.819,0,0,0-1.419.419,16.224,16.224,0,0,0-2.585,1.555l-1.241.868a6.217,6.217,0,0,1-1.35.766.67.67,0,0,1-.238.035.416.416,0,0,1-.274-.11,1.133,1.133,0,0,1-.264-.345,1.2,1.2,0,0,1-.037-.845,9.374,9.374,0,0,1,.641-1.372,34.687,34.687,0,0,0,2.227-5.35A13.988,13.988,0,0,0,160,155.9a4.308,4.308,0,0,0-.4-2.63,2.309,2.309,0,0,0-2.23-1.03,8.131,8.131,0,0,0-2.566.652,22.905,22.905,0,0,0-2.377,1.154l-1.154.633a1.548,1.548,0,0,1-.684.207.7.7,0,0,1-.652-.4,1.784,1.784,0,0,1,.047-1.359l.382-1.216q.38-1.209.752-2.392l1.453-4.624a20.02,20.02,0,0,0,1.128-4.425,4.235,4.235,0,0,0-.33-2.1,2.575,2.575,0,0,0-1.479-1.332,2.533,2.533,0,0,0-1.885.449,15.258,15.258,0,0,0-1.614,1.192c-.259.209-.519.415-.791.605a1.668,1.668,0,0,1-.957.363,1.3,1.3,0,0,1-.9-.466,2.848,2.848,0,0,1-.5-.833l0-.01,0-.016c-.472-3.609-1.179-6.807-1.818-9.577a36.162,36.162,0,0,0-2.075-6.914,9.117,9.117,0,0,0-1.408-2.169,4.278,4.278,0,0,0-1.514-1.089,2.437,2.437,0,0,0-1.51-.142" transform="translate(-41.881 -37.659)" fill="#263238"/>
        <path id="Trazado_800846" data-name="Trazado 800846" d="M142.121,129.408a.672.672,0,0,1,.063.169c.04.134.089.3.15.506l.543,1.954c.466,1.7,1.117,4.162,1.906,7.21,1.58,6.1,3.683,14.537,5.964,23.87s4.358,17.758,5.865,23.9c.753,3.035,1.365,5.5,1.8,7.237l.478,1.97.116.515a.674.674,0,0,1,.027.179.708.708,0,0,1-.063-.17c-.04-.134-.089-.3-.15-.506q-.2-.71-.543-1.953c-.466-1.7-1.116-4.162-1.906-7.21-1.581-6.1-3.684-14.539-5.966-23.874-2.287-9.318-4.357-17.753-5.863-23.893-.753-3.035-1.366-5.5-1.8-7.237l-.479-1.97c-.047-.209-.085-.379-.115-.515a.666.666,0,0,1-.028-.179" transform="translate(-45.226 -41.181)" fill="#263238"/>
        <path id="Trazado_800847" data-name="Trazado 800847" d="M138.586,155.542a6.271,6.271,0,0,1,1.327.786c.79.529,1.856,1.3,3.009,2.173s2.183,1.688,2.928,2.275a7.9,7.9,0,0,1,1.177.991,5.77,5.77,0,0,1-1.326-.789c-.785-.537-1.841-1.318-2.994-2.194l-2.942-2.253a7.125,7.125,0,0,1-1.18-.989" transform="translate(-44.101 -49.497)" fill="#263238"/>
        <path id="Trazado_800848" data-name="Trazado 800848" d="M151.636,159.727a49.045,49.045,0,0,1,3.105-5.006,48.893,48.893,0,0,1,3.4-4.809,49.215,49.215,0,0,1-3.106,5.006,48.928,48.928,0,0,1-3.4,4.809" transform="translate(-48.254 -47.706)" fill="#263238"/>
        <path id="Trazado_800849" data-name="Trazado 800849" d="M155.842,182.28c-.063-.084,1.756-1.534,3.877-3.457s3.746-3.587,3.823-3.515a6.047,6.047,0,0,1-.965,1.186c-.637.7-1.552,1.626-2.621,2.591s-2.084,1.785-2.838,2.351a6.082,6.082,0,0,1-1.276.843" transform="translate(-49.593 -55.787)" fill="#263238"/>
        <path id="Trazado_800850" data-name="Trazado 800850" d="M142.385,180.166a5.883,5.883,0,0,1,1.389.4c.842.289,2,.711,3.264,1.2s2.409.947,3.228,1.3a5.885,5.885,0,0,1,1.3.634,5.9,5.9,0,0,1-1.389-.4c-.842-.289-2-.711-3.265-1.2s-2.407-.946-3.227-1.295a5.883,5.883,0,0,1-1.3-.634" transform="translate(-45.31 -57.331)" fill="#263238"/>
        <path id="Trazado_800851" data-name="Trazado 800851" d="M143.747,199.306a9.641,9.641,0,0,1,1.773.528c1.079.369,2.562.9,4.192,1.51s3.1,1.178,4.156,1.607a9.544,9.544,0,0,1,1.685.764,9.6,9.6,0,0,1-1.773-.528c-1.08-.369-2.563-.9-4.193-1.509s-3.1-1.178-4.155-1.608a9.581,9.581,0,0,1-1.685-.763" transform="translate(-45.744 -63.422)" fill="#263238"/>
        <path id="Trazado_800852" data-name="Trazado 800852" d="M160.688,201.247a11.411,11.411,0,0,1,1.384-1.352c.877-.809,2.091-1.921,3.4-3.18s2.48-2.42,3.324-3.263a11.41,11.41,0,0,1,1.411-1.324,9.638,9.638,0,0,1-1.229,1.5c-.8.888-1.941,2.084-3.26,3.346s-2.562,2.35-3.483,3.112a9.726,9.726,0,0,1-1.549,1.163" transform="translate(-51.135 -61.14)" fill="#263238"/>
        <path id="Trazado_800853" data-name="Trazado 800853" d="M142.293,254.007c9.958-9.666,10.145-24.641,7.579-37.659-.428-2.173-.562-4.515-1.912-6.265s-3.988-2.665-5.8-1.428c-1.5,1.027-1.9,3.029-2.555,4.738a12.952,12.952,0,0,1-4.332,5.725c-1.274.948-2.924,1.668-4.42,1.133-2.053-.734-2.7-3.3-3.037-5.478l-1.894-12.163a20.505,20.505,0,0,0-1.7-6.349,6.828,6.828,0,0,0-4.976-3.871c-2.161-.243-4.525,1.363-4.616,3.56a20.34,20.34,0,0,0,.377,2.716,2.316,2.316,0,0,1-.989,2.368,2.662,2.662,0,0,1-2.548-.61,29.291,29.291,0,0,1-6.458-6.992,40.583,40.583,0,0,0-6.148-7.3c-2.423-2.064-5.546-3.5-8.686-3.176s-6.146,2.786-6.437,5.97,2,6.01,4.346,8.175a49.146,49.146,0,0,0,11.66,7.99,4.044,4.044,0,0,1,1.984,1.543c.707,1.372-.432,3.034-1.786,3.742-1.533.8-3.318.918-4.98,1.393s-3.377,1.519-3.758,3.224c-.53,2.366,1.7,4.393,3.78,5.622a42.1,42.1,0,0,0,13.449,5.106,14.2,14.2,0,0,1,4.931,1.481c1.471.914,2.566,2.741,2.035,4.4s-2.451,2.473-4.176,2.433a29.387,29.387,0,0,1-5.064-1.049c-3.169-.644-6.993.187-8.487,3.079a6.966,6.966,0,0,0,.254,6.2A16.057,16.057,0,0,0,102.1,247.1a42.328,42.328,0,0,0,19.875,9.647c7.317,1.28,13.842.889,20.319-2.745" transform="translate(-26.642 -58.208)" fill="#288640"/>
        <path id="Trazado_800854" data-name="Trazado 800854" d="M87.654,186.619a1.545,1.545,0,0,0,.244.172l.739.47c.65.411,1.61,1.017,2.825,1.831a82.759,82.759,0,0,1,9.753,7.614c1.944,1.752,3.994,3.761,6.156,5.956s4.449,4.567,6.765,7.144A99.707,99.707,0,0,1,121,218.226c1.107,1.525,2.136,3.143,3.185,4.791l3.179,5.016A202.13,202.13,0,0,1,138.5,247.691a98.288,98.288,0,0,1,6.512,17.245,72.083,72.083,0,0,1,2.193,12.242c.121,1.465.192,2.606.213,3.38.017.371.03.662.04.88a1.773,1.773,0,0,0,.027.3,1.7,1.7,0,0,0,.014-.3c0-.218,0-.511,0-.881.005-.776-.04-1.92-.137-3.391a68.931,68.931,0,0,0-2.074-12.3,96.678,96.678,0,0,0-6.454-17.335,197.194,197.194,0,0,0-11.128-19.713l-3.183-5.017c-1.048-1.644-2.088-3.275-3.2-4.807a98.628,98.628,0,0,0-6.913-8.438c-2.328-2.577-4.633-4.938-6.8-7.129s-4.243-4.189-6.2-5.933a78.123,78.123,0,0,0-9.858-7.531c-1.229-.795-2.2-1.381-2.868-1.769l-.759-.436a1.609,1.609,0,0,0-.265-.136" transform="translate(-27.894 -59.387)" fill="#263238"/>
        <path id="Trazado_800855" data-name="Trazado 800855" d="M136.408,221.238a4.464,4.464,0,0,0,.062-.961c.017-.619.012-1.516-.011-2.623-.044-2.213-.208-5.268-.4-8.635s-.314-6.418-.324-8.626c-.008-1.1-.005-2,0-2.615a4.426,4.426,0,0,0-.031-.963,4.414,4.414,0,0,0-.125.955c-.059.616-.1,1.512-.133,2.619-.064,2.216.011,5.278.206,8.651.2,3.322.381,6.328.52,8.624.056,1.038.1,1.912.14,2.615a4.362,4.362,0,0,0,.1.959" transform="translate(-43.096 -62.631)" fill="#263238"/>
        <path id="Trazado_800856" data-name="Trazado 800856" d="M94.643,231.252a6.1,6.1,0,0,0,1.135-.047c.727-.053,1.779-.134,3.082-.193,2.6-.138,6.208-.2,10.187-.1s7.577.361,10.173.618c1.3.119,2.349.244,3.075.326a6.146,6.146,0,0,0,1.134.091,6.017,6.017,0,0,0-1.113-.249c-.721-.13-1.767-.3-3.066-.457-2.6-.332-6.2-.63-10.2-.74a99.864,99.864,0,0,0-10.214.223c-1.3.1-2.356.222-3.08.324a5.961,5.961,0,0,0-1.119.205" transform="translate(-30.118 -73.339)" fill="#263238"/>
        <path id="Trazado_800857" data-name="Trazado 800857" d="M162.1,257.564a1.454,1.454,0,0,0,.136-.372c.085-.294.188-.654.314-1.088.268-.946.621-2.326,1.034-4.036.829-3.419,1.826-8.179,2.855-13.445s1.981-10.031,2.737-13.462l.908-4.062c.1-.442.176-.807.241-1.107a1.477,1.477,0,0,0,.057-.393,1.481,1.481,0,0,0-.136.373c-.085.294-.188.652-.314,1.087-.268.946-.621,2.326-1.034,4.035-.829,3.419-1.826,8.179-2.855,13.447S164.061,248.57,163.3,252c-.374,1.668-.68,3.042-.908,4.061l-.241,1.107a1.486,1.486,0,0,0-.057.393" transform="translate(-51.583 -69.882)" fill="#263238"/>
        <path id="Trazado_800858" data-name="Trazado 800858" d="M104.8,266.556a1.486,1.486,0,0,0,.393.092l1.137.187,4.185.644c3.534.545,8.4,1.353,13.787,2.253s10.268,1.666,13.813,2.137c1.773.237,3.209.413,4.2.515l1.147.111a1.477,1.477,0,0,0,.4.01,1.538,1.538,0,0,0-.393-.093l-1.137-.186-4.184-.644c-3.534-.544-8.406-1.353-13.789-2.253s-10.265-1.665-13.811-2.136c-1.773-.237-3.209-.413-4.2-.515l-1.147-.111a1.481,1.481,0,0,0-.4-.01" transform="translate(-33.349 -84.822)" fill="#263238"/>
      </g>
    </g>
    <g id="Grupo_1065198" data-name="Grupo 1065198">
      <g id="Grupo_1065197" data-name="Grupo 1065197" clip-path="url(#clip-path)">
        <path id="Trazado_800859" data-name="Trazado 800859" d="M231.48,337.313a7.8,7.8,0,0,0-1.222-.235l-44.61-18.705H141.294L97.565,335.648c-4.436,1.478-10.772,10.138-7.182,20.487q.15.432.314.841a15.406,15.406,0,0,0,18.334,8.944c6.041-1.615,14.722-3.978,23.655-6.424l1-.027,27.823-7.895c4.358,1.2,13.513,3.731,23.689,6.527h0c12.374,3.4,26.246,7.194,34.81,9.483a15.406,15.406,0,0,0,18.334-8.943q.164-.41.313-.841c3.591-10.35-2.746-19.009-7.181-20.488" transform="translate(-28.425 -101.315)" fill="#727997"/>
        <path id="Trazado_800860" data-name="Trazado 800860" d="M166.284,358.345a.689.689,0,0,1,.151-.057l.452-.14,1.766-.517,6.662-1.895-.075.131c-1.148-4.218-2.677-9.832-4.443-16.316l.155.119-4.571.008c-1.568.022-3.176.14-4.823.21l-10.265.56c-12.682.737-24.15,1.594-32.447,2.266l-9.824.813-2.671.217-.7.048a1.164,1.164,0,0,1-.238,0,1.238,1.238,0,0,1,.235-.04l.693-.083,2.665-.284c2.316-.233,5.669-.56,9.815-.925,8.292-.736,19.761-1.633,32.448-2.371l10.269-.551c1.649-.068,3.262-.183,4.833-.2l4.578.008h.124l.031.119c1.724,6.495,3.218,12.118,4.34,16.343l.027.1-.1.028-6.688,1.8-1.781.464-.46.112a.665.665,0,0,1-.159.029" transform="translate(-33.546 -107.987)" fill="#263238"/>
        <path id="Trazado_800861" data-name="Trazado 800861" d="M171.258,338.556a14.553,14.553,0,0,1-4.8-4.007,25.517,25.517,0,0,1,2.411,1.992,25.443,25.443,0,0,1,2.392,2.015" transform="translate(-52.969 -106.461)" fill="#263238"/>
        <path id="Trazado_800862" data-name="Trazado 800862" d="M262.12,346.726a3.96,3.96,0,0,1-.612-.012l-1.749-.106-6.426-.439-21.2-1.425-21.215-1.282-6.43-.382-1.747-.118a3.892,3.892,0,0,1-.608-.065,3.989,3.989,0,0,1,.612-.006l1.751.052,6.437.269c5.434.251,12.939.65,21.224,1.179s15.777,1.087,21.2,1.529l6.418.552,1.743.172a3.911,3.911,0,0,1,.606.084" transform="translate(-64.323 -109.115)" fill="#263238"/>
        <path id="Trazado_800863" data-name="Trazado 800863" d="M291.127,353.145a8,8,0,0,0-1.551-3.98,3.858,3.858,0,0,1,1.551,3.98" transform="translate(-92.149 -111.111)" fill="#263238"/>
        <path id="Trazado_800864" data-name="Trazado 800864" d="M195.775,346.719a4.056,4.056,0,0,1,3.93-1c-.012.1-.934.036-2.011.318s-1.858.77-1.919.684" transform="translate(-62.3 -109.961)" fill="#263238"/>
        <path id="Trazado_800865" data-name="Trazado 800865" d="M197.551,351.169a9.661,9.661,0,0,1,3.66-.436,9.659,9.659,0,0,1-3.66.436" transform="translate(-62.866 -111.593)" fill="#263238"/>
        <path id="Trazado_800866" data-name="Trazado 800866" d="M198.35,355.628c0-.1.992-.133,2.144-.473s2.006-.835,2.064-.747a5.069,5.069,0,0,1-4.207,1.22" transform="translate(-63.12 -112.779)" fill="#263238"/>
        <path id="Trazado_800867" data-name="Trazado 800867" d="M199.942,360.675c0-.1.948-.181,2.026-.592s1.85-.967,1.916-.885a4.59,4.59,0,0,1-3.943,1.477" transform="translate(-63.627 -114.303)" fill="#263238"/>
        <path id="Trazado_800868" data-name="Trazado 800868" d="M228.337,337.95a148.294,148.294,0,0,1-3.038,4.1,9.935,9.935,0,0,1,3.038-4.1" transform="translate(-71.693 -107.543)" fill="#263238"/>
        <path id="Trazado_800869" data-name="Trazado 800869" d="M322.624,270.726c-1.065.056-9.226,1.421-9.226,1.421,10.138-2.7,10.49-3.883,10.249-4.622s-9.466,1.809-9.466,1.809a8.658,8.658,0,0,0,1.1-3.455c.239-2.962-3.251-5.661-4.348-5.257s-.651,1.828-.651,1.828a3.686,3.686,0,0,1,.035,6.773,2.293,2.293,0,0,1-2.616-3.675c3.457-3.156,1.386-3.78,1.386-3.78l-7.669,6.8c-.147.049-6.27,1.571-6.27,1.571l-26.241,5.233-10.714-15.7-11.272,10.149s2.032,2.42,10.947,14.462a14.118,14.118,0,0,0,15.409,5.17l26.106-7.857.047.126-.029-.089,14.523-3.726s4.68-1.347,5.776-1.657c1.449-.41,1.338-1.528.175-1.556-.442-.012-5.89.174-5.89.174l8.134-2.242c2.561-.71,1.535-1.959.5-1.906" transform="translate(-78.577 -82.637)" fill="#ffbe9d"/>
        <path id="Trazado_800870" data-name="Trazado 800870" d="M111.866,250l-10.714,15.7-26.241-5.233s-6.122-1.521-6.269-1.57l-7.67-6.8s-2.071.624,1.387,3.78a2.293,2.293,0,0,1-2.616,3.675,3.686,3.686,0,0,1,.035-6.773s.447-1.424-.651-1.828-4.588,2.3-4.348,5.257a8.658,8.658,0,0,0,1.1,3.455s-9.226-2.548-9.467-1.809.112,1.919,10.249,4.622c0,0-8.162-1.366-9.226-1.422-1.031-.053-2.056,1.2.5,1.906l8.134,2.242s-5.448-.185-5.889-.174c-1.164.029-1.276,1.147.175,1.557,1.1.31,5.776,1.657,5.776,1.657l14.522,3.726-.029.09.047-.127,26.106,7.857a14.117,14.117,0,0,0,15.409-5.17c8.915-12.041,10.947-14.462,10.947-14.462Z" transform="translate(-14.745 -79.557)" fill="#ffbe9d"/>
        <path id="Trazado_800871" data-name="Trazado 800871" d="M200.228,286.2l-4.413-19.8c.222-2.759,3.384-20.209,3.806-21.246l14.355,20.906L230.75,259s-14.248-23.9-20.45-32.8c-7.617-10.94-22.516-12.116-22.516-12.116l-19.171.259s-13.391-2.973-26.826,15.074L126.368,253.74l13.239,6.731a2.991,2.991,0,0,0,3.748-.727l10.873-13.252,3.311,18.724-4.587,15.861s-4.185.55-3.4,5.65c0,0,13.666,6.409,26.492,5.623a74.683,74.683,0,0,0,24.187-6.152" transform="translate(-40.214 -68.127)" fill="#59bee2"/>
        <path id="Trazado_800872" data-name="Trazado 800872" d="M212.284,272.632a1.177,1.177,0,0,1-.085.322c-.072.206-.162.516-.32.9a22.385,22.385,0,0,1-1.532,3.159,24.475,24.475,0,0,1-18.835,12.1,22.463,22.463,0,0,1-3.51.079c-.415-.016-.734-.063-.95-.084a1.213,1.213,0,0,1-.329-.057,11.249,11.249,0,0,1,1.283,0,27.009,27.009,0,0,0,3.478-.19,25.091,25.091,0,0,0,18.646-11.975,26.786,26.786,0,0,0,1.621-3.084,11.349,11.349,0,0,1,.532-1.168" transform="translate(-59.421 -86.759)" fill="#263238"/>
        <path id="Trazado_800873" data-name="Trazado 800873" d="M257.055,288.17c-.074.06-.607-.487-1.043-1.312a2.989,2.989,0,0,1-.5-1.6,27.7,27.7,0,0,1,1.546,2.913" transform="translate(-81.302 -90.776)" fill="#263238"/>
        <path id="Trazado_800874" data-name="Trazado 800874" d="M262.076,285.928c-.093.038-.43-.579-.841-1.336a4.594,4.594,0,0,1-.661-1.433c.078-.055.554.487.974,1.264a3.044,3.044,0,0,1,.529,1.5" transform="translate(-82.917 -90.108)" fill="#263238"/>
        <path id="Trazado_800875" data-name="Trazado 800875" d="M267.686,282.883c-.081.055-.561-.516-1.072-1.275a4.016,4.016,0,0,1-.777-1.473c.081-.055.561.516,1.072,1.275a4.02,4.02,0,0,1,.777,1.473" transform="translate(-84.593 -89.145)" fill="#263238"/>
        <path id="Trazado_800876" data-name="Trazado 800876" d="M273.6,280.148c-.1.032-.372-.556-.737-1.26s-.678-1.273-.6-1.332.537.436.913,1.17a2.5,2.5,0,0,1,.421,1.422" transform="translate(-86.638 -88.324)" fill="#263238"/>
        <path id="Trazado_800877" data-name="Trazado 800877" d="M130.146,272.146c-.082-.055.2-.616.623-1.253s.837-1.111.918-1.056-.2.616-.623,1.253-.837,1.111-.918,1.056" transform="translate(-41.411 -85.868)" fill="#263238"/>
        <path id="Trazado_800878" data-name="Trazado 800878" d="M137.092,272.17a4.366,4.366,0,0,1-.872,1.5c-.561.773-1.08,1.353-1.159,1.3a4.365,4.365,0,0,1,.872-1.5c.56-.773,1.08-1.353,1.159-1.3" transform="translate(-42.977 -86.61)" fill="#263238"/>
        <path id="Trazado_800879" data-name="Trazado 800879" d="M142.593,275.634a3.4,3.4,0,0,1-.505,1.443c-.367.754-.736,1.331-.824,1.288a3.411,3.411,0,0,1,.505-1.443c.367-.753.736-1.33.824-1.287" transform="translate(-44.948 -87.713)" fill="#263238"/>
        <path id="Trazado_800880" data-name="Trazado 800880" d="M147.42,278.9c.075.063-.316.65-.873,1.31s-1.07,1.144-1.145,1.081.316-.65.873-1.31,1.069-1.144,1.144-1.081" transform="translate(-46.268 -88.753)" fill="#263238"/>
        <path id="Trazado_800881" data-name="Trazado 800881" d="M164.447,319.575a4.274,4.274,0,0,1,.83-4.9,7.211,7.211,0,0,0-.83,4.9" transform="translate(-52.192 -100.137)" fill="#263238"/>
        <path id="Trazado_800882" data-name="Trazado 800882" d="M169.827,321.9c-.038.021-.214-.191-.374-.6a3.762,3.762,0,0,1,.369-3.313c.247-.367.466-.535.5-.506a5.462,5.462,0,0,0-.492,4.421" transform="translate(-53.853 -101.028)" fill="#263238"/>
        <path id="Trazado_800883" data-name="Trazado 800883" d="M176.244,319.919a11.724,11.724,0,0,1-.215,4.059,11.725,11.725,0,0,1,.215-4.059" transform="translate(-55.985 -101.807)" fill="#263238"/>
        <path id="Trazado_800884" data-name="Trazado 800884" d="M184.588,321.66c.1.047-.329.951-.435,2.148-.121,1.2.126,2.163.024,2.191a4.35,4.35,0,0,1,.411-4.339" transform="translate(-58.483 -102.36)" fill="#263238"/>
        <path id="Trazado_800885" data-name="Trazado 800885" d="M191.4,322.677a19.891,19.891,0,0,1-.047,2.169,19.474,19.474,0,0,1,.065,2.168,5.933,5.933,0,0,1-.018-4.337" transform="translate(-60.781 -102.684)" fill="#263238"/>
        <path id="Trazado_800886" data-name="Trazado 800886" d="M199.553,326.725a73.725,73.725,0,0,0-.637-4.549,6.952,6.952,0,0,1,.637,4.549" transform="translate(-63.294 -102.525)" fill="#263238"/>
        <path id="Trazado_800887" data-name="Trazado 800887" d="M208.277,326.271c-.1-.018.018-.972-.16-2.122s-.557-2.03-.462-2.077a4.69,4.69,0,0,1,.622,4.2" transform="translate(-66.077 -102.491)" fill="#263238"/>
        <path id="Trazado_800888" data-name="Trazado 800888" d="M216.69,324.419c-.1,0-.132-.976-.412-2.126s-.685-2.032-.594-2.081a5.434,5.434,0,0,1,1.006,4.207" transform="translate(-68.632 -101.899)" fill="#263238"/>
        <path id="Trazado_800889" data-name="Trazado 800889" d="M223.8,322.5c-.106-.012-.009-1-.365-2.146-.34-1.146-.974-1.917-.892-1.985A4.015,4.015,0,0,1,223.8,322.5" transform="translate(-70.817 -101.313)" fill="#263238"/>
        <path id="Trazado_800890" data-name="Trazado 800890" d="M230.278,320.045c-.106-.013,0-1.031-.3-2.227s-.838-2.059-.75-2.119a4.563,4.563,0,0,1,1.052,4.346" transform="translate(-72.943 -100.463)" fill="#263238"/>
        <path id="Trazado_800891" data-name="Trazado 800891" d="M221.549,242.336a.734.734,0,0,1-.185.036l-.548.07-2.11.235c-.917.1-2.039.217-3.345.32s-2.791.249-4.438.342c-3.291.232-7.215.4-11.576.5-4.361.068-9.158.041-14.188-.153-5.031-.21-9.816-.567-14.158-.984-4.34-.44-8.239-.926-11.5-1.42-1.634-.225-3.1-.485-4.4-.7s-2.4-.412-3.309-.587l-2.085-.4-.54-.114a.745.745,0,0,1-.182-.051.753.753,0,0,1,.188.015l.547.079,2.1.338c.909.155,2.021.339,3.316.527s2.766.435,4.4.644c3.263.462,7.16.922,11.5,1.344,4.338.4,9.116.745,14.141.955,5.023.193,9.812.23,14.168.18,4.355-.073,8.277-.22,11.566-.419,1.646-.077,3.131-.2,4.438-.289s2.43-.179,3.348-.26l2.116-.17.551-.035a.745.745,0,0,1,.19,0" transform="translate(-47.412 -76.191)" fill="#263238"/>
        <g id="Grupo_1065193" data-name="Grupo 1065193" transform="translate(123.341 186.687)" opacity="0.2">
          <g id="Grupo_1065192" data-name="Grupo 1065192">
            <g id="Grupo_1065191" data-name="Grupo 1065191" clip-path="url(#clip-path-8)">
              <path id="Trazado_800892" data-name="Trazado 800892" d="M185.693,289.56a9.567,9.567,0,0,1-3.729-2.071,3.273,3.273,0,0,1-.638-3.928,3.474,3.474,0,0,1,3.169-1.246,24.568,24.568,0,0,1,3.476.781,11.855,11.855,0,0,0,9.944-2.375c2.006-1.648,3.407-3.913,5.273-5.717a3.566,3.566,0,0,1,2.092-1.174c1.414-.1,2.544,1.39,2.542,2.808a6.473,6.473,0,0,1-1.685,3.818,25.012,25.012,0,0,1-21.276,9.324" transform="translate(-180.912 -273.826)"/>
            </g>
          </g>
        </g>
        <g id="Grupo_1065196" data-name="Grupo 1065196" transform="translate(114.61 212.233)" opacity="0.2">
          <g id="Grupo_1065195" data-name="Grupo 1065195">
            <g id="Grupo_1065194" data-name="Grupo 1065194" clip-path="url(#clip-path-9)">
              <path id="Trazado_800893" data-name="Trazado 800893" d="M168.513,312.979c5.614,3.507,12.409,4.746,19.028,4.642s13.146-1.469,19.625-2.829a3.181,3.181,0,0,0,1.639-.687,1.1,1.1,0,0,0,.052-1.589,45.962,45.962,0,0,1-37.774-.689,3.169,3.169,0,0,0-2.132-.475c-.719.2-1.167,1.261-.565,1.7" transform="translate(-168.105 -311.296)"/>
            </g>
          </g>
        </g>
        <path id="Trazado_800894" data-name="Trazado 800894" d="M236.814,344.953l-31.63,6.782-2.84-10.859,11.7-.567s1.4-2.29,3.036-2.12,2.8,2.216,3.994,2.319,16.093-2.06,15.737,4.446" transform="translate(-64.391 -107.618)" fill="#ffbe9d"/>
        <path id="Trazado_800895" data-name="Trazado 800895" d="M149.267,228.59c-.183.288,72.567,4.938,72.567,4.938s-6-18.415-28.908-19.583-34.205-.263-43.659,14.645" transform="translate(-47.501 -67.968)" fill="#ffbe9d"/>
        <path id="Trazado_800896" data-name="Trazado 800896" d="M205.494,195.386c.145-4.822.385-9.9.385-9.9s6.176-.842,7.669-8.908c1.424-7.692.646-25.582.646-25.582a22.856,22.856,0,0,0-25.8,5.149l-.539,39.184a8.39,8.39,0,0,0,8.58,8.284,8.79,8.79,0,0,0,9.063-8.232" transform="translate(-59.779 -47.431)" fill="#ffbe9d"/>
        <path id="Trazado_800897" data-name="Trazado 800897" d="M213.572,178.695a7.224,7.224,0,0,1,1.807-.273c.283-.02.552-.069.605-.262a1.472,1.472,0,0,0-.166-.852q-.371-1.049-.778-2.2a37.833,37.833,0,0,1-1.724-5.747,37.771,37.771,0,0,1,2.177,5.595q.389,1.158.742,2.212a1.67,1.67,0,0,1,.117,1.126.709.709,0,0,1-.477.4,1.915,1.915,0,0,1-.481.053,7.178,7.178,0,0,1-1.823-.054" transform="translate(-67.879 -53.895)" fill="#263238"/>
        <path id="Trazado_800898" data-name="Trazado 800898" d="M209.316,201a20.3,20.3,0,0,1-10.666-3.226s2.456,5.648,10.505,5.136Z" transform="translate(-63.216 -62.935)" fill="#eb996e"/>
        <path id="Trazado_800899" data-name="Trazado 800899" d="M211.353,186.607a1.994,1.994,0,0,0-1.769-.8,1.811,1.811,0,0,0-1.276.643,1.176,1.176,0,0,0-.124,1.331,1.334,1.334,0,0,0,1.441.415,4.158,4.158,0,0,0,1.439-.81,1.222,1.222,0,0,0,.325-.32.378.378,0,0,0,.01-.417" transform="translate(-66.201 -59.126)" fill="#eb996e"/>
        <path id="Trazado_800900" data-name="Trazado 800900" d="M208.8,184.04c.181,0,.15,1.209,1.155,2.1s2.288.8,2.293.969c.015.076-.291.227-.832.225a2.982,2.982,0,0,1-1.916-.74,2.654,2.654,0,0,1-.892-1.76c-.032-.509.11-.806.192-.8" transform="translate(-66.382 -58.566)" fill="#263238"/>
        <path id="Trazado_800901" data-name="Trazado 800901" d="M206.56,172.736c.031.031-.123.26-.487.508a2.933,2.933,0,0,1-3.261-.022c-.361-.252-.512-.484-.481-.514a3.758,3.758,0,0,0,4.229.028" transform="translate(-64.386 -54.958)" fill="#263238"/>
        <path id="Trazado_800902" data-name="Trazado 800902" d="M223.388,172.772c.027.033-.118.22-.442.41a2.81,2.81,0,0,1-2.808-.062c-.316-.2-.453-.4-.424-.43a4.054,4.054,0,0,0,3.675.082" transform="translate(-69.917 -54.952)" fill="#263238"/>
        <path id="Trazado_800903" data-name="Trazado 800903" d="M207.02,166.078c-.081.291-1.1.25-2.287.4-1.191.128-2.171.4-2.317.133-.15-.243.77-1.031,2.2-1.191s2.5.391,2.408.662" transform="translate(-64.409 -52.63)" fill="#263238"/>
        <path id="Trazado_800904" data-name="Trazado 800904" d="M223.244,167.241c-.177.245-1.042-.091-2.1-.337-1.055-.265-1.977-.362-2.022-.661-.057-.281.988-.689,2.272-.375s2.029,1.149,1.85,1.372" transform="translate(-69.729 -52.748)" fill="#263238"/>
        <path id="Trazado_800905" data-name="Trazado 800905" d="M211.2,148.476c-1.31-2.064-3.8-3.008-6.155-3.666a56.841,56.841,0,0,0-7.449-1.551,10.343,10.343,0,0,0-4.621.122,5.372,5.372,0,0,0-.5.2h0a13.828,13.828,0,0,0-8.325,2.321,7.342,7.342,0,0,0-2.623,2.51h0a15.424,15.424,0,0,0-2.02,3.489c-2.394,4.185-5.552,10.02-5.981,13.076a21.837,21.837,0,0,0,2.711,13.957,17.832,17.832,0,0,0,2.122,2.856,7.246,7.246,0,0,0-.667,10.222,5.606,5.606,0,0,0-1.919,3.023,5.737,5.737,0,0,0,2.525,6.014c.117.072.239.138.363.2a3.2,3.2,0,0,0-.312.319,4.56,4.56,0,0,0-.939,3.468,7.909,7.909,0,0,0,1.359,3.4,3.925,3.925,0,0,0,2.752,2.021,2.269,2.269,0,0,0,.487-.025,2.643,2.643,0,0,0,.325,4.98,2.85,2.85,0,0,1,1.147.4,1.252,1.252,0,0,1,.358,1.119,3.71,3.71,0,0,1-.423,1.144,1.544,1.544,0,0,0,1.3-1.1q0,.575-.01,1.149a4.648,4.648,0,0,0,1.816-2.514,5.841,5.841,0,0,0,.249-3.136,3.85,3.85,0,0,0-1.784-2.527,3.035,3.035,0,0,0-1.437-.379,3.684,3.684,0,0,0,.907-1.64,8.672,8.672,0,0,0-.337-4.151,8.567,8.567,0,0,0-.877-2.386,3.784,3.784,0,0,0-.513-.658,5.381,5.381,0,0,0,1.186-2.377,6.471,6.471,0,0,0-.6-4.972,3.993,3.993,0,0,0-.3-.4,5.7,5.7,0,0,0,1.057-2.783,18.272,18.272,0,0,0,.394-4.264,8.154,8.154,0,0,0,2.421-3.3c2.492-5.4-.415-13.061-.415-13.061,4.238-4.2,5.044-12.2,5.125-16.922a10.659,10.659,0,0,0,2.683,2.634,3.867,3.867,0,0,0,2.58.824,1.743,1.743,0,0,0,1.571-1.9,11.637,11.637,0,0,0,1.94,2.909,3.934,3.934,0,0,0,3.152,1.252,2.409,2.409,0,0,0,2.149-2.351,6.762,6.762,0,0,0,2.476,2.358,2.775,2.775,0,0,0,3.2-.438,4.2,4.2,0,0,0,.77-2.49c.209-2.381.374-4.961-.908-6.979" transform="translate(-55.155 -45.525)" fill="#263238"/>
        <path id="Trazado_800906" data-name="Trazado 800906" d="M180.767,182.768c-.012,0-.056-.085-.131-.262a3.977,3.977,0,0,1-.219-.812,5.776,5.776,0,0,1,.444-3.039,11.041,11.041,0,0,1,2.7-3.67,34.156,34.156,0,0,0,3.834-3.969,32.265,32.265,0,0,0,4.453-8.941l.976-2.895a6.86,6.86,0,0,1,.389-1.053,6.774,6.774,0,0,1-.257,1.094c-.19.7-.475,1.7-.87,2.934a30.279,30.279,0,0,1-4.41,9.078,32.394,32.394,0,0,1-3.887,3.988,11.137,11.137,0,0,0-2.7,3.533,5.928,5.928,0,0,0-.538,2.924c.079.708.247,1.079.213,1.091" transform="translate(-57.397 -50.32)" fill="#455a64"/>
        <path id="Trazado_800907" data-name="Trazado 800907" d="M184.677,210.824c-.01.02-.179-.033-.467-.169a6.874,6.874,0,0,1-1.15-.709A8.17,8.17,0,0,1,179.93,202a6.858,6.858,0,0,1,.357-1.3c.119-.3.205-.45.226-.442.059.02-.2.676-.335,1.782a8.579,8.579,0,0,0,3.039,7.715c.853.717,1.49,1.019,1.46,1.074" transform="translate(-57.219 -63.726)" fill="#455a64"/>
        <path id="Trazado_800908" data-name="Trazado 800908" d="M184.161,216.281c.011.038-.3.178-.849.205a4,4,0,0,1-3.551-2c-.26-.483-.3-.823-.264-.833.055-.019.181.283.476.7a4.543,4.543,0,0,0,3.343,1.885c.509.038.833-.01.845.046" transform="translate(-57.117 -67.989)" fill="#455a64"/>
        <path id="Trazado_800909" data-name="Trazado 800909" d="M182.189,223.853c-.027-.053.321-.249.782-.672a5.52,5.52,0,0,0,1.755-4.371,7.73,7.73,0,0,1-.1-1.027,1.984,1.984,0,0,1,.35,1,4.958,4.958,0,0,1-1.843,4.59,1.983,1.983,0,0,1-.944.48" transform="translate(-57.977 -69.304)" fill="#455a64"/>
        <path id="Trazado_800910" data-name="Trazado 800910" d="M185.3,227.381c.04.018-.014.264-.261.578a2.243,2.243,0,0,1-2.837.55c-.346-.2-.488-.408-.459-.439s.229.089.565.211a2.431,2.431,0,0,0,2.548-.494c.266-.238.4-.432.445-.406" transform="translate(-57.835 -72.358)" fill="#455a64"/>
        <path id="Trazado_800911" data-name="Trazado 800911" d="M185.454,236.868a35.531,35.531,0,0,0-2.133-3.908,35.487,35.487,0,0,0-2.894-3.384,3.848,3.848,0,0,1,1.072.779,13.6,13.6,0,0,1,3.608,5.233,3.871,3.871,0,0,1,.347,1.279" transform="translate(-57.416 -73.056)" fill="#455a64"/>
        <path id="Trazado_800912" data-name="Trazado 800912" d="M188.275,240.626c.048.083-.4.426-1.042.659s-1.206.257-1.222.163.489-.273,1.1-.5,1.114-.412,1.163-.325" transform="translate(-59.193 -76.567)" fill="#455a64"/>
        <path id="Trazado_800913" data-name="Trazado 800913" d="M175.318,180.782a1.13,1.13,0,0,1-.083-.323c-.042-.214-.1-.53-.165-.939a24.274,24.274,0,0,1-.333-3.5,10.845,10.845,0,0,1,1.08-5.1,7.178,7.178,0,0,1,1.984-2.4,14.781,14.781,0,0,1,2.867-1.68c1.02-.489,2.028-.927,2.925-1.473a15.383,15.383,0,0,0,2.437-1.794,16.035,16.035,0,0,0,3.2-4,20.206,20.206,0,0,0,1.743-4.415,1.123,1.123,0,0,1-.037.331,9.053,9.053,0,0,1-.2.935,14.685,14.685,0,0,1-1.287,3.27,15.736,15.736,0,0,1-3.2,4.122,15.386,15.386,0,0,1-2.479,1.852,32.88,32.88,0,0,1-2.95,1.494,14.691,14.691,0,0,0-2.8,1.633,6.9,6.9,0,0,0-1.91,2.276,10.827,10.827,0,0,0-1.118,4.946,29.719,29.719,0,0,0,.218,3.478c.04.377.072.689.1.947a1.255,1.255,0,0,1,.012.333" transform="translate(-55.606 -49.377)" fill="#455a64"/>
        <path id="Trazado_800914" data-name="Trazado 800914" d="M207.769,152.024c.01.018-.11.114-.362.232a3,3,0,0,1-1.146.256,4.844,4.844,0,0,1-3.5-1.492,9.353,9.353,0,0,1-1.948-3.285,6.008,6.008,0,0,1-.447-1.51,8.135,8.135,0,0,1,.679,1.414,10.684,10.684,0,0,0,1.968,3.132,4.912,4.912,0,0,0,3.244,1.49,6.177,6.177,0,0,0,1.509-.237" transform="translate(-63.76 -46.532)" fill="#455a64"/>
        <path id="Trazado_800915" data-name="Trazado 800915" d="M215.8,155.821a1.837,1.837,0,0,1-1.006.124,4.648,4.648,0,0,1-3.862-2.722,1.833,1.833,0,0,1-.222-.989c.058-.014.159.355.447.878a5.179,5.179,0,0,0,3.665,2.583,6.792,6.792,0,0,1,.977.125" transform="translate(-67.048 -48.445)" fill="#455a64"/>
      </g>
    </g>
  </g>
</svg>
