<svg xmlns="http://www.w3.org/2000/svg" width="76.684" height="54.929" viewBox="0 0 76.684 54.929">
  <g id="Grupo_1065420" data-name="Grupo 1065420" transform="translate(-335.67 -1111.593) rotate(1)">
    <path id="Trazado_801771" data-name="Trazado 801771" d="M393.516,1159.213c45.973-16.76,40.007-51.692,19.946-53.551-6.807-.63-14.534,1.516-19.946,12.548h-.466c-5.66-11.536-13.734-13.585-20.635-12.43-19.143,3.208-23.672,37.04,20.635,53.432Z" transform="translate(0.363 0)" fill="#1969d5"/>
    <path id="Trazado_801772" data-name="Trazado 801772" d="M413.462,1105.654a21.683,21.683,0,0,0-3.741-.035l.253.022c18.4,1.706,23.866,33.737-18.29,49.105h-.427c-37.093-13.724-36.859-40.776-23.179-47.62-15.218,7.212-15.751,37.013,24.973,52.079h.466C439.489,1142.445,433.523,1107.513,413.462,1105.654Z" transform="translate(0.363 0.008)" fill="#91001b" opacity="0.3" style="mix-blend-mode: multiply;isolation: isolate"/>
    <path id="Trazado_801773" data-name="Trazado 801773" d="M391.64,1149.852a1.133,1.133,0,0,1-1.083-.8l-5.012-16.5-1.27,2.994a1.134,1.134,0,0,1-1.044.69H356.957a1.133,1.133,0,0,1,0-2.267H382.48l2.2-5.179a1.124,1.124,0,0,1,1.1-.689,1.137,1.137,0,0,1,1.025.8l4.443,14.63,3.4-23.434a1.134,1.134,0,0,1,2.2-.173l5.08,16.348.606-1.579a1.135,1.135,0,0,1,1.058-.726H430.85a1.133,1.133,0,0,1,0,2.267H404.377l-1.5,3.9a1.149,1.149,0,0,1-1.095.727,1.135,1.135,0,0,1-1.046-.8l-4.563-14.686-3.411,23.508a1.134,1.134,0,0,1-1.037.968C391.7,1149.851,391.668,1149.852,391.64,1149.852Z" transform="translate(0 1.817)" fill="#fff"/>
  </g>
</svg>
