<svg xmlns="http://www.w3.org/2000/svg" width="94.454" height="82.055" viewBox="0 0 94.454 82.055">
  <g id="Grupo_1065419" data-name="Grupo 1065419" transform="matrix(0.839, -0.545, 0.545, 0.839, -824.512, -620.273)">
    <path id="Trazado_801760" data-name="Trazado 801760" d="M411.477,1029.393c.013-11.6-7.484-21-16.814-21.276v-.039h-.32c-.026,0-.05-.009-.076-.009s-.051.009-.077.009l-7.567-.008,0,2.293c-5.668,3.485-9.6,10.639-9.611,18.995s3.91,15.518,9.57,19.016l0,2.3,8.041.008v-.052C403.948,1050.376,411.465,1040.994,411.477,1029.393Z" transform="translate(1.941 0.001)" fill="#1969d5"/>
    <path id="Trazado_801761" data-name="Trazado 801761" d="M386.549,1047.315l0,2.3,8.041.008v-.052c7.579-.208,13.886-6.48,16.022-15.028-2.332,1.964-4.942,1.839-7.784,0l-25.081-.008A20.769,20.769,0,0,0,386.549,1047.315Z" transform="translate(1.97 1.059)" fill="#8a0040" opacity="0.2" style="mix-blend-mode: multiply;isolation: isolate"/>
    <ellipse id="Elipse_8318" data-name="Elipse 8318" cx="21.308" cy="17.234" rx="21.308" ry="17.234" transform="translate(370.972 1050.656) rotate(-89.937)" fill="#59bee2"/>
    <path id="Trazado_801762" data-name="Trazado 801762" d="M392.422,1048.429l-1.674-20.611-13.7,1.113,1.511,18.6a14.517,14.517,0,0,0,7.7,2.351A14.3,14.3,0,0,0,392.422,1048.429Z" transform="translate(1.943 0.79)" fill="#8a0040" opacity="0.3" style="mix-blend-mode: multiply;isolation: isolate"/>
    <path id="Trazado_801763" data-name="Trazado 801763" d="M369.943,1030.746c.013-11.768,7.739-21.3,17.258-21.29,6.73.008,12.49,4.83,15.321,11.785-2.58-7.728-8.72-13.175-15.9-13.182-9.519-.01-17.245,9.521-17.258,21.289a25.154,25.154,0,0,0,1.892,9.544A25.61,25.61,0,0,1,369.943,1030.746Z" transform="translate(1.636 0.001)" fill="#fff2f8" opacity="0.3" style="mix-blend-mode: screen;isolation: isolate"/>
    <path id="Trazado_801764" data-name="Trazado 801764" d="M391.583,1028.933c.005-4.063-2.82-7.357-6.319-7.391v0h-.019c-.009,0-.019,0-.028,0s-.009,0-.014,0l-29.507-.032-.016,14.775,29.567.033v-.013C388.745,1036.278,391.579,1033,391.583,1028.933Z" transform="translate(1.089 0.538)" fill="#1969d5"/>
    <path id="Trazado_801765" data-name="Trazado 801765" d="M373.356,1029.446c.012-11.715-8.135-21.216-18.223-21.312v-.006h-.051c-.028,0-.054-.009-.082-.01s-.054.01-.082.01l-7.826-.009,0,2.139c-6.178,3.429-10.484,10.677-10.492,19.147s4.278,15.729,10.449,19.17l0,2.152,8.041.008v-.018C365.174,1050.644,373.343,1041.161,373.356,1029.446Z" transform="translate(0.327 0.003)" fill="#1969d5"/>
    <path id="Trazado_801766" data-name="Trazado 801766" d="M347.017,1047.521l0,2.152,8.041.008v-.018c8.235-.06,15.11-6.433,17.394-15.13-1.634,1.837-5.963,2.029-8.373,0l-26.721-.009A20.775,20.775,0,0,0,347.017,1047.521Z" transform="translate(0.357 1.058)" fill="#8a0040" opacity="0.2" style="mix-blend-mode: multiply;isolation: isolate"/>
    <ellipse id="Elipse_8319" data-name="Elipse 8319" cx="21.308" cy="18.379" rx="21.308" ry="18.379" transform="translate(328.418 1050.708) rotate(-89.937)" fill="#59bee2"/>
    <path id="Trazado_801767" data-name="Trazado 801767" d="M355.3,1030.023c-.005,5.495-3.853,9.945-8.592,9.94s-8.577-4.463-8.571-9.958,3.853-9.945,8.593-9.94S355.309,1024.527,355.3,1030.023Z" transform="translate(0.388 0.48)" fill="#8a0040" opacity="0.3" style="mix-blend-mode: multiply;isolation: isolate"/>
    <ellipse id="Elipse_8320" data-name="Elipse 8320" cx="9.426" cy="8.131" rx="9.426" ry="8.131" transform="translate(338.68 1038.837) rotate(-89.937)" fill="#ecd2bd"/>
    <path id="Trazado_801768" data-name="Trazado 801768" d="M330.306,1031.776c.012-11.768,8.251-21.3,18.4-21.288a17.007,17.007,0,0,1,12.441,5.73c-3.362-4.9-8.485-8.1-14.306-8.109-10.15-.011-18.389,9.519-18.4,21.287a22.827,22.827,0,0,0,5.914,15.6A23.254,23.254,0,0,1,330.306,1031.776Z" transform="translate(0.001 0.003)" fill="#fff2f8" opacity="0.3" style="mix-blend-mode: screen;isolation: isolate"/>
    <g id="Grupo_1065418" data-name="Grupo 1065418" transform="translate(339.797 1021.178)" opacity="0.5" style="mix-blend-mode: screen;isolation: isolate">
      <path id="Trazado_801769" data-name="Trazado 801769" d="M349.071,1021.863c2.21,3.543-5.684,5.2-6.9,3.355C340.276,1022.357,347.144,1018.772,349.071,1021.863Z" transform="translate(-339.26 -1020.673)" fill="#fff6e5"/>
      <path id="Trazado_801770" data-name="Trazado 801770" d="M341.39,1026.361c2.345.888-.043,3.755-1.152,3.3C338.517,1028.945,339.552,1025.665,341.39,1026.361Z" transform="translate(-339.36 -1020.45)" fill="#fff6e5"/>
    </g>
  </g>
</svg>
