<svg xmlns="http://www.w3.org/2000/svg" xmlns:xlink="http://www.w3.org/1999/xlink" width="73.597" height="75.238" viewBox="0 0 73.597 75.238">
  <defs>
    <linearGradient id="linear-gradient" x1="0.5" y1="-6.188" x2="0.5" y2="1.364" gradientUnits="objectBoundingBox">
      <stop offset="0" stop-color="#544140"/>
      <stop offset="0.534" stop-color="#503d3c"/>
      <stop offset="1" stop-color="#463332"/>
    </linearGradient>
    <linearGradient id="linear-gradient-2" x1="-4.191" y1="-6.188" x2="-4.191" y2="1.364" xlink:href="#linear-gradient"/>
    <linearGradient id="linear-gradient-3" x1="-63.953" y1="-19.688" x2="-63.953" y2="-18.619" xlink:href="#linear-gradient"/>
    <linearGradient id="linear-gradient-4" x1="65.405" y1="-21.548" x2="65.405" y2="-20.477" xlink:href="#linear-gradient"/>
  </defs>
  <g id="Grupo_1065417" data-name="Grupo 1065417" transform="translate(-203.565 -1078.631)">
    <g id="Grupo_1065416" data-name="Grupo 1065416" transform="translate(4.667 46.663)">
      <g id="Grupo_1065404" data-name="Grupo 1065404" transform="translate(212.987 1092.474)">
        <path id="Trazado_801733" data-name="Trazado 801733" d="M230.029,1132.1s-5.685,6.428-7.733,5.538c-2.009-.874.613-8.439.613-8.439Z" transform="translate(-221.538 -1129.195)" fill="url(#linear-gradient)"/>
        <path id="Trazado_801734" data-name="Trazado 801734" d="M280.878,1132.1s5.685,6.428,7.733,5.538c2.009-.874-.613-8.439-.613-8.439Z" transform="translate(-243.95 -1129.195)" fill="url(#linear-gradient-2)"/>
      </g>
      <circle id="Elipse_8314" data-name="Elipse 8314" cx="30.589" cy="30.589" r="30.589" transform="translate(198.898 1093.151) rotate(-76.717)" fill="#92df98"/>
      <circle id="Elipse_8315" data-name="Elipse 8315" cx="27.987" cy="27.987" r="27.987" transform="translate(207.71 1042.421)" fill="#288640"/>
      <circle id="Elipse_8316" data-name="Elipse 8316" cx="26.897" cy="26.897" r="26.897" transform="translate(200.554 1055.851) rotate(-22.5)" fill="#ffe6d6"/>
      <g id="Grupo_1065409" data-name="Grupo 1065409" transform="translate(202.584 1031.968)">
        <g id="Grupo_1065406" data-name="Grupo 1065406">
          <path id="Trazado_801735" data-name="Trazado 801735" d="M216.922,1034.632c.946,1.4,1.124,2.938-.279,3.884s-2.759.205-3.7-1.2-1.124-2.938.279-3.884S215.976,1033.229,216.922,1034.632Z" transform="translate(-207.607 -1032.362)" fill="url(#linear-gradient-3)"/>
          <path id="Trazado_801736" data-name="Trazado 801736" d="M207.138,1055.121l25.052-16.888s-7.17-11.728-19.981-3.092S207.138,1055.121,207.138,1055.121Z" transform="translate(-204.821 -1031.968)" fill="#59bee2"/>
          <path id="Trazado_801737" data-name="Trazado 801737" d="M214.881,1033.762c2.359-.145,4.308.474,5.3,1.945,2.068,3.067-.753,8.586-6.3,12.326a18.1,18.1,0,0,1-8.132,3.149,15.1,15.1,0,0,0,1.74,3.941l25.052-16.888S226.234,1027.92,214.881,1033.762Z" transform="translate(-205.171 -1031.969)" fill="#aa2424" opacity="0.2" style="mix-blend-mode: multiply;isolation: isolate"/>
          <g id="Grupo_1065405" data-name="Grupo 1065405" transform="translate(1.736 6.779)" opacity="0.5" style="mix-blend-mode: screen;isolation: isolate">
            <path id="Trazado_801738" data-name="Trazado 801738" d="M212.527,1042.97c3.113,1.092-.935,6.013-2.6,5.479C207.351,1047.62,209.812,1042.018,212.527,1042.97Z" transform="translate(-208.075 -1042.862)" fill="#fff6e5"/>
            <path id="Trazado_801739" data-name="Trazado 801739" d="M208.61,1053.868c1.974-.159,1.24,2.7.292,2.743C207.432,1056.685,207.062,1053.993,208.61,1053.868Z" transform="translate(-207.611 -1047.016)" fill="#fff6e5"/>
          </g>
        </g>
        <g id="Grupo_1065408" data-name="Grupo 1065408" transform="translate(38.695 0.219)">
          <path id="Trazado_801740" data-name="Trazado 801740" d="M299.483,1037.4c-.961,1.393-2.324,2.119-3.718,1.158s-1.2-2.494-.237-3.886,2.324-2.119,3.717-1.158S300.444,1036,299.483,1037.4Z" transform="translate(-277.487 -1032.604)" fill="url(#linear-gradient-4)"/>
          <path id="Trazado_801741" data-name="Trazado 801741" d="M267,1038.223l24.869,17.156s8.3-10.958-4.417-19.73S267,1038.223,267,1038.223Z" transform="translate(-267.001 -1032.32)" fill="#59bee2"/>
          <path id="Trazado_801742" data-name="Trazado 801742" d="M289.586,1039.032c1,2.143,1.132,4.183.124,5.644-2.1,3.045-8.268,2.434-13.775-1.365a18.1,18.1,0,0,1-5.9-6.42,15.1,15.1,0,0,0-3.033,3.059L291.87,1057.1S299.169,1047.467,289.586,1039.032Z" transform="translate(-267.001 -1034.046)" fill="#aa2424" opacity="0.2" style="mix-blend-mode: multiply;isolation: isolate"/>
          <g id="Grupo_1065407" data-name="Grupo 1065407" transform="translate(6.472 1.259)" opacity="0.5" style="mix-blend-mode: screen;isolation: isolate">
            <path id="Trazado_801743" data-name="Trazado 801743" d="M289.931,1036.651c.119,3.3-5.939,1.325-6.049-.418C283.712,1033.53,289.827,1033.776,289.931,1036.651Z" transform="translate(-279.848 -1034.343)" fill="#fff6e5"/>
            <path id="Trazado_801744" data-name="Trazado 801744" d="M279.946,1036.483c.869,1.78-2.056,2.138-2.446,1.273C276.894,1036.415,279.265,1035.087,279.946,1036.483Z" transform="translate(-277.402 -1034.927)" fill="#fff6e5"/>
          </g>
        </g>
      </g>
      <path id="Trazado_801745" data-name="Trazado 801745" d="M250.948,1057.084a22.692,22.692,0,0,0-11.057,2.865l.245-.1,10.811,20.041-11.668,19.573a22.8,22.8,0,1,0,11.668-42.383Z" transform="translate(-15.252 -9.486)" fill="#59bee2"/>
      <g id="Grupo_1065415" data-name="Grupo 1065415" transform="translate(211.239 1045.95)">
        <g id="Grupo_1065410" data-name="Grupo 1065410">
          <path id="Trazado_801746" data-name="Trazado 801746" d="M258.756,1128.953a1.846,1.846,0,1,1-1.846-1.846A1.846,1.846,0,0,1,258.756,1128.953Z" transform="translate(-232.452 -1081.883)" fill="#655352"/>
          <circle id="Elipse_8317" data-name="Elipse 8317" cx="1.846" cy="1.846" r="1.846" transform="translate(22.612)" fill="#655352"/>
          <path id="Trazado_801747" data-name="Trazado 801747" d="M220.574,1094.463a1.846,1.846,0,1,1,1.846-1.846A1.846,1.846,0,0,1,220.574,1094.463Z" transform="translate(-218.728 -1068.159)" fill="#655352"/>
          <path id="Trazado_801748" data-name="Trazado 801748" d="M293.246,1094.463a1.846,1.846,0,1,1,1.846-1.846A1.846,1.846,0,0,1,293.246,1094.463Z" transform="translate(-246.175 -1068.159)" fill="#655352"/>
        </g>
        <g id="Grupo_1065413" data-name="Grupo 1065413" transform="translate(3.597 3.597)">
          <path id="Trazado_801749" data-name="Trazado 801749" d="M239.609,1124.833a.923.923,0,1,1-.319-1.266A.923.923,0,0,1,239.609,1124.833Z" transform="translate(-229.564 -1084.093)" fill="#806e6e"/>
          <path id="Trazado_801750" data-name="Trazado 801750" d="M276.915,1062.469a.923.923,0,1,1-.318-1.266A.923.923,0,0,1,276.915,1062.469Z" transform="translate(-243.654 -1060.539)" fill="#806e6e"/>
          <path id="Trazado_801751" data-name="Trazado 801751" d="M225.814,1075.316a.923.923,0,1,1,1.266-.318A.923.923,0,0,1,225.814,1075.316Z" transform="translate(-224.832 -1065.271)" fill="#806e6e"/>
          <path id="Trazado_801752" data-name="Trazado 801752" d="M288.178,1112.622a.923.923,0,1,1,1.266-.318A.922.922,0,0,1,288.178,1112.622Z" transform="translate(-248.386 -1079.361)" fill="#806e6e"/>
          <g id="Grupo_1065411" data-name="Grupo 1065411" transform="translate(0 9.271)">
            <path id="Trazado_801753" data-name="Trazado 801753" d="M225.867,1111.132a.923.923,0,1,1,.378-1.249A.923.923,0,0,1,225.867,1111.132Z" transform="translate(-224.509 -1088.061)" fill="#806e6e"/>
            <path id="Trazado_801754" data-name="Trazado 801754" d="M289.944,1076.85a.923.923,0,1,1,.378-1.25A.923.923,0,0,1,289.944,1076.85Z" transform="translate(-248.71 -1075.112)" fill="#806e6e"/>
          </g>
          <g id="Grupo_1065412" data-name="Grupo 1065412" transform="translate(9.271)">
            <path id="Trazado_801755" data-name="Trazado 801755" d="M239.515,1061.574a.923.923,0,1,1,1.249.378A.924.924,0,0,1,239.515,1061.574Z" transform="translate(-239.406 -1060.215)" fill="#806e6e"/>
            <path id="Trazado_801756" data-name="Trazado 801756" d="M273.8,1125.651a.923.923,0,1,1,1.249.378A.922.922,0,0,1,273.8,1125.651Z" transform="translate(-252.354 -1084.417)" fill="#806e6e"/>
          </g>
        </g>
        <g id="Grupo_1065414" data-name="Grupo 1065414" transform="translate(16.981 10.601)">
          <path id="Trazado_801757" data-name="Trazado 801757" d="M258.756,1092.617a1.846,1.846,0,1,1-1.846-1.846A1.846,1.846,0,0,1,258.756,1092.617Z" transform="translate(-249.433 -1078.76)" fill="#655352"/>
          <path id="Trazado_801758" data-name="Trazado 801758" d="M264.651,1085.03c-5.032,2.706-6.4,2.966-6.638,2.517s.732-1.437,5.764-4.143,12.216-6.106,12.457-5.657S269.682,1082.323,264.651,1085.03Z" transform="translate(-250.534 -1073.826)" fill="#655352"/>
          <path id="Trazado_801759" data-name="Trazado 801759" d="M251.782,1080.089c2.051,3.789,2.159,4.866,1.71,5.109s-1.283-.442-3.334-4.23-4.539-9.246-4.09-9.489S249.732,1076.3,251.782,1080.089Z" transform="translate(-246.015 -1071.47)" fill="#655352"/>
        </g>
      </g>
    </g>
  </g>
</svg>
