<svg xmlns="http://www.w3.org/2000/svg" width="85" height="85" viewBox="0 0 85 85">
  <g id="Grupo_1065524" data-name="Grupo 1065524" transform="translate(-180 -429)">
    <g id="Grupo_1063897" data-name="Grupo 1063897" transform="translate(0 -17)">
      <rect id="Rectángulo_373435" data-name="Rectángulo 373435" width="85" height="85" rx="5" transform="translate(180 446)" fill="#92df98"/>
    </g>
    <g id="felicidad" transform="translate(169.837 438.962)">
      <g id="Grupo_1065375" data-name="Grupo 1065375" transform="translate(22.532 0)">
        <path id="Trazado_801689" data-name="Trazado 801689" d="M77.558,43.026c-3.3-8.336,7.8-16.95,4.674-25.589C79.251,9.2,72.324,12.973,66.22,11.072c-3.705-1.154-4.118-6.555-7.172-8.95C47.967-6.568,19.428,13.7,22.808,22.114c1.075,2.676,4.6,3.164,6.3,5.306,4.524,5.7,3.978,11.767,1.478,18.556-1.784,4.845-.41,14.191,5.375,14.784,11.338,1.162,10.73-6.635,23.833,1.4C77.136,72.8,84.356,60.188,77.558,43.026Z" transform="translate(-22.532 0)" fill="#c2ffc7"/>
      </g>
      <g id="Grupo_1065401" data-name="Grupo 1065401" transform="translate(22.616 1.736)">
        <g id="Grupo_1065395" data-name="Grupo 1065395">
          <g id="Grupo_1065392" data-name="Grupo 1065392" transform="translate(0.646 1.816)">
            <g id="Grupo_1065376" data-name="Grupo 1065376" transform="translate(0 1.281)">
              <path id="Trazado_801690" data-name="Trazado 801690" d="M288.154,40.429a.645.645,0,0,0,.645-.645V38.1a.645.645,0,1,0-1.291,0v1.684A.645.645,0,0,0,288.154,40.429Z" transform="translate(-254.041 -37.455)" fill="#2626bc" opacity="0.1"/>
              <path id="Trazado_801691" data-name="Trazado 801691" d="M288.154,80.385a.645.645,0,0,0,.645-.645V78.056a.645.645,0,1,0-1.291,0V79.74A.645.645,0,0,0,288.154,80.385Z" transform="translate(-254.041 -72.254)" fill="#2626bc" opacity="0.1"/>
              <path id="Trazado_801692" data-name="Trazado 801692" d="M301.609,65.248h1.684a.645.645,0,0,0,0-1.291h-1.684a.645.645,0,1,0,0,1.291Z" transform="translate(-265.76 -60.537)" fill="#2626bc" opacity="0.1"/>
              <path id="Trazado_801693" data-name="Trazado 801693" d="M261.653,65.248h1.684a.645.645,0,0,0,0-1.291h-1.684a.645.645,0,0,0,0,1.291Z" transform="translate(-230.961 -60.537)" fill="#2626bc" opacity="0.1"/>
              <path id="Trazado_801694" data-name="Trazado 801694" d="M303.4,48.971a.643.643,0,0,0,.456-.189l.153-.153a.645.645,0,0,0-.912-.912l-.153.153a.645.645,0,0,0,.456,1.1Z" transform="translate(-267.318 -46.227)" fill="#2626bc" opacity="0.1"/>
              <path id="Trazado_801695" data-name="Trazado 801695" d="M271.421,79.389l-.153.153a.645.645,0,1,0,.912.912l.153-.153a.645.645,0,0,0-.912-.912Z" transform="translate(-239.732 -73.813)" fill="#2626bc" opacity="0.1"/>
              <path id="Trazado_801696" data-name="Trazado 801696" d="M302.942,79.389a.645.645,0,0,0,0,.912l.153.153a.645.645,0,0,0,.912-.912l-.153-.153A.645.645,0,0,0,302.942,79.389Z" transform="translate(-267.318 -73.813)" fill="#2626bc" opacity="0.1"/>
              <path id="Trazado_801697" data-name="Trazado 801697" d="M271.421,48.782a.645.645,0,1,0,.912-.912l-.153-.153a.645.645,0,0,0-.912.912Z" transform="translate(-239.732 -46.227)" fill="#2626bc" opacity="0.1"/>
              <path id="Trazado_801698" data-name="Trazado 801698" d="M84.664,91.634,81.945,81.521a19.963,19.963,0,0,0-5.161-15.781,3.522,3.522,0,0,0-.872-6.629,5.16,5.16,0,0,0-9.657,0,3.518,3.518,0,0,0-2.8,4.078c-1.2.244-2.453.558-3.731.941l-2.287-7.382a2.581,2.581,0,0,0-3.229-1.7L44.354,58.1a4.733,4.733,0,1,0-8.371.68c-.154-.01-.31-.016-.467-.016a7.331,7.331,0,0,0-1.68,14.467,5.162,5.162,0,0,0-1,1.636A3.521,3.521,0,1,0,35.371,81.3a5.159,5.159,0,0,0,4.591,0,3.5,3.5,0,0,0,1.871.539,3.563,3.563,0,0,0,.412-.025,20.041,20.041,0,0,0,9.446,14.55l-2.1,12.752a.645.645,0,0,0,.637.75h17.48a.645.645,0,0,0,.645-.645v-8.034l10.029,1.487a1.793,1.793,0,0,0,2.057-1.775V94.616l3.487-1.478A1.276,1.276,0,0,0,84.664,91.634Z" transform="translate(-28.185 -49.71)" fill="#2626bc" opacity="0.1"/>
            </g>
            <g id="Grupo_1065391" data-name="Grupo 1065391">
              <path id="Trazado_801699" data-name="Trazado 801699" d="M313.525,63.75a5.16,5.16,0,0,0-9.657,0,3.521,3.521,0,1,0,2.533,6.441,5.159,5.159,0,0,0,4.591,0,3.521,3.521,0,1,0,2.533-6.441Z" transform="translate(-265.798 -56.167)" fill="#59bee2"/>
              <g id="Grupo_1065378" data-name="Grupo 1065378" transform="translate(1.793 19.995)">
                <path id="Trazado_801700" data-name="Trazado 801700" d="M54.595,185.8a5.16,5.16,0,0,0-9.657,0,3.521,3.521,0,1,0,2.533,6.441,5.159,5.159,0,0,0,4.591,0,3.521,3.521,0,1,0,2.533-6.441Z" transform="translate(-42.078 -182.462)" fill="#59bee2"/>
                <g id="Grupo_1065377" data-name="Grupo 1065377" transform="translate(1.603)">
                  <path id="Trazado_801701" data-name="Trazado 801701" d="M95.683,188.51a3.523,3.523,0,0,0-2.777-2.71,5.161,5.161,0,0,0-6.84-2.932l1.673,5.4a2.581,2.581,0,0,0,3.229,1.7Z" transform="translate(-81.992 -182.461)" fill="#59bee2"/>
                  <path id="Trazado_801702" data-name="Trazado 801702" d="M58.432,187.458a7.323,7.323,0,0,0,6.059-3.2,5.158,5.158,0,0,0-8.737,1.546,3.5,3.5,0,0,0-1.257.51,7.293,7.293,0,0,0,3.935,1.147Z" transform="translate(-54.497 -182.461)" fill="#59bee2"/>
                </g>
              </g>
              <g id="Grupo_1065387" data-name="Grupo 1065387" transform="translate(5.844 3.402)">
                <g id="Grupo_1065384" data-name="Grupo 1065384" transform="translate(8.057 7.623)">
                  <g id="Grupo_1065382" data-name="Grupo 1065382" transform="translate(0 1.609)">
                    <path id="Trazado_801703" data-name="Trazado 801703" d="M177.745,154.4l-3.487,1.478v6.285a1.793,1.793,0,0,1-2.057,1.775l-10.029-1.487v8.679H143.287l2.22-13.5a20,20,0,0,1-9.426-19.726l32.9-12.479a19.985,19.985,0,0,1,6.785,17.359L178.48,152.9A1.276,1.276,0,0,1,177.745,154.4Z" transform="translate(-135.902 -125.427)" fill="#f7d5ba"/>
                    <path id="Trazado_801704" data-name="Trazado 801704" d="M244.822,214.214a2.87,2.87,0,0,0-3.93,1.013l-.341.578-.578-.341a2.87,2.87,0,0,0-2.917,4.943l5.161,3.046a.419.419,0,0,0,.573-.148l3.046-5.161a2.87,2.87,0,0,0-1.013-3.93Z" transform="translate(-222.771 -202.408)" fill="#e2c4ac"/>
                    <g id="Grupo_1065379" data-name="Grupo 1065379" transform="translate(29.729 28.865)">
                      <path id="Trazado_801705" data-name="Trazado 801705" d="M370.15,352.768a4.654,4.654,0,0,1-3.076-.932,2.6,2.6,0,0,1-.808-2.139.645.645,0,1,1,1.289.07,1.317,1.317,0,0,0,.388,1.114c.764.7,2.48.627,3.077.54a.645.645,0,0,1,.188,1.277,7.63,7.63,0,0,1-1.058.07Z" transform="translate(-366.261 -349.087)" fill="#f1a143"/>
                    </g>
                    <g id="Grupo_1065381" data-name="Grupo 1065381" transform="translate(17.307 31.633)">
                      <g id="Grupo_1065380" data-name="Grupo 1065380">
                        <path id="Trazado_801706" data-name="Trazado 801706" d="M278.97,376.578a.654.654,0,0,1-.106-.009l-4.922-.81a4.376,4.376,0,0,1-3.486-3.034l-.42-1.35a.645.645,0,0,1,1.232-.384l.42,1.35a3.093,3.093,0,0,0,2.464,2.144l4.922.81a.645.645,0,0,1-.1,1.282Z" transform="translate(-270.007 -370.538)" fill="#f1a143"/>
                      </g>
                    </g>
                  </g>
                  <path id="Trazado_801707" data-name="Trazado 801707" d="M151.774,129.669c-7.255,1.847-13.263,1.323-14.343-1.561-1.308-3.494,5.114-9.126,14.342-12.581s17.771-3.423,19.078.071c.628,1.678-.527,3.849-3.153,6.246a25.845,25.845,0,0,1-3.543,2.611l-6.857.579Z" transform="translate(-137.087 -112.956)" fill="#1969d5"/>
                  <path id="Trazado_801708" data-name="Trazado 801708" d="M164.644,131.46l-5.228.6-3.456-3.967a1.291,1.291,0,0,0-1.887-.066l-.228-.735q-1.027.331-2.07.721c-9.229,3.455-15.65,9.087-14.343,12.581a2.66,2.66,0,0,0,.348.64l5.954-1.844.654,2.112a1.291,1.291,0,0,0,2.152.524l2.831-2.871,2.915,1.647.105,1.191c1.342-.363,2.723-.806,4.12-1.328a43.445,43.445,0,0,0,7.053-3.361l2.334-3.894a1.29,1.29,0,0,0-1.253-1.946Z" transform="translate(-137.087 -125.439)" fill="#4369fc"/>
                  <g id="Grupo_1065383" data-name="Grupo 1065383" transform="translate(25.625 12.077)">
                    <path id="Trazado_801709" data-name="Trazado 801709" d="M335.1,242.42a.645.645,0,0,1-.645-.645V233.1a.645.645,0,0,1,.74-.638l10.029,1.487a1.148,1.148,0,0,0,1.317-1.136v-6.285a.645.645,0,0,1,.393-.594l3.487-1.478a.633.633,0,0,0,.363-.743l-2.719-10.113a.645.645,0,0,1-.018-.24,19.252,19.252,0,0,0-.268-6.044.645.645,0,1,1,1.264-.259,20.531,20.531,0,0,1,.3,6.326l2.688,10a1.929,1.929,0,0,1-1.1,2.266l-3.094,1.311v5.858a2.439,2.439,0,0,1-2.8,2.413l-9.289-1.377v7.931A.645.645,0,0,1,335.1,242.42Z" transform="translate(-334.456 -206.535)" fill="#12263f"/>
                  </g>
                </g>
                <g id="Grupo_1065386" data-name="Grupo 1065386">
                  <path id="Trazado_801710" data-name="Trazado 801710" d="M93.643,54,75.287,59.69a2.581,2.581,0,0,0-1.7,3.229l3.182,10.273A2.581,2.581,0,0,0,80,74.894l8.176-2.533.654,2.112A1.291,1.291,0,0,0,90.979,75l4.976-5.047,2.4-.743a2.581,2.581,0,0,0,1.7-3.229L96.872,55.706A2.581,2.581,0,0,0,93.643,54Z" transform="translate(-73.469 -53.888)" fill="#f7c92d"/>
                  <path id="Trazado_801711" data-name="Trazado 801711" d="M84.908,80.818a4.733,4.733,0,0,0,9.031-2.828L85.25,80.682A2.61,2.61,0,0,0,84.908,80.818Z" transform="translate(-83.432 -74.879)" fill="#e2b92d"/>
                  <path id="Trazado_801712" data-name="Trazado 801712" d="M74.96,107.567a7.374,7.374,0,0,0-1.162.093,2.571,2.571,0,0,0-.208,2.011l3.182,10.273a2.571,2.571,0,0,0,1.361,1.566,7.332,7.332,0,0,0-3.172-13.942Z" transform="translate(-73.473 -100.639)" fill="#e2b92d"/>
                  <g id="Grupo_1065385" data-name="Grupo 1065385" transform="translate(7.412 5.973)">
                    <circle id="Elipse_8309" data-name="Elipse 8309" cx="1.613" cy="1.613" r="1.613" transform="translate(0 3.293)" fill="#fff"/>
                    <circle id="Elipse_8310" data-name="Elipse 8310" cx="1.613" cy="1.613" r="1.613" transform="translate(5.315 1.646)" fill="#fff"/>
                    <circle id="Elipse_8311" data-name="Elipse 8311" cx="1.613" cy="1.613" r="1.613" transform="translate(10.63)" fill="#fff"/>
                  </g>
                  <path id="Trazado_801713" data-name="Trazado 801713" d="M231.936,111.819l-2.705,4.513.964,2.115a42.811,42.811,0,0,1-7.645,3.723c-1.3.488-2.594.907-3.852,1.256l-.373-4.215-4.582-2.589a1.291,1.291,0,0,1,.13-2.311l4.841-2.061,1.047-5.156A1.29,1.29,0,0,1,222,106.5l3.456,3.967,5.228-.6A1.29,1.29,0,0,1,231.936,111.819Z" transform="translate(-195.069 -99.326)" fill="#c2ffc7"/>
                </g>
              </g>
              <g id="Grupo_1065389" data-name="Grupo 1065389" transform="translate(0 7.232)">
                <g id="Grupo_1065388" data-name="Grupo 1065388" transform="translate(0 0)">
                  <circle id="Elipse_8312" data-name="Elipse 8312" cx="7.331" cy="7.331" r="7.331" transform="translate(0 0)" fill="#c2ffc7"/>
                  <path id="Trazado_801714" data-name="Trazado 801714" d="M83.248,83.567c-.074,0-.147,0-.22.006A4.725,4.725,0,0,0,87.723,88.9a4.709,4.709,0,0,0,2.367-.635A7.333,7.333,0,0,0,83.248,83.567Z" transform="translate(-75.917 -83.567)" fill="#c2ffc7"/>
                </g>
              </g>
              <g id="Grupo_1065390" data-name="Grupo 1065390" transform="translate(7.073)">
                <circle id="Elipse_8313" data-name="Elipse 8313" cx="4.733" cy="4.733" r="4.733" fill="#59bee2"/>
                <path id="Trazado_801716" data-name="Trazado 801716" d="M105.974,48.244H105v-.978a.645.645,0,0,0-1.291,0v.978h-.978a.645.645,0,0,0,0,1.291h.978v.978a.645.645,0,1,0,1.291,0v-.978h.978a.645.645,0,0,0,0-1.291Z" transform="translate(-99.618 -44.157)" fill="#fff"/>
              </g>
            </g>
          </g>
          <g id="Grupo_1065394" data-name="Grupo 1065394">
            <path id="Trazado_801717" data-name="Trazado 801717" d="M244.822,190.214a2.87,2.87,0,0,0-3.93,1.013l-.341.578-.578-.341a2.87,2.87,0,1,0-2.917,4.943l5.161,3.046a.419.419,0,0,0,.573-.148l3.046-5.161a2.87,2.87,0,0,0-1.013-3.93Z" transform="translate(-208.223 -167.055)" fill="#ea6b6b"/>
            <path id="Trazado_801732" data-name="Trazado 801732" d="M244.822,190.214a2.87,2.87,0,0,0-3.93,1.013l-.341.578-.578-.341a2.87,2.87,0,1,0-2.917,4.943l5.161,3.046a.419.419,0,0,0,.573-.148l3.046-5.161a2.87,2.87,0,0,0-1.013-3.93Z" transform="translate(-233.223 -178.055)" fill="#f1a143"/>
            <g id="Grupo_1065393" data-name="Grupo 1065393">
              <path id="Trazado_801718" data-name="Trazado 801718" d="M288.154,16.429a.645.645,0,0,0,.645-.645V14.1a.645.645,0,1,0-1.291,0v1.684A.645.645,0,0,0,288.154,16.429Z" transform="translate(-253.395 -13.455)" fill="#1969d5"/>
              <path id="Trazado_801719" data-name="Trazado 801719" d="M288.154,56.385a.645.645,0,0,0,.645-.645V54.056a.645.645,0,1,0-1.291,0V55.74A.645.645,0,0,0,288.154,56.385Z" transform="translate(-253.395 -48.254)" fill="#1969d5"/>
              <path id="Trazado_801720" data-name="Trazado 801720" d="M301.609,41.248h1.684a.645.645,0,0,0,0-1.291h-1.684a.645.645,0,1,0,0,1.291Z" transform="translate(-265.114 -36.537)" fill="#1969d5"/>
              <path id="Trazado_801721" data-name="Trazado 801721" d="M261.653,41.248h1.684a.645.645,0,0,0,0-1.291h-1.684a.645.645,0,0,0,0,1.291Z" transform="translate(-230.315 -36.537)" fill="#1969d5"/>
              <path id="Trazado_801722" data-name="Trazado 801722" d="M303.4,24.971a.643.643,0,0,0,.456-.189l.153-.153a.645.645,0,0,0-.912-.912l-.153.153a.645.645,0,0,0,.456,1.1Z" transform="translate(-266.672 -22.227)" fill="#1969d5"/>
              <path id="Trazado_801723" data-name="Trazado 801723" d="M271.421,55.389l-.153.153a.645.645,0,1,0,.912.912l.153-.153a.645.645,0,1,0-.912-.912Z" transform="translate(-239.086 -49.813)" fill="#1969d5"/>
              <path id="Trazado_801724" data-name="Trazado 801724" d="M302.942,55.389a.645.645,0,0,0,0,.912l.153.153a.645.645,0,0,0,.912-.912l-.153-.153A.645.645,0,0,0,302.942,55.389Z" transform="translate(-266.672 -49.813)" fill="#1969d5"/>
              <path id="Trazado_801725" data-name="Trazado 801725" d="M271.421,24.782a.645.645,0,0,0,.912-.912l-.153-.153a.645.645,0,0,0-.912.912Z" transform="translate(-239.086 -22.227)" fill="#1969d5"/>
              <path id="Trazado_801726" data-name="Trazado 801726" d="M76.734,42.909a20.828,20.828,0,0,0-3.322-5.377,4.167,4.167,0,0,0-1.39-7.328,5.805,5.805,0,0,0-10.6,0,4.17,4.17,0,0,0-3.035,4.01c0,.036,0,.072,0,.108-.122.027-.245.056-.368.083l-.939-1.078a1.924,1.924,0,0,0-1.954-.6l-.038.011L53.69,28.2a3.225,3.225,0,0,0-4.036-2.128l-5.811,1.8a.645.645,0,0,0,.382,1.233l5.812-1.8a1.935,1.935,0,0,1,2.422,1.277L54,33.554a1.945,1.945,0,0,0-.267.661l-.979,4.824-4.529,1.928a1.936,1.936,0,0,0-.2,3.467l.933.527-2.24,2.271a.645.645,0,0,1-1.075-.262l-.654-2.113a.645.645,0,0,0-.807-.425l-8.176,2.532a1.935,1.935,0,0,1-2.422-1.276l-.1-.323a7.975,7.975,0,0,0,4.041-12.427,5.378,5.378,0,1,0-6.934-3.155A7.975,7.975,0,0,0,28.4,45.222a5.724,5.724,0,0,0-.4.734,4.166,4.166,0,1,0,3.034,7.717,5.816,5.816,0,0,0,4.53,0,4.158,4.158,0,0,0,1.759.455,20.641,20.641,0,0,0,9.295,14.2l-2.15,13.077a.645.645,0,1,0,1.274.209l2.22-13.5a.645.645,0,0,0-.3-.656,19.343,19.343,0,0,1-9.291-16.555,7.7,7.7,0,0,0,4.469,1.638,18.444,18.444,0,0,0,1.892.093,32.037,32.037,0,0,0,7.532-1.026l4.574,2.7a1.064,1.064,0,0,0,1.457-.376l3.046-5.161a3.509,3.509,0,0,0,.274-.581,39.339,39.339,0,0,0,3.517-1.95c4.357-2.73,6.891-5.621,7.148-8.042a19.537,19.537,0,0,1,3.259,5.21.645.645,0,1,0,1.189-.5Zm-41.1-19.091a4.087,4.087,0,1,1-4.087,4.087,4.092,4.092,0,0,1,4.087-4.087ZM24.471,37.735a6.693,6.693,0,0,1,6.686-6.685c.04,0,.079,0,.119,0a5.374,5.374,0,0,0,4.356,2.229c.165,0,.328-.009.49-.023a6.685,6.685,0,1,1-11.651,4.475ZM37.262,48.241a20.587,20.587,0,0,0-.09,4.583,2.861,2.861,0,0,1-1.225-.422.645.645,0,0,0-.63-.032,4.522,4.522,0,0,1-4.018,0,.645.645,0,0,0-.63.032A2.876,2.876,0,1,1,28.6,47.141a.646.646,0,0,0,.484-.407,4.456,4.456,0,0,1,.643-1.153,7.83,7.83,0,0,0,2.493.058l.133.43A3.225,3.225,0,0,0,36.389,48.2l.9-.279C37.275,48.026,37.266,48.134,37.262,48.241Zm1.415.884a2.091,2.091,0,0,1-.126-.81,3.077,3.077,0,0,1,.153-.835l5.245-1.624.464,1.5A1.92,1.92,0,0,0,45.8,48.659a1.962,1.962,0,0,0,.465.056,1.917,1.917,0,0,0,1.371-.578l2.484-2.52.649.367a3.512,3.512,0,0,0,.1,4.625c-6.316,1.37-11.347.791-12.2-1.485Zm21.559-1.007-2.931,4.966-4.966-2.93A2.225,2.225,0,0,1,54.6,46.321l.578.341a.645.645,0,0,0,.884-.228l.341-.578a2.225,2.225,0,0,1,3.832,2.261Zm1.581-1.47a3.512,3.512,0,0,0-1.71-2.687h0A3.519,3.519,0,0,0,55.292,45.2l-.013.022-.022-.013a3.516,3.516,0,0,0-3.4-.094l-3.2-1.806a.646.646,0,0,1,.065-1.156l4.841-2.061a.645.645,0,0,0,.38-.465l1.047-5.156a.645.645,0,0,1,1.119-.3l3.456,3.967a.647.647,0,0,0,.56.217l5.228-.6a.645.645,0,0,1,.626.973l-2.705,4.513a.646.646,0,0,0-.034.6l.727,1.6c-.687.415-1.409.816-2.155,1.2Zm3.257-1.9-.514-1.128L67.09,39.4a1.935,1.935,0,0,0-1.879-2.92l-4.891.559-1.329-1.525c5.331-1.114,9.728-.833,11.371.764a2.142,2.142,0,0,1,.527.787c.713,1.9-1.558,4.88-5.815,7.684Zm7.468-8.18q-.617-.639-1.287-1.223c-1.864-1.8-6.2-2.26-11.567-1.282a2.875,2.875,0,0,1,2.329-2.674.645.645,0,0,0,.483-.406,4.515,4.515,0,0,1,8.45,0,.645.645,0,0,0,.483.406,2.876,2.876,0,0,1,1.11,5.18Z" transform="translate(-23.18 -21.356)" fill="#12263f"/>
            </g>
          </g>
        </g>
        <g id="Grupo_1065396" data-name="Grupo 1065396" transform="translate(5.611 36.638)">
          <path id="Trazado_801727" data-name="Trazado 801727" d="M68.764,301.558a.645.645,0,0,1-.645-.645.818.818,0,0,0-.817-.817.645.645,0,1,1,0-1.291.818.818,0,0,0,.817-.817.645.645,0,1,1,1.291,0,.818.818,0,0,0,.817.817.645.645,0,1,1,0,1.291.818.818,0,0,0-.817.817A.645.645,0,0,1,68.764,301.558Z" transform="translate(-66.656 -297.342)" fill="#01eba4"/>
        </g>
        <g id="Grupo_1065397" data-name="Grupo 1065397" transform="translate(48.493 1.958)">
          <path id="Trazado_801728" data-name="Trazado 801728" d="M401.038,32.839a.645.645,0,0,1-.645-.645.818.818,0,0,0-.817-.817.645.645,0,1,1,0-1.291.818.818,0,0,0,.817-.817.645.645,0,1,1,1.291,0,.818.818,0,0,0,.817.817.645.645,0,0,1,0,1.291.818.818,0,0,0-.817.817A.645.645,0,0,1,401.038,32.839Z" transform="translate(-398.93 -28.623)" fill="#01eba4"/>
        </g>
        <g id="Grupo_1065398" data-name="Grupo 1065398" transform="translate(14.716 46.352)">
          <path id="Trazado_801729" data-name="Trazado 801729" d="M139.315,376.828a.645.645,0,0,1-.645-.645.818.818,0,0,0-.817-.817.645.645,0,1,1,0-1.291.818.818,0,0,0,.817-.817.645.645,0,1,1,1.291,0,.818.818,0,0,0,.817.817.645.645,0,1,1,0,1.291.818.818,0,0,0-.817.817A.645.645,0,0,1,139.315,376.828Z" transform="translate(-137.207 -372.612)" fill="#ecac61"/>
        </g>
        <g id="Grupo_1065399" data-name="Grupo 1065399" transform="translate(13.257 53.96)">
          <path id="Trazado_801730" data-name="Trazado 801730" d="M126.548,434.148a.645.645,0,0,1-.456-1.1l1.291-1.291a.645.645,0,0,1,.913.912L127,433.959A.643.643,0,0,1,126.548,434.148Z" transform="translate(-125.902 -431.567)" fill="#6582fd"/>
        </g>
        <g id="Grupo_1065400" data-name="Grupo 1065400" transform="translate(55.208 15.323)">
          <path id="Trazado_801731" data-name="Trazado 801731" d="M451.6,134.769a.645.645,0,0,1-.456-1.1l1.291-1.291a.645.645,0,0,1,.912.912l-1.291,1.291A.643.643,0,0,1,451.6,134.769Z" transform="translate(-450.957 -132.188)" fill="#ff5ba7"/>
        </g>
      </g>
    </g>
  </g>
</svg>
