<svg id="Grupo_1065179" data-name="Grupo 1065179" xmlns="http://www.w3.org/2000/svg" xmlns:xlink="http://www.w3.org/1999/xlink" width="373.968" height="191.128" viewBox="0 0 373.968 191.128">
  <defs>
    <clipPath id="clip-path">
      <rect id="Rectángulo_374119" data-name="Rectángulo 374119" width="373.968" height="191.128" fill="none"/>
    </clipPath>
    <clipPath id="clip-path-4">
      <rect id="Rectángulo_374105" data-name="Rectángulo 374105" width="47.687" height="24.601" fill="none"/>
    </clipPath>
    <clipPath id="clip-path-6">
      <rect id="Rectángulo_374107" data-name="Rectángulo 374107" width="21.05" height="14.57" fill="none"/>
    </clipPath>
    <clipPath id="clip-path-7">
      <rect id="Rectángulo_374108" data-name="Rectángulo 374108" width="0.114" height="0.231" fill="none"/>
    </clipPath>
    <clipPath id="clip-path-8">
      <rect id="Rectángulo_374109" data-name="Rectángulo 374109" width="16.704" height="34.521" fill="none"/>
    </clipPath>
    <clipPath id="clip-path-9">
      <rect id="Rectángulo_374110" data-name="Rectángulo 374110" width="5.696" height="30.556" fill="none"/>
    </clipPath>
    <clipPath id="clip-path-12">
      <rect id="Rectángulo_374113" data-name="Rectángulo 374113" width="19.052" height="10.982" fill="none"/>
    </clipPath>
    <clipPath id="clip-path-13">
      <rect id="Rectángulo_374114" data-name="Rectángulo 374114" width="21.202" height="15.64" fill="none"/>
    </clipPath>
    <clipPath id="clip-path-14">
      <rect id="Rectángulo_374115" data-name="Rectángulo 374115" width="17.06" height="10.702" fill="none"/>
    </clipPath>
    <clipPath id="clip-path-15">
      <rect id="Rectángulo_374116" data-name="Rectángulo 374116" width="33.575" height="27.871" fill="none"/>
    </clipPath>
  </defs>
  <g id="Grupo_1065178" data-name="Grupo 1065178" clip-path="url(#clip-path)">
    <g id="Grupo_1065140" data-name="Grupo 1065140">
      <g id="Grupo_1065139" data-name="Grupo 1065139" clip-path="url(#clip-path)">
        <path id="Trazado_800624" data-name="Trazado 800624" d="M7.541,201.747s-4.755.472-2.505,10.935A123.855,123.855,0,0,0,9.33,228.572s.265,2.36-1.623,2.214-5.685-1.833-7.073.157c-1.44,2.064-.353,4.661,2.509,7.446s8.909,9.119,9.454,9.694.911,1.73-.391,1.836-10.467-1.334-10.89,3.056,8.826,10.84,9.823,11.564,1.138,1.266.885,1.853-3.288-.189-5.911-.491S.4,265.7.363,268.258s4.7,9.192,19.042,14.552l6.81,2.048,5.281-4.809c10.674-10.98,12.11-19,10.989-21.3s-3.965-1.069-6.206.327-4.654,3.394-5.133,2.972-.584-.972.008-2.053,6.193-10.868,3.934-14.654-9.927,1.435-11.151,1.9-1.381-.754-1.139-1.493,3-9.063,4.4-12.806,1.267-6.554-.916-7.8c-2.106-1.2-4.816,1.943-6.46,2.883s-2.415-1.307-2.415-1.307a123.878,123.878,0,0,0-2.914-16.2c-2.44-10.42-7.046-8.75-7.046-8.75" transform="translate(0 -95.44)" fill="#ebebeb"/>
        <path id="Trazado_800625" data-name="Trazado 800625" d="M34.713,295.064c-1.762-7.66-4.665-21.326-7.219-33.046s-4.873-22.322-6.6-29.989c-.864-3.827-1.564-6.926-2.05-9.079l-.555-2.469c-.06-.276-.106-.49-.14-.644s-.04-.221-.04-.221.024.072.062.216l.161.638.6,2.459c.516,2.137,1.239,5.234,2.119,9.064,1.762,7.66,4.108,18.261,6.66,29.977s5.432,25.39,7.155,33.058" transform="translate(-8.572 -103.936)" fill="#e0e0e0"/>
        <path id="Trazado_800626" data-name="Trazado 800626" d="M11.1,262.131a2.306,2.306,0,0,1,.444.261c.278.179.673.449,1.157.787.968.678,2.28,1.65,3.709,2.747l3.647,2.823,1.11.848a2.318,2.318,0,0,1,.4.328,2.266,2.266,0,0,1-.446-.258c-.278-.18-.673-.45-1.154-.793-.961-.688-2.26-1.676-3.689-2.773l-3.666-2.8-1.115-.843a2.272,2.272,0,0,1-.394-.331" transform="translate(-5.255 -124.056)" fill="#e0e0e0"/>
        <path id="Trazado_800627" data-name="Trazado 800627" d="M32.081,265.233c-.05-.035,1.833-2.829,4.2-6.239s4.336-6.149,4.386-6.114-1.832,2.828-4.2,6.24-4.336,6.148-4.386,6.113" transform="translate(-15.182 -119.678)" fill="#e0e0e0"/>
        <path id="Trazado_800628" data-name="Trazado 800628" d="M37.984,302.938a2.384,2.384,0,0,1,.392-.35l1.11-.9c.935-.759,2.223-1.811,3.6-3.026s2.594-2.351,3.464-3.183l1.033-.984a2.408,2.408,0,0,1,.4-.344,2.4,2.4,0,0,1-.336.4c-.227.25-.561.606-.984,1.036-.844.862-2.043,2.023-3.429,3.238s-2.69,2.254-3.651,2.982c-.482.362-.876.651-1.154.843a2.412,2.412,0,0,1-.444.281" transform="translate(-17.976 -139.211)" fill="#e0e0e0"/>
        <path id="Trazado_800629" data-name="Trazado 800629" d="M16.184,302.162a2.057,2.057,0,0,1,.467.133l1.244.439c1.047.38,2.488.918,4.075,1.526s3.02,1.169,4.053,1.586l1.219.5a2.077,2.077,0,0,1,.436.213,2.05,2.05,0,0,1-.467-.133l-1.244-.439c-1.047-.379-2.489-.918-4.076-1.526s-3.019-1.169-4.052-1.586l-1.219-.5a2.043,2.043,0,0,1-.436-.213" transform="translate(-7.659 -143)" fill="#e0e0e0"/>
        <path id="Trazado_800630" data-name="Trazado 800630" d="M17.525,333.28a3.344,3.344,0,0,1,.6.176l1.6.556c1.345.479,3.2,1.155,5.239,1.914s3.886,1.459,5.217,1.975l1.572.622a3.361,3.361,0,0,1,.566.257,3.331,3.331,0,0,1-.6-.176l-1.6-.557c-1.345-.479-3.2-1.155-5.239-1.914s-3.886-1.459-5.217-1.975l-1.572-.622a3.366,3.366,0,0,1-.566-.257" transform="translate(-8.294 -157.727)" fill="#e0e0e0"/>
        <path id="Trazado_800631" data-name="Trazado 800631" d="M45,332.963a3.905,3.905,0,0,1,.485-.456l1.366-1.188c1.152-1,2.739-2.4,4.446-3.985s3.22-3.061,4.306-4.136l1.287-1.273a3.823,3.823,0,0,1,.49-.45,3.805,3.805,0,0,1-.428.509c-.286.318-.707.772-1.238,1.323-1.058,1.105-2.554,2.6-4.267,4.189s-3.315,2.967-4.495,3.942c-.591.486-1.073.874-1.413,1.136a3.879,3.879,0,0,1-.539.389" transform="translate(-21.295 -152.141)" fill="#e0e0e0"/>
        <path id="Trazado_800632" data-name="Trazado 800632" d="M584.43,283.285c-11.536-10.06-12.623-26.543-10.562-41.032.343-2.419.353-5.007,1.737-7.012s4.236-3.17,6.3-1.913c1.711,1.043,2.271,3.224,3.093,5.067a14.283,14.283,0,0,0,5.107,6.051c1.46.969,3.319,1.665,4.936.988,2.219-.93,2.777-3.8,3.022-6.212q.685-6.755,1.371-13.508a22.634,22.634,0,0,1,1.5-7.092,7.532,7.532,0,0,1,5.253-4.556c2.366-.4,5.064,1.235,5.294,3.65a22.424,22.424,0,0,1-.255,3.013,2.555,2.555,0,0,0,1.228,2.55,2.937,2.937,0,0,0,2.771-.822,32.292,32.292,0,0,0,6.7-8.08,44.8,44.8,0,0,1,6.343-8.4c2.547-2.415,5.9-4.185,9.381-4.008s6.933,2.708,7.441,6.2-1.848,6.738-4.306,9.26a54.2,54.2,0,0,1-12.374,9.487,4.46,4.46,0,0,0-2.094,1.816c-.7,1.553.655,3.316,2.187,4.016,1.735.793,3.708.817,5.567,1.241s3.808,1.474,4.329,3.331c.723,2.574-1.62,4.938-3.833,6.414a46.445,46.445,0,0,1-14.513,6.415,15.66,15.66,0,0,0-5.343,1.92c-1.566,1.094-2.665,3.17-1.983,4.964s2.845,2.579,4.742,2.435,3.671-.975,5.517-1.452c3.452-.895,7.713-.2,9.529,2.892a7.687,7.687,0,0,1,.085,6.844,17.722,17.722,0,0,1-4.3,5.572,46.7,46.7,0,0,1-21.323,11.794c-7.984,1.839-15.193,1.793-22.541-1.829" transform="translate(-271.191 -95.578)" fill="#ebebeb"/>
        <path id="Trazado_800633" data-name="Trazado 800633" d="M603.668,276.838a217.589,217.589,0,0,1,11.1-22.366l3.21-5.713c1.058-1.873,2.107-3.73,3.245-5.483a108.626,108.626,0,0,1,7.118-9.7c2.413-2.976,4.812-5.711,7.073-8.253s4.426-4.863,6.484-6.9a86.2,86.2,0,0,1,10.414-8.874c1.307-.948,2.344-1.65,3.055-2.116l.811-.525a1.847,1.847,0,0,1,.284-.166,1.686,1.686,0,0,1-.259.2l-.785.562c-.693.49-1.714,1.215-3,2.183a91.2,91.2,0,0,0-10.294,8.959c-2.037,2.044-4.177,4.377-6.429,6.922s-4.633,5.291-7.031,8.266a109.727,109.727,0,0,0-7.068,9.676c-1.13,1.745-2.168,3.587-3.227,5.465l-3.207,5.711A223.076,223.076,0,0,0,604.046,277" transform="translate(-285.692 -97.843)" fill="#e0e0e0"/>
        <path id="Trazado_800634" data-name="Trazado 800634" d="M636.625,251.886a4.9,4.9,0,0,1-.125-1.055c-.055-.681-.1-1.668-.142-2.889-.082-2.44-.081-5.815-.065-9.535s-.031-7.087-.15-9.519c-.056-1.217-.112-2.2-.159-2.881a4.873,4.873,0,0,1-.022-1.062,4.845,4.845,0,0,1,.195,1.045c.1.676.2,1.659.3,2.877.2,2.437.3,5.815.282,9.54-.025,3.671-.048,6.992-.065,9.53,0,1.146,0,2.112,0,2.888a4.885,4.885,0,0,1-.049,1.062" transform="translate(-300.967 -106.457)" fill="#e0e0e0"/>
        <path id="Trazado_800635" data-name="Trazado 800635" d="M668.9,271.1a6.7,6.7,0,0,1-1.254.015c-.8-.015-1.967-.043-3.405-.031-2.876,0-6.849.14-11.226.486s-8.325.843-11.17,1.279c-1.425.208-2.573.407-3.367.54a6.681,6.681,0,0,1-1.243.166,6.712,6.712,0,0,1,1.21-.339c.786-.186,1.929-.434,3.351-.683,2.84-.518,6.8-1.059,11.186-1.414a109.98,109.98,0,0,1,11.263-.354c1.442.029,2.607.105,3.411.175a6.642,6.642,0,0,1,1.244.161" transform="translate(-301.578 -128.13)" fill="#e0e0e0"/>
        <path id="Trazado_800636" data-name="Trazado 800636" d="M594.3,301.677a1.616,1.616,0,0,1-.172-.4l-.41-1.18c-.351-1.026-.821-2.525-1.376-4.384-1.115-3.718-2.492-8.9-3.935-14.641s-2.772-10.932-3.807-14.667c-.508-1.816-.928-3.31-1.238-4.421-.133-.481-.241-.879-.331-1.2a1.583,1.583,0,0,1-.086-.43,1.659,1.659,0,0,1,.172.4l.409,1.179c.351,1.027.821,2.525,1.377,4.384,1.115,3.717,2.492,8.9,3.935,14.643s2.771,10.929,3.806,14.665c.51,1.816.928,3.31,1.239,4.42l.33,1.205a1.622,1.622,0,0,1,.086.43" transform="translate(-275.884 -123.212)" fill="#e0e0e0"/>
        <path id="Trazado_800637" data-name="Trazado 800637" d="M647.19,322.005a1.668,1.668,0,0,1-.428.124l-1.241.273-4.572.955c-3.859.808-9.178,1.984-15.052,3.292s-11.211,2.438-15.088,3.166c-1.939.365-3.51.644-4.6.814l-1.256.19a1.594,1.594,0,0,1-.443.035,1.73,1.73,0,0,1,.428-.125l1.241-.271,4.571-.956c3.86-.807,9.179-1.984,15.055-3.293s11.208-2.437,15.086-3.165c1.939-.365,3.51-.644,4.6-.814l1.256-.189a1.637,1.637,0,0,1,.443-.035" transform="translate(-286.09 -152.389)" fill="#e0e0e0"/>
      </g>
    </g>
    <g id="Grupo_1065145" data-name="Grupo 1065145">
      <g id="Grupo_1065144" data-name="Grupo 1065144" clip-path="url(#clip-path)">
        <path id="Trazado_800638" data-name="Trazado 800638" d="M450.788,136.466s30.3.44,34.7,0,40.779,2.788,40.779,2.788l-5.342,9.129L454.3,160.34Z" transform="translate(-213.34 -64.564)" fill="#a36957"/>
        <path id="Trazado_800639" data-name="Trazado 800639" d="M393.6,156.118l-.3-26.843-20.474-3.4-24.166-1.764s1.439,8.734-9.772,10.2-17.46-11.027-17.46-11.027l-23.8,5.9,2.268,45.382-.2,73.225,79.856.007s-4.419-78-4.643-84.915Z" transform="translate(-140.85 -58.35)" fill="#f5f5f5"/>
        <path id="Trazado_800640" data-name="Trazado 800640" d="M443.171,192.9a1.812,1.812,0,0,1-.034-.363c-.012-.266-.026-.612-.045-1.042-.039-.937-.093-2.238-.159-3.831-.147-3.234-.437-7.7-.818-12.622s-.728-9.389-.921-12.622c-.1-1.617-.166-2.925-.2-3.831-.014-.43-.025-.776-.033-1.042a.183.183,0,1,1,.055,0c.022.266.049.611.085,1.039.07.935.167,2.233.285,3.824.259,3.256.611,7.7,1,12.615s.641,9.4.738,12.635c.051,1.619.075,2.93.072,3.836,0,.431,0,.777-.006,1.043a1.828,1.828,0,0,1-.021.364" transform="translate(-208.689 -74.386)" fill="#263238"/>
        <path id="Trazado_800641" data-name="Trazado 800641" d="M378.432,237.954H301.917V221.71l75.415-.454Z" transform="translate(-142.886 -104.712)" fill="#b0c0d2"/>
        <path id="Trazado_800642" data-name="Trazado 800642" d="M333.956,278.147a62.527,62.527,0,0,0,24.58,7.571c2.884.263,5.834.334,8.563,1.3s5.271,3.063,5.844,5.9c.394,1.951-.578,4.386-2.545,4.693a5.172,5.172,0,0,1-2.132-.261,90.558,90.558,0,0,1-35.629-19.078" transform="translate(-157.424 -131.636)" fill="#e0e0e0"/>
        <path id="Trazado_800643" data-name="Trazado 800643" d="M380.978,298.091a.672.672,0,0,1-.155-.011l-.451-.06-1.729-.258-1.249-.193c-.455-.079-.947-.182-1.476-.284-1.057-.215-2.269-.424-3.586-.762l-2.073-.5c-.721-.176-1.459-.4-2.229-.614-1.546-.407-3.164-.954-4.873-1.506a97.894,97.894,0,0,1-21.041-10.074c-1.5-.986-2.942-1.9-4.229-2.852-.647-.468-1.287-.9-1.875-1.351l-1.688-1.3c-1.088-.814-2.011-1.627-2.841-2.316-.412-.349-.8-.666-1.148-.971l-.933-.852L328.116,273l-.329-.313a.679.679,0,0,1-.106-.113.626.626,0,0,1,.125.093l.348.293,1.318,1.146.948.833,1.16.953c.839.676,1.768,1.478,2.862,2.28l1.7,1.287c.591.445,1.232.873,1.88,1.335,1.289.939,2.731,1.847,4.233,2.824a100.743,100.743,0,0,0,20.987,10.049c1.7.557,3.314,1.111,4.854,1.527.767.215,1.5.446,2.219.627l2.065.514c1.311.349,2.518.57,3.571.8l1.47.307,1.243.216,1.72.309.447.087a.656.656,0,0,1,.151.039" transform="translate(-155.078 -128.998)" fill="#263238"/>
        <path id="Trazado_800644" data-name="Trazado 800644" d="M413.438,195.326a2.5,2.5,0,0,1-.017-.31c-.005-.22-.012-.506-.02-.865-.011-.77-.026-1.849-.046-3.2l.083.083c-3.848.033-10.05.054-17.031.054.061-.061-.138.137.136-.137h0v1.117q0,.556,0,1.1,0,1.1,0,2.156l-.134-.134,12.117.061,3.59.038.975.017a2.964,2.964,0,0,1,.35.017,2.033,2.033,0,0,1-.316.017l-.946.017-3.559.038-12.21.061h-.134v-.135q0-1.059,0-2.156,0-.548,0-1.1v-1.117h0c.274-.274.077-.076.139-.137,6.981,0,13.182.021,17.031.054h.084v.082c-.019,1.375-.035,2.471-.046,3.253-.008.351-.015.632-.02.846a1.707,1.707,0,0,1-.017.279" transform="translate(-187.538 -90.297)" fill="#263238"/>
        <path id="Trazado_800645" data-name="Trazado 800645" d="M344.757,146.355c.025.075-.477.3-1.025.675s-.94.761-1,.71.258-.537.846-.937a1.892,1.892,0,0,1,1.18-.449" transform="translate(-162.198 -69.255)" fill="#263238"/>
        <path id="Trazado_800646" data-name="Trazado 800646" d="M361.8,157.885a9.138,9.138,0,0,1-.471,1.384,9,9,0,0,1-.44,1.394,3.818,3.818,0,0,1,.911-2.777" transform="translate(-170.776 -74.72)" fill="#263238"/>
        <path id="Trazado_800647" data-name="Trazado 800647" d="M385.051,156.187a11.812,11.812,0,0,1-.711-1.108c-.409-.587-.854-.977-.806-1.041s.59.254,1.031.883a2,2,0,0,1,.486,1.266" transform="translate(-181.51 -72.897)" fill="#263238"/>
        <path id="Trazado_800648" data-name="Trazado 800648" d="M395.536,143.538c-.063.05-.491-.429-1.148-.842s-1.267-.607-1.248-.686a2.178,2.178,0,0,1,1.4.455c.7.445,1.06,1.036,1,1.074" transform="translate(-186.058 -67.197)" fill="#263238"/>
        <path id="Trazado_800649" data-name="Trazado 800649" d="M370.092,124.875a15.5,15.5,0,0,1,.574,2.333,18.619,18.619,0,0,1,.255,2.811,15.778,15.778,0,0,1-.353,3.723,14.59,14.59,0,0,1-1.611,4.236,13.968,13.968,0,0,1-3.394,3.938,16.319,16.319,0,0,1-5.053,2.737,18.625,18.625,0,0,1-6.1.938,16.994,16.994,0,0,1-10.986-4.115,17.962,17.962,0,0,1-5.206-8.122,18.592,18.592,0,0,1-.735-3.667,18.335,18.335,0,0,1-.012-2.823q.062-.574.111-1.023c.048-.294.1-.541.141-.741l.1-.453a.687.687,0,0,1,.042-.153.7.7,0,0,1-.014.159c-.017.118-.04.269-.068.457l-.115.742q-.037.448-.085,1.021a19.242,19.242,0,0,0,.057,2.8,18.878,18.878,0,0,0,.767,3.624,17.9,17.9,0,0,0,5.187,7.99,16.816,16.816,0,0,0,10.824,4.031,18.446,18.446,0,0,0,6.008-.919,16.161,16.161,0,0,0,4.981-2.68,13.813,13.813,0,0,0,3.355-3.855,14.5,14.5,0,0,0,1.618-4.163,15.848,15.848,0,0,0,.389-3.681,19.485,19.485,0,0,0-.206-2.8c-.129-.76-.237-1.349-.341-1.742-.042-.186-.075-.335-.1-.451a.666.666,0,0,1-.026-.156" transform="translate(-159.69 -58.918)" fill="#263238"/>
        <path id="Trazado_800650" data-name="Trazado 800650" d="M331.35,58.947c-1.5,3.872-2.4,4.819-4.377,8.872-1.741,3.563-.181,8.4,2.726,11.069,1.9,1.742,4.484,2.447,6.979,3.024,5.576,1.29,11.372,2.233,17,1.185a24.984,24.984,0,0,0,13.845-7.768,25.549,25.549,0,0,0,6.411-14.657" transform="translate(-154.399 -27.897)" fill="#e8505b"/>
        <g id="Grupo_1065143" data-name="Grupo 1065143" transform="translate(171.846 31.05)" opacity="0.5">
          <g id="Grupo_1065142" data-name="Grupo 1065142">
            <g id="Grupo_1065141" data-name="Grupo 1065141" clip-path="url(#clip-path-4)">
              <path id="Trazado_800651" data-name="Trazado 800651" d="M331.35,58.947c-1.5,3.872-2.4,4.819-4.377,8.872-1.741,3.563-.181,8.4,2.726,11.069,1.9,1.742,4.484,2.447,6.979,3.024,5.576,1.29,11.372,2.233,17,1.185a24.984,24.984,0,0,0,13.845-7.768,25.549,25.549,0,0,0,6.411-14.657" transform="translate(-326.244 -58.947)"/>
            </g>
          </g>
        </g>
        <path id="Trazado_800652" data-name="Trazado 800652" d="M339.624,54.13a82.384,82.384,0,0,1-3.751-13.707,28.769,28.769,0,0,1,.954-14.05c.242-.677,2.322-5.225,3.039-5.163.512.044-.752,4.278-.488,4.719a24.4,24.4,0,0,1,2.919,14.19,64.218,64.218,0,0,1-2.674,14.011" transform="translate(-158.748 -10.038)" fill="#263238"/>
        <path id="Trazado_800653" data-name="Trazado 800653" d="M356.026,86.93a13.523,13.523,0,0,1-13.4-13.348l-.571-44.254c-.532-11.884,5.941-22.1,17.835-22.3l1.1.046a21.266,21.266,0,0,1,20.375,20.411c.4,10.3.718,21.692.422,27.2-.612,11.4-12.092,12.7-12.092,12.7-.025,0-.031,2.645-.025,5.995A13.526,13.526,0,0,1,356.026,86.93" transform="translate(-161.865 -3.325)" fill="#a36957"/>
        <path id="Trazado_800654" data-name="Trazado 800654" d="M381.375,117.115a27.573,27.573,0,0,1-14.668-5s3.278,8.444,14.7,7.887Z" transform="translate(-173.548 -53.058)" fill="#7c3b29"/>
        <path id="Trazado_800655" data-name="Trazado 800655" d="M405.488,57.9a1.63,1.63,0,0,1-1.638,1.579,1.559,1.559,0,0,1-1.618-1.538,1.631,1.631,0,0,1,1.637-1.58,1.561,1.561,0,0,1,1.62,1.539" transform="translate(-190.361 -26.673)" fill="#263238"/>
        <path id="Trazado_800656" data-name="Trazado 800656" d="M405.93,53c-.211.2-1.407-.76-3.16-.828-1.75-.093-3.073.756-3.254.533-.09-.1.132-.474.709-.858a4.471,4.471,0,0,1,2.616-.69,4.294,4.294,0,0,1,2.5.924c.522.436.688.828.585.919" transform="translate(-189.066 -24.207)" fill="#263238"/>
        <path id="Trazado_800657" data-name="Trazado 800657" d="M373.151,57.527a1.629,1.629,0,0,1-1.638,1.578,1.558,1.558,0,0,1-1.618-1.538,1.631,1.631,0,0,1,1.637-1.58,1.56,1.56,0,0,1,1.62,1.539" transform="translate(-175.057 -26.497)" fill="#263238"/>
        <path id="Trazado_800658" data-name="Trazado 800658" d="M373.285,52.5c-.211.15-1.408-.554-3.159-.6-1.75-.066-3.074.556-3.255.393-.089-.072.131-.347.71-.628a5.765,5.765,0,0,1,2.617-.507,5.3,5.3,0,0,1,2.5.673c.52.318.687.6.584.671" transform="translate(-173.616 -24.208)" fill="#263238"/>
        <path id="Trazado_800659" data-name="Trazado 800659" d="M389.744,67.567a11.627,11.627,0,0,1,2.867-.4c.45-.027.877-.1.965-.4a2.285,2.285,0,0,0-.244-1.34l-1.182-3.462c-1.638-4.928-2.8-8.972-2.6-9.037s1.688,3.878,3.325,8.806q.589,1.823,1.126,3.481a2.59,2.59,0,0,1,.16,1.766,1.123,1.123,0,0,1-.763.624,3.058,3.058,0,0,1-.764.074,11.348,11.348,0,0,1-2.885-.116" transform="translate(-184.346 -25.05)" fill="#263238"/>
        <path id="Trazado_800660" data-name="Trazado 800660" d="M379.762,82.614c.286,0,.211,1.9,1.784,3.315s3.606,1.292,3.61,1.559c.022.12-.467.351-1.324.339a4.743,4.743,0,0,1-3.018-1.194,4.131,4.131,0,0,1-1.373-2.775c-.04-.8.192-1.26.322-1.244" transform="translate(-179.572 -39.098)" fill="#263238"/>
        <path id="Trazado_800661" data-name="Trazado 800661" d="M372.222,39.837c-.193.469-1.933.171-4,.334-2.07.122-3.753.655-4.008.216-.113-.21.194-.646.884-1.079a6.977,6.977,0,0,1,6.1-.42c.742.336,1.107.726,1.023.949" transform="translate(-172.357 -18.162)" fill="#263238"/>
        <path id="Trazado_800662" data-name="Trazado 800662" d="M405.442,41.793c-.324.386-1.515-.078-2.966-.157-1.448-.13-2.692.157-2.958-.271-.116-.207.094-.6.647-.952a4.3,4.3,0,0,1,4.773.346c.5.43.647.847.5,1.036" transform="translate(-189.062 -18.859)" fill="#263238"/>
        <path id="Trazado_800663" data-name="Trazado 800663" d="M336.164,65.049c-.191-.092-7.74-2.642-7.814,5.166s7.781,6.27,7.8,6.046.018-11.212.018-11.212" transform="translate(-155.395 -30.563)" fill="#a36957"/>
        <path id="Trazado_800664" data-name="Trazado 800664" d="M335.569,75.537c-.034-.025-.137.094-.368.2a1.361,1.361,0,0,1-1.017.012c-.822-.311-1.5-1.627-1.529-3.034a4.5,4.5,0,0,1,.4-1.944,1.572,1.572,0,0,1,1.033-1.035.692.692,0,0,1,.8.38c.1.219.052.375.093.389.021.019.169-.13.109-.452a.87.87,0,0,0-.3-.492,1.027,1.027,0,0,0-.751-.206,1.91,1.91,0,0,0-1.432,1.2,4.613,4.613,0,0,0-.492,2.172c.035,1.573.827,3.053,1.952,3.39a1.459,1.459,0,0,0,1.246-.195c.243-.191.286-.365.259-.379" transform="translate(-157.175 -32.819)" fill="#7c3b29"/>
        <path id="Trazado_800665" data-name="Trazado 800665" d="M373.49,13.311c1.264-.7-2.526-4.791-5.631-6.2C363.167,4.978,356,3.663,351.674,4.888c-5.21,1.474-9.54,4.064-12.158,8.8A30.71,30.71,0,0,0,336.06,29.37a9.319,9.319,0,0,0,1.1,4.77c1.089,1.727,3.182,2.815,3.089,5.2a3.268,3.268,0,0,0,.809,2.383c1.428,1.521,3.176.094,3.981-1.337,1.718-3.057,1.911-6.708,2.064-10.211a22.851,22.851,0,0,0-.489-7.425c-.381-1.3-.995-2.532-1.3-3.853a4.691,4.691,0,0,1,.555-3.9,4.849,4.849,0,0,1,.635-.642,8.14,8.14,0,0,1,8.079-1.533c4.4,1.558,11.9,3.885,13.865,2.394,2.822-2.145,3.5-3.544,3.5-3.544Z" transform="translate(-159.037 -2.09)" fill="#263238"/>
        <path id="Trazado_800666" data-name="Trazado 800666" d="M378.054,10.237a10.549,10.549,0,0,0-3.466-3.865c-1.9-1.536-10.5-5.564-13.879-6.231s-10.425,1.223-11.292,1.666-8.889,4.962-9.721,5.916-4,7.155-4,9.031-.757,10.189-.757,10.189l.841,4.3s6.894-15.525,14.35-17.058,17.959-1.607,18.878-1.285,5.139,2.085,6.435,4.175a36.929,36.929,0,0,1,2.6,6.007s1.03-11,.007-12.849m-26.38.935s1.8-7.2,7.817-8.1S369.653,7.458,369.72,8.45l.1,1.488Z" transform="translate(-158.514 0)" fill="#fcd19a"/>
        <path id="Trazado_800667" data-name="Trazado 800667" d="M400.518,21.739c-.015-.041.186-.116.37-.37a1.336,1.336,0,0,0,.177-1.149,3.15,3.15,0,0,0-.6-1.1c-.206-.262-.336-.431-.307-.459s.2.092.451.329a2.549,2.549,0,0,1,.726,1.155,1.4,1.4,0,0,1-.295,1.344c-.264.268-.516.276-.518.245" transform="translate(-189.375 -8.832)" fill="#263238"/>
        <path id="Trazado_800668" data-name="Trazado 800668" d="M396.157,20.749c.026.031-.09.143-.064.355a.4.4,0,0,0,.157.283.354.354,0,0,0,.513-.334.4.4,0,0,0-.2-.258c-.183-.11-.333-.048-.351-.085-.03-.019.132-.19.429-.093a.57.57,0,0,1,.363.377.588.588,0,0,1-.911.594.568.568,0,0,1-.2-.485c.031-.312.252-.391.258-.356" transform="translate(-187.363 -9.743)" fill="#263238"/>
        <path id="Trazado_800669" data-name="Trazado 800669" d="M389.622,21.144c.026.031-.09.143-.064.355a.4.4,0,0,0,.157.283.354.354,0,0,0,.512-.334.4.4,0,0,0-.2-.258c-.183-.11-.333-.048-.351-.085-.03-.019.132-.19.429-.093a.57.57,0,0,1,.363.378.588.588,0,0,1-.911.594.569.569,0,0,1-.2-.485c.031-.312.252-.391.258-.356" transform="translate(-184.27 -9.93)" fill="#263238"/>
        <path id="Trazado_800670" data-name="Trazado 800670" d="M383.086,21.54c.026.031-.09.143-.064.355a.4.4,0,0,0,.157.283.354.354,0,0,0,.513-.334.4.4,0,0,0-.2-.258c-.183-.11-.333-.048-.351-.085-.03-.019.132-.19.429-.093a.57.57,0,0,1,.363.378.588.588,0,0,1-.911.594.568.568,0,0,1-.2-.485c.031-.312.252-.391.258-.356" transform="translate(-181.177 -10.118)" fill="#263238"/>
        <path id="Trazado_800671" data-name="Trazado 800671" d="M376.55,21.935c.026.031-.09.143-.064.355a.4.4,0,0,0,.157.283.354.354,0,0,0,.513-.334.4.4,0,0,0-.2-.258c-.183-.11-.333-.048-.351-.085-.03-.019.132-.19.429-.093a.57.57,0,0,1,.363.378.588.588,0,0,1-.911.594.569.569,0,0,1-.2-.485c.031-.312.252-.391.258-.356" transform="translate(-178.084 -10.305)" fill="#263238"/>
        <path id="Trazado_800672" data-name="Trazado 800672" d="M370.015,22.331c.026.031-.09.143-.064.355a.4.4,0,0,0,.157.283.354.354,0,0,0,.513-.334.4.4,0,0,0-.2-.258c-.183-.11-.333-.048-.351-.085-.03-.019.132-.19.429-.093a.57.57,0,0,1,.363.378.588.588,0,0,1-.911.594.569.569,0,0,1-.2-.485c.031-.312.252-.391.258-.356" transform="translate(-174.991 -10.492)" fill="#263238"/>
        <path id="Trazado_800673" data-name="Trazado 800673" d="M374.762,5.687c.636-.028.939-.919,1.576-.917a1.838,1.838,0,0,1,1.569.928,1.487,1.487,0,0,1,2.839.216,2.186,2.186,0,0,1,1.5-.121c.474.2.713.939.287,1.229a2.035,2.035,0,0,1,2.061-.1,1.17,1.17,0,0,1,.191,1.832,1.676,1.676,0,0,1,1.957,2.634.688.688,0,0,1-.447.263c-.323.019-.553-.323-.613-.641a4.206,4.206,0,0,0-.155-.954c-.131-.3-.544-.5-.778-.282.318.54.626,1.263.223,1.742-.279.331-.563.721-.995.731-2.456.053-14.816,1.122-17.271,1.176,0,0,2.154-7.471,8.054-7.733" transform="translate(-173.548 -2.247)" fill="#263238"/>
        <path id="Trazado_800674" data-name="Trazado 800674" d="M334.167,43.544c-.075.657-.766,1.062-1.413,1.2a7.263,7.263,0,0,0-1.925.436c-.585.309-.975,1.136-.545,1.637A1.446,1.446,0,0,0,331.82,47a7.56,7.56,0,0,0,4.919-5.12,2.117,2.117,0,0,0,2.71-.717,6.161,6.161,0,0,0,.915-2.919,5.134,5.134,0,0,0,5.168-5c-.022-1.485-.7-3.021-.168-4.406a29.55,29.55,0,0,0-5.306,5.026c-1.749,2.415-5.892,9.683-5.892,9.683" transform="translate(-156.224 -13.646)" fill="#263238"/>
        <path id="Trazado_800675" data-name="Trazado 800675" d="M331.514,46.152a.587.587,0,0,0-.588.631.9.9,0,0,0,.593.722,2.026,2.026,0,0,0,.972.076,5.746,5.746,0,0,0,2.732-1.066,1.746,1.746,0,0,0,1.892.8,2.516,2.516,0,0,0,1.637-1.366,4.623,4.623,0,0,0,.417-2.143,1.99,1.99,0,0,0,2.266-.081,3.113,3.113,0,0,0,1.164-2.054,7.492,7.492,0,0,0-.1-2.41,1.353,1.353,0,0,0,2.024-.554,2.518,2.518,0,0,0-.329-2.329,2,2,0,0,0,1.088-2.732,1.111,1.111,0,0,0,1.529-.438,2.359,2.359,0,0,0,.113-1.749,12.278,12.278,0,0,1-.438-1.74,3.006,3.006,0,0,1,.739-2.262,7.319,7.319,0,0,0-3.8,2.175,21.8,21.8,0,0,0-2.662,3.554l-6.584,10.168" transform="translate(-156.613 -12.993)" fill="#263238"/>
        <path id="Trazado_800676" data-name="Trazado 800676" d="M346.784,27.666a2.062,2.062,0,0,0-.335.439,2.139,2.139,0,0,0-.1,1.516,8.3,8.3,0,0,0,.379,1.059,4.883,4.883,0,0,1,.379,1.3,1.815,1.815,0,0,1-.422,1.5,1.383,1.383,0,0,1-.8.372.988.988,0,0,1-.88-.32l.2-.115a2.974,2.974,0,0,1-.341,2.565,3.028,3.028,0,0,1-2.4,1.482l.123-.181a4.132,4.132,0,0,1-2.05,4.988l.076-.1a9.917,9.917,0,0,1-.391,1.872,3.5,3.5,0,0,1-.983,1.557,2.464,2.464,0,0,1-1.643.55,1.645,1.645,0,0,1-1.4-.772l.193-.007a3.6,3.6,0,0,1-2.028,1.776,3.478,3.478,0,0,1-3.236-.538,2.4,2.4,0,0,1-.257-.23c-.054-.056-.079-.087-.075-.091s.125.1.37.268a3.591,3.591,0,0,0,1.169.523,3.33,3.33,0,0,0,1.969-.1,3.43,3.43,0,0,0,1.89-1.705l.09-.186.1.179a1.419,1.419,0,0,0,1.216.645,2.23,2.23,0,0,0,1.473-.506,3.267,3.267,0,0,0,.9-1.449,9.789,9.789,0,0,0,.373-1.823l.009-.073.067-.032a3.875,3.875,0,0,0,1.912-4.65l-.065-.176.188-.006a2.776,2.776,0,0,0,2.188-1.349,2.737,2.737,0,0,0,.337-2.348l-.223-.623.424.508a.968.968,0,0,0,1.347-.058,1.63,1.63,0,0,0,.38-1.327,21.511,21.511,0,0,0-.7-2.35,2.162,2.162,0,0,1,.175-1.583.972.972,0,0,1,.4-.4" transform="translate(-156.553 -13.093)" fill="#455a64"/>
        <path id="Trazado_800677" data-name="Trazado 800677" d="M388.85,11.848a.689.689,0,0,0-.036-.453.478.478,0,0,0-.405-.285.519.519,0,0,0-.515.367l-.154-.032a1.71,1.71,0,0,0-.89-1.678,1.644,1.644,0,0,0-2.164.747l-.176-.17a.414.414,0,0,0,.1-.544.726.726,0,0,0-.59-.34,3.4,3.4,0,0,0-1.64.312,3.863,3.863,0,0,0-1.928,1.907l-.18-.17a.53.53,0,0,0,.247-.53.718.718,0,0,0-.3-.541,1.86,1.86,0,0,0-1.246-.262,3.894,3.894,0,0,0-2.061.79,4.723,4.723,0,0,0-1.273,1.551c-.007,0,0-.049.035-.136a2.69,2.69,0,0,1,.163-.373,3.818,3.818,0,0,1,.974-1.171,3.977,3.977,0,0,1,2.145-.884,2.065,2.065,0,0,1,1.413.289.973.973,0,0,1,.4.717.786.786,0,0,1-.382.785l-.33.172.15-.342a4.089,4.089,0,0,1,2.057-2.051,3.616,3.616,0,0,1,1.787-.329.982.982,0,0,1,.794.491.79.79,0,0,1,.068.479.566.566,0,0,1-.288.41l-.353.181.176-.351a1.821,1.821,0,0,1,3.443,1.066l-.154-.032a.651.651,0,0,1,.676-.449.57.57,0,0,1,.474.374c.115.331-.043.5-.041.487" transform="translate(-177.775 -4.344)" fill="#455a64"/>
        <path id="Trazado_800678" data-name="Trazado 800678" d="M416.6,42.453a3.015,3.015,0,0,0,.662,1.97,11.979,11.979,0,0,1,1.53,1.906,1.562,1.562,0,0,1-.52,2.122,3.27,3.27,0,0,1-1.822,5.062c-.164-3.437-.087-8.235-.1-11.675" transform="translate(-197.038 -19.8)" fill="#263238"/>
        <path id="Trazado_800679" data-name="Trazado 800679" d="M431.827,125.577a21.908,21.908,0,0,0-.549-2.939,3.33,3.33,0,0,0-1.882-2.192,1.848,1.848,0,0,0-2.4,1.124,3.56,3.56,0,0,0-6.093-.654,3.751,3.751,0,0,0-3.535-1.422,3.707,3.707,0,0,0-2.192,1.529,4.832,4.832,0,0,0-1.039-1.981,3.281,3.281,0,0,0-3.038-1.091.462.462,0,0,0-.29.152c-.1.143-.028.341.043.5a9.907,9.907,0,0,1,.847,3.63l3.715.264v-.006l1.414.1c.659,1.382.415,2.879.587,4.4s1,3.23,2.513,3.442a2.958,2.958,0,0,0,2.963-2.306,8.62,8.62,0,0,0-.181-4.054,6.763,6.763,0,0,1,.7,3.151,6.52,6.52,0,0,0,.728,3.143,2.267,2.267,0,0,0,2.789,1.011,2.736,2.736,0,0,0,1.1-2.682,10.9,10.9,0,0,1-.132-3.05,6.513,6.513,0,0,0,.388,3.208,2.239,2.239,0,0,0,2.677,1.269,2.312,2.312,0,0,0,1.217-2.061,10.9,10.9,0,0,0-.349-2.492" transform="translate(-194.397 -55.793)" fill="#b78876"/>
        <path id="Trazado_800680" data-name="Trazado 800680" d="M430.806,129.873c-.042-.005,0-.535-.051-1.391a17.265,17.265,0,0,0-.506-3.295,5.758,5.758,0,0,0-1.657-2.8c-.636-.561-1.137-.775-1.112-.82a.9.9,0,0,1,.359.123,4.31,4.31,0,0,1,.878.548,4.788,4.788,0,0,1,1.032,1.146,6.433,6.433,0,0,1,.764,1.725,13.7,13.7,0,0,1,.436,3.364,4.11,4.11,0,0,1-.143,1.4" transform="translate(-202.309 -57.533)" fill="#aa6550"/>
        <path id="Trazado_800681" data-name="Trazado 800681" d="M441.157,131.1a10.51,10.51,0,0,1-.07-1.424c-.032-.878-.112-2.087-.271-3.418-.083-.664-.15-1.3-.277-1.858a3.42,3.42,0,0,0-.6-1.361,2.613,2.613,0,0,0-1.1-.812c0-.015.145-.019.386.064a2.123,2.123,0,0,1,.868.625,3.42,3.42,0,0,1,.691,1.424,15.877,15.877,0,0,1,.3,1.886,25.874,25.874,0,0,1,.193,3.448,5.725,5.725,0,0,1-.124,1.426" transform="translate(-207.685 -57.84)" fill="#aa6550"/>
        <path id="Trazado_800682" data-name="Trazado 800682" d="M419.757,121.365c.04.072-.686.493-1.365,1.245s-1.044,1.5-1.119,1.471a4.056,4.056,0,0,1,2.484-2.716" transform="translate(-197.474 -57.433)" fill="#aa6550"/>
      </g>
    </g>
    <g id="Grupo_1065159" data-name="Grupo 1065159">
      <g id="Grupo_1065158" data-name="Grupo 1065158" clip-path="url(#clip-path)">
        <path id="Trazado_800683" data-name="Trazado 800683" d="M219.513,85.868l.539-.134a43.473,43.473,0,0,1-.533-14.161c.538-5.7,1.515-11.394,1.242-17.113s-1.956-11.62-5.985-15.688l-12.663-7.227c-23.288-3.048-33.359,14.03-36.865,22.594S160.62,72.014,158.9,81.1c-.7,3.691-1.652,7.628-4.471,10.111-1.966,1.731-4.7,2.609-6.189,4.766-1.817,2.635-1.265,6.5-3.4,8.883-1.93,2.16-5.29,2.262-7.689,3.886-2.626,1.778-3.726,5.154-3.824,8.325s.624,6.307.808,9.473c.313,5.4-.939,10.763-1.236,16.165a20.921,20.921,0,0,0,5.488,15.171l2.863-26.311s3.452-21.49,7.734-25.9a45.5,45.5,0,0,1,12.139-7.793c8.76-3.514,19.066-3.058,19.066-3.058.052,4.6,7.169,15.96,16.139,15.334s8.885-14.5,8.885-14.5l6.341,3.7a19.078,19.078,0,0,1,9.292,13.97c.022.164.044.334.066.5Z" transform="translate(-62.882 -14.759)" fill="#263238"/>
        <path id="Trazado_800684" data-name="Trazado 800684" d="M279.979,134.488l-19.629,6.4,1.928,29.885,22.039-5.91Z" transform="translate(-123.213 -63.648)" fill="#f5f5f5"/>
        <path id="Trazado_800685" data-name="Trazado 800685" d="M156.26,162.324c-4.282,4.409-8.3,25.948-8.3,25.948L171.444,200.3l-10.66,60.835,68.072-.007s-1.483-45.105,1.182-59.171c1.161-6.126-.569-21.794-1.917-31.971a19.076,19.076,0,0,0-9.292-13.97l-6.341-3.7s.085,13.874-8.885,14.5-16.088-10.733-16.14-15.334c0,0-10.305-.455-19.065,3.059a45.492,45.492,0,0,0-12.139,7.793" transform="translate(-70.024 -71.677)" fill="#59bee2"/>
        <path id="Trazado_800686" data-name="Trazado 800686" d="M141.676,221.772l-7.9,72.631,20.3.007,10.921-61.037Z" transform="translate(-63.309 -104.956)" fill="#b78876"/>
        <path id="Trazado_800687" data-name="Trazado 800687" d="M292.63,175.553c2.505,8.334,7.175,15.2,8.367,23.945a25.211,25.211,0,0,1-13.016,25.11" transform="translate(-136.29 -83.082)" fill="#59bee2"/>
        <path id="Trazado_800688" data-name="Trazado 800688" d="M295.091,182.447a1.111,1.111,0,0,1-.133-.253l-.33-.747c-.279-.652-.666-1.6-1.131-2.78-.938-2.354-2.161-5.634-3.643-9.2a19.248,19.248,0,0,0-2.642-4.706,20.742,20.742,0,0,0-3.061-3.184,28.45,28.45,0,0,0-2.387-1.8,10.071,10.071,0,0,1-.9-.63,1.147,1.147,0,0,1,.256.126c.162.093.406.222.7.414a23.126,23.126,0,0,1,2.452,1.741,19.884,19.884,0,0,1,3.137,3.178,18.981,18.981,0,0,1,2.7,4.755c1.485,3.573,2.68,6.864,3.571,9.235l1.05,2.81.281.766a1.1,1.1,0,0,1,.082.274" transform="translate(-132.921 -75.318)" fill="#263238"/>
        <path id="Trazado_800689" data-name="Trazado 800689" d="M248.929,228.483a.783.783,0,0,1,.085.224c.043.151.123.369.184.661a12.71,12.71,0,0,1,.334,2.5,13.768,13.768,0,0,1-8.44,13.291,12.7,12.7,0,0,1-2.408.762c-.29.069-.523.09-.677.115a.776.776,0,0,1-.239.018,8.165,8.165,0,0,1,.891-.236,14.7,14.7,0,0,0,2.355-.836,13.955,13.955,0,0,0,8.324-13.108,14.692,14.692,0,0,0-.245-2.487,8.021,8.021,0,0,1-.165-.908" transform="translate(-112.526 -108.132)" fill="#263238"/>
        <g id="Grupo_1065148" data-name="Grupo 1065148" transform="translate(118.001 127.974)" opacity="0.3">
          <g id="Grupo_1065147" data-name="Grupo 1065147">
            <g id="Grupo_1065146" data-name="Grupo 1065146" clip-path="url(#clip-path-6)">
              <path id="Trazado_800690" data-name="Trazado 800690" d="M234.232,252.062a82.588,82.588,0,0,1-9.366,1.768,1.138,1.138,0,0,0-.7.288c-.413.47.152,1.161.686,1.488a13.307,13.307,0,0,0,20.2-10.24c.075-.9-.082-2.021-.929-2.332-.978-.359-2.021.582-2.441,1.535-1.613,3.656-3.51,5.429-7.453,7.494" transform="translate(-224.022 -242.954)"/>
            </g>
          </g>
        </g>
        <path id="Trazado_800691" data-name="Trazado 800691" d="M174.515,210.867a5.856,5.856,0,0,1-.876-.268c-.558-.188-1.361-.475-2.349-.841-1.976-.732-4.686-1.8-7.64-3.066s-5.592-2.506-7.483-3.436c-.946-.465-1.706-.851-2.227-1.127a5.881,5.881,0,0,1-.8-.452,5.842,5.842,0,0,1,.844.356l2.263,1.047c1.91.885,4.557,2.091,7.508,3.36s5.646,2.359,7.6,3.137l2.317.922a5.832,5.832,0,0,1,.839.368" transform="translate(-72.476 -95.445)" fill="#fff"/>
        <path id="Trazado_800692" data-name="Trazado 800692" d="M228.716,239.741a1.56,1.56,0,0,1-.32.107l-.93.256c-.809.221-1.988.505-3.453.823a94.954,94.954,0,0,1-23.282,2.054c-1.5-.056-2.709-.129-3.543-.205l-.961-.089a1.544,1.544,0,0,1-.333-.05,1.551,1.551,0,0,1,.337-.005l.963.038c.836.043,2.046.087,3.542.118a106.5,106.5,0,0,0,23.238-2.051c1.467-.292,2.651-.547,3.466-.736l.942-.206a1.576,1.576,0,0,1,.333-.054" transform="translate(-92.709 -113.459)" fill="#fff"/>
        <path id="Trazado_800693" data-name="Trazado 800693" d="M287.725,236.313a1,1,0,0,1-.244.119l-.724.291-.526.2c-.2.062-.415.114-.647.178a12.167,12.167,0,0,1-1.6.359l-.941.154c-.329.036-.673.058-1.028.09-.711.08-1.473.063-2.274.084-1.6-.022-3.36-.14-5.2-.307s-3.583-.324-5.174-.4c-.8-.021-1.552-.061-2.259-.032-.353.009-.7,0-1.023.025l-.941.075a15.617,15.617,0,0,0-1.609.205c-.235.038-.457.066-.658.105l-.544.133-.756.176a1.044,1.044,0,0,1-.27.044.988.988,0,0,1,.254-.1l.746-.227.542-.157c.2-.047.422-.082.658-.128a14.333,14.333,0,0,1,1.617-.248l.948-.094c.33-.025.675-.026,1.031-.041.713-.038,1.473-.007,2.274.007,1.6.065,3.354.212,5.188.382s3.582.292,5.174.328c.794-.015,1.552.011,2.256-.058.352-.026.694-.043,1.02-.074l.933-.134a27.43,27.43,0,0,0,3.77-.961" transform="translate(-123.669 -111.835)" fill="#fff"/>
        <path id="Trazado_800694" data-name="Trazado 800694" d="M255.473,198.057a.527.527,0,0,1-.119.072l-.361.187c-.323.152-.782.417-1.41.675a34.127,34.127,0,0,1-5.437,1.861,50.015,50.015,0,0,1-8.416,1.355,103.229,103.229,0,0,1-10.434.236c-3.7-.077-7.223-.211-10.425-.22s-6.086.093-8.5.329a52.6,52.6,0,0,0-5.67.828c-.666.121-1.174.262-1.524.332l-.4.084a.523.523,0,0,1-.138.02.557.557,0,0,1,.131-.046l.391-.111c.346-.087.851-.245,1.515-.382a47.185,47.185,0,0,1,5.674-.917,81,81,0,0,1,8.515-.389c3.209,0,6.733.121,10.431.2s7.218.038,10.408-.214a51.638,51.638,0,0,0,8.388-1.292,36.841,36.841,0,0,0,5.443-1.771c.633-.243,1.1-.49,1.427-.627l.372-.162a.52.52,0,0,1,.131-.047" transform="translate(-95.905 -93.732)" fill="#fff"/>
        <path id="Trazado_800695" data-name="Trazado 800695" d="M251.652,174.756a.452.452,0,0,1-.083.1l-.264.268c-.243.223-.566.595-1.055.99a22.876,22.876,0,0,1-4.4,2.988,28.843,28.843,0,0,1-7.421,2.66,37.171,37.171,0,0,1-9.624.746,54.946,54.946,0,0,1-9.553-1.43c-2.892-.681-5.452-1.459-7.586-2.152s-3.847-1.3-5.028-1.718l-1.357-.494-.35-.135a.442.442,0,0,1-.116-.055.465.465,0,0,1,.125.028l.359.11,1.374.445c1.191.391,2.913.965,5.052,1.634s4.7,1.425,7.585,2.091a56.21,56.21,0,0,0,9.51,1.4,37.572,37.572,0,0,0,9.557-.72,29.3,29.3,0,0,0,7.384-2.584,24.174,24.174,0,0,0,4.418-2.9c.5-.381.831-.738,1.085-.948l.283-.247a.471.471,0,0,1,.1-.078" transform="translate(-96.931 -82.705)" fill="#fff"/>
        <path id="Trazado_800696" data-name="Trazado 800696" d="M216.437,160.984a11.282,11.282,0,0,1-1.667.154c-1.03.069-2.451.169-4.019.314s-2.983.308-4.008.429a11.3,11.3,0,0,1-1.667.155,9.188,9.188,0,0,1,1.639-.347c1.021-.171,2.438-.365,4.011-.511s3-.214,4.035-.234a9.169,9.169,0,0,1,1.676.04" transform="translate(-97.054 -76.165)" fill="#fff"/>
        <path id="Trazado_800697" data-name="Trazado 800697" d="M277.819,161.94a8,8,0,0,1-1.309.025c-.806,0-1.918.029-3.139.151s-2.317.316-3.107.476a8,8,0,0,1-1.288.235,5.107,5.107,0,0,1,1.244-.425,20.52,20.52,0,0,1,6.3-.632,5.105,5.105,0,0,1,1.3.169" transform="translate(-127.296 -76.545)" fill="#fff"/>
        <path id="Trazado_800698" data-name="Trazado 800698" d="M182.634,180.73a4.3,4.3,0,0,1-.737-.26l-1.978-.779c-1.672-.653-4-1.516-6.6-2.361s-4.993-1.509-6.73-1.962l-2.059-.531a4.255,4.255,0,0,1-.75-.222,4.262,4.262,0,0,1,.773.118c.494.092,1.206.243,2.082.447,1.752.406,4.156,1.043,6.769,1.889s4.931,1.743,6.588,2.443c.829.349,1.494.644,1.948.86a4.286,4.286,0,0,1,.7.358" transform="translate(-77.51 -82.636)" fill="#fff"/>
        <path id="Trazado_800699" data-name="Trazado 800699" d="M255.232,266.777a.508.508,0,0,1-.127.055l-.383.135-1.481.5c-.643.218-1.433.473-2.361.733s-1.975.592-3.155.878l-1.846.471c-.643.161-1.318.3-2.014.456-1.39.328-2.891.6-4.468.893-3.163.543-6.662,1.018-10.355,1.315-3.7.277-7.227.349-10.436.3-1.6-.051-3.129-.083-4.553-.192-.712-.048-1.4-.079-2.06-.139l-1.9-.18c-1.209-.1-2.3-.261-3.252-.379s-1.777-.243-2.446-.359l-1.54-.262-.4-.075a.515.515,0,0,1-.134-.035.525.525,0,0,1,.139.007l.4.048,1.547.21c.671.1,1.492.214,2.449.313s2.043.251,3.252.339l1.894.162c.659.055,1.346.079,2.057.123,1.421.1,2.943.123,4.544.166,3.2.034,6.724-.046,10.411-.322,3.683-.3,7.175-.763,10.333-1.291,1.574-.291,3.074-.549,4.463-.866.7-.153,1.371-.284,2.013-.44l1.847-.453c1.18-.273,2.231-.587,3.16-.837s1.725-.486,2.372-.687l1.5-.447.391-.11a.552.552,0,0,1,.136-.028" transform="translate(-95.752 -126.255)" fill="#fff"/>
        <path id="Trazado_800700" data-name="Trazado 800700" d="M243.366,298.146a.683.683,0,0,1-.152.047l-.454.112-1.75.4c-.76.178-1.692.38-2.779.593s-2.321.477-3.7.716c-2.741.517-6.024,1.029-9.677,1.535-3.657.48-7.688.928-11.931,1.269s-8.3.518-11.985.617c-3.688.073-7.01.082-9.8,0-1.394-.02-2.655-.081-3.762-.127s-2.06-.094-2.838-.15l-1.791-.124-.465-.04a.664.664,0,0,1-.158-.023.7.7,0,0,1,.16-.005l.467.012,1.794.073c.778.04,1.731.078,2.838.1s2.367.079,3.76.086c2.786.057,6.1.027,9.788-.06,3.683-.113,7.73-.311,11.97-.638s8.265-.781,11.92-1.246c3.651-.492,6.933-.983,9.676-1.476,1.375-.226,2.612-.47,3.7-.675s2.024-.386,2.787-.547l1.76-.353.459-.085a.671.671,0,0,1,.159-.02" transform="translate(-86.194 -141.1)" fill="#fff"/>
        <path id="Trazado_800701" data-name="Trazado 800701" d="M242.278,334.285a.766.766,0,0,1-.163.042l-.483.1-1.864.34c-.406.07-.854.158-1.35.233l-1.617.193-1.859.219c-.659.073-1.36.1-2.093.16l-2.3.154-2.5.076-1.319.04-1.362,0-2.842,0c-3.889-.072-8.16-.255-12.639-.515s-8.744-.528-12.625-.72c-1.941-.071-3.785-.174-5.512-.2l-2.5-.056-2.306.006c-1.469-.014-2.8.038-3.963.082l-1.625.055-1.363.1-1.888.13-.492.027a.854.854,0,0,1-.169,0,82.853,82.853,0,0,1,9.5-.585l2.309-.024,2.5.04c1.73.012,3.576.107,5.519.171,3.884.178,8.151.433,12.629.7s8.743.451,12.626.536l2.838.015,1.36,0,1.316-.033,2.5-.061,2.3-.136c.732-.051,1.432-.074,2.09-.141l1.857-.2,1.618-.17c.495-.067.944-.148,1.35-.21l1.87-.289.488-.068a.744.744,0,0,1,.168-.014" transform="translate(-83.976 -158.134)" fill="#fff"/>
        <path id="Trazado_800702" data-name="Trazado 800702" d="M196.961,176.27a1.379,1.379,0,0,1,.036.317c.013.238.029.539.049.91.04.791.068,1.937.073,3.352.016,2.832-.109,6.746-.492,11.05s-.936,8.181-1.4,10.973c-.233,1.4-.437,2.523-.594,3.3l-.184.893a1.39,1.39,0,0,1-.083.308,1.369,1.369,0,0,1,.028-.318c.035-.235.079-.534.133-.9.125-.818.3-1.939.507-3.311.415-2.8.938-6.67,1.319-10.967s.538-8.2.571-11.027c.02-1.413.022-2.558.014-3.348,0-.371,0-.673,0-.911a1.409,1.409,0,0,1,.019-.319" transform="translate(-91.985 -83.422)" fill="#263238"/>
        <g id="Grupo_1065151" data-name="Grupo 1065151" transform="translate(95.696 160.658)" opacity="0.3">
          <g id="Grupo_1065150" data-name="Grupo 1065150">
            <g id="Grupo_1065149" data-name="Grupo 1065149" clip-path="url(#clip-path-7)">
              <path id="Trazado_800703" data-name="Trazado 800703" d="M181.787,305.005l-.111.231c.035-.008.068-.02.1-.028a.869.869,0,0,0,.007-.2" transform="translate(-181.676 -305.005)"/>
            </g>
          </g>
        </g>
        <g id="Grupo_1065154" data-name="Grupo 1065154" transform="translate(91.353 152.121)" opacity="0.3">
          <g id="Grupo_1065153" data-name="Grupo 1065153">
            <g id="Grupo_1065152" data-name="Grupo 1065152" clip-path="url(#clip-path-8)">
              <path id="Trazado_800704" data-name="Trazado 800704" d="M189.516,288.8c-2.985,3.873-6.48,7.495-11.639,8.74-.185,2.018-2.94,19.1-4.447,25.78,3.152-3.478,6.4-7.119,7.725-11.621.568-1.926.775-3.987,1.735-5.751a16.79,16.79,0,0,1,3.311-3.827,11.313,11.313,0,0,0,3.005-4.042c.581-1.591,1.59-8.168.311-9.278" transform="translate(-173.431 -288.798)"/>
            </g>
          </g>
        </g>
        <g id="Grupo_1065157" data-name="Grupo 1065157" transform="translate(99.899 108.672)" opacity="0.3">
          <g id="Grupo_1065156" data-name="Grupo 1065156">
            <g id="Grupo_1065155" data-name="Grupo 1065155" clip-path="url(#clip-path-9)">
              <path id="Trazado_800705" data-name="Trazado 800705" d="M194.084,206.31c-1.143,7.472-1.618,17.072-3.468,24.61-.338,1.377-.961,5.1-.961,5.1.521,1.319,1.594.915,2.718.051l1.931-1.791c1.643-8.678,1.185-19.246-.22-27.966" transform="translate(-189.656 -206.31)"/>
            </g>
          </g>
        </g>
        <path id="Trazado_800706" data-name="Trazado 800706" d="M260.426,50.793a15.656,15.656,0,0,0-2.9-14.052,20.511,20.511,0,0,0-9.316-6.044c-4.764-1.629-10.092-2.017-14.8-.24s-8.648,5.956-9.35,10.941c-.318,2.264,0,4.647-.809,6.784-.353.928-.923,1.878-.688,2.843a2.374,2.374,0,0,0,1.986,1.632,5.265,5.265,0,0,0,2.661-.429,28.432,28.432,0,0,0,7.717-5.1" transform="translate(-105.301 -13.861)" fill="#263238"/>
        <path id="Trazado_800707" data-name="Trazado 800707" d="M248.889,45.308l-22.253,4.76a4.158,4.158,0,0,0-3.873,4.077l.362,48.177a14.96,14.96,0,0,0,3.156,9.078l2.129,2.734c4.853,6.233,14.657,5.585,18.341-1.4a5.272,5.272,0,0,0,.51-1.262,9.82,9.82,0,0,0,.208-1.088,34.834,34.834,0,0,0,.372-7.3c.209-4.29.273-6.05.274-6.01,0,0,9.108-1.17,11.419-12.912,1.149-5.84,1.209-15.482,1-23.373-.185-7.1-4.559-15.97-11.648-15.483" transform="translate(-105.425 -21.433)" fill="#b78876"/>
        <path id="Trazado_800708" data-name="Trazado 800708" d="M281.1,87.382a1.515,1.515,0,0,1-1.517,1.474,1.45,1.45,0,0,1-1.511-1.423,1.516,1.516,0,0,1,1.515-1.475,1.451,1.451,0,0,1,1.513,1.424" transform="translate(-131.601 -40.68)" fill="#263238"/>
        <path id="Trazado_800709" data-name="Trazado 800709" d="M283.606,81.981c-.237.259-1.6-.955-3.58-1.033-1.98-.11-3.472.97-3.678.69-.1-.125.146-.6.8-1.089a4.669,4.669,0,0,1,2.956-.884,4.583,4.583,0,0,1,2.839,1.158c.593.549.784,1.043.667,1.159" transform="translate(-130.774 -37.699)" fill="#263238"/>
        <path id="Trazado_800710" data-name="Trazado 800710" d="M249.436,87.381a1.515,1.515,0,0,1-1.517,1.474,1.449,1.449,0,0,1-1.511-1.423,1.517,1.517,0,0,1,1.515-1.475,1.45,1.45,0,0,1,1.512,1.424" transform="translate(-116.615 -40.68)" fill="#263238"/>
        <path id="Trazado_800711" data-name="Trazado 800711" d="M253.128,82.818c-.24.224-1.608-.825-3.6-.89-1.993-.093-3.5.843-3.7.6-.1-.109.146-.52.8-.944a5.242,5.242,0,0,1,2.976-.77,5.01,5.01,0,0,1,2.855,1c.595.475.787.9.671,1" transform="translate(-116.327 -38.245)" fill="#263238"/>
        <path id="Trazado_800712" data-name="Trazado 800712" d="M269.864,94.678a10.845,10.845,0,0,1,2.665-.38c.418-.027.815-.1.9-.377a2.12,2.12,0,0,0-.232-1.244l-1.115-3.215c-1.543-4.575-2.644-8.332-2.459-8.392s1.586,3.6,3.129,8.174q.555,1.692,1.061,3.232a2.407,2.407,0,0,1,.156,1.641,1.047,1.047,0,0,1-.707.584,2.823,2.823,0,0,1-.711.072,10.593,10.593,0,0,1-2.684-.1" transform="translate(-127.59 -38.367)" fill="#263238"/>
        <path id="Trazado_800713" data-name="Trazado 800713" d="M256.819,139.29a30.069,30.069,0,0,1-15.663-4.8s3.675,8.323,15.538,7.654Z" transform="translate(-114.13 -63.648)" fill="#aa6550"/>
        <path id="Trazado_800714" data-name="Trazado 800714" d="M264.116,113.242a2.939,2.939,0,0,0-2.593-1.188,2.682,2.682,0,0,0-1.888.925,1.7,1.7,0,0,0-.2,1.938,1.973,1.973,0,0,0,2.117.619,6.187,6.187,0,0,0,2.13-1.167,1.806,1.806,0,0,0,.483-.465.545.545,0,0,0,.02-.606" transform="translate(-122.676 -53.027)" fill="#aa6550"/>
        <path id="Trazado_800715" data-name="Trazado 800715" d="M260.648,108.711c.266-.006.2,1.764,1.672,3.076s3.359,1.186,3.363,1.434c.021.112-.432.329-1.229.321a4.411,4.411,0,0,1-2.811-1.1,3.837,3.837,0,0,1-1.288-2.575c-.04-.742.173-1.173.294-1.158" transform="translate(-123.213 -51.448)" fill="#263238"/>
        <path id="Trazado_800716" data-name="Trazado 800716" d="M253.873,73c-.177.437-1.8.167-3.717.327-1.925.122-3.488.624-3.727.218-.106-.194.178-.6.818-1.008a6.49,6.49,0,0,1,5.671-.415c.691.309,1.032.67.955.878" transform="translate(-116.615 -33.912)" fill="#263238"/>
        <path id="Trazado_800717" data-name="Trazado 800717" d="M284.782,68.905c-.3.359-1.409-.066-2.759-.134-1.347-.115-2.5.156-2.752-.24-.108-.192.085-.556.6-.889a4,4,0,0,1,4.44.3c.463.4.606.785.472.961" transform="translate(-132.154 -31.76)" fill="#263238"/>
        <path id="Trazado_800718" data-name="Trazado 800718" d="M220.065,96.916c.03-.88-.91-2.991-1.774-3.158-2.306-.447-6.494-.415-6.75,5.475-.35,8.051,7.806,6.742,7.83,6.512.019-.18.589-5.79.694-8.828" transform="translate(-100.109 -44.292)" fill="#b78876"/>
        <path id="Trazado_800719" data-name="Trazado 800719" d="M218.882,104.887c-.034-.027-.144.092-.386.19a1.4,1.4,0,0,1-1.05-.024c-.837-.349-1.494-1.731-1.47-3.184a4.64,4.64,0,0,1,.479-1.992,1.623,1.623,0,0,1,1.1-1.03.715.715,0,0,1,.811.42c.1.231.04.389.082.4.022.022.179-.127.129-.462a.9.9,0,0,0-.295-.519,1.063,1.063,0,0,0-.767-.239A1.972,1.972,0,0,0,216,99.638a4.766,4.766,0,0,0-.584,2.223c-.019,1.624.746,3.179,1.9,3.566a1.507,1.507,0,0,0,1.292-.158c.258-.188.308-.366.281-.382" transform="translate(-101.947 -46.593)" fill="#995037"/>
        <path id="Trazado_800720" data-name="Trazado 800720" d="M245.966,36.4a11.015,11.015,0,0,1-7.619,8.287c-2.028.578-4.459.7-5.69,2.416-1.256,1.749-.586,4.34-1.759,6.147-1.626,2.5-5.941,2.306-7.175,5.022-.539,1.187-.294,2.621-.855,3.8a3.716,3.716,0,0,1-4.472,1.643,5.962,5.962,0,0,1-3.452-3.673,16.139,16.139,0,0,1-.768-5.13,28.614,28.614,0,0,1,1.02-10.142c2.294-6.783,12.353-16.04,19.487-15.413" transform="translate(-101.341 -13.88)" fill="#263238"/>
        <path id="Trazado_800721" data-name="Trazado 800721" d="M245.7,94.132a7.917,7.917,0,0,0-6.011-1.809,2.324,2.324,0,0,1,.943-.219,6.205,6.205,0,0,1,4.4,1.324,2.328,2.328,0,0,1,.666.7" transform="translate(-113.435 -43.577)" fill="#aa6550"/>
        <path id="Trazado_800722" data-name="Trazado 800722" d="M202.514,130.63a50.044,50.044,0,0,1,2.8,22.934c-.921,8.161-3.852,16.388-2.007,24.391a12.8,12.8,0,0,0,3.158,6.243,7.236,7.236,0,0,0,6.441,2.17,7.908,7.908,0,0,0,5.335-5.123,23.352,23.352,0,0,0,1.1-7.6q.242-7.3.484-14.6c.14-4.221.2-8.739-2.087-12.287-1.345-2.085-3.525-3.969-3.394-6.446.159-3.023,3.767-5.085,3.731-8.112-.036-2.963-3.48-4.764-4.313-7.608-.705-2.406.427-5.531-1.468-7.173-1.6-1.391-4.158-.467-5.743.947a12.141,12.141,0,0,0-3.421,12.407" transform="translate(-95.842 -55.247)" fill="#263238"/>
      </g>
    </g>
    <g id="Grupo_1065161" data-name="Grupo 1065161">
      <g id="Grupo_1065160" data-name="Grupo 1065160" clip-path="url(#clip-path)">
        <path id="Trazado_800723" data-name="Trazado 800723" d="M373.812,359.55c0,.076-80.316.137-179.366.137-99.086,0-179.384-.061-179.384-.137s80.3-.137,179.384-.137c99.051,0,179.366.061,179.366.137" transform="translate(-7.128 -170.096)" fill="#263238"/>
      </g>
    </g>
    <g id="Grupo_1065175" data-name="Grupo 1065175">
      <g id="Grupo_1065174" data-name="Grupo 1065174" clip-path="url(#clip-path)">
        <path id="Trazado_800724" data-name="Trazado 800724" d="M447.832,254.449h72.8l-4.139-46.767.569-28.793,5.12-24.424L492.61,141.308l-8.279-3.973-23.962,3.031-4.551,2.78-2.465,4.965-10.664,8.234a1.974,1.974,0,0,0-.757,1.775l2.01,27.036,3.969,28.363Z" transform="translate(-209.143 -64.995)" fill="#92df98"/>
        <path id="Trazado_800725" data-name="Trazado 800725" d="M473.049,140.83c0,.316-2.314,7.048-2.314,7.048v3.261l18.3,14.1,14.927-16.809-4.654-9.447-2.92-.094,1.378-5-.49-.538-23.274,4.216Z" transform="translate(-222.78 -63.109)" fill="#ffbe9d"/>
        <path id="Trazado_800726" data-name="Trazado 800726" d="M520.508,142.634a2.5,2.5,0,0,1,.319.262c.2.183.51.437.875.8a16.836,16.836,0,0,1,2.667,3.486l.352.626.318.681c.233.456.4.965.6,1.48a18.651,18.651,0,0,1,.807,3.435,29.155,29.155,0,0,1-.151,8.128l-.036.257-.192-.176a18.887,18.887,0,0,0-1.533-1.288,7.945,7.945,0,0,0-1.979-1.113,3.734,3.734,0,0,0-2.137-.16,1.519,1.519,0,0,0-.861.514c-.247.251-.468.533-.706.8a4.379,4.379,0,0,1-.381.391c-.147.125-.284.219-.424.326l-.825.617-5.778,4.311-3.909,2.887-1.071.774a2.931,2.931,0,0,1-.385.255,2.858,2.858,0,0,1,.352-.3l1.041-.815,3.858-2.958,5.744-4.358.822-.621a3.789,3.789,0,0,0,.761-.683c.231-.263.453-.549.714-.815a2.6,2.6,0,0,1,.437-.372,1.47,1.47,0,0,1,.552-.218,4,4,0,0,1,2.291.164,8.166,8.166,0,0,1,2.051,1.15,18.91,18.91,0,0,1,1.555,1.308l-.228.081a29.432,29.432,0,0,0,.178-8.055,18.722,18.722,0,0,0-.772-3.4c-.193-.509-.349-1.014-.574-1.467l-.306-.676-.34-.622a17.787,17.787,0,0,0-2.578-3.507c-.351-.375-.65-.641-.837-.835a2.464,2.464,0,0,1-.283-.3" transform="translate(-239.504 -67.503)" fill="#263238"/>
        <path id="Trazado_800727" data-name="Trazado 800727" d="M481.7,172.344a.331.331,0,0,1-.1-.027l-.279-.1-1.075-.407c-.937-.357-2.307-.868-4.042-1.47a122.563,122.563,0,0,0-14.267-4l.155-.094-2.128,7.9-.309,1.142-.172.635-.1-.651a45.74,45.74,0,0,1-.345-10.828,41.9,41.9,0,0,1,1.668-8.642,40.5,40.5,0,0,1,2.129-5.513c.295-.631.561-1.1.727-1.429l.2-.366a.566.566,0,0,1,.075-.121.555.555,0,0,1-.051.133l-.174.378c-.151.333-.4.812-.681,1.448a44.026,44.026,0,0,0-2.042,5.524,42.755,42.755,0,0,0-1.6,8.608,46.209,46.209,0,0,0,.368,10.766l-.268-.015c.1-.361.2-.751.309-1.142l2.139-7.893.033-.121.122.026a114.339,114.339,0,0,1,14.266,4.1c1.729.624,3.091,1.16,4.019,1.543l1.06.448.271.122a.327.327,0,0,1,.089.048" transform="translate(-217.162 -70.216)" fill="#263238"/>
        <path id="Trazado_800728" data-name="Trazado 800728" d="M582.574,205.894l3.146,6.506a2.775,2.775,0,0,0,3.744,1.271l17.774-9.156.806-3.477-4.08-5.051H602.6s-7.988-21.051-8.959-23.771-9.7-7.856-9.7-7.856l-3.116,23.694Z" transform="translate(-274.882 -77.785)" fill="#92df98"/>
        <path id="Trazado_800729" data-name="Trazado 800729" d="M583.386,207.714c.076,0,.265,8.789.424,19.629s.225,19.635.15,19.636-.266-8.787-.424-19.632-.225-19.633-.15-19.634" transform="translate(-276.079 -98.303)" fill="#263238"/>
        <path id="Trazado_800730" data-name="Trazado 800730" d="M642.887,153.939l-.052-7.1-.039-5.3c-.026-.667-.057-1.216-.1-1.579-.271-2.546-2.912-3.656-2.912-3.656l-1.37-2.223a3.262,3.262,0,0,0-3.577-1.6,65.487,65.487,0,0,1-.23-9.481c.339-4.118-.105-4.91-1.948-4.273s-3.185,14.483-3.185,14.483-2.049-4.593-3.979-8.725c-1.953-4.179-3.734-2.88-4.057-1.923-.406,1.2,1.877,8.294,3.462,12.937.8,2.36,1.431,4.09,1.431,4.09s-.7,3.52-.914,5.9a7.324,7.324,0,0,0-.014,1.824c.31,1.461,4.7,8.358,4.7,8.358l1.526,3.553" transform="translate(-294.082 -56.098)" fill="#ffbe9d"/>
        <path id="Trazado_800731" data-name="Trazado 800731" d="M639.44,168.979a1.909,1.909,0,0,0,.3-.618,5.376,5.376,0,0,0,.293-1.915,5.572,5.572,0,0,0-.875-2.879,5.842,5.842,0,0,0-3.077-2.383l-.068.409a10.449,10.449,0,0,0,4.041-.5,4.475,4.475,0,0,0,2.961-3.379c.018-.118.019-.239.028-.349l.017-.206-.218-.034-6.762-1.048a7.25,7.25,0,0,0-1.572-.121,2.646,2.646,0,0,0-1.45.514,4.209,4.209,0,0,0-1.388,2.276,21.255,21.255,0,0,0-.406,2.114,8.076,8.076,0,0,1-.4,1.537,6.353,6.353,0,0,1-.662,1.179c.008.009.111-.063.271-.237a3.3,3.3,0,0,0,.56-.87,7.485,7.485,0,0,0,.489-1.558c.143-.618.234-1.332.467-2.07a3.923,3.923,0,0,1,1.3-2.054,3.425,3.425,0,0,1,2.723-.279l6.756,1.088-.2-.24c-.009.094-.009.2-.024.3a4.039,4.039,0,0,1-2.655,3.009,10.236,10.236,0,0,1-3.865.512l-1.433-.017,1.365.427a5.547,5.547,0,0,1,2.915,2.173,5.461,5.461,0,0,1,.917,2.7,7.527,7.527,0,0,1-.342,2.521" transform="translate(-298.247 -73.803)" fill="#eb996e"/>
        <path id="Trazado_800732" data-name="Trazado 800732" d="M648.8,162.292c-.032,0-.073.164-.105.469a3.743,3.743,0,0,0,.074,1.32,1.92,1.92,0,0,0,1.411,1.439,1.431,1.431,0,0,0,1.226-.369,3.371,3.371,0,0,0,.74-1.055,37.477,37.477,0,0,0,2.319-5.53,38.1,38.1,0,0,0-2.746,5.319c-.328.722-.856,1.321-1.464,1.2a1.605,1.605,0,0,1-1.163-1.1,4.927,4.927,0,0,1-.211-1.219c-.024-.3-.046-.47-.08-.471" transform="translate(-306.99 -75.043)" fill="#eb996e"/>
        <path id="Trazado_800733" data-name="Trazado 800733" d="M649.988,155.391c.135.034.415-.771,1.049-1.567s1.336-1.27,1.272-1.393c-.043-.117-.947.2-1.646,1.1s-.8,1.847-.674,1.861" transform="translate(-307.591 -72.129)" fill="#eb996e"/>
        <path id="Trazado_800734" data-name="Trazado 800734" d="M641.727,152.041c.137.015.331-1.161.934-2.469a11.513,11.513,0,0,1,.883-1.6c.258-.375.538-.366.556-.427.008-.027-.065-.091-.228-.087a.938.938,0,0,0-.577.287,5.884,5.884,0,0,0-1.069,1.631,4.219,4.219,0,0,0-.5,2.666" transform="translate(-303.671 -69.785)" fill="#eb996e"/>
        <path id="Trazado_800735" data-name="Trazado 800735" d="M598.055,223.1c.134.507,4.842,6.832,9.852,13.761A13.642,13.642,0,0,0,632.6,228.9l-.764-44.246-11.869,4.509-4,28.145-1.14-2.9Z" transform="translate(-283.036 -87.39)" fill="#ffbe9d"/>
        <path id="Trazado_800736" data-name="Trazado 800736" d="M611.394,229.165c.038.065-4.182,2.639-9.426,5.748s-9.528,5.578-9.567,5.512,4.181-2.638,9.427-5.748,9.528-5.578,9.566-5.512" transform="translate(-280.36 -108.454)" fill="#263238"/>
        <path id="Trazado_800737" data-name="Trazado 800737" d="M607.073,224.048c.042.063-3.7,2.6-8.362,5.676s-8.473,5.511-8.515,5.448,3.7-2.6,8.364-5.677,8.472-5.51,8.514-5.447" transform="translate(-279.316 -106.032)" fill="#263238"/>
        <g id="Grupo_1065164" data-name="Grupo 1065164" transform="translate(243.071 95.962)" opacity="0.3">
          <g id="Grupo_1065163" data-name="Grupo 1065163">
            <g id="Grupo_1065162" data-name="Grupo 1065162" clip-path="url(#clip-path-12)">
              <path id="Trazado_800738" data-name="Trazado 800738" d="M464.852,182.389a1.767,1.767,0,0,0-1.706.027,1.742,1.742,0,0,0-.45.969q-.615,2.687-1.232,5.375l.116.129,2.2,4.274q.835-2.968,1.669-5.938a85.168,85.168,0,0,1,15.067.164c-5.007-1.8-10.547-3.261-15.663-5" transform="translate(-461.463 -182.181)"/>
            </g>
          </g>
        </g>
        <g id="Grupo_1065167" data-name="Grupo 1065167" transform="translate(266.982 86.804)" opacity="0.3">
          <g id="Grupo_1065166" data-name="Grupo 1065166">
            <g id="Grupo_1065165" data-name="Grupo 1065165" clip-path="url(#clip-path-13)">
              <path id="Trazado_800739" data-name="Trazado 800739" d="M506.857,180.434a95.16,95.16,0,0,1,11.811-6.092,3.553,3.553,0,0,1,1.656-.407,3.628,3.628,0,0,1,1.727.815L525.2,177a1.329,1.329,0,0,0,.925.35c.43-.069.671-.523.829-.928a16.474,16.474,0,0,0,.089-11.627,31.856,31.856,0,0,0-.706,7.358,5.294,5.294,0,0,0-4.937-2.478,8.516,8.516,0,0,0-3.888,2.1l-10.643,8.456" transform="translate(-506.857 -164.794)"/>
            </g>
          </g>
        </g>
        <g id="Grupo_1065170" data-name="Grupo 1065170" transform="translate(312.09 120.979)" opacity="0.3">
          <g id="Grupo_1065169" data-name="Grupo 1065169">
            <g id="Grupo_1065168" data-name="Grupo 1065168" clip-path="url(#clip-path-14)">
              <path id="Trazado_800740" data-name="Trazado 800740" d="M592.493,240.378a22.743,22.743,0,0,1,7.285-6.45,68,68,0,0,1,8.882-4.139c.28-.115.665-.2.834.05.2.3-.158.658-.471.84l-15.734,9.176" transform="translate(-592.493 -229.676)"/>
            </g>
          </g>
        </g>
        <path id="Trazado_800741" data-name="Trazado 800741" d="M478.2,235.317a1,1,0,0,1-.151.118l-.459.327a11.8,11.8,0,0,1-1.911,1.016,12.517,12.517,0,0,1-3.306.9,13.287,13.287,0,0,1-4.531-.183,11.973,11.973,0,0,1-4.959-2.344,13.041,13.041,0,0,1-3.828-4.993,12.19,12.19,0,0,1-.941-6.872,7.574,7.574,0,0,1,1.494-3.4,4.307,4.307,0,0,1,3.391-1.67,5.2,5.2,0,0,1,3.461,1.576,6.293,6.293,0,0,1,1.794,3.244,5.737,5.737,0,0,1-.389,3.557,3.741,3.741,0,0,1-1.11,1.375,3.445,3.445,0,0,1-1.6.65,5.758,5.758,0,0,1-3.2-.658A24.443,24.443,0,0,1,459.3,226.4l-4.625-2.954-6.685-4.294-1.81-1.179-.467-.312a1.015,1.015,0,0,1-.154-.114.987.987,0,0,1,.169.091l.481.29,1.838,1.136,6.733,4.22,4.642,2.926a24.441,24.441,0,0,0,2.628,1.528,5.529,5.529,0,0,0,3.06.627,3.256,3.256,0,0,0,2.512-1.889,5.478,5.478,0,0,0,.361-3.39,6.029,6.029,0,0,0-1.72-3.1,4.928,4.928,0,0,0-3.274-1.5,4.034,4.034,0,0,0-3.177,1.569,7.326,7.326,0,0,0-1.44,3.273,11.963,11.963,0,0,0,.909,6.721,12.84,12.84,0,0,0,3.739,4.917,11.808,11.808,0,0,0,4.859,2.332,13.245,13.245,0,0,0,4.469.22,12.676,12.676,0,0,0,3.285-.843,12.913,12.913,0,0,0,1.922-.964l.473-.3a1.029,1.029,0,0,1,.166-.1" transform="translate(-210.866 -102.957)" fill="#fff"/>
        <path id="Trazado_800742" data-name="Trazado 800742" d="M549.754,174.112s-.077.039-.231.1-.391.139-.678.292a9.285,9.285,0,0,0-2.33,1.6,13.756,13.756,0,0,0-2.685,3.569,25.707,25.707,0,0,0-2.138,5.54c-.611,2.121-1.145,4.5-2.091,6.935a17.374,17.374,0,0,1-1.863,3.594,13.209,13.209,0,0,1-2.987,3.086,14.335,14.335,0,0,1-8.659,2.8,12.47,12.47,0,0,1-4.773-.988,10.626,10.626,0,0,1-4.044-2.967,7.16,7.16,0,0,1-1.722-4.682,6.806,6.806,0,0,1,1.786-4.5,5.13,5.13,0,0,1,2.008-1.321,4.891,4.891,0,0,1,2.347-.224,6.3,6.3,0,0,1,3.879,2.249,6.145,6.145,0,0,1,1.081,1.913,6.536,6.536,0,0,1,.34,2.112,8.1,8.1,0,0,1-1.079,3.9,8.9,8.9,0,0,1-2.518,2.82,10.906,10.906,0,0,1-3.123,1.557,14.863,14.863,0,0,1-5.939.543,24.186,24.186,0,0,1-4.422-.9c-1.188-.352-2.091-.683-2.7-.909l-.692-.267c-.155-.062-.232-.1-.232-.1s.083.021.241.074l.7.241c.616.209,1.524.523,2.713.859a24.662,24.662,0,0,0,4.406.854,14.773,14.773,0,0,0,5.866-.575,10.722,10.722,0,0,0,3.057-1.543A8.7,8.7,0,0,0,525.719,197a7.87,7.87,0,0,0,1.036-3.789,5.93,5.93,0,0,0-1.375-3.863,6.049,6.049,0,0,0-3.721-2.15,4.694,4.694,0,0,0-4.123,1.47,6.542,6.542,0,0,0-1.708,4.322,6.892,6.892,0,0,0,1.662,4.5,10.373,10.373,0,0,0,3.938,2.889,12.209,12.209,0,0,0,4.67.97,14.1,14.1,0,0,0,8.5-2.733,12.969,12.969,0,0,0,2.938-3.019,17.209,17.209,0,0,0,1.849-3.541c.947-2.412,1.492-4.781,2.116-6.9a25.631,25.631,0,0,1,2.189-5.56,13.693,13.693,0,0,1,2.747-3.574,9.011,9.011,0,0,1,2.379-1.569,7.447,7.447,0,0,1,.933-.344" transform="translate(-239.607 -82.4)" fill="#fff"/>
        <path id="Trazado_800743" data-name="Trazado 800743" d="M522.9,267.9c-.04.044-.672-.607-1.889-1.383a10.12,10.12,0,0,0-1.025-.581,13.089,13.089,0,0,0-1.231-.557,13.624,13.624,0,0,0-6.075-.881,13.007,13.007,0,0,0-1.338.184,9.95,9.95,0,0,0-1.148.266c-1.388.4-2.179.843-2.2.79a2.788,2.788,0,0,1,.547-.321,4.909,4.909,0,0,1,.675-.314,8.243,8.243,0,0,1,.927-.341,9.343,9.343,0,0,1,1.159-.3,12.324,12.324,0,0,1,1.36-.213,13.1,13.1,0,0,1,6.191.9,12.29,12.29,0,0,1,1.244.59,9.254,9.254,0,0,1,1.025.62,8.3,8.3,0,0,1,.792.59,4.941,4.941,0,0,1,.558.493,2.8,2.8,0,0,1,.433.463" transform="translate(-240.41 -125.03)" fill="#fff"/>
        <path id="Trazado_800744" data-name="Trazado 800744" d="M558.28,278.571c.015.005-.072.225-.176.661s-.228,1.085-.406,1.921a9.862,9.862,0,0,1-.384,1.374,3.02,3.02,0,0,1-.951,1.415,2.408,2.408,0,0,1-.883.382,9.07,9.07,0,0,1-.989.2,11.415,11.415,0,0,1-2.187.1,19.594,19.594,0,0,1-4.922-.9,11.341,11.341,0,0,1-4.9-2.952,8.238,8.238,0,0,1-1.678-2.638,6.337,6.337,0,0,1-.381-3.238,5.869,5.869,0,0,1,1.41-3.068,4.614,4.614,0,0,1,6.4-.463,3.908,3.908,0,0,1,1.257,3.108,5.57,5.57,0,0,1-1.1,3.071,6.764,6.764,0,0,1-2.435,1.964,13.935,13.935,0,0,1-5.6,1.226,15.043,15.043,0,0,1-4.964-.6,10.535,10.535,0,0,1-3.649-1.918,9.148,9.148,0,0,1-2.056-2.34,7.235,7.235,0,0,1-.8-1.8,4.62,4.62,0,0,1-.152-.669c.014,0,.064.228.2.653a7.7,7.7,0,0,0,.84,1.758,9.2,9.2,0,0,0,2.061,2.276,10.467,10.467,0,0,0,3.609,1.852,14.978,14.978,0,0,0,4.9.554,13.778,13.778,0,0,0,5.5-1.225,6.521,6.521,0,0,0,2.337-1.894,5.31,5.31,0,0,0,1.042-2.924,3.639,3.639,0,0,0-1.17-2.9,4.345,4.345,0,0,0-6.016.442,5.615,5.615,0,0,0-1.346,2.924,6.091,6.091,0,0,0,.36,3.105,8.008,8.008,0,0,0,1.619,2.56,11.149,11.149,0,0,0,4.789,2.907,19.577,19.577,0,0,0,4.86.919,11.328,11.328,0,0,0,2.153-.083,4.512,4.512,0,0,0,1.807-.533,2.9,2.9,0,0,0,.919-1.338,10.03,10.03,0,0,0,.4-1.351c.193-.829.329-1.479.457-1.911a4.037,4.037,0,0,1,.229-.647" transform="translate(-250.225 -127.922)" fill="#fff"/>
        <path id="Trazado_800745" data-name="Trazado 800745" d="M454.686,292.293a3.971,3.971,0,0,0,1.27-.351A5.313,5.313,0,0,0,458.3,289.3c.323-.692.585-1.492.891-2.348a10.418,10.418,0,0,1,1.284-2.616,9.826,9.826,0,0,1,5.4-3.78,9.483,9.483,0,0,1,3.448-.316,8.649,8.649,0,0,1,3.1.905,9.842,9.842,0,0,1,3.942,3.7,9.136,9.136,0,0,1,1.249,3.434q.037.316.068.572c0,.159.006.3.009.422a1.618,1.618,0,0,1-.009.347,1.637,1.637,0,0,1-.046-.344c-.01-.122-.022-.26-.035-.417s-.058-.355-.093-.562a9.44,9.44,0,0,0-1.309-3.351,9.781,9.781,0,0,0-3.89-3.573,8.468,8.468,0,0,0-3.007-.864,9.308,9.308,0,0,0-3.348.313,9.657,9.657,0,0,0-5.263,3.661,10.31,10.31,0,0,0-1.278,2.549c-.313.847-.588,1.651-.929,2.352A5.309,5.309,0,0,1,456,292.039a2.969,2.969,0,0,1-.968.258,1.927,1.927,0,0,1-.26.006c-.058,0-.088,0-.088-.009" transform="translate(-215.185 -132.607)" fill="#fff"/>
        <path id="Trazado_800746" data-name="Trazado 800746" d="M484.8,343.974a12.917,12.917,0,0,1-2.318.529,17.4,17.4,0,0,1-6.463-.28,16.655,16.655,0,0,1-8.34-4.632,6.587,6.587,0,0,1-1.419-2.427,4.676,4.676,0,0,1,.061-2.932,3.533,3.533,0,0,1,2.164-2.1,6.384,6.384,0,0,1,3.124-.139,14.352,14.352,0,0,1,2.988.889,4.348,4.348,0,0,1,2.342,1.924,2.579,2.579,0,0,1,.231,1.5,3.491,3.491,0,0,1-.524,1.382,6.656,6.656,0,0,1-2,1.979,12.43,12.43,0,0,1-15.078-.763,9.559,9.559,0,0,1-1.64-1.722.661.661,0,0,1,.113.109l.309.337a14.389,14.389,0,0,0,1.286,1.193,12.734,12.734,0,0,0,5.8,2.643,12.481,12.481,0,0,0,9.072-2.005,6.417,6.417,0,0,0,1.915-1.907,2.685,2.685,0,0,0,.274-2.628,4.1,4.1,0,0,0-2.208-1.789,14.125,14.125,0,0,0-2.927-.869,6.125,6.125,0,0,0-2.987.126,3.265,3.265,0,0,0-2,1.94,4.422,4.422,0,0,0-.061,2.762,6.351,6.351,0,0,0,1.357,2.335,11.51,11.51,0,0,0,1.951,1.733,17.044,17.044,0,0,0,2.092,1.318A18.009,18.009,0,0,0,482.47,344.4a16.529,16.529,0,0,0,1.73-.3l.448-.1a.65.65,0,0,1,.155-.024" transform="translate(-216.723 -157.058)" fill="#fff"/>
        <path id="Trazado_800747" data-name="Trazado 800747" d="M550.427,325.986a1.229,1.229,0,0,1-.181-.107l-.517-.333a17.548,17.548,0,0,0-2.086-1.1,16.629,16.629,0,0,0-3.554-1.1,16.018,16.018,0,0,0-15.724,6.046,6.785,6.785,0,0,0-1.426,3.322,3.71,3.71,0,0,0,1.316,3.345,4.677,4.677,0,0,0,3.76.545,7.373,7.373,0,0,0,3.53-1.929,6.984,6.984,0,0,0,1.963-3.5,7.492,7.492,0,0,0-.182-3.909,7.389,7.389,0,0,0-2.073-3.163,10.964,10.964,0,0,0-3.1-1.965,16.329,16.329,0,0,0-3.361-1.037l-.836-.164c-.278-.047-.556-.077-.831-.116-.549-.088-1.1-.114-1.631-.156a23.327,23.327,0,0,0-5.952.412,23.908,23.908,0,0,0-8.031,3.148c-.445.255-.81.53-1.137.75s-.593.423-.805.59l-.489.373a1.142,1.142,0,0,1-.173.12,1.223,1.223,0,0,1,.155-.142l.473-.395a10.005,10.005,0,0,1,.792-.613c.323-.228.685-.51,1.128-.774a23.911,23.911,0,0,1,14.052-3.7c.542.039,1.094.064,1.649.15.278.038.559.068.84.114l.846.162a16.566,16.566,0,0,1,3.413,1.041,11.2,11.2,0,0,1,3.177,2,7.646,7.646,0,0,1,2.151,3.272,7.756,7.756,0,0,1,.193,4.052,7.25,7.25,0,0,1-2.037,3.64,7.641,7.641,0,0,1-3.663,2,6.08,6.08,0,0,1-2.064.123,3.991,3.991,0,0,1-1.916-.718,3.468,3.468,0,0,1-1.182-1.63,4.578,4.578,0,0,1-.235-1.955,7.027,7.027,0,0,1,1.484-3.449,16.023,16.023,0,0,1,15.956-6.046,16.309,16.309,0,0,1,3.568,1.157,15.836,15.836,0,0,1,2.073,1.149c.225.151.39.276.5.357a1.186,1.186,0,0,1,.165.13" transform="translate(-240.845 -151.631)" fill="#fff"/>
        <path id="Trazado_800748" data-name="Trazado 800748" d="M465.844,167.284c-.023.045-.372-.147-.981-.271a4.444,4.444,0,0,0-1.08-.077,4.739,4.739,0,0,0-2.477.858,4.411,4.411,0,0,0-.8.729c-.4.474-.557.84-.6.819a2.077,2.077,0,0,1,.451-.939,3.96,3.96,0,0,1,.8-.813,4.518,4.518,0,0,1,2.617-.906,3.962,3.962,0,0,1,1.134.141,2.072,2.072,0,0,1,.936.459" transform="translate(-217.651 -78.885)" fill="#fff"/>
        <path id="Trazado_800749" data-name="Trazado 800749" d="M538.821,160.069a6.532,6.532,0,0,0-3.7-2.074,3.893,3.893,0,0,1,3.7,2.074" transform="translate(-253.252 -74.753)" fill="#fff"/>
        <path id="Trazado_800750" data-name="Trazado 800750" d="M603.065,210.838a2.519,2.519,0,0,1-.213.367,7.652,7.652,0,0,1-.739.968,9.418,9.418,0,0,1-3.668,2.53,9.291,9.291,0,0,1-3.039.621,9.1,9.1,0,0,1-3.509-.6,9.726,9.726,0,0,1-3.317-2.114,9.455,9.455,0,0,1-1.328-1.617,4.747,4.747,0,0,1-.827-2.01,2.105,2.105,0,0,1,.194-1.115,2.35,2.35,0,0,1,.712-.852,2.686,2.686,0,0,1,2.054-.521,3.082,3.082,0,0,1,1.76,1.042,3.866,3.866,0,0,1,.865,1.756,5.75,5.75,0,0,1-.539,3.512,9.028,9.028,0,0,1-1.789,2.535,9.354,9.354,0,0,1-3.821,2.291,8.338,8.338,0,0,1-1.19.261,2.416,2.416,0,0,1-.423.036,2.474,2.474,0,0,1,.414-.091,10.428,10.428,0,0,0,1.167-.308,9.531,9.531,0,0,0,3.716-2.326,8.935,8.935,0,0,0,1.72-2.493,5.547,5.547,0,0,0,.5-3.367,3.618,3.618,0,0,0-.815-1.634,2.825,2.825,0,0,0-1.61-.951,2.422,2.422,0,0,0-1.841.474,1.905,1.905,0,0,0-.8,1.725,4.514,4.514,0,0,0,.784,1.888,9.233,9.233,0,0,0,1.286,1.572,9.524,9.524,0,0,0,3.22,2.07,8.929,8.929,0,0,0,3.412.609,9.2,9.2,0,0,0,2.976-.576,9.6,9.6,0,0,0,3.658-2.42c.713-.769,1-1.282,1.03-1.263" transform="translate(-276.501 -97.709)" fill="#fff"/>
        <path id="Trazado_800751" data-name="Trazado 800751" d="M507.59,281.484a1.35,1.35,0,0,1-.015-.225c0-.161-.011-.38-.018-.659-.01-.594-.025-1.445-.044-2.535-.048-2.216-.117-5.4-.2-9.324-.2-7.885-.468-18.755-.767-30.762s-.512-22.9-.594-30.772c-.04-3.938-.043-7.125-.029-9.328.018-1.09.033-1.942.043-2.536.008-.28.014-.5.018-.659a1.368,1.368,0,0,1,.016-.225,1.349,1.349,0,0,1,.012.225c0,.162.005.38.009.659,0,.594,0,1.446.008,2.536.027,2.215.067,5.4.116,9.325.132,7.874.386,18.751.675,30.768s.549,22.889.687,30.764c.07,3.937.1,7.124.116,9.327,0,1.09-.006,1.942-.008,2.536,0,.28-.007.5-.01.659a1.362,1.362,0,0,1-.013.225" transform="translate(-239.428 -92.03)" fill="#263238"/>
        <g id="Grupo_1065173" data-name="Grupo 1065173" transform="translate(252.841 135.218)" opacity="0.3">
          <g id="Grupo_1065172" data-name="Grupo 1065172">
            <g id="Grupo_1065171" data-name="Grupo 1065171" clip-path="url(#clip-path-15)">
              <path id="Trazado_800752" data-name="Trazado 800752" d="M480.1,284.433a7.814,7.814,0,0,1,2.419-6.529,27.233,27.233,0,0,1,5.893-4.146,100.937,100.937,0,0,0,19.378-14.988c1.283-1.269,3.124-2.675,4.691-1.78,1.211.692,1.382,2.472.746,3.713a8.814,8.814,0,0,1-2.971,2.885c-9.88,7.048-18.485,16.167-29.622,20.99" transform="translate(-480.012 -256.707)"/>
            </g>
          </g>
        </g>
        <path id="Trazado_800753" data-name="Trazado 800753" d="M515.819,257.643a.5.5,0,0,1-.1.091l-.307.243-1.195.914-4.425,3.323-14.66,10.879-8.091,5.963-3.535,2.6a27.525,27.525,0,0,1-3.187,2.127,8.72,8.72,0,0,1-2.991,1.037,6.163,6.163,0,0,1-2.387-.123,4.552,4.552,0,0,1-1.379-.615,2.458,2.458,0,0,1-.411-.329,5.314,5.314,0,0,0,1.817.841,6.182,6.182,0,0,0,2.34.074,8.672,8.672,0,0,0,2.92-1.056,28.1,28.1,0,0,0,3.145-2.14l3.52-2.616,8.079-5.981,14.708-10.814,4.476-3.253,1.226-.873.323-.221a.506.506,0,0,1,.115-.068" transform="translate(-223.924 -121.932)" fill="#263238"/>
        <path id="Trazado_800754" data-name="Trazado 800754" d="M502.5,35.365a8.2,8.2,0,0,0-.827-8.266,7.235,7.235,0,0,0-8.9-6.542c.517-.864-.38-1.878-1.221-2.432-2.789-1.837-6.5-2.979-9.424-1.362A6.783,6.783,0,0,0,471.7,17.817a11.189,11.189,0,0,0-5.64-.169,4.573,4.573,0,0,0-3.44,4.059,4.669,4.669,0,0,0-4.77,2,6.476,6.476,0,0,0-.737,5.282,3.559,3.559,0,0,0-3.938,2.169,5.151,5.151,0,0,0,.6,4.672,6.208,6.208,0,0,0-1.246,8.655,2.076,2.076,0,0,1,.573.988,2.437,2.437,0,0,1-.1.742,3.221,3.221,0,0,0,1.091,3.044,2.667,2.667,0,0,1,.731.7,1.957,1.957,0,0,1,.046,1.291c-.375,2.023-.245,4.609,1.616,5.488a3.015,3.015,0,0,0-1.036,3.237,15.376,15.376,0,0,0,1.494,3.295,23.619,23.619,0,0,0,1.777,3.507,3.758,3.758,0,0,0,3.32,1.746,1.079,1.079,0,0,0-.026,1.435,3.137,3.137,0,0,0,1.315.852,18.02,18.02,0,0,0,11.138,2.231l4.577-.344a20.013,20.013,0,0,0,6.716-1.291,6.786,6.786,0,0,0,4.2-5.057" transform="translate(-213.584 -7.001)" fill="#263238"/>
        <path id="Trazado_800755" data-name="Trazado 800755" d="M471.683,49.963l-.192-3.771,22.531-5.014c6.965-.956,14.739,5.814,15.4,12.813.733,7.777,1.32,17.3.578,23.142C508.5,88.881,499.59,90.647,499.59,90.647l.311,18.776-25.912-.626Z" transform="translate(-223.138 -19.445)" fill="#ffbe9d"/>
        <path id="Trazado_800756" data-name="Trazado 800756" d="M535.521,77.387c-.18.2-1.341-.6-2.955-.55-1.612.032-2.77.9-2.951.706-.089-.085.09-.444.594-.835a4.112,4.112,0,0,1,2.355-.807,3.947,3.947,0,0,1,2.359.682c.508.365.687.713.6.8" transform="translate(-250.635 -35.92)" fill="#263238"/>
        <path id="Trazado_800757" data-name="Trazado 800757" d="M504.176,78.973c-.18.2-1.343-.6-2.956-.55-1.612.032-2.77.9-2.952.706-.088-.085.089-.444.594-.835a4.112,4.112,0,0,1,2.355-.807,3.952,3.952,0,0,1,2.36.682c.507.366.687.714.6.8" transform="translate(-235.801 -36.671)" fill="#263238"/>
        <path id="Trazado_800758" data-name="Trazado 800758" d="M519.778,86.975a10.693,10.693,0,0,1,2.606-.554c.41-.055.8-.149.859-.432a2.1,2.1,0,0,0-.313-1.213q-.628-1.478-1.316-3.1c-1.83-4.414-3.169-8.049-2.991-8.12S520.43,77,522.26,81.417q.662,1.633,1.265,3.12a2.386,2.386,0,0,1,.264,1.61,1.036,1.036,0,0,1-.659.623,2.806,2.806,0,0,1-.7.119,10.5,10.5,0,0,1-2.656.086" transform="translate(-245.436 -34.811)" fill="#263238"/>
        <path id="Trazado_800759" data-name="Trazado 800759" d="M510.287,131.907a30.97,30.97,0,0,1-16.186-3.7s4.2,8.063,16.268,6.617Z" transform="translate(-233.838 -60.674)" fill="#eb996e"/>
        <path id="Trazado_800760" data-name="Trazado 800760" d="M511.67,101.431c.262-.024.32,1.728,1.857,2.924s3.4.946,3.417,1.191c.028.109-.405.353-1.192.4a4.36,4.36,0,0,1-2.849-.894,3.8,3.8,0,0,1-1.445-2.455c-.09-.73.092-1.17.212-1.164" transform="translate(-242.041 -48.003)" fill="#263238"/>
        <path id="Trazado_800761" data-name="Trazado 800761" d="M502.833,66.989c-.145.444-1.763.285-3.648.572-1.892.25-3.4.851-3.665.465-.117-.185.136-.605.74-1.049a6.419,6.419,0,0,1,5.571-.791c.7.259,1.064.592,1,.8" transform="translate(-234.497 -31.175)" fill="#263238"/>
        <path id="Trazado_800762" data-name="Trazado 800762" d="M533.736,63.23c-.272.375-1.4.029-2.733.053-1.338-.024-2.46.322-2.733-.053-.12-.183.047-.555.531-.918a3.959,3.959,0,0,1,4.4,0c.484.362.651.734.531.917" transform="translate(-249.992 -29.174)" fill="#263238"/>
        <path id="Trazado_800763" data-name="Trazado 800763" d="M495.583,34.654a5.756,5.756,0,0,0,1.52,2.435,1.978,1.978,0,0,0,2.629,0,2.6,2.6,0,0,0,4.006-.524,3.548,3.548,0,0,0,4.3.165l3.525.548c1.277.2,2.855.273,3.565-.806.165-.25.279-.559.543-.7a1.627,1.627,0,0,1,.892-.043,3.01,3.01,0,0,0,2.536-1.389,8.883,8.883,0,0,0,1.135-2.785c.418-1.492.705-3.4-.545-4.319a3.87,3.87,0,0,0-1.716-.559,8.721,8.721,0,0,0-3.686-.054,6.456,6.456,0,0,0-3.467,2.844,1.631,1.631,0,0,0-1.124-1.955,3.2,3.2,0,0,0-2.423.368,6.438,6.438,0,0,0-2.58,2.48,5.28,5.28,0,0,0-4.531,3.169,3.827,3.827,0,0,0-3.025-.357,1.36,1.36,0,0,0-.871.621.614.614,0,0,0,.363.872" transform="translate(-234.54 -12.514)" fill="#263238"/>
        <path id="Trazado_800764" data-name="Trazado 800764" d="M516.888,38.54a3.862,3.862,0,0,0,6.169,4.138,3.565,3.565,0,0,0,4.132,2.053,5.592,5.592,0,0,0,3.154,4.73,4.335,4.335,0,0,0,.109,3.19,2.688,2.688,0,0,0,1.41,1.48,3.041,3.041,0,0,0,2.4-.316,4.289,4.289,0,0,0,2.31-2.529,2.484,2.484,0,0,0-1.286-2.949,9.334,9.334,0,0,0,2.134-3.482,3,3,0,0,0,.051-2.29,1.316,1.316,0,0,0-1.953-.523,3.439,3.439,0,0,0-3.948-4.783,2.856,2.856,0,0,0-4.852-1.818" transform="translate(-244.54 -16.388)" fill="#263238"/>
        <path id="Trazado_800765" data-name="Trazado 800765" d="M475.452,39.4a6.029,6.029,0,0,1-3.364,8.318,2.935,2.935,0,0,1-.233,5.691,5.487,5.487,0,0,1-.994,6.97c1.081.563-.029,3.677-2.126,3.324-2.407-.4.106-3.551-4.272-3.249l-5.512,11.267a1.8,1.8,0,0,1-2.245-1.168,3.936,3.936,0,0,1,.267-2.767,15.364,15.364,0,0,0,1.02-2.648,1.356,1.356,0,0,0-.042-.848c-.189-.4-.653-.559-1.034-.777-1.442-.826-1.906-2.739-1.671-4.385a37.048,37.048,0,0,1,1.459-4.76,1.572,1.572,0,0,0,.042-1.022c-.159-.385-.567-.588-.91-.823a3.635,3.635,0,0,1,.662-6.36,2.11,2.11,0,0,1-.546-2.845,10.317,10.317,0,0,1,2.218-2.329c1.474-1.4,2.573-3.281,4.411-4.142a5,5,0,0,1,5.614,1.081,7.211,7.211,0,0,1,4.013-1.229,2.927,2.927,0,0,1,2.819,2.645" transform="translate(-214.98 -17.235)" fill="#263238"/>
        <path id="Trazado_800766" data-name="Trazado 800766" d="M532.59,71.658a2.4,2.4,0,0,1-.414.025l-1.186.016-4.358.011-1.443,0a5.4,5.4,0,0,0-1.519.144,1.088,1.088,0,0,0-.613.4,1.653,1.653,0,0,0-.222.753,7.061,7.061,0,0,0,.053,1.741,10.618,10.618,0,0,0,1.2,3.55,9.054,9.054,0,0,0,2.662,2.989,7.008,7.008,0,0,0,3.73,1.342,4.669,4.669,0,0,0,1.857-.3,4.4,4.4,0,0,0,1.5-1,6.555,6.555,0,0,0,1.627-2.933,14.453,14.453,0,0,0,.443-2.948,4.491,4.491,0,0,0-.371-2.376,2.392,2.392,0,0,0-1.393-1.108A6.183,6.183,0,0,0,533,71.721a2.811,2.811,0,0,1-.409-.063,1.993,1.993,0,0,1,.414.008,5.405,5.405,0,0,1,1.175.2A2.488,2.488,0,0,1,535.674,73a4.6,4.6,0,0,1,.431,2.46,14.267,14.267,0,0,1-.417,3,6.747,6.747,0,0,1-1.667,3.052,4.619,4.619,0,0,1-1.586,1.06,4.911,4.911,0,0,1-1.962.325,7.246,7.246,0,0,1-3.879-1.386,9.264,9.264,0,0,1-2.738-3.083,10.771,10.771,0,0,1-1.217-3.646,7.26,7.26,0,0,1-.042-1.8,1.866,1.866,0,0,1,.269-.859,1.315,1.315,0,0,1,.74-.485,5.555,5.555,0,0,1,1.587-.139l1.445.021,4.358.076,1.185.035a2.283,2.283,0,0,1,.412.031" transform="translate(-247.305 -33.835)" fill="#263238"/>
        <path id="Trazado_800767" data-name="Trazado 800767" d="M494.084,71.232a2.282,2.282,0,0,1,.412-.031l1.185-.035,4.358-.076,1.445-.021a5.553,5.553,0,0,1,1.587.139,1.315,1.315,0,0,1,.74.485,1.865,1.865,0,0,1,.269.859,7.231,7.231,0,0,1-.042,1.8A10.769,10.769,0,0,1,502.819,78a9.269,9.269,0,0,1-2.739,3.083,7.246,7.246,0,0,1-3.879,1.386,4.91,4.91,0,0,1-1.962-.325,4.625,4.625,0,0,1-1.586-1.06,6.747,6.747,0,0,1-1.667-3.052,14.276,14.276,0,0,1-.417-3,4.6,4.6,0,0,1,.431-2.46,2.488,2.488,0,0,1,1.494-1.135,5.412,5.412,0,0,1,1.175-.2,1.994,1.994,0,0,1,.415-.008,2.726,2.726,0,0,1-.409.063,6.183,6.183,0,0,0-1.148.248,2.392,2.392,0,0,0-1.393,1.108,4.49,4.49,0,0,0-.371,2.376,14.457,14.457,0,0,0,.442,2.948,6.561,6.561,0,0,0,1.627,2.932,4.391,4.391,0,0,0,1.5,1,4.663,4.663,0,0,0,1.857.3,7.008,7.008,0,0,0,3.73-1.342,9.053,9.053,0,0,0,2.662-2.989,10.619,10.619,0,0,0,1.2-3.55,7.058,7.058,0,0,0,.053-1.741,1.652,1.652,0,0,0-.222-.753,1.089,1.089,0,0,0-.612-.4,5.409,5.409,0,0,0-1.519-.144l-1.443,0-4.358-.011-1.186-.016a2.334,2.334,0,0,1-.414-.025" transform="translate(-232.163 -33.633)" fill="#263238"/>
        <path id="Trazado_800768" data-name="Trazado 800768" d="M513.855,71.8a58.247,58.247,0,0,1,5.943-.032,22.334,22.334,0,0,1-5.943.032" transform="translate(-243.187 -33.936)" fill="#263238"/>
        <path id="Trazado_800769" data-name="Trazado 800769" d="M472.343,82.462c-.184-.085-7.453-2.4-7.394,5.074s7.55,5.873,7.562,5.659-.168-10.732-.168-10.732" transform="translate(-220.042 -38.834)" fill="#ffbe9d"/>
        <path id="Trazado_800770" data-name="Trazado 800770" d="M472.291,92.555c-.033-.024-.13.092-.349.195a1.3,1.3,0,0,1-.973.027,3.221,3.221,0,0,1-1.513-2.879,4.308,4.308,0,0,1,.35-1.867,1.506,1.506,0,0,1,.972-1.007.662.662,0,0,1,.771.351c.1.208.055.358.1.37.021.019.159-.126.1-.435a.832.832,0,0,0-.3-.466.982.982,0,0,0-.721-.184,1.831,1.831,0,0,0-1.352,1.169,4.423,4.423,0,0,0-.435,2.087c.06,1.505.842,2.909,1.925,3.213a1.4,1.4,0,0,0,1.189-.207c.23-.186.268-.354.242-.367" transform="translate(-221.927 -41.009)" fill="#eb996e"/>
        <path id="Trazado_800771" data-name="Trazado 800771" d="M517.008,40.654a4.792,4.792,0,0,1-8.14,4.942,2.415,2.415,0,0,1-4.553,1.565,2.267,2.267,0,0,1-1.4,2.086,1.479,1.479,0,0,1-1.927-1.233,1.746,1.746,0,0,1-3.035-.608,3.088,3.088,0,0,1-1.754,1.107c-.7.07-1.483-.634-1.2-1.281a1.52,1.52,0,0,1-2.2-1.551,2.1,2.1,0,0,1-3.463.214,1.045,1.045,0,0,1-1.39.029,2.989,2.989,0,0,1-.822-1.276,9.18,9.18,0,0,1-.847-2.936,6.172,6.172,0,0,1,2.98-5.3,16.468,16.468,0,0,1,5.289-1.922,7.71,7.71,0,0,1,3.857-.247,26.1,26.1,0,0,0,2.825,1.1,11.236,11.236,0,0,0,2.582-.167,6.335,6.335,0,0,1,3.9,1.012,2.379,2.379,0,0,0,1.189.543,2.692,2.692,0,0,0,1.127-.4,3.951,3.951,0,0,1,4.308.723,7.576,7.576,0,0,0,1.311,1.266,14.466,14.466,0,0,1,1.346.621c.4.293.6.965.2,1.26" transform="translate(-230.133 -16.13)" fill="#263238"/>
        <path id="Trazado_800772" data-name="Trazado 800772" d="M515.279,36.813a3.532,3.532,0,0,0,3.856.212,5.622,5.622,0,0,0,2.465-3.158,4.207,4.207,0,0,0-.017-3.255,2.2,2.2,0,0,0-2.8-1.095,6.349,6.349,0,0,0-.5-10.878,4.682,4.682,0,0,0,.347-4.438,2.772,2.772,0,0,0-3.93-1.077,4.4,4.4,0,0,0-6.375-1.664,2.814,2.814,0,0,0-1.57-3.341,5.622,5.622,0,0,0-3.97-.077,2.1,2.1,0,0,1-1.441.094c-.376-.174-.594-.566-.889-.856-1.439-1.418-3.81-.056-5.312,1.295a1.819,1.819,0,0,0-2.438-.233,4.447,4.447,0,0,0-1.476,2.225,1.722,1.722,0,0,1-.578.918,2.056,2.056,0,0,1-1.345.072,4.285,4.285,0,0,0-4.464,2.952,3.112,3.112,0,0,0-3.334,4.111,2.79,2.79,0,0,0-1.731,4.329" transform="translate(-226.813 -3.161)" fill="#263238"/>
        <path id="Trazado_800773" data-name="Trazado 800773" d="M511.657,9.547a2.633,2.633,0,0,1,.736-.074,4.111,4.111,0,0,1,2.005.577,3.967,3.967,0,0,1,1.908,2.581,4.283,4.283,0,0,1-1.192,3.951l-.048-.2a3.735,3.735,0,0,1-.086,7.214l.07-.223a3.787,3.787,0,0,1,.439.634,3.943,3.943,0,0,1-.5,4.518,4,4,0,0,1-4.045,1.076l.055-.239a1.3,1.3,0,0,1,.983.871,1.67,1.67,0,0,1-.027,1.252,3.337,3.337,0,0,1-1.64,1.53,7.719,7.719,0,0,1-3.527.839,7.5,7.5,0,0,1-2.322-.362,5.7,5.7,0,0,1-.58-.225.852.852,0,0,1-.191-.1c.008-.019.274.1.794.248a7.961,7.961,0,0,0,2.3.289,7.677,7.677,0,0,0,3.434-.873,3.145,3.145,0,0,0,1.524-1.437,1.435,1.435,0,0,0,.015-1.08,1.061,1.061,0,0,0-.8-.711l.055-.239a3.76,3.76,0,0,0,3.775-1.024,3.682,3.682,0,0,0,.452-4.2,3.457,3.457,0,0,0-.4-.587l-.138-.169.207-.054a3.577,3.577,0,0,0,2.607-3.567A3.616,3.616,0,0,0,515,16.61l-.2-.057.152-.144a4.09,4.09,0,0,0,1.164-3.737,3.84,3.84,0,0,0-1.789-2.5,4.2,4.2,0,0,0-1.936-.624c-.476-.027-.731.022-.733,0" transform="translate(-238.379 -4.483)" fill="#455a64"/>
        <path id="Trazado_800774" data-name="Trazado 800774" d="M544.314,25.894c0-.006.047.023.126.084a2.256,2.256,0,0,1,.315.306,3.232,3.232,0,0,1,.72,1.482,3.152,3.152,0,0,1-.5,2.456,3.4,3.4,0,0,1-2.834,1.426l.1-.211a3.088,3.088,0,0,1,.687,1.928,2.942,2.942,0,0,1-.77,2.042,3.132,3.132,0,0,1-2.708.971l.056-.26a2.346,2.346,0,0,1,1.444,1.321,3.205,3.205,0,0,1,.236,1.78,3.014,3.014,0,0,1-.666,1.454,4.121,4.121,0,0,1-1.032.9,5.544,5.544,0,0,1-1.8.7,4.47,4.47,0,0,1-.511.077.506.506,0,0,1-.18,0c0-.019.239-.056.67-.17a5.971,5.971,0,0,0,1.73-.752,4.028,4.028,0,0,0,.965-.882,2.831,2.831,0,0,0,.6-1.362,2.989,2.989,0,0,0-.237-1.641,2.1,2.1,0,0,0-1.288-1.17l.056-.26a2.881,2.881,0,0,0,2.467-.894,2.683,2.683,0,0,0,.7-1.853,2.844,2.844,0,0,0-.615-1.766l-.181-.222.286.011a3.188,3.188,0,0,0,2.646-1.3,3.017,3.017,0,0,0,.519-2.3,3.337,3.337,0,0,0-.63-1.457c-.229-.3-.39-.428-.376-.444" transform="translate(-254.142 -12.254)" fill="#455a64"/>
        <path id="Trazado_800775" data-name="Trazado 800775" d="M455.039,60.258c-.007,0-.032-.052-.072-.16a3.44,3.44,0,0,1-.14-.486,5.2,5.2,0,0,1,1.149-4.49,5.4,5.4,0,0,1,3.144-1.77l-.105.171a2.872,2.872,0,0,1,4.307-3.282l-.2.1a3.229,3.229,0,0,1,2.122-2.614,2.941,2.941,0,0,1,2.648.383,3.1,3.1,0,0,1,1.121,1.375,2.135,2.135,0,0,1,.135.456.459.459,0,0,1,.016.163c-.023.005-.058-.218-.231-.584a3.152,3.152,0,0,0-1.132-1.274,2.785,2.785,0,0,0-2.481-.309,3.011,3.011,0,0,0-1.937,2.43l-.023.215-.179-.118a2.614,2.614,0,0,0-3.911,2.982l.046.146-.152.025a5.218,5.218,0,0,0-3.015,1.659,5.085,5.085,0,0,0-1.208,2.479,5.462,5.462,0,0,0-.023,1.844c.069.429.142.656.123.663" transform="translate(-215.197 -22.509)" fill="#455a64"/>
        <path id="Trazado_800776" data-name="Trazado 800776" d="M459.7,73.055a1.1,1.1,0,0,1-.312-.425,2.456,2.456,0,0,1-.228-1.425,2.345,2.345,0,0,1,1.182-1.776,2.6,2.6,0,0,1,2.611.045l-.209.093c.013-.059.027-.123.042-.188a2.275,2.275,0,0,1,.811-1.187,3.2,3.2,0,0,1,1.194-.579,4.265,4.265,0,0,1,2.2.124,9.406,9.406,0,0,1,1.371.543,1.953,1.953,0,0,1,.471.262c-.019.052-.716-.29-1.893-.618a4.231,4.231,0,0,0-2.087-.066,2.464,2.464,0,0,0-1.8,1.592c-.012.055-.025.111-.036.162l-.045.2-.164-.1a2.375,2.375,0,0,0-2.343-.056,2.171,2.171,0,0,0-1.113,1.585,2.531,2.531,0,0,0,.134,1.353c.122.3.236.454.216.468" transform="translate(-217.291 -31.953)" fill="#455a64"/>
        <path id="Trazado_800777" data-name="Trazado 800777" d="M579.33,142.455s-2.578,4.972-2.578,5.295a63.505,63.505,0,0,0,4.3,4.763s-.537,7.481,0,8.877,1.611,9.559,1.611,9.559a3.937,3.937,0,0,0,3.544-3.974,63.317,63.317,0,0,0,0-6.981s1.933-2.363,3.33-1.289,1.181,18.365,1.181,18.365.322,3.007,2.685,2.685l1.4-3.115,2.9-5.584,2.255-2.363s1.933-2.47,1.611-4.725-.108-6.552-1.074-8.162-9.666-12.458-10.31-12.78a33.829,33.829,0,0,0-4.3-1.233c-.429-.056-6.551.663-6.551.663" transform="translate(-272.954 -67.103)" fill="#a36957"/>
      </g>
    </g>
    <g id="Grupo_1065177" data-name="Grupo 1065177">
      <g id="Grupo_1065176" data-name="Grupo 1065176" clip-path="url(#clip-path)">
        <path id="Trazado_800778" data-name="Trazado 800778" d="M97.342,76.344c6.434-13.189,20.108-20.706,33.368-14.99l.135.06C143.359,66.94,151.069,76.646,150,82.155c-3.494,18.071-9.35,21.338-9.35,21.338l-39.164,1.785s-9.4-15.029-4.3-28.531c.051-.135.092-.274.154-.4" transform="translate(-45.278 -28.12)" fill="#263238"/>
        <path id="Trazado_800779" data-name="Trazado 800779" d="M145.519,102.184c1.808-6.8.13-16.443-6.739-17.961l-22.467-1.7a4.117,4.117,0,0,0-4.818,2.791L97.521,131.224a12.658,12.658,0,0,0,24.1,7.748c1.1-3.237,1.967-5.81,1.963-5.794,0,0,8.978,1.434,14.454-9.074,2.723-5.226,5.474-14.368,7.483-21.921" transform="translate(-45.892 -39.011)" fill="#ffbe9d"/>
        <path id="Trazado_800780" data-name="Trazado 800780" d="M178.181,125.191c-.221.156-1.619-.3-3.576-.128-1.955.161-3.371.865-3.588.747-.106-.052.115-.317.731-.634a8.075,8.075,0,0,1,2.866-.766,7.251,7.251,0,0,1,2.853.271c.611.211.824.438.715.509" transform="translate(-80.923 -58.863)" fill="#263238"/>
        <path id="Trazado_800781" data-name="Trazado 800781" d="M149.056,117.462c-.292.008-1.272-1.249-3.135-2.263s-3.549-1.243-3.672-1.48c-.064-.11.292-.219,1.038-.133a8.672,8.672,0,0,1,3.036,1.028,7.807,7.807,0,0,1,2.4,1.958c.42.557.475.891.336.89" transform="translate(-67.317 -53.741)" fill="#263238"/>
        <path id="Trazado_800782" data-name="Trazado 800782" d="M157,132.02a10.731,10.731,0,0,1,2.638.383c.4.091.8.137.956-.108a2.1,2.1,0,0,0,.126-1.247q-.077-1.6-.16-3.365c-.187-4.778-.183-8.653.009-8.659s.5,3.862.688,8.639q.055,1.762.106,3.366a2.384,2.384,0,0,1-.311,1.6,1.035,1.035,0,0,1-.834.357,2.8,2.8,0,0,1-.7-.13,10.5,10.5,0,0,1-2.523-.84" transform="translate(-74.3 -56.33)" fill="#263238"/>
        <path id="Trazado_800783" data-name="Trazado 800783" d="M135.331,170.745a29.767,29.767,0,0,1-13.536-8.938s1.2,8.87,12.652,11.548Z" transform="translate(-57.641 -76.577)" fill="#eb996e"/>
        <path id="Trazado_800784" data-name="Trazado 800784" d="M148.957,148.566a2.911,2.911,0,0,0-2.132-1.853,2.655,2.655,0,0,0-2.052.351,1.684,1.684,0,0,0-.732,1.785,1.954,1.954,0,0,0,1.838,1.179,6.12,6.12,0,0,0,2.348-.513,1.789,1.789,0,0,0,.589-.307.54.54,0,0,0,.189-.571" transform="translate(-68.143 -69.402)" fill="#e8505b"/>
        <path id="Trazado_800785" data-name="Trazado 800785" d="M147.149,142.839c.254.069-.3,1.732.729,3.389s2.859,2.065,2.794,2.3c-.012.112-.5.191-1.257-.039a4.364,4.364,0,0,1-2.364-1.828,3.8,3.8,0,0,1-.5-2.805c.169-.716.493-1.066.6-1.018" transform="translate(-69.314 -67.598)" fill="#263238"/>
        <path id="Trazado_800786" data-name="Trazado 800786" d="M151.315,108.9c-.3.363-1.848-.375-3.818-.793-1.963-.456-3.669-.442-3.8-.9-.053-.216.345-.519,1.1-.715a6.735,6.735,0,0,1,3.035.009,6.83,6.83,0,0,1,2.767,1.281c.608.5.849.943.714,1.118" transform="translate(-68.006 -50.321)" fill="#263238"/>
        <path id="Trazado_800787" data-name="Trazado 800787" d="M179.554,116.431c-.386.258-1.32-.456-2.583-.9-1.247-.486-2.421-.55-2.547-1-.049-.213.236-.5.816-.677a3.96,3.96,0,0,1,4.133,1.526c.329.508.356.915.18,1.045" transform="translate(-82.546 -53.829)" fill="#263238"/>
        <path id="Trazado_800788" data-name="Trazado 800788" d="M108.6,93.2c-.039.179,1.865,6.775,4.62,7.248,8.335,1.432,15.529-18.691,15.529-18.691l-1.938,7.618L139.6,92.911,141.345,84l-.338,8.727,10.947,4.282s3.308-14.251-4.81-19.188S114.122,67.919,108.6,93.2" transform="translate(-51.395 -34.936)" fill="#263238"/>
        <path id="Trazado_800789" data-name="Trazado 800789" d="M110.754,115.369c-.119-.134-4.427-4.7-7.044,1.362s4,7.437,4.09,7.267,2.954-8.629,2.954-8.629" transform="translate(-48.792 -53.76)" fill="#ffbe9d"/>
        <path id="Trazado_800790" data-name="Trazado 800790" d="M108.545,122.639c-.018-.031-.137.028-.351.033a1.151,1.151,0,0,1-.8-.325,2.843,2.843,0,0,1-.2-2.865,3.791,3.791,0,0,1,.949-1.383,1.328,1.328,0,0,1,1.144-.467.585.585,0,0,1,.5.558c.008.2-.083.309-.055.333.011.023.174-.045.233-.317a.73.73,0,0,0-.074-.482.869.869,0,0,0-.517-.407,1.618,1.618,0,0,0-1.509.463,3.906,3.906,0,0,0-1.1,1.531,2.985,2.985,0,0,0,.409,3.282,1.232,1.232,0,0,0,1.035.257c.252-.068.342-.19.326-.21" transform="translate(-50.396 -55.496)" fill="#eb996e"/>
        <path id="Trazado_800791" data-name="Trazado 800791" d="M105.87,130.094c.015,0,.005.161-.117.41a2.168,2.168,0,0,1-.8.85,2.371,2.371,0,0,1-1.717.308,2.354,2.354,0,0,1-1.363-3.546,2.37,2.37,0,0,1,1.482-.921,2.16,2.16,0,0,1,1.165.093c.259.1.371.212.362.226a2.9,2.9,0,0,0-1.477-.085,2.2,2.2,0,0,0-1.276.865,2.083,2.083,0,0,0,1.178,3.064,2.2,2.2,0,0,0,1.527-.212,2.893,2.893,0,0,0,1.04-1.052" transform="translate(-48.03 -60.179)" fill="#fafafa"/>
        <path id="Trazado_800792" data-name="Trazado 800792" d="M147.493,119.644a1.515,1.515,0,0,1-1.517,1.474,1.449,1.449,0,0,1-1.511-1.423,1.517,1.517,0,0,1,1.515-1.475,1.45,1.45,0,0,1,1.512,1.424" transform="translate(-68.37 -55.949)" fill="#263238"/>
        <path id="Trazado_800793" data-name="Trazado 800793" d="M175.122,128.746a1.515,1.515,0,0,1-1.517,1.474,1.449,1.449,0,0,1-1.511-1.423,1.517,1.517,0,0,1,1.515-1.475,1.45,1.45,0,0,1,1.512,1.424" transform="translate(-81.445 -60.256)" fill="#263238"/>
        <path id="Trazado_800794" data-name="Trazado 800794" d="M167.248,88.018a1.2,1.2,0,0,1,.239.064l.685.221,2.584.873,9.173,3.17-.142.052a16.485,16.485,0,0,0,2.031-5.462,15.168,15.168,0,0,0-.235-6.466,14.692,14.692,0,0,0-2.153-4.671,13.88,13.88,0,0,0-1.577-1.88c-.569-.56-1.183-1.076-1.748-1.6-1.14-1.048-2.221-2.043-3.31-2.876s-2.191-1.49-3.174-2.125c-1.982-1.245-3.617-2.2-4.759-2.84l-1.322-.725-.345-.187a.493.493,0,0,1-.113-.072.462.462,0,0,1,.126.047l.358.162c.311.149.768.373,1.347.681,1.16.61,2.812,1.543,4.81,2.77.991.625,2.1,1.272,3.209,2.109s2.2,1.828,3.343,2.87c.568.527,1.174,1.03,1.762,1.6a13.981,13.981,0,0,1,1.612,1.912,14.872,14.872,0,0,1,2.2,4.755,15.347,15.347,0,0,1,.231,6.582,16.6,16.6,0,0,1-2.086,5.538l-.051.085-.092-.033-9.14-3.264-2.562-.935-.673-.256a1.244,1.244,0,0,1-.227-.1" transform="translate(-77.18 -30.048)" fill="#455a64"/>
        <path id="Trazado_800795" data-name="Trazado 800795" d="M102.121,101.421a4.807,4.807,0,0,1-.418-1.578,6.811,6.811,0,0,1,1.037-4.288,6.219,6.219,0,0,1,2.252-2.112,11.437,11.437,0,0,1,3.374-1.08,34.141,34.141,0,0,0,3.791-.793,14.205,14.205,0,0,0,3.719-1.778,20.257,20.257,0,0,0,5.538-5.721,36.427,36.427,0,0,0,3.02-5.822c.725-1.726,1.241-3.154,1.61-4.135l.425-1.131a2.44,2.44,0,0,1,.165-.388,2.4,2.4,0,0,1-.113.407l-.377,1.148c-.339.992-.826,2.432-1.532,4.174a35.116,35.116,0,0,1-2.988,5.885,20.227,20.227,0,0,1-5.6,5.811,14.346,14.346,0,0,1-3.793,1.807,33.435,33.435,0,0,1-3.823.784,11.325,11.325,0,0,0-3.313,1.032,6.053,6.053,0,0,0-2.2,2.018,6.825,6.825,0,0,0-1.093,4.173,9.9,9.9,0,0,0,.312,1.588" transform="translate(-48.117 -34.356)" fill="#455a64"/>
        <path id="Trazado_800796" data-name="Trazado 800796" d="M117.923,78.462c0-.056.845-.007,2.18-.2a13.878,13.878,0,0,0,2.3-.55,14.057,14.057,0,0,0,4.969-2.887,13.949,13.949,0,0,0,1.616-1.724c.832-1.062,1.207-1.82,1.256-1.794a2.439,2.439,0,0,1-.243.541,5.119,5.119,0,0,1-.344.6,8.431,8.431,0,0,1-.515.765,12.606,12.606,0,0,1-1.6,1.793,13.368,13.368,0,0,1-5.061,2.94,12.607,12.607,0,0,1-2.35.5,8.365,8.365,0,0,1-.92.068,5.064,5.064,0,0,1-.7,0,2.461,2.461,0,0,1-.59-.057" transform="translate(-55.808 -33.745)" fill="#455a64"/>
        <path id="Trazado_800797" data-name="Trazado 800797" d="M112.6,70.971c.021-.05.625.223,1.659.429a9.78,9.78,0,0,0,1.835.18,9.988,9.988,0,0,0,4.367-.991,9.809,9.809,0,0,0,1.577-.954c.843-.632,1.271-1.139,1.311-1.1.014.013-.085.144-.278.374a3.426,3.426,0,0,1-.373.4,5.95,5.95,0,0,1-.54.484,8.81,8.81,0,0,1-1.584,1.028,9.48,9.48,0,0,1-4.482,1.017,8.8,8.8,0,0,1-1.873-.244,5.776,5.776,0,0,1-.7-.2,3.505,3.505,0,0,1-.509-.2,1.515,1.515,0,0,1-.412-.218" transform="translate(-53.291 -32.432)" fill="#455a64"/>
        <path id="Trazado_800798" data-name="Trazado 800798" d="M155.857,87.943a6.99,6.99,0,0,1-.545-1.5,23.163,23.163,0,0,1-.875-7.62,7.044,7.044,0,0,1,.191-1.582,13.115,13.115,0,0,1,0,1.588A30.686,30.686,0,0,0,155.5,86.4a13.133,13.133,0,0,1,.358,1.548" transform="translate(-73.074 -36.556)" fill="#455a64"/>
        <path id="Trazado_800799" data-name="Trazado 800799" d="M162.884,89.339a4.5,4.5,0,0,1-.8-1.12A11.071,11.071,0,0,1,160.7,81.8a4.478,4.478,0,0,1,.262-1.349,17.013,17.013,0,0,0,.213,4.6,17.054,17.054,0,0,0,1.707,4.281" transform="translate(-76.033 -38.075)" fill="#455a64"/>
        <path id="Trazado_800800" data-name="Trazado 800800" d="M182.662,92.948a2.191,2.191,0,0,1-.549-.111,10.386,10.386,0,0,1-1.445-.493,13.782,13.782,0,0,1-2.019-1.036,14.542,14.542,0,0,1-4.061-3.764,13.861,13.861,0,0,1-1.186-1.934,10.392,10.392,0,0,1-.6-1.4,2.2,2.2,0,0,1-.153-.539c.049-.018.311.734.925,1.853a15.788,15.788,0,0,0,1.218,1.874,15.545,15.545,0,0,0,3.994,3.7,15.732,15.732,0,0,0,1.961,1.072c1.161.527,1.932.732,1.917.782" transform="translate(-81.705 -39.596)" fill="#455a64"/>
        <path id="Trazado_800801" data-name="Trazado 800801" d="M191.111,151.537s-2.153-1.209-3.307-1.1a13,13,0,0,0-3.4,1.367,3.72,3.72,0,0,0-2.294-.1,5.985,5.985,0,0,0-2.273,1.78,6.252,6.252,0,0,0-1.564-.069c-.943.063-2.426,3.858-2.631,4.934-.29,1.527.6,2.456,1.9,1.573s2.518-4.34,2.518-4.34-.525,5.251,1.676,5.1,1.935-4.467,1.935-4.467-.71,4.63,1.6,4.33a6.59,6.59,0,0,0,3.091-1.253s1.8.079,2.521-2.4a13.855,13.855,0,0,0,.237-5.359" transform="translate(-83.097 -71.192)" fill="#ffbe9d"/>
        <path id="Trazado_800802" data-name="Trazado 800802" d="M187.328,161.145a1.3,1.3,0,0,1-.19.4,3.546,3.546,0,0,1-.758.952,1.931,1.931,0,0,1-.77.4,1.455,1.455,0,0,1-1.009-.089,1.485,1.485,0,0,1-.7-.875,4.924,4.924,0,0,1-.2-1.136,16.074,16.074,0,0,1-.035-3.965,6.588,6.588,0,0,1,.281-1.175,1.24,1.24,0,0,1,.184-.4c.046.015-.172.606-.273,1.6a19.488,19.488,0,0,0,.115,3.915,4.87,4.87,0,0,0,.184,1.076,1.244,1.244,0,0,0,.559.738,1.5,1.5,0,0,0,1.54-.236,4.16,4.16,0,0,0,.791-.859c.166-.227.262-.352.279-.342" transform="translate(-86.871 -73.474)" fill="#eb996e"/>
        <path id="Trazado_800803" data-name="Trazado 800803" d="M193.163,162.1c.012.006-.049.152-.279.3a1.3,1.3,0,0,1-1.11.076,1.927,1.927,0,0,1-1.063-1.258,6.088,6.088,0,0,1-.143-1.992,21.9,21.9,0,0,1,.317-3.567,4.792,4.792,0,0,1,.425-1.424c.042.013-.109.557-.234,1.456a31.787,31.787,0,0,0-.234,3.543,6.313,6.313,0,0,0,.111,1.91,1.765,1.765,0,0,0,.9,1.153,1.242,1.242,0,0,0,.987.009c.222-.1.311-.219.329-.2" transform="translate(-90.18 -72.993)" fill="#eb996e"/>
        <path id="Trazado_800804" data-name="Trazado 800804" d="M200.63,158.424c.011,0,.016.173-.182.385a1.145,1.145,0,0,1-1.122.277,1.774,1.774,0,0,1-1.142-1.275,9.027,9.027,0,0,1-.18-2.072,31.1,31.1,0,0,1,.2-3.731,7.782,7.782,0,0,1,.248-1.528,9.712,9.712,0,0,1-.054,1.544c-.057.95-.136,2.263-.122,3.711a9.783,9.783,0,0,0,.149,2.007,1.6,1.6,0,0,0,.956,1.157,1.062,1.062,0,0,0,.992-.171c.195-.162.23-.316.254-.307" transform="translate(-93.707 -71.217)" fill="#eb996e"/>
        <path id="Trazado_800805" data-name="Trazado 800805" d="M100.017,206.436c-1.643-6.728-2.017-9.466-5.166-13.317-6.57-8.033-6.635-17.146-11.69-19.8-1.741-.914-2.318-2.5-3.7-3.008a15.417,15.417,0,0,0-7.938-.723s-8.042,3.906-12.083,9.424-9.651,29.51-9.651,29.51l-.382,38.874L40.161,269.6H89.469s6.657-34.91,8.363-42.258,3.014-17.509,2.184-20.906" transform="translate(-19.007 -80.153)" fill="#727997"/>
        <path id="Trazado_800806" data-name="Trazado 800806" d="M121.053,211.146a1.4,1.4,0,0,1,.285.15,7.552,7.552,0,0,1,.771.511,10.224,10.224,0,0,1,2.326,2.473,10.574,10.574,0,0,1,1.714,4.725,10.435,10.435,0,0,1-5.692,10.251,10.568,10.568,0,0,1-4.917,1.043,10.23,10.23,0,0,1-3.329-.667,7.542,7.542,0,0,1-.841-.384,1.421,1.421,0,0,1-.278-.162c.014-.029.4.185,1.155.446a10.788,10.788,0,0,0,3.3.573,10.556,10.556,0,0,0,4.8-1.076,10.288,10.288,0,0,0,5.552-10,10.557,10.557,0,0,0-1.624-4.643,10.788,10.788,0,0,0-2.23-2.5c-.619-.5-1.007-.718-.99-.745" transform="translate(-52.575 -99.927)" fill="#fff"/>
        <path id="Trazado_800807" data-name="Trazado 800807" d="M142.065,267.25a.862.862,0,0,1-.2-.15,6.987,6.987,0,0,1-.541-.481,10.942,10.942,0,0,1-1.669-2.078,12.051,12.051,0,0,1-1.521-3.651,11.411,11.411,0,0,1,1.746-9.3,12.049,12.049,0,0,1,2.743-2.85,10.9,10.9,0,0,1,2.309-1.332,6.916,6.916,0,0,1,.679-.252.876.876,0,0,1,.244-.065,15.4,15.4,0,0,0-3.115,1.8,12.292,12.292,0,0,0-2.651,2.839,11.382,11.382,0,0,0-1.709,9.1,12.3,12.3,0,0,0,1.441,3.607,15.393,15.393,0,0,0,2.249,2.81" transform="translate(-65.218 -116.938)" fill="#fff"/>
        <path id="Trazado_800808" data-name="Trazado 800808" d="M104.361,293.815a19.315,19.315,0,0,0-.391-2.1,9.066,9.066,0,0,0-7.178-6.546,19.421,19.421,0,0,0-2.128-.2,2.034,2.034,0,0,1,.576-.076,7.846,7.846,0,0,1,1.583.082,8.848,8.848,0,0,1,7.334,6.688,7.848,7.848,0,0,1,.227,1.57,2.026,2.026,0,0,1-.023.581" transform="translate(-44.801 -134.824)" fill="#fff"/>
        <path id="Trazado_800809" data-name="Trazado 800809" d="M122.517,345.19a17.361,17.361,0,0,0-2.688-.782A10.884,10.884,0,0,0,108.37,349.7a17.3,17.3,0,0,0-1.148,2.553c-.009,0,0-.069.027-.195s.064-.313.141-.545a9.818,9.818,0,0,1,.811-1.909,10.739,10.739,0,0,1,11.664-5.386,9.792,9.792,0,0,1,1.979.621c.227.092.391.189.507.247s.171.1.166.105" transform="translate(-50.742 -162.799)" fill="#fff"/>
        <path id="Trazado_800810" data-name="Trazado 800810" d="M119.221,285.3a6.743,6.743,0,0,1-1.245-1.007,19.7,19.7,0,0,1-4.47-6.263,6.756,6.756,0,0,1-.547-1.5,14.544,14.544,0,0,1,.723,1.421,24.7,24.7,0,0,0,4.431,6.208,14.673,14.673,0,0,1,1.109,1.145" transform="translate(-53.458 -130.868)" fill="#263238"/>
        <path id="Trazado_800811" data-name="Trazado 800811" d="M124.048,218.561c-.774-1.134-4.465-.2-4.465-.2s2.62-8.674,2.943-10.661-2.405-1.519-2.405-1.519l-3.1,6.1s-6.306,9.493-7.713,12.021A13.026,13.026,0,0,0,108,230.136l-.593.092L64.227,245.509,71.459,225.7S85.9,192.073,86.628,188.81s.346-5.165-1.1-9.7-6.652-6.651-13.616-6.252c-3.047.174-6.153,2.712-8.683,5.512a34.04,34.04,0,0,0-7.119,12.565l-6.1,19.218s-9.861,36.651-9.365,44.089,3.89,18.539,17.666,15.851,50.065-24.631,50.065-24.631a60.23,60.23,0,0,1,9.117-3.836c3.454-.907,9.247-6.773,9.171-7.718s-1.845-14.209-2.618-15.343" transform="translate(-19.228 -81.783)" fill="#ffbe9d"/>
        <path id="Trazado_800812" data-name="Trazado 800812" d="M78.6,310.267c.009.049-.641.163-1.639.508a13.264,13.264,0,0,0-6.477,4.857c-.61.861-.9,1.453-.946,1.431a1.506,1.506,0,0,1,.168-.434,8.534,8.534,0,0,1,.618-1.106A12.044,12.044,0,0,1,76.9,310.59a8.578,8.578,0,0,1,1.235-.284,1.539,1.539,0,0,1,.464-.039" transform="translate(-32.908 -146.833)" fill="#eb996e"/>
        <path id="Trazado_800813" data-name="Trazado 800813" d="M66.872,192.536S77.38,182.571,87.3,190s8.769,11.038,8.769,11.038S99.9,190.4,99.816,186.915s1.563-7.094-2.1-11.2-8.916-6.972-15.669-4.031-13.531,14.071-15.171,20.849" transform="translate(-31.648 -80.683)" fill="#727997"/>
        <path id="Trazado_800814" data-name="Trazado 800814" d="M120.374,199.479a1.159,1.159,0,0,1,.019-.291c.027-.219.062-.492.1-.825.095-.717.232-1.754.365-3.037a35.339,35.339,0,0,0-.2-10.025,19.1,19.1,0,0,0-4.193-8.99,14.521,14.521,0,0,0-2.221-2.075c-.577-.43-.915-.645-.9-.667a1.176,1.176,0,0,1,.259.135c.161.1.415.229.706.445a13.2,13.2,0,0,1,2.3,2.033,16.559,16.559,0,0,1,2.553,3.775,20.7,20.7,0,0,1,1.765,5.294,33.49,33.49,0,0,1,.127,10.1c-.158,1.285-.324,2.319-.451,3.031-.062.357-.117.632-.156.819a1.163,1.163,0,0,1-.073.282" transform="translate(-53.64 -82.142)" fill="#263238"/>
        <path id="Trazado_800815" data-name="Trazado 800815" d="M96.76,171.02c.008,0,.052.058.128.183a4.646,4.646,0,0,1,.3.569,6.547,6.547,0,0,1,.525,2.3,6.846,6.846,0,0,1-.738,3.414,6.765,6.765,0,0,1-7.336,3.417,6.843,6.843,0,0,1-3.089-1.63,6.561,6.561,0,0,1-1.421-1.88,4.573,4.573,0,0,1-.245-.592.694.694,0,0,1-.058-.216c.027-.01.129.28.4.759a7.015,7.015,0,0,0,1.456,1.786,6.8,6.8,0,0,0,3.014,1.528,6.6,6.6,0,0,0,7.058-3.288,6.8,6.8,0,0,0,.769-3.289,7.015,7.015,0,0,0-.43-2.264c-.193-.514-.35-.779-.324-.793" transform="translate(-40.141 -80.937)" fill="#fff"/>
        <path id="Trazado_800816" data-name="Trazado 800816" d="M119.3,201.662c0,.051-.54-.009-1.39.079a8.286,8.286,0,0,0-1.466.3,8.317,8.317,0,0,0-3.169,1.775,8.26,8.26,0,0,0-1.018,1.1c-.52.678-.749,1.166-.794,1.144-.017-.008.028-.135.125-.359a5.281,5.281,0,0,1,.512-.9,7.236,7.236,0,0,1,1-1.167,7.789,7.789,0,0,1,3.27-1.831,7.216,7.216,0,0,1,1.52-.246,5.286,5.286,0,0,1,1.035.034c.242.034.373.062.371.081" transform="translate(-52.752 -95.38)" fill="#fff"/>
      </g>
    </g>
  </g>
</svg>
