<svg xmlns="http://www.w3.org/2000/svg" xmlns:xlink="http://www.w3.org/1999/xlink" width="1030" height="547.412" viewBox="0 0 1030 547.412">
  <defs>
    <clipPath id="clip-path">
      <rect id="Rectángulo_373584" data-name="Rectángulo 373584" width="44.236" height="4.945" fill="none"/>
    </clipPath>
    <clipPath id="clip-path-2">
      <rect id="Rectángulo_373585" data-name="Rectángulo 373585" width="26.072" height="22.466" fill="none"/>
    </clipPath>
    <clipPath id="clip-path-3">
      <rect id="Rectángulo_373586" data-name="Rectángulo 373586" width="3.425" height="3.448" fill="none"/>
    </clipPath>
    <clipPath id="clip-path-4">
      <rect id="Rectángulo_373587" data-name="Rectángulo 373587" width="33.75" height="16.004" fill="none"/>
    </clipPath>
    <clipPath id="clip-path-5">
      <rect id="Rectángulo_373588" data-name="Rectángulo 373588" width="6.336" height="16.224" fill="none"/>
    </clipPath>
    <clipPath id="clip-path-6">
      <rect id="Rectángulo_373589" data-name="Rectángulo 373589" width="8.209" height="16.664" fill="none"/>
    </clipPath>
    <clipPath id="clip-path-7">
      <rect id="Rectángulo_373590" data-name="Rectángulo 373590" width="7.659" height="40.925" fill="none"/>
    </clipPath>
    <clipPath id="clip-path-8">
      <rect id="Rectángulo_373591" data-name="Rectángulo 373591" width="14.63" height="29.687" fill="none"/>
    </clipPath>
    <filter id="Trazado_797156" x="46.6" y="45.233" width="68.896" height="68.896" filterUnits="userSpaceOnUse">
      <feOffset dy="3" input="SourceAlpha"/>
      <feGaussianBlur stdDeviation="3" result="blur"/>
      <feFlood flood-opacity="0.161"/>
      <feComposite operator="in" in2="blur"/>
      <feComposite in="SourceGraphic"/>
    </filter>
    <filter id="Trazado_797158" x="321.067" y="117.66" width="81.81" height="81.81" filterUnits="userSpaceOnUse">
      <feOffset dy="3" input="SourceAlpha"/>
      <feGaussianBlur stdDeviation="3" result="blur-2"/>
      <feFlood flood-opacity="0.161"/>
      <feComposite operator="in" in2="blur-2"/>
      <feComposite in="SourceGraphic"/>
    </filter>
    <filter id="Trazado_797159" x="462.764" y="97.137" width="60.25" height="60.25" filterUnits="userSpaceOnUse">
      <feOffset dy="3" input="SourceAlpha"/>
      <feGaussianBlur stdDeviation="3" result="blur-3"/>
      <feFlood flood-opacity="0.161"/>
      <feComposite operator="in" in2="blur-3"/>
      <feComposite in="SourceGraphic"/>
    </filter>
    <filter id="Trazado_797160" x="566.254" y="156.99" width="81.104" height="81.104" filterUnits="userSpaceOnUse">
      <feOffset dy="3" input="SourceAlpha"/>
      <feGaussianBlur stdDeviation="3" result="blur-4"/>
      <feFlood flood-opacity="0.161"/>
      <feComposite operator="in" in2="blur-4"/>
      <feComposite in="SourceGraphic"/>
    </filter>
    <filter id="Trazado_797161" x="749.474" y="210.704" width="117.643" height="117.643" filterUnits="userSpaceOnUse">
      <feOffset dy="3" input="SourceAlpha"/>
      <feGaussianBlur stdDeviation="3" result="blur-5"/>
      <feFlood flood-opacity="0.161"/>
      <feComposite operator="in" in2="blur-5"/>
      <feComposite in="SourceGraphic"/>
    </filter>
    <filter id="Trazado_797157" x="108.178" y="188.747" width="119.368" height="119.368" filterUnits="userSpaceOnUse">
      <feOffset dy="3" input="SourceAlpha"/>
      <feGaussianBlur stdDeviation="3" result="blur-6"/>
      <feFlood flood-opacity="0.161"/>
      <feComposite operator="in" in2="blur-6"/>
      <feComposite in="SourceGraphic"/>
    </filter>
  </defs>
  <g id="Grupo_1065528" data-name="Grupo 1065528" transform="translate(-285 -4018.999)">
    <g id="Grupo_1064207" data-name="Grupo 1064207" transform="translate(285 4018.999)">
      <g id="Grupo_1065456" data-name="Grupo 1065456" transform="translate(0 0)">
        <path id="Trazado_796962" data-name="Trazado 796962" d="M333.649,395.092H567.609l4.866-96H328.783Z" transform="translate(83.229 75.715)" fill="#ebebeb"/>
        <path id="Trazado_796963" data-name="Trazado 796963" d="M530.645,340.892H432.832L431,307.565H532.786Zm-96.694-1.18h95.586l1.989-30.966H432.247Z" transform="translate(109.105 77.859)" fill="#dbdbdb"/>
        <path id="Trazado_796964" data-name="Trazado 796964" d="M528,370.833H435.823l-1.5-30.083h95.552Zm-91.052-1.18h89.943l1.732-27.722H435.566Z" transform="translate(109.947 86.26)" fill="#dbdbdb"/>
        <path id="Trazado_796965" data-name="Trazado 796965" d="M482.535,325.368H466.1l-1.038-8.036h18.51Zm-15.4-1.18H481.5l.732-5.676H466.405Z" transform="translate(117.727 80.332)" fill="#dbdbdb"/>
        <path id="Trazado_796966" data-name="Trazado 796966" d="M482.535,357.583H466.1l-1.038-8.038h18.51Zm-15.4-1.181H481.5l.732-5.677H466.405Z" transform="translate(117.727 88.486)" fill="#dbdbdb"/>
        <path id="Trazado_796967" data-name="Trazado 796967" d="M438.835,340.892H341.023l-1.835-33.327H440.976Zm-96.694-1.18h95.586l1.989-30.966h-99.28Z" transform="translate(85.863 77.859)" fill="#dbdbdb"/>
        <path id="Trazado_796968" data-name="Trazado 796968" d="M436.188,370.833H344.013l-1.5-30.083h95.553Zm-91.052-1.18h89.943l1.732-27.722H343.756Z" transform="translate(86.705 86.26)" fill="#dbdbdb"/>
        <path id="Trazado_796969" data-name="Trazado 796969" d="M390.724,325.368H374.289l-1.038-8.036h18.51Zm-15.4-1.18h14.359l.733-5.676H374.594Z" transform="translate(94.486 80.332)" fill="#dbdbdb"/>
        <path id="Trazado_796970" data-name="Trazado 796970" d="M390.724,357.583H374.289l-1.038-8.038h18.51Zm-15.4-1.181h14.359l.733-5.677H374.594Z" transform="translate(94.486 88.486)" fill="#dbdbdb"/>
        <path id="Trazado_796971" data-name="Trazado 796971" d="M351.47,375.7,350,386.158l-2.955,21.013h-5.778V375.7Z" transform="translate(86.39 95.107)" fill="#ebebeb"/>
        <path id="Trazado_796972" data-name="Trazado 796972" d="M351.47,375.7,350,386.158h-8.733V375.7Z" transform="translate(86.39 95.107)" fill="#dbdbdb"/>
        <path id="Trazado_796973" data-name="Trazado 796973" d="M502.622,375.7l1.469,10.459,2.955,21.013h5.778V375.7Z" transform="translate(127.235 95.107)" fill="#ebebeb"/>
        <path id="Trazado_796974" data-name="Trazado 796974" d="M502.622,375.7l1.469,10.459h8.733V375.7Z" transform="translate(127.235 95.107)" fill="#dbdbdb"/>
        <g id="Grupo_1064205" data-name="Grupo 1064205">
          <g id="Grupo_1065457" data-name="Grupo 1065457">
            <path id="Trazado_796975" data-name="Trazado 796975" d="M14.389,184.936a3.7,3.7,0,0,1,3.875.026q.487.3.994.566t1.029.519a3.684,3.684,0,0,1,2.158,3.2l.149,4.764,15.521-.482-.147-4.763a3.69,3.69,0,0,1,1.949-3.347,21.818,21.818,0,0,0,1.969-1.216,3.684,3.684,0,0,1,3.853-.247l4.191,2.247,7.342-13.691-4.191-2.247a3.684,3.684,0,0,1-1.926-3.347,21.871,21.871,0,0,0-.076-2.312,3.689,3.689,0,0,1,1.711-3.476l4.049-2.513-8.186-13.2-4.071,2.521a3.682,3.682,0,0,1-3.856-.029q-.487-.293-.994-.565t-1.021-.515a3.7,3.7,0,0,1-2.164-3.213l-.143-4.768-15.523.482.15,4.752a3.687,3.687,0,0,1-1.945,3.348,21.714,21.714,0,0,0-1.975,1.223,3.688,3.688,0,0,1-3.857.249l-4.188-2.247L1.723,160.353,5.912,162.6a3.689,3.689,0,0,1,1.926,3.351,21.728,21.728,0,0,0,.074,2.322A3.694,3.694,0,0,1,6.2,171.745l-4.043,2.5,8.187,13.2Zm3.89-24.511a12.721,12.721,0,1,1,5.207,17.219,12.731,12.731,0,0,1-5.207-17.219" transform="translate(0.436 35.151)" fill="#ebebeb"/>
            <path id="Trazado_796976" data-name="Trazado 796976" d="M540.755,134.277a3.7,3.7,0,0,1,3.875.026c.325.2.657.386.994.566s.684.356,1.029.519a3.687,3.687,0,0,1,2.159,3.2l.148,4.764,15.521-.482-.147-4.763a3.69,3.69,0,0,1,1.949-3.347,21.65,21.65,0,0,0,1.969-1.216,3.684,3.684,0,0,1,3.853-.247l4.19,2.247,7.342-13.691-4.19-2.247a3.684,3.684,0,0,1-1.926-3.347,21.864,21.864,0,0,0-.077-2.312,3.691,3.691,0,0,1,1.711-3.476l4.049-2.513-8.186-13.2-4.072,2.521a3.682,3.682,0,0,1-3.856-.029c-.325-.2-.657-.385-.992-.565s-.678-.352-1.021-.515a3.7,3.7,0,0,1-2.165-3.213l-.143-4.768-15.523.482.152,4.752a3.69,3.69,0,0,1-1.946,3.348A21.687,21.687,0,0,0,543.477,98a3.686,3.686,0,0,1-3.856.249L535.432,96l-7.342,13.691,4.189,2.246a3.689,3.689,0,0,1,1.926,3.351,21.76,21.76,0,0,0,.074,2.322,3.694,3.694,0,0,1-1.713,3.474l-4.043,2.5,8.187,13.2Zm3.89-24.511a12.721,12.721,0,1,1,5.207,17.219,12.731,12.731,0,0,1-5.207-17.219" transform="translate(133.683 22.327)" fill="#ebebeb"/>
            <path id="Trazado_796977" data-name="Trazado 796977" d="M560.146,316.116a3.7,3.7,0,0,1,3.875.026c.325.2.657.386.994.566s.684.356,1.029.519a3.687,3.687,0,0,1,2.159,3.2l.148,4.764,15.521-.482-.147-4.763a3.69,3.69,0,0,1,1.949-3.347,21.66,21.66,0,0,0,1.969-1.216,3.684,3.684,0,0,1,3.853-.247l4.19,2.247,7.342-13.691-4.191-2.247a3.689,3.689,0,0,1-1.926-3.347,21.832,21.832,0,0,0-.076-2.312,3.691,3.691,0,0,1,1.711-3.476l4.049-2.513-8.185-13.2-4.071,2.521a3.682,3.682,0,0,1-3.856-.029q-.487-.293-.993-.565c-.338-.18-.678-.352-1.021-.515A3.7,3.7,0,0,1,582.3,274.8l-.143-4.768-15.523.483.152,4.752a3.69,3.69,0,0,1-1.946,3.348,21.713,21.713,0,0,0-1.975,1.223,3.686,3.686,0,0,1-3.856.249l-4.189-2.247-7.342,13.691,4.189,2.246a3.689,3.689,0,0,1,1.926,3.351,21.729,21.729,0,0,0,.074,2.322,3.694,3.694,0,0,1-1.713,3.474l-4.043,2.5,8.187,13.2Zm3.89-24.511a12.721,12.721,0,1,1,5.207,17.219,12.731,12.731,0,0,1-5.207-17.219" transform="translate(138.591 68.359)" fill="#ebebeb"/>
            <path id="Trazado_796978" data-name="Trazado 796978" d="M50.118,138.751a2.592,2.592,0,0,1,2.4-1.267q.4.021.8.02c.271,0,.54-.006.806-.02a2.583,2.583,0,0,1,2.394,1.262l1.669,2.894,9.424-5.437-1.668-2.892a2.585,2.585,0,0,1,.1-2.713,15.086,15.086,0,0,0,.812-1.4,2.585,2.585,0,0,1,2.3-1.429h3.331V116.883H69.15a2.585,2.585,0,0,1-2.3-1.429,15.273,15.273,0,0,0-.812-1.4,2.583,2.583,0,0,1-.1-2.712l1.668-2.892-9.424-5.437-1.678,2.9a2.582,2.582,0,0,1-2.391,1.259c-.264-.014-.533-.02-.8-.02s-.535.006-.8.02a2.59,2.59,0,0,1-2.4-1.267l-1.668-2.9-9.422,5.437,1.667,2.883a2.586,2.586,0,0,1-.093,2.712,14.8,14.8,0,0,0-.813,1.41,2.586,2.586,0,0,1-2.3,1.43H34.16v10.884h3.33a2.584,2.584,0,0,1,2.3,1.43,14.96,14.96,0,0,0,.813,1.41,2.583,2.583,0,0,1,.093,2.711L39.028,136.2l9.422,5.437ZM44.4,122.329a8.912,8.912,0,1,1,8.916,8.907,8.92,8.92,0,0,1-8.916-8.907" transform="translate(8.647 26.078)" fill="#ebebeb"/>
            <path id="Trazado_796979" data-name="Trazado 796979" d="M658.274,138.467a2.593,2.593,0,0,1,2.4-1.266q.4.021.8.02c.271,0,.54-.006.806-.02a2.583,2.583,0,0,1,2.394,1.262l1.669,2.894,9.424-5.437-1.668-2.892a2.585,2.585,0,0,1,.1-2.713,14.883,14.883,0,0,0,.812-1.4,2.586,2.586,0,0,1,2.3-1.427h3.331V116.6h-3.331a2.585,2.585,0,0,1-2.3-1.429,15.21,15.21,0,0,0-.812-1.4,2.583,2.583,0,0,1-.1-2.712l1.668-2.892-9.424-5.437-1.678,2.9a2.581,2.581,0,0,1-2.391,1.259c-.264-.014-.533-.02-.8-.02s-.535.006-.8.02a2.59,2.59,0,0,1-2.4-1.267l-1.668-2.9-9.422,5.437,1.666,2.883a2.583,2.583,0,0,1-.092,2.712,14.829,14.829,0,0,0-.813,1.41,2.587,2.587,0,0,1-2.3,1.43h-3.33v10.884h3.33a2.584,2.584,0,0,1,2.3,1.43,14.988,14.988,0,0,0,.813,1.41,2.581,2.581,0,0,1,.092,2.711l-1.666,2.885,9.422,5.437Zm-5.713-16.42a8.912,8.912,0,1,1,8.916,8.907,8.92,8.92,0,0,1-8.916-8.907" transform="translate(162.598 26.006)" fill="#ebebeb"/>
            <path id="Trazado_796980" data-name="Trazado 796980" d="M350.64,35.568a2.594,2.594,0,0,1,1.266,2.4c-.014.266-.02.533-.02.8s.006.54.02.807a2.582,2.582,0,0,1-1.262,2.392l-2.894,1.669,5.437,9.424,2.892-1.668a2.583,2.583,0,0,1,2.712.1,15.13,15.13,0,0,0,1.4.812,2.586,2.586,0,0,1,1.427,2.3v3.331h10.884V54.6a2.586,2.586,0,0,1,1.427-2.3,15.122,15.122,0,0,0,1.4-.812,2.583,2.583,0,0,1,2.712-.1l2.892,1.668,5.437-9.424-2.9-1.678a2.581,2.581,0,0,1-1.259-2.39q.021-.4.02-.8t-.02-.8a2.588,2.588,0,0,1,1.267-2.4l2.9-1.668-5.437-9.424-2.885,1.667a2.583,2.583,0,0,1-2.711-.093,15.078,15.078,0,0,0-1.41-.813,2.585,2.585,0,0,1-1.43-2.3V19.61H361.622v3.33a2.585,2.585,0,0,1-1.43,2.3,15.07,15.07,0,0,0-1.41.813,2.585,2.585,0,0,1-2.712.093l-2.883-1.667L347.75,33.9Zm16.42-5.713a8.912,8.912,0,1,1-8.907,8.916,8.92,8.92,0,0,1,8.907-8.916" transform="translate(88.031 4.965)" fill="#ebebeb"/>
            <path id="Trazado_796981" data-name="Trazado 796981" d="M667.57,322.8a2.594,2.594,0,0,1-2.594-.8q-.267-.3-.551-.58t-.585-.556a2.584,2.584,0,0,1-.8-2.585l.865-3.226L653.4,312.228l-.866,3.224a2.585,2.585,0,0,1-1.985,1.851,14.945,14.945,0,0,0-1.566.417,2.584,2.584,0,0,1-2.634-.615l-2.356-2.355-7.694,7.694,2.355,2.356a2.584,2.584,0,0,1,.615,2.634,14.934,14.934,0,0,0-.417,1.566A2.582,2.582,0,0,1,637,330.986l-3.224.866,2.818,10.508,3.241-.867a2.578,2.578,0,0,1,2.58.8c.179.2.362.39.553.58s.382.373.58.551a2.589,2.589,0,0,1,.8,2.593l-.87,3.228,10.508,2.818.861-3.217a2.587,2.587,0,0,1,1.983-1.853,15.2,15.2,0,0,0,1.571-.42,2.581,2.581,0,0,1,2.638.614l2.355,2.355,7.7-7.7-2.355-2.355a2.581,2.581,0,0,1-.614-2.638,14.89,14.89,0,0,0,.42-1.571,2.586,2.586,0,0,1,1.853-1.982l3.217-.861-2.818-10.508ZM660,338.448a8.912,8.912,0,1,1-.006-12.6,8.92,8.92,0,0,1,.006,12.6" transform="translate(160.436 79.04)" fill="#ebebeb"/>
            <path id="Trazado_796982" data-name="Trazado 796982" d="M382.152,183.256a2.591,2.591,0,0,1,.8-2.594q.3-.267.58-.551t.556-.585a2.584,2.584,0,0,1,2.585-.8l3.226.865,2.818-10.508-3.224-.866a2.586,2.586,0,0,1-1.851-1.985,14.959,14.959,0,0,0-.417-1.566,2.584,2.584,0,0,1,.615-2.634l2.356-2.356-7.7-7.694-2.356,2.355a2.584,2.584,0,0,1-2.634.615,14.957,14.957,0,0,0-1.566-.417,2.584,2.584,0,0,1-1.985-1.851l-.866-3.224-10.508,2.818.867,3.241a2.58,2.58,0,0,1-.8,2.58c-.2.178-.391.362-.581.553s-.373.382-.551.58a2.586,2.586,0,0,1-2.593.8l-3.228-.868-2.818,10.508,3.218.861a2.586,2.586,0,0,1,1.852,1.982,15.406,15.406,0,0,0,.42,1.573,2.583,2.583,0,0,1-.613,2.637l-2.356,2.355,7.7,7.7,2.355-2.355a2.582,2.582,0,0,1,2.638-.614,14.976,14.976,0,0,0,1.571.42,2.588,2.588,0,0,1,1.982,1.853l.861,3.217,10.508-2.818ZM366.5,175.685a8.912,8.912,0,1,1,12.6-.006,8.919,8.919,0,0,1-12.6.006" transform="translate(89.33 37.836)" fill="#ebebeb"/>
            <path id="Trazado_796984" data-name="Trazado 796984" d="M136.437,428.448c0,7.767-26.258,14.064-58.648,14.064s-58.65-6.3-58.65-14.064,26.258-14.064,58.65-14.064,58.648,6.3,58.648,14.064" transform="translate(4.845 104.9)" fill="#ebebeb"/>
            <path id="Trazado_796985" data-name="Trazado 796985" d="M0,401.342c329.944-.767,700.059-.773,1030,0-329.943.773-700.059.767-1030,0" transform="translate(0 101.452)" fill="#263238"/>
            <path id="Trazado_796992" data-name="Trazado 796992" d="M86.006,98.508l14.3-14.3,9.336,10.916L96.923,107.843Z" transform="translate(21.772 21.317)" fill="#727997"/>
            <g id="Grupo_1064541" data-name="Grupo 1064541" transform="translate(16.087 12.542)">
              <path id="Trazado_796986" data-name="Trazado 796986" d="M75.43,19.695A52.607,52.607,0,1,0,128.037,72.3,52.6,52.6,0,0,0,75.43,19.695m0,77.169A24.568,24.568,0,1,1,100,72.3,24.564,24.564,0,0,1,75.43,96.864" transform="translate(-10.31 -7.555)" fill="#59bee2"/>
              <path id="Trazado_796987" data-name="Trazado 796987" d="M76.961,24.328H56.73l1.119-14.321H75.842Z" transform="translate(-1.726 -10.007)" fill="#59bee2"/>
              <path id="Trazado_796988" data-name="Trazado 796988" d="M46.922,28.76l-14.3,14.3L23.282,32.149,36,19.426Z" transform="translate(-10.193 -7.624)" fill="#59bee2"/>
              <path id="Trazado_796989" data-name="Trazado 796989" d="M27.158,52.448V72.679L12.837,71.56V53.567Z" transform="translate(-12.837 0.737)" fill="#59bee2"/>
              <path id="Trazado_796990" data-name="Trazado 796990" d="M31.59,83.176l14.3,14.3-10.916,9.336L22.255,94.093Z" transform="translate(-10.454 8.515)" fill="#59bee2"/>
              <path id="Trazado_796991" data-name="Trazado 796991" d="M55.278,101.058H75.509L74.39,115.379H56.4Z" transform="translate(-2.094 13.041)" fill="#59bee2"/>
              <path id="Trazado_796993" data-name="Trazado 796993" d="M103.887,74.131V53.9l14.321,1.119V73.012Z" transform="translate(10.211 1.104)" fill="#59bee2"/>
              <path id="Trazado_796994" data-name="Trazado 796994" d="M101.338,44.093l-14.3-14.3,10.916-9.336,12.723,12.723Z" transform="translate(5.945 -7.363)" fill="#59bee2"/>
            </g>
            <path id="Trazado_796995" data-name="Trazado 796995" d="M113.372,21.5c-1.5,12.676-9.642,15-11.009,18.377a58.939,58.939,0,0,0-1.7,6.48l-13.244-.014a56.894,56.894,0,0,0-1.688-6.484c-1.352-3.382-9.5-5.721-10.964-18.4C73.8,13.131,80.075-.015,94.091,0s20.256,13.173,19.281,21.5" transform="translate(18.902 0.001)" fill="#ffc47a"/>
            <rect id="Rectángulo_373579" data-name="Rectángulo 373579" width="0.868" height="21.432" transform="matrix(0.983, -0.182, 0.182, 0.983, 105.353, 26.221)" fill="#fff"/>
            <rect id="Rectángulo_373580" data-name="Rectángulo 373580" width="21.431" height="0.867" transform="matrix(0.185, -0.983, 0.983, 0.185, 115.768, 47.139)" fill="#fff"/>
            <path id="Trazado_796996" data-name="Trazado 796996" d="M91.567,28.21h0c-1.243,0-2.315-1.11-3.073-2.5a1.6,1.6,0,0,1-1.128.59h0c-2.024,0-2.822-4.129-2.855-4.306l.426-.079c.207,1.1,1.045,3.95,2.429,3.951h0a1.315,1.315,0,0,0,.915-.569,9.335,9.335,0,0,1-.975-3.729c0-1.175.45-1.85,1.232-1.85h0a1.243,1.243,0,0,1,1.133.647c.625,1.084.162,3.223-.625,4.584a4.8,4.8,0,0,1-.264.409c.711,1.352,1.712,2.419,2.784,2.42h0c.972,0,1.827-.882,2.445-2.063A5.521,5.521,0,0,1,92.8,22.154c0-1.5.574-2.432,1.494-2.432h0c.748,0,1.177.736,1.175,2.016a9.85,9.85,0,0,1-.951,3.9,1.868,1.868,0,0,0,1.274.511c1.184,0,2.243-2.868,2.551-3.975l.419.117c-.123.44-1.247,4.292-2.97,4.292h0a2.25,2.25,0,0,1-1.467-.559c-.67,1.241-1.609,2.189-2.762,2.189M94.3,20.156c-.781,0-1.059,1.076-1.06,2a5.439,5.439,0,0,0,.976,3.145,9.172,9.172,0,0,0,.827-3.561C95.042,21.262,94.97,20.157,94.3,20.156Zm-5.761-.005c-.659,0-.8.771-.8,1.417a8.548,8.548,0,0,0,.823,3.341c.036-.058.073-.117.108-.179.716-1.234,1.148-3.243.625-4.149a.807.807,0,0,0-.757-.43Z" transform="translate(21.393 4.992)" fill="#fff"/>
            <rect id="Rectángulo_373581" data-name="Rectángulo 373581" width="16.342" height="3.194" transform="translate(104.773 45.786)" fill="#263238"/>
            <rect id="Rectángulo_373582" data-name="Rectángulo 373582" width="16.342" height="3.194" transform="translate(104.77 49.496)" fill="#263238"/>
            <rect id="Rectángulo_373583" data-name="Rectángulo 373583" width="16.342" height="3.194" transform="translate(104.766 53.206)" fill="#263238"/>
            <path id="Trazado_797021" data-name="Trazado 797021" d="M265.9,81.383,247.579,99.7,235.627,85.721,251.918,69.43Z" transform="translate(59.647 17.577)" fill="#727997"/>
            <g id="Grupo_1064542" data-name="Grupo 1064542" transform="translate(278.517 71.896)">
              <path id="Trazado_797019" data-name="Trazado 797019" d="M302.405,69.77a67.363,67.363,0,1,0,67.355,67.37,67.369,67.369,0,0,0-67.355-67.37m0,98.822a31.458,31.458,0,1,1,31.45-31.451,31.45,31.45,0,0,1-31.45,31.451" transform="translate(-219.019 -54.233)" fill="#59bee2"/>
              <path id="Trazado_797020" data-name="Trazado 797020" d="M304.359,75.708h-25.9l1.432-18.336h23.039Z" transform="translate(-208.028 -57.372)" fill="#59bee2"/>
              <path id="Trazado_797022" data-name="Trazado 797022" d="M240.59,111.713v25.9l-18.336-1.432V113.146Z" transform="translate(-222.254 -43.615)" fill="#59bee2"/>
              <path id="Trazado_797023" data-name="Trazado 797023" d="M246.265,151.057l18.317,18.316L250.6,181.327l-16.291-16.292Z" transform="translate(-219.202 -33.656)" fill="#59bee2"/>
              <path id="Trazado_797024" data-name="Trazado 797024" d="M276.6,173.953h25.9l-1.432,18.336H278.028Z" transform="translate(-208.498 -27.86)" fill="#59bee2"/>
              <path id="Trazado_797025" data-name="Trazado 797025" d="M315.939,170.689l18.317-18.317,11.953,13.979-16.291,16.291Z" transform="translate(-198.539 -33.323)" fill="#59bee2"/>
              <path id="Trazado_797026" data-name="Trazado 797026" d="M338.835,139.476v-25.9l18.336,1.432v23.039Z" transform="translate(-192.743 -43.145)" fill="#59bee2"/>
              <path id="Trazado_797027" data-name="Trazado 797027" d="M335.571,101.014,317.254,82.7l13.979-11.954,16.291,16.291Z" transform="translate(-198.205 -53.986)" fill="#59bee2"/>
            </g>
            <path id="Trazado_797028" data-name="Trazado 797028" d="M26.439,18.221,25.706,17.2c1.31-.942,2.093-1.4,2.127-1.424l.634,1.08c-.008,0-.772.455-2.028,1.361" transform="translate(6.507 3.996)" fill="#263238"/>
            <path id="Trazado_797029" data-name="Trazado 797029" d="M360.439,233.826c-1.7-.015-3.392-.071-5.039-.168l.075-1.251c1.624.094,3.3.15,4.975.165Zm5.038-.093-.063-1.252c1.674-.081,3.332-.221,4.931-.411l.148,1.246c-1.628.193-3.313.333-5.016.417m-15.1-.5c-1.679-.189-3.355-.426-4.985-.706l.212-1.236c1.607.276,3.259.51,4.914.694Zm25.084-.707-.244-1.228c1.637-.328,3.247-.722,4.787-1.175l.352,1.2c-1.574.462-3.221.867-4.895,1.2m-35.007-1.008c-1.643-.391-3.28-.838-4.861-1.328l.372-1.2c1.554.482,3.164.921,4.781,1.307Zm44.67-1.84-.469-1.163a48.515,48.515,0,0,0,4.466-2.06l.583,1.109a49.853,49.853,0,0,1-4.58,2.114m-54.289-1.152c-1.56-.608-3.118-1.281-4.629-2l.539-1.132c1.485.708,3.014,1.368,4.548,1.965Zm63.209-3.545-.7-1.041a47.462,47.462,0,0,0,3.95-2.952l.8.964a48.387,48.387,0,0,1-4.051,3.03m-72.308-.791c-1.451-.826-2.895-1.717-4.291-2.649l.694-1.043c1.372.916,2.792,1.792,4.214,2.6Zm-8.387-5.593c-1.311-1.009-2.62-2.086-3.895-3.2l.823-.942c1.256,1.1,2.546,2.159,3.835,3.153Zm88.467-.066-.891-.88c1.129-1.145,2.241-2.38,3.3-3.673l.967.8c-1.088,1.321-2.226,2.585-3.381,3.756m-96.053-6.56c-1.169-1.145-2.35-2.363-3.509-3.622l.919-.851c1.148,1.243,2.315,2.447,3.467,3.579Zm102.482-1.226-1.028-.717c.922-1.322,1.826-2.724,2.688-4.17l1.076.643c-.878,1.47-1.8,2.9-2.737,4.244m-109.334-6.18c-1.038-1.228-2.109-2.541-3.179-3.9l.984-.774c1.064,1.35,2.123,2.65,3.154,3.866Zm114.525-2.474-1.11-.578c.736-1.419,1.467-2.925,2.178-4.479l1.14.52c-.718,1.573-1.462,3.1-2.208,4.536m-120.755-5.429q-1.491-2.015-2.944-4.075l1.021-.723q1.449,2.049,2.93,4.053Zm124.956-3.737-1.16-.472c.6-1.489,1.208-3.056,1.793-4.66l1.177.43c-.589,1.618-1.2,3.2-1.81,4.7m-130.766-4.466q-1.41-2.068-2.808-4.163l1.043-.7q1.4,2.088,2.8,4.152Zm134.233-4.991-1.192-.395q.784-2.353,1.524-4.767l1.2.368q-.746,2.427-1.53,4.793m-139.818-3.351-2.776-4.192,1.045-.693,2.776,4.194Zm142.779-6.266-1.2-.346q.682-2.389,1.343-4.825l1.209.327q-.662,2.442-1.348,4.843m-148.346-2.1q-1.4-2.077-2.827-4.143l1.029-.713q1.434,2.07,2.836,4.155Zm150.981-7.6-1.216-.315q.63-2.415,1.243-4.86l1.214.306q-.617,2.449-1.242,4.868m-156.693-.635q-1.462-2.03-2.965-4.03l1-.754q1.515,2.009,2.982,4.053Zm-6.033-7.979c-1.061-1.326-2.132-2.62-3.184-3.848l.95-.816c1.061,1.238,2.144,2.544,3.214,3.881Zm165.179-1.125-1.216-.3,1.2-4.872,1.216.3ZM257.469,147.96c-1.145-1.236-2.315-2.442-3.471-3.586l.878-.891c1.172,1.155,2.355,2.376,3.514,3.625Zm174.1-3.281-1.216-.3q.607-2.43,1.226-4.867l1.216.31q-.622,2.432-1.226,4.862M69.441,141.65c-1.674-.03-3.375-.122-5.05-.273l.113-1.248c1.647.149,3.313.239,4.96.268Zm5.056-.093-.068-1.251c1.652-.091,3.313-.244,4.946-.456l.16,1.242c-1.662.217-3.357.372-5.039.465m175.874-.6c-1.246-1.114-2.52-2.2-3.79-3.219l.786-.977c1.286,1.036,2.58,2.135,3.838,3.263Zm-191-.219c-1.66-.271-3.327-.6-4.959-.99l.288-1.219c1.6.38,3.241.707,4.872.972Zm25.151-.489-.254-1.227c1.618-.336,3.239-.737,4.821-1.192l.347,1.2c-1.612.464-3.264.872-4.914,1.214M49.54,138.413c-1.61-.506-3.213-1.073-4.768-1.685l.46-1.167c1.526.6,3.1,1.159,4.684,1.657Zm44.706-.833-.368-1.2q2.4-.744,4.778-1.5l.38,1.194q-2.38.754-4.79,1.5m339.8-2.622-1.213-.32q.641-2.436,1.311-4.866l1.209.333q-.669,2.419-1.307,4.852m-191.423-.226c-1.345-.964-2.731-1.9-4.119-2.778l.67-1.059c1.41.892,2.816,1.84,4.178,2.82ZM40.138,134.7c-1.52-.731-3.026-1.523-4.475-2.356l.623-1.086c1.424.817,2.9,1.6,4.395,2.312Zm63.676-.153-.386-1.193q2.4-.773,4.769-1.546l.387,1.192q-2.374.773-4.771,1.548m9.538-3.1-.388-1.192,4.767-1.55.388,1.192ZM31.37,129.669c-1.395-.946-2.767-1.955-4.076-3l.782-.98c1.283,1.023,2.629,2.011,4,2.941Zm202.865-.247c-1.442-.8-2.927-1.561-4.416-2.273l.543-1.13c1.508.722,3.016,1.5,4.479,2.307Zm-111.347-1.056-.381-1.2q2.4-.765,4.787-1.505l.37,1.2q-2.38.737-4.776,1.5m9.565-2.964-.357-1.2q2.415-.722,4.822-1.4L137.26,124q-2.4.679-4.807,1.4m304.266-.115-1.206-.35q.7-2.419,1.447-4.816l1.2.371q-.739,2.385-1.437,4.795m-211.44-.148c-1.375-.563-2.792-1.1-4.213-1.6l-.44-.153.41-1.184.33.114c1.554.544,2.993,1.088,4.389,1.658Zm-201.82-1.769c-1.233-1.149-2.431-2.358-3.563-3.6l.925-.846c1.109,1.212,2.284,2.4,3.493,3.524Zm118.628-.69-.322-1.211q2.442-.647,4.873-1.239l.3,1.218q-2.419.588-4.847,1.232m73.794-.827c-1.6-.485-3.213-.94-4.8-1.351l.313-1.213c1.605.416,3.236.875,4.851,1.365Zm-64.074-1.53-.266-1.224q2.462-.538,4.929-1.005l.234,1.232q-2.449.462-4.9,1m54.423-.972c-1.618-.35-3.266-.667-4.895-.945l.211-1.236c1.648.282,3.312.6,4.949.955Zm-44.606-.881-.2-1.238c1.68-.266,3.357-.5,4.984-.7l.153,1.243c-1.612.2-3.276.432-4.941.7m34.78-.794c-1.65-.207-3.317-.38-4.959-.513l.1-1.249c1.66.135,3.348.31,5.013.519Zm-24.877-.422L171.417,116c1.683-.144,3.373-.258,5.024-.335l.058,1.252c-1.634.076-3.307.188-4.974.331m14.941-.385q-2.175-.081-4.328-.08l-.657,0-.006-1.253.663,0q2.179,0,4.375.081ZM16.631,115.9c-1.034-1.333-2.021-2.722-2.937-4.127l1.05-.684c.9,1.377,1.865,2.737,2.877,4.043Zm423.056-.173-1.19-.4q.8-2.393,1.647-4.754l1.18.425q-.848,2.346-1.637,4.727m-428.576-8.31c-.8-1.48-1.538-3.013-2.208-4.554l1.149-.5c.657,1.509,1.383,3.01,2.164,4.46Zm431.971-1.094-1.168-.457q.925-2.353,1.916-4.655l1.15.495q-.985,2.284-1.9,4.618m-436-8.181c-.538-1.583-1.02-3.216-1.431-4.855l1.216-.3c.4,1.605.875,3.206,1.4,4.757Zm439.955-.984-1.129-.538c.737-1.555,1.495-3.071,2.252-4.505l1.108.584c-.748,1.419-1.5,2.919-2.231,4.459m4.647-8.813-1.081-.634c.86-1.466,1.756-2.911,2.667-4.3l1.046.688c-.9,1.367-1.783,2.793-2.632,4.242M4.618,88.339c-.149-.9-.283-1.8-.4-2.714q-.145-1.158-.261-2.3L5.209,83.2q.111,1.124.254,2.268.167,1.342.39,2.662Zm452.539-8.313-1.009-.746c1-1.357,2.048-2.687,3.105-3.951l.962.8c-1.043,1.247-2.073,2.556-3.059,3.894M3.586,78.3c-.066-1.4-.1-2.821-.1-4.214l0-.833,1.252.01,0,.823c0,1.373.033,2.772.1,4.154Zm459.929-5.868-.907-.862c1.163-1.226,2.371-2.416,3.59-3.536l.85.922c-1.2,1.1-2.387,2.271-3.533,3.476M4.94,68.292,3.69,68.2c.118-1.683.291-3.373.513-5.025l1.242.167c-.218,1.625-.39,3.289-.505,4.947M470.8,65.722l-.783-.977c1.3-1.044,2.662-2.056,4.043-3.01l.711,1.03c-1.352.937-2.69,1.932-3.97,2.957m8.143-5.634L478.3,59.01c1.435-.852,2.924-1.669,4.427-2.429L483.3,57.7c-1.477.748-2.944,1.551-4.351,2.388M6.269,58.445,5.04,58.2c.335-1.653.731-3.307,1.174-4.916l1.208.332c-.435,1.583-.825,3.208-1.153,4.833m2.643-9.572L7.73,48.456c.559-1.583,1.184-3.165,1.858-4.7l1.147.5c-.659,1.511-1.273,3.066-1.823,4.62m3.977-9.1-1.108-.584c.783-1.487,1.629-2.962,2.519-4.387l1.063.664c-.873,1.4-1.7,2.847-2.474,4.307m5.256-8.422-1.011-.739c.99-1.356,2.043-2.694,3.13-3.975l.955.811c-1.068,1.258-2.1,2.571-3.074,3.9m6.427-7.571-.895-.878c1.2-1.216,2.437-2.382,3.689-3.47l.822.946c-1.228,1.066-2.445,2.211-3.617,3.4" transform="translate(0.882 4.921)" fill="#263238"/>
            <path id="Trazado_797030" data-name="Trazado 797030" d="M390.5,48.538l-.483-1.157q1.158-.483,2.35-.936l.446,1.17q-1.175.445-2.313.922" transform="translate(98.73 11.759)" fill="#263238"/>
            <path id="Trazado_797031" data-name="Trazado 797031" d="M39.934,18.274A10.214,10.214,0,1,1,29.719,8.06,10.215,10.215,0,0,1,39.934,18.274" transform="translate(4.938 2.042)" fill="#12263f"/>
            <path id="Trazado_797032" data-name="Trazado 797032" d="M182.709,101.444A10.214,10.214,0,1,1,172.494,91.23a10.214,10.214,0,0,1,10.214,10.214" transform="translate(41.08 23.096)" fill="#12263f"/>
            <path id="Trazado_797034" data-name="Trazado 797034" d="M301.428,193.7a10.214,10.214,0,1,1-10.214-10.214A10.215,10.215,0,0,1,301.428,193.7" transform="translate(71.133 46.45)" fill="#12263f"/>
            <path id="Trazado_797039" data-name="Trazado 797039" d="M696.832,282.266l17.181-17.181,15.438,18.86L715.691,297.7Z" transform="translate(176.399 67.106)" fill="#ffc727"/>
            <path id="Trazado_797040" data-name="Trazado 797040" d="M722.81,248.836l6.288-23.469,22.8,8.614-5.035,18.795Z" transform="translate(182.975 57.052)" fill="#ffc727"/>
            <path id="Trazado_797041" data-name="Trazado 797041" d="M729.228,206.592l-6.288-23.469,24.052-3.94,5.035,18.795Z" transform="translate(183.008 45.36)" fill="#ffc727"/>
            <path id="Trazado_797042" data-name="Trazado 797042" d="M714.367,167.8l-17.181-17.181,18.86-15.437,13.758,13.76Z" transform="translate(176.488 34.221)" fill="#ffc727"/>
            <g id="Grupo_1064209" data-name="Grupo 1064209" transform="translate(39.632 61.661)">
              <path id="Trazado_796997" data-name="Trazado 796997" d="M155.582,155.083a62.952,62.952,0,1,0,62.92,62.958,63.025,63.025,0,0,0-62.92-62.958m0,112.507a49.556,49.556,0,1,1,49.524-49.549,49.542,49.542,0,0,1-49.524,49.549m0-112.507a62.952,62.952,0,1,0,62.92,62.958,63.025,63.025,0,0,0-62.92-62.958m0,112.507a49.556,49.556,0,1,1,49.524-49.549,49.542,49.542,0,0,1-49.524,49.549m0-155.678A106.116,106.116,0,1,0,261.673,218.041,106.126,106.126,0,0,0,155.582,111.912m0,175.114a68.992,68.992,0,1,1,68.96-68.986,69.077,69.077,0,0,1-68.96,68.986m0-131.943a62.952,62.952,0,1,0,62.92,62.958,63.025,63.025,0,0,0-62.92-62.958m0,112.507a49.556,49.556,0,1,1,49.524-49.549,49.542,49.542,0,0,1-49.524,49.549" transform="translate(-27.113 -33.33)" fill="#74c67b"/>
              <path id="Trazado_796998" data-name="Trazado 796998" d="M148.977,118.349h-24.3L127.1,94.1h19.459Z" transform="translate(-8.07 -37.84)" fill="#74c67b"/>
              <path id="Trazado_796999" data-name="Trazado 796999" d="M107.44,123.616,86.4,135.764l-10.03-22.212,16.851-9.728Z" transform="translate(-20.3 -35.378)" fill="#74c67b"/>
              <path id="Trazado_797000" data-name="Trazado 797000" d="M73.542,148.438,61.394,169.479,41.6,155.259l9.729-16.851Z" transform="translate(-29.101 -26.623)" fill="#74c67b"/>
              <path id="Trazado_797001" data-name="Trazado 797001" d="M55.877,186.653v24.3L31.626,208.53V189.072Z" transform="translate(-31.626 -14.41)" fill="#74c67b"/>
              <path id="Trazado_797002" data-name="Trazado 797002" d="M61.143,229.559,73.291,250.6l-22.212,10.03-9.728-16.851Z" transform="translate(-29.164 -3.549)" fill="#74c67b"/>
              <path id="Trazado_797003" data-name="Trazado 797003" d="M85.965,263.633l21.042,12.148L92.786,295.574l-16.851-9.729Z" transform="translate(-20.409 5.077)" fill="#74c67b"/>
              <path id="Trazado_797004" data-name="Trazado 797004" d="M124.181,279.745h24.3L146.058,304H126.6Z" transform="translate(-8.196 9.155)" fill="#74c67b"/>
              <path id="Trazado_797005" data-name="Trazado 797005" d="M167.086,276.031l21.042-12.148,10.03,22.212-16.851,9.729Z" transform="translate(2.665 5.14)" fill="#74c67b"/>
              <path id="Trazado_797006" data-name="Trazado 797006" d="M201.16,251.034l12.148-21.042L233.1,244.213l-9.729,16.851Z" transform="translate(11.291 -3.439)" fill="#74c67b"/>
              <path id="Trazado_797007" data-name="Trazado 797007" d="M217.272,211.45v-24.3l24.251,2.419v19.459Z" transform="translate(15.369 -14.283)" fill="#74c67b"/>
              <path id="Trazado_797008" data-name="Trazado 797008" d="M213.559,169.913l-12.148-21.042,22.212-10.03,9.729,16.851Z" transform="translate(11.354 -26.513)" fill="#74c67b"/>
              <path id="Trazado_797009" data-name="Trazado 797009" d="M188.561,136.015,167.52,123.867l14.221-19.793,16.851,9.729Z" transform="translate(2.775 -35.315)" fill="#74c67b"/>
              <path id="Trazado_797010" data-name="Trazado 797010" d="M427.541,107.318a24,24,0,1,0-21.667,26.128,23.983,23.983,0,0,0,21.667-26.128m-21.93,23.208a21.081,21.081,0,1,1,19.023-22.933,21.075,21.075,0,0,1-19.023,22.933m21.93-23.208a24,24,0,1,0-21.667,26.128,23.983,23.983,0,0,0,21.667-26.128m-21.93,23.208a21.081,21.081,0,1,1,19.023-22.933,21.075,21.075,0,0,1-19.023,22.933m21.93-23.208a24,24,0,1,0-21.667,26.128,23.983,23.983,0,0,0,21.667-26.128m-21.93,23.208a21.081,21.081,0,1,1,19.023-22.933,21.075,21.075,0,0,1-19.023,22.933m48.409-25.664a50.593,50.593,0,1,0-45.677,55.063,50.6,50.6,0,0,0,45.677-55.063m-47.795,32.294a27.739,27.739,0,1,1,25.038-30.176,27.766,27.766,0,0,1-25.038,30.176m-4.787-51.517a24.006,24.006,0,1,0,26.1,21.679,24,24,0,0,0-26.1-21.679m4.173,44.888a21.081,21.081,0,1,1,19.023-22.933,21.075,21.075,0,0,1-19.023,22.933m21.93-23.208a24,24,0,1,0-21.667,26.128,23.983,23.983,0,0,0,21.667-26.128m-21.93,23.208a21.081,21.081,0,1,1,19.023-22.933,21.075,21.075,0,0,1-19.023,22.933m21.93-23.208a24,24,0,1,0-21.667,26.128,23.983,23.983,0,0,0,21.667-26.128m-21.93,23.208a21.081,21.081,0,1,1,19.023-22.933,21.075,21.075,0,0,1-19.023,22.933" transform="translate(49.74 -46.74)" fill="#74c67b"/>
              <path id="Trazado_797011" data-name="Trazado 797011" d="M401.529,62.817l-19.371,1.8-.2-13.811,17.23-1.6Z" transform="translate(57.057 -49.204)" fill="#74c67b"/>
              <path id="Trazado_797012" data-name="Trazado 797012" d="M373.147,69.619l-12.425,14.97-9.91-9.623,11.05-13.315Z" transform="translate(49.174 -46.053)" fill="#74c67b"/>
              <path id="Trazado_797013" data-name="Trazado 797013" d="M356.539,94.088l1.8,19.371-13.811.2-1.6-17.229Z" transform="translate(47.178 -37.842)" fill="#74c67b"/>
              <path id="Trazado_797014" data-name="Trazado 797014" d="M363.34,123.027l14.97,12.425-9.623,9.91-13.315-11.05Z" transform="translate(50.329 -30.517)" fill="#74c67b"/>
              <path id="Trazado_797015" data-name="Trazado 797015" d="M387.81,138.238l19.371-1.8.2,13.811-17.229,1.6Z" transform="translate(58.54 -27.122)" fill="#74c67b"/>
              <path id="Trazado_797016" data-name="Trazado 797016" d="M416.749,132.956l12.425-14.971,9.91,9.623-11.05,13.316Z" transform="translate(65.866 -31.793)" fill="#74c67b"/>
              <path id="Trazado_797017" data-name="Trazado 797017" d="M431.959,107.807l-1.8-19.371,13.811-.2,1.6,17.231Z" transform="translate(69.261 -39.325)" fill="#74c67b"/>
              <path id="Trazado_797018" data-name="Trazado 797018" d="M426.677,79.426,411.707,67l9.623-9.91,13.315,11.05Z" transform="translate(64.589 -47.208)" fill="#74c67b"/>
              <path id="Trazado_797035" data-name="Trazado 797035" d="M621.977,278.9a62.952,62.952,0,1,0,.026-89.01,63.025,63.025,0,0,0-.026,89.01m79.555-79.555a49.556,49.556,0,1,1-70.056.018,49.543,49.543,0,0,1,70.056-.018M621.977,278.9a62.952,62.952,0,1,0,.026-89.01,63.025,63.025,0,0,0-.026,89.01m79.555-79.555a49.556,49.556,0,1,1-70.056.018,49.543,49.543,0,0,1,70.056-.018M591.45,309.43a106.117,106.117,0,1,0,.026-150.063,106.127,106.127,0,0,0-.026,150.063M715.274,185.605a68.991,68.991,0,1,1-97.542.018,69.075,69.075,0,0,1,97.542-.018m-93.3,93.3a62.952,62.952,0,1,0,.026-89.01,63.025,63.025,0,0,0-.026,89.01m79.555-79.555a49.556,49.556,0,1,1-70.056.018,49.543,49.543,0,0,1,70.056-.018" transform="translate(102.227 -29.183)" fill="#74c67b"/>
              <path id="Trazado_797036" data-name="Trazado 797036" d="M582.363,264.732l17.181,17.181-18.86,15.438-13.758-13.76Z" transform="translate(103.882 5.355)" fill="#74c67b"/>
              <path id="Trazado_797037" data-name="Trazado 797037" d="M614.74,290.71,638.209,297,629.6,319.8,610.8,314.761Z" transform="translate(114.989 11.931)" fill="#74c67b"/>
              <path id="Trazado_797038" data-name="Trazado 797038" d="M656.985,297.128l23.469-6.288,3.94,24.052-18.8,5.035Z" transform="translate(126.68 11.964)" fill="#74c67b"/>
              <path id="Trazado_797043" data-name="Trazado 797043" d="M680.937,141.105l-23.469-6.288,8.614-22.8,18.795,5.035Z" transform="translate(126.802 -33.303)" fill="#74c67b"/>
              <path id="Trazado_797044" data-name="Trazado 797044" d="M638.693,134.687l-23.469,6.288-3.94-24.052,18.8-5.035Z" transform="translate(115.111 -33.336)" fill="#74c67b"/>
              <path id="Trazado_797045" data-name="Trazado 797045" d="M599.9,150.262l-17.181,17.181-15.437-18.86,13.76-13.758Z" transform="translate(103.971 -27.53)" fill="#74c67b"/>
              <path id="Trazado_797046" data-name="Trazado 797046" d="M573.206,182.64l-6.288,23.469-22.8-8.614,5.035-18.795Z" transform="translate(98.108 -16.423)" fill="#74c67b"/>
              <path id="Trazado_797047" data-name="Trazado 797047" d="M566.788,224.884l6.288,23.469-24.052,3.94-5.035-18.8Z" transform="translate(98.076 -4.732)" fill="#74c67b"/>
            </g>
            <g id="Grupo_1064543" data-name="Grupo 1064543" transform="translate(524.691 113.677)">
              <path id="Trazado_797048" data-name="Trazado 797048" d="M450.005,216.51a67.363,67.363,0,1,0,.01-95.265,67.367,67.367,0,0,0-.01,95.265m69.877-69.877a31.458,31.458,0,1,1-44.478,0,31.449,31.449,0,0,1,44.478,0" transform="translate(-415.768 -87.976)" fill="#59bee2"/>
              <path id="Trazado_797049" data-name="Trazado 797049" d="M442.711,184.4l18.316,18.316-13.978,11.954-16.291-16.291Z" transform="translate(-415.647 -66.996)" fill="#59bee2"/>
              <path id="Trazado_797050" data-name="Trazado 797050" d="M473.041,207.293h25.9l-1.432,18.336H474.473Z" transform="translate(-404.944 -61.2)" fill="#59bee2"/>
              <path id="Trazado_797051" data-name="Trazado 797051" d="M512.385,204.029,530.7,185.713l11.954,13.978-16.291,16.291Z" transform="translate(-394.983 -66.663)" fill="#59bee2"/>
              <path id="Trazado_797052" data-name="Trazado 797052" d="M535.281,172.817v-25.9l18.336,1.432v23.039Z" transform="translate(-389.188 -76.485)" fill="#59bee2"/>
              <path id="Trazado_797053" data-name="Trazado 797053" d="M532.017,134.355,513.7,116.038l13.979-11.952,16.291,16.291Z" transform="translate(-394.651 -87.327)" fill="#59bee2"/>
              <path id="Trazado_797054" data-name="Trazado 797054" d="M500.8,109.048H474.9l1.432-18.336h23.039Z" transform="translate(-404.472 -90.712)" fill="#59bee2"/>
              <path id="Trazado_797055" data-name="Trazado 797055" d="M462.342,114.723,444.025,133.04l-11.952-13.979,16.291-16.291Z" transform="translate(-415.314 -87.66)" fill="#59bee2"/>
              <path id="Trazado_797056" data-name="Trazado 797056" d="M437.035,145.054v25.9L418.7,169.525V146.486Z" transform="translate(-418.699 -76.956)" fill="#59bee2"/>
            </g>
            <path id="Trazado_797057" data-name="Trazado 797057" d="M595.389,415.794l-.2,1.237c-1.594-.258-2.474-.486-2.511-.5l.316-1.212c.009,0,.867.223,2.4.471" transform="translate(150.032 105.138)" fill="#263238"/>
            <path id="Trazado_797058" data-name="Trazado 797058" d="M548.492,111.955c1.189,1.212,2.348,2.45,3.444,3.682l-.936.832c-1.081-1.214-2.226-2.44-3.4-3.637Zm-3.627-3.5-.842.929c-1.241-1.125-2.511-2.2-3.776-3.2l.774-.985c1.287,1.014,2.58,2.108,3.843,3.252m10.318,11.028c1.054,1.32,2.073,2.673,3.028,4.025l-1.024.722c-.94-1.33-1.944-2.664-2.982-3.965Zm-18.236-17.238-.7,1.043c-1.389-.926-2.807-1.786-4.216-2.555l.6-1.1c1.44.787,2.891,1.667,4.31,2.613m24.04,25.465c.886,1.44,1.727,2.912,2.5,4.377l-1.109.583c-.758-1.44-1.584-2.887-2.456-4.3ZM528.1,97.429l-.491,1.153a48.136,48.136,0,0,0-4.615-1.7l.372-1.2a49.49,49.49,0,0,1,4.734,1.744m37.572,39.2c.673,1.533,1.3,3.11,1.858,4.689l-1.18.419c-.55-1.55-1.164-3.1-1.826-4.6Zm-47.2-42.188-.243,1.231a47.463,47.463,0,0,0-4.88-.706l.115-1.247a48.559,48.559,0,0,1,5.008.722m50.572,51.69c.441,1.609.831,3.259,1.16,4.907l-1.229.246c-.322-1.619-.706-3.241-1.139-4.821Zm1.975,9.885c.213,1.64.378,3.33.49,5.019l-1.249.084c-.112-1.665-.273-3.327-.482-4.941Zm-62.6-62.509.008,1.253c-1.607.011-3.266.1-4.932.259l-.12-1.247c1.7-.164,3.4-.254,5.045-.266M571.7,166.066c.015,1.635-.011,3.333-.08,5.043l-1.253-.05c.069-1.689.1-3.365.079-4.981Zm-73.334-71.6.221,1.233c-1.586.283-3.218.637-4.85,1.049l-.307-1.216c1.659-.419,3.32-.778,4.936-1.066m72.94,81.681c-.134,1.6-.306,3.288-.511,5.008l-1.243-.148c.2-1.706.372-3.376.505-4.962Zm-82.73-79.231.377,1.194c-1.523.482-3.107,1.03-4.708,1.627l-.439-1.174c1.62-.6,3.226-1.158,4.77-1.647m81.547,89.225q-.368,2.479-.8,4.964l-1.234-.212q.425-2.472.795-4.936Zm-91-85.714.486,1.154c-1.48.625-3.015,1.307-4.563,2.028l-.529-1.137c1.561-.727,3.11-1.415,4.605-2.045m89.306,95.622q-.463,2.461-.957,4.93l-1.229-.246q.491-2.462.956-4.916Zm-98.446-91.387.563,1.12q-2.218,1.109-4.449,2.293l-.585-1.107q2.242-1.19,4.471-2.307m96.5,101.235-1,4.927-1.228-.249,1-4.929Zm-1.98,9.852q-.478,2.459-.93,4.929l-1.233-.224q.451-2.477.934-4.944Zm-1.786,9.863q-.4,2.468-.753,4.947l-1.241-.174q.35-2.493.757-4.975Zm-1.377,9.907c-.187,1.688-.345,3.361-.469,4.974l-1.249-.1c.125-1.627.284-3.313.472-5.015Zm-.756,9.96c-.063,1.683-.089,3.363-.079,4.991l-1.253.009c-.011-1.647.016-3.345.08-5.048Zm.073,9.968c.091,1.667.227,3.335.4,4.956l-1.246.135c-.178-1.644-.315-3.335-.409-5.023Zm1.073,9.882c.268,1.632.586,3.273.947,4.877l-1.223.274c-.366-1.628-.689-3.292-.961-4.949Zm2.178,9.688c.456,1.583.965,3.174,1.514,4.728l-1.182.417c-.556-1.576-1.074-3.192-1.536-4.8Zm3.3,9.361c.575,1.371,1.2,2.753,1.851,4.107l.2.419-1.128.548-.152-.312c-.714-1.484-1.347-2.885-1.93-4.274Zm4.321,8.97c.787,1.472,1.608,2.936,2.44,4.35l-1.08.635c-.84-1.429-1.669-2.906-2.465-4.394Z" transform="translate(117.842 23.672)" fill="#263238"/>
            <path id="Trazado_797059" data-name="Trazado 797059" d="M391.893,46.449a5.831,5.831,0,0,1,2.442.459" transform="translate(99.205 11.753)" fill="none" stroke="#263238" stroke-miterlimit="10" stroke-width="1"/>
            <path id="Trazado_797060" data-name="Trazado 797060" d="M397.615,48.4c11.476,5.627,33.454,21.2,44.722,50.321,11.2,28.943,31.557,24.083,40.567,20.159" transform="translate(100.654 12.253)" fill="none" stroke="#263238" stroke-miterlimit="10" stroke-width="1" stroke-dasharray="4.1 4.1"/>
            <path id="Trazado_797061" data-name="Trazado 797061" d="M467.53,104.009c1.385-.717,2.173-1.238,2.173-1.238" transform="translate(118.352 26.017)" fill="none" stroke="#263238" stroke-miterlimit="10" stroke-width="1"/>
            <path id="Trazado_797062" data-name="Trazado 797062" d="M545.5,250.88a10.214,10.214,0,1,1,0,14.445,10.214,10.214,0,0,1,0-14.445" transform="translate(137.332 62.753)" fill="#12263f"/>
            <path id="Trazado_797063" data-name="Trazado 797063" d="M526.784,101.7a10.214,10.214,0,1,1,0,14.445,10.214,10.214,0,0,1,0-14.445" transform="translate(132.595 24.988)" fill="#12263f"/>
            <path id="Trazado_797064" data-name="Trazado 797064" d="M781.355,383.976l.635,22.78s23.367,7.005,23.895,11.2l-44.124,2.817-2.446-35.452Z" transform="translate(192.216 97.202)" fill="#727997"/>
            <path id="Trazado_797065" data-name="Trazado 797065" d="M766.662,401.344a1.806,1.806,0,0,0-1.115,2.135,1.737,1.737,0,0,0,2.108,1.124,1.9,1.9,0,0,0,1.169-2.268,1.8,1.8,0,0,0-2.322-.926" transform="translate(193.777 101.573)" fill="#e0e0e0"/>
            <g id="Grupo_1064182" data-name="Grupo 1064182" transform="translate(953.87 513.034)" opacity="0.6">
              <g id="Grupo_1064181" data-name="Grupo 1064181">
                <g id="Grupo_1064180" data-name="Grupo 1064180" clip-path="url(#clip-path)">
                  <path id="Trazado_797066" data-name="Trazado 797066" d="M761.288,414.341l-.107-3.583,42.345-1.362s2.019.729,1.886,2.127Z" transform="translate(-761.182 -409.396)" fill="#fff"/>
                </g>
              </g>
            </g>
            <path id="Trazado_797067" data-name="Trazado 797067" d="M778.751,401.97c.006.216-1.064.382-2.08,1.143-1.036.734-1.523,1.7-1.727,1.629-.2-.029.038-1.337,1.284-2.237s2.556-.736,2.523-.535" transform="translate(196.156 101.717)" fill="#263238"/>
            <path id="Trazado_797068" data-name="Trazado 797068" d="M782.314,403.245c.063.206-.847.632-1.521,1.59-.7.937-.822,1.935-1.038,1.939-.2.048-.43-1.206.43-2.38s2.112-1.355,2.129-1.149" transform="translate(197.343 102.061)" fill="#263238"/>
            <path id="Trazado_797069" data-name="Trazado 797069" d="M784.2,408.288c-.193.059-.561-1-.084-2.214s1.456-1.749,1.559-1.575c.133.169-.481.845-.858,1.848-.4.994-.4,1.906-.616,1.941" transform="translate(198.436 102.389)" fill="#263238"/>
            <path id="Trazado_797070" data-name="Trazado 797070" d="M778.318,397.939c-.078.2-1.085-.033-2.3.128-1.217.137-2.138.605-2.262.429-.135-.148.739-1.005,2.17-1.174s2.484.441,2.388.618" transform="translate(195.869 100.573)" fill="#263238"/>
            <path id="Trazado_797071" data-name="Trazado 797071" d="M778.613,394.791a4.147,4.147,0,0,1-2.211.13,10.069,10.069,0,0,1-2.357-.563,10.553,10.553,0,0,1-1.312-.593,2.723,2.723,0,0,1-.7-.477.939.939,0,0,1-.172-1.139,1.189,1.189,0,0,1,.912-.554,2.9,2.9,0,0,1,.836.061,8,8,0,0,1,1.4.385,7.818,7.818,0,0,1,2.124,1.207c1.084.882,1.485,1.665,1.414,1.712-.093.078-.634-.565-1.726-1.282a8.863,8.863,0,0,0-2.043-.984,8.14,8.14,0,0,0-1.293-.311c-.475-.093-.873-.07-.98.145-.038.081-.041.114.064.244a2.256,2.256,0,0,0,.515.347,11.427,11.427,0,0,0,1.211.593,12.286,12.286,0,0,0,2.188.683,15.346,15.346,0,0,1,2.127.395" transform="translate(195.36 99.129)" fill="#263238"/>
            <path id="Trazado_797072" data-name="Trazado 797072" d="M777.17,395.843a3.524,3.524,0,0,1-.721-2.1,7.2,7.2,0,0,1,.624-3.817,1.829,1.829,0,0,1,1.338-1.206,1.033,1.033,0,0,1,.962.558,2.944,2.944,0,0,1,.278.8,4.88,4.88,0,0,1,.1,1.487,5.073,5.073,0,0,1-.8,2.343c-.789,1.2-1.672,1.514-1.7,1.441-.078-.1.648-.566,1.235-1.708a5.1,5.1,0,0,0,.567-2.122,4.565,4.565,0,0,0-.122-1.274c-.1-.464-.3-.831-.472-.772-.219.01-.569.387-.727.773a7.316,7.316,0,0,0-.47,1.233,7.923,7.923,0,0,0-.287,2.232c.021,1.3.3,2.092.189,2.132" transform="translate(196.542 98.403)" fill="#263238"/>
            <path id="Trazado_797073" data-name="Trazado 797073" d="M704.739,383.182l-2.658,29.267L693.3,434.992a3.011,3.011,0,0,0,4.623,3.493c4.944-3.766,23.057-17.708,23.132-19.861.085-2.492,4.853-30.686,4.853-30.686Z" transform="translate(175.453 97.001)" fill="#727997"/>
            <g id="Grupo_1064185" data-name="Grupo 1064185" transform="translate(870.663 513.655)" opacity="0.6">
              <g id="Grupo_1064184" data-name="Grupo 1064184">
                <g id="Grupo_1064183" data-name="Grupo 1064183" clip-path="url(#clip-path-2)">
                  <path id="Trazado_797074" data-name="Trazado 797074" d="M694.783,432.2l26.072-22.3-.14,1.237a4.539,4.539,0,0,1-1.4,2.8c-2.1,1.967-8.026,7.273-21.726,17.807a3.009,3.009,0,0,1-2.8.461" transform="translate(-694.783 -409.892)" fill="#fff"/>
                </g>
              </g>
            </g>
            <g id="Grupo_1064188" data-name="Grupo 1064188" transform="translate(890.894 503.357)" opacity="0.6">
              <g id="Grupo_1064187" data-name="Grupo 1064187">
                <g id="Grupo_1064186" data-name="Grupo 1064186" clip-path="url(#clip-path-3)">
                  <path id="Trazado_797075" data-name="Trazado 797075" d="M711.848,401.871a1.821,1.821,0,0,0-.764,2.307,1.752,1.752,0,0,0,2.281.778,1.921,1.921,0,0,0,.8-2.447,1.818,1.818,0,0,0-2.462-.546" transform="translate(-710.927 -401.674)" fill="#fff"/>
                </g>
              </g>
            </g>
            <path id="Trazado_797076" data-name="Trazado 797076" d="M702.4,418.9c-.174.061-.659-1.543-2.3-2.563-1.612-1.069-3.272-.842-3.288-1.026-.016-.074.379-.259,1.073-.278a4.8,4.8,0,0,1,4.323,2.776c.273.639.269,1.076.194,1.091" transform="translate(176.392 105.063)" fill="#263238"/>
            <path id="Trazado_797077" data-name="Trazado 797077" d="M700.315,421.56c-.153.11-.982-.946-2.444-1.55-1.447-.638-2.783-.505-2.81-.693-.066-.158,1.409-.618,3.064.1,1.66.7,2.35,2.083,2.189,2.144" transform="translate(175.95 106.075)" fill="#263238"/>
            <path id="Trazado_797078" data-name="Trazado 797078" d="M706.394,415.33c-.153.123-1.42-1.508-3.609-2.647-2.172-1.174-4.232-1.308-4.216-1.5-.03-.16,2.185-.32,4.518.934,2.345,1.228,3.457,3.15,3.307,3.217" transform="translate(176.838 104.062)" fill="#263238"/>
            <path id="Trazado_797079" data-name="Trazado 797079" d="M707.583,407.778c-.1.165-1.634-.692-3.724-1.006-2.086-.345-3.812,0-3.853-.189-.065-.152,1.711-.813,3.954-.449,2.246.343,3.732,1.519,3.624,1.644" transform="translate(177.201 102.784)" fill="#263238"/>
            <path id="Trazado_797080" data-name="Trazado 797080" d="M708.431,400.951c-.109.158-1.62-1-3.85-1.15-2.224-.2-3.9.7-3.982.53-.04-.066.321-.4,1.038-.708a6.561,6.561,0,0,1,5.882.465c.659.421.964.8.912.863" transform="translate(177.351 101.04)" fill="#263238"/>
            <path id="Trazado_797081" data-name="Trazado 797081" d="M704.818,399.463a2.518,2.518,0,0,1,.086-1.109,7.707,7.707,0,0,1,1.207-2.792,3.424,3.424,0,0,1,1.644-1.459,1.21,1.21,0,0,1,1.325.422,1.97,1.97,0,0,1,.312,1.371,4.257,4.257,0,0,1-4.152,3.49,4.936,4.936,0,0,1-4.526-3.115,1.713,1.713,0,0,1,.081-1.425,1.187,1.187,0,0,1,1.306-.484,4.223,4.223,0,0,1,1.81,1.219,8.651,8.651,0,0,1,1.734,2.5,2.637,2.637,0,0,1,.333,1.06,13.713,13.713,0,0,0-2.385-3.227,3.933,3.933,0,0,0-1.6-1.025.634.634,0,0,0-.713.259,1.175,1.175,0,0,0,0,.94,4.407,4.407,0,0,0,3.955,2.655,3.694,3.694,0,0,0,3.566-2.912,1.427,1.427,0,0,0-.177-.966.656.656,0,0,0-.728-.243,3.1,3.1,0,0,0-1.415,1.209,11.431,11.431,0,0,0-1.663,3.634" transform="translate(177.352 99.752)" fill="#263238"/>
            <path id="Trazado_797082" data-name="Trazado 797082" d="M697.422,216.314,695.68,444.557l32.1,2.05,6.758-190.658L773,445.532l29.174-3.073L771.147,216.277Z" transform="translate(176.107 54.75)" fill="#12263f"/>
            <path id="Trazado_797083" data-name="Trazado 797083" d="M732.639,68.433a19.451,19.451,0,0,0-20.932,18.213c-.544,9.034-1.038,18.806-.977,23.728.13,10.566,10.7,12.209,10.7,12.209s-.258,3.13-.55,7.015a13.915,13.915,0,1,0,27.777,1.673l1.912-42.567a19.457,19.457,0,0,0-17.927-20.272" transform="translate(179.915 17.31)" fill="#b78876"/>
            <path id="Trazado_797084" data-name="Trazado 797084" d="M719.256,112.3a24.576,24.576,0,0,0,13.775-3.915s-3.256,7.6-13.8,6.652Z" transform="translate(182.069 27.439)" fill="#aa6550"/>
            <path id="Trazado_797085" data-name="Trazado 797085" d="M741.823,87.561c.18-.078,7.259-2.148,7.029,5.076s-7.435,5.5-7.441,5.293.412-10.37.412-10.37" transform="translate(187.683 22.083)" fill="#b78876"/>
            <path id="Trazado_797086" data-name="Trazado 797086" d="M743.243,94.788c.033-.023.123.091.332.2a1.258,1.258,0,0,0,.94.049,3.114,3.114,0,0,0,1.53-2.747,4.136,4.136,0,0,0-.295-1.813,1.452,1.452,0,0,0-.915-1,.642.642,0,0,0-.754.321c-.1.2-.061.345-.1.356-.021.018-.152-.125-.084-.422a.8.8,0,0,1,.3-.444.949.949,0,0,1,.7-.162,1.771,1.771,0,0,1,1.278,1.162,4.285,4.285,0,0,1,.372,2.028c-.093,1.454-.882,2.792-1.936,3.061a1.354,1.354,0,0,1-1.144-.228c-.218-.185-.251-.348-.226-.361" transform="translate(188.146 22.56)" fill="#aa6550"/>
            <path id="Trazado_797087" data-name="Trazado 797087" d="M713.648,88.593a1.508,1.508,0,0,0,1.455,1.523,1.444,1.444,0,0,0,1.555-1.361A1.509,1.509,0,0,0,715.2,87.23a1.445,1.445,0,0,0-1.556,1.362" transform="translate(180.655 22.083)" fill="#263238"/>
            <path id="Trazado_797088" data-name="Trazado 797088" d="M713.686,86.279c.187.2,1.33-.649,2.954-.645,1.623-.019,2.813.816,2.99.618.086-.088-.1-.444-.623-.821a4.139,4.139,0,0,0-2.393-.738,3.981,3.981,0,0,0-2.351.759c-.5.382-.669.738-.576.827" transform="translate(180.659 21.441)" fill="#263238"/>
            <path id="Trazado_797089" data-name="Trazado 797089" d="M726.385,88.592a1.51,1.51,0,0,0,1.455,1.523,1.444,1.444,0,0,0,1.555-1.361,1.507,1.507,0,0,0-1.454-1.523,1.444,1.444,0,0,0-1.556,1.361" transform="translate(183.88 22.083)" fill="#263238"/>
            <path id="Trazado_797090" data-name="Trazado 797090" d="M726.422,86.52c.187.2,1.332-.649,2.954-.644,1.623-.02,2.815.816,2.99.617.087-.088-.1-.442-.623-.821a4.145,4.145,0,0,0-2.394-.738,3.983,3.983,0,0,0-2.351.759c-.5.383-.668.739-.577.827" transform="translate(183.883 21.502)" fill="#263238"/>
            <path id="Trazado_797091" data-name="Trazado 797091" d="M722.551,98.542a10.714,10.714,0,0,0-2.638-.476c-.414-.043-.807-.125-.876-.407a2.106,2.106,0,0,1,.277-1.229q.585-1.506,1.226-3.157c1.7-4.5,2.935-8.192,2.754-8.259s-1.709,3.523-3.412,8.018c-.41,1.109-.8,2.165-1.175,3.177a2.4,2.4,0,0,0-.214,1.627,1.041,1.041,0,0,0,.682.607,2.8,2.8,0,0,0,.7.1,10.52,10.52,0,0,0,2.673,0" transform="translate(181.862 21.522)" fill="#263238"/>
            <path id="Trazado_797092" data-name="Trazado 797092" d="M726.573,96.706c-.264-.015-.268,1.747-1.776,3s-3.385,1.058-3.4,1.3c-.025.11.419.342,1.212.363a4.387,4.387,0,0,0,2.836-.989,3.818,3.818,0,0,0,1.376-2.514c.068-.737-.129-1.173-.249-1.163" transform="translate(182.617 24.482)" fill="#263238"/>
            <path id="Trazado_797093" data-name="Trazado 797093" d="M726.085,81.369c.16.441,1.782.232,3.687.461,1.91.192,3.446.749,3.7.353.113-.189-.155-.6-.776-1.033a6.466,6.466,0,0,0-5.627-.62c-.7.282-1.051.629-.982.838" transform="translate(183.802 20.291)" fill="#263238"/>
            <path id="Trazado_797094" data-name="Trazado 797094" d="M714.165,82.549c.286.368,1.4-.014,2.749-.031,1.345-.066,2.484.247,2.746-.139.115-.187-.064-.556-.563-.906a3.979,3.979,0,0,0-4.427.138c-.475.378-.632.758-.505.939" transform="translate(180.776 20.472)" fill="#263238"/>
            <path id="Trazado_797095" data-name="Trazado 797095" d="M748.691,92.107a12.277,12.277,0,0,1-.179,3.467,3.785,3.785,0,0,1-1.845,2.638c-1.815.9-4.093-.482-4.9-2.341s-.588-3.981-.4-6a29.264,29.264,0,0,0-.124-8.267,11.863,11.863,0,0,0-3.969-7.089,7.522,7.522,0,0,0-7.781-1.123c-1.533.753-2.684,2.1-4.114,3.033a6.337,6.337,0,0,1-4.366,1.1,4.1,4.1,0,0,1-3.346-2.788,4.465,4.465,0,0,1,1.7-4.432,10.212,10.212,0,0,1,4.617-1.848,24.756,24.756,0,0,1,13.708,1.068,17.884,17.884,0,0,1,9.949,9.256c2.1,4.944,1.827,7.962,1.219,13.328" transform="translate(181.642 17.205)" fill="#12263f"/>
            <path id="Trazado_797096" data-name="Trazado 797096" d="M625.23,131.383l15.407,3.1,21.192,13.5L654.6,161.742s-7.451-2.079-9.627-4a8.82,8.82,0,0,0-4.584-2.138s.147,3.4-2.434,2.816-6.885-1.32-6.153-4.95a2.807,2.807,0,0,1-1.812-3.063s-2.127-.159-1.55-3.686,3.123-8.077,10.15-6.8c.365.074.847-.623.211-.862L627.939,136.5s-6.8-2.688-2.709-5.117" transform="translate(157.941 33.26)" fill="#b78876"/>
            <path id="Trazado_797097" data-name="Trazado 797097" d="M631.658,143.493a10.812,10.812,0,0,1,2.58.629,22.7,22.7,0,0,1,2.764.937,2.346,2.346,0,0,1,1.248,1.429,1.909,1.909,0,0,1-.738,1.932,4.572,4.572,0,0,1-3.633.476,22.933,22.933,0,0,1-2.838-.584,7.212,7.212,0,0,1-2.474-1,21.536,21.536,0,0,1,2.581.551c.793.163,1.744.313,2.809.436a9.963,9.963,0,0,0,1.632.115,2.7,2.7,0,0,0,1.511-.5,1.281,1.281,0,0,0,.529-1.269,1.78,1.78,0,0,0-.915-1.056c-.887-.446-1.883-.721-2.625-1.029a10.8,10.8,0,0,1-2.432-1.065" transform="translate(159.118 36.321)" fill="#aa6550"/>
            <path id="Trazado_797098" data-name="Trazado 797098" d="M634.725,141.945c-.019.185-.942.208-1.842.794-.917.558-1.335,1.38-1.511,1.317-.177-.02.035-1.167,1.164-1.87s2.248-.412,2.189-.242" transform="translate(159.814 35.88)" fill="#aa6550"/>
            <path id="Trazado_797099" data-name="Trazado 797099" d="M636.629,147.292c.029-.028.163.018.356.208.236.2.279.664.333,1.049a2.055,2.055,0,0,1-.442,1.645,2.122,2.122,0,0,1-2,.585,22.486,22.486,0,0,1-3.376-.68c-.85-.276-1.32-.579-1.287-.657s.556.058,1.4.209,2.038.282,3.343.48a1.6,1.6,0,0,0,1.471-.338,1.7,1.7,0,0,0,.432-1.2c-.008-.476.038-.754-.081-.942-.1-.2-.186-.322-.149-.356" transform="translate(159.534 37.286)" fill="#aa6550"/>
            <path id="Trazado_797100" data-name="Trazado 797100" d="M635.239,149.58c-.013-.079.281-.214.751-.08a2.768,2.768,0,0,1,1.381,1.1,2.01,2.01,0,0,1,.164,1.813c-.154.422-.337.632-.417.6s-.06-.3-.034-.7a2.113,2.113,0,0,0-.246-1.341,3.931,3.931,0,0,0-1.031-1.054c-.31-.2-.563-.246-.568-.343" transform="translate(160.807 37.832)" fill="#aa6550"/>
            <path id="Trazado_797101" data-name="Trazado 797101" d="M647.781,143.253l-7.44-.308-7.81,1.524s-.643,1.419,2.972,2.385a17.411,17.411,0,0,0,6.96.331s3.222,4.7,7.41,5.78" transform="translate(160.11 36.187)" fill="#b78876"/>
            <path id="Trazado_797102" data-name="Trazado 797102" d="M649.939,153.017a2.043,2.043,0,0,1-.689-.123,8.791,8.791,0,0,1-1.813-.776,16.981,16.981,0,0,1-5.144-4.718l.291.119a16.314,16.314,0,0,1-8.559-.8,4.16,4.16,0,0,1-1.234-.779,1.475,1.475,0,0,1-.487-1.548l.05-.149.182-.035,7.821-1.465.033-.006.029,0c2.261.123,4.119.238,5.412.337a10.151,10.151,0,0,1,2.018.233,10.152,10.152,0,0,1-2.03.066c-1.3-.009-3.158-.046-5.421-.11l.06-.005-7.8,1.581.232-.184a.919.919,0,0,0,.353.815,3.576,3.576,0,0,0,1.048.652,16.375,16.375,0,0,0,8.184.835l.187-.026.1.145a18.162,18.162,0,0,0,4.843,4.752,24.539,24.539,0,0,0,2.33,1.19" transform="translate(160.046 36.133)" fill="#aa6550"/>
            <path id="Trazado_797103" data-name="Trazado 797103" d="M637.828,140.228c-.1.147-.812-.178-1.351-.944s-.613-1.545-.442-1.586.5.55.975,1.209.926,1.17.818,1.321" transform="translate(160.987 34.858)" fill="#aa6550"/>
            <path id="Trazado_797104" data-name="Trazado 797104" d="M702.6,243.444c12.793,5.524,27.761,7.168,44.655,5.377l12.374-126.014-8.772-6.736L730.635,131.1l-6.926-14.479-16.228,23.316Z" transform="translate(177.858 29.384)" fill="#f5f5f5"/>
            <path id="Trazado_797105" data-name="Trazado 797105" d="M719.79,246.478a1.042,1.042,0,0,1-.07-.3c-.038-.238-.083-.53-.14-.888q-.175-1.259-.477-3.436c-.126-1.5-.22-3.338-.356-5.472-.109-2.135-.1-4.569-.163-7.259-.075-10.762.644-25.612,1.842-41.973S723.108,156,724.3,145.312c.593-5.343,1.135-9.66,1.545-12.639.2-1.491.386-2.644.514-3.425.063-.358.114-.649.155-.887a1.106,1.106,0,0,1,.075-.3,1.118,1.118,0,0,1-.009.31c-.025.239-.055.534-.091.9q-.143,1.258-.391,3.437c-.322,3.045-.778,7.355-1.34,12.657-1.075,10.694-2.484,25.478-3.684,41.837s-1.989,31.182-2.031,41.924c.03,2.684-.009,5.115.066,7.246.094,2.115.177,3.946.244,5.465q.224,2.177.355,3.437c.031.362.056.657.076.9a1.077,1.077,0,0,1,0,.31" transform="translate(181.903 32.419)" fill="#263238"/>
            <g id="Grupo_1064191" data-name="Grupo 1064191" transform="translate(915.356 254.843)" opacity="0.3">
              <g id="Grupo_1064190" data-name="Grupo 1064190">
                <g id="Grupo_1064189" data-name="Grupo 1064189" clip-path="url(#clip-path-4)">
                  <path id="Trazado_797107" data-name="Trazado 797107" d="M731.374,217.46c7.659-1.6,4.352,2.848,12.094,1.721,4.184-.609,4.4-3.055,7.84-5.508s8.663-4.5,12.89-4.411l-1.717-5.9-32.033,1.192Z" transform="translate(-730.448 -203.362)"/>
                </g>
              </g>
            </g>
            <g id="Grupo_1064210" data-name="Grupo 1064210" transform="translate(811.592 145.456)">
              <path id="Trazado_797106" data-name="Trazado 797106" d="M734.233,268.077s-9.422-98.506-3.577-109.51c4.525-8.519,11.524-26.312,14.454-33.913a9.154,9.154,0,0,0-.18-7.024l-.7-1.559,8.773,6.736,18.01,9.681-10.871,83.454,12.312,42.339Z" transform="translate(-627.115 -116.072)" fill="#ffc47a"/>
              <path id="Trazado_797108" data-name="Trazado 797108" d="M696.616,136.956l3.12,78.692-6.315,44.046,15.777,5.831,6.9-121.709a32.771,32.771,0,0,1,2.977-13.1l6.182-13.489-20.934,7.13Z" transform="translate(-636.057 -115.779)" fill="#ffc47a"/>
              <path id="Trazado_797109" data-name="Trazado 797109" d="M769.358,129.172s9.881,8.553,12.105,20.037c1.622,8.381,6.39,37.787,7.717,52.888a17.822,17.822,0,0,1-15.08,19.224c-.142.02-.283.041-.426.06-14.329,1.955-38.38-.748-38.38-.748l4.194-18.3s21.275-3.071,25.1-5.642l-5.073-33.944s4.165-32.6,9.847-33.575" transform="translate(-625.457 -112.756)" fill="#ffc47a"/>
              <path id="Trazado_797110" data-name="Trazado 797110" d="M657.209,147.931,692.043,170s12.546-36.861,20.609-45.528l9.7-3.3-8.85,70.73a14.376,14.376,0,0,1-23.238,8.806l-42.622-34.565Z" transform="translate(-647.645 -114.782)" fill="#ffc47a"/>
            </g>
            <path id="Trazado_797111" data-name="Trazado 797111" d="M765.075,194.545a15.006,15.006,0,0,1-.212-2.053,12.517,12.517,0,0,0-4.723-8.272c-.993-.771-1.706-1.127-1.66-1.226a4.353,4.353,0,0,1,1.929.85,11.044,11.044,0,0,1,4.915,8.608,4.383,4.383,0,0,1-.248,2.093" transform="translate(192.004 46.322)" fill="#263238"/>
            <path id="Trazado_797112" data-name="Trazado 797112" d="M761.335,197.022c-.208-.033.741-3.356-.093-7.4-.772-4.054-2.917-6.763-2.737-6.872a5.385,5.385,0,0,1,1.414,1.726,15.295,15.295,0,0,1,2.064,10.409,5.4,5.4,0,0,1-.648,2.134" transform="translate(192.008 46.264)" fill="#263238"/>
            <path id="Trazado_797113" data-name="Trazado 797113" d="M762.424,131.922a27.47,27.47,0,0,0-3.8,3.781,24.3,24.3,0,0,0-4.648,11.881,50.157,50.157,0,0,0,.46,12.944c.234,1.544.431,2.852.591,3.914a6.149,6.149,0,0,1,.152,1.45,6.344,6.344,0,0,1-.4-1.4c-.214-.912-.5-2.238-.8-3.889a44.929,44.929,0,0,1-.651-13.1,23.439,23.439,0,0,1,4.935-12.092,15.633,15.633,0,0,1,2.906-2.741,5.078,5.078,0,0,1,1.257-.751" transform="translate(190.64 33.396)" fill="#263238"/>
            <g id="Grupo_1064194" data-name="Grupo 1064194" transform="translate(950.986 229.101)" opacity="0.3">
              <g id="Grupo_1064193" data-name="Grupo 1064193">
                <g id="Grupo_1064192" data-name="Grupo 1064192" clip-path="url(#clip-path-5)">
                  <path id="Trazado_797114" data-name="Trazado 797114" d="M758.88,182.82a11.567,11.567,0,0,1,2.543,7.024,21.624,21.624,0,0,1-1.213,7.471,1.63,1.63,0,0,0-.034,1.363,1.091,1.091,0,0,0,1.585.054,3.156,3.156,0,0,0,.786-1.593c-.3.338.135.915.588.885a1.482,1.482,0,0,0,1.039-.793,8.205,8.205,0,0,0,.295-7.456,21.189,21.189,0,0,0-4.511-6.257" transform="translate(-758.88 -182.82)"/>
                </g>
              </g>
            </g>
            <path id="Trazado_797115" data-name="Trazado 797115" d="M690.183,173.95c-.135.1-2.293-2.7-4.263-6.578-1.985-3.87-2.99-7.261-2.83-7.312.181-.065,1.449,3.192,3.41,7.015s3.842,6.766,3.683,6.875" transform="translate(172.916 40.519)" fill="#263238"/>
            <path id="Trazado_797116" data-name="Trazado 797116" d="M685.483,176.648a8.841,8.841,0,0,1-.872-2.356,60.65,60.65,0,0,1-2.185-11.889,8.832,8.832,0,0,1-.023-2.513c.191-.015.605,3.777,1.46,8.394s1.8,8.311,1.62,8.363" transform="translate(172.73 40.477)" fill="#263238"/>
            <path id="Trazado_797117" data-name="Trazado 797117" d="M698.527,140.871c.18,0,.326,15.4.326,34.4s-.145,34.4-.326,34.4-.326-15.4-.326-34.4.146-34.4.326-34.4" transform="translate(176.745 35.662)" fill="#263238"/>
            <path id="Trazado_797118" data-name="Trazado 797118" d="M718.033,118.4a3.34,3.34,0,0,1-.416.609l-1.249,1.7a76.652,76.652,0,0,0-4.212,6.544,39.972,39.972,0,0,0-4.465,10.623c-.388,2.1-.64,4.446-.991,6.822-1.041,2.505,1.426,4.137,3.437,5.5l.5.341-.56.238a10.348,10.348,0,0,0-2.038,1.3c-.9.7-1.763,1.442-2.544,2.157l.1-.262c.393,4.979,1.249,9.683,1.813,13.944.6,4.241,1.134,8.05,1.586,11.268.42,3.134.762,5.687,1.01,7.541.1.835.178,1.511.242,2.044a3.288,3.288,0,0,1,.043.717,3.116,3.116,0,0,1-.167-.7c-.093-.529-.211-1.2-.357-2.028-.3-1.847-.706-4.39-1.208-7.513-.492-3.212-1.078-7.014-1.728-11.247-.6-4.266-1.475-8.927-1.882-13.979l-.013-.158.115-.105c.8-.733,1.664-1.482,2.588-2.2a10.783,10.783,0,0,1,2.2-1.395l-.056.579a13.9,13.9,0,0,1-3-2.45,3.564,3.564,0,0,1-.907-1.794,2.167,2.167,0,0,1,0-.541l.064-.45.129-.895c.363-2.378.615-4.643,1.04-6.862a30.133,30.133,0,0,1,2.1-5.922,50.821,50.821,0,0,1,2.553-4.8,63.206,63.206,0,0,1,4.4-6.465c.568-.726,1.021-1.277,1.346-1.635a3.255,3.255,0,0,1,.515-.53" transform="translate(178.451 29.974)" fill="#263238"/>
            <path id="Trazado_797119" data-name="Trazado 797119" d="M749.509,120.244a1.8,1.8,0,0,1,.172.525,12.567,12.567,0,0,1,.309,1.553,22.464,22.464,0,0,1-.017,5.817,54.772,54.772,0,0,1-1.881,8.409,68.356,68.356,0,0,1-3.576,9.919c-1.365,3.079-2.822,5.95-4.155,8.584l-.068.133-.144.029-3.021.608.161-.47q1.021,1.212,1.951,2.315l.126.15-.1.16L734.888,165c-.5.769-.912,1.407-1.248,1.925a3.214,3.214,0,0,1-.485.65,3.128,3.128,0,0,1,.348-.732c.3-.539.676-1.2,1.124-2l4.182-7.144.026.31-1.986-2.284-.319-.368.48-.1,3.015-.642-.21.162c1.31-2.645,2.749-5.515,4.105-8.574a72.571,72.571,0,0,0,3.6-9.823,59.4,59.4,0,0,0,2-8.3,24.965,24.965,0,0,0,.222-5.727c-.115-1.355-.292-2.093-.228-2.107" transform="translate(185.593 30.44)" fill="#263238"/>
            <g id="Grupo_1064197" data-name="Grupo 1064197" transform="translate(853.663 199.672)" opacity="0.3">
              <g id="Grupo_1064196" data-name="Grupo 1064196">
                <g id="Grupo_1064195" data-name="Grupo 1064195" clip-path="url(#clip-path-6)">
                  <path id="Trazado_797120" data-name="Trazado 797120" d="M689.149,173.558c-1.556-4.441-3.7-8.917-5.6-13.221l-1.581-1a19.015,19.015,0,0,0,.6,12.178,1.277,1.277,0,0,0,.654.863.9.9,0,0,0,1.059-.756,2.622,2.622,0,0,0-.266-1.43,37.742,37.742,0,0,0,3.515,5.2,1.475,1.475,0,0,0,.753.593,1.034,1.034,0,0,0,1.119-.877,2.966,2.966,0,0,0-.244-1.546" transform="translate(-681.217 -159.336)"/>
                </g>
              </g>
            </g>
            <g id="Grupo_1064200" data-name="Grupo 1064200" transform="translate(880.454 177.038)" opacity="0.3">
              <g id="Grupo_1064199" data-name="Grupo 1064199">
                <g id="Grupo_1064198" data-name="Grupo 1064198" clip-path="url(#clip-path-7)">
                  <path id="Trazado_797121" data-name="Trazado 797121" d="M710.066,181.885c-3.005-8.5-6.03-17.084-7.218-26.024a15.284,15.284,0,0,1,.079-5.932,6.131,6.131,0,0,1,3.713-4.362,3.316,3.316,0,0,1-.051-4.292q1.835,1.947,3.665,3.9c-1.9-.026-3.494,1.622-4.048,3.44a13.307,13.307,0,0,0-.053,5.654q1.874,13.968,3.747,27.935" transform="translate(-702.596 -141.274)"/>
                </g>
              </g>
            </g>
            <g id="Grupo_1064203" data-name="Grupo 1064203" transform="translate(918.747 168.702)" opacity="0.3">
              <g id="Grupo_1064202" data-name="Grupo 1064202">
                <g id="Grupo_1064201" data-name="Grupo 1064201" clip-path="url(#clip-path-8)">
                  <path id="Trazado_797122" data-name="Trazado 797122" d="M742.322,153.734q2.731-9.557,5.461-19.112l-4.59,10.96a15.179,15.179,0,0,1-2.4,4.332,5.128,5.128,0,0,1-4.39,1.886l2.852,1.944c-2.045,3.291-4.053,6.9-6.1,10.194l4.4.371,4.821-7.659q-.735-1.32-1.471-2.64l1.424-.276" transform="translate(-733.154 -134.622)"/>
                </g>
              </g>
            </g>
            <path id="Trazado_797123" data-name="Trazado 797123" d="M719.15,118.109l.234-3.058,5.662,7.993,1.806,8.638,4.63-8.638,15.971-9.282v8.123l-3.053,7.892-5.951,4.594-6.816,2.987-8.1-1.514-4.9-2.772-1.089-5.729Z" transform="translate(181.642 28.799)" fill="#f5f5f5"/>
            <path id="Trazado_797124" data-name="Trazado 797124" d="M724.681,121.189a29.912,29.912,0,0,1-.828,2.912,23.559,23.559,0,0,0-.944,7.214l.058,1.234-.654-1.035-.4-.632a56.465,56.465,0,0,1-3.153-7.282c-.763-1.857-1.429-2.915-1.343-2.972a9.127,9.127,0,0,1,1.764,2.783c.929,1.816,1.754,4.521,3.292,7.135l.381.607-.6.2a20.563,20.563,0,0,1,1.167-7.384,9.742,9.742,0,0,1,1.256-2.781" transform="translate(181.608 30.537)" fill="#263238"/>
            <path id="Trazado_797125" data-name="Trazado 797125" d="M744.642,117.977c.023,0,.036.112.043.328a3.909,3.909,0,0,1-.1.944,7.339,7.339,0,0,1-1.694,3.025,20.123,20.123,0,0,1-3.91,3.307A53.646,53.646,0,0,0,734,129.239a48.82,48.82,0,0,1-4.506,3.321l-.584.36.122-.678a18.537,18.537,0,0,0,.137-4.1c-.067-1.249-.173-2.35-.263-3.261a20.375,20.375,0,0,1-.239-2.906,13.712,13.712,0,0,1,.613,2.857c.143.91.3,2.013.4,3.274a17.741,17.741,0,0,1-.051,4.249l-.461-.318a55.218,55.218,0,0,0,4.424-3.312,47.408,47.408,0,0,1,5.05-3.647,21.59,21.59,0,0,0,3.9-3.117,7.85,7.85,0,0,0,1.792-2.784c.236-.752.233-1.206.3-1.2" transform="translate(184.453 29.866)" fill="#263238"/>
            <path id="Trazado_797126" data-name="Trazado 797126" d="M762.351,211.348a1.963,1.963,0,0,1-.51.068l-1.485.094c-1.3.066-3.2.133-5.592.175s-5.289.058-8.58.023c-1.646-.019-3.39-.051-5.221-.11l-2.811-.12-1.455-.1-.744-.078c-.128-.02-.249-.031-.386-.061a1.457,1.457,0,0,1-.21-.049l-.123-.041a.478.478,0,0,1-.247-.282l-.007-.071.01-.044c1.1-4.946,2.3-10.37,3.554-16.057.238-1.068.474-2.127.707-3.167l.049-.219.222-.033c9.8-1.437,18.728-2.906,25.045-5.543l-.144.259c-.609-4.386-1.108-7.965-1.465-10.529-.15-1.194-.272-2.149-.363-2.873a5.722,5.722,0,0,1-.08-1.009,5.452,5.452,0,0,1,.219.989q.186,1.077.493,2.853c.408,2.556.979,6.125,1.677,10.5l.03.184-.173.075c-6.384,2.763-15.336,4.288-25.144,5.741l.271-.251-.706,3.168c-1.276,5.682-2.491,11.1-3.6,16.045l-.267-.07c7.836.355,14.683.5,19.449.505l5.589,0h1.486a1.994,1.994,0,0,1,.514.033" transform="translate(186.055 43.436)" fill="#263238"/>
            <path id="Trazado_797127" data-name="Trazado 797127" d="M772.551,164.305l-10.841,26.3-15.96,2.832-4.283,19.218,10.544.612-.078.7L710.56,215.15l17.505-50.845Z" transform="translate(179.874 41.594)" fill="#59bee2"/>
            <path id="Trazado_797128" data-name="Trazado 797128" d="M723.382,157.353l5.835,8.712L711.711,216.91l-5.7-9.751Z" transform="translate(178.723 39.834)" fill="#1969d5"/>
            <path id="Trazado_797129" data-name="Trazado 797129" d="M770.194,166.065l-6.39-6.2-43.93-2.508,5.833,8.712Z" transform="translate(182.231 39.834)" fill="#ebebeb"/>
            <path id="Trazado_797130" data-name="Trazado 797130" d="M728.066,164.305c.17.059-3.61,11.489-8.444,25.528s-8.891,25.376-9.062,25.317,3.609-11.486,8.445-25.53,8.89-25.374,9.06-25.315" transform="translate(179.873 41.594)" fill="#263238"/>
            <path id="Trazado_797131" data-name="Trazado 797131" d="M745.978,191.478l-7.579-.654s-2.935-4.87-4.865-6.569-11.895-6.469-11.895-6.469a2.753,2.753,0,0,0,0,3.5c.655.787,5.368,3.437,5.368,3.437a2.718,2.718,0,0,1-3.1,3.427c-2.919-.535-6.318-1.142-6.767-1.142-.5,0-3.415-2.757-5.554-4.848-1.282-1.254-3.57-.056-3.061,1.664a.891.891,0,0,0,.257.432s-3.074-.109-.332,4.024c0,0-.633,3.816,1.618,5.565,0,0,.971,4.612,2.419,6.2s15.58,4.61,15.58,4.61l14.724,1.429Z" transform="translate(179.051 45.007)" fill="#b78876"/>
            <path id="Trazado_797132" data-name="Trazado 797132" d="M722.312,191.232a8.485,8.485,0,0,1-2.529.061,13.239,13.239,0,0,1-5.944-1.561,12.317,12.317,0,0,1-4.139-4.543,8.36,8.36,0,0,1-1.079-2.289,11.747,11.747,0,0,1,1.47,2.044,13.729,13.729,0,0,0,4.081,4.227,15.049,15.049,0,0,0,5.653,1.664,11.391,11.391,0,0,1,2.486.4" transform="translate(179.381 46.301)" fill="#aa6550"/>
            <path id="Trazado_797133" data-name="Trazado 797133" d="M720.959,193.662a4.758,4.758,0,0,1-2.308.18,16.611,16.611,0,0,1-2.492-.362,7.79,7.79,0,0,1-2.914-1.189,13.414,13.414,0,0,1-2.167-2.226l-1.555-1.937a8.128,8.128,0,0,1-1.313-1.888,8.141,8.141,0,0,1,1.664,1.589c.48.515,1.053,1.143,1.663,1.848a15.338,15.338,0,0,0,2.1,2.093A7.976,7.976,0,0,0,716.3,192.9a23.181,23.181,0,0,0,2.4.487c1.383.216,2.247.185,2.259.278" transform="translate(179.277 47.146)" fill="#aa6550"/>
            <path id="Trazado_797134" data-name="Trazado 797134" d="M718.646,196.2c-.043.262-2.57-.271-5.555-1.105a2.573,2.573,0,0,1-1.094-.662,8.982,8.982,0,0,1-.768-.782,10.5,10.5,0,0,1-1.093-1.477c-.549-.9-.7-1.545-.622-1.573s.382.52,1,1.312a16.4,16.4,0,0,0,1.154,1.33c.229.238.479.48.747.708a2.077,2.077,0,0,0,.833.511c1.525.41,2.862.838,3.838,1.153a7.043,7.043,0,0,1,1.558.585" transform="translate(179.604 48.25)" fill="#aa6550"/>
            <path id="Trazado_797135" data-name="Trazado 797135" d="M74.106,319.461a57.237,57.237,0,0,1-1.114,22.019,60.5,60.5,0,0,1-3.373,9.734c-1.752,4.028-3.583,7.962-3.142,12.37.426.284-1.034.238-1.081-.19-11.78-6.706-26.885-7.935-35.95-18.9-4.295-5.192-6.46-11.773-7.488-18.357-1.114-7.167-1.424-15.1.425-22.167,1.559-5.975,5.05-11.738,10.666-14.666,5.795-3.014,13.385-2.763,19.486-.868,13.164,4.089,19.709,18.293,21.572,31.027" transform="translate(5.331 72.659)" fill="#288640"/>
            <path id="Trazado_797136" data-name="Trazado 797136" d="M78.142,404.037c-1.608-5.357-3.213-10.717-4.865-16.062-3.232-10.469-6.592-20.9-10.311-31.207q-3.342-9.261-7.05-18.345a110.968,110.968,0,0,1,1.406-11.386c.985-4.566,2.415-8.978,3.747-13.447.083-.274-.363-.419-.475-.158-2.645,6.157-6.1,14.035-6.182,21.327q-4.316-10.276-9.258-20.265c-.187-5.672-.395-11.169.519-16.877a.2.2,0,0,0-.4-.078,59.708,59.708,0,0,0-1.153,14.9q-3.8-7.5-8.038-14.8c-.257-.439-.862.01-.638.441,4.427,8.524,8.534,17.226,12.385,26.044a56.669,56.669,0,0,0-18.468-10.7c-.293-.1-.514.321-.216.445A67.224,67.224,0,0,1,49.124,327.1q4.154,9.684,7.919,19.525C49.671,339.4,39.586,334.646,29.829,332.1c-.332-.088-.42.422-.1.518,11.29,3.4,20.062,9.8,28.647,17.491q1.5,3.978,2.937,7.971,5.457,15.141,10.392,30.465,2.378,7.34,4.675,14.7c1.648,5.283,2.936,10.861,5.08,15.961.206.487,1.08.376.969-.208-.966-5.059-2.808-10.03-4.288-14.963" transform="translate(7.343 75.282)" fill="#263238"/>
            <path id="Trazado_797137" data-name="Trazado 797137" d="M53.481,304.709a29.289,29.289,0,0,0-4.243,10.574c-.019.1.133.155.169.056a91.522,91.522,0,0,1,4.6-10.375c.178-.345-.327-.56-.525-.256" transform="translate(12.464 77.1)" fill="#263238"/>
            <path id="Trazado_797138" data-name="Trazado 797138" d="M38.012,324.984a31.035,31.035,0,0,0-10.572-3.559c-.1-.013-.155.128-.056.169,1.7.7,3.485,1.2,5.206,1.858s3.411,1.47,5.157,2.076a.3.3,0,0,0,.266-.545" transform="translate(6.919 81.368)" fill="#263238"/>
            <path id="Trazado_797139" data-name="Trazado 797139" d="M31.87,301.133a20.8,20.8,0,0,0-3.4-2.1.181.181,0,0,0-.2.3,20.7,20.7,0,0,0,3.352,2.174c.216.13.457-.232.244-.372" transform="translate(7.142 75.696)" fill="#263238"/>
            <path id="Trazado_797140" data-name="Trazado 797140" d="M102.455,357.83c-8.484,2.519-17.011,4.846-25.493,7.336-.737.221-15.079-27.261-9.9-41.419,4.791-13.1,15.758-22.91,28.836-27.362,6.058-2.058,13.5-3.786,19.9-2.375,5.689,1.261,9.708,5.916,11.558,11.267,2.519,7.273,1.679,15.949.31,23.374-1.273,6.886-3.793,13.667-8.348,19.077-4.508,5.356-10.257,8.142-16.87,10.1" transform="translate(16.692 74.298)" fill="#288640"/>
            <path id="Trazado_797141" data-name="Trazado 797141" d="M115.045,328.3a113.147,113.147,0,0,1-16.635,6.549c-3.605,1.159-7.645,2.206-11.1,4.02,3.583-7.988,7.515-15.808,11.687-23.558,5.481-1.587,11.244-4.06,15.379-7.939a.236.236,0,0,0-.31-.357c-4.52,3.194-9.506,5.113-14.505,7.273,1.129-2.086,2.263-4.169,3.427-6.247.322-.578-.474-1.153-.863-.59A179.282,179.282,0,0,0,90.068,327.7a92.7,92.7,0,0,1-.873-18.549.124.124,0,0,0-.247-.018,61.779,61.779,0,0,0,.209,20.381c-2.975,5.94-5.684,12.023-8.119,18.182-.97-3.7-2.227-7.343-3.065-11.074a50.878,50.878,0,0,1-1.218-16.331c.016-.162-.222-.172-.248-.018a57.584,57.584,0,0,0,3.56,29.979c-1.42,3.708-2.771,7.43-4.008,11.158A222.319,222.319,0,0,0,64.8,420.272a.359.359,0,0,0,.716.051,291.851,291.851,0,0,1,12.643-58.171c2.461-7.4,5.292-14.578,8.4-21.624,5.013-1.481,10-3.49,14.925-5.2,4.8-1.663,9.723-3.587,13.755-6.743a.174.174,0,0,0-.189-.288" transform="translate(16.403 77.708)" fill="#263238"/>
            <path id="Trazado_797142" data-name="Trazado 797142" d="M114.321,317.624c-5.188,1.845-10.107,4.429-15.29,6.3-.243.088-.1.472.143.422,5.485-1.133,10.925-2.828,15.343-6.425.17-.138-.016-.361-.2-.3" transform="translate(25.037 80.403)" fill="#263238"/>
            <path id="Trazado_797143" data-name="Trazado 797143" d="M77.825,308.749c.063-.274-.34-.432-.424-.15-1.422,4.783-2.4,9.858-1.02,14.747a.186.186,0,0,0,.366-.023c.249-4.926-.026-9.719,1.078-14.574" transform="translate(19.167 78.084)" fill="#263238"/>
            <path id="Trazado_797144" data-name="Trazado 797144" d="M94.964,299.9a12.663,12.663,0,0,0-2.252,8.133c.008.182.3.288.35.073.632-2.736,1.688-5.229,2.528-7.887a.355.355,0,0,0-.625-.318" transform="translate(23.466 75.883)" fill="#263238"/>
            <path id="Trazado_797145" data-name="Trazado 797145" d="M14.855,357.945c2.487,7.894,8.4,18.806,17.756,18.892,6.068.058,12.178-.662,18.26-.748,6.513-.1,13.04-.086,19.539.3.533.029-.779-19.5-16.434-29.014-4.385-2.664-9.748-3.508-14.722-4.587a68.189,68.189,0,0,0-17.4-1.811c-3.594.143-6.584.906-7.865,4.587-1.336,3.852-.33,8.627.863,12.379" transform="translate(3.381 86.306)" fill="#288640"/>
            <path id="Trazado_797146" data-name="Trazado 797146" d="M20.024,347.377c3.8.979,7.642,2.1,11.459,3.315a40.189,40.189,0,0,0-3.154-3.078c-1.64-1.362-3.444-2.451-5.2-3.645-.148-.1-.06-.382.129-.307A21.461,21.461,0,0,1,32.488,351c4.757,1.538,9.469,3.233,14.005,5.1a52.642,52.642,0,0,1,8.967,4.722,36.151,36.151,0,0,0-3.244-5.645c-2.076-2.693-4.889-4.193-7.608-6.1a.242.242,0,0,1,.244-.417c6.142,2.729,9.877,7.16,12.207,13.237a52.131,52.131,0,0,1,8.88,8.063c10.356,11.763,18.513,27.415,18.542,43.385,0,.381-.61.489-.684.093-2.939-15.864-9.2-30.111-19.75-42.423-.741-.865-1.5-1.689-2.277-2.485a71.133,71.133,0,0,0-8.556-.635c-3.332.05-6.639.49-9.956.759-5.464.444-11.506.508-16.436-2.241-.217-.122-.07-.5.173-.411,10.989,4,22.514-1.073,33.528,1.31a51.473,51.473,0,0,0-16.243-10.476c-.336-.139-.674-.268-1.01-.4-7.053.848-14.5,2.686-21.365.394a.168.168,0,0,1,.089-.325c6.637,1.658,13-.427,19.549-.759-7.13-2.776-14.4-4.985-21.553-7.741-.6-.233-.615-.782.035-.615" transform="translate(4.946 86.994)" fill="#263238"/>
            <path id="Trazado_797147" data-name="Trazado 797147" d="M17.477,352.165a94.573,94.573,0,0,0,10.264.778c.078,0,.1.124.019.143a21.274,21.274,0,0,1-10.355-.66.135.135,0,0,1,.071-.261" transform="translate(4.382 89.149)" fill="#263238"/>
            <path id="Trazado_797148" data-name="Trazado 797148" d="M36.021,346.765A16.818,16.818,0,0,1,41.1,350.3c.179.158-.061.479-.258.335-.861-.627-1.748-1.217-2.643-1.794a25.212,25.212,0,0,1-2.475-1.566c-.232-.192.018-.6.3-.506" transform="translate(9.021 87.779)" fill="#263238"/>
            <path id="Trazado_797149" data-name="Trazado 797149" d="M80.053,372.116c-.115.258.258.5.4.229.015,0,.015,0,.015-.014a.366.366,0,0,0,.244.158,157.368,157.368,0,0,0,19.122,3.336c5.175.46,11.143.748,15.672-2.257,6.139-4.069,10.179-14.953,6.857-21.869-3.925-8.209-15.757-3.752-21.7-.833a43.556,43.556,0,0,0-20.617,21.25" transform="translate(20.26 87.844)" fill="#288640"/>
            <path id="Trazado_797150" data-name="Trazado 797150" d="M80.24,374.941a61.1,61.1,0,0,1,11.417-8.692,39.077,39.077,0,0,1,11.579-11.8c.224-.155.416.2.211.358a52.3,52.3,0,0,0-9.757,10.263,107.492,107.492,0,0,1,14.325-6.515,19.073,19.073,0,0,1,7.694-7.711c.064-.033.145.056.083.105a31.642,31.642,0,0,0-6.951,7.293c2.911-1.085,5.851-2.1,8.788-3.071.264-.088.365.313.114.411-5.231,2.044-10.578,4.2-15.76,6.686a60.669,60.669,0,0,0,19.084-.056.141.141,0,0,1,.075.271,37.622,37.622,0,0,1-20.25.3,94.777,94.777,0,0,0-9.605,5.379,24.043,24.043,0,0,1,7.763.635,59.023,59.023,0,0,0,13.642,1.545c.174-.006.219.278.043.308-7.915,1.362-15.4-2.234-23.241-1.3a60.635,60.635,0,0,0-8.169,6.672,61.42,61.42,0,0,0-11.915,16.81c-3.3,6.721-5.093,13.845-7.761,20.787a.253.253,0,0,1-.487-.134c2.287-13.689,9.1-28.789,19.078-38.548" transform="translate(15.482 88.814)" fill="#263238"/>
            <path id="Trazado_797151" data-name="Trazado 797151" d="M95.435,355.941a9.041,9.041,0,0,1,2.028-2.459,7.981,7.981,0,0,1,2.336-1.749c.08-.029.124.079.076.132-.648.737-1.551,1.277-2.252,1.981s-1.288,1.541-2,2.238a.119.119,0,0,1-.185-.143" transform="translate(24.155 89.039)" fill="#263238"/>
            <path id="Trazado_797152" data-name="Trazado 797152" d="M105.876,358.8c1.173-.294,2.415-.273,3.609-.516a34.208,34.208,0,0,0,3.5-1.049.141.141,0,0,1,.109.257c-1.926,1.144-4.966,2.118-7.216,1.677a.192.192,0,0,1,0-.368" transform="translate(26.767 90.431)" fill="#263238"/>
            <path id="Trazado_797153" data-name="Trazado 797153" d="M50.363,387.371l1.038,11.8L54.927,439H86.12l4.4-39.83,1.3-11.8Z" transform="translate(12.749 98.062)" fill="#727997"/>
            <path id="Trazado_797154" data-name="Trazado 797154" d="M50.363,387.371l1.038,11.8H90.524l1.3-11.8Z" transform="translate(12.749 98.062)" fill="#263238"/>
            <rect id="Rectángulo_373592" data-name="Rectángulo 373592" width="47.64" height="9.57" transform="translate(60.023 482.216)" fill="#727997"/>
            <path id="Trazado_797155" data-name="Trazado 797155" d="M404.348,48.974A10.214,10.214,0,1,1,394.133,38.76a10.214,10.214,0,0,1,10.214,10.214" transform="translate(97.187 9.813)" fill="#12263f"/>
          </g>
        </g>
      </g>
    </g>
    <g transform="matrix(1, 0, 0, 1, 285, 4019)" filter="url(#Trazado_797156)">
      <path id="Trazado_797156-2" data-name="Trazado 797156" d="M25.448,0A25.448,25.448,0,1,1,0,25.448,25.448,25.448,0,0,1,25.448,0Z" transform="translate(55.6 51.23)" fill="#fff"/>
    </g>
    <g transform="matrix(1, 0, 0, 1, 285, 4019)" filter="url(#Trazado_797158)">
      <path id="Trazado_797158-2" data-name="Trazado 797158" d="M31.9,0A31.9,31.9,0,1,1,0,31.9,31.9,31.9,0,0,1,31.9,0Z" transform="translate(330.07 123.66)" fill="#fff"/>
    </g>
    <g transform="matrix(1, 0, 0, 1, 285, 4019)" filter="url(#Trazado_797159)">
      <path id="Trazado_797159-2" data-name="Trazado 797159" d="M21.125,0A21.125,21.125,0,1,1,0,21.125,21.125,21.125,0,0,1,21.125,0Z" transform="translate(471.76 103.14)" fill="#fff"/>
    </g>
    <g transform="matrix(1, 0, 0, 1, 285, 4019)" filter="url(#Trazado_797160)">
      <path id="Trazado_797160-2" data-name="Trazado 797160" d="M31.552,0A31.552,31.552,0,1,1,0,31.552,31.552,31.552,0,0,1,31.552,0Z" transform="translate(575.25 162.99)" fill="#fff"/>
    </g>
    <g transform="matrix(1, 0, 0, 1, 285, 4019)" filter="url(#Trazado_797161)">
      <path id="Trazado_797161-2" data-name="Trazado 797161" d="M49.822,0A49.822,49.822,0,1,1,0,49.822,49.822,49.822,0,0,1,49.822,0Z" transform="translate(758.47 216.7)" fill="#fff"/>
    </g>
    <g transform="matrix(1, 0, 0, 1, 285, 4019)" filter="url(#Trazado_797157)">
      <path id="Trazado_797157-2" data-name="Trazado 797157" d="M50.684,0A50.684,50.684,0,1,1,0,50.684,50.684,50.684,0,0,1,50.684,0Z" transform="translate(117.18 194.75)" fill="#fff"/>
    </g>
  </g>
</svg>
