<svg xmlns="http://www.w3.org/2000/svg" xmlns:xlink="http://www.w3.org/1999/xlink" width="76.999" height="76.999" viewBox="0 0 76.999 76.999">
  <defs>
    <clipPath id="clip-path">
      <circle id="Elipse_8286" data-name="Elipse 8286" cx="38.5" cy="38.5" r="38.5" transform="translate(331.001 1539)" fill="#59bee2"/>
    </clipPath>
  </defs>
  <g id="Grupo_1064023" data-name="Grupo 1064023" transform="translate(-331.001 -1539)">
    <g id="Enmascarar_grupo_1064339" data-name="Enmascarar grupo 1064339" clip-path="url(#clip-path)">
      <g id="analisis" transform="translate(331.001 1539)">
        <g id="Grupo_1064612" data-name="Grupo 1064612" transform="translate(16.985 16.977)">
          <g id="Grupo_1064611" data-name="Grupo 1064611" transform="translate(0 0)">
            <path id="Trazado_797681" data-name="Trazado 797681" d="M22.546,5.148A17.385,17.385,0,1,0,39.931,22.533,17.385,17.385,0,0,0,22.546,5.148Zm0,1.656a15.713,15.713,0,0,1,12.845,6.681l-2.07,2.07a3.267,3.267,0,0,0-1.669-.472,3.311,3.311,0,0,0-3.311,3.311,3.267,3.267,0,0,0,.469,1.671l-5.421,5.421a3.211,3.211,0,0,0-3.343,0l-3.765-3.765a3.267,3.267,0,0,0,.469-1.671,3.3,3.3,0,0,0-6.505-.828H7.174A15.752,15.752,0,0,1,22.546,6.8Zm10.762,11.59a1.656,1.656,0,1,1-1.656-1.656A1.656,1.656,0,0,1,33.308,18.394Zm-9.934,9.934a1.656,1.656,0,1,1-1.656-1.656A1.656,1.656,0,0,1,23.373,28.328ZM15.095,20.05a1.656,1.656,0,1,1-1.656-1.656A1.656,1.656,0,0,1,15.095,20.05ZM30.188,36.287A15.726,15.726,0,0,1,6.9,20.878h3.34a3.312,3.312,0,0,0,3.194,2.484,3.267,3.267,0,0,0,1.671-.469l3.765,3.765a3.267,3.267,0,0,0-.469,1.671,3.311,3.311,0,1,0,6.623,0,3.267,3.267,0,0,0-.469-1.671l5.421-5.421a3.267,3.267,0,0,0,1.671.469,3.311,3.311,0,0,0,3.311-3.311,3.267,3.267,0,0,0-.469-1.671l1.8-1.8A15.715,15.715,0,0,1,30.188,36.287Z" transform="translate(-5.161 -5.148)" fill="#12263f"/>
          </g>
        </g>
        <g id="Grupo_1064614" data-name="Grupo 1064614" transform="translate(13.654 13.663)">
          <g id="Grupo_1064613" data-name="Grupo 1064613" transform="translate(0 0)">
            <path id="Trazado_797682" data-name="Trazado 797682" d="M41.412,8.294a3.311,3.311,0,0,0,3.194-2.484H49.69V4.155H44.606a3.3,3.3,0,0,0-6.505.828,3.267,3.267,0,0,0,.469,1.671L37.115,8.109a20.7,20.7,0,1,0-5.167,29.973l2.5,2.5,1.171,1.171,6.664,6.664a4.34,4.34,0,0,0,6.138-6.138l-6.664-6.664-1.171-1.171-2.5-2.5a20.628,20.628,0,0,0,0-22.465l1.656-1.656A3.268,3.268,0,0,0,41.412,8.294Zm0-4.967a1.656,1.656,0,1,1-1.656,1.656A1.656,1.656,0,0,1,41.412,3.327Zm5.836,40.121a2.685,2.685,0,1,1-3.753,3.84l-.043-.043-6.664-6.664,3.8-3.8Zm-7.835-7.835-3.8,3.8-2.292-2.292c.117-.089.226-.188.341-.28s.248-.2.372-.305c.181-.152.36-.306.536-.464.09-.083.176-.166.265-.248q.509-.477.986-.986c.083-.089.166-.175.248-.265.158-.176.312-.354.464-.536q.156-.184.305-.372c.091-.114.19-.224.279-.34ZM36.2,31.768c-.261.364-.53.721-.814,1.065-.083.1-.171.2-.257.3q-.38.442-.785.858-.176.182-.358.358-.414.4-.858.785c-.1.083-.2.173-.3.257-.344.284-.7.553-1.065.814A19.071,19.071,0,1,1,36.2,31.768Z" transform="translate(0 -0.013)" fill="#12263f"/>
          </g>
        </g>
      </g>
    </g>
  </g>
</svg>
