<svg xmlns="http://www.w3.org/2000/svg" xmlns:xlink="http://www.w3.org/1999/xlink" width="469.456" height="516" viewBox="0 0 469.456 516">
  <defs>
    <clipPath id="clip-path">
      <rect id="Rectángulo_373721" data-name="Rectángulo 373721" width="469.456" height="457.789" fill="none"/>
    </clipPath>
    <clipPath id="clip-path-3">
      <rect id="Rectángulo_373681" data-name="Rectángulo 373681" width="51.952" height="49.823" fill="none"/>
    </clipPath>
    <clipPath id="clip-path-4">
      <rect id="Rectángulo_373682" data-name="Rectángulo 373682" width="9.324" height="9.323" fill="none"/>
    </clipPath>
    <clipPath id="clip-path-5">
      <rect id="Rectángulo_373683" data-name="Rectángulo 373683" width="9.323" height="9.323" fill="none"/>
    </clipPath>
    <clipPath id="clip-path-6">
      <rect id="Rectángulo_373684" data-name="Rectángulo 373684" width="9.323" height="9.324" fill="none"/>
    </clipPath>
    <clipPath id="clip-path-11">
      <rect id="Rectángulo_373689" data-name="Rectángulo 373689" width="9.324" height="9.324" fill="none"/>
    </clipPath>
    <clipPath id="clip-path-12">
      <rect id="Rectángulo_373690" data-name="Rectángulo 373690" width="56.203" height="53.898" fill="none"/>
    </clipPath>
    <clipPath id="clip-path-13">
      <rect id="Rectángulo_373691" data-name="Rectángulo 373691" width="10.086" height="10.087" fill="none"/>
    </clipPath>
    <clipPath id="clip-path-15">
      <rect id="Rectángulo_373693" data-name="Rectángulo 373693" width="10.086" height="10.086" fill="none"/>
    </clipPath>
    <clipPath id="clip-path-17">
      <rect id="Rectángulo_373695" data-name="Rectángulo 373695" width="10.087" height="10.086" fill="none"/>
    </clipPath>
    <clipPath id="clip-path-21">
      <rect id="Rectángulo_373700" data-name="Rectángulo 373700" width="9.325" height="9.325" fill="none"/>
    </clipPath>
    <clipPath id="clip-path-25">
      <rect id="Rectángulo_373699" data-name="Rectángulo 373699" width="54.414" height="53.23" fill="none"/>
    </clipPath>
    <clipPath id="clip-path-27">
      <rect id="Rectángulo_373705" data-name="Rectángulo 373705" width="9.325" height="9.326" fill="none"/>
    </clipPath>
    <clipPath id="clip-path-32">
      <rect id="Rectángulo_373710" data-name="Rectángulo 373710" width="19.719" height="41.998" fill="#288640"/>
    </clipPath>
    <clipPath id="clip-path-33">
      <rect id="Rectángulo_373711" data-name="Rectángulo 373711" width="36.856" height="23.064" fill="#288640"/>
    </clipPath>
    <clipPath id="clip-path-35">
      <rect id="Rectángulo_373714" data-name="Rectángulo 373714" width="181.08" height="36.228" fill="none"/>
    </clipPath>
    <clipPath id="clip-path-36">
      <rect id="Rectángulo_373715" data-name="Rectángulo 373715" width="77.746" height="74.557" fill="#fcf5e9"/>
    </clipPath>
    <clipPath id="clip-path-37">
      <rect id="Rectángulo_373716" data-name="Rectángulo 373716" width="122.844" height="88.879" fill="none"/>
    </clipPath>
    <clipPath id="clip-path-38">
      <rect id="Rectángulo_373717" data-name="Rectángulo 373717" width="81.957" height="75.649" fill="none"/>
    </clipPath>
  </defs>
  <g id="Grupo_1065526" data-name="Grupo 1065526" transform="translate(-950.544 -1226)">
    <g id="Grupo_1065512" data-name="Grupo 1065512" transform="translate(763 -3417)">
      <g id="Grupo_1065354" data-name="Grupo 1065354" transform="translate(180 4644)">
        <g id="Grupo_171324" data-name="Grupo 171324" transform="translate(262.703 81.239)">
          <path id="Trazado_207509" data-name="Trazado 207509" d="M2664.158,1357.9a.589.589,0,0,0-.024-.107,87.973,87.973,0,0,0-25.478-39.759c-10.145-9.031-22.625-16-37.093-20.718-25.409-8.282-52.525-7.9-66.967-4.038a.679.679,0,0,0-.5.85.751.751,0,0,0,.916.471c25.409-6.793,106.173-4.328,127.709,63.576a.751.751,0,0,0,.917.468A.685.685,0,0,0,2664.158,1357.9Z" transform="translate(-2534.064 -1290.642)" fill="#f3f9ff"/>
        </g>
        <g id="Grupo_171325" data-name="Grupo 171325" transform="translate(35.002 161.091)">
          <path id="Trazado_207510" data-name="Trazado 207510" d="M903.892,1604.272a.828.828,0,0,0-.116.025c-17.132,4.982-31.535,13.161-42.811,24.31a91.188,91.188,0,0,0-21.7,34.44c-8.4,23.439-7.29,48.218-2.7,61.321a.766.766,0,0,0,.942.437.668.668,0,0,0,.491-.849c-8.077-23.055-7.45-96.949,66.231-118.375a.667.667,0,0,0,.488-.85A.756.756,0,0,0,903.892,1604.272Z" transform="translate(-833.026 -1604.264)" fill="#f3f9ff"/>
        </g>
      </g>
      <path id="Rectángulo_374328" data-name="Rectángulo 374328" d="M0,0H364a30,30,0,0,1,30,30V242a0,0,0,0,1,0,0H30A30,30,0,0,1,0,212V0A0,0,0,0,1,0,0Z" transform="translate(246 4917)" fill="#92df98"/>
      <path id="Rectángulo_374329" data-name="Rectángulo 374329" d="M0,0H364a30,30,0,0,1,30,30V242a0,0,0,0,1,0,0H30A30,30,0,0,1,0,212V0A0,0,0,0,1,0,0Z" transform="translate(601 4885) rotate(180)" fill="#92df98"/>
      <path id="Rectángulo_374327" data-name="Rectángulo 374327" d="M0,0H370a30,30,0,0,1,30,30V489a0,0,0,0,1,0,0H30A30,30,0,0,1,0,459V0A0,0,0,0,1,0,0Z" transform="translate(223 4655)" fill="#edfdee"/>
    </g>
    <g id="Grupo_1064536" data-name="Grupo 1064536" transform="translate(950.544 1271)">
      <g id="Grupo_1064533" data-name="Grupo 1064533" clip-path="url(#clip-path)">
        <g id="Grupo_1064504" data-name="Grupo 1064504">
          <g id="Grupo_1064503" data-name="Grupo 1064503" clip-path="url(#clip-path)">
            <path id="Trazado_797412" data-name="Trazado 797412" d="M408.993,1.3A25.457,25.457,0,0,0,397.612.2C379.181,2.4,309.561,11.209,282.921,23.267c0,0-14.183,4.226-14.485,18.106s1.969,37.3,18.566,38.5S412.538,57.244,417.97,53.622s9.657-7.544,9.053-17.8-4.724-20.09-8.555-27.075a16.664,16.664,0,0,0-9.475-7.44" transform="translate(7.156 0)" fill="#f5f5f5"/>
            <g id="Grupo_1064424" data-name="Grupo 1064424" transform="translate(329.628 15.049)" opacity="0.4">
              <g id="Grupo_1064423" data-name="Grupo 1064423">
                <g id="Grupo_1064422" data-name="Grupo 1064422" clip-path="url(#clip-path-3)">
                  <path id="Trazado_797413" data-name="Trazado 797413" d="M370.555,57.244A185.088,185.088,0,0,1,332.5,64.408a3.589,3.589,0,0,1-4.231-2.806c-4.01-12.844-6.764-24.826-7.124-35.166a3.589,3.589,0,0,1,2.806-4.231,290.553,290.553,0,0,1,35.8-7.36c1.942-.393,5.428-.523,6.468,3.372,2.7,10.441,4.472,19.807,6.6,32.5.393,1.943.5,5.227-2.259,6.524" transform="translate(-321.068 -14.658)" fill="#e0e0e0"/>
                </g>
              </g>
            </g>
            <g id="Grupo_1064427" data-name="Grupo 1064427" transform="translate(388.39 19.892)" opacity="0.4">
              <g id="Grupo_1064426" data-name="Grupo 1064426">
                <g id="Grupo_1064425" data-name="Grupo 1064425" clip-path="url(#clip-path-4)">
                  <path id="Trazado_797414" data-name="Trazado 797414" d="M387.628,24.036a4.662,4.662,0,1,1-4.662-4.662,4.662,4.662,0,0,1,4.662,4.662" transform="translate(-378.304 -19.375)" fill="#e0e0e0"/>
                </g>
              </g>
            </g>
            <g id="Grupo_1064430" data-name="Grupo 1064430" transform="translate(406.042 15.986)" opacity="0.4">
              <g id="Grupo_1064429" data-name="Grupo 1064429">
                <g id="Grupo_1064428" data-name="Grupo 1064428" clip-path="url(#clip-path-5)">
                  <path id="Trazado_797415" data-name="Trazado 797415" d="M404.82,20.233a4.662,4.662,0,1,1-4.662-4.662,4.662,4.662,0,0,1,4.662,4.662" transform="translate(-395.497 -15.571)" fill="#e0e0e0"/>
                </g>
              </g>
            </g>
            <g id="Grupo_1064433" data-name="Grupo 1064433" transform="translate(392.554 38.158)" opacity="0.4">
              <g id="Grupo_1064432" data-name="Grupo 1064432">
                <g id="Grupo_1064431" data-name="Grupo 1064431" clip-path="url(#clip-path-6)">
                  <path id="Trazado_797416" data-name="Trazado 797416" d="M391.683,41.829a4.662,4.662,0,1,1-4.662-4.662,4.662,4.662,0,0,1,4.662,4.662" transform="translate(-382.36 -37.167)" fill="#e0e0e0"/>
                </g>
              </g>
            </g>
            <g id="Grupo_1064436" data-name="Grupo 1064436" transform="translate(410.47 34.038)" opacity="0.4">
              <g id="Grupo_1064435" data-name="Grupo 1064435">
                <g id="Grupo_1064434" data-name="Grupo 1064434" clip-path="url(#clip-path-5)">
                  <path id="Trazado_797417" data-name="Trazado 797417" d="M409.133,37.816a4.662,4.662,0,1,1-4.662-4.662,4.662,4.662,0,0,1,4.662,4.662" transform="translate(-399.81 -33.154)" fill="#e0e0e0"/>
                </g>
              </g>
            </g>
            <g id="Grupo_1064439" data-name="Grupo 1064439" transform="translate(292.292 37.444)" opacity="0.4">
              <g id="Grupo_1064438" data-name="Grupo 1064438">
                <g id="Grupo_1064437" data-name="Grupo 1064437" clip-path="url(#clip-path-6)">
                  <path id="Trazado_797418" data-name="Trazado 797418" d="M294.024,41.134a4.662,4.662,0,1,1-4.662-4.662,4.662,4.662,0,0,1,4.662,4.662" transform="translate(-284.701 -36.472)" fill="#e0e0e0"/>
                </g>
              </g>
            </g>
            <g id="Grupo_1064442" data-name="Grupo 1064442" transform="translate(309.942 33.54)" opacity="0.4">
              <g id="Grupo_1064441" data-name="Grupo 1064441">
                <g id="Grupo_1064440" data-name="Grupo 1064440" clip-path="url(#clip-path-4)">
                  <path id="Trazado_797419" data-name="Trazado 797419" d="M311.217,37.33a4.662,4.662,0,1,1-4.662-4.662,4.662,4.662,0,0,1,4.662,4.662" transform="translate(-301.893 -32.669)" fill="#e0e0e0"/>
                </g>
              </g>
            </g>
            <g id="Grupo_1064445" data-name="Grupo 1064445" transform="translate(296.455 55.712)" opacity="0.4">
              <g id="Grupo_1064444" data-name="Grupo 1064444">
                <g id="Grupo_1064443" data-name="Grupo 1064443" clip-path="url(#clip-path-4)">
                  <path id="Trazado_797420" data-name="Trazado 797420" d="M298.08,58.927a4.662,4.662,0,1,1-4.662-4.662,4.662,4.662,0,0,1,4.662,4.662" transform="translate(-288.756 -54.265)" fill="#e0e0e0"/>
                </g>
              </g>
            </g>
            <g id="Grupo_1064448" data-name="Grupo 1064448" transform="translate(314.106 51.806)" opacity="0.4">
              <g id="Grupo_1064447" data-name="Grupo 1064447">
                <g id="Grupo_1064446" data-name="Grupo 1064446" clip-path="url(#clip-path-11)">
                  <path id="Trazado_797421" data-name="Trazado 797421" d="M315.273,55.123a4.662,4.662,0,1,1-4.662-4.662,4.662,4.662,0,0,1,4.662,4.662" transform="translate(-305.949 -50.461)" fill="#e0e0e0"/>
                </g>
              </g>
            </g>
            <path id="Trazado_797422" data-name="Trazado 797422" d="M94.744,36.731c-10-7.194-16.5,5.133-16.5,5.133s-6.5-12.327-16.5-5.133c-8.957,6.44-1.951,18.192,1.294,22.535,2.506,3.356,9.977,10.071,15.21,12.283,5.233-2.212,12.165-8.136,15.21-12.283,2.575-3.506,10.25-16.095,1.294-22.535" transform="translate(1.529 0.919)" fill="#ebebeb"/>
            <path id="Trazado_797425" data-name="Trazado 797425" d="M74.151,342.932c-8.011-5.761-13.215,4.11-13.215,4.11s-5.2-9.87-13.216-4.11c-7.171,5.157-1.562,14.566,1.037,18.046,2.006,2.687,7.988,8.063,12.179,9.835,4.19-1.772,9.741-6.515,12.179-9.835,2.062-2.809,8.208-12.889,1.036-18.046" transform="translate(1.179 9.095)" fill="#ebebeb"/>
            <path id="Trazado_797426" data-name="Trazado 797426" d="M56.527,118.368c-8.011-5.761-13.215,4.11-13.215,4.11s-5.2-9.87-13.215-4.11c-7.172,5.157-1.563,14.566,1.036,18.046,2.006,2.687,7.988,8.063,12.179,9.835,4.19-1.772,9.741-6.515,12.179-9.835,2.062-2.809,8.207-12.889,1.036-18.046" transform="translate(0.709 3.108)" fill="#ebebeb"/>
            <path id="Trazado_797428" data-name="Trazado 797428" d="M427.47,320.97a27.542,27.542,0,0,0-12.311-1.189c-19.941,2.373-95.256,11.907-124.076,24.952,0,0-15.343,4.571-15.67,19.588s2.13,40.346,20.086,41.652,135.807-24.484,141.683-28.4,10.446-8.162,9.793-19.261-5.111-21.734-9.255-29.291c-2.385-4.346-6.473-6.736-10.25-8.049" transform="translate(7.342 8.52)" fill="#f5f5f5"/>
            <g id="Grupo_1064451" data-name="Grupo 1064451" transform="translate(341.214 344.362)" opacity="0.4">
              <g id="Grupo_1064450" data-name="Grupo 1064450">
                <g id="Grupo_1064449" data-name="Grupo 1064449" clip-path="url(#clip-path-12)">
                  <path id="Trazado_797429" data-name="Trazado 797429" d="M385.887,381.489a200.312,200.312,0,0,1-41.173,7.75,3.883,3.883,0,0,1-4.577-3.036c-4.339-13.894-7.317-26.856-7.707-38.043a3.884,3.884,0,0,1,3.036-4.578,314.274,314.274,0,0,1,38.729-7.961c2.1-.426,5.874-.567,7,3.647,2.923,11.3,4.839,21.427,7.138,35.162.426,2.1.541,5.654-2.443,7.058" transform="translate(-332.353 -335.419)" fill="#e0e0e0"/>
                </g>
              </g>
            </g>
            <g id="Grupo_1064454" data-name="Grupo 1064454" transform="translate(404.783 349.6)" opacity="0.4">
              <g id="Grupo_1064453" data-name="Grupo 1064453">
                <g id="Grupo_1064452" data-name="Grupo 1064452" clip-path="url(#clip-path-13)">
                  <path id="Trazado_797430" data-name="Trazado 797430" d="M404.357,345.564a5.043,5.043,0,1,1-5.043-5.043,5.043,5.043,0,0,1,5.043,5.043" transform="translate(-394.271 -340.521)" fill="#e0e0e0"/>
                </g>
              </g>
            </g>
            <g id="Grupo_1064457" data-name="Grupo 1064457" transform="translate(423.879 345.375)" opacity="0.4">
              <g id="Grupo_1064456" data-name="Grupo 1064456">
                <g id="Grupo_1064455" data-name="Grupo 1064455" clip-path="url(#clip-path-13)">
                  <path id="Trazado_797431" data-name="Trazado 797431" d="M422.957,341.449a5.043,5.043,0,1,1-5.043-5.042,5.042,5.042,0,0,1,5.043,5.042" transform="translate(-412.871 -336.406)" fill="#e0e0e0"/>
                </g>
              </g>
            </g>
            <g id="Grupo_1064460" data-name="Grupo 1064460" transform="translate(409.288 369.362)" opacity="0.4">
              <g id="Grupo_1064459" data-name="Grupo 1064459">
                <g id="Grupo_1064458" data-name="Grupo 1064458" clip-path="url(#clip-path-15)">
                  <path id="Trazado_797432" data-name="Trazado 797432" d="M408.745,364.813a5.043,5.043,0,1,1-5.043-5.043,5.043,5.043,0,0,1,5.043,5.043" transform="translate(-398.659 -359.77)" fill="#e0e0e0"/>
                </g>
              </g>
            </g>
            <g id="Grupo_1064463" data-name="Grupo 1064463" transform="translate(428.668 364.904)" opacity="0.4">
              <g id="Grupo_1064462" data-name="Grupo 1064462">
                <g id="Grupo_1064461" data-name="Grupo 1064461" clip-path="url(#clip-path-15)">
                  <path id="Trazado_797433" data-name="Trazado 797433" d="M427.622,360.471a5.043,5.043,0,1,1-5.043-5.043,5.043,5.043,0,0,1,5.043,5.043" transform="translate(-417.536 -355.428)" fill="#e0e0e0"/>
                </g>
              </g>
            </g>
            <g id="Grupo_1064466" data-name="Grupo 1064466" transform="translate(300.821 368.59)" opacity="0.4">
              <g id="Grupo_1064465" data-name="Grupo 1064465">
                <g id="Grupo_1064464" data-name="Grupo 1064464" clip-path="url(#clip-path-17)">
                  <path id="Trazado_797434" data-name="Trazado 797434" d="M303.1,364.061a5.043,5.043,0,1,1-5.043-5.043,5.043,5.043,0,0,1,5.043,5.043" transform="translate(-293.009 -359.018)" fill="#e0e0e0"/>
                </g>
              </g>
            </g>
            <g id="Grupo_1064469" data-name="Grupo 1064469" transform="translate(319.917 364.365)" opacity="0.4">
              <g id="Grupo_1064468" data-name="Grupo 1064468">
                <g id="Grupo_1064467" data-name="Grupo 1064467" clip-path="url(#clip-path-15)">
                  <path id="Trazado_797435" data-name="Trazado 797435" d="M321.695,359.946a5.043,5.043,0,1,1-5.043-5.043,5.043,5.043,0,0,1,5.043,5.043" transform="translate(-311.609 -354.903)" fill="#e0e0e0"/>
                </g>
              </g>
            </g>
            <g id="Grupo_1064472" data-name="Grupo 1064472" transform="translate(305.326 388.351)" opacity="0.4">
              <g id="Grupo_1064471" data-name="Grupo 1064471">
                <g id="Grupo_1064470" data-name="Grupo 1064470" clip-path="url(#clip-path-15)">
                  <path id="Trazado_797436" data-name="Trazado 797436" d="M307.483,383.309a5.043,5.043,0,1,1-5.043-5.043,5.043,5.043,0,0,1,5.043,5.043" transform="translate(-297.397 -378.266)" fill="#e0e0e0"/>
                </g>
              </g>
            </g>
            <g id="Grupo_1064475" data-name="Grupo 1064475" transform="translate(324.421 384.127)" opacity="0.4">
              <g id="Grupo_1064474" data-name="Grupo 1064474">
                <g id="Grupo_1064473" data-name="Grupo 1064473" clip-path="url(#clip-path-17)">
                  <path id="Trazado_797437" data-name="Trazado 797437" d="M326.083,379.194a5.043,5.043,0,1,1-5.043-5.043,5.043,5.043,0,0,1,5.043,5.043" transform="translate(-315.996 -374.151)" fill="#e0e0e0"/>
                </g>
              </g>
            </g>
            <g id="Grupo_1064481" data-name="Grupo 1064481" transform="translate(115.953 265.255)" opacity="0.4">
              <g id="Grupo_1064480" data-name="Grupo 1064480">
                <g id="Grupo_1064479" data-name="Grupo 1064479" clip-path="url(#clip-path-21)">
                  <path id="Trazado_797440" data-name="Trazado 797440" d="M121.7,265.259a4.661,4.661,0,1,1-1.864-6.323,4.662,4.662,0,0,1,1.864,6.323" transform="translate(-112.942 -258.366)" fill="#e0e0e0"/>
                </g>
              </g>
            </g>
            <g id="Grupo_1064484" data-name="Grupo 1064484" transform="translate(133.322 270.268)" opacity="0.4">
              <g id="Grupo_1064483" data-name="Grupo 1064483">
                <g id="Grupo_1064482" data-name="Grupo 1064482" clip-path="url(#clip-path-21)">
                  <path id="Trazado_797441" data-name="Trazado 797441" d="M138.617,270.141a4.662,4.662,0,1,1-1.864-6.323,4.662,4.662,0,0,1,1.864,6.323" transform="translate(-129.86 -263.249)" fill="#e0e0e0"/>
                </g>
              </g>
            </g>
            <g id="Grupo_1064487" data-name="Grupo 1064487" transform="translate(110.873 283.289)" opacity="0.4">
              <g id="Grupo_1064486" data-name="Grupo 1064486">
                <g id="Grupo_1064485" data-name="Grupo 1064485" clip-path="url(#clip-path-21)">
                  <path id="Trazado_797442" data-name="Trazado 797442" d="M116.751,282.824a4.661,4.661,0,1,1-1.864-6.323,4.662,4.662,0,0,1,1.864,6.323" transform="translate(-107.994 -275.932)" fill="#e0e0e0"/>
                </g>
              </g>
            </g>
            <g id="Grupo_1064490" data-name="Grupo 1064490" transform="translate(128.577 288.238)" opacity="0.4">
              <g id="Grupo_1064489" data-name="Grupo 1064489">
                <g id="Grupo_1064488" data-name="Grupo 1064488" clip-path="url(#clip-path-21)">
                  <path id="Trazado_797443" data-name="Trazado 797443" d="M134,287.645a4.661,4.661,0,1,1-1.864-6.323A4.662,4.662,0,0,1,134,287.645" transform="translate(-125.238 -280.753)" fill="#e0e0e0"/>
                </g>
              </g>
            </g>
            <g id="Grupo_1065513" data-name="Grupo 1065513" transform="translate(-174.993 154.71) rotate(-50)">
              <path id="Trazado_797438" data-name="Trazado 797438" d="M152.02,254.852a25.461,25.461,0,0,0-9.469-6.407C125.314,241.555,59.958,216,30.8,213.848c0,0-14.477-3.073-21.38,8.973s-16.108,33.7-2.109,42.693,121.072,40.163,127.574,39.58,12.089-2.007,16.467-11.306,5.46-19.9,5.435-27.871a16.659,16.659,0,0,0-4.763-11.065" transform="translate(0 5.692)" fill="#f5f5f5"/>
              <g id="Grupo_1064478" data-name="Grupo 1064478" transform="translate(53.169 239.083)" opacity="0.4">
                <g id="Grupo_1064477" data-name="Grupo 1064477">
                  <g id="Grupo_1064476" data-name="Grupo 1064476" clip-path="url(#clip-path-25)">
                    <path id="Trazado_797439" data-name="Trazado 797439" d="M91.174,286.1a185.137,185.137,0,0,1-36.851-11.91,3.591,3.591,0,0,1-2.374-4.488c2.621-13.2,5.933-25.037,10.562-34.291A3.591,3.591,0,0,1,67,233.033a290.6,290.6,0,0,1,34.961,10.659c1.894.583,5.017,2.136,4.068,6.054-2.62,10.462-5.545,19.534-9.75,31.7-.583,1.9-2.059,4.829-5.1,4.65" transform="translate(-51.789 -232.874)" fill="#e0e0e0"/>
                  </g>
                </g>
              </g>
              <g id="Grupo_1064493" data-name="Grupo 1064493" transform="translate(23.162 234.71)" opacity="0.4">
                <g id="Grupo_1064492" data-name="Grupo 1064492">
                  <g id="Grupo_1064491" data-name="Grupo 1064491" clip-path="url(#clip-path-21)">
                    <path id="Trazado_797444" data-name="Trazado 797444" d="M31.317,235.507a4.661,4.661,0,1,1-1.864-6.323,4.661,4.661,0,0,1,1.864,6.323" transform="translate(-22.56 -228.615)" fill="#e0e0e0"/>
                  </g>
                </g>
              </g>
              <g id="Grupo_1064496" data-name="Grupo 1064496" transform="translate(40.531 239.723)" opacity="0.4">
                <g id="Grupo_1064495" data-name="Grupo 1064495">
                  <g id="Grupo_1064494" data-name="Grupo 1064494" clip-path="url(#clip-path-27)">
                    <path id="Trazado_797445" data-name="Trazado 797445" d="M48.235,240.39a4.661,4.661,0,1,1-1.864-6.323,4.661,4.661,0,0,1,1.864,6.323" transform="translate(-39.479 -233.497)" fill="#e0e0e0"/>
                  </g>
                </g>
              </g>
              <g id="Grupo_1064499" data-name="Grupo 1064499" transform="translate(18.083 252.744)" opacity="0.4">
                <g id="Grupo_1064498" data-name="Grupo 1064498">
                  <g id="Grupo_1064497" data-name="Grupo 1064497" clip-path="url(#clip-path-21)">
                    <path id="Trazado_797446" data-name="Trazado 797446" d="M26.369,253.073A4.661,4.661,0,1,1,24.5,246.75a4.661,4.661,0,0,1,1.864,6.323" transform="translate(-17.613 -246.181)" fill="#e0e0e0"/>
                  </g>
                </g>
              </g>
              <g id="Grupo_1064502" data-name="Grupo 1064502" transform="translate(35.452 257.757)" opacity="0.4">
                <g id="Grupo_1064501" data-name="Grupo 1064501">
                  <g id="Grupo_1064500" data-name="Grupo 1064500" clip-path="url(#clip-path-21)">
                    <path id="Trazado_797447" data-name="Trazado 797447" d="M43.287,257.955a4.661,4.661,0,1,1-1.864-6.323,4.661,4.661,0,0,1,1.864,6.323" transform="translate(-34.531 -251.063)" fill="#e0e0e0"/>
                  </g>
                </g>
              </g>
            </g>
          </g>
        </g>
        <g id="Grupo_1064506" data-name="Grupo 1064506">
          <g id="Grupo_1064505" data-name="Grupo 1064505" clip-path="url(#clip-path)">
            <path id="Trazado_797448" data-name="Trazado 797448" d="M469.314,445.641c0,.151-103.875.273-231.981.273-128.151,0-232-.122-232-.273s103.852-.273,232-.273c128.107,0,231.981.122,231.981.273" transform="translate(0.142 11.874)" fill="#263238"/>
          </g>
        </g>
        <g id="Grupo_1064514" data-name="Grupo 1064514">
          <g id="Grupo_1064513" data-name="Grupo 1064513" clip-path="url(#clip-path)">
            <path id="Trazado_797449" data-name="Trazado 797449" d="M381.674,416.424s-4.615-31.728-4.231-50.188-.023-39.228-.023-39.228h2.127s-1.44,36.642.127,58.742c1.566,22.081,5.693,30.675,5.693,30.675Z" transform="translate(10.063 8.719)" fill="#288640"/>
            <path id="Trazado_797450" data-name="Trazado 797450" d="M395.506,292.324a5.6,5.6,0,0,0-1.937-2.837c-1.349-.855-3.118-.5-4.624.033-6.425,2.272-12.121,14.252-14.718,20.554l8.531,28.743c15.4-14.285,18.064-33.024,12.749-46.493" transform="translate(9.978 7.705)" fill="#288640"/>
            <path id="Trazado_797451" data-name="Trazado 797451" d="M392.849,290.607a1.647,1.647,0,0,1-.124.375l-.417,1.047c-.375.9-.9,2.221-1.527,3.853-1.257,3.264-2.856,7.827-4.287,12.968s-2.405,9.88-3.011,13.325c-.3,1.722-.533,3.119-.679,4.087-.074.452-.133.82-.182,1.113a1.648,1.648,0,0,1-.087.385,1.613,1.613,0,0,1,.017-.394c.031-.295.069-.666.116-1.122.1-.974.3-2.38.569-4.111a122.194,122.194,0,0,1,7.313-26.342c.658-1.624,1.219-2.927,1.631-3.815.194-.416.353-.754.478-1.023a1.621,1.621,0,0,1,.189-.346" transform="translate(10.199 7.748)" fill="#263238"/>
            <path id="Trazado_797452" data-name="Trazado 797452" d="M379.184,345.327a26.027,26.027,0,0,1-13.147-21.855c-.308-6.379,1.652-12.637,3.873-18.625a2.4,2.4,0,0,1,.9-1.352,2.3,2.3,0,0,1,2.181.34c5.81,3.308,9.33,9.616,11.2,16.034a32.372,32.372,0,0,1,1.316,13.185,21.909,21.909,0,0,1-6.327,12.272" transform="translate(9.758 8.087)" fill="#455a64"/>
            <path id="Trazado_797453" data-name="Trazado 797453" d="M378.989,345.2a1.6,1.6,0,0,1-.032-.385c-.005-.292-.012-.656-.021-1.1,0-.958-.041-2.343-.12-4.052a110.916,110.916,0,0,0-1.484-13.278c-.888-5.149-1.964-9.758-2.757-13.091l-.947-3.945c-.1-.436-.182-.793-.246-1.076a1.637,1.637,0,0,1-.063-.381,1.616,1.616,0,0,1,.131.362c.081.28.184.63.31,1.06.263.922.626,2.261,1.055,3.921.855,3.319,1.971,7.928,2.861,13.091a97.037,97.037,0,0,1,1.386,13.328c.047,1.715.048,3.1.008,4.063-.018.448-.033.812-.044,1.1a1.574,1.574,0,0,1-.04.384" transform="translate(9.953 8.209)" fill="#263238"/>
            <g id="Grupo_1064509" data-name="Grupo 1064509" transform="translate(375.763 311.416)" opacity="0.3">
              <g id="Grupo_1064508" data-name="Grupo 1064508">
                <g id="Grupo_1064507" data-name="Grupo 1064507" clip-path="url(#clip-path-32)">
                  <path id="Trazado_797454" data-name="Trazado 797454" d="M379.184,345.327a26.027,26.027,0,0,1-13.147-21.855c-.308-6.379,1.652-12.637,3.873-18.625a2.4,2.4,0,0,1,.9-1.352,2.3,2.3,0,0,1,2.181.34c5.81,3.308,9.33,9.616,11.2,16.034a32.372,32.372,0,0,1,1.316,13.185,21.909,21.909,0,0,1-6.327,12.272" transform="translate(-366.005 -303.329)" fill="#288640"/>
                </g>
              </g>
            </g>
            <path id="Trazado_797455" data-name="Trazado 797455" d="M387.629,391.539c7.869,1.729,14.35,7.279,21.941,9.978,5.023,1.786,10.7,2.418,14.714,5.93-.962-2.43-3.243-4.048-5.46-5.432a97.883,97.883,0,0,0-19.887-9.495c-3.572-1.233-7.446-2.264-11.087-1.247" transform="translate(10.335 10.421)" fill="#288640"/>
            <path id="Trazado_797456" data-name="Trazado 797456" d="M377.327,398.62c-9.855-.159-20.232-8.55-30.042-9.05,10.266-3.315,24.965-.608,30.042,9.05" transform="translate(9.259 10.351)" fill="#288640"/>
            <path id="Trazado_797457" data-name="Trazado 797457" d="M380.3,375.634a32.074,32.074,0,0,1,15.755-1.072,95.742,95.742,0,0,1,15.382,4.181c-.506-3.42-3.275-5.991-5.877-8.267a41.03,41.03,0,0,0-6.176-4.747,13.769,13.769,0,0,0-7.407-2.09,11.714,11.714,0,0,0-8.175,4.121,13.572,13.572,0,0,0-3.5,7.875" transform="translate(10.139 9.695)" fill="#288640"/>
            <path id="Trazado_797458" data-name="Trazado 797458" d="M361.213,364.845c-6.2-5.3-15.6-4.779-23.756-4.6A193.5,193.5,0,0,1,374.3,383.209c.331-5.766-5.25-11.673-13.087-18.364" transform="translate(8.997 9.602)" fill="#455a64"/>
            <g id="Grupo_1064512" data-name="Grupo 1064512" transform="translate(346.454 369.747)" opacity="0.3">
              <g id="Grupo_1064511" data-name="Grupo 1064511">
                <g id="Grupo_1064510" data-name="Grupo 1064510" clip-path="url(#clip-path-33)">
                  <path id="Trazado_797459" data-name="Trazado 797459" d="M361.213,364.845c-6.2-5.3-15.6-4.779-23.756-4.6A193.5,193.5,0,0,1,374.3,383.209c.331-5.766-5.25-11.673-13.087-18.364" transform="translate(-337.457 -360.145)" fill="#288640"/>
                </g>
              </g>
            </g>
            <path id="Trazado_797460" data-name="Trazado 797460" d="M383.016,358.264a69.063,69.063,0,0,1,9.541-5.545c3.265-1.483,6.312-3.847,9.466-5.555,4.089-2.215,7.632-5.292,11.386-8.038s7.877-5.223,12.47-5.951a24.54,24.54,0,0,0-11.349.656,73.368,73.368,0,0,0-10.68,4.156c-4.84,2.181-9.764,4.414-13.719,7.954s-7.532,7.032-7.114,12.323" transform="translate(10.211 8.873)" fill="#288640"/>
            <path id="Trazado_797461" data-name="Trazado 797461" d="M409.6,398.543a1.238,1.238,0,0,1-.312-.134l-.86-.446c-.741-.4-1.807-.98-3.149-1.655-.664-.351-1.4-.717-2.2-1.091-.791-.393-1.65-.78-2.56-1.173a37.5,37.5,0,0,0-6.069-2.115,13.037,13.037,0,0,0-6.321-.159,18.056,18.056,0,0,0-2.679.8,13.575,13.575,0,0,0-2.162,1.111,13.785,13.785,0,0,0-2.718,2.244c-.571.612-.849.986-.874.967a1.183,1.183,0,0,1,.177-.291,9.013,9.013,0,0,1,.6-.768,12.677,12.677,0,0,1,2.684-2.362,13.448,13.448,0,0,1,2.187-1.17,17.683,17.683,0,0,1,2.714-.846,13.139,13.139,0,0,1,6.477.132,36,36,0,0,1,6.118,2.16c.911.4,1.769.8,2.556,1.208.8.387,1.529.767,2.187,1.132,1.331.705,2.379,1.324,3.1,1.757l.827.5a1.226,1.226,0,0,1,.277.2" transform="translate(10.124 10.428)" fill="#263238"/>
            <path id="Trazado_797462" data-name="Trazado 797462" d="M369.387,393.593a2.255,2.255,0,0,1,.616.181,13.713,13.713,0,0,1,1.606.7,19.5,19.5,0,0,1,8.235,7.91,13.812,13.812,0,0,1,.761,1.577,2.195,2.195,0,0,1,.205.609c-.056.026-.424-.809-1.182-2.061a21.819,21.819,0,0,0-8.135-7.816c-1.281-.706-2.128-1.041-2.106-1.1" transform="translate(9.849 10.494)" fill="#263238"/>
            <path id="Trazado_797463" data-name="Trazado 797463" d="M348.148,364.241a2.061,2.061,0,0,1,.42.124l1.183.421,1.865.688c.727.27,1.516.668,2.409,1.063a56.916,56.916,0,0,1,12.831,8.174,62.769,62.769,0,0,1,5.983,5.892,66.123,66.123,0,0,1,4.246,5.381c1.125,1.593,1.978,2.921,2.563,3.84l.674,1.056a2.051,2.051,0,0,1,.219.381,1.991,1.991,0,0,1-.276-.34c-.172-.23-.423-.572-.73-1.022-.621-.9-1.5-2.2-2.652-3.771s-2.588-3.384-4.286-5.311a65.72,65.72,0,0,0-5.969-5.839,60.07,60.07,0,0,0-12.709-8.217c-.882-.407-1.661-.819-2.379-1.106l-1.838-.741-1.158-.483a2.072,2.072,0,0,1-.4-.191" transform="translate(9.282 9.711)" fill="#263238"/>
            <path id="Trazado_797464" data-name="Trazado 797464" d="M395.119,369.944a3.47,3.47,0,0,1-.785-.1l-.906-.166c-.352-.069-.764-.07-1.21-.116a12.394,12.394,0,0,0-6.774,1.336,12.246,12.246,0,0,0-3.082,2.287,13.992,13.992,0,0,0-1.981,2.45,20.388,20.388,0,0,0-1.354,2.585,2.869,2.869,0,0,1,.2-.768,10.92,10.92,0,0,1,.944-1.949,13.1,13.1,0,0,1,1.962-2.546,11.99,11.99,0,0,1,10.107-3.644c.453.064.869.083,1.222.17l.9.227a3.385,3.385,0,0,1,.756.235" transform="translate(10.106 9.845)" fill="#263238"/>
            <path id="Trazado_797465" data-name="Trazado 797465" d="M405.036,340a2.071,2.071,0,0,1-.373.23l-1.1.6c-.956.515-2.332,1.276-4,2.261s-3.624,2.224-5.709,3.714a47.722,47.722,0,0,0-6.375,5.341,16.212,16.212,0,0,0-2.607,3.376c-.646,1.24-1.263,2.437-1.831,3.588a65.006,65.006,0,0,0-2.738,6.234,37.808,37.808,0,0,0-1.332,4.389c-.253,1.054-.344,1.649-.378,1.644a1.961,1.961,0,0,1,.039-.436c.036-.284.1-.7.2-1.236a32.748,32.748,0,0,1,1.232-4.444,60.22,60.22,0,0,1,2.682-6.292c.561-1.158,1.173-2.361,1.815-3.6a16.313,16.313,0,0,1,2.66-3.462,46.3,46.3,0,0,1,6.439-5.36c2.107-1.484,4.087-2.692,5.772-3.665s3.089-1.689,4.067-2.167l1.13-.539a1.967,1.967,0,0,1,.4-.166" transform="translate(10.094 9.065)" fill="#263238"/>
            <path id="Trazado_797466" data-name="Trazado 797466" d="M377.6,369.594a4.045,4.045,0,0,1-.2-.831c-.115-.608-.259-1.371-.43-2.277A58.324,58.324,0,0,0,372.3,352l-.961-2.11a4.042,4.042,0,0,1-.316-.793,3.963,3.963,0,0,1,.439.732c.262.481.629,1.184,1.063,2.064a48.677,48.677,0,0,1,4.7,14.548c.154.969.265,1.755.321,2.3a4.03,4.03,0,0,1,.061.851" transform="translate(9.892 9.308)" fill="#263238"/>
            <path id="Trazado_797467" data-name="Trazado 797467" d="M377.438,347.959a26.732,26.732,0,0,0-3.205-10.64,35.126,35.126,0,0,0-23.806-17.753l22.04,32.85,2.846,5.863a16.853,16.853,0,0,0,2.125-10.32" transform="translate(9.343 8.52)" fill="#288640"/>
            <rect id="Rectángulo_373712" data-name="Rectángulo 373712" width="51.249" height="9.084" transform="translate(367.148 421.218)" fill="#74c67b"/>
            <path id="Trazado_797468" data-name="Trazado 797468" d="M361.341,417.372l4.364,28.185h34.023l5.208-28.185Z" transform="translate(9.634 11.128)" fill="#74c67b"/>
            <path id="Trazado_797469" data-name="Trazado 797469" d="M408.845,419.143c0,.1-11.561.181-25.817.181s-25.819-.081-25.819-.181,11.557-.18,25.819-.18,25.817.08,25.817.18" transform="translate(9.524 11.17)" fill="#263238"/>
          </g>
        </g>
        <g id="Grupo_1064528" data-name="Grupo 1064528">
          <g id="Grupo_1064527" data-name="Grupo 1064527" clip-path="url(#clip-path)">
            <path id="Trazado_797470" data-name="Trazado 797470" d="M386.609,52.025c-53.7-36.387-100.352.957-121.323,24.886L254.475,112.9l46.664,5.4L262.117,178.51l36.306,4.868-42.363,60.644,27.71,5.014-30.853,52.835,19.282-47.82s-32.394-.388-33.551,0,40.25-59.592,40.25-59.592l-34.635-2.7,35.925-65.313-41.811-2.184s4.4-28.029,8.188-44.654c-18.008-25.812-64.283-75.72-123.7-27.58-71.211,57.7-15.583,145.354,10.341,180.065,20.023,26.812,79.719,80.462,121.532,98.152,41.813-17.69,97.2-65.017,121.531-98.152,20.575-28.021,83.31-130.616,10.341-180.065" transform="translate(2.345 0.85)" fill="#59bee2"/>
            <g id="Grupo_1064517" data-name="Grupo 1064517" transform="translate(179.985 203.131)" opacity="0.3">
              <g id="Grupo_1064516" data-name="Grupo 1064516">
                <g id="Grupo_1064515" data-name="Grupo 1064515" clip-path="url(#clip-path-35)">
                  <path id="Trazado_797471" data-name="Trazado 797471" d="M176.8,233.852s66.558-1.72,106.153-12.278,73.441-23.717,73.441-23.717L175.312,234.084" transform="translate(-175.311 -197.856)"/>
                </g>
              </g>
            </g>
            <path id="Trazado_797472" data-name="Trazado 797472" d="M352.9,118.6a38.088,38.088,0,0,0-17.03-1.644c-27.583,3.281-131.767,16.471-171.633,34.515,0,0-21.224,6.322-21.676,27.1s2.947,55.81,27.784,57.617,187.862-33.87,195.99-39.289,14.451-11.289,13.548-26.643-7.069-30.066-12.8-40.518c-3.3-6.012-8.953-9.317-14.178-11.134" transform="translate(3.8 3.11)" fill="#ffc985"/>
            <g id="Grupo_1064520" data-name="Grupo 1064520" transform="translate(227.225 142.281)" opacity="0.4">
              <g id="Grupo_1064519" data-name="Grupo 1064519">
                <g id="Grupo_1064518" data-name="Grupo 1064518" clip-path="url(#clip-path-36)">
                  <path id="Trazado_797473" data-name="Trazado 797473" d="M295.379,202.315a277.026,277.026,0,0,1-56.954,10.72,5.372,5.372,0,0,1-6.332-4.2c-6-19.221-10.121-37.151-10.661-52.626a5.373,5.373,0,0,1,4.2-6.331,434.675,434.675,0,0,1,53.574-11.014c2.908-.589,8.124-.782,9.68,5.046,4.043,15.625,6.693,29.641,9.873,48.639.589,2.908.748,7.821-3.38,9.764" transform="translate(-221.324 -138.586)" fill="#fcf5e9"/>
                </g>
              </g>
            </g>
            <path id="Trazado_797474" data-name="Trazado 797474" d="M320.928,152.62a6.976,6.976,0,1,1-6.976-6.976,6.976,6.976,0,0,1,6.976,6.976" transform="translate(8.185 3.883)" fill="#ff9b6c"/>
            <path id="Trazado_797475" data-name="Trazado 797475" d="M346.657,146.928a6.976,6.976,0,1,1-6.976-6.976,6.976,6.976,0,0,1,6.976,6.976" transform="translate(8.871 3.731)" fill="#ff9b6c"/>
            <path id="Trazado_797476" data-name="Trazado 797476" d="M327,179.246a6.976,6.976,0,1,1-6.976-6.976A6.976,6.976,0,0,1,327,179.246" transform="translate(8.346 4.593)" fill="#ff9b6c"/>
            <path id="Trazado_797477" data-name="Trazado 797477" d="M353.11,173.24a6.976,6.976,0,1,1-6.976-6.976,6.976,6.976,0,0,1,6.976,6.976" transform="translate(9.043 4.433)" fill="#ff9b6c"/>
            <path id="Trazado_797478" data-name="Trazado 797478" d="M180.853,178.206a6.976,6.976,0,1,1-6.976-6.976,6.976,6.976,0,0,1,6.976,6.976" transform="translate(4.45 4.565)" fill="#ff9b6c"/>
            <path id="Trazado_797479" data-name="Trazado 797479" d="M206.582,172.514a6.976,6.976,0,1,1-6.976-6.976,6.976,6.976,0,0,1,6.976,6.976" transform="translate(5.136 4.414)" fill="#ff9b6c"/>
            <path id="Trazado_797480" data-name="Trazado 797480" d="M186.922,204.832a6.976,6.976,0,1,1-6.976-6.976,6.976,6.976,0,0,1,6.976,6.976" transform="translate(4.612 5.275)" fill="#ff9b6c"/>
            <path id="Trazado_797481" data-name="Trazado 797481" d="M212.651,199.14a6.976,6.976,0,1,1-6.976-6.976,6.976,6.976,0,0,1,6.976,6.976" transform="translate(5.298 5.123)" fill="#ff9b6c"/>
            <g id="Grupo_1064523" data-name="Grupo 1064523" transform="translate(284.124 53.973)" opacity="0.1">
              <g id="Grupo_1064522" data-name="Grupo 1064522">
                <g id="Grupo_1064521" data-name="Grupo 1064521" clip-path="url(#clip-path-37)">
                  <path id="Trazado_797482" data-name="Trazado 797482" d="M388.837,78.107c-12.382-16.806-33.7-26.03-54.571-25.516-18.94.467-37.268,8.454-51.7,20.787a15.876,15.876,0,0,0-5.788,12.97c.688,10.244,11.444,12.454,18.2,14.822a60.107,60.107,0,0,0,18.225,3.174,90.716,90.716,0,0,1,67.147,33.463,9.95,9.95,0,0,0,4.1,3.141c4.351,1.676,6.6-1.162,8.244-3.892,10.751-17.894,8.524-42.142-3.857-58.949" transform="translate(-276.745 -52.571)" fill="#fff"/>
                </g>
              </g>
            </g>
            <g id="Grupo_1064526" data-name="Grupo 1064526" transform="translate(271.758 233.826)" opacity="0.1">
              <g id="Grupo_1064525" data-name="Grupo 1064525">
                <g id="Grupo_1064524" data-name="Grupo 1064524" clip-path="url(#clip-path-38)">
                  <path id="Trazado_797483" data-name="Trazado 797483" d="M268.732,293.794c-1.812,1.536-3.756,3.308-4.013,5.669s2.449,4.906,4.414,3.571c22.435-15.131,42.8-31.113,61.886-50.3,7.054-7.09,14.18-15.089,15.64-24.983l-77.927,66.04" transform="translate(-264.701 -227.754)" fill="#fff"/>
                </g>
              </g>
            </g>
          </g>
        </g>
        <g id="Grupo_1064530" data-name="Grupo 1064530">
          <g id="Grupo_1064529" data-name="Grupo 1064529" clip-path="url(#clip-path)">
            <path id="Trazado_797484" data-name="Trazado 797484" d="M135.091,411.112l-2.053,21.377s23.3,8.7,23.553,13.011l-44.05.12.025-3.222,1.847-11,2.724-21.361Z" transform="translate(3.001 10.932)" fill="#727997"/>
            <path id="Trazado_797485" data-name="Trazado 797485" d="M119.624,428.676a1.841,1.841,0,0,0-1.278,2.1,1.768,1.768,0,0,0,2.068,1.285,1.94,1.94,0,0,0,1.342-2.229,1.836,1.836,0,0,0-2.3-1.1" transform="translate(3.154 11.427)" fill="#e0e0e0"/>
            <path id="Trazado_797486" data-name="Trazado 797486" d="M112.541,444.779l.025-3.222,42.251.811s2,.878,1.774,2.29Z" transform="translate(3.001 11.773)" fill="#263238"/>
            <path id="Trazado_797487" data-name="Trazado 797487" d="M133.324,431.689c-.008.22-1.109.317-2.193,1.021-1.1.678-1.665,1.629-1.866,1.542-.2-.044.128-1.358,1.457-2.19s2.651-.576,2.6-.374" transform="translate(3.445 11.504)" fill="#263238"/>
            <path id="Trazado_797488" data-name="Trazado 797488" d="M137.9,433.6c.05.214-.9.585-1.654,1.514-.778.908-.969,1.914-1.188,1.9-.207.034-.356-1.256.6-2.393s2.239-1.234,2.243-1.025" transform="translate(3.597 11.558)" fill="#263238"/>
            <path id="Trazado_797489" data-name="Trazado 797489" d="M140.427,439.217c-.2.046-.5-1.054.065-2.259s1.6-1.681,1.692-1.5c.123.181-.546.826-1,1.821-.474.986-.54,1.913-.759,1.934" transform="translate(3.737 11.609)" fill="#263238"/>
            <path id="Trazado_797490" data-name="Trazado 797490" d="M134.862,426.7c-.093.2-1.1-.106-2.348-.025-1.245.056-2.215.471-2.327.282-.128-.159.819-.972,2.286-1.047s2.5.617,2.389.789" transform="translate(3.471 11.355)" fill="#263238"/>
            <path id="Trazado_797491" data-name="Trazado 797491" d="M82.348,411.7l-1.887,21.013s22.942,8.41,23.217,12.64l-43.275.384.005-3.165,1.748-10.815,2.546-21Z" transform="translate(1.61 10.952)" fill="#727997"/>
            <path id="Trazado_797492" data-name="Trazado 797492" d="M67.265,429.046a1.808,1.808,0,0,0-1.243,2.069,1.738,1.738,0,0,0,2.039,1.249,1.906,1.906,0,0,0,1.306-2.2A1.8,1.8,0,0,0,67.1,429.1" transform="translate(1.759 11.437)" fill="#e0e0e0"/>
            <path id="Trazado_797493" data-name="Trazado 797493" d="M60.4,444.907l.005-3.165,41.512.542s1.974.85,1.757,2.239Z" transform="translate(1.61 11.778)" fill="#263238"/>
            <path id="Trazado_797494" data-name="Trazado 797494" d="M80.743,431.923c-.006.217-1.087.318-2.149,1.017-1.08.671-1.625,1.61-1.824,1.526-.2-.042.118-1.336,1.419-2.16s2.6-.582,2.554-.383" transform="translate(2.045 11.511)" fill="#263238"/>
            <path id="Trazado_797495" data-name="Trazado 797495" d="M85.245,433.775c.05.209-.885.58-1.616,1.5-.759.9-.94,1.885-1.155,1.877-.2.035-.358-1.231.573-2.354s2.193-1.227,2.2-1.021" transform="translate(2.195 11.563)" fill="#263238"/>
            <path id="Trazado_797496" data-name="Trazado 797496" d="M87.766,439.275c-.2.046-.5-1.033.049-2.219s1.562-1.662,1.654-1.483c.122.178-.532.816-.969,1.8-.461.97-.519,1.883-.734,1.9" transform="translate(2.333 11.612)" fill="#263238"/>
            <path id="Trazado_797497" data-name="Trazado 797497" d="M82.223,427.01c-.09.2-1.083-.1-2.3-.01-1.224.063-2.173.476-2.287.292-.125-.156.8-.96,2.241-1.042s2.457.59,2.351.761" transform="translate(2.069 11.364)" fill="#263238"/>
            <path id="Trazado_797498" data-name="Trazado 797498" d="M136.616,230.006s10.441,30.239,10.8,52.734.72,58.267-3.961,97.726-6.841,55.317-6.841,55.317H112.853a465.539,465.539,0,0,1-2.16-46.834c.36-22.127,2.09-29.134-.035-53.473s-5.488-38.959-9.027-46.334c0,0-9.809-11.659-10.528-27.653a77.965,77.965,0,0,1,4.94-29.739Z" transform="translate(2.427 6.132)" fill="#12263f"/>
            <path id="Trazado_797499" data-name="Trazado 797499" d="M116.332,272.4c-.4,1.215-7.446,50.792-12.591,72.659S92.874,372.708,91.871,390.5c-1.154,20.459-6.772,45.251-6.772,45.251H59.8s3.558-37.818,7.117-67.379,8.7-66.007,7.906-76.941-2.767-24.437,0-39.754,8.751-19.357,8.751-19.357l21.466-.972Z" transform="translate(1.594 6.168)" fill="#12263f"/>
            <path id="Trazado_797500" data-name="Trazado 797500" d="M91.721,243.708a5.409,5.409,0,0,0-.392.77,15.156,15.156,0,0,0-.858,2.328,30.77,30.77,0,0,0-.835,9.06,59.81,59.81,0,0,0,2.08,13.344,42.769,42.769,0,0,0,2.762,7.5,53.187,53.187,0,0,0,4.572,7.255c3.439,4.739,5.137,10.135,6.424,15.008a106.861,106.861,0,0,1,2.4,13.23c.467,3.8.747,6.9.957,9.033q.156,1.546.247,2.459a5.211,5.211,0,0,0,.121.855,5.14,5.14,0,0,0-.014-.863q-.055-.916-.148-2.467c-.148-2.142-.371-5.241-.791-9.06a101.782,101.782,0,0,0-2.3-13.307,64.554,64.554,0,0,0-2.394-7.621,37.388,37.388,0,0,0-1.766-3.858,39.978,39.978,0,0,0-2.3-3.707,53.734,53.734,0,0,1-4.543-7.184,42.949,42.949,0,0,1-2.756-7.406,61.128,61.128,0,0,1-2.177-13.226,32.193,32.193,0,0,1,.659-9,18.115,18.115,0,0,1,.758-2.337,5.3,5.3,0,0,0,.294-.812" transform="translate(2.389 6.498)" fill="#455a64"/>
            <path id="Trazado_797501" data-name="Trazado 797501" d="M110.821,95.736l-46.66.661c-5.937,7.2-6.865,14.872-7.17,23.948s-1.144,18.39,4.236,25.96c1,1.4,2.218,2.844,3.965,3.266l31.452.441c12.12-.286,24.935-.762,35.118-6.9-9.534-4.7-14.93-38.393-20.941-47.381" transform="translate(1.513 2.553)" fill="#263238"/>
            <path id="Trazado_797502" data-name="Trazado 797502" d="M114.643,115.273c-.27-6.355-.93-12.835-3.579-18.62A19.614,19.614,0,0,0,96.84,85.819c-6.977-1.438-13.679.708-19.338,5.036-5.618-.519-11.115,2.469-14.39,7.062-5.8,8.179-4.3,24.431,1.479,32.622,2.186,3.615,11.1,12.275,15.013,13.87,6.026,2.458,11.664-2.481,18.058-3.7s12.443-5.2,15.139-11.128c2.011-4.419,2.047-9.457,1.841-14.308" transform="translate(1.585 2.276)" fill="#263238"/>
            <path id="Trazado_797503" data-name="Trazado 797503" d="M69.19,104.946l-.679-3.807,22.246-7.982c6.954-1.864,15.719,4.015,17.286,11.042C109.785,112,111.6,121.6,111.6,127.634c-.011,12.126-8.841,15.063-8.841,15.063l1.8,11.751L80.93,158.484Z" transform="translate(1.827 2.474)" fill="#ae7461"/>
            <path id="Trazado_797504" data-name="Trazado 797504" d="M105.385,114.552a1.536,1.536,0,0,1-1.222,1.762,1.469,1.469,0,0,1-1.779-1.121,1.536,1.536,0,0,1,1.219-1.762,1.47,1.47,0,0,1,1.782,1.121" transform="translate(2.729 3.023)" fill="#263238"/>
            <path id="Trazado_797505" data-name="Trazado 797505" d="M105.434,109.475c-.157.227-1.44-.441-3.073-.18-1.633.238-2.7,1.267-2.908,1.1-.1-.075.034-.462.5-.924a4.21,4.21,0,0,1,2.289-1.122,4.045,4.045,0,0,1,2.485.39c.563.306.79.638.71.74" transform="translate(2.651 2.887)" fill="#263238"/>
            <path id="Trazado_797506" data-name="Trazado 797506" d="M90.843,116.444a1.537,1.537,0,0,1-1.222,1.762,1.469,1.469,0,0,1-1.779-1.121,1.535,1.535,0,0,1,1.22-1.762,1.469,1.469,0,0,1,1.781,1.121" transform="translate(2.341 3.074)" fill="#263238"/>
            <path id="Trazado_797507" data-name="Trazado 797507" d="M89.444,111.977c-.157.227-1.442-.441-3.073-.18-1.633.238-2.7,1.267-2.909,1.1-.1-.075.033-.462.5-.924a4.206,4.206,0,0,1,2.288-1.122,4.054,4.054,0,0,1,2.486.39c.561.306.788.638.71.74" transform="translate(2.224 2.954)" fill="#263238"/>
            <path id="Trazado_797508" data-name="Trazado 797508" d="M97,123.178a10.89,10.89,0,0,1,2.575-.9c.411-.11.793-.255.817-.55a2.15,2.15,0,0,0-.473-1.192l-1.733-2.979c-2.426-4.249-4.251-7.77-4.08-7.866s2.277,3.27,4.7,7.519l1.686,3.007a2.448,2.448,0,0,1,.474,1.6,1.063,1.063,0,0,1-.588.719,2.862,2.862,0,0,1-.694.209,10.791,10.791,0,0,1-2.686.428" transform="translate(2.509 2.925)" fill="#263238"/>
            <path id="Trazado_797509" data-name="Trazado 797509" d="M102.351,141.477a31.709,31.709,0,0,1-16.917-1.686s5.3,7.653,17.375,4.636Z" transform="translate(2.278 3.727)" fill="#6f4439"/>
            <path id="Trazado_797510" data-name="Trazado 797510" d="M90.449,108.537c-.242.412-1.826-.1-3.775-.22-1.947-.161-3.587.113-3.767-.33-.078-.212.266-.577.967-.89a6.572,6.572,0,0,1,5.746.419c.648.411.936.823.829,1.021" transform="translate(2.21 2.843)" fill="#263238"/>
            <path id="Trazado_797511" data-name="Trazado 797511" d="M104.248,106.025c-.225.418-1.413.221-2.766.428-1.36.16-2.452.665-2.78.321-.147-.168-.029-.57.413-1a4.051,4.051,0,0,1,4.468-.6c.541.3.762.656.665.858" transform="translate(2.63 2.793)" fill="#263238"/>
            <path id="Trazado_797512" data-name="Trazado 797512" d="M96.262,126.845a2.92,2.92,0,0,0-2.664-.962,2.663,2.663,0,0,0-1.793,1.072,1.688,1.688,0,0,0-.039,1.934,1.959,1.959,0,0,0,2.147.438A6.152,6.152,0,0,0,95.924,128a1.8,1.8,0,0,0,.439-.5.538.538,0,0,0-.031-.6" transform="translate(2.439 3.355)" fill="#6f4439"/>
            <path id="Trazado_797513" data-name="Trazado 797513" d="M70.313,92.984c.709-1.141,7.79-1.256,9.105-1.62,0,0,6-5.667,14.249-5.123,16.918,1.114,15.05,17.33,15.05,17.33L98.3,104.14c-1.952.948-8.114.181-10.117-.659a7.533,7.533,0,0,1-4.231-4.6c.5,1.911-3.531,9.291-4.616,10.954-2.4,3.679-.032,26.549,8.842,40.434-5.2,0-9.629-.4-9.629-.4-7.088-13.011-16.508-45.031-15.423-49.272.323-1.265,6.491-6.5,7.185-7.615" transform="translate(1.681 2.298)" fill="#263238"/>
            <path id="Trazado_797514" data-name="Trazado 797514" d="M96.655,128.669a15.138,15.138,0,0,1-3.234-.932,15.129,15.129,0,0,1-3.17-1.134,8.212,8.212,0,0,1,3.338.614,8.213,8.213,0,0,1,3.067,1.453" transform="translate(2.406 3.374)" fill="#263238"/>
            <path id="Trazado_797515" data-name="Trazado 797515" d="M79.257,121.51c-.235-.925-1.854-2.838-2.8-2.749-2.536.234-6.885,1.539-5.364,7.746,2.079,8.486,10.17,4.649,10.125,4.4-.035-.193-1.143-6.206-1.956-9.4" transform="translate(1.887 3.166)" fill="#ae7461"/>
            <path id="Trazado_797516" data-name="Trazado 797516" d="M77.658,127.741c-.04-.016-.113.128-.317.291a1.4,1.4,0,0,1-1.013.271c-.9-.1-1.917-1.242-2.3-2.643a4.632,4.632,0,0,1-.1-2.044,1.617,1.617,0,0,1,.769-1.3.713.713,0,0,1,.894.176c.159.193.147.361.192.364.027.014.136-.171-.006-.478a.889.889,0,0,0-.428-.415,1.06,1.06,0,0,0-.8-.015,1.973,1.973,0,0,0-1.125,1.562,4.748,4.748,0,0,0,.062,2.295c.435,1.564,1.6,2.84,2.814,2.89a1.5,1.5,0,0,0,1.2-.512c.2-.252.193-.437.162-.445" transform="translate(1.955 3.25)" fill="#6f4439"/>
            <path id="Trazado_797517" data-name="Trazado 797517" d="M78.09,151.827l26.717-1.05s25.183,12.74,26.063,35.407c.915,23.567,7.045,46.342,7.045,46.342l-39.983,4.926a46.106,46.106,0,0,1-12.525-.173l-4.164-.629,3.968-15.009C80.858,206.729,76.952,199.935,72.3,186a84.225,84.225,0,0,1-4.524-23.017,10.713,10.713,0,0,1,10.31-11.16" transform="translate(1.807 4.02)" fill="#ccd3d6"/>
            <path id="Trazado_797518" data-name="Trazado 797518" d="M84.868,221.294a11.7,11.7,0,0,0,2.716.781,40.291,40.291,0,0,0,13.584.524,11.7,11.7,0,0,0,2.767-.57,20.992,20.992,0,0,0-2.807.2,54.3,54.3,0,0,1-13.475-.519,20.959,20.959,0,0,0-2.784-.416" transform="translate(2.263 5.9)" fill="#263238"/>
            <path id="Trazado_797519" data-name="Trazado 797519" d="M169.207,150.115l-30.972,13.816L108.7,158.353l11.138,23.739s10.462,2.365,19.2-1.425,35.906-22.684,35.906-22.684Z" transform="translate(2.898 4.002)" fill="#ae7461"/>
            <path id="Trazado_797520" data-name="Trazado 797520" d="M174.253,158.674s7.546-.178,9.1-.846,6.147-3.607,8.458-3.9A1.394,1.394,0,0,0,190.383,152a15.792,15.792,0,0,0-6.273,1.179c-1.272.627-1.621-.382-1.138-1.3s4.788-6.5,4.788-6.5,3.85-6.1,3.781-7.15a1.417,1.417,0,0,0-1.864-1.21c-.464.2-3.9,5.059-3.9,5.059l-2.335,2.73s6.762-9.019,6.593-10.134a1.222,1.222,0,0,0-1.65-1.071c-.649.138-3.593,4.148-3.593,4.148l-4.337,5.119,6.553-10.759s.489-1.1-.3-1.606-2.024.362-2.024.362l-7.733,10.511s4.026-6,3.8-6.573c-.3-.763-.9-.918-1.362-.548a70.987,70.987,0,0,0-4.772,6.028l-6.765,10.355-8.32,4.745,7.077,7.841Z" transform="translate(4.253 3.475)" fill="#ae7461"/>
            <path id="Trazado_797521" data-name="Trazado 797521" d="M131.747,181.263s16.634,23.2,17.288,23.572,51.48,13.351,51.916,13.952-1.378,10.387-1.378,10.387-49.012-1.036-59.482-6.828-27.922-28.464-27.049-28.908,18.7-12.175,18.7-12.175" transform="translate(3.013 4.833)" fill="#ae7461"/>
            <path id="Trazado_797522" data-name="Trazado 797522" d="M209.6,211.575c.188,1.548-.846,2.882-2.415,3.773a2.323,2.323,0,0,0-1.138,2.549,63.292,63.292,0,0,0,8.343.664c2.695-.135,8.222-1.037,9.754-.206s1.776,2.256-.193,2.4-8.392,1.089-8.542,1.755,10.6,2.824,10.761,3.774.064,2.811-2.433,1.844a59.51,59.51,0,0,0-8.225-1.912s8.78,3.623,7.936,4.857-1.7.853-3.219.321-7.98-1.8-7.98-1.8,7.042,3.58,6.32,4.869-.952,1.478-2.362.7-15.864-5.465-16.353-5.683l-5.137-2.292,2.681-8.165,2.055-1.728s4.809-4.59,6.751-5.335,3.206-1.937,3.394-.389" transform="translate(5.192 5.621)" fill="#ae7461"/>
            <path id="Trazado_797523" data-name="Trazado 797523" d="M124.23,165.624c-5.192-6.179-12.944-13.668-19.266-14.752s-14.712,3.49-14.712,3.49l10.1,24.9,15.389,21.116,23.8-14.606S129.422,171.8,124.23,165.624" transform="translate(2.406 4.018)" fill="#ccd3d6"/>
            <path id="Trazado_797524" data-name="Trazado 797524" d="M110.524,192.152c-.014.012-.133-.1-.347-.316s-.527-.546-.91-.984c-.773-.87-1.855-2.162-3.1-3.829a68.552,68.552,0,0,1-8.081-14.09A28.245,28.245,0,0,1,95.6,164.3a13.08,13.08,0,0,1,.233-3.948,10.736,10.736,0,0,1,1.3-3.195,8.36,8.36,0,0,1,3.639-3.331,5.485,5.485,0,0,1,1.285-.415,1.507,1.507,0,0,1,.468-.054c.014.059-.637.147-1.661.661a8.478,8.478,0,0,0-3.4,3.337,10.543,10.543,0,0,0-1.188,3.093,12.827,12.827,0,0,0-.175,3.808,28.644,28.644,0,0,0,2.481,8.457,75.172,75.172,0,0,0,7.891,14.077c1.2,1.688,2.231,3.012,2.952,3.92a12.337,12.337,0,0,1,1.093,1.437" transform="translate(2.548 4.089)" fill="#263238"/>
          </g>
        </g>
        <g id="Grupo_1064532" data-name="Grupo 1064532">
          <g id="Grupo_1064531" data-name="Grupo 1064531" clip-path="url(#clip-path)">
            <path id="Trazado_797525" data-name="Trazado 797525" d="M122.92,84.177l8.278-4.816a30.824,30.824,0,1,0-9.888-4.916l-.016-.006Z" transform="translate(2.905 0.507)" fill="#fff"/>
            <path id="Trazado_797526" data-name="Trazado 797526" d="M122.926,84.185s-.025-.235-.087-.663c-.068-.456-.162-1.081-.282-1.886-.259-1.67-.631-4.085-1.116-7.212l-.194.156.016.006a.142.142,0,0,0,.186-.078.145.145,0,0,0-.047-.169A30.821,30.821,0,0,1,112,62.654a30.969,30.969,0,0,1-1.8-20.411A30.432,30.432,0,0,1,153.09,22.495l1.67.85,1.58.995a32.752,32.752,0,0,1,2.988,2.19,30.889,30.889,0,0,1,10.411,18.176,30.614,30.614,0,0,1-38.5,34.527l-.111.016-6.07,3.631-1.584.959c-.359.218-.55.346-.55.346a5.636,5.636,0,0,0,.522-.277l1.582-.884,6.245-3.533-.11.013a30.64,30.64,0,0,0,15.139.572A31.107,31.107,0,0,0,170.371,44.6a31.478,31.478,0,0,0-10.614-18.579,33.161,33.161,0,0,0-3.051-2.238l-1.615-1.017-1.707-.87A31.044,31.044,0,0,0,109.656,42.1a30.767,30.767,0,0,0-.733,11.191A30.436,30.436,0,0,0,111.6,62.84a30.813,30.813,0,0,0,9.629,11.728l.139-.247-.015-.006a.143.143,0,0,0-.186.077.154.154,0,0,0-.008.08c.566,3.158,1,5.6,1.3,7.281l.339,1.837c.077.408.118.608.123.6" transform="translate(2.898 0.499)" fill="#263238"/>
            <path id="Trazado_797527" data-name="Trazado 797527" d="M138.786,64.494,122.608,53.671l3.776-5.646,10.849,7.256,13.5-17.863,5.419,4.094Z" transform="translate(3.269 0.998)" fill="#74c67b"/>
          </g>
        </g>
      </g>
    </g>
  </g>
</svg>
