<svg xmlns="http://www.w3.org/2000/svg" xmlns:xlink="http://www.w3.org/1999/xlink" width="81" height="81" viewBox="0 0 81 81">
  <defs>
    <clipPath id="clip-path">
      <circle id="Elipse_8285" data-name="Elipse 8285" cx="40.5" cy="40.5" r="40.5" transform="translate(360.159 1549.159)" fill="#288640"/>
    </clipPath>
  </defs>
  <g id="Enmascarar_grupo_1064338" data-name="Enmascarar grupo 1064338" transform="translate(-360.159 -1549.159)" clip-path="url(#clip-path)">
    <g id="Page-1" transform="translate(374.056 1563.564)">
      <g id="_018---Government-Policy" data-name="018---Government-Policy" transform="translate(0 0)">
        <path id="Shape" d="M48.92,31.755H39.479V28.322a.858.858,0,1,0,0-1.716h-.057a7.871,7.871,0,0,0-5.093-6.216V4.291A4.3,4.3,0,0,0,30.039,0H4.291A4.484,4.484,0,0,0,1.4,1.116,4.3,4.3,0,0,0,0,4.291V15.448a1.716,1.716,0,0,0,1.716,1.716H6.866V40.338a2.575,2.575,0,0,0,2.575,2.575h2.575V48.92a2.575,2.575,0,0,0,2.575,2.575H47.2a2.575,2.575,0,0,0,2.575-2.575V36.749a2.449,2.449,0,0,0,.95-.595,2.519,2.519,0,0,0,.766-1.825A2.575,2.575,0,0,0,48.92,31.755Zm-36.9,2.575a.839.839,0,0,1,.263-.611.821.821,0,0,1,.6-.247H25.928l-2.194,1.716H12.874A.858.858,0,0,1,12.015,34.33Zm20.576-7.724H29.2c.161-3.347,1.234-5.149,1.694-5.149S32.43,23.258,32.591,26.606Zm-5.106,0H24.109a6.253,6.253,0,0,1,4.363-4.756A13.589,13.589,0,0,0,27.485,26.606ZM36.9,38.621H24.889V36.9H36.9ZM24.889,40.338h2.575v9.441H24.889Zm4.291,0h3.433v9.441H29.18Zm5.149,0H36.9v9.441H34.33Zm-7.819-5.149,2.448-1.924a.849.849,0,0,0,.076-.059l1.848-1.45,4.392,3.433Zm7.161-3.433L31.94,30.4a1.693,1.693,0,0,0-2.087,0l-1.732,1.356h-4.09V28.322H37.763v3.433Zm4.012-5.149H34.308a13.589,13.589,0,0,0-.987-4.756,6.253,6.253,0,0,1,4.363,4.756ZM6.866,15.448H1.716V4.291a2.584,2.584,0,0,1,.843-1.906,2.55,2.55,0,0,1,1.732-.669q.128,0,.257.013A2.675,2.675,0,0,1,6.866,4.439ZM9.441,41.2a.858.858,0,0,1-.858-.858V4.439a4.509,4.509,0,0,0-.931-2.722H30.039a2.575,2.575,0,0,1,2.575,2.575V19.9A9.55,9.55,0,0,0,30.9,19.74c-4.41,0-8.049,3.01-8.526,6.866h-.057a.858.858,0,0,0,0,1.716v3.433H12.874a2.568,2.568,0,0,0-.858,4.992V41.2Zm4.291,7.724V36.9h9.441V49.778H21.456V41.625a3,3,0,1,0-6.008,0v8.153H14.59A.858.858,0,0,1,13.732,48.92Zm3.433.858V41.625a1.287,1.287,0,1,1,2.575,0v8.153Zm24.889,0V41.625a1.287,1.287,0,1,1,2.575,0v8.153Zm6.008-.858a.858.858,0,0,1-.858.858h-.858V41.625a3,3,0,1,0-6.008,0v8.153H38.621V36.9h9.441Zm1.454-13.979a.821.821,0,0,1-.6.247H38.059l-2.194-1.716H48.92a.858.858,0,0,1,.858.858A.839.839,0,0,1,49.516,34.941Z" transform="translate(0)" fill="#12263f"/>
        <path id="Shape-2" data-name="Shape" d="M26.78,14.315a.858.858,0,0,0,.607.251h.039a.858.858,0,0,0,.621-.308l4.291-5.149a.859.859,0,1,0-1.32-1.1l-3.69,4.428-.194-.194a.858.858,0,0,0-1.214,1.214Z" transform="translate(-8.506 -2.551)" fill="#12263f"/>
        <path id="Shape-3" data-name="Shape" d="M17.541,23.533H34.706a.858.858,0,0,0,0-1.716H17.541a.858.858,0,1,0,0,1.716Z" transform="translate(-5.526 -7.226)" fill="#12263f"/>
        <path id="Shape-4" data-name="Shape" d="M17.541,29.949h10.3a.858.858,0,0,0,0-1.716h-10.3a.858.858,0,0,0,0,1.716Z" transform="translate(-5.526 -9.351)" fill="#12263f"/>
        <path id="Shape-5" data-name="Shape" d="M17.541,36.366h6.866a.858.858,0,0,0,0-1.716H17.541a.858.858,0,1,0,0,1.716Z" transform="translate(-5.526 -11.477)" fill="#12263f"/>
        <path id="Shape-6" data-name="Shape" d="M17.541,42.783h6.008a.858.858,0,0,0,0-1.716H17.541a.858.858,0,0,0,0,1.716Z" transform="translate(-5.526 -13.602)" fill="#12263f"/>
      </g>
    </g>
  </g>
</svg>
