<svg xmlns="http://www.w3.org/2000/svg" xmlns:xlink="http://www.w3.org/1999/xlink" width="186.514" height="304.364" viewBox="0 0 186.514 304.364">
  <defs>
    <clipPath id="clip-path">
      <path id="Trazado_801467" data-name="Trazado 801467" d="M1525.1,118.533A70.432,70.432,0,1,1,1454.67,48.1a70.433,70.433,0,0,1,70.432,70.433" transform="translate(-1384.237 -48.1)" fill="#12263f"/>
    </clipPath>
  </defs>
  <g id="Grupo_1065528" data-name="Grupo 1065528" transform="translate(-495.709 -4617.747)">
    <path id="Trazado_801803" data-name="Trazado 801803" d="M-29.562-1.992l3.25-9.383h1.641L-28.891,0h-1.328L-34.43-11.375H-32.8ZM-21.8,0H-23.25V-8.453H-21.8Zm-1.562-10.7a.863.863,0,0,1,.215-.594.807.807,0,0,1,.637-.242.819.819,0,0,1,.641.242.854.854,0,0,1,.219.594.826.826,0,0,1-.219.586.834.834,0,0,1-.641.234.821.821,0,0,1-.637-.234A.834.834,0,0,1-23.367-10.7Zm3.531,6.4a4.968,4.968,0,0,1,.914-3.145A2.923,2.923,0,0,1-16.5-8.609a2.908,2.908,0,0,1,2.414,1.094l.07-.937h1.32V-.2a3.439,3.439,0,0,1-.973,2.586,3.589,3.589,0,0,1-2.613.945,4.348,4.348,0,0,1-1.789-.391,3.08,3.08,0,0,1-1.336-1.07l.75-.867a2.826,2.826,0,0,0,2.273,1.148,2.214,2.214,0,0,0,1.645-.594,2.269,2.269,0,0,0,.59-1.672V-.844a2.971,2.971,0,0,1-2.367,1,2.887,2.887,0,0,1-2.4-1.2A5.224,5.224,0,0,1-19.836-4.3Zm1.453.164A3.79,3.79,0,0,0-17.8-1.887a1.9,1.9,0,0,0,1.641.816,2.117,2.117,0,0,0,2.008-1.242V-6.172a2.142,2.142,0,0,0-1.992-1.211,1.921,1.921,0,0,0-1.648.82A4.128,4.128,0,0,0-18.383-4.133ZM-8.945,0h-1.445V-8.453h1.445Zm-1.562-10.7a.863.863,0,0,1,.215-.594.807.807,0,0,1,.637-.242.819.819,0,0,1,.641.242A.854.854,0,0,1-8.8-10.7a.826.826,0,0,1-.219.586.834.834,0,0,1-.641.234.821.821,0,0,1-.637-.234A.834.834,0,0,1-10.508-10.7ZM-5.062,0H-6.508V-12h1.445ZM2.469,0a3.036,3.036,0,0,1-.2-.891A3.225,3.225,0,0,1-.141.156,2.984,2.984,0,0,1-2.191-.551a2.287,2.287,0,0,1-.8-1.793,2.39,2.39,0,0,1,1-2.051,4.733,4.733,0,0,1,2.824-.73H2.242v-.664A1.623,1.623,0,0,0,1.789-7,1.821,1.821,0,0,0,.453-7.445a2.107,2.107,0,0,0-1.3.391,1.151,1.151,0,0,0-.523.945H-2.82a2,2,0,0,1,.449-1.223,3.066,3.066,0,0,1,1.219-.934A4.1,4.1,0,0,1,.539-8.609a3.342,3.342,0,0,1,2.289.73,2.635,2.635,0,0,1,.859,2.012v3.891a4.757,4.757,0,0,0,.3,1.852V0ZM.07-1.1a2.54,2.54,0,0,0,1.289-.352,2.127,2.127,0,0,0,.883-.914V-4.1H1.109q-2.656,0-2.656,1.555a1.316,1.316,0,0,0,.453,1.063A1.742,1.742,0,0,0,.07-1.1ZM7.32-8.453l.047,1.063A3.08,3.08,0,0,1,9.9-8.609q2.68,0,2.7,3.023V0H11.156V-5.594a1.946,1.946,0,0,0-.418-1.352,1.675,1.675,0,0,0-1.277-.437,2.086,2.086,0,0,0-1.234.375,2.546,2.546,0,0,0-.828.984V0H5.953V-8.453Zm10.852,7.43a2.082,2.082,0,0,0,1.352-.469,1.649,1.649,0,0,0,.641-1.172h1.367a2.621,2.621,0,0,1-.5,1.383A3.293,3.293,0,0,1,19.8-.234a3.55,3.55,0,0,1-1.629.391A3.482,3.482,0,0,1,15.426-1a4.59,4.59,0,0,1-1.02-3.152v-.242a5.089,5.089,0,0,1,.453-2.2,3.451,3.451,0,0,1,1.3-1.492,3.7,3.7,0,0,1,2-.531,3.39,3.39,0,0,1,2.363.852,3.043,3.043,0,0,1,1,2.211H20.164a1.992,1.992,0,0,0-.621-1.348,1.932,1.932,0,0,0-1.379-.527,2.023,2.023,0,0,0-1.707.793,3.724,3.724,0,0,0-.605,2.293v.273a3.65,3.65,0,0,0,.6,2.25A2.033,2.033,0,0,0,18.172-1.023ZM24.727,0H23.281V-8.453h1.445ZM23.164-10.7a.863.863,0,0,1,.215-.594.807.807,0,0,1,.637-.242.819.819,0,0,1,.641.242.854.854,0,0,1,.219.594.826.826,0,0,1-.219.586.834.834,0,0,1-.641.234.821.821,0,0,1-.637-.234A.834.834,0,0,1,23.164-10.7ZM32.258,0a3.036,3.036,0,0,1-.2-.891A3.225,3.225,0,0,1,29.648.156,2.984,2.984,0,0,1,27.6-.551a2.287,2.287,0,0,1-.8-1.793,2.39,2.39,0,0,1,1-2.051,4.733,4.733,0,0,1,2.824-.73h1.406v-.664A1.623,1.623,0,0,0,31.578-7a1.821,1.821,0,0,0-1.336-.449,2.108,2.108,0,0,0-1.3.391,1.151,1.151,0,0,0-.523.945H26.969a2,2,0,0,1,.449-1.223,3.066,3.066,0,0,1,1.219-.934,4.1,4.1,0,0,1,1.691-.344,3.342,3.342,0,0,1,2.289.73,2.635,2.635,0,0,1,.859,2.012v3.891a4.757,4.757,0,0,0,.3,1.852V0Zm-2.4-1.1a2.54,2.54,0,0,0,1.289-.352,2.127,2.127,0,0,0,.883-.914V-4.1H30.9q-2.656,0-2.656,1.555A1.316,1.316,0,0,0,28.7-1.484,1.742,1.742,0,0,0,29.859-1.1Zm-55.23,25.258a3.693,3.693,0,0,1-2.8-1.129,4.19,4.19,0,0,1-1.078-3.02v-.266a5.073,5.073,0,0,1,.48-2.246,3.748,3.748,0,0,1,1.344-1.547,3.378,3.378,0,0,1,1.871-.559,3.166,3.166,0,0,1,2.563,1.086,4.7,4.7,0,0,1,.914,3.109v.6H-27.8a3,3,0,0,0,.73,2.02,2.3,2.3,0,0,0,1.777.77,2.517,2.517,0,0,0,1.3-.312,3.259,3.259,0,0,0,.93-.828l.883.688A3.55,3.55,0,0,1-25.371,24.156Zm-.18-7.578a1.928,1.928,0,0,0-1.469.637A3.1,3.1,0,0,0-27.754,19h4.234v-.109a2.753,2.753,0,0,0-.594-1.707A1.815,1.815,0,0,0-25.551,16.578Zm6.516-1.031.047,1.063a3.08,3.08,0,0,1,2.531-1.219q2.68,0,2.7,3.023V24H-15.2V18.406a1.946,1.946,0,0,0-.418-1.352,1.675,1.675,0,0,0-1.277-.437,2.086,2.086,0,0,0-1.234.375,2.546,2.546,0,0,0-.828.984V24H-20.4V15.547Zm16.344,6.211a1.064,1.064,0,0,0-.441-.91,4.249,4.249,0,0,0-1.539-.559,7.277,7.277,0,0,1-1.742-.562,2.479,2.479,0,0,1-.953-.781,1.869,1.869,0,0,1-.309-1.078A2.193,2.193,0,0,1-6.8,16.109a3.432,3.432,0,0,1,2.246-.719,3.532,3.532,0,0,1,2.332.742,2.357,2.357,0,0,1,.895,1.9H-2.777a1.3,1.3,0,0,0-.5-1.023,1.888,1.888,0,0,0-1.27-.43,1.976,1.976,0,0,0-1.234.344,1.082,1.082,0,0,0-.445.9.877.877,0,0,0,.414.789,5.1,5.1,0,0,0,1.5.508,7.8,7.8,0,0,1,1.754.578,2.558,2.558,0,0,1,1,.809,1.988,1.988,0,0,1,.324,1.152,2.163,2.163,0,0,1-.906,1.816,3.8,3.8,0,0,1-2.352.684A4.257,4.257,0,0,1-6.3,23.8a2.922,2.922,0,0,1-1.223-1A2.42,2.42,0,0,1-7.965,21.4H-6.52a1.5,1.5,0,0,0,.582,1.152,2.258,2.258,0,0,0,1.434.426,2.331,2.331,0,0,0,1.316-.332A1.02,1.02,0,0,0-2.691,21.758ZM5.855,24a3.036,3.036,0,0,1-.2-.891,3.225,3.225,0,0,1-2.406,1.047A2.984,2.984,0,0,1,1.2,23.449a2.287,2.287,0,0,1-.8-1.793,2.39,2.39,0,0,1,1-2.051,4.733,4.733,0,0,1,2.824-.73H5.629v-.664A1.623,1.623,0,0,0,5.176,17a1.821,1.821,0,0,0-1.336-.449,2.108,2.108,0,0,0-1.3.391,1.151,1.151,0,0,0-.523.945H.566a2,2,0,0,1,.449-1.223,3.066,3.066,0,0,1,1.219-.934,4.1,4.1,0,0,1,1.691-.344,3.342,3.342,0,0,1,2.289.73,2.635,2.635,0,0,1,.859,2.012v3.891a4.757,4.757,0,0,0,.3,1.852V24Zm-2.4-1.1a2.54,2.54,0,0,0,1.289-.352,2.127,2.127,0,0,0,.883-.914V19.9H4.5q-2.656,0-2.656,1.555a1.316,1.316,0,0,0,.453,1.063A1.742,1.742,0,0,0,3.457,22.9ZM10.91,24H9.465V12H10.91Zm7.531-.836a3.07,3.07,0,0,1-2.477.992,2.628,2.628,0,0,1-2.059-.785,3.4,3.4,0,0,1-.715-2.324v-5.5h1.445v5.461q0,1.922,1.563,1.922A2.163,2.163,0,0,0,18.4,21.7V15.547h1.445V24H18.473Zm3.25-3.461a4.952,4.952,0,0,1,.922-3.129,3.137,3.137,0,0,1,4.766-.168V12h1.445V24H27.5l-.07-.906a2.943,2.943,0,0,1-2.414,1.063,2.887,2.887,0,0,1-2.395-1.2,5.008,5.008,0,0,1-.926-3.141Zm1.445.164a3.749,3.749,0,0,0,.594,2.25,1.92,1.92,0,0,0,1.641.813A2.108,2.108,0,0,0,27.379,21.7V17.813a2.125,2.125,0,0,0-1.992-1.2,1.929,1.929,0,0,0-1.656.82A4.128,4.128,0,0,0,23.137,19.867Z" transform="translate(583.629 4897.955)" fill="#12263f"/>
    <path id="Trazado_801273" data-name="Trazado 801273" d="M1429.418,0a93.351,93.351,0,0,0-93.25,93.25h186.5A93.351,93.351,0,0,0,1429.418,0" transform="translate(-840.45 4617.747)" fill="#1969d5"/>
    <g id="Grupo_1065293" data-name="Grupo 1065293" transform="translate(495.709 4711.007)">
      <path id="Trazado_801300" data-name="Trazado 801300" d="M833.615,196.5q0,2.188-.1,4.349l2.2.1q.1-2.213.1-4.452Z" transform="translate(-649.301 -196.499)" fill="#12263f"/>
      <path id="Trazado_801301" data-name="Trazado 801301" d="M577.818,380.009c2.783.961,5.649,1.8,8.516,2.486l.513-2.14c-2.8-.673-5.595-1.489-8.312-2.426Z" transform="translate(-514.962 -291.82)" fill="#12263f"/>
      <path id="Trazado_801302" data-name="Trazado 801302" d="M552.036,369.129c2.614,1.347,5.329,2.586,8.071,3.681l.816-2.043c-2.677-1.069-5.327-2.278-7.879-3.593Z" transform="translate(-501.416 -286.17)" fill="#12263f"/>
      <path id="Trazado_801303" data-name="Trazado 801303" d="M613.886,386.177c-2.875-.266-5.76-.675-8.572-1.212l-.412,2.161c2.881.55,5.836.967,8.781,1.242Z" transform="translate(-529.191 -295.518)" fill="#12263f"/>
      <path id="Trazado_801304" data-name="Trazado 801304" d="M528.095,354.732c2.4,1.708,4.911,3.321,7.464,4.794l1.1-1.906c-2.492-1.439-4.944-3.013-7.288-4.68Z" transform="translate(-488.838 -278.692)" fill="#12263f"/>
      <path id="Trazado_801305" data-name="Trazado 801305" d="M448.485,215.143l-2.189.213c.283,2.94.711,5.892,1.27,8.776l2.159-.418c-.544-2.816-.962-5.7-1.24-8.571" transform="translate(-445.861 -206.295)" fill="#12263f"/>
      <path id="Trazado_801306" data-name="Trazado 801306" d="M506.467,337.127c2.136,2.03,4.393,3.983,6.709,5.8l1.36-1.73c-2.262-1.777-4.466-3.683-6.552-5.666Z" transform="translate(-477.475 -269.546)" fill="#12263f"/>
      <path id="Trazado_801307" data-name="Trazado 801307" d="M471.833,293.807c1.477,2.544,3.1,5.051,4.813,7.45l1.79-1.281c-1.676-2.342-3.258-4.789-4.7-7.273Z" transform="translate(-459.278 -247.044)" fill="#12263f"/>
      <path id="Trazado_801308" data-name="Trazado 801308" d="M453.106,242.113l-2.138.522c.7,2.868,1.546,5.73,2.513,8.507l2.078-.724c-.944-2.711-1.769-5.505-2.453-8.305" transform="translate(-448.316 -220.464)" fill="#12263f"/>
      <path id="Trazado_801309" data-name="Trazado 801309" d="M487.59,316.682c1.822,2.308,3.78,4.56,5.82,6.693l1.59-1.522c-1.992-2.083-3.9-4.281-5.682-6.534Z" transform="translate(-467.557 -258.926)" fill="#12263f"/>
      <path id="Trazado_801310" data-name="Trazado 801310" d="M459.538,268.957c1.1,2.728,2.344,5.439,3.7,8.059L465.194,276c-1.327-2.558-2.543-5.206-3.615-7.868Z" transform="translate(-452.819 -234.136)" fill="#12263f"/>
      <path id="Trazado_801311" data-name="Trazado 801311" d="M660.289,386.126l.208,2.192c2.937-.281,5.891-.7,8.779-1.259l-.417-2.162c-2.818.544-5.7.956-8.57,1.229" transform="translate(-558.291 -295.481)" fill="#12263f"/>
      <path id="Trazado_801312" data-name="Trazado 801312" d="M812.442,275.7l1.955,1.01c1.352-2.617,2.594-5.332,3.689-8.067l-2.043-.819c-1.07,2.671-2.282,5.321-3.6,7.876" transform="translate(-638.231 -233.974)" fill="#12263f"/>
      <path id="Trazado_801313" data-name="Trazado 801313" d="M798.179,299.72,799.971,301c1.713-2.4,3.329-4.913,4.8-7.458l-1.9-1.1c-1.439,2.486-3.016,4.935-4.69,7.282" transform="translate(-630.737 -246.905)" fill="#12263f"/>
      <path id="Trazado_801314" data-name="Trazado 801314" d="M830.294,223.343l2.162.415c.553-2.888.974-5.842,1.252-8.78l-2.19-.206c-.272,2.868-.683,5.752-1.224,8.571" transform="translate(-647.61 -206.1)" fill="#12263f"/>
      <path id="Trazado_801315" data-name="Trazado 801315" d="M823.229,250.06l2.08.72c.963-2.781,1.8-5.645,2.5-8.514l-2.138-.518c-.677,2.8-1.5,5.6-2.438,8.311" transform="translate(-643.898 -220.273)" fill="#12263f"/>
      <path id="Trazado_801316" data-name="Trazado 801316" d="M780.744,321.635l1.592,1.519c2.036-2.136,3.991-4.391,5.811-6.7l-1.729-1.36c-1.777,2.257-3.686,4.459-5.674,6.544" transform="translate(-621.577 -258.806)" fill="#12263f"/>
      <path id="Trazado_801317" data-name="Trazado 801317" d="M737.876,357.453l1.1,1.9c2.551-1.476,5.058-3.093,7.455-4.8l-1.279-1.79c-2.34,1.671-4.79,3.249-7.279,4.691" transform="translate(-599.054 -278.598)" fill="#12263f"/>
      <path id="Trazado_801318" data-name="Trazado 801318" d="M713.292,370.632l.821,2.041c2.735-1.1,5.448-2.341,8.062-3.693l-1.01-1.955c-2.553,1.32-5.2,2.533-7.873,3.607" transform="translate(-586.138 -286.092)" fill="#12263f"/>
      <path id="Trazado_801319" data-name="Trazado 801319" d="M687.266,380.248l.518,2.14c2.856-.692,5.719-1.534,8.511-2.5l-.722-2.078c-2.726.945-5.52,1.766-8.307,2.441" transform="translate(-572.465 -291.757)" fill="#12263f"/>
      <path id="Trazado_801320" data-name="Trazado 801320" d="M760.51,341.007l1.362,1.727c2.313-1.822,4.568-3.777,6.7-5.811l-1.519-1.592c-2.081,1.986-4.282,3.9-6.542,5.676" transform="translate(-610.947 -269.44)" fill="#12263f"/>
      <path id="Trazado_801321" data-name="Trazado 801321" d="M447.581,196.5h-2.2q0,2.238.1,4.452l2.2-.1q-.1-2.161-.1-4.349" transform="translate(-445.381 -196.499)" fill="#12263f"/>
      <path id="Trazado_801322" data-name="Trazado 801322" d="M635.966,393.742h2.2v-3.324c1.146-.013,2.29-.028,3.425-.084l-.105-2.2q-2.134.1-4.3.1c-1.472.015-2.919-.03-4.364-.1l-.1,2.2c1.075.051,2.159.06,3.243.074Z" transform="translate(-543.808 -297.184)" fill="#12263f"/>
      <rect id="Rectángulo_374193" data-name="Rectángulo 374193" width="2.2" height="7.25" transform="translate(92.158 111.056)" fill="#12263f"/>
      <rect id="Rectángulo_374194" data-name="Rectángulo 374194" width="2.2" height="7.25" transform="translate(92.158 100.183)" fill="#12263f"/>
      <rect id="Rectángulo_374195" data-name="Rectángulo 374195" width="2.2" height="4.401" transform="translate(92.158 121.929)" fill="#12263f"/>
    </g>
    <path id="Trazado_801398" data-name="Trazado 801398" d="M1525.1,118.533A70.432,70.432,0,1,1,1454.67,48.1a70.433,70.433,0,0,1,70.432,70.433" transform="translate(-865.705 4592.476)" fill="#f6f6f6"/>
    <g id="Enmascarar_grupo_1064365" data-name="Enmascarar grupo 1064365" transform="translate(525.766 4640.576)" clip-path="url(#clip-path)">
      <g id="aplicacion-de-salud" transform="translate(31.438 26.276)">
        <path id="Trazado_801468" data-name="Trazado 801468" d="M51.919,49.36a3.684,3.684,0,0,0-3.68-3.68H43.824a3.684,3.684,0,0,0-3.68,3.68v3.68h-3.68a3.684,3.684,0,0,0-3.68,3.68v4.416a3.684,3.684,0,0,0,3.68,3.68h3.68v3.68a3.684,3.684,0,0,0,3.68,3.68H48.24a3.684,3.684,0,0,0,3.68-3.68v-3.68H55.6a3.684,3.684,0,0,0,3.68-3.68V56.72a3.684,3.684,0,0,0-3.68-3.68h-3.68Zm3.68,6.623a.736.736,0,0,1,.736.736v4.416a.737.737,0,0,1-.736.736H50.448a1.471,1.471,0,0,0-1.472,1.472v5.152a.737.737,0,0,1-.736.736H43.824a.737.737,0,0,1-.736-.736V63.343a1.471,1.471,0,0,0-1.472-1.472H36.465a.737.737,0,0,1-.736-.736V56.72a.736.736,0,0,1,.736-.736c7.812-.082,6.526,1.134,6.623-6.624a.736.736,0,0,1,.736-.736H48.24a.736.736,0,0,1,.736.736c.081,7.813-1.133,6.526,6.623,6.623Z" transform="translate(-16.594 -14.771)" fill="#12263f"/>
        <path id="Trazado_801469" data-name="Trazado 801469" d="M42.209,116.152H53.984a1.472,1.472,0,0,0,0-2.944H42.209A1.472,1.472,0,0,0,42.209,116.152Z" transform="translate(-18.658 -32.254)" fill="#12263f"/>
        <path id="Trazado_801470" data-name="Trazado 801470" d="M19.769,92.285H60.982a8.841,8.841,0,0,0,8.831-8.831V50.94a8.838,8.838,0,0,0,7.359-8.7h5.152c8.319-.216,8.929-12.1.736-13.206V23.107A14.728,14.728,0,0,0,68.622,8.4a8.825,8.825,0,0,0-7.64-4.43H19.769A8.841,8.841,0,0,0,10.938,12.8v70.65a8.841,8.841,0,0,0,8.831,8.831ZM68.341,48.129a5.894,5.894,0,0,1-5.888-5.888H74.229A5.894,5.894,0,0,1,68.341,48.129ZM80.116,23.107s0,7.359,0,7.359a1.472,1.472,0,0,0,1.472,1.472h.736a3.68,3.68,0,0,1,0,7.359H54.358a3.684,3.684,0,0,1-3.68-3.68,3.81,3.81,0,0,1,4.416-3.68,1.472,1.472,0,0,0,1.472-1.472V23.107c.645-15.618,22.9-15.62,23.55,0ZM54.358,42.241H59.51a8.777,8.777,0,0,0,1.472,4.871V79.038A1.473,1.473,0,0,1,59.51,80.51H21.241a1.473,1.473,0,0,1-1.472-1.472V14.275A1.474,1.474,0,0,1,21.241,12.8H57.847a14.665,14.665,0,0,0-4.225,10.3v5.928c-8.2,1.113-7.579,12.991.736,13.206ZM13.881,12.8a5.894,5.894,0,0,1,5.888-5.888H60.982A5.879,5.879,0,0,1,65.214,8.73a14.611,14.611,0,0,0-3.98,1.5A4.379,4.379,0,0,0,59.51,9.86H21.241a4.42,4.42,0,0,0-4.416,4.416V79.038a4.42,4.42,0,0,0,4.416,4.416H59.51a4.42,4.42,0,0,0,4.416-4.416V49.878a8.758,8.758,0,0,0,2.944,1.062V83.454a5.894,5.894,0,0,1-5.888,5.888H19.769a5.894,5.894,0,0,1-5.888-5.888Z" transform="translate(-10.938 -3.972)" fill="#12263f"/>
        <path id="Trazado_801471" data-name="Trazado 801471" d="M105.734,13.88a1.467,1.467,0,0,0,1.041-.431l2.863-2.863A1.472,1.472,0,0,0,107.556,8.5l-2.863,2.862a1.482,1.482,0,0,0,1.041,2.513Z" transform="translate(-35.101 -5.031)" fill="#12263f"/>
        <path id="Trazado_801472" data-name="Trazado 801472" d="M109.736,20.819h2.944a1.472,1.472,0,0,0,0-2.944h-2.944A1.472,1.472,0,0,0,109.736,20.819Z" transform="translate(-36.142 -7.572)" fill="#12263f"/>
        <path id="Trazado_801473" data-name="Trazado 801473" d="M99.8,9.86a1.472,1.472,0,0,0,1.472-1.472V5.444a1.472,1.472,0,1,0-2.944,0V8.388A1.472,1.472,0,0,0,99.8,9.86Z" transform="translate(-33.563 -3.972)" fill="#12263f"/>
      </g>
    </g>
    <path id="Trazado_801491" data-name="Trazado 801491" d="M187.053,462.675a16.591,16.591,0,1,0,16.59,16.591,16.591,16.591,0,0,0-16.59-16.591" transform="translate(401.913 4370.425)" fill="#12263f"/>
    <path id="Trazado_801804" data-name="Trazado 801804" d="M3.221-4.816h1.45v2.048H3.221V0H.681V-2.769H-4.566l-.114-1.6L.655-12.8H3.221Zm-5.37,0H.681V-9.334l-.167.29Z" transform="translate(587.848 4855.254)" fill="#fff"/>
  </g>
</svg>
