<svg xmlns="http://www.w3.org/2000/svg" xmlns:xlink="http://www.w3.org/1999/xlink" width="69.741" height="69.741" viewBox="0 0 69.741 69.741">
  <defs>
    <clipPath id="clip-path">
      <circle id="Elipse_4724" data-name="Elipse 4724" cx="34.871" cy="34.871" r="34.871" transform="translate(259.629 1542.629)" fill="#fff"/>
    </clipPath>
    <clipPath id="clip-path-2">
      <path id="path1731" d="M0-77H49.933v49.933H0Z" transform="translate(0 76.999)" fill="#12263f"/>
    </clipPath>
  </defs>
  <g id="Grupo_1065528" data-name="Grupo 1065528" transform="translate(-221.63 -6289.843)">
    <g id="Grupo_1064619" data-name="Grupo 1064619" transform="translate(-37.999 4747.214)">
      <g id="Enmascarar_grupo_1064341" data-name="Enmascarar grupo 1064341" clip-path="url(#clip-path)">
        <g id="g1725" transform="translate(274.061 1552.533)">
          <g id="g1727">
            <g id="g1729" clip-path="url(#clip-path-2)">
              <g id="g1735" transform="translate(0.975 0.975)">
                <path id="path1737" d="M-20.3-14.537V4.285A2.341,2.341,0,0,1-22.64,6.626H-55.409a2.341,2.341,0,0,1-2.341-2.341v-43.3a2.341,2.341,0,0,1,2.341-2.341H-22.64A2.341,2.341,0,0,1-20.3-39.016v16.8" transform="translate(57.749 41.357)" fill="none" stroke="#12263f" stroke-linecap="round" stroke-linejoin="round" stroke-miterlimit="10" stroke-width="1.5"/>
              </g>
              <g id="g1739" transform="translate(12.37 0.975)">
                <path id="path1741" d="M-1.123-3.806H9.393a2.072,2.072,0,0,0,2.072-2.072v-4.949H-3.2v4.949A2.072,2.072,0,0,0-1.123-3.806Z" transform="translate(3.196 10.828)" fill="none" stroke="#12263f" stroke-linecap="round" stroke-linejoin="round" stroke-miterlimit="10" stroke-width="1.5"/>
              </g>
              <g id="g1743" transform="translate(4.876 4.876)">
                <path id="path1745" d="M-5.921-21.779H-16.844V-61.96h7.184" transform="translate(16.844 61.96)" fill="none" stroke="#12263f" stroke-linecap="round" stroke-linejoin="round" stroke-miterlimit="10" stroke-width="1.5"/>
              </g>
              <g id="g1747" transform="translate(23.601 30.331)">
                <path id="path1749" d="M-5.921,0V14.726H-16.844" transform="translate(16.844)" fill="none" stroke="#12263f" stroke-linecap="round" stroke-linejoin="round" stroke-miterlimit="10" stroke-width="1.5"/>
              </g>
              <g id="g1751" transform="translate(27.34 4.876)">
                <path id="path1753" d="M0,0H7.184V19" fill="none" stroke="#12263f" stroke-linecap="round" stroke-linejoin="round" stroke-miterlimit="10" stroke-width="1.5"/>
              </g>
              <g id="g1755" transform="translate(19.7 45.057)">
                <path id="path1757" d="M0,0H0" fill="none" stroke="#12263f" stroke-linecap="round" stroke-linejoin="round" stroke-miterlimit="10" stroke-width="1.5"/>
              </g>
              <g id="g1759" transform="translate(30.201 13.229)">
                <path id="path1761" d="M-7.788-4.357-15.58,3.435l-6.575,2.927,2.927-6.575L-7.8-11.639a2.579,2.579,0,0,1,3.648,0h0a2.579,2.579,0,0,1,0,3.648L-7.788-4.357" transform="translate(22.155 12.395)" fill="none" stroke="#12263f" stroke-linecap="round" stroke-linejoin="round" stroke-miterlimit="10" stroke-width="1.5"/>
              </g>
              <g id="g1763" transform="translate(33.215 25.498)">
                <path id="path1765" d="M-1.814-1.814-5.161-5.161" transform="translate(5.161 5.161)" fill="none" stroke="#12263f" stroke-linecap="round" stroke-linejoin="round" stroke-miterlimit="10" stroke-width="1.5"/>
              </g>
              <g id="g1767" transform="translate(43.301 15.238)">
                <path id="path1769" d="M-1.977-1.977-5.625-5.625" transform="translate(5.625 5.625)" fill="none" stroke="#12263f" stroke-linecap="round" stroke-linejoin="round" stroke-miterlimit="10" stroke-width="1.5"/>
              </g>
              <path id="path1771" d="M20.98-51.207H14.738v-6.242H20.98Z" transform="translate(-5.181 70.127)" fill="none" stroke="#12263f" stroke-linecap="round" stroke-linejoin="round" stroke-miterlimit="10" stroke-width="1.5"/>
              <path id="path1773" d="M20.98-34.664H14.738v-6.242H20.98Z" transform="translate(-5.181 64.312)" fill="none" stroke="#12263f" stroke-linecap="round" stroke-linejoin="round" stroke-miterlimit="10" stroke-width="1.5"/>
              <path id="path1775" d="M20.98-18.121H14.738v-6.242H20.98Z" transform="translate(-5.181 58.497)" fill="none" stroke="#12263f" stroke-linecap="round" stroke-linejoin="round" stroke-miterlimit="10" stroke-width="1.5"/>
              <g id="g1777" transform="translate(21.3 13.598)">
                <path id="path1779" d="M0-1.21,2.17.959l4.4-4.4" transform="translate(0 3.444)" fill="none" stroke="#12263f" stroke-linecap="round" stroke-linejoin="round" stroke-miterlimit="10" stroke-width="1.5"/>
              </g>
              <g id="g1781" transform="translate(21.3 24.326)">
                <path id="path1783" d="M0-1.21,2.17.959l4.4-4.4" transform="translate(0 3.444)" fill="none" stroke="#12263f" stroke-linecap="round" stroke-linejoin="round" stroke-miterlimit="10" stroke-width="1.5"/>
              </g>
              <g id="g1785" transform="translate(22.385 35.054)">
                <path id="path1787" d="M0-2.387l4.4-4.4" transform="translate(0 6.789)" fill="none" stroke="#12263f" stroke-linecap="round" stroke-linejoin="round" stroke-miterlimit="10" stroke-width="1.5"/>
              </g>
              <g id="g1789" transform="translate(22.385 35.054)">
                <path id="path1791" d="M0,0,4.4,4.4" fill="none" stroke="#12263f" stroke-linecap="round" stroke-linejoin="round" stroke-miterlimit="10" stroke-width="1.5"/>
              </g>
            </g>
          </g>
        </g>
      </g>
    </g>
  </g>
</svg>
