<svg xmlns="http://www.w3.org/2000/svg" xmlns:xlink="http://www.w3.org/1999/xlink" width="186.514" height="307.458" viewBox="0 0 186.514 307.458">
  <defs>
    <clipPath id="clip-path">
      <path id="Trazado_801478" data-name="Trazado 801478" d="M2415.865,118.533A70.432,70.432,0,1,1,2345.432,48.1a70.432,70.432,0,0,1,70.432,70.433" transform="translate(-2275 -48.1)" fill="#12263f"/>
    </clipPath>
  </defs>
  <g id="Grupo_1065530" data-name="Grupo 1065530" transform="translate(-918.474 -4617.747)">
    <path id="Trazado_801807" data-name="Trazado 801807" d="M-36.629-1.492A3.465,3.465,0,0,1-38.242-.254a6.517,6.517,0,0,1-2.41.41A4.674,4.674,0,0,1-43.121-.5a4.346,4.346,0,0,1-1.668-1.855,6.408,6.408,0,0,1-.605-2.789v-.992a5.982,5.982,0,0,1,1.2-3.984,4.179,4.179,0,0,1,3.371-1.414,4.316,4.316,0,0,1,2.867.91,3.965,3.965,0,0,1,1.328,2.582h-1.5A2.48,2.48,0,0,0-40.816-10.3,2.655,2.655,0,0,0-43.1-9.245a5.173,5.173,0,0,0-.785,3.069v.93A4.848,4.848,0,0,0-43.012-2.2a2.836,2.836,0,0,0,2.367,1.13,5.228,5.228,0,0,0,1.477-.187,2.283,2.283,0,0,0,1.047-.631V-4.437h-2.633V-5.664h4.125ZM-30.848.156a3.693,3.693,0,0,1-2.8-1.129,4.19,4.19,0,0,1-1.078-3.02v-.266a5.073,5.073,0,0,1,.48-2.246A3.748,3.748,0,0,1-32.9-8.051a3.378,3.378,0,0,1,1.871-.559,3.166,3.166,0,0,1,2.563,1.086,4.7,4.7,0,0,1,.914,3.109v.6h-5.727a3,3,0,0,0,.73,2.02,2.3,2.3,0,0,0,1.777.77,2.517,2.517,0,0,0,1.3-.312,3.259,3.259,0,0,0,.93-.828l.883.688A3.55,3.55,0,0,1-30.848.156Zm-.18-7.578a1.928,1.928,0,0,0-1.469.637A3.1,3.1,0,0,0-33.23-5H-29v-.109a2.753,2.753,0,0,0-.594-1.707A1.815,1.815,0,0,0-31.027-7.422Zm10.07,5.18a1.064,1.064,0,0,0-.441-.91,4.249,4.249,0,0,0-1.539-.559,7.277,7.277,0,0,1-1.742-.562,2.479,2.479,0,0,1-.953-.781,1.869,1.869,0,0,1-.309-1.078,2.193,2.193,0,0,1,.879-1.758,3.432,3.432,0,0,1,2.246-.719,3.532,3.532,0,0,1,2.332.742,2.357,2.357,0,0,1,.895,1.9h-1.453a1.3,1.3,0,0,0-.5-1.023,1.888,1.888,0,0,0-1.27-.43,1.976,1.976,0,0,0-1.234.344,1.082,1.082,0,0,0-.445.9.877.877,0,0,0,.414.789,5.1,5.1,0,0,0,1.5.508,7.8,7.8,0,0,1,1.754.578,2.558,2.558,0,0,1,1,.809,1.988,1.988,0,0,1,.324,1.152,2.163,2.163,0,0,1-.906,1.816A3.8,3.8,0,0,1-22.77.156a4.257,4.257,0,0,1-1.8-.359,2.922,2.922,0,0,1-1.223-1A2.42,2.42,0,0,1-26.23-2.6h1.445A1.5,1.5,0,0,0-24.2-1.449a2.258,2.258,0,0,0,1.434.426,2.331,2.331,0,0,0,1.316-.332A1.02,1.02,0,0,0-20.957-2.242Zm5.289-8.258v2.047h1.578v1.117h-1.578v5.249a1.173,1.173,0,0,0,.211.763.888.888,0,0,0,.719.254,3.5,3.5,0,0,0,.688-.094V0A4.215,4.215,0,0,1-15.16.156,1.8,1.8,0,0,1-16.621-.43a2.517,2.517,0,0,1-.492-1.664V-7.336h-1.539V-8.453h1.539V-10.5ZM-10.832,0h-1.445V-8.453h1.445Zm-1.562-10.7a.863.863,0,0,1,.215-.594.807.807,0,0,1,.637-.242.819.819,0,0,1,.641.242.854.854,0,0,1,.219.594.826.826,0,0,1-.219.586.834.834,0,0,1-.641.234.821.821,0,0,1-.637-.234A.834.834,0,0,1-12.395-10.7ZM-8.9-4.3a4.993,4.993,0,0,1,.488-2.234A3.643,3.643,0,0,1-7.055-8.07a3.7,3.7,0,0,1,1.988-.539,3.565,3.565,0,0,1,2.793,1.2,4.6,4.6,0,0,1,1.066,3.18v.1A5.036,5.036,0,0,1-1.68-1.918,3.589,3.589,0,0,1-3.031-.391a3.743,3.743,0,0,1-2.02.547,3.556,3.556,0,0,1-2.785-1.2A4.575,4.575,0,0,1-8.9-4.2Zm1.453.172A3.616,3.616,0,0,0-6.8-1.875a2.088,2.088,0,0,0,1.746.852A2.075,2.075,0,0,0-3.3-1.887,3.955,3.955,0,0,0-2.652-4.3a3.61,3.61,0,0,0-.66-2.254,2.1,2.1,0,0,0-1.754-.863,2.075,2.075,0,0,0-1.727.852A3.925,3.925,0,0,0-7.449-4.133ZM-4.41-12h1.75L-4.754-9.7l-1.164,0ZM1.973-8.453,2.02-7.391A3.08,3.08,0,0,1,4.551-8.609q2.68,0,2.7,3.023V0H5.809V-5.594a1.946,1.946,0,0,0-.418-1.352,1.675,1.675,0,0,0-1.277-.437,2.086,2.086,0,0,0-1.234.375,2.546,2.546,0,0,0-.828.984V0H.605V-8.453ZM13.043-4.3a4.952,4.952,0,0,1,.922-3.129,2.915,2.915,0,0,1,2.414-1.184A2.932,2.932,0,0,1,18.73-7.594V-12h1.445V0H18.848l-.07-.906A2.943,2.943,0,0,1,16.363.156a2.887,2.887,0,0,1-2.395-1.2,5.008,5.008,0,0,1-.926-3.141Zm1.445.164a3.749,3.749,0,0,0,.594,2.25,1.92,1.92,0,0,0,1.641.813A2.108,2.108,0,0,0,18.73-2.3V-6.187a2.125,2.125,0,0,0-1.992-1.2,1.929,1.929,0,0,0-1.656.82A4.128,4.128,0,0,0,14.488-4.133ZM25.926.156a3.693,3.693,0,0,1-2.8-1.129,4.19,4.19,0,0,1-1.078-3.02v-.266a5.073,5.073,0,0,1,.48-2.246,3.748,3.748,0,0,1,1.344-1.547,3.378,3.378,0,0,1,1.871-.559,3.166,3.166,0,0,1,2.563,1.086,4.7,4.7,0,0,1,.914,3.109v.6H23.5a3,3,0,0,0,.73,2.02A2.3,2.3,0,0,0,26-1.023a2.517,2.517,0,0,0,1.3-.312,3.259,3.259,0,0,0,.93-.828l.883.688A3.55,3.55,0,0,1,25.926.156Zm-.18-7.578a1.928,1.928,0,0,0-1.469.637A3.1,3.1,0,0,0,23.543-5h4.234v-.109a2.753,2.753,0,0,0-.594-1.707A1.815,1.815,0,0,0,25.746-7.422ZM36.426,0H34.98V-12h1.445Zm7.531,0a3.036,3.036,0,0,1-.2-.891A3.225,3.225,0,0,1,41.348.156,2.984,2.984,0,0,1,39.3-.551a2.287,2.287,0,0,1-.8-1.793,2.39,2.39,0,0,1,1-2.051,4.733,4.733,0,0,1,2.824-.73H43.73v-.664A1.623,1.623,0,0,0,43.277-7a1.821,1.821,0,0,0-1.336-.449,2.107,2.107,0,0,0-1.3.391,1.151,1.151,0,0,0-.523.945H38.668a2,2,0,0,1,.449-1.223,3.066,3.066,0,0,1,1.219-.934,4.1,4.1,0,0,1,1.691-.344,3.342,3.342,0,0,1,2.289.73,2.635,2.635,0,0,1,.859,2.012v3.891a4.757,4.757,0,0,0,.3,1.852V0Zm-2.4-1.1a2.54,2.54,0,0,0,1.289-.352,2.127,2.127,0,0,0,.883-.914V-4.1H42.6q-2.656,0-2.656,1.555a1.316,1.316,0,0,0,.453,1.063A1.742,1.742,0,0,0,41.559-1.1ZM-41.113,21.758a1.064,1.064,0,0,0-.441-.91,4.249,4.249,0,0,0-1.539-.559,7.277,7.277,0,0,1-1.742-.562,2.479,2.479,0,0,1-.953-.781,1.869,1.869,0,0,1-.309-1.078,2.193,2.193,0,0,1,.879-1.758,3.432,3.432,0,0,1,2.246-.719,3.532,3.532,0,0,1,2.332.742,2.357,2.357,0,0,1,.895,1.9H-41.2a1.3,1.3,0,0,0-.5-1.023,1.888,1.888,0,0,0-1.27-.43,1.976,1.976,0,0,0-1.234.344,1.082,1.082,0,0,0-.445.9.877.877,0,0,0,.414.789,5.1,5.1,0,0,0,1.5.508,7.8,7.8,0,0,1,1.754.578,2.558,2.558,0,0,1,1,.809,1.988,1.988,0,0,1,.324,1.152,2.163,2.163,0,0,1-.906,1.816,3.8,3.8,0,0,1-2.352.684,4.257,4.257,0,0,1-1.8-.359,2.922,2.922,0,0,1-1.223-1,2.42,2.42,0,0,1-.441-1.395h1.445a1.5,1.5,0,0,0,.582,1.152,2.258,2.258,0,0,0,1.434.426,2.331,2.331,0,0,0,1.316-.332A1.02,1.02,0,0,0-41.113,21.758ZM-32.566,24a3.036,3.036,0,0,1-.2-.891,3.225,3.225,0,0,1-2.406,1.047,2.984,2.984,0,0,1-2.051-.707,2.287,2.287,0,0,1-.8-1.793,2.39,2.39,0,0,1,1-2.051,4.733,4.733,0,0,1,2.824-.73h1.406v-.664A1.623,1.623,0,0,0-33.246,17a1.821,1.821,0,0,0-1.336-.449,2.107,2.107,0,0,0-1.3.391,1.151,1.151,0,0,0-.523.945h-1.453a2,2,0,0,1,.449-1.223,3.066,3.066,0,0,1,1.219-.934,4.1,4.1,0,0,1,1.691-.344,3.342,3.342,0,0,1,2.289.73,2.635,2.635,0,0,1,.859,2.012v3.891a4.757,4.757,0,0,0,.3,1.852V24Zm-2.4-1.1a2.54,2.54,0,0,0,1.289-.352,2.127,2.127,0,0,0,.883-.914V19.9h-1.133q-2.656,0-2.656,1.555a1.316,1.316,0,0,0,.453,1.063A1.742,1.742,0,0,0-34.965,22.9Zm7.453,1.1h-1.445V12h1.445Zm7.531-.836a3.07,3.07,0,0,1-2.477.992,2.628,2.628,0,0,1-2.059-.785,3.4,3.4,0,0,1-.715-2.324v-5.5h1.445v5.461q0,1.922,1.563,1.922a2.163,2.163,0,0,0,2.2-1.234V15.547h1.445V24h-1.375Zm3.25-3.461a4.952,4.952,0,0,1,.922-3.129,2.915,2.915,0,0,1,2.414-1.184,2.932,2.932,0,0,1,2.352,1.016V12H-9.6V24h-1.328l-.07-.906a2.943,2.943,0,0,1-2.414,1.063,2.887,2.887,0,0,1-2.395-1.2,5.008,5.008,0,0,1-.926-3.141Zm1.445.164a3.749,3.749,0,0,0,.594,2.25,1.92,1.92,0,0,0,1.641.813A2.108,2.108,0,0,0-11.043,21.7V17.813a2.125,2.125,0,0,0-1.992-1.2,1.929,1.929,0,0,0-1.656.82A4.128,4.128,0,0,0-15.285,19.867Zm19.031,0a5.062,5.062,0,0,1-.883,3.109,2.829,2.829,0,0,1-2.391,1.18,3.1,3.1,0,0,1-2.422-.977v4.07H-3.395v-11.7h1.32l.07.938A2.977,2.977,0,0,1,.449,15.391a2.882,2.882,0,0,1,2.41,1.148,5.117,5.117,0,0,1,.887,3.2ZM2.3,19.7a3.735,3.735,0,0,0-.609-2.258A1.963,1.963,0,0,0,.02,16.617a2.125,2.125,0,0,0-1.969,1.164V21.82A2.129,2.129,0,0,0,.035,22.977a1.954,1.954,0,0,0,1.652-.824A4.077,4.077,0,0,0,2.3,19.7Zm8.5,3.461a3.07,3.07,0,0,1-2.477.992,2.628,2.628,0,0,1-2.059-.785,3.4,3.4,0,0,1-.715-2.324v-5.5H7v5.461Q7,22.93,8.559,22.93a2.163,2.163,0,0,0,2.2-1.234V15.547h1.445V24H10.832ZM9.629,12h1.75L9.285,14.3l-1.164,0Zm11.93,7.867a5.026,5.026,0,0,1-.891,3.113,2.846,2.846,0,0,1-2.391,1.176A2.947,2.947,0,0,1,15.8,23.023L15.73,24H14.4V12h1.445v4.477a2.93,2.93,0,0,1,2.414-1.086,2.863,2.863,0,0,1,2.418,1.164,5.177,5.177,0,0,1,.879,3.188ZM20.113,19.7a3.906,3.906,0,0,0-.57-2.281,1.888,1.888,0,0,0-1.641-.8,2.122,2.122,0,0,0-2.055,1.328V21.6a2.181,2.181,0,0,0,2.07,1.328,1.878,1.878,0,0,0,1.617-.8A4.153,4.153,0,0,0,20.113,19.7ZM24.949,24H23.5V12h1.445Zm3.883,0H27.387V15.547h1.445ZM27.27,13.3a.863.863,0,0,1,.215-.594.807.807,0,0,1,.637-.242.819.819,0,0,1,.641.242.854.854,0,0,1,.219.594.826.826,0,0,1-.219.586.834.834,0,0,1-.641.234.821.821,0,0,1-.637-.234A.834.834,0,0,1,27.27,13.3Zm7.266,9.672a2.082,2.082,0,0,0,1.352-.469,1.649,1.649,0,0,0,.641-1.172h1.367a2.621,2.621,0,0,1-.5,1.383,3.293,3.293,0,0,1-1.23,1.047,3.55,3.55,0,0,1-1.629.391A3.482,3.482,0,0,1,31.789,23a4.59,4.59,0,0,1-1.02-3.152v-.242a5.089,5.089,0,0,1,.453-2.2,3.451,3.451,0,0,1,1.3-1.492,3.7,3.7,0,0,1,2-.531,3.39,3.39,0,0,1,2.363.852,3.043,3.043,0,0,1,1,2.211H36.527a1.992,1.992,0,0,0-.621-1.348,1.932,1.932,0,0,0-1.379-.527,2.023,2.023,0,0,0-1.707.793,3.724,3.724,0,0,0-.605,2.293v.273a3.65,3.65,0,0,0,.6,2.25A2.033,2.033,0,0,0,34.535,22.977ZM44.738,24a3.036,3.036,0,0,1-.2-.891,3.225,3.225,0,0,1-2.406,1.047,2.984,2.984,0,0,1-2.051-.707,2.287,2.287,0,0,1-.8-1.793,2.39,2.39,0,0,1,1-2.051,4.733,4.733,0,0,1,2.824-.73h1.406v-.664A1.623,1.623,0,0,0,44.059,17a1.821,1.821,0,0,0-1.336-.449,2.107,2.107,0,0,0-1.3.391,1.151,1.151,0,0,0-.523.945H39.449a2,2,0,0,1,.449-1.223,3.066,3.066,0,0,1,1.219-.934,4.1,4.1,0,0,1,1.691-.344,3.342,3.342,0,0,1,2.289.73,2.635,2.635,0,0,1,.859,2.012v3.891a4.757,4.757,0,0,0,.3,1.852V24Zm-2.4-1.1a2.54,2.54,0,0,0,1.289-.352,2.127,2.127,0,0,0,.883-.914V19.9H43.379q-2.656,0-2.656,1.555a1.316,1.316,0,0,0,.453,1.063A1.742,1.742,0,0,0,42.34,22.9Z" transform="translate(1006.632 4897.955)" fill="#12263f"/>
    <g id="Grupo_1065295" data-name="Grupo 1065295" transform="translate(918.474 4711.007)">
      <path id="Trazado_801300" data-name="Trazado 801300" d="M833.615,196.5q0,2.188-.1,4.349l2.2.1q.1-2.213.1-4.452Z" transform="translate(-649.301 -196.499)" fill="#12263f"/>
      <path id="Trazado_801301" data-name="Trazado 801301" d="M577.818,380.009c2.783.961,5.649,1.8,8.516,2.486l.513-2.14c-2.8-.673-5.595-1.489-8.312-2.426Z" transform="translate(-514.962 -291.82)" fill="#12263f"/>
      <path id="Trazado_801302" data-name="Trazado 801302" d="M552.036,369.129c2.614,1.347,5.329,2.586,8.071,3.681l.816-2.043c-2.677-1.069-5.327-2.278-7.879-3.593Z" transform="translate(-501.416 -286.17)" fill="#12263f"/>
      <path id="Trazado_801303" data-name="Trazado 801303" d="M613.886,386.177c-2.875-.266-5.76-.675-8.572-1.212l-.412,2.161c2.881.55,5.836.967,8.781,1.242Z" transform="translate(-529.191 -295.518)" fill="#12263f"/>
      <path id="Trazado_801304" data-name="Trazado 801304" d="M528.095,354.732c2.4,1.708,4.911,3.321,7.464,4.794l1.1-1.906c-2.492-1.439-4.944-3.013-7.288-4.68Z" transform="translate(-488.838 -278.692)" fill="#12263f"/>
      <path id="Trazado_801305" data-name="Trazado 801305" d="M448.485,215.143l-2.189.213c.283,2.94.711,5.892,1.27,8.776l2.159-.418c-.544-2.816-.962-5.7-1.24-8.571" transform="translate(-445.861 -206.295)" fill="#12263f"/>
      <path id="Trazado_801306" data-name="Trazado 801306" d="M506.467,337.127c2.136,2.03,4.393,3.983,6.709,5.8l1.36-1.73c-2.262-1.777-4.466-3.683-6.552-5.666Z" transform="translate(-477.475 -269.546)" fill="#12263f"/>
      <path id="Trazado_801307" data-name="Trazado 801307" d="M471.833,293.807c1.477,2.544,3.1,5.051,4.813,7.45l1.79-1.281c-1.676-2.342-3.258-4.789-4.7-7.273Z" transform="translate(-459.278 -247.044)" fill="#12263f"/>
      <path id="Trazado_801308" data-name="Trazado 801308" d="M453.106,242.113l-2.138.522c.7,2.868,1.546,5.73,2.513,8.507l2.078-.724c-.944-2.711-1.769-5.505-2.453-8.305" transform="translate(-448.316 -220.464)" fill="#12263f"/>
      <path id="Trazado_801309" data-name="Trazado 801309" d="M487.59,316.682c1.822,2.308,3.78,4.56,5.82,6.693l1.59-1.522c-1.992-2.083-3.9-4.281-5.682-6.534Z" transform="translate(-467.557 -258.926)" fill="#12263f"/>
      <path id="Trazado_801310" data-name="Trazado 801310" d="M459.538,268.957c1.1,2.728,2.344,5.439,3.7,8.059L465.194,276c-1.327-2.558-2.543-5.206-3.615-7.868Z" transform="translate(-452.819 -234.136)" fill="#12263f"/>
      <path id="Trazado_801311" data-name="Trazado 801311" d="M660.289,386.126l.208,2.192c2.937-.281,5.891-.7,8.779-1.259l-.417-2.162c-2.818.544-5.7.956-8.57,1.229" transform="translate(-558.291 -295.481)" fill="#12263f"/>
      <path id="Trazado_801312" data-name="Trazado 801312" d="M812.442,275.7l1.955,1.01c1.352-2.617,2.594-5.332,3.689-8.067l-2.043-.819c-1.07,2.671-2.282,5.321-3.6,7.876" transform="translate(-638.231 -233.974)" fill="#12263f"/>
      <path id="Trazado_801313" data-name="Trazado 801313" d="M798.179,299.72,799.971,301c1.713-2.4,3.329-4.913,4.8-7.458l-1.9-1.1c-1.439,2.486-3.016,4.935-4.69,7.282" transform="translate(-630.737 -246.905)" fill="#12263f"/>
      <path id="Trazado_801314" data-name="Trazado 801314" d="M830.294,223.343l2.162.415c.553-2.888.974-5.842,1.252-8.78l-2.19-.206c-.272,2.868-.683,5.752-1.224,8.571" transform="translate(-647.61 -206.1)" fill="#12263f"/>
      <path id="Trazado_801315" data-name="Trazado 801315" d="M823.229,250.06l2.08.72c.963-2.781,1.8-5.645,2.5-8.514l-2.138-.518c-.677,2.8-1.5,5.6-2.438,8.311" transform="translate(-643.898 -220.273)" fill="#12263f"/>
      <path id="Trazado_801316" data-name="Trazado 801316" d="M780.744,321.635l1.592,1.519c2.036-2.136,3.991-4.391,5.811-6.7l-1.729-1.36c-1.777,2.257-3.686,4.459-5.674,6.544" transform="translate(-621.577 -258.806)" fill="#12263f"/>
      <path id="Trazado_801317" data-name="Trazado 801317" d="M737.876,357.453l1.1,1.9c2.551-1.476,5.058-3.093,7.455-4.8l-1.279-1.79c-2.34,1.671-4.79,3.249-7.279,4.691" transform="translate(-599.054 -278.598)" fill="#12263f"/>
      <path id="Trazado_801318" data-name="Trazado 801318" d="M713.292,370.632l.821,2.041c2.735-1.1,5.448-2.341,8.062-3.693l-1.01-1.955c-2.553,1.32-5.2,2.533-7.873,3.607" transform="translate(-586.138 -286.092)" fill="#12263f"/>
      <path id="Trazado_801319" data-name="Trazado 801319" d="M687.266,380.248l.518,2.14c2.856-.692,5.719-1.534,8.511-2.5l-.722-2.078c-2.726.945-5.52,1.766-8.307,2.441" transform="translate(-572.465 -291.757)" fill="#12263f"/>
      <path id="Trazado_801320" data-name="Trazado 801320" d="M760.51,341.007l1.362,1.727c2.313-1.822,4.568-3.777,6.7-5.811l-1.519-1.592c-2.081,1.986-4.282,3.9-6.542,5.676" transform="translate(-610.947 -269.44)" fill="#12263f"/>
      <path id="Trazado_801321" data-name="Trazado 801321" d="M447.581,196.5h-2.2q0,2.238.1,4.452l2.2-.1q-.1-2.161-.1-4.349" transform="translate(-445.381 -196.499)" fill="#12263f"/>
      <path id="Trazado_801322" data-name="Trazado 801322" d="M635.966,393.742h2.2v-3.324c1.146-.013,2.29-.028,3.425-.084l-.105-2.2q-2.134.1-4.3.1c-1.472.015-2.919-.03-4.364-.1l-.1,2.2c1.075.051,2.159.06,3.243.074Z" transform="translate(-543.808 -297.184)" fill="#12263f"/>
      <rect id="Rectángulo_374193" data-name="Rectángulo 374193" width="2.2" height="7.25" transform="translate(92.158 111.056)" fill="#12263f"/>
      <rect id="Rectángulo_374194" data-name="Rectángulo 374194" width="2.2" height="7.25" transform="translate(92.158 100.183)" fill="#12263f"/>
      <rect id="Rectángulo_374195" data-name="Rectángulo 374195" width="2.2" height="4.401" transform="translate(92.158 121.929)" fill="#12263f"/>
    </g>
    <path id="Trazado_801407" data-name="Trazado 801407" d="M2320.181,0a93.351,93.351,0,0,0-93.25,93.25h186.5A93.352,93.352,0,0,0,2320.181,0" transform="translate(-1308.447 4617.747)" fill="#b4d7e4"/>
    <path id="Trazado_801432" data-name="Trazado 801432" d="M2415.865,118.533A70.432,70.432,0,1,1,2345.432,48.1a70.432,70.432,0,0,1,70.432,70.433" transform="translate(-1333.702 4592.476)" fill="#f6f6f6"/>
    <g id="Enmascarar_grupo_1064367" data-name="Enmascarar grupo 1064367" transform="translate(941.302 4640.576)" clip-path="url(#clip-path)">
      <g id="OUTLINE" transform="translate(23.642 23)">
        <path id="Trazado_801479" data-name="Trazado 801479" d="M56.341,62.695A17.157,17.157,0,1,0,73.5,79.851,17.157,17.157,0,0,0,56.341,62.695Zm0,31.194A14.037,14.037,0,1,1,70.378,79.851,14.037,14.037,0,0,1,56.341,93.889Z" transform="translate(-11.11 -15.904)" fill="#12263f"/>
        <path id="Trazado_801480" data-name="Trazado 801480" d="M62.618,70.532H53.26V76.77H47.021v9.358H53.26v6.239h9.358V86.128h6.239V76.77H62.618Zm3.119,9.358v3.119H59.5v6.239H56.379V83.009H50.14V79.89h6.239V73.651H59.5V79.89Z" transform="translate(-12.708 -17.502)" fill="#12263f"/>
        <path id="Trazado_801481" data-name="Trazado 801481" d="M8.231,81.884l-3.053.642a46.647,46.647,0,0,0,1.295,4.842L9.438,86.4a43.43,43.43,0,0,1-1.208-4.516Z" transform="translate(-4.175 -19.817)" fill="#12263f"/>
        <path id="Trazado_801482" data-name="Trazado 801482" d="M11.181,91.339,8.295,92.523a46.764,46.764,0,0,0,2.321,4.841l2.731-1.508a43.6,43.6,0,0,1-2.165-4.517Z" transform="translate(-4.811 -21.745)" fill="#12263f"/>
        <path id="Trazado_801483" data-name="Trazado 801483" d="M16.267,100.8l-2.6,1.723a47.016,47.016,0,0,0,18.054,16.02l1.4-2.787A43.894,43.894,0,0,1,16.267,100.8Z" transform="translate(-5.906 -23.674)" fill="#12263f"/>
        <path id="Trazado_801484" data-name="Trazado 801484" d="M87.285,118.839l1.4,2.787a46.91,46.91,0,0,0,5.3-3.114l-1.754-2.58A43.784,43.784,0,0,1,87.285,118.839Z" transform="translate(-20.919 -26.76)" fill="#12263f"/>
        <path id="Trazado_801485" data-name="Trazado 801485" d="M98.437,110.991l2.033,2.365a47.218,47.218,0,0,0,4.862-4.839l-2.356-2.045A44.088,44.088,0,0,1,98.437,110.991Z" transform="translate(-23.193 -24.831)" fill="#12263f"/>
        <path id="Trazado_801486" data-name="Trazado 801486" d="M107.144,98.446l2.526,1.831a46.306,46.306,0,0,0,7.877-17.751l-3.053-.642A43.2,43.2,0,0,1,107.144,98.446Z" transform="translate(-24.968 -19.817)" fill="#12263f"/>
        <rect id="Rectángulo_374203" data-name="Rectángulo 374203" width="3.119" height="18.716" transform="translate(7.798 38.992)" fill="#12263f"/>
        <path id="Trazado_801487" data-name="Trazado 801487" d="M91.016,32.777l-6.628-2.946a1.561,1.561,0,0,1-.926-1.425v-2.18L85.01,23.9a9.33,9.33,0,0,0,1.571-5.191V13.277a9.358,9.358,0,0,0-18.716,0v5.437A9.329,9.329,0,0,0,69.437,23.9l1.548,2.321v2.18a1.561,1.561,0,0,1-.926,1.425l-6.092,2.708-6.093-2.708a1.561,1.561,0,0,1-.926-1.425v-2.18L58.5,23.9a9.33,9.33,0,0,0,1.571-5.191V13.277a9.358,9.358,0,0,0-18.716,0v5.437A9.329,9.329,0,0,0,42.923,23.9l1.548,2.321v2.18a1.561,1.561,0,0,1-.926,1.425l-6.092,2.708-6.093-2.708a1.561,1.561,0,0,1-.926-1.425v-2.18L31.981,23.9a9.329,9.329,0,0,0,1.571-5.191V13.277a9.358,9.358,0,0,0-18.716,0v5.437A9.329,9.329,0,0,0,16.408,23.9l1.548,2.321v2.18a1.561,1.561,0,0,1-.926,1.425L10.4,32.777a10.927,10.927,0,0,0-6.484,9.977V61.627H7.038V42.753a7.805,7.805,0,0,1,4.631-7.126L18.3,32.682a4.683,4.683,0,0,0,2.779-4.276V25.282L19,22.175a6.22,6.22,0,0,1-1.048-3.461V13.277a6.239,6.239,0,0,1,12.477,0v5.437a6.22,6.22,0,0,1-1.048,3.461l-2.072,3.107v3.124a4.683,4.683,0,0,0,2.779,4.276L34.2,34.507a10.928,10.928,0,0,0-3.765,8.247v1.889L24.7,50.374l4.03,6.576-1.742,4.2-7.474,1.792v9.839l7.473,1.792,1.742,4.2L24.7,85.357l6.957,6.957,6.576-4.03,4.2,1.742L44.23,97.5h9.839l1.792-7.473,4.2-1.742,6.576,4.03L73.6,85.357l-4.03-6.576,1.742-4.2,7.474-1.792V62.946L71.31,61.154l-1.742-4.2,4.03-6.576-2.613-2.613V42.753a10.928,10.928,0,0,0-3.765-8.247l4.106-1.825A4.683,4.683,0,0,0,74.1,28.406V25.282l-2.071-3.107a6.22,6.22,0,0,1-1.048-3.461V13.277a6.239,6.239,0,1,1,12.477,0v5.437a6.22,6.22,0,0,1-1.048,3.461l-2.072,3.107v3.124a4.683,4.683,0,0,0,2.779,4.276l6.627,2.946a7.805,7.805,0,0,1,4.631,7.126V61.627H97.5V42.753a10.927,10.927,0,0,0-6.484-9.977ZM69.653,50.841l-3.575,5.834,2.959,7.141,6.627,1.589v4.92l-6.628,1.589-2.959,7.141,3.575,5.835-3.479,3.479-5.834-3.575L53.2,87.753,51.609,94.38H46.69L45.1,87.753,37.96,84.794l-5.835,3.575L28.646,84.89l3.575-5.835-2.959-7.141-6.627-1.589v-4.92l6.628-1.589,2.959-7.141-3.575-5.835,3.479-3.479,5.835,3.575L45.1,47.978l1.589-6.627h4.92L53.2,47.978l7.141,2.959,5.835-3.575,1.692,1.692v.1h.1Zm-1.787-8.088v1.889l-1.225-1.225-6.576,4.03-4.2-1.742-1.792-7.474H44.23L42.438,45.7l-4.2,1.742-4.682-2.869V42.754a7.805,7.805,0,0,1,4.631-7.126l6.627-2.946a4.683,4.683,0,0,0,2.779-4.276V25.282l-2.071-3.107a6.22,6.22,0,0,1-1.048-3.461V13.277a6.239,6.239,0,0,1,12.477,0v5.437A6.22,6.22,0,0,1,55.9,22.174l-2.072,3.107v3.124a4.683,4.683,0,0,0,2.779,4.276l6.627,2.946A7.805,7.805,0,0,1,67.866,42.753Z" transform="translate(-3.918 -3.918)" fill="#12263f"/>
        <rect id="Rectángulo_374204" data-name="Rectángulo 374204" width="3.119" height="18.716" transform="translate(82.663 38.992)" fill="#12263f"/>
      </g>
    </g>
    <path id="Trazado_801493" data-name="Trazado 801493" d="M187.053,462.675a16.591,16.591,0,1,0,16.59,16.591,16.591,16.591,0,0,0-16.59-16.591" transform="translate(824.679 4370.425)" fill="#12263f"/>
    <path id="Trazado_801808" data-name="Trazado 801808" d="M2.6-12.929v2.092H2.351a4.315,4.315,0,0,0-2.773.9A3.642,3.642,0,0,0-1.683-7.523,3.46,3.46,0,0,1,.892-8.561a3.26,3.26,0,0,1,2.654,1.2,4.792,4.792,0,0,1,.984,3.146A4.713,4.713,0,0,1,3.99-1.96,3.877,3.877,0,0,1,2.461-.387,4.443,4.443,0,0,1,.224.176,4.15,4.15,0,0,1-3.041-1.23,5.459,5.459,0,0,1-4.285-4.983V-5.9A8.215,8.215,0,0,1-3.5-9.576a5.768,5.768,0,0,1,2.259-2.47,6.619,6.619,0,0,1,3.415-.883ZM.119-6.513A2.029,2.029,0,0,0-1-6.193a1.929,1.929,0,0,0-.738.847v.772a3.42,3.42,0,0,0,.5,1.987,1.619,1.619,0,0,0,1.406.715,1.6,1.6,0,0,0,1.323-.645A2.63,2.63,0,0,0,2-4.188a2.625,2.625,0,0,0-.51-1.684A1.661,1.661,0,0,0,.119-6.513Z" transform="translate(1010.613 4855.254)" fill="#fff"/>
  </g>
</svg>
