<svg xmlns="http://www.w3.org/2000/svg" xmlns:xlink="http://www.w3.org/1999/xlink" width="485.49" height="516" viewBox="0 0 485.49 516">
  <defs>
    <clipPath id="clip-path">
      <rect id="Rectángulo_374246" data-name="Rectángulo 374246" width="485.49" height="477.169" fill="none"/>
    </clipPath>
    <clipPath id="clip-path-6">
      <rect id="Rectángulo_374238" data-name="Rectángulo 374238" width="29.554" height="29.837" fill="none"/>
    </clipPath>
    <clipPath id="clip-path-7">
      <rect id="Rectángulo_374239" data-name="Rectángulo 374239" width="3.751" height="3.75" fill="none"/>
    </clipPath>
    <clipPath id="clip-path-8">
      <rect id="Rectángulo_374240" data-name="Rectángulo 374240" width="3.125" height="3.119" fill="none"/>
    </clipPath>
    <clipPath id="clip-path-9">
      <rect id="Rectángulo_374241" data-name="Rectángulo 374241" width="40.146" height="3.255" fill="none"/>
    </clipPath>
    <clipPath id="clip-path-10">
      <rect id="Rectángulo_374242" data-name="Rectángulo 374242" width="19.874" height="4.012" fill="none"/>
    </clipPath>
    <clipPath id="clip-path-11">
      <rect id="Rectángulo_374243" data-name="Rectángulo 374243" width="15.473" height="49.279" fill="none"/>
    </clipPath>
  </defs>
  <g id="Grupo_1065531" data-name="Grupo 1065531" transform="translate(-180 -5072.964)">
    <g id="Grupo_1065512" data-name="Grupo 1065512" transform="translate(0 429.964)">
      <g id="Grupo_1065354" data-name="Grupo 1065354" transform="translate(180 4644)">
        <g id="Grupo_171324" data-name="Grupo 171324" transform="translate(262.703 81.239)">
          <path id="Trazado_207509" data-name="Trazado 207509" d="M2664.158,1357.9a.589.589,0,0,0-.024-.107,87.973,87.973,0,0,0-25.478-39.759c-10.145-9.031-22.625-16-37.093-20.718-25.409-8.282-52.525-7.9-66.967-4.038a.679.679,0,0,0-.5.85.751.751,0,0,0,.916.471c25.409-6.793,106.173-4.328,127.709,63.576a.751.751,0,0,0,.917.468A.685.685,0,0,0,2664.158,1357.9Z" transform="translate(-2534.064 -1290.642)" fill="#f3f9ff"/>
        </g>
        <g id="Grupo_171325" data-name="Grupo 171325" transform="translate(35.002 161.091)">
          <path id="Trazado_207510" data-name="Trazado 207510" d="M903.892,1604.272a.828.828,0,0,0-.116.025c-17.132,4.982-31.535,13.161-42.811,24.31a91.188,91.188,0,0,0-21.7,34.44c-8.4,23.439-7.29,48.218-2.7,61.321a.766.766,0,0,0,.942.437.668.668,0,0,0,.491-.849c-8.077-23.055-7.45-96.949,66.231-118.375a.667.667,0,0,0,.488-.85A.756.756,0,0,0,903.892,1604.272Z" transform="translate(-833.026 -1604.264)" fill="#f3f9ff"/>
        </g>
      </g>
      <path id="Rectángulo_374328" data-name="Rectángulo 374328" d="M0,0H364a30,30,0,0,1,30,30V242a0,0,0,0,1,0,0H30A30,30,0,0,1,0,212V0A0,0,0,0,1,0,0Z" transform="translate(246 4917)" fill="#92df98"/>
      <path id="Rectángulo_374329" data-name="Rectángulo 374329" d="M0,0H364a30,30,0,0,1,30,30V242a0,0,0,0,1,0,0H30A30,30,0,0,1,0,212V0A0,0,0,0,1,0,0Z" transform="translate(601 4885) rotate(180)" fill="#92df98"/>
      <path id="Rectángulo_374327" data-name="Rectángulo 374327" d="M0,0H370a30,30,0,0,1,30,30V489a0,0,0,0,1,0,0H30A30,30,0,0,1,0,459V0A0,0,0,0,1,0,0Z" transform="translate(223 4655)" fill="#edfdee"/>
    </g>
    <g id="Grupo_1065353" data-name="Grupo 1065353" transform="translate(180 5100.199)">
      <g id="Grupo_1065352" data-name="Grupo 1065352" clip-path="url(#clip-path)">
        <g id="Grupo_1065325" data-name="Grupo 1065325">
          <g id="Grupo_1065324" data-name="Grupo 1065324" clip-path="url(#clip-path)">
            <path id="Trazado_801494" data-name="Trazado 801494" d="M119.01,148.678a20.1,20.1,0,0,0-4.906-2.132l-1.01-4.857-8.206-.144-1.182,4.818a20.065,20.065,0,0,0-4.979,1.959L94.58,145.6l-5.905,5.7,2.571,4.239a20.087,20.087,0,0,0-2.132,4.908l-4.857,1.01-.144,8.206,4.818,1.182a20.155,20.155,0,0,0,1.959,4.978l-2.717,4.148,5.7,5.9,4.24-2.57a20.1,20.1,0,0,0,4.907,2.132l1.01,4.857,8.206.143,1.182-4.818a20.139,20.139,0,0,0,4.978-1.959l4.148,2.718,5.9-5.7-2.57-4.239a20.079,20.079,0,0,0,2.132-4.907l4.857-1.011.144-8.206-4.819-1.181a20.105,20.105,0,0,0-1.959-4.979l2.718-4.148-5.7-5.9Zm-4.374,10.931a8.8,8.8,0,1,1-12.449-.219,8.8,8.8,0,0,1,12.449.219" transform="translate(263.958 7.419)" fill="#e0e0e0"/>
            <path id="Trazado_801495" data-name="Trazado 801495" d="M114.456,158.852a6.63,6.63,0,0,0-1.64-1.439,8.767,8.767,0,0,0-5.743-1.358,8.875,8.875,0,0,0-3.9,1.386A9.023,9.023,0,0,0,100.013,161a9.026,9.026,0,0,0-.85,5.182,8.983,8.983,0,0,0,7.431,7.7,9.036,9.036,0,0,0,5.209-.668,9.007,9.007,0,0,0,3.666-3.03,8.855,8.855,0,0,0,1.523-3.853,8.76,8.76,0,0,0-1.156-5.788,6.651,6.651,0,0,0-1.38-1.688c-.047.04.531.578,1.21,1.786a8.781,8.781,0,0,1,.972,5.637,8.606,8.606,0,0,1-5.025,6.512,8.618,8.618,0,0,1-4.937.605,8.532,8.532,0,0,1-7.025-7.277,8.619,8.619,0,0,1,.779-4.912,8.6,8.6,0,0,1,6.684-4.794,8.775,8.775,0,0,1,5.6,1.171c1.184.72,1.7,1.318,1.743,1.271" transform="translate(264.138 8.177)" fill="#e0e0e0"/>
            <path id="Trazado_801496" data-name="Trazado 801496" d="M119.082,148.686a1.822,1.822,0,0,0,.274-.144l.814-.47,3.2-1.887-.1-.014,5.666,5.938-.015-.159-2.735,4.136-.049.075.044.079a20.11,20.11,0,0,1,1.927,4.945l.023.1.1.024,4.815,1.194-.137-.177c-.052,2.584-.105,5.325-.163,8.2l.158-.19-4.858,1-.123.025-.035.122a20,20,0,0,1-2.119,4.852l-.068.113.068.113c.8,1.316,1.672,2.766,2.565,4.243l.036-.278-5.911,5.693.293-.027-4.145-2.723-.121-.079-.126.07a20,20,0,0,1-4.92,1.931l-.144.035-.035.144c-.371,1.509-.776,3.155-1.184,4.817l.244-.187-8.206-.148.241.2c-.319-1.534-.663-3.19-1.01-4.857l-.031-.149-.147-.041a19.959,19.959,0,0,1-4.841-2.1l0,0-.132-.079-.129.079-4.24,2.571.313.04-5.7-5.9.029.31q1.37-2.095,2.716-4.149l.082-.125-.074-.13A19.911,19.911,0,0,1,89.24,170.8l-.036-.144-.143-.035-4.819-1.178.183.238q.069-4.2.136-8.206l-.184.223,4.855-1.017.135-.028.037-.132a19.924,19.924,0,0,1,2.1-4.856l.068-.114-.068-.113L88.927,151.2l-.035.259,5.892-5.711-.24.022,4.154,2.708.093.06.095-.054a20.052,20.052,0,0,1,4.931-1.955l.1-.024.024-.1c.423-1.752.8-3.33,1.165-4.821l-.148.114,8.207.107-.108-.089c.416,1.936.758,3.527,1.042,4.851l.011.048.046.013a20.837,20.837,0,0,1,3.753,1.444l.882.461a1.927,1.927,0,0,0,.295.149,2.613,2.613,0,0,0-.274-.186c-.187-.116-.471-.288-.865-.5a19.478,19.478,0,0,0-3.746-1.525l.057.061-.98-4.863-.018-.088-.091,0-8.206-.18-.118,0-.029.116c-.37,1.489-.762,3.065-1.2,4.814l.121-.121a20.3,20.3,0,0,0-5.027,1.962l.187.006-4.14-2.728-.129-.085-.112.107L88.6,151.161l-.12.116.086.144,2.564,4.243v-.226a20.361,20.361,0,0,0-2.164,4.959l.172-.16-4.857,1.005-.182.038,0,.186q-.074,4-.153,8.2l0,.192.186.046,4.817,1.185-.179-.179a20.341,20.341,0,0,0,1.98,5.04l.009-.256q-1.347,2.052-2.719,4.147l-.109.166.138.144,5.7,5.906.14.144.172-.1,4.24-2.57h-.261l0,0a20.406,20.406,0,0,0,4.965,2.156l-.178-.19c.347,1.667.692,3.322,1.011,4.856l.041.2.2,0,8.207.14.2,0,.047-.193c.406-1.663.809-3.309,1.178-4.819l-.179.179a20.391,20.391,0,0,0,5.037-1.986l-.247-.008,4.15,2.714.157.1.136-.13,5.9-5.708.129-.125-.094-.154-2.576-4.235v.225a20.372,20.372,0,0,0,2.147-4.963l-.158.147,4.855-1.021.155-.033,0-.158c.044-2.879.085-5.622.125-8.207l0-.143-.14-.035-4.821-1.167.121.121a20.294,20.294,0,0,0-1.989-5.011l-.006.153,2.7-4.158.057-.086-.072-.073-5.735-5.871-.045-.046-.054.034-3.124,1.944-.8.509a2.411,2.411,0,0,0-.272.186" transform="translate(263.886 7.411)" fill="#e0e0e0"/>
            <path id="Trazado_801497" data-name="Trazado 801497" d="M339.254,203.886a12.068,12.068,0,0,0-2.937-1.277l-.605-2.907-4.912-.086-.707,2.884a12.039,12.039,0,0,0-2.98,1.172l-2.483-1.627-3.534,3.413L322.635,208a12.052,12.052,0,0,0-1.277,2.938l-2.907.6-.086,4.913,2.884.707a12.014,12.014,0,0,0,1.172,2.979l-1.627,2.483,3.413,3.535,2.537-1.539a12.042,12.042,0,0,0,2.937,1.276l.605,2.908,4.913.086.707-2.885a12.015,12.015,0,0,0,2.979-1.172l2.483,1.628,3.535-3.413-1.54-2.538a12.031,12.031,0,0,0,1.278-2.937l2.907-.605.086-4.912-2.885-.707a12.038,12.038,0,0,0-1.172-2.98l1.627-2.483-3.412-3.534Zm-2.618,6.544a5.27,5.27,0,1,1-7.452-.132,5.27,5.27,0,0,1,7.452.132" transform="translate(-197.196 10.463)" fill="#f5f5f5"/>
            <path id="Trazado_801498" data-name="Trazado 801498" d="M336.529,209.976a3.987,3.987,0,0,0-.981-.861,5.245,5.245,0,0,0-3.438-.814,5.317,5.317,0,0,0-2.337.83,5.394,5.394,0,0,0-1.889,2.129,5.4,5.4,0,0,0-.509,3.1,5.375,5.375,0,0,0,4.449,4.609,5.4,5.4,0,0,0,3.118-.4,5.392,5.392,0,0,0,2.194-1.813,5.312,5.312,0,0,0,.911-2.307,5.247,5.247,0,0,0-.691-3.465,3.984,3.984,0,0,0-.826-1.01c-.028.024.318.346.724,1.069a5.261,5.261,0,0,1,.583,3.374,5.151,5.151,0,0,1-3.009,3.9,5.141,5.141,0,0,1-2.955.362,5.1,5.1,0,0,1-4.2-4.356,5.139,5.139,0,0,1,.465-2.94,5.151,5.151,0,0,1,4-2.869,5.252,5.252,0,0,1,3.352.7c.708.43,1.018.788,1.043.761" transform="translate(-197.089 10.916)" fill="#f5f5f5"/>
            <path id="Trazado_801499" data-name="Trazado 801499" d="M339.3,203.89a1,1,0,0,0,.164-.085c.119-.071.279-.162.486-.282q.666-.392,1.913-1.129l-.06-.008,3.392,3.554-.009-.1-1.637,2.477-.029.043.025.047a11.964,11.964,0,0,1,1.153,2.962l.015.059.059.014,2.882.715-.082-.106c-.031,1.547-.063,3.189-.1,4.913l.094-.116-2.908.6-.074.014-.021.075a11.925,11.925,0,0,1-1.268,2.9l-.04.066.04.069,1.535,2.538.021-.166c-1.11,1.071-2.309,2.226-3.538,3.408l.175-.016-2.481-1.629-.073-.047-.076.041a11.977,11.977,0,0,1-2.946,1.157l-.085.02-.021.086c-.222.9-.465,1.889-.709,2.885l.146-.113c-1.556-.029-3.223-.059-4.912-.088l.144.12c-.192-.919-.4-1.91-.605-2.908l-.018-.09-.088-.023a11.9,11.9,0,0,1-2.9-1.261h0l-.079-.047-.077.047-2.538,1.538.186.025-3.413-3.534.018.186q.821-1.255,1.626-2.484l.049-.075-.044-.078a11.9,11.9,0,0,1-1.16-2.944l-.021-.086-.086-.022q-1.463-.355-2.885-.7l.109.143q.043-2.516.082-4.913l-.11.134q1.479-.309,2.906-.609l.081-.016.022-.078a11.874,11.874,0,0,1,1.258-2.908l.041-.067-.041-.068-1.543-2.535-.02.156,3.527-3.42-.143.014,2.486,1.622.056.035.057-.031a11.969,11.969,0,0,1,2.951-1.17l.059-.016.014-.057c.254-1.049.482-2,.7-2.887l-.088.068,4.913.063-.065-.053c.249,1.16.454,2.11.624,2.9l.006.029.027.008a12.488,12.488,0,0,1,2.247.865l.528.276a1.092,1.092,0,0,0,.176.088,1.391,1.391,0,0,0-.164-.111c-.112-.068-.282-.173-.518-.3a11.468,11.468,0,0,0-2.242-.913l.034.037c-.16-.795-.352-1.749-.586-2.913l-.01-.052-.055,0c-1.388-.029-3.009-.064-4.912-.107l-.071,0-.018.07c-.221.891-.456,1.834-.717,2.88l.073-.073a12.173,12.173,0,0,0-3.009,1.174l.112.005-2.478-1.633-.077-.05-.066.064-3.541,3.4-.073.071.053.085c.5.824,1.008,1.668,1.534,2.541v-.136a12.222,12.222,0,0,0-1.294,2.969l.1-.1q-1.429.3-2.908.6l-.109.022,0,.112q-.044,2.395-.091,4.911l0,.116.112.027,2.884.709-.107-.106a12.217,12.217,0,0,0,1.185,3.016l.005-.154q-.805,1.228-1.628,2.482l-.065.1.083.086,3.411,3.534.084.088.1-.063,2.537-1.54h-.156l0,0a12.13,12.13,0,0,0,2.972,1.29l-.106-.114c.208,1,.415,1.989.605,2.908l.025.116.12,0c1.689.029,3.356.059,4.912.084l.119,0,.027-.114c.243-1,.484-1.982.705-2.885l-.106.106A12.166,12.166,0,0,0,339,224.96l-.148-.005,2.485,1.625.094.061.081-.079c1.226-1.185,2.422-2.342,3.53-3.416l.078-.075-.056-.092c-.537-.882-1.064-1.75-1.543-2.535v.134a12.137,12.137,0,0,0,1.285-2.971l-.095.088,2.907-.61.093-.02,0-.094c.026-1.724.051-3.366.075-4.913v-.086l-.083-.02-2.886-.7.072.073a12.165,12.165,0,0,0-1.19-3l0,.093,1.618-2.49.034-.051-.043-.043-3.432-3.515-.027-.029-.033.022-1.869,1.162c-.205.129-.363.232-.481.306a1.307,1.307,0,0,0-.163.111" transform="translate(-197.24 10.458)" fill="#f5f5f5"/>
            <path id="Trazado_801500" data-name="Trazado 801500" d="M379.617,32.583a15.448,15.448,0,0,0-3.781-1.643l-.779-3.743-6.324-.112-.91,3.714a15.5,15.5,0,0,0-3.837,1.509l-3.2-2.1-4.55,4.394,1.981,3.267a15.493,15.493,0,0,0-1.644,3.782l-3.742.779-.112,6.324,3.714.91a15.5,15.5,0,0,0,1.509,3.837l-2.094,3.2,4.393,4.551,3.267-1.982a15.534,15.534,0,0,0,3.782,1.644l.779,3.742,6.324.112.91-3.714a15.5,15.5,0,0,0,3.837-1.509l3.2,2.1,4.551-4.394-1.982-3.267a15.477,15.477,0,0,0,1.644-3.782l3.742-.779.112-6.324-3.713-.91a15.545,15.545,0,0,0-1.51-3.837l2.1-3.2L382.886,30.6Zm-3.371,8.425a6.785,6.785,0,1,1-9.594-.168,6.784,6.784,0,0,1,9.594.168" transform="translate(-276.127 1.42)" fill="#f5f5f5"/>
            <path id="Trazado_801501" data-name="Trazado 801501" d="M376.107,40.423a5.124,5.124,0,0,0-1.263-1.108,6.756,6.756,0,0,0-4.427-1.047,6.83,6.83,0,0,0-3.008,1.069,6.939,6.939,0,0,0-2.433,2.74,6.973,6.973,0,0,0-.656,3.994A6.923,6.923,0,0,0,370.048,52a6.947,6.947,0,0,0,4.015-.515,6.954,6.954,0,0,0,2.826-2.335,6.837,6.837,0,0,0,1.173-2.969,6.755,6.755,0,0,0-.89-4.46,5.142,5.142,0,0,0-1.064-1.3c-.037.032.409.445.932,1.377a6.773,6.773,0,0,1,.75,4.343,6.632,6.632,0,0,1-3.874,5.019,6.62,6.62,0,0,1-3.8.466A6.575,6.575,0,0,1,364.7,46.02a6.638,6.638,0,0,1,.6-3.784,6.627,6.627,0,0,1,5.152-3.694,6.764,6.764,0,0,1,4.315.9c.912.555,1.31,1.016,1.343.98" transform="translate(-275.988 2.004)" fill="#f5f5f5"/>
            <path id="Trazado_801502" data-name="Trazado 801502" d="M379.673,32.589a1.425,1.425,0,0,0,.21-.112l.627-.362,2.463-1.454-.077-.011c1.118,1.172,2.588,2.713,4.366,4.576l-.012-.122-2.108,3.188-.038.057.034.061a15.47,15.47,0,0,1,1.485,3.812l.018.075.076.019,3.711.921-.105-.137c-.04,1.991-.082,4.1-.126,6.323l.122-.147-3.743.772-.1.019-.026.094a15.459,15.459,0,0,1-1.632,3.739l-.053.086.053.087,1.976,3.271.027-.215-4.556,4.388.225-.021L379.3,59.4l-.094-.061-.1.055a15.435,15.435,0,0,1-3.792,1.488l-.11.026-.027.112c-.285,1.163-.6,2.431-.912,3.713l.188-.145-6.324-.114.186.154-.779-3.743-.023-.115-.114-.033a15.322,15.322,0,0,1-3.731-1.621l0,0-.1-.06-.1.06L360.2,61.092l.24.032-4.394-4.55.022.239q1.058-1.613,2.093-3.2l.063-.1-.056-.1a15.317,15.317,0,0,1-1.493-3.789l-.027-.112-.111-.027-3.714-.907.141.183q.054-3.238.105-6.323l-.143.172,3.742-.784.1-.021.028-.1a15.4,15.4,0,0,1,1.62-3.742l.053-.087-.053-.087q-1.021-1.678-1.986-3.264l-.026.2,4.541-4.4-.185.018,3.2,2.087.07.046.074-.041a15.455,15.455,0,0,1,3.8-1.508l.075-.019.019-.075c.325-1.35.62-2.567.9-3.715l-.114.087,6.324.083-.084-.069c.321,1.492.584,2.717.8,3.738l.008.037.037.011a15.967,15.967,0,0,1,2.891,1.112l.68.355a1.5,1.5,0,0,0,.227.116,1.914,1.914,0,0,0-.21-.143c-.145-.089-.364-.223-.667-.384a14.97,14.97,0,0,0-2.887-1.177l.044.047c-.206-1.023-.454-2.251-.755-3.748l-.014-.067-.071,0-6.324-.139-.091,0-.023.089-.922,3.71.093-.093a15.6,15.6,0,0,0-3.874,1.511l.144.005-3.191-2.1-.1-.065-.086.083L356.182,34.5l-.093.089.067.112q.961,1.593,1.975,3.27v-.174a15.664,15.664,0,0,0-1.666,3.821l.132-.123-3.743.775-.14.028,0,.144q-.057,3.083-.117,6.323l0,.148.144.035,3.712.913-.138-.138a15.7,15.7,0,0,0,1.526,3.884l.007-.2-2.1,3.2-.084.128.106.111q2.166,2.243,4.392,4.552l.108.112.133-.08,3.268-1.982h-.2a15.714,15.714,0,0,0,3.826,1.662l-.137-.147c.268,1.285.534,2.562.78,3.743l.032.152.155,0,6.324.108.153,0,.036-.147c.314-1.282.623-2.551.907-3.714l-.137.138a15.683,15.683,0,0,0,3.881-1.531l-.192-.006,3.2,2.092.122.079.1-.1,4.545-4.4.1-.1-.073-.118L385.107,53.9v.174a15.656,15.656,0,0,0,1.654-3.824l-.121.113,3.741-.786.119-.025,0-.122c.034-2.218.065-4.333.1-6.324l0-.111-.107-.026-3.716-.9.094.094a15.674,15.674,0,0,0-1.533-3.861l0,.118c.749-1.156,1.45-2.234,2.082-3.2l.043-.067-.055-.056-4.419-4.524-.036-.037-.041.026-2.408,1.5-.619.394a1.867,1.867,0,0,0-.209.143" transform="translate(-276.183 1.414)" fill="#f5f5f5"/>
            <path id="Trazado_801503" data-name="Trazado 801503" d="M277.806,59.156a12.069,12.069,0,0,0-2.937-1.277l-.605-2.907-4.912-.086-.707,2.884a12.038,12.038,0,0,0-2.98,1.172l-2.483-1.627-3.534,3.413,1.539,2.537A12.055,12.055,0,0,0,259.91,66.2l-2.907.6-.086,4.913,2.884.707a12.04,12.04,0,0,0,1.172,2.98l-1.627,2.483,3.413,3.534,2.537-1.539a12.075,12.075,0,0,0,2.938,1.277l.6,2.907,4.913.086.707-2.885a12.014,12.014,0,0,0,2.979-1.172l2.483,1.628,3.535-3.413-1.539-2.538a12.069,12.069,0,0,0,1.277-2.937l2.907-.605.086-4.912-2.885-.707a12.038,12.038,0,0,0-1.172-2.98l1.627-2.483-3.412-3.534ZM275.188,65.7a5.27,5.27,0,1,1-7.452-.131,5.271,5.271,0,0,1,7.452.131" transform="translate(-71.08 2.877)" fill="#f5f5f5"/>
            <path id="Trazado_801504" data-name="Trazado 801504" d="M275.081,65.246a3.987,3.987,0,0,0-.981-.861,5.243,5.243,0,0,0-3.438-.814,5.317,5.317,0,0,0-2.337.83,5.4,5.4,0,0,0-1.889,2.129,5.4,5.4,0,0,0-.509,3.1,5.375,5.375,0,0,0,4.449,4.607,5.068,5.068,0,0,0,1.623.028,5.128,5.128,0,0,0,1.5-.427,5.4,5.4,0,0,0,2.194-1.814,5.3,5.3,0,0,0,.911-2.307,5.244,5.244,0,0,0-.691-3.463,3.98,3.98,0,0,0-.826-1.011c-.028.024.318.346.724,1.069a5.261,5.261,0,0,1,.583,3.374,5.151,5.151,0,0,1-3.009,3.9,5.141,5.141,0,0,1-2.955.362,5.108,5.108,0,0,1-4.2-4.356,5.163,5.163,0,0,1,.465-2.94,5.151,5.151,0,0,1,4-2.869,5.252,5.252,0,0,1,3.352.7c.708.43,1.018.788,1.043.761" transform="translate(-70.973 3.33)" fill="#f5f5f5"/>
            <path id="Trazado_801505" data-name="Trazado 801505" d="M277.85,59.16a1.123,1.123,0,0,0,.164-.085c.119-.069.279-.163.486-.282l1.913-1.129-.06-.008,3.392,3.555-.009-.1L282.1,63.59l-.029.044.025.048a11.963,11.963,0,0,1,1.153,2.959l.015.059.059.014c.9.223,1.87.466,2.882.716l-.082-.105c-.031,1.547-.063,3.187-.1,4.911l.094-.115-2.908.6-.074.017-.021.073a11.924,11.924,0,0,1-1.268,2.9l-.04.067.04.068c.477.786,1,1.655,1.535,2.539l.022-.167c-1.111,1.071-2.31,2.225-3.539,3.408l.175-.015-2.481-1.631-.073-.046-.076.041a11.894,11.894,0,0,1-2.946,1.157l-.085.02-.021.086c-.222.9-.465,1.889-.709,2.884l.146-.113-4.912-.087.144.119c-.192-.918-.4-1.909-.605-2.908l-.018-.088-.088-.025a11.888,11.888,0,0,1-2.9-1.259l0,0-.079-.046-.077.046L262.723,81.3l.186.025L259.5,77.791l.018.186q.821-1.253,1.626-2.483l.049-.076-.044-.078a11.9,11.9,0,0,1-1.16-2.944l-.021-.086-.086-.021-2.885-.705.109.142q.043-2.513.082-4.912l-.11.134,2.906-.608.081-.017.022-.078a11.854,11.854,0,0,1,1.258-2.908l.041-.067-.041-.068L259.8,60.667l-.02.155c1.241-1.2,2.412-2.337,3.527-3.419l-.143.014,2.486,1.622.056.037.057-.033a11.929,11.929,0,0,1,2.951-1.17l.059-.016.014-.057.7-2.888-.088.068,4.913.065-.065-.054c.249,1.159.454,2.11.624,2.9l.006.027.027.008a12.581,12.581,0,0,1,2.247.864c.226.118.4.21.528.276a.957.957,0,0,0,.176.089,1.67,1.67,0,0,0-.164-.112c-.112-.068-.282-.173-.518-.3a11.526,11.526,0,0,0-2.242-.915l.034.037c-.16-.795-.351-1.748-.586-2.91l-.011-.054h-.055L269.4,54.8l-.071,0-.018.071c-.221.89-.456,1.834-.717,2.882l.073-.073a12.111,12.111,0,0,0-3.009,1.173l.112.005c-.788-.521-1.607-1.06-2.478-1.633l-.077-.051-.067.064-3.54,3.406-.073.069.053.086,1.534,2.539V63.2a12.251,12.251,0,0,0-1.294,2.968l.1-.1q-1.429.3-2.908.6l-.109.022,0,.11q-.044,2.4-.091,4.912l0,.115.112.029,2.884.708-.107-.107a12.188,12.188,0,0,0,1.185,3.017l.005-.153q-.805,1.227-1.628,2.482l-.065.1.083.086,3.411,3.534.084.087.1-.063,2.537-1.539h-.156l0,0a12.223,12.223,0,0,0,2.972,1.289l-.106-.114c.208,1,.415,1.988.605,2.908l.025.118h.12l4.912.085h.119l.027-.114c.243-1,.484-1.982.705-2.885l-.106.106a12.168,12.168,0,0,0,3.014-1.189l-.148-.005,2.485,1.625.094.062.081-.078,3.53-3.416.078-.076-.056-.092c-.538-.883-1.064-1.75-1.543-2.535v.134a12.16,12.16,0,0,0,1.285-2.969l-.095.086,2.907-.61.093-.02,0-.095c.026-1.724.051-3.366.075-4.912v-.086l-.083-.02-2.886-.7.072.073a12.124,12.124,0,0,0-1.19-3l0,.092,1.618-2.49.034-.051-.043-.044c-1.4-1.43-2.553-2.614-3.432-3.515l-.027-.028-.033.022c-.811.5-1.435.894-1.869,1.162-.205.132-.363.232-.481.305a1.548,1.548,0,0,0-.163.112" transform="translate(-71.123 2.872)" fill="#f5f5f5"/>
            <path id="Trazado_801506" data-name="Trazado 801506" d="M63.917,141.477A12.109,12.109,0,0,0,60.98,140.2l-.605-2.907-4.912-.086-.707,2.885a12.075,12.075,0,0,0-2.98,1.171l-2.483-1.626-3.534,3.412,1.539,2.537a12.053,12.053,0,0,0-1.277,2.938l-2.907.605-.086,4.912,2.884.707a12.039,12.039,0,0,0,1.172,2.98l-1.627,2.483,3.412,3.534,2.538-1.539a12.08,12.08,0,0,0,2.938,1.278l.6,2.907,4.913.086.707-2.885a11.978,11.978,0,0,0,2.979-1.173l2.483,1.628,3.535-3.412L68.028,158.1A12.1,12.1,0,0,0,69.3,155.16l2.907-.606.086-4.912-2.885-.706a12.038,12.038,0,0,0-1.172-2.98l1.627-2.484-3.412-3.534ZM61.3,148.021a5.27,5.27,0,1,1-7.452-.13,5.272,5.272,0,0,1,7.452.13" transform="translate(367.909 7.192)" fill="#f5f5f5"/>
            <path id="Trazado_801507" data-name="Trazado 801507" d="M61.192,147.567a3.988,3.988,0,0,0-.981-.861,5.238,5.238,0,0,0-3.438-.812,5.318,5.318,0,0,0-2.337.83,5.391,5.391,0,0,0-1.889,2.128,5.4,5.4,0,0,0-.509,3.1,5.375,5.375,0,0,0,4.449,4.609,5.038,5.038,0,0,0,1.623.027,5.126,5.126,0,0,0,1.5-.426,5.412,5.412,0,0,0,2.194-1.815,5.32,5.32,0,0,0,.22-5.769,4,4,0,0,0-.826-1.012c-.028.024.318.346.724,1.07a5.257,5.257,0,0,1,.583,3.373,5.15,5.15,0,0,1-3.009,3.9,5.165,5.165,0,0,1-2.955.362,5.107,5.107,0,0,1-4.2-4.357,5.167,5.167,0,0,1,.465-2.94,5.189,5.189,0,0,1,1.778-2.042,5.131,5.131,0,0,1,2.224-.826,5.246,5.246,0,0,1,3.352.7c.708.43,1.018.789,1.043.761" transform="translate(368.016 7.645)" fill="#f5f5f5"/>
            <path id="Trazado_801508" data-name="Trazado 801508" d="M63.961,141.482a1.085,1.085,0,0,0,.164-.086l.486-.281,1.913-1.13-.06-.007,3.392,3.554-.009-.1-1.637,2.476-.029.044.025.047a11.971,11.971,0,0,1,1.153,2.96l.015.059.059.014,2.882.716-.082-.106c-.031,1.547-.063,3.188-.1,4.912l.094-.115-2.908.6-.074.016-.021.073a11.908,11.908,0,0,1-1.268,2.9l-.04.067.04.068c.477.787,1,1.655,1.535,2.539l.022-.166-3.539,3.408.175-.016-2.481-1.63-.073-.047-.076.042a11.934,11.934,0,0,1-2.946,1.156l-.085.021-.021.086c-.222.9-.465,1.889-.709,2.884l.146-.113L55,166.246l.144.12c-.192-.919-.4-1.909-.605-2.908l-.018-.089-.088-.024a11.891,11.891,0,0,1-2.9-1.26h0l-.079-.047-.077.047-2.538,1.539.187.024q-1.732-1.79-3.414-3.533l.018.185,1.626-2.483.049-.076-.044-.078a11.887,11.887,0,0,1-1.16-2.944l-.021-.086-.086-.02-2.885-.705.109.142q.043-2.515.082-4.912l-.111.134,2.906-.609.081-.017.022-.078a11.89,11.89,0,0,1,1.258-2.908l.041-.067-.041-.067-1.543-2.535-.02.155,3.527-3.419-.143.014,2.486,1.621.056.037.057-.033a11.971,11.971,0,0,1,2.951-1.17l.059-.015.014-.058.7-2.887-.088.068,4.913.064-.065-.054.624,2.9.006.028.027.008a12.421,12.421,0,0,1,2.247.864l.528.276a1.185,1.185,0,0,0,.176.089,1.465,1.465,0,0,0-.164-.112c-.112-.068-.282-.173-.518-.3a11.606,11.606,0,0,0-2.242-.913l.034.037c-.16-.795-.352-1.749-.586-2.911l-.011-.054h-.055l-4.912-.107-.071,0-.018.071c-.221.89-.456,1.834-.717,2.882l.073-.073a12.168,12.168,0,0,0-3.009,1.173l.112,0L49.4,139.545l-.077-.051-.066.064-3.541,3.406-.073.069.053.086,1.534,2.539v-.135a12.214,12.214,0,0,0-1.294,2.968l.1-.095-2.908.6-.109.022,0,.112q-.044,2.4-.091,4.912l0,.115.112.028,2.884.708-.107-.106A12.206,12.206,0,0,0,47,157.806l.005-.154q-.805,1.228-1.628,2.482l-.065.1.083.086,3.411,3.535.084.087.1-.063,2.537-1.539h-.154a12.229,12.229,0,0,0,2.972,1.29l-.106-.114c.208,1,.415,1.988.605,2.907l.025.118h.12l4.912.084.119,0,.027-.115c.243-1,.484-1.981.705-2.885l-.106.107a12.209,12.209,0,0,0,3.014-1.189l-.148-.005L66,164.17l.094.062.081-.079,3.53-3.416.078-.075-.056-.093-1.543-2.535v.135a12.165,12.165,0,0,0,1.285-2.97l-.095.087,2.907-.61.093-.02,0-.095c.026-1.724.051-3.366.075-4.912v-.086l-.083-.021-2.886-.7.072.073a12.157,12.157,0,0,0-1.19-3l0,.092,1.618-2.489.034-.052-.043-.043-3.432-3.515-.027-.028-.033.021L64.6,141.065l-.481.305a1.374,1.374,0,0,0-.163.112" transform="translate(367.866 7.187)" fill="#f5f5f5"/>
            <path id="Trazado_801509" data-name="Trazado 801509" d="M86.965,201.01h.02l15.585.273,0,.02,1.913,9.2a38.147,38.147,0,0,1,9.286,4.035l8.048-4.878.014.014,10.825,11.213-.011.017-5.147,7.854a38.209,38.209,0,0,1,3.706,9.422l9.144,2.242-.274,15.6-.02,0-9.2,1.913a38.134,38.134,0,0,1-4.035,9.287l4.878,8.046-11.229,10.841-7.87-5.159a38.21,38.21,0,0,1-9.422,3.706l-2.242,9.144-15.6-.273,0-.02-1.914-9.2a38.189,38.189,0,0,1-9.287-4.035l-8.046,4.879-.014-.014L55.249,273.93l.011-.017,5.146-7.854a38.211,38.211,0,0,1-3.706-9.422L47.557,254.4l.274-15.605.02,0,9.2-1.913a38.18,38.18,0,0,1,4.035-9.288L56.2,219.542l.014-.014L67.432,208.7l7.87,5.16a38.177,38.177,0,0,1,9.423-3.708Zm15.564.323L87,201.06l-2.238,9.133-.015,0a38.131,38.131,0,0,0-9.438,3.714l-.013.007-7.862-5.154L56.268,219.55l4.872,8.036-.008.013a38.133,38.133,0,0,0-4.042,9.3l0,.015-9.206,1.915-.273,15.525,9.133,2.238,0,.015a38.164,38.164,0,0,0,3.713,9.437l.007.013-.008.013-5.144,7.85L66.1,285.1l8.037-4.874.013.008a38.141,38.141,0,0,0,9.3,4.042l.015,0,1.917,9.208,15.524.272,2.239-9.135.015,0A38.164,38.164,0,0,0,112.6,280.9l.013-.007,7.862,5.154,11.171-10.786-4.873-8.037.008-.013a38.086,38.086,0,0,0,4.042-9.3l0-.015,9.207-1.915.273-15.524-9.134-2.239,0-.015a38.164,38.164,0,0,0-3.713-9.437l-.007-.013,5.153-7.863-10.784-11.17-8.039,4.873-.013-.008a38.1,38.1,0,0,0-9.3-4.042l-.015,0Zm-9.069,28.842a16.724,16.724,0,1,1-11.614,4.692A16.667,16.667,0,0,1,93.461,230.174Zm0,33.4a16.675,16.675,0,1,0-12-5.093A16.591,16.591,0,0,0,93.465,263.573Z" transform="translate(295.087 10.537)" fill="#e0e0e0"/>
            <path id="Trazado_801510" data-name="Trazado 801510" d="M105.136,233.862a12.62,12.62,0,0,0-3.109-2.729,16.626,16.626,0,0,0-10.895-2.575,16.82,16.82,0,0,0-7.4,2.63,17.093,17.093,0,0,0-5.988,6.747,17.122,17.122,0,0,0-1.612,9.827,17.034,17.034,0,0,0,14.1,14.6,17.117,17.117,0,0,0,9.88-1.266,17.1,17.1,0,0,0,6.953-5.748,16.82,16.82,0,0,0,2.889-7.308,16.622,16.622,0,0,0-2.192-10.978,12.6,12.6,0,0,0-2.617-3.2c-.091.077,1.008,1.1,2.294,3.388a16.655,16.655,0,0,1,1.847,10.69,16.321,16.321,0,0,1-9.534,12.352,16.307,16.307,0,0,1-9.362,1.148,16.181,16.181,0,0,1-13.325-13.8,16.326,16.326,0,0,1,1.475-9.315,16.32,16.32,0,0,1,12.678-9.093,16.654,16.654,0,0,1,10.62,2.221c2.246,1.366,3.226,2.5,3.306,2.412" transform="translate(295.428 11.975)" fill="#ebebeb"/>
            <path id="Trazado_801511" data-name="Trazado 801511" d="M113.91,214.579a3.629,3.629,0,0,0,.519-.274l1.542-.891,6.062-3.58-.189-.024,10.747,11.261-.028-.3-5.187,7.845-.094.142.082.149a38.085,38.085,0,0,1,3.656,9.381l.044.184.186.046c2.846.706,5.927,1.47,9.132,2.267l-.259-.338c-.1,4.9-.2,10.1-.309,15.563l.3-.362-9.215,1.9-.235.049-.066.23a37.85,37.85,0,0,1-4.017,9.2l-.129.214.129.215,4.864,8.048.068-.527-11.212,10.8.554-.053-7.86-5.163-.23-.152-.241.134a37.93,37.93,0,0,1-9.332,3.663l-.273.066-.066.273-2.247,9.138.464-.358-15.564-.28.457.379-1.915-9.212-.059-.284-.278-.079a37.781,37.781,0,0,1-9.183-3.989l-.007-.005-.252-.148-.244.148-8.043,4.877.591.077-10.815-11.2.056.589,5.152-7.869.157-.239-.139-.247a37.687,37.687,0,0,1-3.675-9.325l-.068-.274-.273-.065-9.139-2.234.347.452q.131-7.97.258-15.564l-.35.423,9.209-1.928.255-.054.071-.249a37.8,37.8,0,0,1,3.987-9.212l.129-.216-.129-.214-4.89-8.032-.064.491,11.177-10.835-.456.043,7.879,5.136.175.114.181-.1a37.973,37.973,0,0,1,9.352-3.71l.186-.046.044-.184c.8-3.324,1.526-6.318,2.209-9.145l-.28.216,15.566.2-.206-.171c.789,3.674,1.437,6.689,1.975,9.2l.02.093.089.025a39.52,39.52,0,0,1,7.117,2.737l1.673.875a3.835,3.835,0,0,0,.559.284,4.855,4.855,0,0,0-.519-.354c-.356-.219-.9-.547-1.641-.945a36.852,36.852,0,0,0-7.106-2.894l.108.117c-.507-2.517-1.116-5.54-1.858-9.224l-.034-.167-.173,0-15.563-.341-.225-.005-.055.221c-.7,2.824-1.445,5.812-2.271,9.131l.23-.23a38.442,38.442,0,0,0-9.536,3.72l.356.013-7.854-5.175-.243-.161-.213.2L56.094,219.273l-.228.221.165.273,4.862,8.049v-.428a38.588,38.588,0,0,0-4.1,9.405l.325-.3L47.9,238.4l-.344.072-.006.353q-.142,7.592-.289,15.564l-.007.363.355.087,9.137,2.248-.34-.34a38.62,38.62,0,0,0,3.755,9.561l.018-.486-5.159,7.865-.208.317.263.273,10.809,11.2.265.275.326-.2,8.043-4.875h-.5l.008,0a38.663,38.663,0,0,0,9.417,4.09l-.337-.362c.659,3.163,1.312,6.3,1.919,9.211l.078.373.38.006,15.564.267.375.006.089-.364c.771-3.154,1.534-6.278,2.234-9.14l-.339.339a38.689,38.689,0,0,0,9.553-3.768l-.47-.017,7.872,5.148.3.2.255-.247c3.884-3.758,7.673-7.426,11.186-10.826l.245-.237-.177-.292c-1.7-2.8-3.372-5.544-4.887-8.034v.427a38.6,38.6,0,0,0,4.072-9.414l-.3.279,9.209-1.935.295-.062.005-.3c.083-5.462.163-10.663.238-15.565l0-.273-.265-.064-9.144-2.215.23.23a38.531,38.531,0,0,0-3.775-9.5l-.011.29,5.124-7.887.106-.164-.135-.138L122.063,209.6l-.086-.088-.1.064-5.924,3.686-1.524.968a4.581,4.581,0,0,0-.516.353" transform="translate(294.951 10.523)" fill="#ebebeb"/>
            <path id="Trazado_801512" data-name="Trazado 801512" d="M328.391,64.943a25.68,25.68,0,0,0-6.747,1.038l-4.4-4.553L308.3,66.857l2,6a25.6,25.6,0,0,0-4.039,5.5l-6.326-.111-2.492,10.171,5.66,2.826A25.625,25.625,0,0,0,304.141,98l-4.553,4.4,5.429,8.954,6-2a25.7,25.7,0,0,0,5.5,4.04l-.111,6.325,10.171,2.493,2.826-5.661a25.638,25.638,0,0,0,6.747-1.039l4.4,4.554,8.953-5.429-2-6a25.636,25.636,0,0,0,4.039-5.5l6.326.111,2.492-10.171-5.66-2.825a25.637,25.637,0,0,0-1.039-6.748l4.554-4.4-5.429-8.953-6,2a25.638,25.638,0,0,0-5.5-4.039l.11-6.326-10.169-2.492Zm2.719,14.774a11.233,11.233,0,1,1-13.584,8.236,11.231,11.231,0,0,1,13.584-8.236" transform="translate(-187.899 3.107)" fill="#e0e0e0"/>
            <path id="Trazado_801513" data-name="Trazado 801513" d="M331.047,78.721a8.478,8.478,0,0,0-2.748-.437,11.182,11.182,0,0,0-7.123,2.444,11.317,11.317,0,0,0-3.269,4.154,11.492,11.492,0,0,0-.986,5.986,11.523,11.523,0,0,0,2.609,6.171,11.462,11.462,0,0,0,13.259,3.25,11.522,11.522,0,0,0,5.167-4.266,11.506,11.506,0,0,0,1.893-5.765,11.326,11.326,0,0,0-.979-5.195,11.189,11.189,0,0,0-5.186-5.459,8.476,8.476,0,0,0-2.638-.883c-.024.076.967.262,2.522,1.1a11.207,11.207,0,0,1,4.886,5.42,10.978,10.978,0,0,1-.992,10.448,10.97,10.97,0,0,1-4.915,4.013,10.884,10.884,0,0,1-12.534-3.072,11,11,0,0,1-2.5-5.829,10.981,10.981,0,0,1,3.951-9.723,11.2,11.2,0,0,1,6.839-2.547c1.769-.028,2.733.265,2.747.186" transform="translate(-187.835 4.103)" fill="#e0e0e0"/>
            <path id="Trazado_801514" data-name="Trazado 801514" d="M328.386,64.949a2.562,2.562,0,0,0,.2-.342l.558-1.061,2.164-4.212-.116.054,10.155,2.551-.124-.161c-.041,1.916-.087,4.047-.137,6.325l0,.114.1.056a25.643,25.643,0,0,1,5.445,4.025l.092.089.122-.041,6.009-1.987-.268-.1,5.408,8.966.041-.314L353.469,83.3l-.117.112.046.155a25.545,25.545,0,0,1,1.016,6.678l0,.167.151.076,5.656,2.834L360.073,93c-.786,3.194-1.635,6.638-2.5,10.167l.3-.228-6.326-.117-.185,0-.088.162a25.541,25.541,0,0,1-3.995,5.433l-.132.136.06.179c.627,1.881,1.31,3.933,2,6.005l.136-.369-8.955,5.425.4.052-4.395-4.554-.136-.141-.186.056a25.432,25.432,0,0,1-6.657,1.025H329.4l-.2.005-.086.173q-1.422,2.851-2.826,5.66l.364-.168-10.171-2.49.243.316q.054-3.2.107-6.326l0-.192-.167-.091a25.369,25.369,0,0,1-5.437-3.988l-.137-.131-.179.06-6,2.009.36.132q-2.785-4.581-5.438-8.948l-.047.366,4.546-4.4.126-.122-.049-.167a25.466,25.466,0,0,1-1.038-6.671l0-.168L303.221,91l-5.664-2.815.14.3c.869-3.579,1.69-6.959,2.471-10.176l-.243.188,6.325.095.141,0,.066-.122a25.539,25.539,0,0,1,3.99-5.466l.088-.094-.04-.12c-.737-2.18-1.4-4.142-2.025-6l-.082.223,8.93-5.469-.179-.023,4.425,4.525.044.045.06-.018a26.5,26.5,0,0,1,5.032-1l1.266-.1a2.556,2.556,0,0,0,.42-.039,3.407,3.407,0,0,0-.422-.015c-.281,0-.705.009-1.272.051a24.86,24.86,0,0,0-5.081.9l.1.027-4.366-4.581-.08-.083-.1.06-8.976,5.39-.13.078.048.145c.614,1.858,1.263,3.826,1.984,6.009l.048-.214a25.871,25.871,0,0,0-4.09,5.538l.206-.12-6.325-.126-.2,0-.047.192c-.795,3.213-1.628,6.589-2.512,10.165l-.052.207.193.1,5.654,2.835-.154-.244a25.99,25.99,0,0,0,1.041,6.824l.076-.289q-2.239,2.156-4.558,4.391l-.17.164.123.2,5.42,8.958.127.209.233-.077,6-2-.315-.072a25.964,25.964,0,0,0,5.567,4.092l-.164-.282q-.057,3.13-.114,6.325l0,.255.247.061,10.169,2.5.249.061.115-.23,2.826-5.659-.281.178h.006a26,26,0,0,0,6.825-1.051l-.322-.085,4.4,4.552.178.184.219-.133,8.951-5.434.216-.131-.08-.239-2.009-6-.071.315a26.046,26.046,0,0,0,4.083-5.571l-.274.159,6.326.1.24,0,.057-.232,2.479-10.174.055-.223-.206-.1-5.663-2.817.154.243a25.984,25.984,0,0,0-1.061-6.816l-.072.265c1.589-1.539,3.138-3.04,4.545-4.4l.145-.142-.105-.173-5.449-8.94-.1-.157-.174.058-6,2.022.214.048a25.88,25.88,0,0,0-5.558-4.053l.1.168c.031-2.278.06-4.409.085-6.326l0-.131-.126-.031-10.184-2.433-.081-.02-.036.074c-.888,1.832-1.572,3.244-2.048,4.223l-.519,1.1a2.994,2.994,0,0,0-.167.386" transform="translate(-187.894 3.101)" fill="#e0e0e0"/>
            <path id="Trazado_801515" data-name="Trazado 801515" d="M361.591,254.2a8.607,8.607,0,0,0-2.773-.441,11.283,11.283,0,0,0-7.189,2.467,11.407,11.407,0,0,0-3.3,4.192,11.6,11.6,0,0,0-1,6.043,11.617,11.617,0,0,0,2.633,6.227,11.569,11.569,0,0,0,13.383,3.28,11.616,11.616,0,0,0,5.215-4.305,11.609,11.609,0,0,0,1.912-5.819,11.432,11.432,0,0,0-.988-5.243,11.282,11.282,0,0,0-5.235-5.509,8.557,8.557,0,0,0-2.663-.891c-.024.078.976.264,2.545,1.115a11.31,11.31,0,0,1,4.932,5.47,11.08,11.08,0,0,1-1,10.545,11.081,11.081,0,0,1-4.961,4.05,10.987,10.987,0,0,1-12.65-3.1,11.064,11.064,0,0,1-2.526-5.883,11.076,11.076,0,0,1,3.988-9.814,11.3,11.3,0,0,1,6.9-2.57c1.785-.029,2.758.267,2.772.187" transform="translate(-250.467 13.301)" fill="#ebebeb"/>
            <path id="Trazado_801516" data-name="Trazado 801516" d="M358.905,240.3a2.563,2.563,0,0,0,.2-.345c.138-.263.323-.615.563-1.07.506-.986,1.236-2.407,2.184-4.251l-.118.054,10.249,2.575-.125-.163c-.041,1.934-.088,4.083-.138,6.384l0,.115.1.056a25.879,25.879,0,0,1,5.5,4.063l.093.089.123-.041c1.891-.624,3.937-1.3,6.065-2l-.272-.1,5.459,9.049.041-.317-4.6,4.428-.117.114.045.156a25.777,25.777,0,0,1,1.026,6.74l0,.169.153.077,5.708,2.859-.153-.328c-.794,3.224-1.65,6.7-2.527,10.262l.3-.23-6.385-.119-.186,0-.089.164a25.72,25.72,0,0,1-4.033,5.483l-.132.137.06.181c.632,1.9,1.323,3.969,2.02,6.061l.137-.374c-2.862,1.734-5.929,3.593-9.039,5.476l.4.053c-1.4-1.452-2.913-3.018-4.436-4.6l-.137-.142-.188.056a25.657,25.657,0,0,1-6.718,1.035h-.006l-.2.005-.086.175q-1.437,2.876-2.852,5.713l.367-.17-10.265-2.513.245.319q.055-3.224.109-6.385l0-.193-.169-.093a25.618,25.618,0,0,1-5.488-4.023l-.138-.133-.18.061-6.058,2.027.363.134q-2.81-4.625-5.488-9.031l-.048.369,4.59-4.442.127-.123-.051-.168a25.716,25.716,0,0,1-1.046-6.733l0-.17-.152-.076-5.717-2.842.142.305c.877-3.612,1.7-7.023,2.494-10.269l-.246.189,6.384.1.142,0,.067-.124a25.762,25.762,0,0,1,4.027-5.517l.089-.094-.041-.122c-.743-2.2-1.411-4.18-2.043-6.051l-.083.224c3.491-2.137,6.465-3.96,9.012-5.519l-.18-.024,4.466,4.567.045.045.06-.018a26.806,26.806,0,0,1,5.078-1.005l1.279-.1a2.6,2.6,0,0,0,.423-.039,3.474,3.474,0,0,0-.426-.015c-.283,0-.711.009-1.284.051a25.1,25.1,0,0,0-5.128.912l.1.027-4.408-4.624-.08-.084-.1.061-9.06,5.44-.132.079.048.146c.62,1.875,1.276,3.861,2,6.065l.048-.216a26.1,26.1,0,0,0-4.128,5.59l.208-.121-6.384-.128-.2,0-.048.194c-.8,3.244-1.644,6.65-2.535,10.259l-.052.209.194.1,5.706,2.862-.155-.246a26.162,26.162,0,0,0,1.05,6.887l.077-.292-4.6,4.431-.173.166.124.205,5.47,9.041.127.212.236-.079,6.06-2.017-.318-.073a26.2,26.2,0,0,0,5.619,4.131l-.165-.285q-.057,3.16-.115,6.384l-.005.257.25.062L357,298.405l.252.062.116-.233,2.853-5.711-.284.18h.006a26.247,26.247,0,0,0,6.888-1.062l-.324-.086,4.437,4.595.18.186.221-.135,9.034-5.483.217-.133-.08-.241c-.7-2.09-1.392-4.16-2.027-6.058l-.073.318a26.252,26.252,0,0,0,4.121-5.623l-.276.16,6.385.106.242,0,.057-.235c.869-3.565,1.716-7.043,2.5-10.268l.055-.225-.207-.1-5.716-2.844.155.245a26.233,26.233,0,0,0-1.07-6.881l-.072.268,4.586-4.445.147-.143-.106-.174-5.5-9.023-.1-.159-.175.059-6.053,2.041.215.048A26.129,26.129,0,0,0,372,243.323l.1.171c.031-2.3.06-4.45.085-6.384l0-.133-.127-.031-10.279-2.456-.082-.02-.036.075-2.067,4.262-.524,1.107a2.976,2.976,0,0,0-.168.389" transform="translate(-250.527 12.29)" fill="#ebebeb"/>
            <path id="Trazado_801517" data-name="Trazado 801517" d="M136.707,422.11v32.46H36.884V422.11Z" transform="translate(309.966 22.125)" fill="#f5f5f5"/>
            <path id="Trazado_801518" data-name="Trazado 801518" d="M140.407,413.487v9.075H32.9v-9.075h107.5Z" transform="translate(310.454 21.673)" fill="#e0e0e0"/>
            <path id="Trazado_801519" data-name="Trazado 801519" d="M135.739,455.022H85.479v-32.46H81.988v-9.075h55.845v8.235Z" transform="translate(261.371 21.673)" fill="#e0e0e0"/>
            <rect id="Rectángulo_374231" data-name="Rectángulo 374231" width="20.244" height="4.886" transform="translate(412.467 449.469)" fill="#e0e0e0"/>
            <rect id="Rectángulo_374232" data-name="Rectángulo 374232" width="25.995" height="10.318" transform="translate(409.323 460.464)" fill="#fff"/>
            <path id="Trazado_801520" data-name="Trazado 801520" d="M151.3,382.685v32.46H51.477v-32.46Z" transform="translate(280.015 20.058)" fill="#f5f5f5"/>
            <path id="Trazado_801521" data-name="Trazado 801521" d="M155,374.062v9.075H47.5v-9.075H155Z" transform="translate(280.504 19.606)" fill="#e0e0e0"/>
            <path id="Trazado_801522" data-name="Trazado 801522" d="M150.332,415.6h-50.26v-32.46H96.581v-9.075h55.845V382.3Z" transform="translate(231.42 19.606)" fill="#e0e0e0"/>
            <rect id="Rectángulo_374233" data-name="Rectángulo 374233" width="20.244" height="4.886" transform="translate(397.11 407.977)" fill="#e0e0e0"/>
            <rect id="Rectángulo_374234" data-name="Rectángulo 374234" width="25.995" height="10.318" transform="translate(393.965 418.973)" fill="#fff"/>
          </g>
        </g>
        <g id="Grupo_1065327" data-name="Grupo 1065327">
          <g id="Grupo_1065326" data-name="Grupo 1065326" clip-path="url(#clip-path)">
            <path id="Trazado_801523" data-name="Trazado 801523" d="M0,452.967c0,.152,108.689.274,242.733.274,134.091,0,242.757-.122,242.757-.274s-108.666-.274-242.757-.274c-134.044,0-242.733.122-242.733.274" transform="translate(0 23.728)" fill="#263238"/>
          </g>
        </g>
        <g id="Grupo_1065329" data-name="Grupo 1065329">
          <g id="Grupo_1065328" data-name="Grupo 1065328" clip-path="url(#clip-path)">
            <path id="Trazado_801524" data-name="Trazado 801524" d="M120.928,33.973a50.642,50.642,0,0,0-12.375-5.327l-2.588-12.223L85.3,16.132,82.367,28.275a50.622,50.622,0,0,0-12.522,4.976L59.378,26.441,44.56,40.849,51.07,51.5A50.6,50.6,0,0,0,45.743,63.88L33.523,66.468l-.292,20.664,12.143,2.933a50.635,50.635,0,0,0,4.977,12.52l-6.809,10.468,14.405,14.819,10.655-6.51a50.6,50.6,0,0,0,12.377,5.326l2.587,12.222,20.666.292,2.932-12.144a50.713,50.713,0,0,0,12.521-4.976l10.467,6.809,14.819-14.407L138.46,103.83a50.591,50.591,0,0,0,5.327-12.376l12.222-2.588L156.3,68.2l-12.145-2.933a50.662,50.662,0,0,0-4.975-12.52l6.809-10.468L131.584,27.461Z" transform="translate(294.217 0.846)" fill="#59bee2" fill-rule="evenodd"/>
            <path id="Trazado_801525" data-name="Trazado 801525" d="M69.045,69.722a28.677,28.677,0,0,1,.663-4.342,17.12,17.12,0,0,1,2-4.715,17.685,17.685,0,0,1,21.238-7.508,16.58,16.58,0,0,1,4.459,2.4,16.185,16.185,0,0,1,3.723,3.746,17.548,17.548,0,0,1,0,20.83A19.942,19.942,0,0,1,99.4,82.18a19.735,19.735,0,0,1-2,1.7,16.568,16.568,0,0,1-4.459,2.4A17.74,17.74,0,0,1,71.7,78.778a17.133,17.133,0,0,1-2-4.715,28.464,28.464,0,0,1-.663-4.341,1.155,1.155,0,0,0-.014.29c0,.223.009.5.016.854a8.232,8.232,0,0,0,.115,1.383,12.546,12.546,0,0,0,.339,1.867,16.953,16.953,0,0,0,1.941,4.819A18.04,18.04,0,0,0,83.59,87.518a18.147,18.147,0,0,0,9.525-.757,17.021,17.021,0,0,0,4.6-2.458,16.6,16.6,0,0,0,3.846-3.849,18.037,18.037,0,0,0,0-21.466,16.593,16.593,0,0,0-3.844-3.848,17.021,17.021,0,0,0-4.6-2.458,18.143,18.143,0,0,0-9.524-.757,18.034,18.034,0,0,0-12.149,8.582,16.921,16.921,0,0,0-1.942,4.82,12.545,12.545,0,0,0-.339,1.867,8.224,8.224,0,0,0-.115,1.383c-.006.349-.012.63-.016.854a1.155,1.155,0,0,0,.014.29" transform="translate(307.742 2.705)" fill="#fff"/>
            <path id="Trazado_801526" data-name="Trazado 801526" d="M114.959,81.205c-.107-.107-4.005,3.618-8.707,8.319s-8.427,8.6-8.319,8.707,4-3.617,8.707-8.319,8.427-8.6,8.319-8.707" transform="translate(267.465 4.256)" fill="#fff"/>
            <path id="Trazado_801527" data-name="Trazado 801527" d="M270.507,108.529a65,65,0,0,0-15.885-6.839L251.3,86l-26.525-.374-3.763,15.586A64.946,64.946,0,0,0,204.94,107.6L191.5,98.863l-19.02,18.493,8.357,13.674A64.912,64.912,0,0,0,174,146.918l-15.687,3.321-.375,26.525,15.587,3.763a65,65,0,0,0,6.387,16.07l-8.74,13.437,18.492,19.021,13.676-8.357a64.991,64.991,0,0,0,15.887,6.838l3.32,15.687,26.526.374,3.763-15.587a65.021,65.021,0,0,0,16.071-6.387l13.435,8.74,19.021-18.492L293.012,198.2a64.968,64.968,0,0,0,6.838-15.887l15.687-3.321.374-26.525L300.322,148.7a64.969,64.969,0,0,0-6.386-16.07l8.74-13.436-18.491-19.021Z" transform="translate(3.36 4.488)" fill="#1969d5" fill-rule="evenodd"/>
            <path id="Trazado_801528" data-name="Trazado 801528" d="M243.36,189.89a2.647,2.647,0,0,0-.318-.016l-.906-.017-3.485-.039-13.013-.091.162.165c.053-2.241.113-4.753.176-7.445l0-.124-.119-.054a40.261,40.261,0,0,1-11.137-7.616,28.184,28.184,0,0,1-4.667-5.984,20.474,20.474,0,0,1-2.57-7.609,25.285,25.285,0,0,1,3.982-16.667,30.293,30.293,0,0,1,14.518-11.578,24.98,24.98,0,0,1,13.936-.967,27.374,27.374,0,0,1,12.106,5.594,24.723,24.723,0,0,1,7.309,10.095c.323.958.738,1.874.976,2.835s.465,1.912.692,2.852a30.281,30.281,0,0,1,.5,5.622,25.954,25.954,0,0,1-.667,5.293,24.386,24.386,0,0,1-1.707,4.714,27.064,27.064,0,0,1-5.247,7.271,35.984,35.984,0,0,1-10.856,7.42l-.066.029,0,.067q.182,3.039.278,4.641c.034.509.06.9.08,1.193a3.945,3.945,0,0,0,.038.415,2.8,2.8,0,0,0,0-.381c-.007-.285-.019-.673-.033-1.173q-.058-1.623-.167-4.7l-.062.1a35.538,35.538,0,0,0,11.023-7.364,27.248,27.248,0,0,0,5.365-7.335,24.621,24.621,0,0,0,1.763-4.787,26.3,26.3,0,0,0,.7-5.385,30.683,30.683,0,0,0-.483-5.717q-.343-1.432-.693-2.9c-.24-.977-.658-1.912-.984-2.886a25.166,25.166,0,0,0-7.433-10.316,27.839,27.839,0,0,0-12.333-5.721,25.477,25.477,0,0,0-14.232.984,30.774,30.774,0,0,0-14.777,11.8,25.019,25.019,0,0,0-3.546,8.357,15.369,15.369,0,0,0-.395,2.183,14.164,14.164,0,0,0-.22,2.18c-.02.727-.06,1.449-.063,2.166q.1,1.075.194,2.137a20.933,20.933,0,0,0,2.653,7.781,28.529,28.529,0,0,0,4.768,6.068,40.369,40.369,0,0,0,11.305,7.644l-.116-.177c-.044,2.692-.085,5.2-.122,7.446l0,.166h.164l13.111-.091,3.448-.039.877-.017a1.814,1.814,0,0,0,.286-.016" transform="translate(5.899 6.853)" fill="#fff"/>
            <path id="Trazado_801529" data-name="Trazado 801529" d="M224.246,191.637a75.927,75.927,0,0,0,9.1.279,75.753,75.753,0,0,0,9.1-.27,76.044,76.044,0,0,0-9.1-.278,75.932,75.932,0,0,0-9.1.269" transform="translate(7.036 10.03)" fill="#fff"/>
            <path id="Trazado_801530" data-name="Trazado 801530" d="M229.847,198.179a11.015,11.015,0,0,0,6.42-.2,15.332,15.332,0,0,0-3.212.032,15.315,15.315,0,0,0-3.208.169" transform="translate(7.329 10.373)" fill="#fff"/>
            <path id="Trazado_801531" data-name="Trazado 801531" d="M242.141,188.615a1.227,1.227,0,0,0,.019-.3v-.881c-.012-.815-.029-1.948-.052-3.387-.069-2.981-.169-7.225-.292-12.45-.071-2.632-.146-5.509-.228-8.6a5.8,5.8,0,0,1,.3-2.226,1.463,1.463,0,0,1,1.6-1.067,2.124,2.124,0,0,1,1.412,1.593,3.268,3.268,0,0,1-.294,2.317,5.282,5.282,0,0,1-4.068,2.706,5.393,5.393,0,0,1-4.732-1.9,8.071,8.071,0,0,1-1.992-5.089,4.818,4.818,0,0,1,.556-2.692,1.981,1.981,0,0,1,2.229-.955,2.009,2.009,0,0,1,1.066,2.186,5.448,5.448,0,0,1-1.264,2.472,10.093,10.093,0,0,1-4.385,3.39,5.689,5.689,0,0,1-2.638.314,5.333,5.333,0,0,1-2.4-1,4.168,4.168,0,0,1-1.5-2,3.023,3.023,0,0,1,.139-2.366,2.039,2.039,0,0,1,1.8-1.224,2.5,2.5,0,0,1,1.886,1.128c.868,1.291.878,2.991,1.105,4.492.335,3.066.554,5.938.751,8.557.353,5.214.639,9.448.84,12.422.1,1.436.172,2.566.226,3.377.029.361.053.649.072.879a1.27,1.27,0,0,0,.042.3,1.244,1.244,0,0,0,.014-.3c0-.229-.009-.52-.017-.881-.029-.814-.072-1.946-.124-3.384-.127-2.938-.327-7.188-.665-12.437-.175-2.624-.37-5.5-.687-8.58-.095-.772-.17-1.551-.305-2.352a5.815,5.815,0,0,0-.858-2.367,2.973,2.973,0,0,0-2.269-1.344,2.534,2.534,0,0,0-2.256,1.487,3.528,3.528,0,0,0-.178,2.758,4.688,4.688,0,0,0,1.68,2.255,5.838,5.838,0,0,0,2.636,1.107,6.206,6.206,0,0,0,2.892-.333,10.605,10.605,0,0,0,4.637-3.559,5.942,5.942,0,0,0,1.377-2.731,2.545,2.545,0,0,0-1.417-2.777,2.517,2.517,0,0,0-2.885,1.178,5.339,5.339,0,0,0-.637,3,8.6,8.6,0,0,0,2.14,5.433,5.923,5.923,0,0,0,5.2,2.057,5.785,5.785,0,0,0,4.455-3,3.768,3.768,0,0,0,.316-2.673,2.591,2.591,0,0,0-1.8-1.933,1.757,1.757,0,0,0-1.346.3,2.264,2.264,0,0,0-.784,1.067,6.23,6.23,0,0,0-.322,2.414c.106,3.087.205,5.964.3,8.6.2,5.223.355,9.464.466,12.444.065,1.438.117,2.569.154,3.382.023.36.04.649.055.879a1.215,1.215,0,0,0,.037.3" transform="translate(3.406 8.127)" fill="#fff"/>
            <path id="Trazado_801532" data-name="Trazado 801532" d="M225.987,194.911a50.02,50.02,0,0,0,7.386.274,50.026,50.026,0,0,0,7.388-.274,50.028,50.028,0,0,0-7.388-.274,50.021,50.021,0,0,0-7.386.274" transform="translate(6.898 10.202)" fill="#fff"/>
            <path id="Trazado_801533" data-name="Trazado 801533" d="M412.746,148.391a42.138,42.138,0,0,0-10.236-4.6l-2-10.211-17.2-.511-2.6,10.073a42.184,42.184,0,0,0-10.492,3.98l-8.627-5.806-12.527,11.8,5.282,8.956a42.178,42.178,0,0,0-4.6,10.237l-10.211,2-.511,17.2,10.073,2.6a42.18,42.18,0,0,0,3.981,10.49l-5.806,8.628,11.8,12.527,8.957-5.283a42.145,42.145,0,0,0,10.237,4.6l2,10.211,17.2.511,2.6-10.075a42.136,42.136,0,0,0,10.49-3.98l8.628,5.806,12.527-11.8-5.283-8.956a42.164,42.164,0,0,0,4.6-10.237l10.211-2,.511-17.2-10.074-2.6a42.212,42.212,0,0,0-3.98-10.489l5.806-8.628-11.8-12.527Z" transform="translate(-313.066 6.975)" fill="#59bee2" fill-rule="evenodd"/>
            <path id="Trazado_801534" data-name="Trazado 801534" d="M368.5,201.413a4.821,4.821,0,0,0,.835.055l2.393.052,8.8.087,29.039.08h2.345v-.274c-.033-10.847-.063-20.575-.084-27.657-.036-3.473-.065-6.3-.085-8.31-.021-.938-.038-1.687-.051-2.252a4.228,4.228,0,0,0-.054-.784,4.472,4.472,0,0,0-.054.784c-.013.565-.028,1.314-.049,2.252-.021,2.014-.051,4.836-.085,8.31-.022,7.083-.052,16.81-.085,27.657l.274-.274h-2.07l-29.039.08-8.8.087-2.393.051a4.733,4.733,0,0,0-.835.056" transform="translate(-314.234 8.513)" fill="#fff"/>
            <path id="Trazado_801535" data-name="Trazado 801535" d="M372.577,171.4a11.18,11.18,0,0,0,1.287,1.229l3.642,3.2c3.091,2.682,7.385,6.358,12.149,10.392l.722.61.185.157.178-.165c1.9-1.769,3.723-3.459,5.4-5.021l-.337.008,7.936,6.545,2.3,1.842a5.135,5.135,0,0,0,.86.616,5.069,5.069,0,0,0-.754-.742l-2.209-1.953-7.808-6.7-.17-.146-.166.155-5.429,4.993.362-.007-.721-.611c-4.765-4.034-9.1-7.663-12.253-10.268L374,172.468a11.14,11.14,0,0,0-1.425-1.067" transform="translate(-313.521 8.984)" fill="#fff"/>
            <path id="Trazado_801536" data-name="Trazado 801536" d="M395.794,180.463a13.561,13.561,0,0,0,.189-2.692c.049-1.668.081-3.98.084-6.558l-.274.274h.466c2.684,0,5.113-.031,6.871-.08a14.708,14.708,0,0,0,2.846-.194,14.707,14.707,0,0,0-2.846-.194c-1.759-.051-4.188-.081-6.871-.081h-.74v.274c0,2.577.035,4.89.084,6.558a13.56,13.56,0,0,0,.189,2.692" transform="translate(-336.737 8.96)" fill="#fff"/>
            <path id="Trazado_801537" data-name="Trazado 801537" d="M138.853,201.2a18.347,18.347,0,0,0,1.921-6.016,18.3,18.3,0,0,0-1.921,6.016" transform="translate(198.586 10.23)" fill="#263238"/>
            <path id="Trazado_801538" data-name="Trazado 801538" d="M145.324,222.842a42.342,42.342,0,0,0,6.278-10.917,55.957,55.957,0,0,0-3.207,5.42,56.383,56.383,0,0,0-3.071,5.5" transform="translate(180.945 11.108)" fill="#263238"/>
            <path id="Trazado_801539" data-name="Trazado 801539" d="M158.511,240.822a26.7,26.7,0,0,0,4.754-4.156,26.678,26.678,0,0,0,4.071-4.826,57.554,57.554,0,0,0-4.462,4.442,57.956,57.956,0,0,0-4.362,4.54" transform="translate(151.335 12.152)" fill="#263238"/>
            <path id="Trazado_801540" data-name="Trazado 801540" d="M176.331,254.074a26.23,26.23,0,0,0,5.688-2.744,26.358,26.358,0,0,0,5.195-3.593,59.11,59.11,0,0,0-5.47,3.119,60.031,60.031,0,0,0-5.413,3.217" transform="translate(112.702 12.985)" fill="#263238"/>
            <path id="Trazado_801541" data-name="Trazado 801541" d="M197.753,261.226a34.725,34.725,0,0,0,6.238-.984,36.38,36.38,0,0,0,6-1.976,36.433,36.433,0,0,0-6.127,1.444,38.427,38.427,0,0,0-6.108,1.517" transform="translate(67.384 13.536)" fill="#263238"/>
            <path id="Trazado_801542" data-name="Trazado 801542" d="M221.293,261.61a27.241,27.241,0,0,0,6.269.744,26.83,26.83,0,0,0,6.311-.194,56.948,56.948,0,0,0-6.287-.355,55.24,55.24,0,0,0-6.293-.2" transform="translate(18.725 13.709)" fill="#263238"/>
            <path id="Trazado_801543" data-name="Trazado 801543" d="M245.055,256.449a44.724,44.724,0,0,0,12.127,3.4,53.139,53.139,0,0,0-6.037-1.8,52.494,52.494,0,0,0-6.09-1.6" transform="translate(-29.591 13.441)" fill="#263238"/>
            <path id="Trazado_801544" data-name="Trazado 801544" d="M267.684,246.314a43.806,43.806,0,0,0,11.091,5.97,53.583,53.583,0,0,0-5.5-3.068,54.5,54.5,0,0,0-5.589-2.9" transform="translate(-74.998 12.91)" fill="#263238"/>
            <path id="Trazado_801545" data-name="Trazado 801545" d="M288.007,231.286a25.818,25.818,0,0,0,4.278,4.645,26.269,26.269,0,0,0,4.957,3.915,59.6,59.6,0,0,0-4.584-4.317,62.377,62.377,0,0,0-4.651-4.243" transform="translate(-114.852 12.123)" fill="#263238"/>
            <path id="Trazado_801546" data-name="Trazado 801546" d="M304.213,211.436a26.281,26.281,0,0,0,2.589,5.759,24.647,24.647,0,0,0,3.491,5.263c.128-.087-1.35-2.482-3.011-5.526a59.194,59.194,0,0,0-3.069-5.5" transform="translate(-144.956 11.082)" fill="#263238"/>
            <path id="Trazado_801547" data-name="Trazado 801547" d="M314.447,188.957a36.365,36.365,0,0,0,1.707,6.07,36.3,36.3,0,0,0,2.227,5.9,36.612,36.612,0,0,0-1.707-6.071,36.54,36.54,0,0,0-2.227-5.9" transform="translate(-163.817 9.904)" fill="#263238"/>
            <path id="Trazado_801548" data-name="Trazado 801548" d="M321.79,166.277c-.165.065.807,2.712,1.939,6a36.371,36.371,0,0,0,2.325,5.857,36.464,36.464,0,0,0-1.809-6.043c-.553-1.652-1.161-3.109-1.614-4.157a6.288,6.288,0,0,0-.84-1.653" transform="translate(-179.216 8.715)" fill="#263238"/>
            <path id="Trazado_801549" data-name="Trazado 801549" d="M330.629,144.853a56.315,56.315,0,0,0,2.979,5.547,51.711,51.711,0,0,0,3.145,5.458,28.275,28.275,0,0,0-2.665-5.723,26.943,26.943,0,0,0-3.459-5.282" transform="translate(-199.224 7.592)" fill="#263238"/>
            <path id="Trazado_801550" data-name="Trazado 801550" d="M343.629,127.181c-.094.128,2.117,1.871,4.654,4.23s4.471,4.406,4.592,4.3a23.709,23.709,0,0,0-4.22-4.7,22.753,22.753,0,0,0-5.025-3.828" transform="translate(-229.027 6.666)" fill="#263238"/>
            <path id="Trazado_801551" data-name="Trazado 801551" d="M362.724,117.085c-.04.153,2.654.975,5.916,2.147s5.861,2.258,5.927,2.115a24.559,24.559,0,0,0-5.742-2.631,25.357,25.357,0,0,0-6.1-1.631" transform="translate(-270.814 6.136)" fill="#263238"/>
            <path id="Trazado_801552" data-name="Trazado 801552" d="M385.727,114.459c.009.158,2.825.088,6.289.213s6.272.349,6.291.192a25.219,25.219,0,0,0-6.273-.74,24.373,24.373,0,0,0-6.307.336" transform="translate(-318.762 5.98)" fill="#263238"/>
            <path id="Trazado_801553" data-name="Trazado 801553" d="M409.478,120.548a59.316,59.316,0,0,0,5.951-2.053,61.45,61.45,0,0,0,5.916-2.155,25.97,25.97,0,0,0-6.1,1.639,26.373,26.373,0,0,0-5.767,2.57" transform="translate(-366.794 6.097)" fill="#263238"/>
            <path id="Trazado_801554" data-name="Trazado 801554" d="M431.378,133.153c.1.12,2.317-1.62,5.145-3.627a61.618,61.618,0,0,0,5.1-3.689,25.855,25.855,0,0,0-5.421,3.242,25.323,25.323,0,0,0-4.827,4.073" transform="translate(-410.124 6.595)" fill="#263238"/>
            <path id="Trazado_801555" data-name="Trazado 801555" d="M449.57,146.313a11.094,11.094,0,0,0,2.024-2.426,10.959,10.959,0,0,0,1.723-2.648,13.936,13.936,0,0,0-3.747,5.074" transform="translate(-440.956 7.403)" fill="#263238"/>
            <path id="Trazado_801556" data-name="Trazado 801556" d="M174.141,63.487s-.058-.324-.2-.952-.356-1.571-.631-2.787a71.6,71.6,0,0,0-3.5-10.406,78.441,78.441,0,0,0-8.71-15.019,86.079,86.079,0,0,0-16.061-16.438A85.078,85.078,0,0,0,120.57,4.644,90.262,90.262,0,0,0,105.451.99,97.072,97.072,0,0,0,88.988.037,85.291,85.291,0,0,0,71.8,2.215a77.977,77.977,0,0,0-17.04,6.017A77,77,0,0,0,39.174,18.607,73.778,73.778,0,0,0,26.238,32.891a71.2,71.2,0,0,0-8.672,17.215A81.018,81.018,0,0,0,13.62,68.412c-.115,1.533-.28,3.057-.352,4.578q-.054,2.286-.106,4.55c-.019,1.508.081,3.012.116,4.506.137,1.49.236,2.977.428,4.445a66.49,66.49,0,0,0,4.521,16.728,129.778,129.778,0,0,0,7.476,14.7l7.854,13.4a78.818,78.818,0,0,1,9.183,26.1,113.71,113.71,0,0,1,1.489,12.044c.293,3.824.413,7.442.433,10.824a119.534,119.534,0,0,1-.817,17.316,68.555,68.555,0,0,1-2.4,10.685c-.384,1.192-.715,2.09-.956,2.686-.115.3-.22.519-.28.67s-.087.229-.087.229a24.593,24.593,0,0,0,1.428-3.552,66.027,66.027,0,0,0,2.51-10.688,117.683,117.683,0,0,0,.912-17.348c-.005-3.389-.112-7.013-.392-10.848a113.483,113.483,0,0,0-1.455-12.086,79.046,79.046,0,0,0-9.17-26.255l-7.831-13.418a129.3,129.3,0,0,1-7.427-14.652,66.009,66.009,0,0,1-4.47-16.6c-.189-1.455-.286-2.931-.421-4.41-.033-1.484-.13-2.974-.111-4.475q.054-2.251.107-4.523c.074-1.513.238-3.028.353-4.552a80.606,80.606,0,0,1,3.928-18.18A70.689,70.689,0,0,1,26.689,33.2a73.259,73.259,0,0,1,12.839-14.18A76.528,76.528,0,0,1,54.995,8.713,77.509,77.509,0,0,1,71.912,2.726,84.878,84.878,0,0,1,89,.542a96.767,96.767,0,0,1,16.377.925,90.032,90.032,0,0,1,15.043,3.608A84.861,84.861,0,0,1,144.8,18.192a86.148,86.148,0,0,1,16.054,16.313,79.126,79.126,0,0,1,8.759,14.921,74.639,74.639,0,0,1,3.59,10.348q.447,1.812.682,2.771c.158.624.252.941.252.941" transform="translate(297.5 0)" fill="#263238"/>
          </g>
        </g>
        <g id="Grupo_1065349" data-name="Grupo 1065349">
          <g id="Grupo_1065348" data-name="Grupo 1065348" clip-path="url(#clip-path)">
            <path id="Trazado_801557" data-name="Trazado 801557" d="M293.111,428.929l-15.791,5.54.168,15.187c7.561,2.132,8.619,5.956,8.619,5.956l-15.8-.361-13.75-27.962,10.879-7.116,20.334-8.9" transform="translate(-77.62 21.557)" fill="#727997"/>
            <g id="Grupo_1065332" data-name="Grupo 1065332" transform="translate(178.932 447.332)" opacity="0.6">
              <g id="Grupo_1065331" data-name="Grupo 1065331">
                <g id="Grupo_1065330" data-name="Grupo 1065330" clip-path="url(#clip-path-6)">
                  <path id="Trazado_801558" data-name="Trazado 801558" d="M263.208,426.567l13.75,27.962,15.8.361-1.727-2.415-12.834-1-12.678-26.421Z" transform="translate(-263.207 -425.053)" fill="#fff"/>
                </g>
              </g>
            </g>
            <path id="Trazado_801559" data-name="Trazado 801559" d="M275.839,441.188c-.121.159-1.02-.379-2.243-.373-1.224-.027-2.132.5-2.25.335-.145-.122.766-1.049,2.255-1.029s2.386.947,2.237,1.067" transform="translate(-75.917 23.069)" fill="#263238"/>
            <path id="Trazado_801560" data-name="Trazado 801560" d="M275.959,437.646c-.161.108-.843-.841-2.1-1.115s-2.273.28-2.373.114c-.052-.073.136-.333.585-.565a2.959,2.959,0,0,1,3.6.805c.307.4.366.718.288.761" transform="translate(-76.207 22.841)" fill="#263238"/>
            <path id="Trazado_801561" data-name="Trazado 801561" d="M275.217,433.065c-.175.083-.694-.842-1.786-1.247s-2.088-.069-2.165-.247c-.04-.081.165-.3.606-.45a2.742,2.742,0,0,1,3.189,1.206c.228.408.239.705.156.739" transform="translate(-75.255 22.59)" fill="#263238"/>
            <path id="Trazado_801562" data-name="Trazado 801562" d="M271.564,433.152c-.194-.047-.074-1.043-.548-2.112-.443-1.082-1.245-1.684-1.145-1.856.055-.182,1.227.262,1.784,1.584s.08,2.471-.091,2.385" transform="translate(-70.439 22.493)" fill="#263238"/>
            <path id="Trazado_801563" data-name="Trazado 801563" d="M266.935,431.6a6.721,6.721,0,0,1-.372-2.122c-.07-.761-.141-1.528-.213-2.314a5.04,5.04,0,0,1,0-1.472,1.283,1.283,0,0,1,.563-.785.988.988,0,0,1,1.076.043,2.93,2.93,0,0,1,.9,1.4,5.28,5.28,0,0,1-.132,3.821c-.563,1.289-1.357,1.751-1.386,1.693A17.375,17.375,0,0,0,268.3,430a5.451,5.451,0,0,0,.239-2.169,5.07,5.07,0,0,0-.286-1.244,2.514,2.514,0,0,0-.649-1.059.283.283,0,0,0-.33-.024.608.608,0,0,0-.26.367,5.206,5.206,0,0,0-.018,1.258c.021.789.042,1.56.063,2.323a6.744,6.744,0,0,1-.119,2.151" transform="translate(-63.939 22.264)" fill="#263238"/>
            <path id="Trazado_801564" data-name="Trazado 801564" d="M262.45,431.98c-.062-.041.4-.731,1.62-1.129a3.949,3.949,0,0,1,4.484,1.6.73.73,0,0,1-.068.612.886.886,0,0,1-.415.339,2.435,2.435,0,0,1-.74.149,7.081,7.081,0,0,1-1.286,0,6.814,6.814,0,0,1-2.092-.533c-1.131-.5-1.655-1.071-1.6-1.131.063-.092.678.324,1.774.671a7.8,7.8,0,0,0,1.967.354,7.37,7.37,0,0,0,1.171-.036,2.011,2.011,0,0,0,.531-.105c.137-.082.1-.057.1-.105a1.247,1.247,0,0,0-.313-.376,3.605,3.605,0,0,0-.464-.372,3.857,3.857,0,0,0-2.924-.59,15.015,15.015,0,0,0-1.742.654" transform="translate(-59.198 22.574)" fill="#263238"/>
            <g id="Grupo_1065335" data-name="Grupo 1065335" transform="translate(187.8 446.732)" opacity="0.6">
              <g id="Grupo_1065334" data-name="Grupo 1065334">
                <g id="Grupo_1065333" data-name="Grupo 1065333" clip-path="url(#clip-path-7)">
                  <path id="Trazado_801565" data-name="Trazado 801565" d="M283.051,426.4a1.875,1.875,0,1,1-1.834-1.915,1.875,1.875,0,0,1,1.834,1.915" transform="translate(-279.301 -424.483)" fill="#fff"/>
                </g>
              </g>
            </g>
            <path id="Trazado_801566" data-name="Trazado 801566" d="M179.565,422.013l-.215,20.692s20.961,7.168,21.293,11l-40.135,1.025-.989-32.254Z" transform="translate(116.965 22.12)" fill="#727997"/>
            <g id="Grupo_1065338" data-name="Grupo 1065338" transform="translate(282.732 463.326)" opacity="0.6">
              <g id="Grupo_1065337" data-name="Grupo 1065337">
                <g id="Grupo_1065336" data-name="Grupo 1065336" clip-path="url(#clip-path-8)">
                  <path id="Trazado_801567" data-name="Trazado 801567" d="M190.82,440.328a1.639,1.639,0,0,0-1.085,1.9,1.576,1.576,0,0,0,1.873,1.092,1.73,1.73,0,0,0,1.139-2.018,1.636,1.636,0,0,0-2.074-.921" transform="translate(-189.692 -440.25)" fill="#fff"/>
                </g>
              </g>
            </g>
            <g id="Grupo_1065341" data-name="Grupo 1065341" transform="translate(277.473 473.591)" opacity="0.6">
              <g id="Grupo_1065340" data-name="Grupo 1065340">
                <g id="Grupo_1065339" data-name="Grupo 1065339" clip-path="url(#clip-path-9)">
                  <path id="Trazado_801568" data-name="Trazado 801568" d="M159.509,453.259l.027-3.255,38.471.235s1.807.731,1.638,2Z" transform="translate(-159.509 -450.004)" fill="#fff"/>
                </g>
              </g>
            </g>
            <path id="Trazado_801569" data-name="Trazado 801569" d="M182.742,441.473c0,.2-.979.31-1.927.965-.966.63-1.441,1.491-1.624,1.419-.181-.034.081-1.212,1.243-1.986s2.346-.579,2.308-.4" transform="translate(114.219 23.131)" fill="#263238"/>
            <path id="Trazado_801570" data-name="Trazado 801570" d="M177.689,443.021c.049.188-.79.544-1.435,1.39-.668.826-.814,1.727-1.009,1.724-.183.035-.348-1.109.474-2.146s1.962-1.155,1.971-.968" transform="translate(123.526 23.217)" fill="#263238"/>
            <path id="Trazado_801571" data-name="Trazado 801571" d="M171.549,447.917c-.177.046-.475-.926,0-2.012s1.382-1.536,1.468-1.375c.116.159-.465.749-.842,1.647-.4.888-.433,1.716-.627,1.741" transform="translate(132.187 23.298)" fill="#263238"/>
            <path id="Trazado_801572" data-name="Trazado 801572" d="M183.751,437.012c-.078.181-.984-.066-2.089.037-1.108.081-1.961.475-2.067.309-.117-.139.706-.886,2.01-.989s2.238.486,2.146.643" transform="translate(112.736 22.871)" fill="#263238"/>
            <g id="Grupo_1065344" data-name="Grupo 1065344" transform="translate(276.609 448.231)" opacity="0.3">
              <g id="Grupo_1065343" data-name="Grupo 1065343">
                <g id="Grupo_1065342" data-name="Grupo 1065342" clip-path="url(#clip-path-10)">
                  <path id="Trazado_801573" data-name="Trazado 801573" d="M199.468,425.908l-.034,3.688-19.73.324-.111-3.319Z" transform="translate(-179.594 -425.908)"/>
                </g>
              </g>
            </g>
            <path id="Trazado_801574" data-name="Trazado 801574" d="M185.786,433.167a3.764,3.764,0,0,1-2.01.041,8.988,8.988,0,0,1-2.12-.592,9.313,9.313,0,0,1-1.17-.583,2.45,2.45,0,0,1-.619-.457.857.857,0,0,1-.117-1.041,1.075,1.075,0,0,1,.847-.469,2.6,2.6,0,0,1,.757.084,7.241,7.241,0,0,1,1.261.4,7.1,7.1,0,0,1,1.885,1.169c.952.839,1.289,1.563,1.223,1.6-.086.066-.556-.536-1.522-1.223a8.015,8.015,0,0,0-1.819-.964,7.369,7.369,0,0,0-1.163-.326c-.427-.1-.789-.095-.893.1-.038.074-.042.1.049.224a2.036,2.036,0,0,0,.456.334,10.62,10.62,0,0,0,1.078.58,11.076,11.076,0,0,0,1.962.695,13.814,13.814,0,0,1,1.915.432" transform="translate(110.668 22.541)" fill="#263238"/>
            <path id="Trazado_801575" data-name="Trazado 801575" d="M178.056,433.6a3.207,3.207,0,0,1-.58-1.928,6.555,6.555,0,0,1,.218-2.208,6.627,6.627,0,0,1,.481-1.233,1.662,1.662,0,0,1,1.257-1.047.939.939,0,0,1,.853.539,2.7,2.7,0,0,1,.225.731,4.463,4.463,0,0,1,.036,1.354,4.623,4.623,0,0,1-.805,2.1c-.758,1.06-1.569,1.314-1.588,1.248-.067-.1.606-.491,1.181-1.507a4.628,4.628,0,0,0,.587-1.9,4.191,4.191,0,0,0-.066-1.161c-.074-.424-.243-.764-.4-.717-.2,0-.531.332-.686.676a6.7,6.7,0,0,0-.47,1.1,7.182,7.182,0,0,0-.338,2.015c-.025,1.18.2,1.908.1,1.941" transform="translate(118.149 22.391)" fill="#263238"/>
            <path id="Trazado_801576" data-name="Trazado 801576" d="M179.07,414.368l46.217-17.187-48.587-6.82-2.446-23.669,90.856,7.929,12.831,18.47-3.379,23.178-88.52,22.5Z" transform="translate(24.161 19.22)" fill="#263238"/>
            <path id="Trazado_801577" data-name="Trazado 801577" d="M292.357,433.1l4.425-84.586a23.792,23.792,0,0,0-31.306-21.876L206.53,346.288l-32.353,8.318s-5.51,13.6-2.271,24.157c3.171,10.339,14.5,17.216,24.472,14.26,12.382-3.67,69.231-28.117,69.231-28.117v68.878Z" transform="translate(8.866 17.056)" fill="#263238"/>
            <path id="Trazado_801578" data-name="Trazado 801578" d="M200.247,391.3a1.9,1.9,0,0,0,.352-.116l1.01-.389,3.866-1.546,14.178-5.783,46.7-19.271,2.376-.986-.379-.253c.033,19.138.062,36.344.084,48.8.036,6.19.065,11.2.085,14.7.022,1.706.039,3.043.051,3.987.012.433.02.775.027,1.036a1.656,1.656,0,0,0,.027.353,1.851,1.851,0,0,0,.027-.353c.006-.261.015-.6.026-1.036.012-.944.028-2.281.05-3.987.02-3.5.049-8.509.086-14.7.021-12.46.051-29.665.083-48.8v-.41l-.379.158-2.377.985L219.5,383.111l-14.111,5.944-3.827,1.642-.989.44a1.91,1.91,0,0,0-.33.167" transform="translate(5.851 19.003)" fill="#455a64"/>
            <path id="Trazado_801579" data-name="Trazado 801579" d="M224.829,389.965a19.351,19.351,0,0,0-11.08,6.136c.115.126,2.216-1.834,5.289-3.52,3.059-1.71,5.837-2.452,5.79-2.615" transform="translate(35.712 20.439)" fill="#455a64"/>
            <path id="Trazado_801580" data-name="Trazado 801580" d="M200.955,352.067a42.186,42.186,0,0,0-5.315,11.854c.147.053,1.23-2.645,2.7-5.909s2.754-5.869,2.616-5.945" transform="translate(78.647 18.453)" fill="#455a64"/>
            <path id="Trazado_801581" data-name="Trazado 801581" d="M175.447,316.747l10.424-1.949,10.952,11.172-2.021,7.115-12.769-4.7Z" transform="translate(104.023 16.5)" fill="#ffbe9d"/>
            <path id="Trazado_801582" data-name="Trazado 801582" d="M151.337,198.82l2.822.239s5.081.83,5.081.944,2.231,3.231,2.236,3.241l2.046,3.161a2.943,2.943,0,0,1-2.857-.526l.714,1.589a3.171,3.171,0,0,1-3.926-1.524,37.156,37.156,0,0,0-2.212-3.147l-.925-.084c-.077.19-3.645,5.219-3.719,5.1s-3.037-2.974-3.037-2.974Z" transform="translate(166.675 10.421)" fill="#eb996e"/>
            <path id="Trazado_801583" data-name="Trazado 801583" d="M148.78,220.867l-.834-15.616,7.912-8.967,8.7.527,3.56,2.485c-.183.861-2.65,1.451-5.314.68a13.455,13.455,0,0,0-5.479-.184l-3.352,5.841,2.214,2.443-2.839,14.978Z" transform="translate(161.668 10.288)" fill="#ffbe9d"/>
            <path id="Trazado_801584" data-name="Trazado 801584" d="M171.321,200.093H143.034a1.292,1.292,0,1,0,0,2.585h28.287l2.774-1.292Z" transform="translate(162.224 10.488)" fill="#263238"/>
            <path id="Trazado_801585" data-name="Trazado 801585" d="M159.5,224.978l2.882-7.087a6.673,6.673,0,0,0,.485-2.836c-.123-2.546-.315-7.658.078-8.835.527-1.582,2.637-6.989,1.45-7.781s-2.83-1.055-3.987,2.11-4.717,10.022-4.717,10.022l-2.694,11.3Z" transform="translate(159.727 10.374)" fill="#ffbe9d"/>
            <path id="Trazado_801586" data-name="Trazado 801586" d="M152.811,209.88a21.309,21.309,0,0,0,1.638-3.024c.947-1.875,2.232-4.6,3.6-7.422a2.079,2.079,0,0,1,1.672-1.091,1.521,1.521,0,0,1,1.407,1.05,4.04,4.04,0,0,1-.056,1.851c-.113.607-.244,1.167-.379,1.674-.551,2.031-1.13,3.216-1.048,3.254a2.675,2.675,0,0,0,.481-.8,16.48,16.48,0,0,0,.939-2.349c.162-.51.318-1.077.453-1.693a4.343,4.343,0,0,0,.095-2.087,2.03,2.03,0,0,0-1.878-1.442,2.589,2.589,0,0,0-2.147,1.33c-1.461,2.991-2.617,5.6-3.493,7.554a21.415,21.415,0,0,0-1.287,3.189" transform="translate(162.964 10.368)" fill="#eb996e"/>
            <path id="Trazado_801587" data-name="Trazado 801587" d="M254.478,353.6l2.884-5.061,30.848-7.722-3.633,6.273Z" transform="translate(-70.537 17.864)" fill="#ffbe9d"/>
            <path id="Trazado_801588" data-name="Trazado 801588" d="M236.171,223.951l-19.417,46.006a17.873,17.873,0,0,1-9.676,9.581l-41.893,17.2-9.753-26.988,40.8-14.445,26.5-37.786Z" transform="translate(85.74 11.401)" fill="#74c67b"/>
            <path id="Trazado_801589" data-name="Trazado 801589" d="M285.06,267.832c-.043,1.079,4.528,34.557,4.528,41.4s-13.1,14.262-13.1,14.262l-14.341,30.45H211.071l17.462-32.788,7.894-26.264A61.865,61.865,0,0,1,252.279,268.6l8.528-5.707Z" transform="translate(-26.231 13.78)" fill="#74c67b"/>
            <path id="Trazado_801590" data-name="Trazado 801590" d="M226.12,293.411l-8.579,35.995,43.267-12.191,7.376,13.032-56.3,25.641a15.825,15.825,0,0,1-21.89-18.326l12.606-49.25a12.041,12.041,0,0,1,23.519,5.1" transform="translate(17.874 14.637)" fill="#74c67b"/>
            <path id="Trazado_801591" data-name="Trazado 801591" d="M210.864,322.812a1.992,1.992,0,0,0,.5-.213c.318-.155.78-.4,1.364-.728a39.415,39.415,0,0,0,4.745-3.147,19.347,19.347,0,0,0,5.584-6.346c1.386-3,1.288-6.681.782-10.287-.523-3.642-1.271-7.035-1.711-10.172-.48-3.127-.811-5.957-.987-8.34s-.214-4.319-.207-5.657.044-2.079,0-2.082a1.974,1.974,0,0,0-.088.534c-.043.352-.085.871-.122,1.542a52.365,52.365,0,0,0,.034,5.688c.126,2.4.42,5.248.874,8.39.414,3.147,1.152,6.571,1.668,10.171.5,3.575.595,7.155-.7,10a19.457,19.457,0,0,1-5.368,6.256,47.724,47.724,0,0,1-4.613,3.267,20.777,20.777,0,0,0-1.752,1.124" transform="translate(39.395 14.458)" fill="#263238"/>
            <path id="Trazado_801592" data-name="Trazado 801592" d="M234.981,283.726a17.876,17.876,0,0,1,11.79-.8,12.022,12.022,0,0,0-11.79.8" transform="translate(-8.577 14.768)" fill="#263238"/>
            <path id="Trazado_801593" data-name="Trazado 801593" d="M218.642,265.181a4.836,4.836,0,0,0,.781.874c.526.537,1.308,1.293,2.291,2.21,1.965,1.835,4.755,4.292,7.957,6.86s6.209,4.755,8.429,6.272c1.109.76,2.017,1.359,2.657,1.755a4.764,4.764,0,0,0,1.022.571,4.851,4.851,0,0,0-.9-.748l-2.552-1.893c-2.157-1.6-5.117-3.827-8.312-6.385s-6.012-4.962-8.04-6.721l-2.4-2.079a4.831,4.831,0,0,0-.926-.717" transform="translate(13.61 13.899)" fill="#263238"/>
            <path id="Trazado_801594" data-name="Trazado 801594" d="M187.327,253.525c-.055.152,1.515.818,3.253,1.963s2.985,2.3,3.1,2.191a10.872,10.872,0,0,0-6.356-4.154" transform="translate(94.655 13.287)" fill="#263238"/>
            <path id="Trazado_801595" data-name="Trazado 801595" d="M211.21,308.5a3.432,3.432,0,0,0,.942.3,18.258,18.258,0,0,0,2.653.465,24.488,24.488,0,0,0,4,.108A25.747,25.747,0,0,0,228.28,307a24.443,24.443,0,0,0,3.477-1.983,18.069,18.069,0,0,0,2.121-1.661c.468-.431.712-.682.688-.71-.066-.077-1.119.852-3.02,2.047a27.875,27.875,0,0,1-16.707,4.187c-2.241-.157-3.607-.479-3.629-.381" transform="translate(28.643 15.863)" fill="#fafafa"/>
            <path id="Trazado_801596" data-name="Trazado 801596" d="M223.992,323.371a5.384,5.384,0,0,0,1.94.354,17.767,17.767,0,0,0,9.248-1.884,5.4,5.4,0,0,0,1.648-1.084,40.2,40.2,0,0,1-6.253,2.114,40.125,40.125,0,0,1-6.582.5" transform="translate(12.93 16.812)" fill="#fafafa"/>
            <path id="Trazado_801597" data-name="Trazado 801597" d="M235.518,313.9a3.074,3.074,0,0,0,.8.482,24.01,24.01,0,0,0,2.323,1.044,35.6,35.6,0,0,0,16.529,2.288,24.285,24.285,0,0,0,2.519-.374,3.1,3.1,0,0,0,.9-.246c-.015-.089-1.326.107-3.453.234a41.892,41.892,0,0,1-16.364-2.265c-2.013-.7-3.221-1.245-3.26-1.163" transform="translate(-20.966 16.452)" fill="#fafafa"/>
            <path id="Trazado_801598" data-name="Trazado 801598" d="M231.1,297.215c.018.086,1.34-.162,3.488-.418a53.869,53.869,0,0,1,16.806.606c2.125.409,3.425.751,3.449.667a3.211,3.211,0,0,0-.881-.354c-.577-.2-1.426-.438-2.486-.692a43.817,43.817,0,0,0-16.942-.61c-1.076.178-1.941.356-2.53.511a3.181,3.181,0,0,0-.9.289" transform="translate(-12.565 15.508)" fill="#fafafa"/>
            <path id="Trazado_801599" data-name="Trazado 801599" d="M237.926,344.837a5.466,5.466,0,0,0,1.229-.243,31.3,31.3,0,0,0,3.262-1.008,42.961,42.961,0,0,0,18.269-12.829,31.54,31.54,0,0,0,2.056-2.725,5.468,5.468,0,0,0,.646-1.076c-.081-.057-1.1,1.4-3,3.548a47.71,47.71,0,0,1-18.113,12.718c-2.661,1.057-4.38,1.519-4.354,1.614" transform="translate(-28.297 17.137)" fill="#fafafa"/>
            <path id="Trazado_801600" data-name="Trazado 801600" d="M230.23,344.4a11.673,11.673,0,0,0,.128-2.994,33.313,33.313,0,0,0-3.65-13.921,11.737,11.737,0,0,0-1.58-2.546,26.152,26.152,0,0,0,1.231,2.715,41.235,41.235,0,0,1,3.611,13.775,26.541,26.541,0,0,0,.259,2.971" transform="translate(18.194 17.031)" fill="#fafafa"/>
            <path id="Trazado_801601" data-name="Trazado 801601" d="M208.446,332.889a8.461,8.461,0,0,0-.022-2.519,14.308,14.308,0,0,0-1.867-5.8,18.689,18.689,0,0,0-4.067-4.54,9.741,9.741,0,0,0-2.046-1.464,13.9,13.9,0,0,0,1.789,1.753,22.366,22.366,0,0,1,3.852,4.533,16.065,16.065,0,0,1,1.955,5.574,17.462,17.462,0,0,0,.405,2.467" transform="translate(66.026 16.697)" fill="#fafafa"/>
            <path id="Trazado_801602" data-name="Trazado 801602" d="M261.537,343.174a16.268,16.268,0,0,0,3.04,1.341,56.789,56.789,0,0,0,7.685,2.307,32.9,32.9,0,0,0,7.989.869,13.1,13.1,0,0,0,1.389-.093,8.236,8.236,0,0,0,1.041-.145,2.815,2.815,0,0,0,.867-.227c-.016-.1-1.268.112-3.3.078a39.846,39.846,0,0,1-7.868-1.018c-3.034-.676-5.733-1.5-7.674-2.136a25.353,25.353,0,0,0-3.169-.976" transform="translate(-73.304 17.987)" fill="#fafafa"/>
            <path id="Trazado_801603" data-name="Trazado 801603" d="M261.377,323.406c-.059.027.272.665,1.156,1.313a15.763,15.763,0,0,0,3.716,1.951,23.352,23.352,0,0,0,4.014,1.183,6.5,6.5,0,0,0,1.277.132c.306.008.491-.106.465-.125-.032-.04-.627-.078-1.654-.384-1.013-.284-2.4-.735-3.9-1.316a22.946,22.946,0,0,1-3.694-1.761c-.9-.537-1.3-1.041-1.377-.993" transform="translate(-61.587 16.951)" fill="#fafafa"/>
            <path id="Trazado_801604" data-name="Trazado 801604" d="M256.026,303.327c-.027-.005-.017.179.161.379a3.527,3.527,0,0,0,.845.684,16.726,16.726,0,0,0,3.179,1.483,18.311,18.311,0,0,0,3.384.915c.893.153,1.482.034,1.466-.04a14.141,14.141,0,0,0-1.388-.34c-.848-.221-2.009-.592-3.274-1.049a33.112,33.112,0,0,1-3.175-1.3,6.074,6.074,0,0,1-.888-.5c-.2-.128-.258-.24-.309-.225" transform="translate(-49.005 15.899)" fill="#fafafa"/>
            <path id="Trazado_801605" data-name="Trazado 801605" d="M213.526,292.908A8.791,8.791,0,0,0,216,293a31.683,31.683,0,0,0,11.582-2.746,8.79,8.79,0,0,0,2.168-1.2c-.074-.159-3.454,1.535-7.955,2.585-4.493,1.082-8.275,1.086-8.269,1.261" transform="translate(31.021 15.151)" fill="#fafafa"/>
            <path id="Trazado_801606" data-name="Trazado 801606" d="M250.789,283.674c-.1.149,1.409,1.172,3.458,1.985,2.034.851,3.831,1.178,3.86,1,.019-.12-1.641-.663-3.654-1.5-2.026-.8-3.593-1.575-3.665-1.477" transform="translate(-36.546 14.868)" fill="#fafafa"/>
            <path id="Trazado_801607" data-name="Trazado 801607" d="M240.5,270.678a4.572,4.572,0,0,0-1.464,1.162,13.345,13.345,0,0,0-3.691,8.1,4.548,4.548,0,0,0,.083,1.867,18.073,18.073,0,0,1,5.072-11.129" transform="translate(-2.663 14.187)" fill="#fafafa"/>
            <path id="Trazado_801608" data-name="Trazado 801608" d="M205.413,286.237a3.781,3.781,0,0,0,.482-.992,16.984,16.984,0,0,0,.839-2.889,26.146,26.146,0,0,0-.073-9.886,52.076,52.076,0,0,0-2.866-9.464c-.465-1.176-.864-2.116-1.15-2.762a4.205,4.205,0,0,0-.5-.981,4.321,4.321,0,0,0,.3,1.059q.41,1.171.986,2.818a64.487,64.487,0,0,1,2.69,9.429,28.459,28.459,0,0,1,.23,9.718c-.405,2.472-1.037,3.915-.94,3.951" transform="translate(65.586 13.589)" fill="#fafafa"/>
            <path id="Trazado_801609" data-name="Trazado 801609" d="M195.54,276.368a4.05,4.05,0,0,0-.184-1.061,25.676,25.676,0,0,0-.83-2.813,36.023,36.023,0,0,0-10.959-15.727,25.593,25.593,0,0,0-2.352-1.753,4.134,4.134,0,0,0-.931-.541c-.055.079,1.2.957,3.031,2.588a40.584,40.584,0,0,1,10.848,15.568c.895,2.286,1.285,3.763,1.378,3.739" transform="translate(100.209 13.338)" fill="#fafafa"/>
            <path id="Trazado_801610" data-name="Trazado 801610" d="M167,240.152c-.005.1,1.2.154,3.049.68a28.55,28.55,0,0,1,6.839,3.053,32.378,32.378,0,0,1,5.939,4.584c1.37,1.353,2.06,2.338,2.139,2.285.032-.021-.117-.283-.415-.743a8.335,8.335,0,0,0-.588-.8,11.968,11.968,0,0,0-.856-1.006,27.246,27.246,0,0,0-5.936-4.784,24.539,24.539,0,0,0-7.026-2.959,9.967,9.967,0,0,0-1.3-.241,7.167,7.167,0,0,0-.992-.1,2.551,2.551,0,0,0-.851.033" transform="translate(124.77 12.585)" fill="#fafafa"/>
            <path id="Trazado_801611" data-name="Trazado 801611" d="M158.27,226.54c0,.188,4.148-.578,9.047.695,4.917,1.21,8.2,3.855,8.291,3.69a8.683,8.683,0,0,0-2.135-1.663,21.33,21.33,0,0,0-12.532-3.17,8.733,8.733,0,0,0-2.67.448" transform="translate(143.316 11.848)" fill="#fafafa"/>
            <path id="Trazado_801612" data-name="Trazado 801612" d="M198.444,292.706a4.1,4.1,0,0,0-.213.687c-.13.5-.3,1.166-.524,2.007-.449,1.8-1.083,4.345-1.87,7.508l-6.231,25.73-.107.442.439-.123,11.031-3.1,32.217-9.157-.226-.093,5.475,9.491q.957,1.624,1.513,2.567c.163.266.3.483.405.661a.963.963,0,0,0,.156.216.921.921,0,0,0-.105-.244c-.1-.185-.214-.41-.358-.688q-.519-.958-1.422-2.618c-1.28-2.3-3.091-5.566-5.32-9.578l-.075-.136-.15.042L200.82,325.33l-11.027,3.115.332.318c2.421-10.322,4.53-19.312,6.045-25.776.724-3.178,1.3-5.733,1.718-7.544.183-.849.328-1.524.438-2.028a4.18,4.18,0,0,0,.12-.709" transform="translate(45.549 15.342)" fill="#263238"/>
            <path id="Trazado_801613" data-name="Trazado 801613" d="M263.966,290.577a2.955,2.955,0,0,0-.211.618c-.13.467-.3,1.063-.5,1.8-.429,1.635-1.021,3.884-1.743,6.634-1.435,5.675-3.389,13.4-5.547,21.934-1.061,4.293-2.1,8.366-2.973,12.1a28.53,28.53,0,0,0-.825,10.16,14.316,14.316,0,0,0,2.416,6.424,7.564,7.564,0,0,0,1.728,1.839,20.284,20.284,0,0,1-1.552-1.96,14.67,14.67,0,0,1-2.208-6.352,28.884,28.884,0,0,1,.933-10c.928-3.721,1.944-7.8,3.012-12.084,2.1-8.55,4-16.288,5.393-21.973.651-2.767,1.185-5.031,1.573-6.677.163-.744.3-1.348.4-1.822a2.893,2.893,0,0,0,.1-.644" transform="translate(-43.682 15.23)" fill="#263238"/>
            <g id="Grupo_1065347" data-name="Grupo 1065347" transform="translate(201.657 318.503)" opacity="0.3">
              <g id="Grupo_1065346" data-name="Grupo 1065346">
                <g id="Grupo_1065345" data-name="Grupo 1065345" clip-path="url(#clip-path-11)">
                  <path id="Trazado_801614" data-name="Trazado 801614" d="M265.77,351.857c-6.336.584-10.012-3.03-10.689-7.973-.374-2.723.526-5.442,1.413-8.044,3.883-11.386,7.81-22.868,13.973-33.2-2.327,10.339-5.3,20.266-7.624,30.605a32.062,32.062,0,0,0-.984,8.8,15.858,15.858,0,0,0,3.911,9.807" transform="translate(-254.993 -302.64)"/>
                </g>
              </g>
            </g>
            <path id="Trazado_801615" data-name="Trazado 801615" d="M271.426,262.983a12.887,12.887,0,0,1-16.371-9.789,7.572,7.572,0,0,1-6.531,1.735,12.461,12.461,0,0,1-6.092-3.288,15.215,15.215,0,0,1-5.114-11.43c.163-4.3,2.861-8.561,6.915-10.014s9.183.439,10.854,4.408c.754-2.254-1.182-5.3-.719-7.631.928-4.679,3.726-7.415,6.1-7.514" transform="translate(-35.684 11.503)" fill="#263238"/>
            <path id="Trazado_801616" data-name="Trazado 801616" d="M236.915,262.3c-4.635-8.08-5.963-18.846-7.134-28.156-.551-4.383-1.522-10.623,1.466-13.364,3.2-2.937,3.508-7.466,7.185-9.732s8.663-2.454,12.131.14" transform="translate(-6.265 10.97)" fill="#263238"/>
            <path id="Trazado_801617" data-name="Trazado 801617" d="M227.077,278.162V265.482s13.207-2.333,13.989-12.916.507-35.021.507-35.021a34.812,34.812,0,0,0-36.136,2.288l.534,37.257-.025,12.136L216.758,278l10.319,8.127Z" transform="translate(27.665 11.193)" fill="#ffbe9d"/>
            <path id="Trazado_801618" data-name="Trazado 801618" d="M228.025,240.054c-1.763-2.269-4.638-3.178-7.006-1.6a6.269,6.269,0,0,0-2.009,7.687,7.9,7.9,0,0,0,5.022,3.942s-4.756,8.674-7.781,10.972c-3.6,2.739-5.3,4.088-9.743,4.616-4.371.52-3.843.565-6.376-3.148a14.542,14.542,0,0,1-2.471-8.6q-.2-11.709-.4-23.416a34.524,34.524,0,0,1,.541-8.4,11.315,11.315,0,0,1,4.314-6.934c2.5-1.687,5.662-1.823,8.507-2.763,3.557-1.174,6.582-3.6,9.912-5.342s7.408-2.782,10.74-1.043c2.392,1.248,3.992,3.72,6.318,5.094,3.311,1.956,7.828,1.528,9.424,6.566a8.787,8.787,0,0,1-.071,5.382c-2.268,6.842-10.5,9.578-16.409,6.6-.12,1.16.98,3.744-.214,7.4-.382,1.17-.522,2.955-2.3,2.984" transform="translate(30.518 10.752)" fill="#263238"/>
            <path id="Trazado_801619" data-name="Trazado 801619" d="M221.3,244.844c.042.016.04.2-.143.457a1.517,1.517,0,0,1-1.145.586c-1.149.107-2.608-1.171-2.651-2.93a3.122,3.122,0,0,1,.76-2.237,3.05,3.05,0,0,1,1.609-.949c1.058-.224,1.665.179,1.621.248-.026.12-.63-.052-1.48.266a2.648,2.648,0,0,0-1.776,2.638,2.442,2.442,0,0,0,1.923,2.429c.859.056,1.208-.576,1.283-.508" transform="translate(35.387 12.564)" fill="#eb996e"/>
            <path id="Trazado_801620" data-name="Trazado 801620" d="M248.361,239.306a3.2,3.2,0,0,0,.3.995,11.208,11.208,0,0,0,1.406,2.464,12.322,12.322,0,0,0,7.858,4.819,12.093,12.093,0,0,0,8.922-2.306,10.927,10.927,0,0,0,2.043-1.968,3.212,3.212,0,0,0,.565-.871,22.211,22.211,0,0,1-2.833,2.524,12.218,12.218,0,0,1-8.613,2.08,12.476,12.476,0,0,1-7.637-4.515,23.453,23.453,0,0,1-2.011-3.22" transform="translate(-45.339 12.543)" fill="#455a64"/>
            <path id="Trazado_801621" data-name="Trazado 801621" d="M248.621,237.679a2.519,2.519,0,0,0,.367.814,11.657,11.657,0,0,0,1.428,1.969,13.216,13.216,0,0,0,6.841,4.08,12.934,12.934,0,0,0,7.929-.748,11.188,11.188,0,0,0,2.121-1.191c.463-.34.692-.561.671-.587-.057-.086-1.06.7-2.938,1.42a13.436,13.436,0,0,1-7.662.573,13.774,13.774,0,0,1-6.679-3.81c-1.4-1.442-1.992-2.572-2.078-2.518" transform="translate(-44.137 12.458)" fill="#455a64"/>
            <path id="Trazado_801622" data-name="Trazado 801622" d="M213.978,251.738a1.689,1.689,0,0,0,.439.243,4.919,4.919,0,0,0,1.392.367,7.554,7.554,0,0,0,5.041-1.39,14.653,14.653,0,0,0,4.744-6.167c1.285-2.635,2.3-5.725,4.3-8.39a10.078,10.078,0,0,1,3.611-3.085,12.863,12.863,0,0,1,4.321-1.139c2.874-.293,5.531-.1,7.748-.406a12.436,12.436,0,0,0,5.018-1.564,7.743,7.743,0,0,0,1.146-.865c.235-.23.35-.356.338-.369-.037-.043-.523.454-1.59,1.05a12.983,12.983,0,0,1-4.955,1.361c-2.18.256-4.81.022-7.756.29a13.2,13.2,0,0,0-4.505,1.159,10.532,10.532,0,0,0-3.812,3.237c-2.071,2.767-3.076,5.895-4.322,8.5a14.569,14.569,0,0,1-4.507,6.065,7.556,7.556,0,0,1-4.8,1.5,9.031,9.031,0,0,1-1.851-.4" transform="translate(8.216 12.001)" fill="#455a64"/>
            <path id="Trazado_801623" data-name="Trazado 801623" d="M213.582,247.978a1.509,1.509,0,0,0,.471.046,5.246,5.246,0,0,0,1.352-.172,8.531,8.531,0,0,0,4.113-2.785,16.01,16.01,0,0,0,1.977-2.835c.606-1.085,1.157-2.282,1.768-3.517a24.275,24.275,0,0,1,2.154-3.7,11.019,11.019,0,0,1,1.5-1.654,7.315,7.315,0,0,1,.911-.682,5.291,5.291,0,0,1,.983-.6,12.375,12.375,0,0,1,4.349-1.278,33.291,33.291,0,0,1,4.295-.221,58.754,58.754,0,0,0,7.363-.195,13.184,13.184,0,0,0,4.766-1.427,9.023,9.023,0,0,0,1.124-.759c.247-.185.371-.289.359-.3-.032-.045-.564.333-1.582.873A13.95,13.95,0,0,1,244.776,230a65.452,65.452,0,0,1-7.315.075,32.623,32.623,0,0,0-4.365.193,12.776,12.776,0,0,0-4.536,1.326,5.734,5.734,0,0,0-1.04.637,8,8,0,0,0-.963.725,11.467,11.467,0,0,0-1.57,1.743,24.13,24.13,0,0,0-2.175,3.8c-.6,1.248-1.137,2.448-1.713,3.519a16.188,16.188,0,0,1-1.872,2.8,8.662,8.662,0,0,1-3.878,2.832,13.188,13.188,0,0,1-1.765.33" transform="translate(9.643 11.945)" fill="#455a64"/>
            <path id="Trazado_801624" data-name="Trazado 801624" d="M247.917,252.984c.024.024.24-.142.582-.49a10.5,10.5,0,0,0,1.28-1.629,12.961,12.961,0,0,0,.519-13.124,10.629,10.629,0,0,0-1.144-1.727c-.313-.376-.514-.558-.54-.536-.076.058.61.89,1.338,2.437a13.688,13.688,0,0,1-.5,12.748c-.848,1.483-1.6,2.256-1.53,2.321" transform="translate(-27.248 12.342)" fill="#e8505b"/>
          </g>
        </g>
        <g id="Grupo_1065351" data-name="Grupo 1065351">
          <g id="Grupo_1065350" data-name="Grupo 1065350" clip-path="url(#clip-path)">
            <path id="Trazado_801625" data-name="Trazado 801625" d="M432.412,392.637c-7.261,2.535-16.731.269-22.943-4.265s-10.68-11.035-14.641-17.626c-1.691-2.813-3.341-5.746-3.875-8.983s.253-6.881,2.764-8.994c3.9-3.285,9.882-1.619,14.314.906a49.364,49.364,0,0,1,24.381,38.963" transform="translate(-358.199 18.394)" fill="#288640"/>
            <path id="Trazado_801626" data-name="Trazado 801626" d="M444.544,407.646c-4.36,5.753-11.851,8.314-19.062,8.648s-14.335-1.66-21.075-4.245c-2.445-.939-5.121-2.225-5.96-4.705a5.984,5.984,0,0,1,1.278-5.55,12.43,12.43,0,0,1,4.865-3.317,33.255,33.255,0,0,1,21.214-1.148c6.98,1.81,13.076,5.857,18.74,10.319" transform="translate(-378.126 20.763)" fill="#288640"/>
            <path id="Trazado_801627" data-name="Trazado 801627" d="M405.288,363.165c-6.01.12-10.56-5.144-13.28-10.505a38.938,38.938,0,0,1-3.58-24.278c.549-3.071,1.711-6.383,4.46-7.861,2.792-1.5,6.427-.511,8.769,1.626s3.625,5.188,4.56,8.217c3.226,10.44,2.531,22.436-.928,32.8" transform="translate(-330.968 16.762)" fill="#288640"/>
            <path id="Trazado_801628" data-name="Trazado 801628" d="M372.07,395.831c-10.247-17.441-11.955-38.779-5.9-58.081.982-3.131,2.835-6.714,6.109-6.922,3.627-.23,5.9,3.813,6.9,7.307,3.514,12.255,2.767,25.275,1.99,38-.479,7.839-3.172,14.541-9.1,19.695" transform="translate(-278.009 17.34)" fill="#288640"/>
            <path id="Trazado_801629" data-name="Trazado 801629" d="M329.159,400.767A41.919,41.919,0,0,1,354.027,374.4c2.722-1.024,6.181-1.608,8.211.474,1.99,2.043,1.377,5.457.1,8.008-2.064,4.118-5.413,7.427-8.75,10.6-3.035,2.889-6.189,5.788-10.028,7.467s-10.889,2.107-14.4-.182" transform="translate(-224.442 19.575)" fill="#288640"/>
            <path id="Trazado_801630" data-name="Trazado 801630" d="M377.469,356.834c-.005.007.056.061.179.16l.551.427,2.148,1.606,1.559,1.15c.56.434,1.145.935,1.787,1.454,1.267,1.061,2.767,2.2,4.276,3.636l2.415,2.2c.836.767,1.641,1.634,2.51,2.493,1.764,1.7,3.472,3.675,5.309,5.72a112.843,112.843,0,0,1,18.73,30.3c1.007,2.558,2.014,4.971,2.743,7.307.38,1.162.795,2.269,1.108,3.36s.6,2.141.884,3.143c.608,1.991.959,3.842,1.34,5.45.178.806.365,1.553.5,2.248q.182,1.04.333,1.908.3,1.675.476,2.638c.056.278.1.5.136.685a.12.12,0,1,0,.049-.006c-.023-.184-.053-.412-.088-.693-.094-.645-.223-1.532-.387-2.656q-.133-.871-.291-1.92c-.124-.7-.3-1.449-.464-2.262-.357-1.617-.685-3.479-1.274-5.482q-.409-1.512-.857-3.161c-.3-1.1-.712-2.211-1.085-3.38-.716-2.35-1.711-4.778-2.711-7.35a110.4,110.4,0,0,0-18.8-30.422c-1.854-2.045-3.58-4.02-5.362-5.71-.879-.857-1.693-1.72-2.538-2.483l-2.445-2.18c-1.528-1.423-3.047-2.549-4.335-3.591-.651-.513-1.245-1-1.814-1.427l-1.587-1.119-2.2-1.534-.58-.388a.863.863,0,0,0-.206-.119" transform="translate(-336.283 18.703)" fill="#263238"/>
            <path id="Trazado_801631" data-name="Trazado 801631" d="M377.877,402.866a3.944,3.944,0,0,0,.7-.117c.459-.083,1.124-.26,2-.405a56.311,56.311,0,0,1,7.418-.907,54.136,54.136,0,0,1,43.957,18.291,56.2,56.2,0,0,1,4.584,5.9c.513.721.855,1.318,1.12,1.7a4.053,4.053,0,0,0,.413.582,3.889,3.889,0,0,0-.329-.633c-.238-.4-.556-1.013-1.045-1.753a50.114,50.114,0,0,0-4.485-6.024A53.271,53.271,0,0,0,387.974,401.1a50.078,50.078,0,0,0-7.435,1.064c-.87.175-1.529.381-1.982.495a3.955,3.955,0,0,0-.68.212" transform="translate(-350.263 21.016)" fill="#263238"/>
            <path id="Trazado_801632" data-name="Trazado 801632" d="M377.471,327.1a1.108,1.108,0,0,0,.04.27l.163.784c.161.72.387,1.725.674,3,.59,2.606,1.49,6.366,2.622,11.007,2.257,9.283,5.539,22.068,8.956,36.235,1.7,7.088,3.236,13.859,4.561,20.033,1.3,6.179,2.409,11.755,3.234,16.459.442,2.347.775,4.48,1.09,6.351s.57,3.484.763,4.805c.2,1.292.36,2.31.473,3.038.056.325.1.585.136.789a1.109,1.109,0,0,0,.062.266,1.16,1.16,0,0,0-.014-.273c-.022-.206-.052-.468-.087-.8-.092-.731-.22-1.753-.383-3.053-.164-1.326-.385-2.946-.683-4.82s-.6-4.016-1.021-6.368c-.782-4.714-1.858-10.3-3.134-16.491-1.3-6.184-2.828-12.963-4.526-20.054-3.419-14.173-6.753-26.944-9.095-36.205-1.163-4.605-2.107-8.345-2.77-10.968-.324-1.268-.58-2.266-.762-2.981-.086-.318-.156-.571-.211-.772a1.12,1.12,0,0,0-.087-.259" transform="translate(-312.01 17.145)" fill="#263238"/>
            <path id="Trazado_801633" data-name="Trazado 801633" d="M370.021,427.89a.717.717,0,0,0,.065-.212c.039-.169.085-.376.143-.628q.185-.892.5-2.428c.435-2.11,1.01-5.173,1.666-8.968,1.314-7.587,2.873-18.125,3.831-29.844.464-5.862.722-11.46.836-16.552.085-5.095.04-9.683-.119-13.532-.047-1.926-.174-3.664-.258-5.192s-.186-2.842-.285-3.914l-.227-2.47c-.028-.258-.053-.467-.072-.641a.744.744,0,0,0-.041-.217.789.789,0,0,0-.008.221c.006.175.015.386.024.646.033.605.079,1.431.137,2.473.071,1.073.151,2.388.2,3.916s.161,3.264.186,5.188c.115,3.844.123,8.426.015,13.51-.137,5.084-.409,10.671-.872,16.524-.957,11.7-2.458,22.231-3.686,29.828-.612,3.8-1.137,6.869-1.513,8.989q-.264,1.544-.416,2.444c-.039.257-.071.466-.1.638a.766.766,0,0,0-.017.221" transform="translate(-281.03 17.994)" fill="#263238"/>
            <path id="Trazado_801634" data-name="Trazado 801634" d="M338.191,428.167a3.434,3.434,0,0,0,.267-.6l.675-1.754q.219-.579.481-1.268l.658-1.474.752-1.694c.265-.6.608-1.205.932-1.857L343,417.484q.6-1.032,1.246-2.143c.823-1.5,1.887-3,2.914-4.626a109.5,109.5,0,0,1,7.718-9.864,121.3,121.3,0,0,1,8.857-8.866c1.472-1.243,2.822-2.485,4.184-3.526l1.94-1.546,1.842-1.359c1.162-.882,2.255-1.619,3.218-2.264s1.785-1.21,2.485-1.629L379,380.656a3.52,3.52,0,0,0,.538-.38,3.276,3.276,0,0,0-.587.3l-1.636.929c-.717.4-1.566.925-2.536,1.565s-2.09,1.345-3.269,2.212l-1.867,1.338-1.964,1.53c-1.379,1.031-2.744,2.267-4.23,3.506a114.778,114.778,0,0,0-8.923,8.878,104.214,104.214,0,0,0-7.726,9.936c-1.023,1.643-2.08,3.153-2.892,4.674q-.635,1.122-1.227,2.167l-1.024,2.059c-.317.659-.651,1.272-.906,1.881l-.722,1.718q-.333.8-.623,1.494l-.444,1.288-.59,1.789a3.274,3.274,0,0,0-.175.633" transform="translate(-249.958 19.932)" fill="#263238"/>
            <path id="Trazado_801635" data-name="Trazado 801635" d="M398.048,376.062c0,.077,1.242.077,3.237.188a57.961,57.961,0,0,1,15.276,2.9c1.9.628,3.051,1.083,3.08,1.012a3.046,3.046,0,0,0-.769-.418c-.507-.243-1.257-.559-2.2-.917a46.121,46.121,0,0,0-15.378-2.92c-1.005-.013-1.819.006-2.38.047a3.051,3.051,0,0,0-.869.106" transform="translate(-353.062 19.703)" fill="#263238"/>
            <path id="Trazado_801636" data-name="Trazado 801636" d="M416.176,412.482a23.522,23.522,0,0,1,10.252-11.04,7.216,7.216,0,0,0-2.083.921,18.4,18.4,0,0,0-7.4,7.974,7.2,7.2,0,0,0-.765,2.145" transform="translate(-378.922 21.041)" fill="#263238"/>
            <path id="Trazado_801637" data-name="Trazado 801637" d="M393.742,340.555c-.1.1,1.789,1.974,3.849,4.509s3.521,4.752,3.643,4.676a28.872,28.872,0,0,0-7.492-9.184" transform="translate(-330.125 17.85)" fill="#263238"/>
            <path id="Trazado_801638" data-name="Trazado 801638" d="M396.373,330.4a35.7,35.7,0,0,0-1.391,8.17,35.7,35.7,0,0,0,1.391-8.17" transform="translate(-326.566 17.317)" fill="#263238"/>
            <path id="Trazado_801639" data-name="Trazado 801639" d="M370.655,362.276a100.867,100.867,0,0,0,6.429,12.4,101.24,101.24,0,0,0-6.429-12.4" transform="translate(-281.677 18.988)" fill="#263238"/>
            <path id="Trazado_801640" data-name="Trazado 801640" d="M370.575,351.453a56.564,56.564,0,0,0-4.653,9.348,56.567,56.567,0,0,0,4.653-9.348" transform="translate(-270.186 18.421)" fill="#263238"/>
            <path id="Trazado_801641" data-name="Trazado 801641" d="M341.227,388.517c.032.139,2.067-.257,4.6-.432s4.605-.081,4.618-.222a18.455,18.455,0,0,0-9.221.654" transform="translate(-224.07 20.313)" fill="#263238"/>
            <path id="Trazado_801642" data-name="Trazado 801642" d="M396.669,421.2l-5.7,30a4.206,4.206,0,0,1-4.132,3.42H369.98a4.2,4.2,0,0,1-4.149-3.517l-4.96-29.9Z" transform="translate(-290.964 22.077)" fill="#263238"/>
            <path id="Trazado_801643" data-name="Trazado 801643" d="M394.814,430.947H362.582L360.87,421.2h35.8Z" transform="translate(-290.963 22.077)" fill="#455a64"/>
            <path id="Trazado_801644" data-name="Trazado 801644" d="M394.863,430.461l-.676,3.555H363.127l-.495-3.555Z" transform="translate(-291.012 22.562)" fill="#fafafa"/>
          </g>
        </g>
      </g>
    </g>
  </g>
</svg>
