<svg xmlns="http://www.w3.org/2000/svg" xmlns:xlink="http://www.w3.org/1999/xlink" width="76.999" height="76.999" viewBox="0 0 76.999 76.999">
  <defs>
    <clipPath id="clip-path">
      <circle id="Elipse_8288" data-name="Elipse 8288" cx="38.5" cy="38.5" r="38.5" transform="translate(331 1539)" fill="#59bee2"/>
    </clipPath>
  </defs>
  <g id="Grupo_1065529" data-name="Grupo 1065529" transform="translate(-641 -6286.214)">
    <g id="Grupo_1064236" data-name="Grupo 1064236" transform="translate(308 4747.214)">
      <g id="Enmascarar_grupo_1064342" data-name="Enmascarar grupo 1064342" transform="translate(2)" clip-path="url(#clip-path)">
        <g id="compromiso" transform="translate(343.018 1549.018)">
          <g id="Grupo_1064634" data-name="Grupo 1064634" transform="translate(0 0)">
            <g id="Grupo_1064621" data-name="Grupo 1064621" transform="translate(11.982 15.102)">
              <g id="Grupo_1064620" data-name="Grupo 1064620">
                <path id="Trazado_797685" data-name="Trazado 797685" d="M33.975,21.632H16.806a.609.609,0,0,1,0-1.217H33.975a.609.609,0,0,1,0,1.217Z" transform="translate(-16.197 -20.414)" fill="#12263f" stroke="#12263f" stroke-width="0.4"/>
              </g>
            </g>
            <g id="Grupo_1064623" data-name="Grupo 1064623" transform="translate(11.982 19.876)">
              <g id="Grupo_1064622" data-name="Grupo 1064622">
                <path id="Trazado_797686" data-name="Trazado 797686" d="M33.975,28.084H16.806a.609.609,0,0,1,0-1.217H33.975a.609.609,0,0,1,0,1.217Z" transform="translate(-16.197 -26.867)" fill="#12263f" stroke="#12263f" stroke-width="0.4"/>
              </g>
            </g>
            <g id="Grupo_1064625" data-name="Grupo 1064625" transform="translate(11.982 24.649)">
              <g id="Grupo_1064624" data-name="Grupo 1064624">
                <path id="Trazado_797687" data-name="Trazado 797687" d="M22.754,34.536H16.806a.609.609,0,0,1,0-1.217h5.949a.609.609,0,0,1,0,1.217Z" transform="translate(-16.197 -33.319)" fill="#12263f" stroke="#12263f" stroke-width="0.4"/>
              </g>
            </g>
            <g id="Grupo_1064627" data-name="Grupo 1064627" transform="translate(4.829 29.422)">
              <g id="Grupo_1064626" data-name="Grupo 1064626">
                <path id="Trazado_797688" data-name="Trazado 797688" d="M14.354,40.988H7.136a.609.609,0,0,1,0-1.217h7.218a.609.609,0,0,1,0,1.217Z" transform="translate(-6.527 -39.771)" fill="#12263f" stroke="#12263f" stroke-width="0.4"/>
              </g>
            </g>
            <g id="Grupo_1064629" data-name="Grupo 1064629" transform="translate(4.829 34.195)">
              <g id="Grupo_1064628" data-name="Grupo 1064628">
                <path id="Trazado_797689" data-name="Trazado 797689" d="M11.8,47.44H7.136a.609.609,0,0,1,0-1.217H11.8a.609.609,0,0,1,0,1.217Z" transform="translate(-6.527 -46.223)" fill="#12263f" stroke="#12263f" stroke-width="0.4"/>
              </g>
            </g>
            <g id="Grupo_1064633" data-name="Grupo 1064633">
              <g id="Grupo_1064630" data-name="Grupo 1064630">
                <path id="Trazado_797690" data-name="Trazado 797690" d="M31.071,7.19H27.447V5.159a.609.609,0,0,0-.609-.609H25.063V.609A.609.609,0,0,0,24.454,0H10.147a.609.609,0,0,0-.609.609V4.55H7.762a.609.609,0,0,0-.609.609V7.19H3.53A3.534,3.534,0,0,0,0,10.721V50.037a3.534,3.534,0,0,0,3.53,3.531H5.715v2.739a.613.613,0,0,0,1.013.455L9.61,54.2l2.882,2.562a.612.612,0,0,0,1.013-.455V53.568h3.779a.609.609,0,0,0,0-1.217H13.505V47.569a5.374,5.374,0,1,0-1.217.959v6.424L10.015,52.93a.609.609,0,0,0-.809,0L6.932,54.952V50.973a.609.609,0,1,0-1.217,0V52.35H3.53a2.316,2.316,0,0,1-2.313-2.313V10.721A2.316,2.316,0,0,1,3.53,8.408H7.154V10.4a.609.609,0,0,0,.609.609H26.839a.609.609,0,0,0,.609-.609V8.408h3.624a2.316,2.316,0,0,1,2.313,2.313V21.835a.609.609,0,1,0,1.217,0V10.721a3.534,3.534,0,0,0-3.53-3.531ZM5.45,43.863A4.161,4.161,0,1,1,9.61,48.028,4.167,4.167,0,0,1,5.45,43.863ZM10.755,1.217h13.09V4.55H10.755ZM26.23,9.79H8.371V5.768H26.23V9.79Z" transform="translate(0 0)" fill="#12263f" stroke="#12263f" stroke-width="0.4"/>
              </g>
              <g id="Grupo_1064632" data-name="Grupo 1064632" transform="translate(7.419 41.672)">
                <g id="Grupo_1064631" data-name="Grupo 1064631">
                  <path id="Trazado_797691" data-name="Trazado 797691" d="M12.22,60.712a2.191,2.191,0,1,1,2.191-2.191A2.194,2.194,0,0,1,12.22,60.712Zm0-3.165a.974.974,0,1,0,.974.974A.975.975,0,0,0,12.22,57.547Z" transform="translate(-10.029 -56.33)" fill="#12263f" stroke="#12263f" stroke-width="0.4"/>
                </g>
              </g>
            </g>
          </g>
          <g id="Grupo_1064636" data-name="Grupo 1064636" transform="translate(13.145 22.29)">
            <g id="Grupo_1064635" data-name="Grupo 1064635">
              <path id="Trazado_797692" data-name="Trazado 797692" d="M61.408,42.839,48.842,30.308a.609.609,0,0,0-.859,0L45.06,33.224a.609.609,0,0,0,0,.862l.208.207-3.541,2.455a11.884,11.884,0,0,0-4.335,1.43l-1.324-.264L32.426,35.57l.318-.317a.609.609,0,0,0,0-.862l-2.923-2.915a.608.608,0,0,0-.859,0L17.948,42.46a.609.609,0,0,0,0,.862l2.923,2.915a.609.609,0,0,0,.859,0l9.814-9.787L35.505,39a.605.605,0,0,0,.21.085l.433.086-4.727,4.707a1.727,1.727,0,0,0,0,2.411,4.489,4.489,0,0,0,6.343-.007l.667-.669a8.081,8.081,0,0,0,5.623-1.151l7.355,7.322a1.605,1.605,0,0,1,0,2.241,1.584,1.584,0,0,1-2.234,0l-3.021-3.013a.609.609,0,1,0-.859.862l3.788,3.777a1.606,1.606,0,0,1,0,2.241,1.585,1.585,0,0,1-2.234,0L42.72,53.777a.609.609,0,0,0-.859.862l3.351,3.342a1.606,1.606,0,0,1-.009,2.232,1.584,1.584,0,0,1-2.234,0l-3.71-3.7a.609.609,0,0,0-.859.862l2.149,2.143a1.605,1.605,0,0,1,0,2.241,1.577,1.577,0,0,1-1.438.428A2.829,2.829,0,0,0,38.3,59.35a2.783,2.783,0,0,0-1.922-.729,2.791,2.791,0,0,0-.762-2.6,2.832,2.832,0,0,0-2.331-.8,2.825,2.825,0,0,0-.829-2.28,2.793,2.793,0,0,0-2.307-.766A2.8,2.8,0,0,0,26.082,49.4c-.433-.509-.855-1.032-1.256-1.562a.609.609,0,1,0-.97.735c.408.539.836,1.071,1.276,1.589L23.989,51.3a2.8,2.8,0,0,0,2.3,4.761,2.888,2.888,0,0,0,.8,2.3,2.845,2.845,0,0,0,2.286.8,2.855,2.855,0,0,0,2.793,3.126,2.782,2.782,0,0,0,.853-.136,2.778,2.778,0,0,0,.841,1.878A2.834,2.834,0,0,0,37.8,64s.677-.678.713-.719a2.832,2.832,0,0,0,2.9-.658,2.78,2.78,0,0,0,.777-1.474,2.8,2.8,0,0,0,4.688-1.8,2.8,2.8,0,0,0,3.674-3.66,2.786,2.786,0,0,0,1.72-.8,2.831,2.831,0,0,0,.286-3.628,9.3,9.3,0,0,0,2.812-2.4.609.609,0,1,0-.96-.749,8.076,8.076,0,0,1-2.727,2.239l-6.66-6.641,1.63-1.389a.609.609,0,0,0-.789-.927l-2.185,1.863a6.851,6.851,0,0,1-5.323,1.109.608.608,0,0,0-.554.166l-.894.9a3.271,3.271,0,0,1-4.622,0,.485.485,0,0,1,0-.687l4.677-4.659c1.437-1.431,3.232-1.786,5.13-2.164a.607.607,0,0,0,.228-.1l3.828-2.654,11.482,11.45a.609.609,0,0,0,.859,0L61.408,43.7a.609.609,0,0,0,0-.862ZM21.3,44.947l-2.061-2.056L29.391,32.767l2.061,2.056ZM27.083,54.4a1.584,1.584,0,0,1-2.234,0,1.606,1.606,0,0,1,0-2.241l1.4-1.4A1.582,1.582,0,0,1,28.487,53Zm3.1,3.094a1.583,1.583,0,0,1-2.234-2.241l1.438-1.434a1.582,1.582,0,1,1,2.234,2.241Zm3.079,3.118a1.551,1.551,0,0,1-2.187,0,1.571,1.571,0,0,1-.047-2.241l1.517-1.513a1.582,1.582,0,0,1,2.235,2.24Zm4.272,1.928-.6.6a1.588,1.588,0,0,1-2.222.012A1.606,1.606,0,0,1,34.7,60.9l.6-.6a1.582,1.582,0,0,1,2.234,2.241Zm20.52-17.214-11.7-11.671L48.412,31.6l11.7,11.671Z" transform="translate(-17.769 -30.131)" fill="#12263f" stroke="#12263f" stroke-width="0.4"/>
            </g>
          </g>
          <g id="Grupo_1064639" data-name="Grupo 1064639" transform="translate(33.202 25.015)">
            <g id="Grupo_1064638" data-name="Grupo 1064638">
              <circle id="Elipse_8289" data-name="Elipse 8289" cx="0.791" cy="0.791" r="0.791" fill="#12263f"/>
            </g>
          </g>
          <g id="Grupo_1064641" data-name="Grupo 1064641" transform="translate(20.189 52.168)">
            <g id="Grupo_1064640" data-name="Grupo 1064640">
              <circle id="Elipse_8290" data-name="Elipse 8290" cx="0.791" cy="0.791" r="0.791" fill="#12263f"/>
            </g>
          </g>
        </g>
      </g>
    </g>
  </g>
</svg>
