<svg xmlns="http://www.w3.org/2000/svg" xmlns:xlink="http://www.w3.org/1999/xlink" width="186.514" height="304.364" viewBox="0 0 186.514 304.364">
  <defs>
    <clipPath id="clip-path">
      <path id="Trazado_801474" data-name="Trazado 801474" d="M1970.484,118.533A70.432,70.432,0,1,1,1900.051,48.1a70.433,70.433,0,0,1,70.433,70.433" transform="translate(-1829.619 -48.1)" fill="#12263f"/>
    </clipPath>
  </defs>
  <g id="Grupo_1065529" data-name="Grupo 1065529" transform="translate(-707.087 -4617.747)">
    <path id="Trazado_801805" data-name="Trazado 801805" d="M-32.277-1.492A3.465,3.465,0,0,1-33.891-.254a6.517,6.517,0,0,1-2.41.41A4.674,4.674,0,0,1-38.77-.5a4.346,4.346,0,0,1-1.668-1.855,6.408,6.408,0,0,1-.605-2.789v-.992a5.982,5.982,0,0,1,1.2-3.984,4.179,4.179,0,0,1,3.371-1.414,4.316,4.316,0,0,1,2.867.91,3.965,3.965,0,0,1,1.328,2.582h-1.5A2.48,2.48,0,0,0-36.465-10.3a2.655,2.655,0,0,0-2.285,1.06,5.173,5.173,0,0,0-.785,3.069v.93A4.848,4.848,0,0,0-38.66-2.2a2.836,2.836,0,0,0,2.367,1.13,5.228,5.228,0,0,0,1.477-.187,2.283,2.283,0,0,0,1.047-.631V-4.437H-36.4V-5.664h4.125ZM-26.5.156a3.693,3.693,0,0,1-2.8-1.129,4.19,4.19,0,0,1-1.078-3.02v-.266a5.073,5.073,0,0,1,.48-2.246,3.748,3.748,0,0,1,1.344-1.547,3.378,3.378,0,0,1,1.871-.559,3.166,3.166,0,0,1,2.563,1.086A4.7,4.7,0,0,1-23.2-4.414v.6h-5.727a3,3,0,0,0,.73,2.02,2.3,2.3,0,0,0,1.777.77,2.517,2.517,0,0,0,1.3-.312,3.259,3.259,0,0,0,.93-.828l.883.688A3.55,3.55,0,0,1-26.5.156Zm-.18-7.578a1.928,1.928,0,0,0-1.469.637A3.1,3.1,0,0,0-28.879-5h4.234v-.109a2.753,2.753,0,0,0-.594-1.707A1.815,1.815,0,0,0-26.676-7.422Zm10.07,5.18a1.064,1.064,0,0,0-.441-.91,4.249,4.249,0,0,0-1.539-.559,7.277,7.277,0,0,1-1.742-.562,2.479,2.479,0,0,1-.953-.781,1.869,1.869,0,0,1-.309-1.078,2.193,2.193,0,0,1,.879-1.758,3.432,3.432,0,0,1,2.246-.719,3.532,3.532,0,0,1,2.332.742,2.357,2.357,0,0,1,.895,1.9h-1.453a1.3,1.3,0,0,0-.5-1.023,1.888,1.888,0,0,0-1.27-.43,1.976,1.976,0,0,0-1.234.344,1.082,1.082,0,0,0-.445.9.877.877,0,0,0,.414.789,5.1,5.1,0,0,0,1.5.508A7.8,7.8,0,0,1-16.48-4.3a2.558,2.558,0,0,1,1,.809,1.988,1.988,0,0,1,.324,1.152,2.163,2.163,0,0,1-.906,1.816,3.8,3.8,0,0,1-2.352.684,4.257,4.257,0,0,1-1.8-.359,2.922,2.922,0,0,1-1.223-1A2.42,2.42,0,0,1-21.879-2.6h1.445a1.5,1.5,0,0,0,.582,1.152,2.258,2.258,0,0,0,1.434.426A2.331,2.331,0,0,0-17.1-1.355,1.02,1.02,0,0,0-16.605-2.242Zm5.289-8.258v2.047h1.578v1.117h-1.578v5.249a1.173,1.173,0,0,0,.211.763.888.888,0,0,0,.719.254A3.5,3.5,0,0,0-9.7-1.164V0a4.215,4.215,0,0,1-1.109.155A1.8,1.8,0,0,1-12.27-.43a2.517,2.517,0,0,1-.492-1.664V-7.336H-14.3V-8.453h1.539V-10.5ZM-6.48,0H-7.926V-8.453H-6.48ZM-8.043-10.7a.863.863,0,0,1,.215-.594.807.807,0,0,1,.637-.242.819.819,0,0,1,.641.242.854.854,0,0,1,.219.594.826.826,0,0,1-.219.586.834.834,0,0,1-.641.234.821.821,0,0,1-.637-.234A.834.834,0,0,1-8.043-10.7ZM-4.551-4.3a4.993,4.993,0,0,1,.488-2.234A3.643,3.643,0,0,1-2.7-8.07,3.7,3.7,0,0,1-.715-8.609a3.565,3.565,0,0,1,2.793,1.2,4.6,4.6,0,0,1,1.066,3.18v.1a5.036,5.036,0,0,1-.473,2.215A3.589,3.589,0,0,1,1.32-.391,3.743,3.743,0,0,1-.7.156a3.556,3.556,0,0,1-2.785-1.2A4.575,4.575,0,0,1-4.551-4.2Zm1.453.172a3.616,3.616,0,0,0,.652,2.258A2.088,2.088,0,0,0-.7-1.023a2.075,2.075,0,0,0,1.75-.863A3.955,3.955,0,0,0,1.7-4.3a3.61,3.61,0,0,0-.66-2.254A2.1,2.1,0,0,0-.715-7.422a2.075,2.075,0,0,0-1.727.852A3.925,3.925,0,0,0-3.1-4.133ZM-.059-12h1.75L-.4-9.7l-1.164,0ZM6.324-8.453l.047,1.063A3.08,3.08,0,0,1,8.9-8.609q2.68,0,2.7,3.023V0H10.16V-5.594a1.946,1.946,0,0,0-.418-1.352,1.675,1.675,0,0,0-1.277-.437,2.086,2.086,0,0,0-1.234.375,2.546,2.546,0,0,0-.828.984V0H4.957V-8.453ZM17.395-4.3a4.952,4.952,0,0,1,.922-3.129A2.915,2.915,0,0,1,20.73-8.609a2.932,2.932,0,0,1,2.352,1.016V-12h1.445V0H23.2l-.07-.906A2.943,2.943,0,0,1,20.715.156a2.887,2.887,0,0,1-2.395-1.2,5.008,5.008,0,0,1-.926-3.141Zm1.445.164a3.749,3.749,0,0,0,.594,2.25,1.92,1.92,0,0,0,1.641.813A2.108,2.108,0,0,0,23.082-2.3V-6.187a2.125,2.125,0,0,0-1.992-1.2,1.929,1.929,0,0,0-1.656.82A4.128,4.128,0,0,0,18.84-4.133ZM30.277.156a3.693,3.693,0,0,1-2.8-1.129A4.19,4.19,0,0,1,26.4-3.992v-.266a5.073,5.073,0,0,1,.48-2.246,3.748,3.748,0,0,1,1.344-1.547A3.378,3.378,0,0,1,30.1-8.609,3.166,3.166,0,0,1,32.66-7.523a4.7,4.7,0,0,1,.914,3.109v.6H27.848a3,3,0,0,0,.73,2.02,2.3,2.3,0,0,0,1.777.77,2.517,2.517,0,0,0,1.3-.312,3.259,3.259,0,0,0,.93-.828l.883.688A3.55,3.55,0,0,1,30.277.156ZM30.1-7.422a1.928,1.928,0,0,0-1.469.637A3.1,3.1,0,0,0,27.895-5h4.234v-.109a2.753,2.753,0,0,0-.594-1.707A1.815,1.815,0,0,0,30.1-7.422ZM36.816,0H35.371V-12h1.445ZM-44.074,22.977a2.082,2.082,0,0,0,1.352-.469,1.649,1.649,0,0,0,.641-1.172h1.367a2.621,2.621,0,0,1-.5,1.383,3.293,3.293,0,0,1-1.23,1.047,3.55,3.55,0,0,1-1.629.391A3.482,3.482,0,0,1-46.82,23a4.59,4.59,0,0,1-1.02-3.152v-.242a5.089,5.089,0,0,1,.453-2.2,3.451,3.451,0,0,1,1.3-1.492,3.7,3.7,0,0,1,2-.531,3.39,3.39,0,0,1,2.363.852,3.043,3.043,0,0,1,1,2.211h-1.367a1.992,1.992,0,0,0-.621-1.348,1.932,1.932,0,0,0-1.379-.527,2.023,2.023,0,0,0-1.707.793,3.724,3.724,0,0,0-.605,2.293v.273a3.65,3.65,0,0,0,.6,2.25A2.033,2.033,0,0,0-44.074,22.977Zm4.6-3.281a4.993,4.993,0,0,1,.488-2.234,3.643,3.643,0,0,1,1.359-1.531,3.7,3.7,0,0,1,1.988-.539,3.565,3.565,0,0,1,2.793,1.2,4.6,4.6,0,0,1,1.066,3.18v.1a5.036,5.036,0,0,1-.473,2.215A3.589,3.589,0,0,1-33.6,23.609a3.743,3.743,0,0,1-2.02.547,3.556,3.556,0,0,1-2.785-1.2A4.575,4.575,0,0,1-39.473,19.8Zm1.453.172a3.616,3.616,0,0,0,.652,2.258,2.088,2.088,0,0,0,1.746.852,2.075,2.075,0,0,0,1.75-.863,3.955,3.955,0,0,0,.648-2.418,3.61,3.61,0,0,0-.66-2.254,2.1,2.1,0,0,0-1.754-.863,2.075,2.075,0,0,0-1.727.852A3.925,3.925,0,0,0-38.02,19.867Zm9.422-4.32.047,1.063a3.08,3.08,0,0,1,2.531-1.219q2.68,0,2.7,3.023V24h-1.445V18.406a1.946,1.946,0,0,0-.418-1.352,1.675,1.675,0,0,0-1.277-.437,2.086,2.086,0,0,0-1.234.375,2.546,2.546,0,0,0-.828.984V24h-1.445V15.547ZM-21.52,19.7a4.993,4.993,0,0,1,.488-2.234,3.643,3.643,0,0,1,1.359-1.531,3.7,3.7,0,0,1,1.988-.539,3.565,3.565,0,0,1,2.793,1.2,4.6,4.6,0,0,1,1.066,3.18v.1a5.036,5.036,0,0,1-.473,2.215,3.589,3.589,0,0,1-1.352,1.527,3.743,3.743,0,0,1-2.02.547,3.556,3.556,0,0,1-2.785-1.2A4.575,4.575,0,0,1-21.52,19.8Zm1.453.172a3.616,3.616,0,0,0,.652,2.258,2.088,2.088,0,0,0,1.746.852,2.075,2.075,0,0,0,1.75-.863A3.955,3.955,0,0,0-15.27,19.7a3.61,3.61,0,0,0-.66-2.254,2.1,2.1,0,0,0-1.754-.863,2.075,2.075,0,0,0-1.727.852A3.925,3.925,0,0,0-20.066,19.867Zm11.445,3.109a2.082,2.082,0,0,0,1.352-.469,1.649,1.649,0,0,0,.641-1.172h1.367a2.621,2.621,0,0,1-.5,1.383,3.293,3.293,0,0,1-1.23,1.047,3.55,3.55,0,0,1-1.629.391A3.482,3.482,0,0,1-11.367,23a4.59,4.59,0,0,1-1.02-3.152v-.242a5.089,5.089,0,0,1,.453-2.2,3.451,3.451,0,0,1,1.3-1.492,3.7,3.7,0,0,1,2-.531,3.39,3.39,0,0,1,2.363.852,3.043,3.043,0,0,1,1,2.211H-6.629a1.992,1.992,0,0,0-.621-1.348,1.932,1.932,0,0,0-1.379-.527,2.023,2.023,0,0,0-1.707.793,3.724,3.724,0,0,0-.605,2.293v.273a3.65,3.65,0,0,0,.6,2.25A2.033,2.033,0,0,0-8.621,22.977ZM-2.066,24H-3.512V15.547h1.445ZM-3.629,13.3a.863.863,0,0,1,.215-.594.807.807,0,0,1,.637-.242.819.819,0,0,1,.641.242.854.854,0,0,1,.219.594.826.826,0,0,1-.219.586.834.834,0,0,1-.641.234.821.821,0,0,1-.637-.234A.834.834,0,0,1-3.629,13.3Zm5.234,2.242.039.938a3.122,3.122,0,0,1,2.508-1.094A2.417,2.417,0,0,1,6.566,16.75a3.2,3.2,0,0,1,1.1-.984,3.242,3.242,0,0,1,1.6-.375q2.781,0,2.828,2.945V24H10.645V18.422a1.941,1.941,0,0,0-.414-1.355,1.823,1.823,0,0,0-1.391-.449A1.916,1.916,0,0,0,7.5,17.1a1.949,1.949,0,0,0-.617,1.293V24H5.434V18.461a1.613,1.613,0,0,0-1.8-1.844,1.934,1.934,0,0,0-1.945,1.211V24H.238V15.547ZM15.84,24H14.395V15.547H15.84ZM14.277,13.3a.863.863,0,0,1,.215-.594.807.807,0,0,1,.637-.242.819.819,0,0,1,.641.242.854.854,0,0,1,.219.594.826.826,0,0,1-.219.586.834.834,0,0,1-.641.234.821.821,0,0,1-.637-.234A.834.834,0,0,1,14.277,13.3ZM21.66,24.156a3.693,3.693,0,0,1-2.8-1.129,4.19,4.19,0,0,1-1.078-3.02v-.266a5.073,5.073,0,0,1,.48-2.246,3.748,3.748,0,0,1,1.344-1.547,3.378,3.378,0,0,1,1.871-.559,3.166,3.166,0,0,1,2.563,1.086,4.7,4.7,0,0,1,.914,3.109v.6H19.23a3,3,0,0,0,.73,2.02,2.3,2.3,0,0,0,1.777.77,2.517,2.517,0,0,0,1.3-.312,3.259,3.259,0,0,0,.93-.828l.883.688A3.55,3.55,0,0,1,21.66,24.156Zm-.18-7.578a1.928,1.928,0,0,0-1.469.637A3.1,3.1,0,0,0,19.277,19h4.234v-.109a2.753,2.753,0,0,0-.594-1.707A1.815,1.815,0,0,0,21.48,16.578ZM28,15.547l.047,1.063a3.08,3.08,0,0,1,2.531-1.219q2.68,0,2.7,3.023V24H31.832V18.406a1.946,1.946,0,0,0-.418-1.352,1.675,1.675,0,0,0-1.277-.437,2.086,2.086,0,0,0-1.234.375,2.546,2.546,0,0,0-.828.984V24H26.629V15.547ZM37.418,13.5v2.047H39v1.117H37.418v5.249a1.173,1.173,0,0,0,.211.763.888.888,0,0,0,.719.254,3.5,3.5,0,0,0,.688-.094V24a4.215,4.215,0,0,1-1.109.155,1.8,1.8,0,0,1-1.461-.586,2.517,2.517,0,0,1-.492-1.664V16.664H34.434V15.547h1.539V13.5Zm2.727,6.2a4.993,4.993,0,0,1,.488-2.234,3.643,3.643,0,0,1,1.359-1.531,3.7,3.7,0,0,1,1.988-.539,3.565,3.565,0,0,1,2.793,1.2,4.6,4.6,0,0,1,1.066,3.18v.1a5.036,5.036,0,0,1-.473,2.215,3.589,3.589,0,0,1-1.352,1.527,3.743,3.743,0,0,1-2.02.547,3.556,3.556,0,0,1-2.785-1.2A4.575,4.575,0,0,1,40.145,19.8Zm1.453.172a3.616,3.616,0,0,0,.652,2.258,2.211,2.211,0,0,0,3.5-.012,3.955,3.955,0,0,0,.648-2.418,3.61,3.61,0,0,0-.66-2.254,2.1,2.1,0,0,0-1.754-.863,2.075,2.075,0,0,0-1.727.852A3.925,3.925,0,0,0,41.6,19.867Z" transform="translate(797.013 4897.955)" fill="#12263f"/>
    <path id="Trazado_801274" data-name="Trazado 801274" d="M1874.8,0a93.351,93.351,0,0,0-93.25,93.25h186.5A93.351,93.351,0,0,0,1874.8,0" transform="translate(-1074.448 4617.747)" fill="#59bee2"/>
    <g id="Grupo_1065294" data-name="Grupo 1065294" transform="translate(707.087 4711.007)">
      <path id="Trazado_801300" data-name="Trazado 801300" d="M833.615,196.5q0,2.188-.1,4.349l2.2.1q.1-2.213.1-4.452Z" transform="translate(-649.301 -196.499)" fill="#12263f"/>
      <path id="Trazado_801301" data-name="Trazado 801301" d="M577.818,380.009c2.783.961,5.649,1.8,8.516,2.486l.513-2.14c-2.8-.673-5.595-1.489-8.312-2.426Z" transform="translate(-514.962 -291.82)" fill="#12263f"/>
      <path id="Trazado_801302" data-name="Trazado 801302" d="M552.036,369.129c2.614,1.347,5.329,2.586,8.071,3.681l.816-2.043c-2.677-1.069-5.327-2.278-7.879-3.593Z" transform="translate(-501.416 -286.17)" fill="#12263f"/>
      <path id="Trazado_801303" data-name="Trazado 801303" d="M613.886,386.177c-2.875-.266-5.76-.675-8.572-1.212l-.412,2.161c2.881.55,5.836.967,8.781,1.242Z" transform="translate(-529.191 -295.518)" fill="#12263f"/>
      <path id="Trazado_801304" data-name="Trazado 801304" d="M528.095,354.732c2.4,1.708,4.911,3.321,7.464,4.794l1.1-1.906c-2.492-1.439-4.944-3.013-7.288-4.68Z" transform="translate(-488.838 -278.692)" fill="#12263f"/>
      <path id="Trazado_801305" data-name="Trazado 801305" d="M448.485,215.143l-2.189.213c.283,2.94.711,5.892,1.27,8.776l2.159-.418c-.544-2.816-.962-5.7-1.24-8.571" transform="translate(-445.861 -206.295)" fill="#12263f"/>
      <path id="Trazado_801306" data-name="Trazado 801306" d="M506.467,337.127c2.136,2.03,4.393,3.983,6.709,5.8l1.36-1.73c-2.262-1.777-4.466-3.683-6.552-5.666Z" transform="translate(-477.475 -269.546)" fill="#12263f"/>
      <path id="Trazado_801307" data-name="Trazado 801307" d="M471.833,293.807c1.477,2.544,3.1,5.051,4.813,7.45l1.79-1.281c-1.676-2.342-3.258-4.789-4.7-7.273Z" transform="translate(-459.278 -247.044)" fill="#12263f"/>
      <path id="Trazado_801308" data-name="Trazado 801308" d="M453.106,242.113l-2.138.522c.7,2.868,1.546,5.73,2.513,8.507l2.078-.724c-.944-2.711-1.769-5.505-2.453-8.305" transform="translate(-448.316 -220.464)" fill="#12263f"/>
      <path id="Trazado_801309" data-name="Trazado 801309" d="M487.59,316.682c1.822,2.308,3.78,4.56,5.82,6.693l1.59-1.522c-1.992-2.083-3.9-4.281-5.682-6.534Z" transform="translate(-467.557 -258.926)" fill="#12263f"/>
      <path id="Trazado_801310" data-name="Trazado 801310" d="M459.538,268.957c1.1,2.728,2.344,5.439,3.7,8.059L465.194,276c-1.327-2.558-2.543-5.206-3.615-7.868Z" transform="translate(-452.819 -234.136)" fill="#12263f"/>
      <path id="Trazado_801311" data-name="Trazado 801311" d="M660.289,386.126l.208,2.192c2.937-.281,5.891-.7,8.779-1.259l-.417-2.162c-2.818.544-5.7.956-8.57,1.229" transform="translate(-558.291 -295.481)" fill="#12263f"/>
      <path id="Trazado_801312" data-name="Trazado 801312" d="M812.442,275.7l1.955,1.01c1.352-2.617,2.594-5.332,3.689-8.067l-2.043-.819c-1.07,2.671-2.282,5.321-3.6,7.876" transform="translate(-638.231 -233.974)" fill="#12263f"/>
      <path id="Trazado_801313" data-name="Trazado 801313" d="M798.179,299.72,799.971,301c1.713-2.4,3.329-4.913,4.8-7.458l-1.9-1.1c-1.439,2.486-3.016,4.935-4.69,7.282" transform="translate(-630.737 -246.905)" fill="#12263f"/>
      <path id="Trazado_801314" data-name="Trazado 801314" d="M830.294,223.343l2.162.415c.553-2.888.974-5.842,1.252-8.78l-2.19-.206c-.272,2.868-.683,5.752-1.224,8.571" transform="translate(-647.61 -206.1)" fill="#12263f"/>
      <path id="Trazado_801315" data-name="Trazado 801315" d="M823.229,250.06l2.08.72c.963-2.781,1.8-5.645,2.5-8.514l-2.138-.518c-.677,2.8-1.5,5.6-2.438,8.311" transform="translate(-643.898 -220.273)" fill="#12263f"/>
      <path id="Trazado_801316" data-name="Trazado 801316" d="M780.744,321.635l1.592,1.519c2.036-2.136,3.991-4.391,5.811-6.7l-1.729-1.36c-1.777,2.257-3.686,4.459-5.674,6.544" transform="translate(-621.577 -258.806)" fill="#12263f"/>
      <path id="Trazado_801317" data-name="Trazado 801317" d="M737.876,357.453l1.1,1.9c2.551-1.476,5.058-3.093,7.455-4.8l-1.279-1.79c-2.34,1.671-4.79,3.249-7.279,4.691" transform="translate(-599.054 -278.598)" fill="#12263f"/>
      <path id="Trazado_801318" data-name="Trazado 801318" d="M713.292,370.632l.821,2.041c2.735-1.1,5.448-2.341,8.062-3.693l-1.01-1.955c-2.553,1.32-5.2,2.533-7.873,3.607" transform="translate(-586.138 -286.092)" fill="#12263f"/>
      <path id="Trazado_801319" data-name="Trazado 801319" d="M687.266,380.248l.518,2.14c2.856-.692,5.719-1.534,8.511-2.5l-.722-2.078c-2.726.945-5.52,1.766-8.307,2.441" transform="translate(-572.465 -291.757)" fill="#12263f"/>
      <path id="Trazado_801320" data-name="Trazado 801320" d="M760.51,341.007l1.362,1.727c2.313-1.822,4.568-3.777,6.7-5.811l-1.519-1.592c-2.081,1.986-4.282,3.9-6.542,5.676" transform="translate(-610.947 -269.44)" fill="#12263f"/>
      <path id="Trazado_801321" data-name="Trazado 801321" d="M447.581,196.5h-2.2q0,2.238.1,4.452l2.2-.1q-.1-2.161-.1-4.349" transform="translate(-445.381 -196.499)" fill="#12263f"/>
      <path id="Trazado_801322" data-name="Trazado 801322" d="M635.966,393.742h2.2v-3.324c1.146-.013,2.29-.028,3.425-.084l-.105-2.2q-2.134.1-4.3.1c-1.472.015-2.919-.03-4.364-.1l-.1,2.2c1.075.051,2.159.06,3.243.074Z" transform="translate(-543.808 -297.184)" fill="#12263f"/>
      <rect id="Rectángulo_374193" data-name="Rectángulo 374193" width="2.2" height="7.25" transform="translate(92.158 111.056)" fill="#12263f"/>
      <rect id="Rectángulo_374194" data-name="Rectángulo 374194" width="2.2" height="7.25" transform="translate(92.158 100.183)" fill="#12263f"/>
      <rect id="Rectángulo_374195" data-name="Rectángulo 374195" width="2.2" height="4.401" transform="translate(92.158 121.929)" fill="#12263f"/>
    </g>
    <path id="Trazado_801399" data-name="Trazado 801399" d="M1970.484,118.533A70.432,70.432,0,1,1,1900.051,48.1a70.433,70.433,0,0,1,70.433,70.433" transform="translate(-1099.703 4592.476)" fill="#f6f6f6"/>
    <g id="Enmascarar_grupo_1064366" data-name="Enmascarar grupo 1064366" transform="translate(732.631 4640.564)" clip-path="url(#clip-path)">
      <g id="gestion-de-proyectos" transform="translate(23.642 23.655)">
        <g id="Grupo_1065297" data-name="Grupo 1065297" transform="translate(0 0.386)">
          <g id="Grupo_1065296" data-name="Grupo 1065296">
            <path id="Trazado_801475" data-name="Trazado 801475" d="M92.249,24.683h0l0,0-6.04-.862a1.553,1.553,0,0,1-.713-2.78l4.882-3.661a1.553,1.553,0,0,0,.311-2.174l-5.59-7.453a1.553,1.553,0,0,0-2.174-.311L78.04,11.1a1.553,1.553,0,0,1-2.475-1.461l.863-6.04a1.553,1.553,0,0,0-1.317-1.758h0L65.893.524a1.553,1.553,0,0,0-1.758,1.316h0l-.863,6.04a1.553,1.553,0,0,1-2.78.713l-3.66-4.882A1.553,1.553,0,0,0,54.658,3.4L49.992,6.9a30.044,30.044,0,0,0-6.351,0A29.5,29.5,0,0,0,17.627,33.358c-.042.439-.057.876-.079,1.312h-.466a1.553,1.553,0,0,0-1.519,1.242l-1.073,5.1-4.3-2.964a1.553,1.553,0,0,0-1.98.18L3.554,42.889a1.553,1.553,0,0,0-.18,1.978l2.95,4.29-5.1,1.073A1.553,1.553,0,0,0,0,51.751v6.211a1.553,1.553,0,0,0,1.233,1.52l5.1,1.073-2.95,4.29a1.553,1.553,0,0,0,.18,1.978l4.658,4.658a1.553,1.553,0,0,0,1.98.18L14.5,68.7l1.073,5.1a1.553,1.553,0,0,0,1.519,1.242H23.3a1.553,1.553,0,0,0,1.52-1.233l1.073-5.1,4.29,2.95a1.553,1.553,0,0,0,1.978-.18l2.411-2.419V73.49a6.191,6.191,0,0,0,3.106,5.348v8.627a6.211,6.211,0,0,0,6.211,6.211H50.1a6.211,6.211,0,0,0,6.211-6.211V78.838a6.191,6.191,0,0,0,3.106-5.348V67.344a7.609,7.609,0,0,1,3.592-6.339,29.8,29.8,0,0,0,3.655-2.8L64.592,55.9a26.434,26.434,0,0,1-3.272,2.5,10.7,10.7,0,0,0-5.009,8.946V73.49A3.105,3.105,0,0,1,53.205,76.6H40.783a3.105,3.105,0,0,1-3.106-3.106V67.215a10.447,10.447,0,0,0-4.925-8.764A26.318,26.318,0,0,1,46.66,9.849a1.689,1.689,0,0,0-.061.169,1.553,1.553,0,0,0,.3,1.151l3.66,4.88a1.52,1.52,0,0,1,.093,1.724,1.544,1.544,0,0,1-1.553.747l-6.04-.863A1.553,1.553,0,0,0,41.3,18.973v0L39.98,28.2A1.553,1.553,0,0,0,41.3,29.954h0l6.04.863a1.553,1.553,0,0,1,.713,2.78l-4.88,3.66a1.553,1.553,0,0,0-.311,2.174l5.59,7.453a1.553,1.553,0,0,0,2.174.311l4.882-3.66A1.553,1.553,0,0,1,57.974,45l-.862,6.04a1.553,1.553,0,0,0,1.316,1.758h0l9.224,1.318a1.72,1.72,0,0,0,.219.014,1.553,1.553,0,0,0,1.539-1.332l.862-6.04a1.553,1.553,0,0,1,2.78-.713l3.661,4.88a1.553,1.553,0,0,0,2.174.311l7.453-5.59a1.553,1.553,0,0,0,.311-2.174l-3.66-4.88a1.526,1.526,0,0,1-.093-1.724,1.508,1.508,0,0,1,1.553-.745l6.04.862a1.553,1.553,0,0,0,1.758-1.316h0l1.317-9.224A1.553,1.553,0,0,0,92.249,24.683ZM40.783,79.7H53.205v3.106H40.783Zm0,6.211H53.205v1.553A3.105,3.105,0,0,1,50.1,90.571H43.888a3.105,3.105,0,0,1-3.106-3.106ZM28.421,59.135a29.35,29.35,0,0,0,2.654,1.933A7.579,7.579,0,0,1,34.2,65.041l-3.331,3.325-3.225-2.224a3.106,3.106,0,0,0-4.8,1.918l-.814,3.877H18.342l-.814-3.871a3.106,3.106,0,0,0-4.8-1.918L9.5,68.366,6.671,65.543l2.222-3.224a3.106,3.106,0,0,0-1.916-4.8L3.106,56.7V53.012L6.977,52.2A3.106,3.106,0,0,0,8.894,47.4L6.671,44.17,9.5,41.347l3.228,2.224a3.106,3.106,0,0,0,4.8-1.919L17.8,40.36a29.571,29.571,0,0,0,1.231,5.266,9.317,9.317,0,1,0,9.39,13.509Zm-2.411-2.188a6.2,6.2,0,1,1-5.823-8.3h.059A29.409,29.409,0,0,0,26.009,56.947ZM89.385,33.683l-4.5-.643A4.658,4.658,0,0,0,80.5,40.447l2.728,3.638-4.969,3.727-2.73-3.637a4.658,4.658,0,0,0-8.339,2.135l-.629,4.509-6.148-.879.643-4.5a4.658,4.658,0,0,0-7.407-4.387l-3.638,2.728L46.283,38.81l3.637-2.73a4.658,4.658,0,0,0-2.135-8.339l-4.5-.643.879-6.148,4.5.643a4.658,4.658,0,0,0,4.387-7.407l-2.738-3.641,4.969-3.727,2.73,3.638a4.658,4.658,0,0,0,8.339-2.135l.643-4.5L73.14,4.7,72.5,9.2A4.658,4.658,0,0,0,79.9,13.585l3.638-2.728,3.727,4.969-3.638,2.73a4.658,4.658,0,0,0,2.135,8.339l4.5.643Z" transform="translate(0 -0.508)" fill="#12263f"/>
          </g>
        </g>
        <g id="Grupo_1065299" data-name="Grupo 1065299" transform="translate(54.348 14.772)">
          <g id="Grupo_1065298" data-name="Grupo 1065298">
            <path id="Trazado_801476" data-name="Trazado 801476" d="M81.629,18.827A12.422,12.422,0,1,0,94.051,31.249,12.422,12.422,0,0,0,81.629,18.827Zm0,21.739a9.317,9.317,0,1,1,9.317-9.317A9.317,9.317,0,0,1,81.629,40.566Z" transform="translate(-69.206 -18.827)" fill="#12263f"/>
          </g>
        </g>
        <g id="Grupo_1065301" data-name="Grupo 1065301" transform="translate(45.441 68.71)">
          <g id="Grupo_1065300" data-name="Grupo 1065300">
            <rect id="Rectángulo_374196" data-name="Rectángulo 374196" width="3.106" height="4.658" fill="#12263f"/>
          </g>
        </g>
        <g id="Grupo_1065303" data-name="Grupo 1065303" transform="translate(25.242 17.707)">
          <g id="Grupo_1065302" data-name="Grupo 1065302">
            <path id="Trazado_801477" data-name="Trazado 801477" d="M47.1,58.317a18.634,18.634,0,0,1-3.146-33.126L42.3,22.564a21.739,21.739,0,0,0,3.679,38.643,9.913,9.913,0,0,1,6.366,9.255h3.106A12.992,12.992,0,0,0,47.1,58.317Z" transform="translate(-32.143 -22.564)" fill="#12263f"/>
          </g>
        </g>
        <g id="Grupo_1065305" data-name="Grupo 1065305" transform="translate(76.497 57.84)">
          <g id="Grupo_1065304" data-name="Grupo 1065304">
            <rect id="Rectángulo_374197" data-name="Rectángulo 374197" width="10.87" height="3.106" fill="#12263f"/>
          </g>
        </g>
        <g id="Grupo_1065307" data-name="Grupo 1065307" transform="translate(73.951 65.963)">
          <g id="Grupo_1065306" data-name="Grupo 1065306" transform="translate(0 0)">
            <rect id="Rectángulo_374198" data-name="Rectángulo 374198" width="3.106" height="12.127" transform="translate(0 2.386) rotate(-50.201)" fill="#12263f"/>
          </g>
        </g>
        <g id="Grupo_1065309" data-name="Grupo 1065309" transform="translate(67.18 70.263)">
          <g id="Grupo_1065308" data-name="Grupo 1065308">
            <rect id="Rectángulo_374199" data-name="Rectángulo 374199" width="3.106" height="10.87" fill="#12263f"/>
          </g>
        </g>
        <g id="Grupo_1065311" data-name="Grupo 1065311" transform="translate(1.586 23.724)">
          <g id="Grupo_1065310" data-name="Grupo 1065310" transform="translate(0 0)">
            <rect id="Rectángulo_374200" data-name="Rectángulo 374200" width="12.804" height="3.104" transform="translate(0 3.105) rotate(-14.035)" fill="#12263f"/>
          </g>
        </g>
        <g id="Grupo_1065313" data-name="Grupo 1065313" transform="translate(4.165 8.442)">
          <g id="Grupo_1065312" data-name="Grupo 1065312" transform="translate(0 0)">
            <rect id="Rectángulo_374201" data-name="Rectángulo 374201" width="3.104" height="13.357" transform="matrix(0.581, -0.814, 0.814, 0.581, 0, 2.526)" fill="#12263f"/>
          </g>
        </g>
        <g id="Grupo_1065315" data-name="Grupo 1065315" transform="translate(17.47 0)">
          <g id="Grupo_1065314" data-name="Grupo 1065314" transform="translate(0 0)">
            <rect id="Rectángulo_374202" data-name="Rectángulo 374202" width="3.105" height="12.821" transform="translate(0 0.769) rotate(-14.342)" fill="#12263f"/>
          </g>
        </g>
      </g>
    </g>
    <path id="Trazado_801492" data-name="Trazado 801492" d="M187.053,462.675a16.591,16.591,0,1,0,16.59,16.591,16.591,16.591,0,0,0-16.59-16.591" transform="translate(613.3 4370.425)" fill="#12263f"/>
    <path id="Trazado_801806" data-name="Trazado 801806" d="M-3.916-6.293l.738-6.5H3.995v2.118H-1.094l-.316,2.751A4.027,4.027,0,0,1,.514-8.411,3.689,3.689,0,0,1,3.379-7.277,4.529,4.529,0,0,1,4.417-4.1a4.64,4.64,0,0,1-.523,2.219A3.691,3.691,0,0,1,2.4-.365a4.678,4.678,0,0,1-2.3.541,4.968,4.968,0,0,1-2.153-.47A3.819,3.819,0,0,1-3.63-1.617,3.605,3.605,0,0,1-4.241-3.56h2.514a1.878,1.878,0,0,0,.558,1.244,1.769,1.769,0,0,0,1.252.444,1.562,1.562,0,0,0,1.327-.62,2.87,2.87,0,0,0,.466-1.753,2.374,2.374,0,0,0-.536-1.67A1.967,1.967,0,0,0-.18-6.5a2.2,2.2,0,0,0-1.468.475l-.246.229Z" transform="translate(799.234 4855.254)" fill="#fff"/>
  </g>
</svg>
