<svg xmlns="http://www.w3.org/2000/svg" xmlns:xlink="http://www.w3.org/1999/xlink" width="76.999" height="76.999" viewBox="0 0 76.999 76.999">
  <defs>
    <clipPath id="clip-path">
      <circle id="Elipse_8291" data-name="Elipse 8291" cx="38.5" cy="38.5" r="38.5" transform="translate(331 1539)" fill="#59bee2"/>
    </clipPath>
  </defs>
  <g id="Grupo_1065530" data-name="Grupo 1065530" transform="translate(-331 -1539)">
    <g id="Enmascarar_grupo_1064343" data-name="Enmascarar grupo 1064343" clip-path="url(#clip-path)">
      <path id="colaboracion" d="M61.469,47.207a.718.718,0,0,1-.714.716H60.33V39.079a1.692,1.692,0,0,0-1.691-1.692H57.186a3.152,3.152,0,0,0-3.153,3.15v7.387H38.959V41.211a5.065,5.065,0,1,0,0-9.083V25.416H47.72a.984.984,0,0,0,.6-1.762,3.1,3.1,0,1,1,3.781,0,.984.984,0,0,0,.6,1.762h8.761V47.207Zm-3.1,2.5V39.353H57.186A1.189,1.189,0,0,0,56,40.537v8.371a.953.953,0,0,1-.17.554.973.973,0,0,1-.569.4A6.126,6.126,0,0,0,52.1,51.51a.971.971,0,0,1-.68.272.985.985,0,0,1-.68-1.7c.076-.067.144-.131.221-.2H41.44l-.348.724a2.124,2.124,0,0,0,.408,2.268l.824,1.037h.008L55.07,57.578l2.311-4.121a7.268,7.268,0,0,0,.986-3.752ZM55.053,59.924l-2.014,7.025a.29.29,0,0,1-.357.2L39.613,63.4a.3.3,0,0,1-.2-.36l2.022-7.025a.288.288,0,0,1,.357-.2l13.069,3.752a.293.293,0,0,1,.2.36ZM25.737,40.616a5.077,5.077,0,0,1,4.546,7.308H37V39.162a.983.983,0,0,1,1.759-.6,3.1,3.1,0,1,0,0-3.781.983.983,0,0,1-1.759-.6V25.416H21.921V32.8a3.153,3.153,0,0,1-3.153,3.15H17.316a1.7,1.7,0,0,1-1.7-1.692V25.417H15.2a.718.718,0,0,0-.714.716V47.924H21.2A5.069,5.069,0,0,1,25.737,40.616Zm-8.149-16.98a7.347,7.347,0,0,1,.977-3.752l2.32-4.121,12.738,3.657.008,0,.824,1.037a2.342,2.342,0,0,1,.374,2.354l-.238.637h-9.6c.076-.065.144-.127.221-.2a.984.984,0,0,0-1.36-1.423A6.109,6.109,0,0,1,20.7,23.48a1.014,1.014,0,0,0-.442.243l-.153.184a1.2,1.2,0,0,0-.153.527V32.8a1.181,1.181,0,0,1-1.181,1.183H17.588V23.636Zm3.305-10.22a.3.3,0,0,0,.2.36l13.069,3.752a.288.288,0,0,0,.357-.2L36.546,10.3a.3.3,0,0,0-.2-.36L23.272,6.192a.29.29,0,0,0-.357.2ZM61.741,23.449H54.756a5.065,5.065,0,1,0-9.084,0H36.69a4.3,4.3,0,0,0-.7-4.217l-.238-.3a2.235,2.235,0,0,0,.663-1.057l2.014-7.024a2.255,2.255,0,0,0-1.547-2.794L23.816,4.3a2.265,2.265,0,0,0-2.8,1.547l-2.014,7.025a2.242,2.242,0,0,0,.2,1.716.32.32,0,0,1,.042.072L16.857,18.92a9.171,9.171,0,0,0-1.232,4.529H15.2a2.689,2.689,0,0,0-2.685,2.684V48.2a1.7,1.7,0,0,0,1.7,1.692h9.033a.984.984,0,0,0,.6-1.762,3.1,3.1,0,1,1,3.781,0,.984.984,0,0,0,.6,1.762H39.256a4.085,4.085,0,0,0,.705,4.217l.238.3a2.236,2.236,0,0,0-.663,1.056l-2.014,7.025a2.256,2.256,0,0,0,1.547,2.794l13.069,3.752a2.265,2.265,0,0,0,2.8-1.547l2.014-7.025a2.289,2.289,0,0,0-.238-1.79L59.1,54.421a9.172,9.172,0,0,0,1.232-4.53h.425a2.682,2.682,0,0,0,2.677-2.684V25.141A1.692,1.692,0,0,0,61.741,23.449Z" transform="translate(331.526 1540.829)" fill="#12263f" fill-rule="evenodd"/>
    </g>
  </g>
</svg>
