<svg xmlns="http://www.w3.org/2000/svg" width="186.514" height="303.364" viewBox="0 0 186.514 303.364">
  <g id="Grupo_1065527" data-name="Grupo 1065527" transform="translate(-918.486 -4270.85)">
    <path id="Trazado_801801" data-name="Trazado 801801" d="M-31.668-2.977h-4.766L-37.5,0h-1.547l4.344-11.375h1.313L-29.043,0h-1.539ZM-35.98-4.2h3.867l-1.937-5.32Zm10.07-6.3v2.047h1.578v1.117H-25.91v5.249a1.173,1.173,0,0,0,.211.763.888.888,0,0,0,.719.254,3.5,3.5,0,0,0,.688-.094V0A4.215,4.215,0,0,1-25.4.156,1.8,1.8,0,0,1-26.863-.43a2.517,2.517,0,0,1-.492-1.664V-7.336h-1.539V-8.453h1.539V-10.5ZM-19.137.156a3.693,3.693,0,0,1-2.8-1.129,4.19,4.19,0,0,1-1.078-3.02v-.266a5.073,5.073,0,0,1,.48-2.246,3.748,3.748,0,0,1,1.344-1.547,3.378,3.378,0,0,1,1.871-.559,3.166,3.166,0,0,1,2.563,1.086,4.7,4.7,0,0,1,.914,3.109v.6h-5.727a3,3,0,0,0,.73,2.02,2.3,2.3,0,0,0,1.777.77,2.517,2.517,0,0,0,1.3-.312,3.259,3.259,0,0,0,.93-.828l.883.688A3.55,3.55,0,0,1-19.137.156Zm-.18-7.578a1.928,1.928,0,0,0-1.469.637A3.1,3.1,0,0,0-21.52-5h4.234v-.109a2.753,2.753,0,0,0-.594-1.707A1.815,1.815,0,0,0-19.316-7.422ZM-12.8-8.453l.047,1.063a3.08,3.08,0,0,1,2.531-1.219q2.68,0,2.7,3.023V0H-8.965V-5.594a1.946,1.946,0,0,0-.418-1.352,1.675,1.675,0,0,0-1.277-.437,2.086,2.086,0,0,0-1.234.375,2.546,2.546,0,0,0-.828.984V0h-1.445V-8.453Zm10.852,7.43A2.082,2.082,0,0,0-.6-1.492,1.649,1.649,0,0,0,.043-2.664H1.41a2.621,2.621,0,0,1-.5,1.383A3.293,3.293,0,0,1-.32-.234,3.55,3.55,0,0,1-1.949.156,3.482,3.482,0,0,1-4.7-1a4.59,4.59,0,0,1-1.02-3.152v-.242a5.089,5.089,0,0,1,.453-2.2,3.451,3.451,0,0,1,1.3-1.492,3.7,3.7,0,0,1,2-.531,3.39,3.39,0,0,1,2.363.852,3.043,3.043,0,0,1,1,2.211H.043A1.992,1.992,0,0,0-.578-6.895a1.932,1.932,0,0,0-1.379-.527,2.023,2.023,0,0,0-1.707.793A3.724,3.724,0,0,0-4.27-4.336v.273a3.65,3.65,0,0,0,.6,2.25A2.033,2.033,0,0,0-1.949-1.023ZM4.605,0H3.16V-8.453H4.605ZM3.043-10.7a.863.863,0,0,1,.215-.594.807.807,0,0,1,.637-.242.819.819,0,0,1,.641.242.854.854,0,0,1,.219.594.826.826,0,0,1-.219.586.834.834,0,0,1-.641.234.821.821,0,0,1-.637-.234A.834.834,0,0,1,3.043-10.7ZM6.535-4.3a4.993,4.993,0,0,1,.488-2.234A3.643,3.643,0,0,1,8.383-8.07a3.7,3.7,0,0,1,1.988-.539,3.565,3.565,0,0,1,2.793,1.2,4.6,4.6,0,0,1,1.066,3.18v.1a5.036,5.036,0,0,1-.473,2.215A3.589,3.589,0,0,1,12.406-.391a3.743,3.743,0,0,1-2.02.547A3.556,3.556,0,0,1,7.6-1.039,4.575,4.575,0,0,1,6.535-4.2Zm1.453.172a3.616,3.616,0,0,0,.652,2.258,2.088,2.088,0,0,0,1.746.852,2.075,2.075,0,0,0,1.75-.863A3.955,3.955,0,0,0,12.785-4.3a3.61,3.61,0,0,0-.66-2.254,2.1,2.1,0,0,0-1.754-.863,2.075,2.075,0,0,0-1.727.852A3.925,3.925,0,0,0,7.988-4.133ZM11.027-12h1.75L10.684-9.7l-1.164,0ZM17.41-8.453l.047,1.063a3.08,3.08,0,0,1,2.531-1.219q2.68,0,2.7,3.023V0H21.246V-5.594a1.946,1.946,0,0,0-.418-1.352,1.675,1.675,0,0,0-1.277-.437,2.086,2.086,0,0,0-1.234.375,2.546,2.546,0,0,0-.828.984V0H16.043V-8.453ZM31.6-2.117l1.969-6.336h1.547L31.715,1.3q-.789,2.109-2.508,2.109l-.273-.023-.539-.1V2.117l.391.031a1.923,1.923,0,0,0,1.145-.3A2.148,2.148,0,0,0,30.605.766l.32-.859L27.91-8.453h1.578Zm-74.43,18.961a4.331,4.331,0,0,0-.711-.055A1.9,1.9,0,0,0-45.473,18v6h-1.445V15.547h1.406l.023.977a2.251,2.251,0,0,1,2.016-1.133,1.477,1.477,0,0,1,.641.109Zm4.688,7.313a3.693,3.693,0,0,1-2.8-1.129,4.19,4.19,0,0,1-1.078-3.02v-.266a5.073,5.073,0,0,1,.48-2.246A3.748,3.748,0,0,1-40.2,15.949a3.378,3.378,0,0,1,1.871-.559,3.166,3.166,0,0,1,2.563,1.086,4.7,4.7,0,0,1,.914,3.109v.6h-5.727a3,3,0,0,0,.73,2.02,2.3,2.3,0,0,0,1.777.77,2.517,2.517,0,0,0,1.3-.312,3.259,3.259,0,0,0,.93-.828l.883.688A3.55,3.55,0,0,1-38.145,24.156Zm-.18-7.578a1.928,1.928,0,0,0-1.469.637A3.1,3.1,0,0,0-40.527,19h4.234v-.109a2.753,2.753,0,0,0-.594-1.707A1.815,1.815,0,0,0-38.324,16.578Zm6.594-.008a3.073,3.073,0,0,1,2.5-1.18q2.68,0,2.7,3.023V24h-1.445V18.406a1.946,1.946,0,0,0-.418-1.352,1.675,1.675,0,0,0-1.277-.437,2.086,2.086,0,0,0-1.234.375,2.546,2.546,0,0,0-.828.984V24h-1.445V12h1.445ZM-19.145,24a3.036,3.036,0,0,1-.2-.891,3.225,3.225,0,0,1-2.406,1.047,2.984,2.984,0,0,1-2.051-.707,2.287,2.287,0,0,1-.8-1.793,2.39,2.39,0,0,1,1-2.051,4.733,4.733,0,0,1,2.824-.73h1.406v-.664A1.623,1.623,0,0,0-19.824,17a1.821,1.821,0,0,0-1.336-.449,2.108,2.108,0,0,0-1.3.391,1.151,1.151,0,0,0-.523.945h-1.453a2,2,0,0,1,.449-1.223,3.066,3.066,0,0,1,1.219-.934,4.1,4.1,0,0,1,1.691-.344,3.342,3.342,0,0,1,2.289.73,2.635,2.635,0,0,1,.859,2.012v3.891a4.757,4.757,0,0,0,.3,1.852V24Zm-2.4-1.1a2.54,2.54,0,0,0,1.289-.352,2.127,2.127,0,0,0,.883-.914V19.9H-20.5q-2.656,0-2.656,1.555a1.316,1.316,0,0,0,.453,1.063A1.742,1.742,0,0,0-21.543,22.9ZM-8.5,19.867a5.026,5.026,0,0,1-.891,3.113,2.846,2.846,0,0,1-2.391,1.176,2.947,2.947,0,0,1-2.477-1.133l-.07.977H-15.66V12h1.445v4.477A2.93,2.93,0,0,1-11.8,15.391a2.863,2.863,0,0,1,2.418,1.164A5.177,5.177,0,0,1-8.5,19.742ZM-9.949,19.7a3.906,3.906,0,0,0-.57-2.281,1.888,1.888,0,0,0-1.641-.8,2.122,2.122,0,0,0-2.055,1.328V21.6a2.181,2.181,0,0,0,2.07,1.328,1.878,1.878,0,0,0,1.617-.8A4.153,4.153,0,0,0-9.949,19.7ZM-5.113,24H-6.559V15.547h1.445ZM-6.676,13.3a.863.863,0,0,1,.215-.594.807.807,0,0,1,.637-.242.819.819,0,0,1,.641.242.854.854,0,0,1,.219.594.826.826,0,0,1-.219.586.834.834,0,0,1-.641.234.821.821,0,0,1-.637-.234A.834.834,0,0,1-6.676,13.3ZM-1.23,24H-2.676V12H-1.23Zm3.883,0H1.207V15.547H2.652ZM1.09,13.3a.863.863,0,0,1,.215-.594.807.807,0,0,1,.637-.242.819.819,0,0,1,.641.242A.854.854,0,0,1,2.8,13.3a.826.826,0,0,1-.219.586.834.834,0,0,1-.641.234.821.821,0,0,1-.637-.234A.834.834,0,0,1,1.09,13.3Zm5.836.2v2.047H8.5v1.117H6.926v5.249a1.173,1.173,0,0,0,.211.763.888.888,0,0,0,.719.254,3.5,3.5,0,0,0,.688-.094V24a4.215,4.215,0,0,1-1.109.155,1.8,1.8,0,0,1-1.461-.586,2.517,2.517,0,0,1-.492-1.664V16.664H3.941V15.547H5.48V13.5ZM15.41,24a3.036,3.036,0,0,1-.2-.891A3.225,3.225,0,0,1,12.8,24.156a2.984,2.984,0,0,1-2.051-.707,2.287,2.287,0,0,1-.8-1.793,2.39,2.39,0,0,1,1-2.051,4.733,4.733,0,0,1,2.824-.73h1.406v-.664A1.623,1.623,0,0,0,14.73,17a1.821,1.821,0,0,0-1.336-.449,2.108,2.108,0,0,0-1.3.391,1.151,1.151,0,0,0-.523.945H10.121a2,2,0,0,1,.449-1.223,3.066,3.066,0,0,1,1.219-.934,4.1,4.1,0,0,1,1.691-.344,3.342,3.342,0,0,1,2.289.73,2.635,2.635,0,0,1,.859,2.012v3.891a4.757,4.757,0,0,0,.3,1.852V24Zm-2.4-1.1a2.54,2.54,0,0,0,1.289-.352,2.127,2.127,0,0,0,.883-.914V19.9H14.051q-2.656,0-2.656,1.555a1.316,1.316,0,0,0,.453,1.063A1.742,1.742,0,0,0,13.012,22.9Zm9.273.078a2.082,2.082,0,0,0,1.352-.469,1.649,1.649,0,0,0,.641-1.172h1.367a2.621,2.621,0,0,1-.5,1.383,3.293,3.293,0,0,1-1.23,1.047,3.55,3.55,0,0,1-1.629.391A3.482,3.482,0,0,1,19.539,23a4.59,4.59,0,0,1-1.02-3.152v-.242a5.089,5.089,0,0,1,.453-2.2,3.451,3.451,0,0,1,1.3-1.492,3.7,3.7,0,0,1,2-.531,3.39,3.39,0,0,1,2.363.852,3.043,3.043,0,0,1,1,2.211H24.277a1.992,1.992,0,0,0-.621-1.348,1.932,1.932,0,0,0-1.379-.527,2.023,2.023,0,0,0-1.707.793,3.724,3.724,0,0,0-.605,2.293v.273a3.65,3.65,0,0,0,.6,2.25A2.033,2.033,0,0,0,22.285,22.977ZM28.84,24H27.395V15.547H28.84ZM27.277,13.3a.863.863,0,0,1,.215-.594.807.807,0,0,1,.637-.242.819.819,0,0,1,.641.242.854.854,0,0,1,.219.594.826.826,0,0,1-.219.586.834.834,0,0,1-.641.234.821.821,0,0,1-.637-.234A.834.834,0,0,1,27.277,13.3ZM30.77,19.7a4.993,4.993,0,0,1,.488-2.234,3.643,3.643,0,0,1,1.359-1.531,3.7,3.7,0,0,1,1.988-.539,3.565,3.565,0,0,1,2.793,1.2,4.6,4.6,0,0,1,1.066,3.18v.1a5.036,5.036,0,0,1-.473,2.215,3.589,3.589,0,0,1-1.352,1.527,3.743,3.743,0,0,1-2.02.547,3.556,3.556,0,0,1-2.785-1.2A4.575,4.575,0,0,1,30.77,19.8Zm1.453.172a3.616,3.616,0,0,0,.652,2.258,2.211,2.211,0,0,0,3.5-.012A3.955,3.955,0,0,0,37.02,19.7a3.61,3.61,0,0,0-.66-2.254,2.1,2.1,0,0,0-1.754-.863,2.075,2.075,0,0,0-1.727.852A3.925,3.925,0,0,0,32.223,19.867ZM35.262,12h1.75l-2.094,2.3-1.164,0Zm6.383,3.547.047,1.063a3.08,3.08,0,0,1,2.531-1.219q2.68,0,2.7,3.023V24H45.48V18.406a1.946,1.946,0,0,0-.418-1.352,1.675,1.675,0,0,0-1.277-.437,2.086,2.086,0,0,0-1.234.375,2.546,2.546,0,0,0-.828.984V24H40.277V15.547Z" transform="translate(1007.001 4550.058)" fill="#12263f"/>
    <path id="Trazado_801272" data-name="Trazado 801272" d="M984.036,0a93.351,93.351,0,0,0-93.25,93.25h186.5A93.351,93.351,0,0,0,984.036,0" transform="translate(27.7 4270.85)" fill="#288640"/>
    <g id="Grupo_1065292" data-name="Grupo 1065292" transform="translate(918.486 4364.11)">
      <path id="Trazado_801300" data-name="Trazado 801300" d="M833.615,196.5q0,2.188-.1,4.349l2.2.1q.1-2.213.1-4.452Z" transform="translate(-649.301 -196.499)" fill="#12263f"/>
      <path id="Trazado_801301" data-name="Trazado 801301" d="M577.818,380.009c2.783.961,5.649,1.8,8.516,2.486l.513-2.14c-2.8-.673-5.595-1.489-8.312-2.426Z" transform="translate(-514.962 -291.82)" fill="#12263f"/>
      <path id="Trazado_801302" data-name="Trazado 801302" d="M552.036,369.129c2.614,1.347,5.329,2.586,8.071,3.681l.816-2.043c-2.677-1.069-5.327-2.278-7.879-3.593Z" transform="translate(-501.416 -286.17)" fill="#12263f"/>
      <path id="Trazado_801303" data-name="Trazado 801303" d="M613.886,386.177c-2.875-.266-5.76-.675-8.572-1.212l-.412,2.161c2.881.55,5.836.967,8.781,1.242Z" transform="translate(-529.191 -295.518)" fill="#12263f"/>
      <path id="Trazado_801304" data-name="Trazado 801304" d="M528.095,354.732c2.4,1.708,4.911,3.321,7.464,4.794l1.1-1.906c-2.492-1.439-4.944-3.013-7.288-4.68Z" transform="translate(-488.838 -278.692)" fill="#12263f"/>
      <path id="Trazado_801305" data-name="Trazado 801305" d="M448.485,215.143l-2.189.213c.283,2.94.711,5.892,1.27,8.776l2.159-.418c-.544-2.816-.962-5.7-1.24-8.571" transform="translate(-445.861 -206.295)" fill="#12263f"/>
      <path id="Trazado_801306" data-name="Trazado 801306" d="M506.467,337.127c2.136,2.03,4.393,3.983,6.709,5.8l1.36-1.73c-2.262-1.777-4.466-3.683-6.552-5.666Z" transform="translate(-477.475 -269.546)" fill="#12263f"/>
      <path id="Trazado_801307" data-name="Trazado 801307" d="M471.833,293.807c1.477,2.544,3.1,5.051,4.813,7.45l1.79-1.281c-1.676-2.342-3.258-4.789-4.7-7.273Z" transform="translate(-459.278 -247.044)" fill="#12263f"/>
      <path id="Trazado_801308" data-name="Trazado 801308" d="M453.106,242.113l-2.138.522c.7,2.868,1.546,5.73,2.513,8.507l2.078-.724c-.944-2.711-1.769-5.505-2.453-8.305" transform="translate(-448.316 -220.464)" fill="#12263f"/>
      <path id="Trazado_801309" data-name="Trazado 801309" d="M487.59,316.682c1.822,2.308,3.78,4.56,5.82,6.693l1.59-1.522c-1.992-2.083-3.9-4.281-5.682-6.534Z" transform="translate(-467.557 -258.926)" fill="#12263f"/>
      <path id="Trazado_801310" data-name="Trazado 801310" d="M459.538,268.957c1.1,2.728,2.344,5.439,3.7,8.059L465.194,276c-1.327-2.558-2.543-5.206-3.615-7.868Z" transform="translate(-452.819 -234.136)" fill="#12263f"/>
      <path id="Trazado_801311" data-name="Trazado 801311" d="M660.289,386.126l.208,2.192c2.937-.281,5.891-.7,8.779-1.259l-.417-2.162c-2.818.544-5.7.956-8.57,1.229" transform="translate(-558.291 -295.481)" fill="#12263f"/>
      <path id="Trazado_801312" data-name="Trazado 801312" d="M812.442,275.7l1.955,1.01c1.352-2.617,2.594-5.332,3.689-8.067l-2.043-.819c-1.07,2.671-2.282,5.321-3.6,7.876" transform="translate(-638.231 -233.974)" fill="#12263f"/>
      <path id="Trazado_801313" data-name="Trazado 801313" d="M798.179,299.72,799.971,301c1.713-2.4,3.329-4.913,4.8-7.458l-1.9-1.1c-1.439,2.486-3.016,4.935-4.69,7.282" transform="translate(-630.737 -246.905)" fill="#12263f"/>
      <path id="Trazado_801314" data-name="Trazado 801314" d="M830.294,223.343l2.162.415c.553-2.888.974-5.842,1.252-8.78l-2.19-.206c-.272,2.868-.683,5.752-1.224,8.571" transform="translate(-647.61 -206.1)" fill="#12263f"/>
      <path id="Trazado_801315" data-name="Trazado 801315" d="M823.229,250.06l2.08.72c.963-2.781,1.8-5.645,2.5-8.514l-2.138-.518c-.677,2.8-1.5,5.6-2.438,8.311" transform="translate(-643.898 -220.273)" fill="#12263f"/>
      <path id="Trazado_801316" data-name="Trazado 801316" d="M780.744,321.635l1.592,1.519c2.036-2.136,3.991-4.391,5.811-6.7l-1.729-1.36c-1.777,2.257-3.686,4.459-5.674,6.544" transform="translate(-621.577 -258.806)" fill="#12263f"/>
      <path id="Trazado_801317" data-name="Trazado 801317" d="M737.876,357.453l1.1,1.9c2.551-1.476,5.058-3.093,7.455-4.8l-1.279-1.79c-2.34,1.671-4.79,3.249-7.279,4.691" transform="translate(-599.054 -278.598)" fill="#12263f"/>
      <path id="Trazado_801318" data-name="Trazado 801318" d="M713.292,370.632l.821,2.041c2.735-1.1,5.448-2.341,8.062-3.693l-1.01-1.955c-2.553,1.32-5.2,2.533-7.873,3.607" transform="translate(-586.138 -286.092)" fill="#12263f"/>
      <path id="Trazado_801319" data-name="Trazado 801319" d="M687.266,380.248l.518,2.14c2.856-.692,5.719-1.534,8.511-2.5l-.722-2.078c-2.726.945-5.52,1.766-8.307,2.441" transform="translate(-572.465 -291.757)" fill="#12263f"/>
      <path id="Trazado_801320" data-name="Trazado 801320" d="M760.51,341.007l1.362,1.727c2.313-1.822,4.568-3.777,6.7-5.811l-1.519-1.592c-2.081,1.986-4.282,3.9-6.542,5.676" transform="translate(-610.947 -269.44)" fill="#12263f"/>
      <path id="Trazado_801321" data-name="Trazado 801321" d="M447.581,196.5h-2.2q0,2.238.1,4.452l2.2-.1q-.1-2.161-.1-4.349" transform="translate(-445.381 -196.499)" fill="#12263f"/>
      <path id="Trazado_801322" data-name="Trazado 801322" d="M635.966,393.742h2.2v-3.324c1.146-.013,2.29-.028,3.425-.084l-.105-2.2q-2.134.1-4.3.1c-1.472.015-2.919-.03-4.364-.1l-.1,2.2c1.075.051,2.159.06,3.243.074Z" transform="translate(-543.808 -297.184)" fill="#12263f"/>
      <rect id="Rectángulo_374193" data-name="Rectángulo 374193" width="2.2" height="7.25" transform="translate(92.158 111.056)" fill="#12263f"/>
      <rect id="Rectángulo_374194" data-name="Rectángulo 374194" width="2.2" height="7.25" transform="translate(92.158 100.183)" fill="#12263f"/>
      <rect id="Rectángulo_374195" data-name="Rectángulo 374195" width="2.2" height="4.401" transform="translate(92.158 121.929)" fill="#12263f"/>
    </g>
    <path id="Trazado_801397" data-name="Trazado 801397" d="M1079.72,118.533A70.432,70.432,0,1,1,1009.288,48.1a70.433,70.433,0,0,1,70.432,70.433" transform="translate(2.445 4245.579)" fill="#f6f6f6"/>
    <g id="rehabilitacion" transform="translate(971.362 4313.329)">
      <path id="Trazado_801458" data-name="Trazado 801458" d="M46.164,33.317a20.648,20.648,0,0,1-11.3-5.925,1.481,1.481,0,0,0-2.1,0,20.648,20.648,0,0,1-11.3,5.925l-1.229.193a1.481,1.481,0,0,0-1.215,1.629A27.817,27.817,0,0,0,30.7,54.72l2.237,1.644a1.482,1.482,0,0,0,1.777-.03l2.8-2.163a27.906,27.906,0,0,0,11.109-19h0a1.481,1.481,0,0,0-1.215-1.644ZM35.692,51.832l-1.911,1.481-1.333-.992a25,25,0,0,1-10.294-16.13A23.581,23.581,0,0,0,33.81,30.547a23.581,23.581,0,0,0,11.657,5.643A25.18,25.18,0,0,1,35.692,51.832Z" transform="translate(7.663 11.554)" fill="#12263f"/>
      <path id="Trazado_801459" data-name="Trazado 801459" d="M27.678,37.185,25.59,39.273l3.14,3.14a1.481,1.481,0,0,0,2.1,0l6.28-6.28L35.085,34l-5.243,5.229Z" transform="translate(10.833 14.945)" fill="#12263f"/>
      <path id="Trazado_801460" data-name="Trazado 801460" d="M24.726,14.8l.755,7.554a5.925,5.925,0,0,0,5.925,5.332H36.68l2.681,6.488a1.481,1.481,0,0,0,1.363.918h4.444a1.489,1.489,0,0,0,1.392-2L42.441,22.2a2.962,2.962,0,0,0-2.77-1.926h-1.94V14.352a4.444,4.444,0,0,0-3.259-4.266,5.184,5.184,0,1,0-6.725,0,4.266,4.266,0,0,0-1.881,1.3A4.444,4.444,0,0,0,24.726,14.8Zm6.34-10.813a2.222,2.222,0,1,1-2.222,2.222A2.222,2.222,0,0,1,31.066,3.984ZM28.1,13.36a1.481,1.481,0,0,1,1.052-.489h4.133a1.481,1.481,0,0,1,1.481,1.481v7.406a1.481,1.481,0,0,0,1.481,1.481h3.422L43,32.126H41.686l-2.681-6.488a1.481,1.481,0,0,0-1.363-.918H31.377a2.962,2.962,0,0,1-2.962-2.666l-.77-7.554A1.481,1.481,0,0,1,28.1,13.36Z" transform="translate(10.408 -0.956)" fill="#12263f"/>
      <path id="Trazado_801461" data-name="Trazado 801461" d="M25.894,12.185,24.916,9.4a10.368,10.368,0,0,0,3.451,20.144A10.265,10.265,0,0,0,34.1,27.811l-1.644-2.459a7.406,7.406,0,1,1-6.562-13.168Z" transform="translate(7.181 3.107)" fill="#12263f"/>
      <path id="Trazado_801462" data-name="Trazado 801462" d="M1.815,61.962l1.955.978,1.244,11.05A1.481,1.481,0,0,0,6.5,75.307h5.318a1.481,1.481,0,0,0,1.481-1.318l1.244-11.05,1.94-.978a1.481,1.481,0,0,0,.815-1.333V51.963A4.8,4.8,0,0,0,12.85,47.15a5.555,5.555,0,1,0-7.406,0A4.8,4.8,0,0,0,1,51.919v8.709a1.481,1.481,0,0,0,.815,1.333ZM9.221,40.5a2.178,2.178,0,1,1-.074-.015ZM3.962,51.963a1.852,1.852,0,0,1,1.852-1.852h6.665a1.852,1.852,0,0,1,1.852,1.852V59.71l-1.852.933a1.481,1.481,0,0,0-.8,1.155L10.495,72.33H7.8L6.614,61.8a1.481,1.481,0,0,0-.8-1.155L3.962,59.71Z" transform="translate(-1 16.607)" fill="#12263f"/>
      <path id="Trazado_801463" data-name="Trazado 801463" d="M73.638,48.365,70.676,45.4a1.481,1.481,0,0,0-2.1,0l-6.962,6.976h-.7a5.925,5.925,0,1,0-7.761,0h-.7L45.5,45.4a1.481,1.481,0,0,0-2.1,0L40.43,48.365a1.481,1.481,0,0,0-.1,1.97l8.561,10.709V71.635a1.481,1.481,0,0,0,1.481,1.481H63.7a1.481,1.481,0,0,0,1.481-1.481V61.044l8.561-10.709A1.481,1.481,0,0,0,73.638,48.365Zm-16.6-3.392a2.962,2.962,0,1,1-2.962,2.962A2.962,2.962,0,0,1,57.034,44.973Zm5.51,14.634a1.481,1.481,0,0,0-.326.918v9.628H51.85V60.526a1.481,1.481,0,0,0-.326-.918L43.466,49.521l.978-.978L50.8,54.912a1.481,1.481,0,0,0,1.052.43H62.218a1.481,1.481,0,0,0,1.052-.43l6.354-6.369.978.978Z" transform="translate(17.767 18.784)" fill="#12263f"/>
      <path id="Trazado_801464" data-name="Trazado 801464" d="M52.2,57.083l-1.3-2.666a35.178,35.178,0,0,1-15.641,3.614,35.7,35.7,0,0,1-13.464-2.651l3.244-.637L24.46,51.78,17.2,53.261a1.5,1.5,0,0,0-1.052,2.133l3.407,6.577,2.637-1.363-1.229-2.355a38.793,38.793,0,0,0,14.294,2.74A38.274,38.274,0,0,0,52.2,57.083Z" transform="translate(6.216 23.501)" fill="#12263f"/>
      <path id="Trazado_801465" data-name="Trazado 801465" d="M19.693,19.644l1.052-7.406a1.487,1.487,0,0,0-1.674-1.674l-7.332,1.052.415,2.962,3.081-.444A38.126,38.126,0,0,0,3,42.321,26.783,26.783,0,0,0,3.119,45.4l2.962-.237a22.714,22.714,0,0,1-.118-2.844,35.253,35.253,0,0,1,11.2-25.906l-.4,2.814Z" transform="translate(-0.038 3.661)" fill="#12263f"/>
      <path id="Trazado_801466" data-name="Trazado 801466" d="M37.64,10.5A35.786,35.786,0,0,1,60.391,43.674a22.949,22.949,0,0,1-.119,2.859l-1.555-2.577-2.533,1.481,3.821,6.34a1.481,1.481,0,0,0,1.126.7h.148A1.481,1.481,0,0,0,62.361,52l5.021-5.362-2.177-2.014L63.22,46.784a24.283,24.283,0,0,0,.133-3.111A38.763,38.763,0,0,0,38.706,7.74Z" transform="translate(16.631 2.309)" fill="#12263f"/>
    </g>
    <path id="Trazado_801490" data-name="Trazado 801490" d="M187.053,462.675a16.591,16.591,0,1,0,16.59,16.591,16.591,16.591,0,0,0-16.59-16.591" transform="translate(823.963 4023.528)" fill="#12263f"/>
    <path id="Trazado_801802" data-name="Trazado 801802" d="M-1.709-7.523H-.356a1.907,1.907,0,0,0,1.433-.483A1.771,1.771,0,0,0,1.542-9.29a1.566,1.566,0,0,0-.461-1.2,1.788,1.788,0,0,0-1.27-.431,1.874,1.874,0,0,0-1.222.4A1.279,1.279,0,0,0-1.9-9.483h-2.54a3.124,3.124,0,0,1,.541-1.8,3.6,3.6,0,0,1,1.512-1.244,5.045,5.045,0,0,1,2.14-.448A4.785,4.785,0,0,1,2.931-12,3.314,3.314,0,0,1,4.083-9.325a2.693,2.693,0,0,1-.536,1.617A3.483,3.483,0,0,1,2.14-6.574a3.18,3.18,0,0,1,1.613,1.16,3.147,3.147,0,0,1,.532,1.828A3.369,3.369,0,0,1,3.041-.853,5,5,0,0,1-.25.176,4.741,4.741,0,0,1-3.384-.835,3.3,3.3,0,0,1-4.6-3.507h2.54a1.472,1.472,0,0,0,.541,1.178,1.992,1.992,0,0,0,1.332.457A2,2,0,0,0,1.23-2.351a1.654,1.654,0,0,0,.514-1.27q0-1.916-2.109-1.916H-1.709Z" transform="translate(1009.897 4508.357)" fill="#fff"/>
  </g>
</svg>
