<svg xmlns="http://www.w3.org/2000/svg" xmlns:xlink="http://www.w3.org/1999/xlink" width="186.514" height="299.818" viewBox="0 0 186.514 299.818">
  <defs>
    <clipPath id="clip-path">
      <path id="Trazado_801433" data-name="Trazado 801433" d="M160.586,104.348A56.248,56.248,0,1,1,104.339,48.1a56.248,56.248,0,0,1,56.247,56.248" transform="translate(-48.091 -48.1)" fill="#12263f"/>
    </clipPath>
  </defs>
  <g id="Grupo_1065525" data-name="Grupo 1065525" transform="translate(-495.709 -4270.85)">
    <path id="Trazado_801797" data-name="Trazado 801797" d="M-36.1-4.453V0h-1.5V-11.375h4.2a4.215,4.215,0,0,1,2.926.953A3.231,3.231,0,0,1-29.418-7.9a3.189,3.189,0,0,1-1.035,2.551,4.4,4.4,0,0,1-2.965.895Zm0-1.227h2.7a2.7,2.7,0,0,0,1.844-.567,2.075,2.075,0,0,0,.641-1.64,2.143,2.143,0,0,0-.641-1.628,2.525,2.525,0,0,0-1.758-.634H-36.1Zm12.453-1.477a4.331,4.331,0,0,0-.711-.055A1.9,1.9,0,0,0-26.285-6V0H-27.73V-8.453h1.406l.023.977a2.251,2.251,0,0,1,2.016-1.133,1.477,1.477,0,0,1,.641.109Zm.789,2.852a4.993,4.993,0,0,1,.488-2.234A3.643,3.643,0,0,1-21.008-8.07a3.7,3.7,0,0,1,1.988-.539,3.565,3.565,0,0,1,2.793,1.2,4.6,4.6,0,0,1,1.066,3.18v.1a5.036,5.036,0,0,1-.473,2.215A3.589,3.589,0,0,1-16.984-.391,3.743,3.743,0,0,1-19,.156a3.556,3.556,0,0,1-2.785-1.2A4.575,4.575,0,0,1-22.855-4.2Zm1.453.172a3.616,3.616,0,0,0,.652,2.258A2.088,2.088,0,0,0-19-1.023a2.075,2.075,0,0,0,1.75-.863A3.955,3.955,0,0,0-16.605-4.3a3.61,3.61,0,0,0-.66-2.254,2.1,2.1,0,0,0-1.754-.863,2.075,2.075,0,0,0-1.727.852A3.925,3.925,0,0,0-21.4-4.133Zm9.414-4.32.039.938A3.122,3.122,0,0,1-9.441-8.609,2.417,2.417,0,0,1-7.027-7.25a3.2,3.2,0,0,1,1.1-.984,3.242,3.242,0,0,1,1.6-.375q2.781,0,2.828,2.945V0H-2.949V-5.578a1.941,1.941,0,0,0-.414-1.355,1.823,1.823,0,0,0-1.391-.449A1.916,1.916,0,0,0-6.09-6.9a1.949,1.949,0,0,0-.617,1.293V0H-8.16V-5.539a1.613,1.613,0,0,0-1.8-1.844A1.934,1.934,0,0,0-11.91-6.172V0h-1.445V-8.453ZM.293-4.3A4.993,4.993,0,0,1,.781-6.539,3.643,3.643,0,0,1,2.141-8.07a3.7,3.7,0,0,1,1.988-.539,3.565,3.565,0,0,1,2.793,1.2,4.6,4.6,0,0,1,1.066,3.18v.1a5.036,5.036,0,0,1-.473,2.215A3.589,3.589,0,0,1,6.164-.391a3.743,3.743,0,0,1-2.02.547,3.556,3.556,0,0,1-2.785-1.2A4.575,4.575,0,0,1,.293-4.2Zm1.453.172A3.616,3.616,0,0,0,2.4-1.875a2.088,2.088,0,0,0,1.746.852,2.075,2.075,0,0,0,1.75-.863A3.955,3.955,0,0,0,6.543-4.3a3.61,3.61,0,0,0-.66-2.254,2.1,2.1,0,0,0-1.754-.863A2.075,2.075,0,0,0,2.4-6.57,3.925,3.925,0,0,0,1.746-4.133ZM13.191-1.023a2.082,2.082,0,0,0,1.352-.469,1.649,1.649,0,0,0,.641-1.172h1.367a2.621,2.621,0,0,1-.5,1.383A3.293,3.293,0,0,1,14.82-.234a3.55,3.55,0,0,1-1.629.391A3.482,3.482,0,0,1,10.445-1a4.59,4.59,0,0,1-1.02-3.152v-.242a5.089,5.089,0,0,1,.453-2.2,3.451,3.451,0,0,1,1.3-1.492,3.7,3.7,0,0,1,2-.531,3.39,3.39,0,0,1,2.363.852,3.043,3.043,0,0,1,1,2.211H15.184a1.992,1.992,0,0,0-.621-1.348,1.932,1.932,0,0,0-1.379-.527,2.023,2.023,0,0,0-1.707.793,3.724,3.724,0,0,0-.605,2.293v.273a3.65,3.65,0,0,0,.6,2.25A2.033,2.033,0,0,0,13.191-1.023ZM19.746,0H18.3V-8.453h1.445ZM18.184-10.7a.863.863,0,0,1,.215-.594.807.807,0,0,1,.637-.242.819.819,0,0,1,.641.242.854.854,0,0,1,.219.594.826.826,0,0,1-.219.586.834.834,0,0,1-.641.234.821.821,0,0,1-.637-.234A.834.834,0,0,1,18.184-10.7ZM21.676-4.3a4.993,4.993,0,0,1,.488-2.234A3.643,3.643,0,0,1,23.523-8.07a3.7,3.7,0,0,1,1.988-.539,3.565,3.565,0,0,1,2.793,1.2,4.6,4.6,0,0,1,1.066,3.18v.1A5.036,5.036,0,0,1,28.9-1.918,3.589,3.589,0,0,1,27.547-.391a3.743,3.743,0,0,1-2.02.547,3.556,3.556,0,0,1-2.785-1.2A4.575,4.575,0,0,1,21.676-4.2Zm1.453.172a3.616,3.616,0,0,0,.652,2.258,2.088,2.088,0,0,0,1.746.852,2.075,2.075,0,0,0,1.75-.863A3.955,3.955,0,0,0,27.926-4.3a3.61,3.61,0,0,0-.66-2.254,2.1,2.1,0,0,0-1.754-.863,2.075,2.075,0,0,0-1.727.852A3.925,3.925,0,0,0,23.129-4.133ZM26.168-12h1.75L25.824-9.7l-1.164,0Zm6.383,3.547L32.6-7.391a3.08,3.08,0,0,1,2.531-1.219q2.68,0,2.7,3.023V0H36.387V-5.594a1.946,1.946,0,0,0-.418-1.352,1.675,1.675,0,0,0-1.277-.437,2.086,2.086,0,0,0-1.234.375,2.546,2.546,0,0,0-.828.984V0H31.184V-8.453ZM-37.6,19.7a4.952,4.952,0,0,1,.922-3.129,2.915,2.915,0,0,1,2.414-1.184,2.932,2.932,0,0,1,2.352,1.016V12h1.445V24H-31.8l-.07-.906a2.943,2.943,0,0,1-2.414,1.063,2.887,2.887,0,0,1-2.395-1.2,5.008,5.008,0,0,1-.926-3.141Zm1.445.164a3.749,3.749,0,0,0,.594,2.25,1.92,1.92,0,0,0,1.641.813A2.108,2.108,0,0,0-31.914,21.7V17.813a2.125,2.125,0,0,0-1.992-1.2,1.929,1.929,0,0,0-1.656.82A4.128,4.128,0,0,0-36.156,19.867Zm11.438,4.289a3.693,3.693,0,0,1-2.8-1.129,4.19,4.19,0,0,1-1.078-3.02v-.266a5.073,5.073,0,0,1,.48-2.246,3.748,3.748,0,0,1,1.344-1.547,3.378,3.378,0,0,1,1.871-.559,3.166,3.166,0,0,1,2.563,1.086,4.7,4.7,0,0,1,.914,3.109v.6h-5.727a3,3,0,0,0,.73,2.02,2.3,2.3,0,0,0,1.777.77,2.517,2.517,0,0,0,1.3-.312,3.259,3.259,0,0,0,.93-.828l.883.688A3.55,3.55,0,0,1-24.719,24.156Zm-.18-7.578a1.928,1.928,0,0,0-1.469.637A3.1,3.1,0,0,0-27.1,19h4.234v-.109a2.753,2.753,0,0,0-.594-1.707A1.815,1.815,0,0,0-24.9,16.578ZM-14.219,24h-1.445V12h1.445Zm7.531,0a3.036,3.036,0,0,1-.2-.891A3.225,3.225,0,0,1-9.3,24.156a2.984,2.984,0,0,1-2.051-.707,2.287,2.287,0,0,1-.8-1.793,2.39,2.39,0,0,1,1-2.051,4.733,4.733,0,0,1,2.824-.73h1.406v-.664A1.623,1.623,0,0,0-7.367,17,1.821,1.821,0,0,0-8.7,16.555a2.108,2.108,0,0,0-1.3.391,1.151,1.151,0,0,0-.523.945h-1.453a2,2,0,0,1,.449-1.223,3.066,3.066,0,0,1,1.219-.934,4.1,4.1,0,0,1,1.691-.344,3.342,3.342,0,0,1,2.289.73,2.635,2.635,0,0,1,.859,2.012v3.891a4.757,4.757,0,0,0,.3,1.852V24Zm-2.4-1.1A2.54,2.54,0,0,0-7.8,22.547a2.127,2.127,0,0,0,.883-.914V19.9H-8.047q-2.656,0-2.656,1.555a1.316,1.316,0,0,0,.453,1.063A1.742,1.742,0,0,0-9.086,22.9ZM5.68,21.758a1.064,1.064,0,0,0-.441-.91A4.249,4.249,0,0,0,3.7,20.289a7.277,7.277,0,0,1-1.742-.562A2.479,2.479,0,0,1,1,18.945,1.869,1.869,0,0,1,.7,17.867a2.193,2.193,0,0,1,.879-1.758,3.432,3.432,0,0,1,2.246-.719,3.532,3.532,0,0,1,2.332.742,2.357,2.357,0,0,1,.895,1.9H5.594a1.3,1.3,0,0,0-.5-1.023,1.888,1.888,0,0,0-1.27-.43,1.976,1.976,0,0,0-1.234.344,1.082,1.082,0,0,0-.445.9.877.877,0,0,0,.414.789,5.1,5.1,0,0,0,1.5.508A7.8,7.8,0,0,1,5.8,19.7a2.558,2.558,0,0,1,1,.809,1.988,1.988,0,0,1,.324,1.152,2.163,2.163,0,0,1-.906,1.816,3.8,3.8,0,0,1-2.352.684,4.257,4.257,0,0,1-1.8-.359,2.922,2.922,0,0,1-1.223-1A2.42,2.42,0,0,1,.406,21.4H1.852a1.5,1.5,0,0,0,.582,1.152,2.258,2.258,0,0,0,1.434.426,2.331,2.331,0,0,0,1.316-.332A1.02,1.02,0,0,0,5.68,21.758ZM14.227,24a3.036,3.036,0,0,1-.2-.891,3.225,3.225,0,0,1-2.406,1.047,2.984,2.984,0,0,1-2.051-.707,2.287,2.287,0,0,1-.8-1.793,2.39,2.39,0,0,1,1-2.051,4.733,4.733,0,0,1,2.824-.73H14v-.664A1.623,1.623,0,0,0,13.547,17a1.821,1.821,0,0,0-1.336-.449,2.108,2.108,0,0,0-1.3.391,1.151,1.151,0,0,0-.523.945H8.938a2,2,0,0,1,.449-1.223,3.066,3.066,0,0,1,1.219-.934,4.1,4.1,0,0,1,1.691-.344,3.342,3.342,0,0,1,2.289.73,2.635,2.635,0,0,1,.859,2.012v3.891a4.757,4.757,0,0,0,.3,1.852V24Zm-2.4-1.1a2.54,2.54,0,0,0,1.289-.352A2.127,2.127,0,0,0,14,21.633V19.9H12.867q-2.656,0-2.656,1.555a1.316,1.316,0,0,0,.453,1.063A1.742,1.742,0,0,0,11.828,22.9ZM19.281,24H17.836V12h1.445Zm7.531-.836a3.07,3.07,0,0,1-2.477.992,2.628,2.628,0,0,1-2.059-.785,3.4,3.4,0,0,1-.715-2.324v-5.5h1.445v5.461q0,1.922,1.563,1.922a2.163,2.163,0,0,0,2.2-1.234V15.547h1.445V24H26.844Zm3.25-3.461a4.952,4.952,0,0,1,.922-3.129,3.137,3.137,0,0,1,4.766-.168V12H37.2V24H35.867l-.07-.906a2.943,2.943,0,0,1-2.414,1.063,2.887,2.887,0,0,1-2.395-1.2,5.008,5.008,0,0,1-.926-3.141Zm1.445.164a3.749,3.749,0,0,0,.594,2.25,1.92,1.92,0,0,0,1.641.813A2.108,2.108,0,0,0,35.75,21.7V17.813a2.125,2.125,0,0,0-1.992-1.2,1.929,1.929,0,0,0-1.656.82A4.128,4.128,0,0,0,31.508,19.867Z" transform="translate(584.454 4546.512)" fill="#12263f"/>
    <path id="Trazado_801270" data-name="Trazado 801270" d="M93.272,0A93.351,93.351,0,0,0,.022,93.25h186.5A93.351,93.351,0,0,0,93.272,0" transform="translate(495.698 4270.85)" fill="#c2ffc7"/>
    <g id="Grupo_1065290" data-name="Grupo 1065290" transform="translate(495.709 4364.11)">
      <path id="Trazado_801275" data-name="Trazado 801275" d="M187.053,462.675a16.591,16.591,0,1,0,16.59,16.591,16.591,16.591,0,0,0-16.59-16.591" transform="translate(-93.795 -340.582)" fill="#12263f"/>
      <g id="Grupo_1065289" data-name="Grupo 1065289" transform="translate(0 0)">
        <path id="Trazado_801276" data-name="Trazado 801276" d="M388.234,196.5q0,2.188-.1,4.349l2.2.1q.1-2.213.1-4.452Z" transform="translate(-203.92 -196.499)" fill="#12263f"/>
        <path id="Trazado_801277" data-name="Trazado 801277" d="M61.086,337.124c2.136,2.03,4.393,3.983,6.709,5.8l1.36-1.73c-2.263-1.777-4.467-3.682-6.552-5.666Z" transform="translate(-32.094 -269.545)" fill="#12263f"/>
        <path id="Trazado_801278" data-name="Trazado 801278" d="M82.709,354.73c2.4,1.708,4.911,3.321,7.464,4.794l1.1-1.906c-2.493-1.439-4.945-3.013-7.288-4.68Z" transform="translate(-43.454 -278.69)" fill="#12263f"/>
        <path id="Trazado_801279" data-name="Trazado 801279" d="M106.653,369.129c2.614,1.347,5.329,2.586,8.071,3.681l.816-2.043c-2.677-1.069-5.327-2.278-7.879-3.593Z" transform="translate(-56.034 -286.17)" fill="#12263f"/>
        <path id="Trazado_801280" data-name="Trazado 801280" d="M132.434,380.009c2.784.961,5.649,1.8,8.517,2.486l.514-2.14c-2.8-.673-5.6-1.489-8.313-2.426Z" transform="translate(-69.579 -291.82)" fill="#12263f"/>
        <path id="Trazado_801281" data-name="Trazado 801281" d="M26.449,293.805c1.477,2.544,3.1,5.051,4.813,7.45l1.79-1.281c-1.676-2.342-3.258-4.789-4.7-7.273Z" transform="translate(-13.896 -247.043)" fill="#12263f"/>
        <path id="Trazado_801282" data-name="Trazado 801282" d="M3.106,215.143l-2.189.213c.283,2.94.711,5.892,1.27,8.776l2.159-.418c-.544-2.816-.962-5.7-1.24-8.571" transform="translate(-0.482 -206.295)" fill="#12263f"/>
        <path id="Trazado_801283" data-name="Trazado 801283" d="M42.205,316.68c1.824,2.309,3.783,4.561,5.821,6.693l1.59-1.522c-1.99-2.081-3.9-4.279-5.683-6.535Z" transform="translate(-22.174 -258.924)" fill="#12263f"/>
        <path id="Trazado_801284" data-name="Trazado 801284" d="M7.722,242.113l-2.138.522c.7,2.868,1.546,5.73,2.513,8.507l2.078-.724c-.944-2.711-1.769-5.505-2.453-8.305" transform="translate(-2.934 -220.464)" fill="#12263f"/>
        <path id="Trazado_801285" data-name="Trazado 801285" d="M14.153,268.957c1.1,2.728,2.344,5.439,3.7,8.059L19.809,276c-1.327-2.558-2.543-5.206-3.615-7.868Z" transform="translate(-7.436 -234.136)" fill="#12263f"/>
        <path id="Trazado_801286" data-name="Trazado 801286" d="M168.5,386.177c-2.875-.266-5.76-.675-8.572-1.212l-.412,2.161c2.881.55,5.836.967,8.781,1.242Z" transform="translate(-83.81 -295.518)" fill="#12263f"/>
        <path id="Trazado_801287" data-name="Trazado 801287" d="M352.795,299.72,354.587,301c1.714-2.4,3.329-4.913,4.8-7.458l-1.9-1.1c-1.439,2.486-3.016,4.935-4.69,7.282" transform="translate(-185.355 -246.905)" fill="#12263f"/>
        <path id="Trazado_801288" data-name="Trazado 801288" d="M367.059,275.7l1.955,1.01c1.352-2.617,2.594-5.332,3.691-8.067l-2.043-.819c-1.071,2.671-2.283,5.321-3.6,7.876" transform="translate(-192.849 -233.974)" fill="#12263f"/>
        <path id="Trazado_801289" data-name="Trazado 801289" d="M335.362,321.635l1.592,1.519c2.036-2.136,3.991-4.391,5.811-6.7l-1.729-1.36c-1.777,2.257-3.686,4.459-5.674,6.544" transform="translate(-176.196 -258.806)" fill="#12263f"/>
        <path id="Trazado_801290" data-name="Trazado 801290" d="M214.908,386.126l.208,2.192c2.937-.281,5.891-.7,8.779-1.259l-.417-2.162c-2.818.544-5.7.956-8.571,1.229" transform="translate(-112.911 -295.481)" fill="#12263f"/>
        <path id="Trazado_801291" data-name="Trazado 801291" d="M384.911,223.343l2.162.415c.553-2.888.974-5.842,1.252-8.78l-2.19-.206c-.272,2.868-.683,5.752-1.224,8.571" transform="translate(-202.228 -206.1)" fill="#12263f"/>
        <path id="Trazado_801292" data-name="Trazado 801292" d="M377.845,250.06l2.08.72c.962-2.781,1.8-5.645,2.5-8.514l-2.138-.518c-.677,2.8-1.5,5.6-2.438,8.311" transform="translate(-198.516 -220.273)" fill="#12263f"/>
        <path id="Trazado_801293" data-name="Trazado 801293" d="M315.125,341.007l1.362,1.727c2.313-1.822,4.567-3.777,6.7-5.811l-1.519-1.592c-2.081,1.986-4.282,3.9-6.542,5.676" transform="translate(-165.563 -269.44)" fill="#12263f"/>
        <path id="Trazado_801294" data-name="Trazado 801294" d="M267.913,370.631l.819,2.041c2.733-1.1,5.446-2.339,8.063-3.692l-1.01-1.955c-2.556,1.321-5.2,2.534-7.872,3.606" transform="translate(-140.759 -286.092)" fill="#12263f"/>
        <path id="Trazado_801295" data-name="Trazado 801295" d="M241.882,380.248l.518,2.14c2.856-.692,5.719-1.534,8.511-2.5l-.722-2.078c-2.726.945-5.52,1.766-8.307,2.441" transform="translate(-127.082 -291.757)" fill="#12263f"/>
        <path id="Trazado_801296" data-name="Trazado 801296" d="M292.495,357.457l1.1,1.9c2.551-1.476,5.058-3.093,7.456-4.8l-1.279-1.79c-2.34,1.671-4.789,3.249-7.279,4.691" transform="translate(-153.674 -278.6)" fill="#12263f"/>
        <path id="Trazado_801297" data-name="Trazado 801297" d="M2.2,196.5H0q0,2.238.1,4.452l2.2-.1q-.1-2.161-.1-4.349" transform="translate(0 -196.499)" fill="#12263f"/>
        <path id="Trazado_801298" data-name="Trazado 801298" d="M190.582,393.742h2.2v-3.324c1.146-.013,2.29-.028,3.425-.084l-.105-2.2q-2.134.1-4.3.1c-1.458.015-2.919-.03-4.364-.1l-.1,2.2c1.076.051,2.16.06,3.244.074Z" transform="translate(-98.425 -297.184)" fill="#12263f"/>
      </g>
      <rect id="Rectángulo_374190" data-name="Rectángulo 374190" width="2.2" height="7.25" transform="translate(92.156 111.056)" fill="#12263f"/>
      <rect id="Rectángulo_374191" data-name="Rectángulo 374191" width="2.2" height="7.25" transform="translate(92.156 100.183)" fill="#12263f"/>
      <rect id="Rectángulo_374192" data-name="Rectángulo 374192" width="2.2" height="4.401" transform="translate(92.156 121.929)" fill="#12263f"/>
    </g>
    <path id="Trazado_801395" data-name="Trazado 801395" d="M188.956,118.533A70.432,70.432,0,1,1,118.524,48.1a70.433,70.433,0,0,1,70.432,70.433" transform="translate(470.442 4245.579)" fill="#f6f6f6"/>
    <g id="Enmascarar_grupo_1064363" data-name="Enmascarar grupo 1064363" transform="translate(536.957 4303.135)" clip-path="url(#clip-path)">
      <path id="campana" d="M54.316,90.273H31.238a2.092,2.092,0,0,1-2.106-2.045V77.05c-3.681.079-11.2.281-12.261-.341A3.267,3.267,0,0,1,15.2,73.867V60.021c0-.306-3.421-1.279-5.147-2.088a2.131,2.131,0,0,1-.893-3.083l7.926-12.372a3.781,3.781,0,0,0,.471-2.485,14.155,14.155,0,0,1,.168-3.305A26.7,26.7,0,0,1,28.17,21.218a26.188,26.188,0,0,1,17.936-4.839c7.908.758,13.7,4.11,17.619,9.058C68.114,30.969,70.12,38.46,70.12,46.5c0,8.125-1.927,12.406-4.3,16.067,6.34-1.584,12.619-4.216,17.468-8.075a1.4,1.4,0,0,1,2.259,1.09h0v32.33a1.4,1.4,0,0,1-2.327,1.037,39.627,39.627,0,0,0-9.243-5.332,58.716,58.716,0,0,0-11.718-3.473h-.828L64.3,90.85a4.748,4.748,0,0,1-9.172,2.456Zm37.841-7.256a1.389,1.389,0,1,1,1.384-2.408l6.64,3.834A1.389,1.389,0,0,1,98.8,86.851Zm1.39-20.127a1.392,1.392,0,0,1-1.395-2.409l6.64-3.834a1.392,1.392,0,0,1,1.395,2.409ZM91.821,73.144a1.395,1.395,0,1,1,0-2.79h7.667a1.395,1.395,0,1,1,0,2.79Zm-27.978,4.48a53.772,53.772,0,0,1,18.915,7.544V58.33a53.768,53.768,0,0,1-18.915,7.544ZM61.909,63.352C64.7,59.391,67.33,55.558,67.33,46.5c0-14.082-6.453-25.959-21.536-27.36a23.416,23.416,0,0,0-16,4.342,23.9,23.9,0,0,0-9.359,13.845c-.351,1.473.192,3.407-.315,5.138a5.81,5.81,0,0,1-.7,1.513L11.9,55.731c2.293,1.08,6.088,1.883,6.088,3.227v14.91a.482.482,0,0,0,.291.444c.324.189,6.6.051,10.082-.025,1.13-.025,2.011-.044,2.168-.044a1.4,1.4,0,0,1,1.395,1.395V87.483H53.568L51.6,80.147c-1.181,0-2.11.076-3.076-.89a3.058,3.058,0,0,1-.309-.361H45.476a2.975,2.975,0,0,1-2.97-2.97v-8.35a2.975,2.975,0,0,1,2.97-2.97h2.741a3.034,3.034,0,0,1,2.454-1.252H61.909ZM54.487,80.147l3.333,12.44a1.961,1.961,0,0,0,3.789-1.017L58.548,80.147ZM47.636,76.1V67.394h-2.16a.185.185,0,0,0-.18.18v8.35a.185.185,0,0,0,.18.18Zm13.418-9.963H50.671a.249.249,0,0,0-.245.245V77.112a.249.249,0,0,0,.245.245H61.053Zm-25.4-23.385,4.18,5.225A1.394,1.394,0,0,0,41.9,48.1l0,0,10.45-10.45a1.395,1.395,0,1,0-1.973-1.973l-9.353,9.353-3.206-4.008a1.388,1.388,0,0,0-2.169,1.733Zm14.45-14.616-1.356-4.175A1.4,1.4,0,0,0,47.4,22.916H39.538v0a1.393,1.393,0,0,0-1.324.962l-1.385,4.261a15.057,15.057,0,0,0-2.271,1.314l-4.387-.932v0a1.389,1.389,0,0,0-1.492.667L24.8,35.905a1.394,1.394,0,0,0,.114,1.72l3,3.33a15.211,15.211,0,0,0,0,2.626l-3,3.33h0a1.393,1.393,0,0,0-.17,1.629l1.965,3.4h0l1.913,3.313a1.393,1.393,0,0,0,1.543.757l4.387-.933a15.085,15.085,0,0,0,2.271,1.315l1.356,4.175a1.4,1.4,0,0,0,1.352,1.051H47.4v0a1.393,1.393,0,0,0,1.324-.962l1.385-4.261a15.075,15.075,0,0,0,2.27-1.314l4.387.933h0a1.392,1.392,0,0,0,1.493-.664l3.9-6.754a1.393,1.393,0,0,0-.138-1.683l-3-3.33a15.236,15.236,0,0,0,0-2.626l3-3.33,0,0A1.389,1.389,0,0,0,62.189,36l-1.924-3.332c-.577-1.075-1.377-2.338-1.977-3.43a1.393,1.393,0,0,0-1.523-.716l-4.387.932a15.043,15.043,0,0,0-2.271-1.314Zm-.231,3.016a12.81,12.81,0,0,0-1.366-.687,1.39,1.39,0,0,1-.862-.883l-1.262-3.882h-5.84l-1.262,3.882h0a1.386,1.386,0,0,1-.782.851,13.451,13.451,0,0,0-2.71,1.552,1.391,1.391,0,0,1-1.21.318l-4-.851L27.661,36.51l2.7,2.994c.586.623.361,1.17.313,1.952a13.034,13.034,0,0,0,.078,2.428h0a1.389,1.389,0,0,1-.347,1.1l-2.736,3.039,1.458,2.526h0l1.46,2.528,4-.851v0a1.386,1.386,0,0,1,1.127.252,13.4,13.4,0,0,0,2.715,1.581,1.389,1.389,0,0,1,.861.883l1.262,3.882h5.84l1.262-3.883h0a1.386,1.386,0,0,1,.782-.851,13.471,13.471,0,0,0,2.709-1.551,1.391,1.391,0,0,1,1.21-.318l4,.851,2.918-5.055-2.694-2.992c-.586-.622-.362-1.169-.313-1.951a13.048,13.048,0,0,0-.078-2.429h0a1.389,1.389,0,0,1,.347-1.1l2.738-3.041-2.92-5.053-4,.85v0a1.385,1.385,0,0,1-1.127-.252,12.836,12.836,0,0,0-1.349-.895Z" transform="translate(1.397 -0.29)" fill="#12263f" fill-rule="evenodd"/>
    </g>
    <path id="Trazado_801798" data-name="Trazado 801798" d="M1.876,0H-.664V-9.791l-3.032.94v-2.065l5.3-1.9h.272Z" transform="translate(587.849 4509.299)" fill="#fff"/>
  </g>
</svg>
