<svg id="Grupo_1065247" data-name="Grupo 1065247" xmlns="http://www.w3.org/2000/svg" xmlns:xlink="http://www.w3.org/1999/xlink" width="306.914" height="270.116" viewBox="0 0 306.914 270.116">
  <defs>
    <clipPath id="clip-path">
      <rect id="Rectángulo_374156" data-name="Rectángulo 374156" width="306.914" height="270.116" fill="none"/>
    </clipPath>
    <clipPath id="clip-path-4">
      <rect id="Rectángulo_374141" data-name="Rectángulo 374141" width="17.116" height="14.341" fill="none"/>
    </clipPath>
    <clipPath id="clip-path-5">
      <rect id="Rectángulo_374142" data-name="Rectángulo 374142" width="8.76" height="6.724" fill="none"/>
    </clipPath>
    <clipPath id="clip-path-6">
      <rect id="Rectángulo_374143" data-name="Rectángulo 374143" width="18.651" height="9.208" fill="none"/>
    </clipPath>
    <clipPath id="clip-path-7">
      <rect id="Rectángulo_374144" data-name="Rectángulo 374144" width="11.56" height="12.803" fill="none"/>
    </clipPath>
    <clipPath id="clip-path-8">
      <rect id="Rectángulo_374145" data-name="Rectángulo 374145" width="14.668" height="16.786" fill="none"/>
    </clipPath>
    <clipPath id="clip-path-9">
      <rect id="Rectángulo_374146" data-name="Rectángulo 374146" width="12.654" height="19.287" fill="none"/>
    </clipPath>
    <clipPath id="clip-path-10">
      <rect id="Rectángulo_374147" data-name="Rectángulo 374147" width="6.726" height="44.987" fill="none"/>
    </clipPath>
    <clipPath id="clip-path-11">
      <rect id="Rectángulo_374148" data-name="Rectángulo 374148" width="5.929" height="45.124" fill="none"/>
    </clipPath>
    <clipPath id="clip-path-12">
      <rect id="Rectángulo_374149" data-name="Rectángulo 374149" width="14.819" height="18.454" fill="none"/>
    </clipPath>
    <clipPath id="clip-path-13">
      <rect id="Rectángulo_374150" data-name="Rectángulo 374150" width="14.659" height="9.677" fill="none"/>
    </clipPath>
    <clipPath id="clip-path-14">
      <rect id="Rectángulo_374151" data-name="Rectángulo 374151" width="23.049" height="49.065" fill="none"/>
    </clipPath>
    <clipPath id="clip-path-15">
      <rect id="Rectángulo_374152" data-name="Rectángulo 374152" width="13.927" height="21.714" fill="none"/>
    </clipPath>
    <clipPath id="clip-path-16">
      <rect id="Rectángulo_374153" data-name="Rectángulo 374153" width="16.696" height="17.77" fill="none"/>
    </clipPath>
  </defs>
  <g id="Grupo_1065246" data-name="Grupo 1065246" clip-path="url(#clip-path)">
    <g id="Grupo_1065202" data-name="Grupo 1065202">
      <g id="Grupo_1065201" data-name="Grupo 1065201" clip-path="url(#clip-path)">
        <path id="Trazado_800916" data-name="Trazado 800916" d="M356.007,345.324c-12.349-9.095-14.793-25.465-13.93-40.1.144-2.443-.06-5.029,1.157-7.145s3.968-3.515,6.132-2.43c1.794.9,2.533,3.033,3.506,4.8a14.306,14.306,0,0,0,5.6,5.622c1.537.847,3.452,1.39,5.01.58,2.139-1.111,2.46-4.019,2.506-6.452q.127-6.8.254-13.6a22.7,22.7,0,0,1,.914-7.206,7.549,7.549,0,0,1,4.87-4.983c2.33-.59,5.158.815,5.588,3.208a22.456,22.456,0,0,1-.007,3.031,2.56,2.56,0,0,0,1.437,2.445c.964.309,1.954-.356,2.7-1.049a32.337,32.337,0,0,0,6.025-8.621,44.913,44.913,0,0,1,5.642-8.911c2.345-2.622,5.548-4.666,9.037-4.776s7.146,2.132,7.941,5.574-1.29,6.88-3.537,9.6a54.329,54.329,0,0,1-11.574,10.493,4.466,4.466,0,0,0-1.941,1.985c-.569,1.609.928,3.258,2.515,3.831,1.8.649,3.77.51,5.661.78s3.925,1.159,4.6,2.969c.934,2.511-1.21,5.065-3.3,6.72a46.517,46.517,0,0,1-13.964,7.6,15.689,15.689,0,0,0-5.177,2.359c-1.475,1.222-2.4,3.385-1.571,5.12s3.053,2.341,4.936,2.04,3.585-1.277,5.389-1.905c3.374-1.178,7.684-.84,9.753,2.1a7.7,7.7,0,0,1,.649,6.827,17.747,17.747,0,0,1-3.838,5.919,46.777,46.777,0,0,1-20.321,13.535c-7.821,2.5-15.024,3.043-22.659.033" transform="translate(-103.646 -78.732)" fill="#ebebeb"/>
        <path id="Trazado_800917" data-name="Trazado 800917" d="M367.891,337.171a217.8,217.8,0,0,1,9.238-23.249l2.734-5.97c.9-1.957,1.8-3.9,2.788-5.743a108.887,108.887,0,0,1,6.309-10.272c2.164-3.171,4.334-6.1,6.383-8.824s4.019-5.221,5.905-7.424a86.451,86.451,0,0,1,9.668-9.72c1.227-1.054,2.2-1.841,2.876-2.365l.766-.592a1.907,1.907,0,0,1,.27-.189,1.663,1.663,0,0,1-.242.226l-.738.626c-.652.547-1.612,1.355-2.82,2.428a91.309,91.309,0,0,0-9.541,9.8c-1.866,2.209-3.81,4.714-5.85,7.442s-4.19,5.666-6.34,8.834a110.141,110.141,0,0,0-6.261,10.245c-.984,1.836-1.868,3.76-2.771,5.723s-1.808,3.953-2.731,5.967a223.384,223.384,0,0,0-9.253,23.19" transform="translate(-111.518 -79.669)" fill="#e0e0e0"/>
        <path id="Trazado_800918" data-name="Trazado 800918" d="M388,307.642a4.957,4.957,0,0,1-.212-1.043c-.111-.676-.239-1.658-.38-2.873-.283-2.431-.56-5.8-.852-9.516s-.615-7.074-.935-9.493c-.157-1.21-.293-2.188-.4-2.863a4.86,4.86,0,0,1-.109-1.059,4.907,4.907,0,0,1,.28,1.027c.156.666.341,1.64.537,2.848.4,2.417.777,5.782,1.068,9.5.278,3.668.529,6.986.721,9.521.094,1.145.174,2.109.238,2.884a4.826,4.826,0,0,1,.038,1.065" transform="translate(-116.737 -85.117)" fill="#e0e0e0"/>
        <path id="Trazado_800919" data-name="Trazado 800919" d="M420.674,312.03a6.782,6.782,0,0,1-1.251.118c-.8.051-1.969.119-3.4.249-2.872.238-6.828.7-11.169,1.411s-8.243,1.528-11.048,2.2c-1.406.325-2.536.619-3.318.817a6.755,6.755,0,0,1-1.228.269,6.667,6.667,0,0,1,1.18-.439c.769-.25,1.891-.592,3.29-.958,2.794-.752,6.7-1.617,11.054-2.335A110.483,110.483,0,0,1,416,312.078c1.443-.09,2.613-.11,3.421-.107a6.6,6.6,0,0,1,1.256.058" transform="translate(-117.995 -94.568)" fill="#e0e0e0"/>
        <path id="Trazado_800920" data-name="Trazado 800920" d="M362.048,351.154a1.576,1.576,0,0,1-.2-.387l-.507-1.145c-.436-1-1.028-2.454-1.736-4.264-1.419-3.62-3.223-8.682-5.137-14.295s-3.669-10.688-5.01-14.333l-1.6-4.312-.429-1.176a1.6,1.6,0,0,1-.121-.422,1.612,1.612,0,0,1,.2.387l.507,1.144c.436,1,1.028,2.454,1.737,4.264,1.419,3.62,3.222,8.683,5.137,14.3s3.668,10.685,5.01,14.33c.659,1.771,1.2,3.229,1.6,4.311.171.47.313.859.429,1.177a1.619,1.619,0,0,1,.121.422" transform="translate(-105.276 -94.219)" fill="#e0e0e0"/>
        <path id="Trazado_800921" data-name="Trazado 800921" d="M410.354,350.968a1.67,1.67,0,0,1-.417.16l-1.217.374-4.486,1.331c-3.788,1.125-9,2.738-14.76,4.528s-10.994,3.359-14.806,4.406c-1.906.523-3.452.932-4.526,1.192l-1.239.292a1.629,1.629,0,0,1-.44.072,1.686,1.686,0,0,1,.417-.16l1.217-.374,4.486-1.331c3.787-1.124,9-2.738,14.762-4.529s10.992-3.358,14.8-4.4c1.906-.524,3.452-.932,4.527-1.192l1.239-.293a1.63,1.63,0,0,1,.44-.072" transform="translate(-111.692 -106.387)" fill="#e0e0e0"/>
        <path id="Trazado_800922" data-name="Trazado 800922" d="M2.3,246.2s-5.724,2.318.878,14.471a160.154,160.154,0,0,0,11.114,18.137s1.188,2.83-1.207,3.336-7.716-.2-8.712,2.771C3.342,288,5.636,290.826,10.2,293.238s14.369,8.06,15.253,8.574c.869.5,1.76,1.813.184,2.42s-13.464,2.16-12.389,7.756S28.14,322.212,29.64,322.747s1.872,1.155,1.773,1.974-4.145.964-7.508,1.544-7.16,1.843-6.27,5.02,9.173,9.686,28.912,11.105l9.189.059,4.8-7.887c9.235-17.5,8.091-27.975,5.866-30.411s-5.305.119-7.576,2.667-4.533,5.9-5.281,5.555-1.078-.992-.738-2.548,3.72-15.731-.462-19.6-11.787,5.4-13.135,6.413-1.987-.432-1.956-1.436c.031-1.022.422-12.332.79-17.48s-.817-8.588-3.979-9.342c-3.05-.727-5.263,4.164-6.96,5.929s-3.47-.741-3.47-.741a159.949,159.949,0,0,0-9.515-19.024C7.292,242.51,2.19,246.259,2.19,246.259" transform="translate(0 -74.481)" fill="#ebebeb"/>
        <path id="Trazado_800923" data-name="Trazado 800923" d="M59.833,349.552c-4.976-8.855-13.554-24.742-20.99-38.344s-14.175-25.9-19.105-34.781l-5.85-10.51L12.3,263.058l-.407-.747c-.09-.169-.13-.259-.13-.259s.057.081.155.245.247.418.431.733c.38.658.93,1.61,1.636,2.832,1.417,2.461,3.443,6.038,5.929,10.466,4.976,8.855,11.746,21.145,19.179,34.742s15.986,29.5,20.917,38.382" transform="translate(-3.565 -79.436)" fill="#e0e0e0"/>
        <path id="Trazado_800924" data-name="Trazado 800924" d="M16.9,303.826a2.965,2.965,0,0,1,.645.162c.41.12,1,.311,1.721.554,1.447.489,3.428,1.215,5.6,2.055l5.551,2.171,1.686.647a2.991,2.991,0,0,1,.61.262,2.941,2.941,0,0,1-.646-.157c-.41-.121-1-.312-1.72-.563-1.442-.5-3.413-1.254-5.584-2.095L19.2,304.732l-1.689-.639a2.967,2.967,0,0,1-.609-.267" transform="translate(-5.124 -92.098)" fill="#e0e0e0"/>
        <path id="Trazado_800925" data-name="Trazado 800925" d="M40.472,303.336c-.075-.025,1.242-4.175,2.94-9.268s3.136-9.2,3.211-9.179-1.242,4.174-2.941,9.269-3.136,9.2-3.21,9.178" transform="translate(-12.267 -86.358)" fill="#e0e0e0"/>
        <path id="Trazado_800926" data-name="Trazado 800926" d="M55.505,335.745a3.093,3.093,0,0,1,.358-.576l1.049-1.517c.884-1.282,2.1-3.056,3.364-5.063s2.359-3.86,3.136-5.208l.921-1.6a3.151,3.151,0,0,1,.367-.571,3.056,3.056,0,0,1-.269.624c-.19.392-.475.955-.843,1.643-.732,1.376-1.8,3.253-3.071,5.263s-2.514,3.775-3.441,5.029c-.466.625-.849,1.126-1.124,1.465a3.093,3.093,0,0,1-.447.511" transform="translate(-16.825 -97.368)" fill="#e0e0e0"/>
        <path id="Trazado_800927" data-name="Trazado 800927" d="M32.687,339.94a2.641,2.641,0,0,1,.627-.006l1.7.091c1.437.089,3.42.232,5.609.407s4.171.35,5.6.491l1.7.181a2.633,2.633,0,0,1,.618.105,2.687,2.687,0,0,1-.627.006l-1.7-.091c-1.437-.089-3.42-.231-5.611-.407s-4.169-.349-5.6-.49l-1.7-.181a2.647,2.647,0,0,1-.619-.105" transform="translate(-9.908 -103.041)" fill="#e0e0e0"/>
        <path id="Trazado_800928" data-name="Trazado 800928" d="M42.514,368.735a4.375,4.375,0,0,1,.8,0l2.183.108c1.843.1,4.385.267,7.193.465s5.35.393,7.188.548l2.176.2a4.323,4.323,0,0,1,.8.111,4.371,4.371,0,0,1-.8,0l-2.183-.108c-1.842-.1-4.385-.267-7.194-.465s-5.348-.393-7.187-.548l-2.176-.2a4.311,4.311,0,0,1-.8-.112" transform="translate(-12.887 -111.77)" fill="#e0e0e0"/>
        <path id="Trazado_800929" data-name="Trazado 800929" d="M71.015,362.393a4.953,4.953,0,0,1,.436-.741l1.261-1.971c1.063-1.665,2.522-3.97,4.061-6.56s2.877-4.968,3.832-6.7l1.132-2.047a5.011,5.011,0,0,1,.444-.737,4.837,4.837,0,0,1-.345.787c-.239.5-.6,1.215-1.053,2.092-.909,1.755-2.219,4.155-3.765,6.749s-3.029,4.887-4.137,6.525c-.555.818-1.012,1.475-1.337,1.923a4.96,4.96,0,0,1-.528.679" transform="translate(-21.526 -104.167)" fill="#e0e0e0"/>
      </g>
    </g>
    <g id="Grupo_1065243" data-name="Grupo 1065243">
      <g id="Grupo_1065242" data-name="Grupo 1065242" clip-path="url(#clip-path)">
        <path id="Trazado_800930" data-name="Trazado 800930" d="M184.448,253.554l1.254,92.407h25.391l.637-63.661,7.439,63.661h27.708s-4.633-76.556-4.633-88.993Z" transform="translate(-55.912 -76.86)" fill="#12263f"/>
        <path id="Trazado_800931" data-name="Trazado 800931" d="M261.689,268.268a8.483,8.483,0,0,1-.267-3.472,4.287,4.287,0,0,1,.314,1.723,4.368,4.368,0,0,1-.047,1.75" transform="translate(-79.217 -80.267)" fill="#455a64"/>
        <path id="Trazado_800932" data-name="Trazado 800932" d="M262.46,278.235a8.455,8.455,0,0,1-.27-3.473,8.455,8.455,0,0,1,.27,3.473" transform="translate(-79.45 -83.288)" fill="#455a64"/>
        <path id="Trazado_800933" data-name="Trazado 800933" d="M263.232,288.2a8.457,8.457,0,0,1-.268-3.474,8.459,8.459,0,0,1,.268,3.474" transform="translate(-79.684 -86.31)" fill="#455a64"/>
        <path id="Trazado_800934" data-name="Trazado 800934" d="M263.989,298.168a8.448,8.448,0,0,1-.261-3.473,8.451,8.451,0,0,1,.261,3.473" transform="translate(-79.916 -89.331)" fill="#455a64"/>
        <path id="Trazado_800935" data-name="Trazado 800935" d="M264.721,308.139a8.441,8.441,0,0,1-.251-3.475,8.442,8.442,0,0,1,.251,3.475" transform="translate(-80.14 -92.353)" fill="#455a64"/>
        <path id="Trazado_800936" data-name="Trazado 800936" d="M265.415,318.113a8.461,8.461,0,0,1-.236-3.476,8.461,8.461,0,0,1,.236,3.476" transform="translate(-80.354 -95.376)" fill="#455a64"/>
        <path id="Trazado_800937" data-name="Trazado 800937" d="M266.059,328.092a8.45,8.45,0,0,1-.217-3.477,8.451,8.451,0,0,1,.217,3.477" transform="translate(-80.553 -98.4)" fill="#455a64"/>
        <path id="Trazado_800938" data-name="Trazado 800938" d="M266.64,338.075a8.467,8.467,0,0,1-.194-3.479,8.436,8.436,0,0,1,.194,3.479" transform="translate(-80.735 -101.426)" fill="#455a64"/>
        <path id="Trazado_800939" data-name="Trazado 800939" d="M267.149,348.062a8.455,8.455,0,0,1-.167-3.48,8.457,8.457,0,0,1,.167,3.48" transform="translate(-80.895 -104.453)" fill="#455a64"/>
        <path id="Trazado_800940" data-name="Trazado 800940" d="M267.57,358.053a8.458,8.458,0,0,1-.135-3.482,8.461,8.461,0,0,1,.135,3.482" transform="translate(-81.029 -107.481)" fill="#455a64"/>
        <path id="Trazado_800941" data-name="Trazado 800941" d="M267.891,368.048a8.447,8.447,0,0,1-.1-3.483,8.448,8.448,0,0,1,.1,3.483" transform="translate(-81.134 -110.51)" fill="#455a64"/>
        <path id="Trazado_800942" data-name="Trazado 800942" d="M268.094,378.046a8.433,8.433,0,0,1-.056-3.484,8.463,8.463,0,0,1,.056,3.484" transform="translate(-81.203 -113.541)" fill="#455a64"/>
        <path id="Trazado_800943" data-name="Trazado 800943" d="M268.161,385.953c-.1,0-.183-.311-.185-.7s.079-.7.178-.7.183.311.185.7-.078.7-.178.7" transform="translate(-81.231 -116.572)" fill="#455a64"/>
        <path id="Trazado_800944" data-name="Trazado 800944" d="M186.558,267.268a8.451,8.451,0,0,1,.019-3.484,8.451,8.451,0,0,1-.019,3.484" transform="translate(-56.499 -79.961)" fill="#455a64"/>
        <path id="Trazado_800945" data-name="Trazado 800945" d="M186.5,277.268a8.45,8.45,0,0,1,.019-3.484,8.451,8.451,0,0,1-.019,3.484" transform="translate(-56.483 -82.992)" fill="#455a64"/>
        <path id="Trazado_800946" data-name="Trazado 800946" d="M186.45,287.268a8.451,8.451,0,0,1,.019-3.484,8.45,8.45,0,0,1-.019,3.484" transform="translate(-56.466 -86.023)" fill="#455a64"/>
        <path id="Trazado_800947" data-name="Trazado 800947" d="M186.4,297.268a8.451,8.451,0,0,1,.019-3.484,8.451,8.451,0,0,1-.019,3.484" transform="translate(-56.45 -89.054)" fill="#455a64"/>
        <path id="Trazado_800948" data-name="Trazado 800948" d="M186.343,307.268a8.451,8.451,0,0,1,.019-3.484,8.451,8.451,0,0,1-.019,3.484" transform="translate(-56.434 -92.086)" fill="#455a64"/>
        <path id="Trazado_800949" data-name="Trazado 800949" d="M186.29,317.268a8.451,8.451,0,0,1,.019-3.484,8.45,8.45,0,0,1-.019,3.484" transform="translate(-56.418 -95.117)" fill="#455a64"/>
        <path id="Trazado_800950" data-name="Trazado 800950" d="M186.236,327.268a8.451,8.451,0,0,1,.019-3.484,8.451,8.451,0,0,1-.019,3.484" transform="translate(-56.401 -98.148)" fill="#455a64"/>
        <path id="Trazado_800951" data-name="Trazado 800951" d="M186.183,337.268a8.418,8.418,0,0,1,.019-3.484,8.482,8.482,0,0,1-.019,3.484" transform="translate(-56.385 -101.18)" fill="#455a64"/>
        <path id="Trazado_800952" data-name="Trazado 800952" d="M186.129,347.267a8.451,8.451,0,0,1,.019-3.484,8.451,8.451,0,0,1-.019,3.484" transform="translate(-56.369 -104.211)" fill="#455a64"/>
        <path id="Trazado_800953" data-name="Trazado 800953" d="M186.075,357.267a8.451,8.451,0,0,1,.019-3.484,8.451,8.451,0,0,1-.019,3.484" transform="translate(-56.353 -107.242)" fill="#455a64"/>
        <path id="Trazado_800954" data-name="Trazado 800954" d="M186.022,367.267a8.451,8.451,0,0,1,.019-3.484,8.45,8.45,0,0,1-.019,3.484" transform="translate(-56.336 -110.273)" fill="#455a64"/>
        <path id="Trazado_800955" data-name="Trazado 800955" d="M185.968,377.267a8.451,8.451,0,0,1,.019-3.484,8.451,8.451,0,0,1-.019,3.484" transform="translate(-56.32 -113.305)" fill="#455a64"/>
        <path id="Trazado_800956" data-name="Trazado 800956" d="M185.93,384.9c-.1,0-.18-.252-.178-.561s.084-.559.185-.559.18.252.178.561-.084.56-.185.559" transform="translate(-56.307 -116.336)" fill="#455a64"/>
        <path id="Trazado_800957" data-name="Trazado 800957" d="M258.938,272.458a5.407,5.407,0,0,1-1.663.173,15.121,15.121,0,0,1-7.727-2.085,5.383,5.383,0,0,1-1.349-.986,20.285,20.285,0,0,0,10.739,2.9" transform="translate(-75.236 -81.71)" fill="#455a64"/>
        <path id="Trazado_800958" data-name="Trazado 800958" d="M220.274,285.279a58.562,58.562,0,0,1-.181-6.51,58.56,58.56,0,0,1,.181-6.511,58.569,58.569,0,0,1,.181,6.511,58.571,58.571,0,0,1-.181,6.51" transform="translate(-66.717 -82.529)" fill="#455a64"/>
        <path id="Trazado_800959" data-name="Trazado 800959" d="M203.67,37.982c2.121-.439,3.707-2.153,5.585-3.23a10.1,10.1,0,0,1,9.326-.285c2.9,1.434,5.036,3.266,5.463,6.476l-3.3,4.239" transform="translate(-61.738 -10.144)" fill="#263238"/>
        <path id="Trazado_800960" data-name="Trazado 800960" d="M224.745,58.2l-3.009,35.4c-.512,6.02-2.493,14.758-11.974,13.514-8.144-1.7-9.568-9.7-9.084-15.321.229-2.664.415-4.886.42-5.162,0,0-8.939-1.614-8.831-10.588.052-4.337.886-13.26,1.735-21.324a16.715,16.715,0,0,1,17.036-14.953l.866.021c9.321.772,13.871,9.12,12.841,18.416" transform="translate(-58.282 -12.053)" fill="#ffd4bd"/>
        <path id="Trazado_800961" data-name="Trazado 800961" d="M204.889,105.51a20.867,20.867,0,0,0,11.776-3.039s-2.921,6.389-11.854,5.363Z" transform="translate(-62.084 -31.062)" fill="#fb987c"/>
        <path id="Trazado_800962" data-name="Trazado 800962" d="M196.582,67.144c.132.2,1.422.058,2.969.663,1.551.59,2.49,1.592,2.7,1.524.1-.026.006-.336-.4-.782a5.7,5.7,0,0,0-2.108-1.384,5.217,5.217,0,0,0-2.421-.363c-.567.072-.812.248-.745.341" transform="translate(-59.587 -20.241)" fill="#263238"/>
        <path id="Trazado_800963" data-name="Trazado 800963" d="M216.339,69.634c.219.095,1.22-.714,2.841-1.045,1.615-.347,2.942-.026,3.085-.2.072-.077-.177-.279-.757-.428A5.766,5.766,0,0,0,219,67.957a5.248,5.248,0,0,0-2.221,1c-.436.362-.546.638-.439.679" transform="translate(-65.567 -20.559)" fill="#263238"/>
        <path id="Trazado_800964" data-name="Trazado 800964" d="M219.173,70.892a.99.99,0,0,0,.93,1.022.947.947,0,0,0,1.042-.868.99.99,0,0,0-.929-1.022.947.947,0,0,0-1.043.868" transform="translate(-66.437 -21.225)" fill="#263238"/>
        <path id="Trazado_800965" data-name="Trazado 800965" d="M199.908,70.683a.99.99,0,0,0,.93,1.022.947.947,0,0,0,1.042-.868.99.99,0,0,0-.929-1.022.947.947,0,0,0-1.043.868" transform="translate(-60.598 -21.162)" fill="#263238"/>
        <path id="Trazado_800966" data-name="Trazado 800966" d="M207.752,77.96a9.118,9.118,0,0,0-2.229-.459c-.351-.045-.683-.123-.736-.364a1.788,1.788,0,0,1,.261-1.038l1.106-2.656a45.994,45.994,0,0,0,2.509-6.955,46.231,46.231,0,0,0-3.063,6.737c-.371.933-.725,1.822-1.063,2.673a2.037,2.037,0,0,0-.216,1.377.883.883,0,0,0,.566.529,2.382,2.382,0,0,0,.6.1,8.977,8.977,0,0,0,2.27.059" transform="translate(-61.918 -20.154)" fill="#263238"/>
        <path id="Trazado_800967" data-name="Trazado 800967" d="M217.1,60.6c.162.328,1.463.045,3.027.08,1.564,0,2.852.32,3.029,0,.078-.155-.169-.455-.7-.738a5.212,5.212,0,0,0-2.295-.535,5.275,5.275,0,0,0-2.319.477c-.548.27-.81.563-.739.72" transform="translate(-65.805 -18.006)" fill="#263238"/>
        <path id="Trazado_800968" data-name="Trazado 800968" d="M197.064,62.9c.13.285,1.323.1,2.737.193,1.417.068,2.567.389,2.744.121.078-.128-.131-.392-.6-.654a4.955,4.955,0,0,0-2.052-.548,5.1,5.1,0,0,0-2.123.309c-.509.206-.76.443-.7.579" transform="translate(-59.733 -18.795)" fill="#263238"/>
        <path id="Trazado_800969" data-name="Trazado 800969" d="M237.343,75.628c.155-.062,6.208-1.673,5.863,4.456s-6.427,4.517-6.428,4.342.564-8.8.564-8.8" transform="translate(-71.775 -22.854)" fill="#ffd4bd"/>
        <path id="Trazado_800970" data-name="Trazado 800970" d="M239.65,83.092c.029-.018.1.081.279.174a1.068,1.068,0,0,0,.8.061,2.647,2.647,0,0,0,1.355-2.3,3.528,3.528,0,0,0-.213-1.546,1.238,1.238,0,0,0-.757-.865.545.545,0,0,0-.647.257c-.092.167-.06.291-.093.3s-.126-.11-.062-.361a.68.68,0,0,1,.262-.37.806.806,0,0,1,.6-.123,1.5,1.5,0,0,1,1.062,1.013,3.625,3.625,0,0,1,.274,1.729,2.776,2.776,0,0,1-1.707,2.559,1.145,1.145,0,0,1-.967-.217c-.181-.162-.206-.3-.184-.311" transform="translate(-72.643 -23.737)" fill="#fb987c"/>
        <path id="Trazado_800971" data-name="Trazado 800971" d="M192.1,52.152A12.962,12.962,0,0,0,203.67,49.84c2.227-1.8,3.976-4.417,6.731-5.192a7.29,7.29,0,0,1,5.554.9,14.074,14.074,0,0,1,4.13,3.986c-1.844,4.516-.8,9.634.261,14.4a2.438,2.438,0,0,0,.679,1.432,1.95,1.95,0,0,0,2.458-.48,7.574,7.574,0,0,0,1.761-3.959,25.222,25.222,0,0,0,.183-9.95,17.185,17.185,0,0,0-4.509-8.785,16.276,16.276,0,0,0-11.309-4.592,20,20,0,0,0-11.691,3.862,11.71,11.71,0,0,0-3.872,4.247" transform="translate(-58.23 -11.396)" fill="#263238"/>
        <path id="Trazado_800972" data-name="Trazado 800972" d="M226.483,52.551c-.532,3.544-3.04,10.075-2.965,10.128a3,3,0,0,0-2.507.408c-.9.661-1.763,1.6-3.082.935a2.544,2.544,0,0,1-1.3-1.73,34.9,34.9,0,0,1-.07-14.85,11.212,11.212,0,0,0-3.2-2.824l.1.105c-2.4-1.107-5.134-2.231-7.608-1.293-1.918.728-3.18,2.522-4.7,3.9a14.888,14.888,0,0,1-10.773,3.614c-.376,2.493-.393,5.6-.769,8.092l-1.879-4.754c-1.255,2.686-4.626,2.37-4.626,2.37l-.843-3.185c2.2-.12,4.359-2.647,4.359-2.647s-3.976,1.993-6.061.258l-.629-3.741c3.742.693,7.286-2.925,9.034-5.095a29.668,29.668,0,0,1,3.91-3.973c2.969-2.518,5.374-4.2,7.76-4.9a20.771,20.771,0,0,1,11.118.209c3.017,1.114,5.553,3.9,5.675,7.112,1.914-1.323,4.583-1.024,6.629.081,0,0,5.985,3.128,2.349,11.846" transform="translate(-54.541 -9.918)" fill="#263238"/>
        <path id="Trazado_800973" data-name="Trazado 800973" d="M217.777,52.48c-.036.022-.328-.455-1-1.2A11.271,11.271,0,0,0,213.5,48.7a11.644,11.644,0,0,0-2.767-.817,5.808,5.808,0,0,0-3.211.183c-2.171.849-3.62,3.238-5.891,4.862a13.849,13.849,0,0,1-7.243,2.8,16.592,16.592,0,0,1-1.76.06,1.672,1.672,0,0,0-.728.1,7.322,7.322,0,0,0-.665.4,6.583,6.583,0,0,0-1.707,2.252,5.339,5.339,0,0,1-3.473,2.452,5.651,5.651,0,0,1-1.164.125,1.208,1.208,0,0,1-.407-.038c0-.049.566-.02,1.527-.27a5.264,5.264,0,0,0,3.223-2.448,6.686,6.686,0,0,1,1.785-2.413,7.227,7.227,0,0,1,.712-.438,2.057,2.057,0,0,1,.9-.146,16.9,16.9,0,0,0,1.712-.079,13.615,13.615,0,0,0,6.992-2.746,25.558,25.558,0,0,0,2.938-2.67,9.35,9.35,0,0,1,3.083-2.22,6.167,6.167,0,0,1,3.443-.163,11.617,11.617,0,0,1,2.846.9,10.683,10.683,0,0,1,3.28,2.769,8.245,8.245,0,0,1,.671.955,1.193,1.193,0,0,1,.179.367" transform="translate(-55.922 -14.344)" fill="#455a64"/>
        <path id="Trazado_800974" data-name="Trazado 800974" d="M210.743,87.642c-.052-.161,1.179-.4,2.13-1.442a6.9,6.9,0,0,0,1-1.512c.221-.425.383-.691.447-.663s.015.323-.13.8a4.536,4.536,0,0,1-.96,1.709,3.67,3.67,0,0,1-1.676,1.042c-.484.143-.8.124-.812.07" transform="translate(-63.882 -25.47)" fill="#263238"/>
        <path id="Trazado_800975" data-name="Trazado 800975" d="M211.081,65.856c-.041.1-.889-.217-1.974-.2-1.085,0-1.928.325-1.971.226a3.661,3.661,0,0,1,3.944-.024" transform="translate(-62.789 -19.792)" fill="#455a64"/>
        <path id="Trazado_800976" data-name="Trazado 800976" d="M190.979,65.76a5.662,5.662,0,0,1,.807-.022l2.332.013c2.009.019,4.88.056,8.256.129l.165,0v.166a19.647,19.647,0,0,1-.277,3.27,9.62,9.62,0,0,1-1.133,3.348,5.263,5.263,0,0,1-2.828,2.388,6.081,6.081,0,0,1-3.455.1,5.229,5.229,0,0,1-2.691-1.6,5.832,5.832,0,0,1-1.125-2.483,14.268,14.268,0,0,1-.238-3.9,7.085,7.085,0,0,1,.19-1.417c.02.028-.02.5-.049,1.423a15.549,15.549,0,0,0,.347,3.833,5.663,5.663,0,0,0,1.1,2.345,4.958,4.958,0,0,0,2.545,1.47,5.779,5.779,0,0,0,3.258-.112,4.932,4.932,0,0,0,2.633-2.238,9.37,9.37,0,0,0,1.093-3.224,19.913,19.913,0,0,0,.291-3.21l.164.169-8.146-.286-2.366-.106a7.58,7.58,0,0,1-.874-.064" transform="translate(-57.822 -19.927)" fill="#455a64"/>
        <path id="Trazado_800977" data-name="Trazado 800977" d="M212.681,65.968a5.665,5.665,0,0,1,.807-.022l2.332.013c2.009.019,4.88.056,8.256.129l.165,0v.166a19.717,19.717,0,0,1-.277,3.27,9.619,9.619,0,0,1-1.133,3.348A5.263,5.263,0,0,1,220,75.264a6.081,6.081,0,0,1-3.455.1,5.228,5.228,0,0,1-2.691-1.6,5.832,5.832,0,0,1-1.125-2.483,14.268,14.268,0,0,1-.238-3.9,7.087,7.087,0,0,1,.19-1.417c.02.029-.02.5-.049,1.424a15.545,15.545,0,0,0,.347,3.832,5.661,5.661,0,0,0,1.1,2.346,4.958,4.958,0,0,0,2.545,1.469,5.779,5.779,0,0,0,3.258-.112,4.932,4.932,0,0,0,2.633-2.238,9.37,9.37,0,0,0,1.093-3.224,19.915,19.915,0,0,0,.291-3.21l.164.169-8.146-.286-2.367-.106a7.577,7.577,0,0,1-.874-.064" transform="translate(-64.401 -19.99)" fill="#455a64"/>
        <path id="Trazado_800978" data-name="Trazado 800978" d="M236.248,73.152a33.686,33.686,0,0,1-3.652-3.311,33.63,33.63,0,0,1-3.4-3.571,33.618,33.618,0,0,1,3.653,3.312,33.622,33.622,0,0,1,3.4,3.571" transform="translate(-69.475 -20.088)" fill="#455a64"/>
        <path id="Trazado_800979" data-name="Trazado 800979" d="M183.539,219.684s18.413-2.277,18.9,3.828c1.166,14.64,41.248-1.384,41.639-2.019l2.523-32.3-7.56-57.552L226.25,117.683s-2.328-.434-8.669,1.517-18.721.021-22.041-.965-7.953,11.207-7.953,11.207Z" transform="translate(-55.636 -35.661)" fill="#455a64"/>
        <path id="Trazado_800980" data-name="Trazado 800980" d="M232.548,103.459l8.554,4.78,1.607,4.811a42.47,42.47,0,0,1,11.224,1.731c5.787,1.761,30.191,11.825,30.191,11.825s-17.108,7.8-19.625,9.813-4.814,15.179-4.688,25.494,4.436,39.416.914,45.7-5.787,7.045-5.787,7.045l-24.655,6.29s1.509-3.271,0-19.624-3.774-39.5-3.271-51.073-2.013-11.07,2.013-18.869,3.522-11.321,3.522-11.321Z" transform="translate(-68.717 -31.361)" fill="#1969d5"/>
        <path id="Trazado_800981" data-name="Trazado 800981" d="M259.471,158.858a7.405,7.405,0,0,1-1.182.127c-.762.059-1.866.125-3.231.194-2.73.139-6.505.269-10.676.312s-7.949-.013-10.682-.1c-1.367-.041-2.471-.086-3.235-.13a7.472,7.472,0,0,1-1.184-.1,7.412,7.412,0,0,1,1.188-.038l3.236.014c2.731.018,6.5.032,10.673-.01s7.939-.132,10.67-.2l3.234-.079a7.5,7.5,0,0,1,1.189.015" transform="translate(-69.502 -48.148)" fill="#263238"/>
        <path id="Trazado_800982" data-name="Trazado 800982" d="M260.946,160.089a.94.94,0,0,1,.119.276,5.63,5.63,0,0,1,.2.835,6.329,6.329,0,0,1-.266,3.144,5.715,5.715,0,0,1-3.193,3.367,5.8,5.8,0,0,1-2.78.348,16.743,16.743,0,0,1-2.91-.629l-5.481-1.557c-.843-.248-1.638-.458-2.393-.7a3.224,3.224,0,0,1-1.792-1.3,4.033,4.033,0,0,1-.569-1.733,7.916,7.916,0,0,1-.027-1.362c.022-.372.058-.659.085-.852a.99.99,0,0,1,.063-.293c.03,0,0,.413-.007,1.15a8.8,8.8,0,0,0,.087,1.331,3.9,3.9,0,0,0,.581,1.618c.691,1.151,2.415,1.311,4.061,1.821l5.489,1.53a17,17,0,0,0,2.847.624,5.294,5.294,0,0,0,5.7-3.45,6.548,6.548,0,0,0,.367-3.036c-.082-.73-.215-1.121-.183-1.13" transform="translate(-73.309 -48.389)" fill="#263238"/>
        <path id="Trazado_800983" data-name="Trazado 800983" d="M240.635,232.348c-.1,0-.774-16.333-1.5-36.485s-1.24-36.5-1.141-36.5.774,16.33,1.5,36.489,1.241,36.494,1.141,36.5" transform="translate(-72.138 -48.307)" fill="#263238"/>
        <path id="Trazado_800984" data-name="Trazado 800984" d="M236.542,237.258a11.714,11.714,0,0,1-4.1-.146,11.711,11.711,0,0,1,4.1.146" transform="translate(-70.459 -71.838)" fill="#263238"/>
        <path id="Trazado_800985" data-name="Trazado 800985" d="M234.7,210.073a8.632,8.632,0,0,1-3.518.109,8.632,8.632,0,0,1,3.518-.109" transform="translate(-70.077 -63.638)" fill="#263238"/>
        <path id="Trazado_800986" data-name="Trazado 800986" d="M233.745,183.052a12.544,12.544,0,0,1-4.249,0,12.545,12.545,0,0,1,4.249,0" transform="translate(-69.567 -55.434)" fill="#263238"/>
        <path id="Trazado_800987" data-name="Trazado 800987" d="M275.826,137.158a3.382,3.382,0,0,1-.1.79c-.1.579-.228,1.291-.376,2.129-.31,1.8-.686,4.289-.953,7.057s-.369,5.287-.407,7.111c-.014.851-.026,1.573-.036,2.16a3.405,3.405,0,0,1-.05.8,3.348,3.348,0,0,1-.091-.792c-.037-.51-.066-1.25-.079-2.165a66.8,66.8,0,0,1,1.365-14.214c.187-.9.355-1.617.489-2.111a3.345,3.345,0,0,1,.24-.76" transform="translate(-82.974 -41.577)" fill="#263238"/>
        <path id="Trazado_800988" data-name="Trazado 800988" d="M260.317,257.839a6.666,6.666,0,0,1-1.047.415c-.681.248-1.675.582-2.909.975-2.468.785-5.913,1.771-9.775,2.626s-7.4,1.406-9.974,1.732c-1.285.162-2.327.277-3.048.339a6.635,6.635,0,0,1-1.125.063,6.807,6.807,0,0,1,1.107-.2l3.03-.453c2.556-.391,6.079-.985,9.932-1.833s7.3-1.8,9.779-2.517l2.939-.863a6.658,6.658,0,0,1,1.091-.282" transform="translate(-70.459 -78.157)" fill="#263238"/>
        <path id="Trazado_800989" data-name="Trazado 800989" d="M267.648,232.175a3,3,0,0,1-.754-.014,16.413,16.413,0,0,1-2.035-.278,22.658,22.658,0,0,1-11.792-6.338A16.562,16.562,0,0,1,251.712,224a3.032,3.032,0,0,1-.427-.621c.052-.042.719.8,1.962,1.981a24.959,24.959,0,0,0,11.666,6.27c1.675.382,2.742.477,2.735.543" transform="translate(-76.171 -67.713)" fill="#263238"/>
        <g id="Grupo_1065205" data-name="Grupo 1065205" transform="translate(162.411 81.604)" opacity="0.3">
          <g id="Grupo_1065204" data-name="Grupo 1065204">
            <g id="Grupo_1065203" data-name="Grupo 1065203" clip-path="url(#clip-path-4)">
              <path id="Trazado_800990" data-name="Trazado 800990" d="M233.058,129.987c2.038-.791,4.33-.312,6.427.3s4.245,1.368,6.413,1.093,4.348-1.985,4.273-4.17c-.072-2.138-2.106-3.6-3.928-4.727L238.3,117.6c-.571-.352-1.307-.707-1.871-.341a1.816,1.816,0,0,0-.62,1.223q-1.189,5.645-2.378,11.289" transform="translate(-233.058 -117.101)"/>
            </g>
          </g>
        </g>
        <path id="Trazado_800991" data-name="Trazado 800991" d="M250.173,119.658c.147-1.41-1.126-2.07-2.092-2.822-2.224-1.732-3.153-4.507-3.69-7.347a6.761,6.761,0,0,0-3.6-4.846,11.833,11.833,0,0,0-5.921-1.192l-.515,20.464a4.445,4.445,0,0,1,4.443-2.639c1.879.071,3.672.782,5.53,1.073,2,.314,4.318.015,5.473-1.72a2.184,2.184,0,0,0,.371-.971" transform="translate(-71.04 -31.353)" fill="#fafafa"/>
        <path id="Trazado_800992" data-name="Trazado 800992" d="M243.937,109.99a1.114,1.114,0,0,1,.125.3c.072.2.168.5.283.889.238.773.509,1.915.965,3.275a8.545,8.545,0,0,0,2.712,4.1c.355.3.769.564,1.169.884a3.153,3.153,0,0,1,1.024,1.231,2.1,2.1,0,0,1-.072,1.679,3.385,3.385,0,0,1-1.091,1.31,5.435,5.435,0,0,1-3.133.958,11.248,11.248,0,0,1-3.007-.4,15.229,15.229,0,0,0-4.937-.791,4.539,4.539,0,0,0-2.936,1.441,6.141,6.141,0,0,0-.684,1.032,2.6,2.6,0,0,1,.576-1.123,4.582,4.582,0,0,1,3.013-1.6,14.862,14.862,0,0,1,5.045.721,11.1,11.1,0,0,0,2.92.369,5.122,5.122,0,0,0,2.925-.893,3.041,3.041,0,0,0,.979-1.168,1.741,1.741,0,0,0,.071-1.4c-.378-.891-1.351-1.359-2.075-1.989a8.654,8.654,0,0,1-2.744-4.279c-.431-1.39-.662-2.537-.859-3.32a9.943,9.943,0,0,1-.272-1.226" transform="translate(-71.04 -33.341)" fill="#263238"/>
        <path id="Trazado_800993" data-name="Trazado 800993" d="M259.811,164.438a1.617,1.617,0,1,1-1.617-1.617,1.617,1.617,0,0,1,1.617,1.617" transform="translate(-77.776 -49.356)" fill="#ebebeb"/>
        <path id="Trazado_800994" data-name="Trazado 800994" d="M259.733,164.37c-.03,0-.04-.144-.119-.378a1.621,1.621,0,0,0-.6-.806,1.5,1.5,0,0,0-1.394-.178,1.454,1.454,0,0,0,0,2.722,1.494,1.494,0,0,0,1.394-.178,1.613,1.613,0,0,0,.6-.8c.079-.234.089-.378.119-.378s.059.145.018.412a1.613,1.613,0,0,1-.579.975,1.733,1.733,0,0,1-1.663.289,1.774,1.774,0,0,1,0-3.351,1.733,1.733,0,0,1,1.663.289,1.611,1.611,0,0,1,.579.975c.041.267,0,.413-.018.412" transform="translate(-77.697 -49.288)" fill="#263238"/>
        <path id="Trazado_800995" data-name="Trazado 800995" d="M190.165,108.076s-5.535,3.019-6.542,5.032c0,0-12.156,2.741-14.34,3.522-4.537,1.622-12.5,9.675-12.5,9.675l9.8,10.366s4.468,68.518,6.983,75.562l3.043,2,6.66,2.552s-2.658-59.648,2.123-73.485l3.132-9.935,1.648-23.778Z" transform="translate(-47.525 -32.761)" fill="#1969d5"/>
        <g id="Grupo_1065208" data-name="Grupo 1065208" transform="translate(130.977 93.376)" opacity="0.3">
          <g id="Grupo_1065207" data-name="Grupo 1065207">
            <g id="Grupo_1065206" data-name="Grupo 1065206" clip-path="url(#clip-path-5)">
              <path id="Trazado_800996" data-name="Trazado 800996" d="M196.231,136.1a4.324,4.324,0,0,0-3.468-2.1,5.137,5.137,0,0,0-3.828,1.484l-.929.429a2.154,2.154,0,0,0,1.806,2.568,7.352,7.352,0,0,0,2.085-.371,1.837,1.837,0,0,1,1.928.537,3.14,3.14,0,0,1,.314,1.1,1.2,1.2,0,0,0,.606.92c.468.19.98-.17,1.282-.574a3.739,3.739,0,0,0,.2-3.99" transform="translate(-187.95 -133.993)"/>
            </g>
          </g>
        </g>
        <path id="Trazado_800997" data-name="Trazado 800997" d="M192.67,112.5c-1.287,1.881-1.739,3.964-2.575,6.084a14.867,14.867,0,0,1-3.443,5.43,4.6,4.6,0,0,0-1.387,2.5c-.074,1.164,1.2,1.546,2.362,1.507a12.11,12.11,0,0,0,3.392-.553c1.109-.36,2.991-.475,3.81.355a7.6,7.6,0,0,1,1.132,1.323c.3.5.074,1.168.654,1.117.952-.084,1.229-1.33,1.252-2.285.156-6.4.775-13.493.93-19.9-2.266.243-4.84,2.539-6.128,4.42" transform="translate(-56.158 -32.761)" fill="#fafafa"/>
        <path id="Trazado_800998" data-name="Trazado 800998" d="M198.712,108.073a10.056,10.056,0,0,0-1.39.391,9.093,9.093,0,0,0-3.123,2.331,15.571,15.571,0,0,0-1.654,2.15,13.823,13.823,0,0,0-1.295,2.828,30.508,30.508,0,0,1-3.13,6.525,17.393,17.393,0,0,1-1.159,1.523c-.4.486-.861.92-1.22,1.367a1.476,1.476,0,0,0-.33,1.486,1.683,1.683,0,0,0,1.1,1.011,6.449,6.449,0,0,0,3.036-.036,19.117,19.117,0,0,1,2.72-.459,4.469,4.469,0,0,1,2.263.387,3,3,0,0,1,1.254,1.2,2.1,2.1,0,0,1,.272,1.061.994.994,0,0,1-.066.375,2.39,2.39,0,0,0-.329-1.366,2.921,2.921,0,0,0-1.221-1.087,4.327,4.327,0,0,0-2.157-.314,19.866,19.866,0,0,0-2.677.5,6.656,6.656,0,0,1-3.2.059,2.02,2.02,0,0,1-1.323-1.211,1.622,1.622,0,0,1-.065-.964,2.319,2.319,0,0,1,.439-.857c.4-.5.836-.9,1.226-1.383a17.388,17.388,0,0,0,1.134-1.493,31.345,31.345,0,0,0,3.118-6.44,13.853,13.853,0,0,1,1.353-2.87,15.216,15.216,0,0,1,1.721-2.164,8.81,8.81,0,0,1,3.259-2.289,4.967,4.967,0,0,1,1.061-.248,1.489,1.489,0,0,1,.379-.01" transform="translate(-56.072 -32.758)" fill="#263238"/>
        <path id="Trazado_800999" data-name="Trazado 800999" d="M185.419,223.385a1.048,1.048,0,0,1-.048-.221c-.027-.167-.062-.382-.106-.654-.082-.576-.229-1.422-.357-2.521-.292-2.192-.616-5.377-.868-9.323a250.876,250.876,0,0,1,.229-30.876c.371-6.02.849-11.756,1.6-16.934a94.878,94.878,0,0,1,2.879-13.588,64.064,64.064,0,0,1,3.263-8.777c.439-1.015.87-1.762,1.124-2.284l.308-.586a1.043,1.043,0,0,1,.116-.194,1.091,1.091,0,0,1-.083.21l-.275.6c-.233.533-.643,1.288-1.061,2.309a68.659,68.659,0,0,0-3.145,8.791,97.619,97.619,0,0,0-2.8,13.563c-.729,5.168-1.2,10.893-1.567,16.91a267.577,267.577,0,0,0-.335,30.838c.219,3.942.5,7.127.752,9.321.106,1.1.231,1.948.289,2.528.029.273.052.491.07.659a1.041,1.041,0,0,1,.012.226" transform="translate(-55.675 -41.658)" fill="#263238"/>
        <path id="Trazado_801000" data-name="Trazado 801000" d="M183.149,162.583a1.978,1.978,0,0,1-.591-.151,15.6,15.6,0,0,1-1.547-.6,22.791,22.791,0,0,1-8.577-6.677,15.526,15.526,0,0,1-.963-1.351,1.982,1.982,0,0,1-.292-.537c.049-.033.549.671,1.453,1.725a26.8,26.8,0,0,0,8.489,6.608c1.243.617,2.049.929,2.029.985" transform="translate(-51.889 -46.459)" fill="#263238"/>
        <path id="Trazado_801001" data-name="Trazado 801001" d="M191.64,176.42a1.617,1.617,0,1,1-1.617-1.617,1.617,1.617,0,0,1,1.617,1.617" transform="translate(-57.112 -52.988)" fill="#ebebeb"/>
        <path id="Trazado_801002" data-name="Trazado 801002" d="M191.562,176.352c-.03,0-.04-.144-.119-.378a1.621,1.621,0,0,0-.6-.806,1.5,1.5,0,0,0-1.394-.178,1.454,1.454,0,0,0,0,2.722,1.494,1.494,0,0,0,1.394-.178,1.613,1.613,0,0,0,.6-.8c.079-.234.089-.378.119-.378s.059.145.018.412a1.611,1.611,0,0,1-.578.975,1.734,1.734,0,0,1-1.664.288,1.774,1.774,0,0,1,0-3.351,1.733,1.733,0,0,1,1.663.288,1.611,1.611,0,0,1,.579.975c.041.267,0,.413-.018.412" transform="translate(-57.033 -52.92)" fill="#263238"/>
        <path id="Trazado_801003" data-name="Trazado 801003" d="M196.5,152.563a1.617,1.617,0,1,1-1.617-1.617,1.617,1.617,0,0,1,1.617,1.617" transform="translate(-58.585 -45.756)" fill="#ebebeb"/>
        <path id="Trazado_801004" data-name="Trazado 801004" d="M196.422,152.495c-.03,0-.04-.144-.119-.378a1.621,1.621,0,0,0-.6-.806,1.5,1.5,0,0,0-1.394-.178,1.454,1.454,0,0,0,0,2.722,1.5,1.5,0,0,0,1.394-.178,1.617,1.617,0,0,0,.6-.806c.079-.234.089-.378.119-.378s.059.145.018.412a1.613,1.613,0,0,1-.579.975,1.732,1.732,0,0,1-1.663.288,1.774,1.774,0,0,1,0-3.351,1.733,1.733,0,0,1,1.663.289,1.611,1.611,0,0,1,.579.975c.041.267,0,.413-.018.412" transform="translate(-58.506 -45.688)" fill="#263238"/>
        <path id="Trazado_801005" data-name="Trazado 801005" d="M189.32,204.806a1.617,1.617,0,1,1-1.617-1.617,1.617,1.617,0,0,1,1.617,1.617" transform="translate(-56.408 -61.593)" fill="#ebebeb"/>
        <path id="Trazado_801006" data-name="Trazado 801006" d="M189.242,204.738c-.03,0-.04-.144-.119-.378a1.621,1.621,0,0,0-.6-.806,1.5,1.5,0,0,0-1.394-.178,1.454,1.454,0,0,0,0,2.722,1.5,1.5,0,0,0,1.394-.178,1.617,1.617,0,0,0,.6-.806c.079-.234.089-.378.119-.378s.059.145.018.412a1.611,1.611,0,0,1-.578.975,1.734,1.734,0,0,1-1.664.289,1.774,1.774,0,0,1,0-3.351,1.733,1.733,0,0,1,1.663.289,1.611,1.611,0,0,1,.579.975c.041.267,0,.413-.018.412" transform="translate(-56.33 -61.525)" fill="#263238"/>
        <path id="Trazado_801007" data-name="Trazado 801007" d="M189.32,232.985a1.617,1.617,0,1,1-1.617-1.617,1.617,1.617,0,0,1,1.617,1.617" transform="translate(-56.408 -70.134)" fill="#ebebeb"/>
        <path id="Trazado_801008" data-name="Trazado 801008" d="M189.242,232.917c-.03,0-.04-.144-.119-.378a1.621,1.621,0,0,0-.6-.806,1.5,1.5,0,0,0-1.394-.178,1.454,1.454,0,0,0,0,2.722,1.494,1.494,0,0,0,1.394-.178,1.613,1.613,0,0,0,.6-.8c.079-.234.089-.378.119-.378s.059.145.018.412a1.611,1.611,0,0,1-.578.975,1.734,1.734,0,0,1-1.664.289,1.774,1.774,0,0,1,0-3.351,1.733,1.733,0,0,1,1.663.288,1.611,1.611,0,0,1,.579.975c.041.267,0,.413-.018.412" transform="translate(-56.33 -70.067)" fill="#263238"/>
        <g id="Grupo_1065211" data-name="Grupo 1065211" transform="translate(169.79 111.253)" opacity="0.3">
          <g id="Grupo_1065210" data-name="Grupo 1065210">
            <g id="Grupo_1065209" data-name="Grupo 1065209" clip-path="url(#clip-path-6)">
              <path id="Trazado_801009" data-name="Trazado 801009" d="M262.2,164.116a5.58,5.58,0,0,1-4.331,2.433,13.757,13.757,0,0,1-5.071-.745c-1.9-.562-4.951-1.132-6.783-1.9-1.77-.739-2.148-2.17-2.265-4.259l-.007.105a6.267,6.267,0,0,0,2.891,6.335,18.216,18.216,0,0,0,7.28,2.433,10.834,10.834,0,0,0,5.56-.063c1.76-.649,3.212-2.528,2.727-4.341" transform="translate(-243.647 -159.646)"/>
            </g>
          </g>
        </g>
        <g id="Grupo_1065214" data-name="Grupo 1065214" transform="translate(174.515 161.826)" opacity="0.3">
          <g id="Grupo_1065213" data-name="Grupo 1065213">
            <g id="Grupo_1065212" data-name="Grupo 1065212" clip-path="url(#clip-path-7)">
              <path id="Trazado_801010" data-name="Trazado 801010" d="M253.433,239.665c-2.088-2.5-2.335-4.482-2.746-7.447a12.458,12.458,0,0,0,.354,6.284,8.863,8.863,0,0,0,4.13,5.737,6.142,6.142,0,0,0,6.816-.528,11.453,11.453,0,0,1-8.553-4.045" transform="translate(-250.426 -232.218)"/>
            </g>
          </g>
        </g>
        <path id="Trazado_801011" data-name="Trazado 801011" d="M208.072,223.729c.1,0,.551,7.209,1.007,16.112s.745,16.127.645,16.132-.551-7.208-1.007-16.113-.745-16.126-.645-16.13" transform="translate(-63.067 -67.819)" fill="#263238"/>
        <path id="Trazado_801012" data-name="Trazado 801012" d="M124.9,123.495l-6.659-1.951-21.779,1.951-4.047,8.079,5.4,6.771,19.531.885,9.085-5.914Z" transform="translate(-28.014 -36.844)" fill="#b8695e"/>
        <path id="Trazado_801013" data-name="Trazado 801013" d="M142.587,63.515a5.916,5.916,0,0,0-.257-10.306l-7.075-1.49q.067,13.354-.047,26.708a10.023,10.023,0,0,0,5.057-2.059,4.47,4.47,0,0,0,1.381-4.977,4.684,4.684,0,0,0,.941-7.876" transform="translate(-40.985 -15.678)" fill="#263238"/>
        <path id="Trazado_801014" data-name="Trazado 801014" d="M96.983,63.767l-.11-3.158L115.8,56.717c5.842-.706,12.256,5.066,12.713,10.932.509,6.518.871,14.5.171,19.375-1.41,9.812-8.893,11.169-8.893,11.169l.446,9.669c.148,5.648-4.589,6.962-10.238,7.117a10.239,10.239,0,0,1-10.5-9.617Z" transform="translate(-29.365 -17.175)" fill="#b8695e"/>
        <path id="Trazado_801015" data-name="Trazado 801015" d="M135.491,81.69a1.255,1.255,0,0,1-1.192,1.284,1.2,1.2,0,0,1-1.311-1.112,1.256,1.256,0,0,1,1.19-1.286,1.2,1.2,0,0,1,1.312,1.114" transform="translate(-40.312 -24.424)" fill="#263238"/>
        <path id="Trazado_801016" data-name="Trazado 801016" d="M117.13,82.667a1.255,1.255,0,0,1-1.192,1.284,1.2,1.2,0,0,1-1.311-1.112,1.256,1.256,0,0,1,1.19-1.286,1.2,1.2,0,0,1,1.312,1.114" transform="translate(-34.746 -24.72)" fill="#263238"/>
        <path id="Trazado_801017" data-name="Trazado 801017" d="M137.231,77.883c-.153.166-1.115-.523-2.466-.5-1.35,0-2.33.714-2.479.551-.073-.072.081-.369.508-.691a3.445,3.445,0,0,1,1.982-.643,3.3,3.3,0,0,1,1.965.6c.42.312.566.606.49.681" transform="translate(-40.095 -23.219)" fill="#263238"/>
        <path id="Trazado_801018" data-name="Trazado 801018" d="M117.671,78.857c-.153.166-1.116-.523-2.466-.5-1.35,0-2.331.714-2.48.551-.072-.072.08-.37.509-.691a3.445,3.445,0,0,1,1.982-.643,3.307,3.307,0,0,1,1.965.6c.42.312.565.606.49.681" transform="translate(-34.165 -23.515)" fill="#263238"/>
        <path id="Trazado_801019" data-name="Trazado 801019" d="M127.242,88.464a8.95,8.95,0,0,1,2.188-.429c.344-.04.67-.114.725-.35a1.758,1.758,0,0,0-.246-1.02q-.5-1.245-1.059-2.611a45.052,45.052,0,0,1-2.393-6.837,45.207,45.207,0,0,1,2.937,6.629q.532,1.375,1.017,2.627a2,2,0,0,1,.2,1.351.864.864,0,0,1-.56.513,2.346,2.346,0,0,1-.585.09,8.793,8.793,0,0,1-2.224.036" transform="translate(-38.328 -23.407)" fill="#263238"/>
        <path id="Trazado_801020" data-name="Trazado 801020" d="M123.879,114.854a25.918,25.918,0,0,1-13.5-3.318s3.5,6.914,13.618,5.868Z" transform="translate(-33.46 -33.81)" fill="#925249"/>
        <path id="Trazado_801021" data-name="Trazado 801021" d="M121.335,96.9A2.72,2.72,0,0,1,123.2,95.86c1.034-.127,2.091-.117,2.662.813a1.436,1.436,0,0,1-.02,1.254c-.109.2-.029.1-.206.249a6.616,6.616,0,0,1-2.225,1.213,2,2,0,0,1-2.178-.517,1.728,1.728,0,0,1,.1-1.976" transform="translate(-36.669 -29.041)" fill="#925249"/>
        <path id="Trazado_801022" data-name="Trazado 801022" d="M121.814,94.782c.219-.016.244,1.45,1.514,2.472s2.829.838,2.844,1.043c.022.091-.344.29-1,.317a3.649,3.649,0,0,1-2.372-.787,3.184,3.184,0,0,1-1.176-2.075c-.064-.613.093-.978.194-.971" transform="translate(-36.862 -28.731)" fill="#263238"/>
        <path id="Trazado_801023" data-name="Trazado 801023" d="M118.017,73.18c-.128.369-1.479.215-3.061.429-1.586.183-2.857.666-3.073.339-.1-.156.121-.5.633-.868a5.372,5.372,0,0,1,4.673-.585c.585.226.882.51.828.685" transform="translate(-33.908 -21.888)" fill="#263238"/>
        <path id="Trazado_801024" data-name="Trazado 801024" d="M137.231,71.2c-.233.31-1.169.006-2.288.007-1.119-.038-2.063.237-2.286-.081-.1-.154.047-.464.456-.76a3.313,3.313,0,0,1,3.686.059c.4.309.534.624.432.775" transform="translate(-40.203 -21.169)" fill="#263238"/>
        <path id="Trazado_801025" data-name="Trazado 801025" d="M128.82,52.443a6.083,6.083,0,0,0,2.274-6.312,6.94,6.94,0,0,0-4.788-4.842,7.3,7.3,0,0,0-1.422-.245,6.29,6.29,0,0,0-3.055-.825,3.286,3.286,0,0,0-2.541-2.532,7.844,7.844,0,0,0-3.765.2,6.384,6.384,0,0,0-10.276.6,5.227,5.227,0,0,0-7.687,3.332,5.207,5.207,0,0,0-3.707,1.81,5.1,5.1,0,0,0-.824,1.358,4.962,4.962,0,0,0-.9,1.948,5.882,5.882,0,0,0-2.5,10.753,5.377,5.377,0,0,0,1.3,8.519,6.882,6.882,0,0,0,.608,5.379,3.337,3.337,0,0,0,1.747,1.578,1.294,1.294,0,0,0,.157.365c.6.908,2.033.489,2.874-.2a11.862,11.862,0,0,0,3.666-6.858c.55-2.585.654-5.247,1.178-7.837.011-.058.024-.119.037-.183a7.176,7.176,0,0,1,1.36-2.951,18.837,18.837,0,0,0,2.368,1.471,7.8,7.8,0,0,0,9.04-1.934,11.437,11.437,0,0,0,7.311,2.547,11,11,0,0,0,7.229-2.283,3.664,3.664,0,0,0,1.122-1.663,1.116,1.116,0,0,0-.8-1.2" transform="translate(-26.368 -10.785)" fill="#263238"/>
        <path id="Trazado_801026" data-name="Trazado 801026" d="M97.194,85.238c-.13-.066-5.285-1.935-5.454,3.435S97,93.106,97.01,92.952s.183-7.714.183-7.714" transform="translate(-27.808 -25.727)" fill="#b8695e"/>
        <path id="Trazado_801027" data-name="Trazado 801027" d="M96.028,91.611c-.023-.018-.1.063-.256.13a.937.937,0,0,1-.7-.008,2.315,2.315,0,0,1-1.006-2.111,3.082,3.082,0,0,1,.3-1.331,1.081,1.081,0,0,1,.726-.7.476.476,0,0,1,.544.274c.067.153.03.259.058.268s.118-.086.082-.309a.6.6,0,0,0-.2-.343.7.7,0,0,0-.513-.153,1.316,1.316,0,0,0-1,.8,3.18,3.18,0,0,0-.371,1.486,2.432,2.432,0,0,0,1.291,2.362,1.006,1.006,0,0,0,.861-.115c.17-.128.2-.247.184-.257" transform="translate(-28.401 -26.472)" fill="#925249"/>
        <path id="Trazado_801028" data-name="Trazado 801028" d="M137.552,49.455a.479.479,0,0,1,.048.127,3.1,3.1,0,0,1,.093.387,4.106,4.106,0,0,1-1.164,3.6,4.225,4.225,0,0,1-2.864,1.19l.1-.084a9.223,9.223,0,0,1-2.227,4.668,7.133,7.133,0,0,1-2.363,1.779,5.91,5.91,0,0,1-3.089.455,10.48,10.48,0,0,1-2.981-.753,8.088,8.088,0,0,1-2.478-1.5h.162a9.729,9.729,0,0,1-4.5,2.5,7.651,7.651,0,0,1-4.039-.344,7.963,7.963,0,0,1-2.318-1.309,6.381,6.381,0,0,1-.528-.476,1.1,1.1,0,0,1-.165-.181c.013-.015.251.223.741.6a8.3,8.3,0,0,0,2.318,1.233,7.593,7.593,0,0,0,3.95.287,9.615,9.615,0,0,0,4.382-2.472l.08-.075.082.076a7.961,7.961,0,0,0,2.406,1.438,10.337,10.337,0,0,0,2.912.733,5.689,5.689,0,0,0,2.968-.432,6.933,6.933,0,0,0,2.289-1.714,9.106,9.106,0,0,0,2.206-4.541l.013-.083h.083a4.077,4.077,0,0,0,2.756-1.108,3.952,3.952,0,0,0,1.135-2,4.213,4.213,0,0,0,.08-1.484c-.044-.342-.1-.519-.083-.523" transform="translate(-33.112 -14.991)" fill="#455a64"/>
        <path id="Trazado_801029" data-name="Trazado 801029" d="M94.74,51.461a11.339,11.339,0,0,0-.489,1.839,7.666,7.666,0,0,0,.818,4.787l.042.078-.068.058A4.944,4.944,0,0,0,93.6,60.39a4.749,4.749,0,0,0-.063,2.858,4.957,4.957,0,0,0,2.261,2.874l.1.055-.052.1a6.172,6.172,0,0,0-.656,3.345,6.658,6.658,0,0,0,.75,2.611,7.5,7.5,0,0,0,1.506,1.918.569.569,0,0,1-.139-.094,4.329,4.329,0,0,1-.376-.312A5.934,5.934,0,0,1,95.805,72.3a6.645,6.645,0,0,1-.82-2.663,6.306,6.306,0,0,1,.648-3.47l.046.156A5.16,5.16,0,0,1,93.3,63.317a4.953,4.953,0,0,1,.073-3A5.114,5.114,0,0,1,94.9,58.056l-.026.135a7.625,7.625,0,0,1-.754-4.913,6.942,6.942,0,0,1,.394-1.365c.061-.153.121-.264.157-.341s.06-.114.066-.111" transform="translate(-28.221 -15.599)" fill="#455a64"/>
        <path id="Trazado_801030" data-name="Trazado 801030" d="M131.214,224.629s10.408,31.032,11.127,42.177-6.569,70.388-6.569,70.388H107.387l-.941-61.032-3.282,61.032H74.71s-8.672-41.217-10.274-56.283c-.747-7.024,3.4-25.108,6.128-38.23A20.7,20.7,0,0,1,81.53,228.3Z" transform="translate(-19.506 -68.092)" fill="#727997"/>
        <path id="Trazado_801031" data-name="Trazado 801031" d="M126.269,231.2a8.047,8.047,0,0,1,.174,1.229c.086.794.194,1.944.289,3.369.2,2.848.332,6.8.219,11.153a119,119,0,0,1-.967,12.378l-.011.087-.084.01-2.459.3a4.813,4.813,0,0,1-.882.064,4.956,4.956,0,0,1,.866-.183l2.444-.4-.095.1c.29-2.816.7-7.3.825-12.361.114-4.346.02-8.283-.112-11.13-.07-1.378-.129-2.516-.173-3.371a8.116,8.116,0,0,1-.033-1.24" transform="translate(-37.148 -70.082)" fill="#263238"/>
        <path id="Trazado_801032" data-name="Trazado 801032" d="M119.908,234.821c.007.035-.161.067-.415.216a2.111,2.111,0,0,0-.807.9,2.043,2.043,0,0,0-.053,1.716,1.912,1.912,0,0,0,3.4-.254,2.043,2.043,0,0,0-.307-1.689,2.109,2.109,0,0,0-.932-.771c-.272-.11-.445-.117-.441-.153a.8.8,0,0,1,.485.018,2.061,2.061,0,0,1,1.1.755,2.259,2.259,0,0,1,.42,1.935,2.222,2.222,0,0,1-4.025.3,2.253,2.253,0,0,1,.129-1.975,2.053,2.053,0,0,1,.97-.909.8.8,0,0,1,.479-.09" transform="translate(-35.817 -71.163)" fill="#263238"/>
        <path id="Trazado_801033" data-name="Trazado 801033" d="M133.265,286.213c.062.079-3.3,2.815-7.511,6.111s-7.674,5.9-7.736,5.825,3.3-2.815,7.512-6.111,7.673-5.9,7.735-5.825" transform="translate(-35.775 -86.759)" fill="#263238"/>
        <path id="Trazado_801034" data-name="Trazado 801034" d="M138.516,128.048,121.44,121.9c1.92,6.147-.519,11.312-5.936,12.342a18.056,18.056,0,0,1-15.34-4.374c1.8,25.107,1.041,45.195,1.337,70.365,12.915-4.028,27.814-1.23,41.214-1.339-3.4-25.043-4.266-45.575-4.2-70.847" transform="translate(-30.363 -36.952)" fill="#c2ffc7"/>
        <path id="Trazado_801035" data-name="Trazado 801035" d="M34.979,34.111l4.928-23S42.273,5.476,44.034,3.5c0,0,1.7-4.482,3.443-2.835,0,0,1.981-1.921,2.669.786,0,0,2.65-2.277,3.577.135,0,0,2.842-.993,3.247,1.37,0,0,1.65-.685,2.291.328s.736,4.4.736,4.4l-4.718,5.065a5.021,5.021,0,0,1-3.305,1.55c-1.183.093-2.573.516-2.905,1.937-.6,2.581-1.388,18.413-1.388,18.413Z" transform="translate(-10.603 0)" fill="#b8695e"/>
        <path id="Trazado_801036" data-name="Trazado 801036" d="M51.256,10.393c-.006,0,.019-.056.075-.153a3.717,3.717,0,0,1,.274-.4,5.234,5.234,0,0,1,1.328-1.208,5.322,5.322,0,0,1,2.526-.835,5.509,5.509,0,0,1,3.159.776,5.337,5.337,0,0,1,.875.653l-.171.022a4.27,4.27,0,0,1,3.095-1.891l-.081.115a4.663,4.663,0,0,1,.151-2.613,4.112,4.112,0,0,1,.307-.664.846.846,0,0,1,.148-.21c.024.013-.169.316-.353.908a4.762,4.762,0,0,0-.071,2.535l.026.1-.107.013A4.132,4.132,0,0,0,59.51,9.366l-.072.112-.1-.091a5.173,5.173,0,0,0-.839-.624A5.4,5.4,0,0,0,55.47,8a5.3,5.3,0,0,0-2.454.763,5.668,5.668,0,0,0-1.344,1.127c-.273.316-.4.512-.417.5" transform="translate(-15.537 -1.206)" fill="#925249"/>
        <path id="Trazado_801037" data-name="Trazado 801037" d="M54.2,1.568a2.436,2.436,0,0,1-.217.57,9.307,9.307,0,0,1-.835,1.439,9.964,9.964,0,0,1-.717.9,1.692,1.692,0,0,1-1.164.689.829.829,0,0,1-.709-.327,1.135,1.135,0,0,1-.157-.785,9.525,9.525,0,0,1,.378-1.532A13,13,0,0,1,51.441.865l.2.1a13.022,13.022,0,0,1-1.175,2.076,5.431,5.431,0,0,1-.682.771,1.594,1.594,0,0,1-.793.434.875.875,0,0,1-.72-.187.6.6,0,0,1-.192-.522c.049-.323.268-.381.258-.369a.545.545,0,0,0-.181.376.522.522,0,0,0,.188.431.763.763,0,0,0,.622.132,2.716,2.716,0,0,0,1.344-1.177,13.688,13.688,0,0,0,1.13-2.06l.2.1a13.492,13.492,0,0,0-.647,1.632,9.937,9.937,0,0,0-.373,1.485.929.929,0,0,0,.113.636.62.62,0,0,0,.528.244,1.526,1.526,0,0,0,1.029-.607,10.542,10.542,0,0,0,.726-.869A11.613,11.613,0,0,0,53.9,2.1a4.26,4.26,0,0,1,.3-.53" transform="translate(-14.573 -0.262)" fill="#925249"/>
        <path id="Trazado_801038" data-name="Trazado 801038" d="M59.506,2.248a1.858,1.858,0,0,1-.24.385l-.709,1.008c-.3.423-.668.927-1.114,1.458-.222.266-.465.536-.729.807a2.468,2.468,0,0,1-.989.686.958.958,0,0,1-.652-.041.9.9,0,0,1-.449-.453,1.652,1.652,0,0,1,0-1.133,6.838,6.838,0,0,1,.373-.917l.36-.771c.221-.472.4-.851.534-1.112a1.766,1.766,0,0,1,.224-.394,1.724,1.724,0,0,1-.143.431c-.106.271-.266.661-.469,1.14q-.156.368-.333.783a7.137,7.137,0,0,0-.344.9,1.467,1.467,0,0,0,0,.983.692.692,0,0,0,.836.368,2.3,2.3,0,0,0,.893-.624c.261-.263.5-.528.728-.785.448-.516.824-1.008,1.144-1.418s.58-.742.768-.965a1.7,1.7,0,0,1,.311-.332" transform="translate(-16.527 -0.536)" fill="#925249"/>
        <path id="Trazado_801039" data-name="Trazado 801039" d="M64.047,3.6a2.03,2.03,0,0,1-.317.375l-.924.962L61.415,6.346a6.894,6.894,0,0,1-.879.8,1.647,1.647,0,0,1-1.27.313,1.039,1.039,0,0,1-.6-.357,1.244,1.244,0,0,1-.261-.618,2.065,2.065,0,0,1,.244-1.189,15,15,0,0,1,1.033-1.7c.323-.464.609-.822.815-1.062a1.868,1.868,0,0,1,.341-.353c.029.023-.413.563-1.022,1.5a17.851,17.851,0,0,0-.976,1.7,1.88,1.88,0,0,0-.213,1.067.883.883,0,0,0,.688.785,1.439,1.439,0,0,0,1.1-.275,7.025,7.025,0,0,0,.857-.761l1.425-1.372.975-.91a2.021,2.021,0,0,1,.379-.312" transform="translate(-17.7 -0.659)" fill="#925249"/>
        <path id="Trazado_801040" data-name="Trazado 801040" d="M49.435,21.429a5.692,5.692,0,0,1-1.275-.964,5.708,5.708,0,0,1-1.126-1.136,5.686,5.686,0,0,1,1.276.964,5.7,5.7,0,0,1,1.125,1.136" transform="translate(-14.257 -5.858)" fill="#925249"/>
        <path id="Trazado_801041" data-name="Trazado 801041" d="M88.144,120.869l.289,8.686,3.433,112.524L65.777,226.228v-4.449s-4.045-4.045-5.259-7.888,3.371-41.773,4.017-52.492c.538-8.921,1.949-25.606,11.316-34.457,0,0,10.121-5.257,12.291-6.073" transform="translate(-18.283 -36.639)" fill="#263238"/>
        <path id="Trazado_801042" data-name="Trazado 801042" d="M33.514,38.177c-.695,2.505-6.565,10.348-7.077,12.4-2.505,10.059-2.369,23.413-2.266,29.593.138,8.292,29.471,60.906,29.471,60.906l10.567-38.258s-16.477-30-16.79-34,.891-23.827.891-23.827l-1.785-2.261-.581-4.547Z" transform="translate(-7.313 -11.573)" fill="#263238"/>
        <path id="Trazado_801043" data-name="Trazado 801043" d="M93.655,283.18c-.054.084-5.965-3.652-13.2-8.343s-13.057-8.564-13-8.648,5.963,3.651,13.2,8.344,13.055,8.563,13,8.647" transform="translate(-20.447 -80.689)" fill="#455a64"/>
        <path id="Trazado_801044" data-name="Trazado 801044" d="M79.019,222.943a3.068,3.068,0,0,1-.068.762,6.828,6.828,0,0,1-.164.882,11.279,11.279,0,0,1-.3,1.151A16.7,16.7,0,0,1,77.3,228.6a17.693,17.693,0,0,1-4.851,5.785,16.709,16.709,0,0,1-2.617,1.659,11.45,11.45,0,0,1-1.079.5,6.8,6.8,0,0,1-.84.315,3.051,3.051,0,0,1-.738.2c-.024-.068,1.014-.4,2.536-1.24a18.605,18.605,0,0,0,2.531-1.7,18.658,18.658,0,0,0,4.763-5.68,18.58,18.58,0,0,0,1.229-2.787c.563-1.645.708-2.726.78-2.714" transform="translate(-20.364 -67.58)" fill="#455a64"/>
        <path id="Trazado_801045" data-name="Trazado 801045" d="M66.586,145.653a3.517,3.517,0,0,1,.388.718c.227.472.546,1.16.919,2.02a35.778,35.778,0,0,1,2.309,6.958,17.82,17.82,0,0,1,.061,7.326,11.819,11.819,0,0,1-.672,2.127,3.013,3.013,0,0,1-.378.725,28.262,28.262,0,0,0,.8-2.9,19.026,19.026,0,0,0-.165-7.2,42.394,42.394,0,0,0-2.191-6.932l-.812-2.061a3.537,3.537,0,0,1-.259-.774" transform="translate(-20.183 -44.152)" fill="#455a64"/>
        <path id="Trazado_801046" data-name="Trazado 801046" d="M129.925,119.956l8.252,3.646s14.284,2.518,16.62,4.668,2.337,4.666,3.236,9.16c.517,2.584,2.735,23.649,4.39,42.387,1.224,13.852,2.14,26.432,1.835,29.335a58.773,58.773,0,0,1-2.065,10.962l-.36,7.011-18.361,12.588a61.134,61.134,0,0,1-1.618-8.089c-2.13-16.268-.3-30.486-.58-45.845-.275-14.981-5.627-41.133-5.627-41.133Z" transform="translate(-39.384 -36.362)" fill="#263238"/>
        <path id="Trazado_801047" data-name="Trazado 801047" d="M167.671,263.68a4.624,4.624,0,0,1-.66.658c-.439.407-1.089.98-1.9,1.675a74.813,74.813,0,0,1-6.652,5.078,59.473,59.473,0,0,1-7.271,4.151c-.968.46-1.758.815-2.314,1.04a4.546,4.546,0,0,1-.874.322,4.589,4.589,0,0,1,.815-.45l2.257-1.142a74.225,74.225,0,0,0,7.184-4.222c2.7-1.815,5.022-3.641,6.691-4.974l1.974-1.585a4.611,4.611,0,0,1,.752-.551" transform="translate(-44.862 -79.929)" fill="#455a64"/>
        <path id="Trazado_801048" data-name="Trazado 801048" d="M170.4,179.571a1.122,1.122,0,0,1-.054-.322c-.023-.254-.052-.558-.085-.924-.059-.8-.171-1.964-.332-3.394a85.7,85.7,0,0,0-2.015-11.05,82.478,82.478,0,0,0-3.473-10.684c-.534-1.337-1-2.4-1.331-3.139l-.371-.851a1.106,1.106,0,0,1-.107-.308,1.1,1.1,0,0,1,.173.276c.119.226.262.5.433.822.37.718.875,1.772,1.44,3.1a71.536,71.536,0,0,1,3.587,10.693,73.921,73.921,0,0,1,1.918,11.113c.129,1.438.2,2.6.219,3.412.006.368.012.675.017.93a1.094,1.094,0,0,1-.019.325" transform="translate(-49.299 -45.136)" fill="#455a64"/>
        <path id="Trazado_801049" data-name="Trazado 801049" d="M124.6,165.372a4.822,4.822,0,0,1,.019.992c-.017.638-.072,1.562-.211,2.7a21.972,21.972,0,0,1-2.729,8.475,14.281,14.281,0,0,1-6.609,5.893,10.285,10.285,0,0,1-2.618.718,6.023,6.023,0,0,1-.735.061c-.169.007-.256,0-.258-.008a15.661,15.661,0,0,0,3.509-1.006,14.584,14.584,0,0,0,6.4-5.843,23.2,23.2,0,0,0,2.786-8.326c.171-1.121.264-2.037.324-2.67a5.647,5.647,0,0,1,.123-.983" transform="translate(-33.787 -50.129)" fill="#263238"/>
        <g id="Grupo_1065217" data-name="Grupo 1065217" transform="translate(77.529 118.426)" opacity="0.3">
          <g id="Grupo_1065216" data-name="Grupo 1065216">
            <g id="Grupo_1065215" data-name="Grupo 1065215" clip-path="url(#clip-path-8)">
              <path id="Trazado_801050" data-name="Trazado 801050" d="M124.441,169.941c-1.622,6.2-2.721,11.074-9.128,14.43l-4.06,1.806a11.164,11.164,0,0,0,13.188-16.236" transform="translate(-111.253 -169.94)"/>
            </g>
          </g>
        </g>
        <path id="Trazado_801051" data-name="Trazado 801051" d="M91.127,117.261c-.318-.122-7.58-1.3-7.58-1.3s-7.4,2.4-7.721,3.5a9.657,9.657,0,0,0-.361,2.109,2.252,2.252,0,0,0-1.663,1l-1.87.223-1.776,4.038,1.89,2.833s1.012.105.94-1.06l1.967,2.71,4.227,3.843s1.443-.5.551-2.823a10.1,10.1,0,0,0-2.425-3.67l5.392,3.771a1.326,1.326,0,0,0,.964-1.667c-.39-1.287-2.787-3.936-2.787-3.936l4.446-3.785a4.514,4.514,0,0,0,3.155-.206c1.487-.763,2.652-3.463,2.652-3.463Z" transform="translate(-21.266 -35.152)" fill="#ffd4bd"/>
        <path id="Trazado_801052" data-name="Trazado 801052" d="M86.21,125.437c.013.02-.152.164-.479.39a5.365,5.365,0,0,1-1.52.749,2.84,2.84,0,0,1-2.5-.351,2.056,2.056,0,0,1-.791-1.342,1.975,1.975,0,0,1,.583-1.563,8.774,8.774,0,0,1,1.23-1.026l1.174-.873,2-1.461a14.127,14.127,0,0,1,1.9-1.272,14.165,14.165,0,0,1-1.743,1.477l-1.953,1.523-1.161.89a9,9,0,0,0-1.175.986,1.631,1.631,0,0,0-.5,1.278,1.739,1.739,0,0,0,.645,1.121,2.626,2.626,0,0,0,2.226.365,6.366,6.366,0,0,0,1.512-.622,2.361,2.361,0,0,1,.552-.27" transform="translate(-24.525 -35.977)" fill="#fb987c"/>
        <path id="Trazado_801053" data-name="Trazado 801053" d="M74.2,131.482a12.9,12.9,0,0,1,.228-3.04,12.923,12.923,0,0,1,.588-2.993,12.934,12.934,0,0,1-.229,3.041,12.945,12.945,0,0,1-.587,2.992" transform="translate(-22.481 -38.027)" fill="#fb987c"/>
        <path id="Trazado_801054" data-name="Trazado 801054" d="M79.907,131.326c-.025.048-.44-.188-.843-.8a3.339,3.339,0,0,1-.289-.525,4.254,4.254,0,0,1-.192-.655c-.111-.452-.227-.951-.339-1.477a13.189,13.189,0,0,1-.483-3.866c.082,0,.374,1.7.838,3.791l.31,1.478a4.678,4.678,0,0,0,.146.619,3.643,3.643,0,0,0,.228.5c.326.608.649.891.623.929" transform="translate(-23.559 -37.59)" fill="#fb987c"/>
        <path id="Trazado_801055" data-name="Trazado 801055" d="M337.641,229.531l.341,2.876,7.389,12.429s2.042,18.816,2.353,31.568c.355,14.539-2.1,55.873-2.028,62.327l-24.041-.281c.022-7.618-2.313-60.07-2.313-60.07l-1.94-43.567,21.459-6.039" transform="translate(-96.214 -69.348)" fill="#12263f"/>
        <path id="Trazado_801056" data-name="Trazado 801056" d="M305.224,338.672l1.333-63.474,2.084-40.872-24.431-5.744-.729,5.061s-8.254,22.1-7.778,28.5c1.335,17.945,6.713,76.247,6.713,76.247" transform="translate(-83.568 -69.29)" fill="#12263f"/>
        <path id="Trazado_801057" data-name="Trazado 801057" d="M320.2,144.791a4.692,4.692,0,0,0-1.259-3.235c-.936-.765-2.495-8.289-3.7-8.175-8.918.839-15.889,2.5-24.807,3.335-3.068,23.047-7.316,58.042-10.549,81.066,7.427,5.9,16.848,5.979,29.071,6.4a16.65,16.65,0,0,0,8.479-2.876c2.616-1.908,3.176-5.518,3.475-8.742a329.8,329.8,0,0,0-.713-67.774" transform="translate(-84.843 -40.431)" fill="#fafafa"/>
        <path id="Trazado_801058" data-name="Trazado 801058" d="M319.512,149.758c.006.1-5.968.509-13.34.912s-13.356.649-13.362.549,5.967-.508,13.342-.911,13.355-.65,13.36-.55" transform="translate(-88.759 -45.389)" fill="#263238"/>
        <path id="Trazado_801059" data-name="Trazado 801059" d="M320.407,158.96c.006.1-5.968.509-13.34.912s-13.356.649-13.362.549,5.967-.508,13.342-.911,13.355-.65,13.36-.55" transform="translate(-89.031 -48.179)" fill="#263238"/>
        <path id="Trazado_801060" data-name="Trazado 801060" d="M321.3,168.161c.006.1-5.968.509-13.34.912s-13.356.649-13.362.549,5.967-.508,13.342-.911,13.355-.65,13.36-.55" transform="translate(-89.302 -50.968)" fill="#263238"/>
        <path id="Trazado_801061" data-name="Trazado 801061" d="M322.2,177.363c.006.1-5.968.509-13.34.912s-13.356.649-13.362.549,5.967-.508,13.342-.911,13.355-.65,13.36-.55" transform="translate(-89.573 -53.757)" fill="#263238"/>
        <path id="Trazado_801062" data-name="Trazado 801062" d="M323.093,186.564c.006.1-5.968.509-13.34.912s-13.356.649-13.362.549,5.967-.508,13.342-.912,13.355-.649,13.36-.55" transform="translate(-89.845 -56.546)" fill="#263238"/>
        <path id="Trazado_801063" data-name="Trazado 801063" d="M323.988,195.766c.006.1-5.968.509-13.34.912s-13.356.649-13.362.549,5.967-.508,13.342-.911,13.355-.65,13.36-.55" transform="translate(-90.116 -59.336)" fill="#263238"/>
        <path id="Trazado_801064" data-name="Trazado 801064" d="M322.281,204.967c0,.1-7.213.509-16.119.912s-16.133.649-16.137.55,7.212-.509,16.121-.912,16.13-.649,16.135-.55" transform="translate(-87.915 -62.125)" fill="#263238"/>
        <path id="Trazado_801065" data-name="Trazado 801065" d="M323.363,214.169c0,.1-7.213.509-16.119.912s-16.133.649-16.137.549,7.212-.508,16.121-.912,16.13-.65,16.135-.55" transform="translate(-88.243 -64.914)" fill="#263238"/>
        <path id="Trazado_801066" data-name="Trazado 801066" d="M321.262,223.724c0,.1-7.213.509-16.119.912s-16.133.65-16.137.549,7.212-.508,16.121-.912,16.13-.649,16.135-.549" transform="translate(-87.606 -67.811)" fill="#263238"/>
        <path id="Trazado_801067" data-name="Trazado 801067" d="M319.162,233.279c0,.1-7.213.509-16.119.912s-16.133.649-16.137.549,7.212-.508,16.121-.912,16.13-.649,16.135-.549" transform="translate(-86.97 -70.707)" fill="#263238"/>
        <path id="Trazado_801068" data-name="Trazado 801068" d="M317.062,242.834c0,.1-7.213.509-16.119.912s-16.133.649-16.137.549,7.212-.508,16.121-.912,16.13-.649,16.135-.549" transform="translate(-86.333 -73.603)" fill="#263238"/>
        <path id="Trazado_801069" data-name="Trazado 801069" d="M314.962,252.389c0,.1-7.213.509-16.119.912s-16.132.649-16.137.549,7.212-.508,16.121-.912,16.13-.649,16.135-.549" transform="translate(-85.696 -76.5)" fill="#263238"/>
        <path id="Trazado_801070" data-name="Trazado 801070" d="M287.9,127.221a266.746,266.746,0,0,1,.675,37.369c-1.152,19.006-3.525,51.34-6.045,65.883-1.182,6.821-2.323,14.551-3.185,20.7a9.354,9.354,0,0,1-12.327,7.54l3.783-32.3L273.183,185l-.767-25.061s-.744-12.544.523-19.423,11.042-8.507,11.042-8.507Z" transform="translate(-80.94 -38.564)" fill="#b0c0d2"/>
        <path id="Trazado_801071" data-name="Trazado 801071" d="M288.606,202.134a.747.747,0,0,1,.006-.19l.053-.551c.057-.51.136-1.215.236-2.11.031-.931.069-2.056.112-3.358-.026-1.31-.047-2.8-.125-4.45-.194-3.293-.542-7.208-1.113-11.535s-1.306-9.07-2.192-14.029c-1.073-5.95-2.2-11.544-3.288-16.415l-.022-.1.077-.063,6.172-5.047.033.226-3.973-1.651-.121-.05.07-.109,2.979-4.644.8-1.223a3.109,3.109,0,0,1,.293-.41,3.065,3.065,0,0,1-.242.442l-.754,1.254-2.893,4.7-.051-.159,3.991,1.607.206.083-.172.143-6.136,5.09.054-.16c1.116,4.874,2.256,10.466,3.331,16.424.887,4.963,1.613,9.714,2.167,14.05s.875,8.263,1.037,11.566c.063,1.652.066,3.15.072,4.463-.065,1.314-.108,2.445-.174,3.367-.13.895-.231,1.6-.305,2.11-.036.222-.065.4-.088.546a.723.723,0,0,1-.043.184" transform="translate(-85.565 -41.355)" fill="#263238"/>
        <path id="Trazado_801072" data-name="Trazado 801072" d="M323.489,125.411s6.262,37.388,5.893,50.648-2.939,51.384-2.939,51.384-3.139,27.811.913,32.968,18.97,1.1,18.97,1.1l11.638-6.162s-4.354-53.423-4.17-65.025-4.889-35.817-3.969-41.342-2.736-12.362-4.394-15.62l-8.314-2.614Z" transform="translate(-98.059 -38.016)" fill="#b0c0d2"/>
        <path id="Trazado_801073" data-name="Trazado 801073" d="M329.5,196.36a.84.84,0,0,1,.033-.2l.132-.589c.118-.516.31-1.273.513-2.259.433-1.964.985-4.822,1.551-8.375s1.159-7.8,1.754-12.515c.577-4.726,1.21-9.918,1.876-15.367a20.867,20.867,0,0,0-.1-7.817,8.335,8.335,0,0,0-4.227-5.567l-.41-.19.435-.123a13.794,13.794,0,0,0,4.514-2.24l-.029.22-8.631-11.066-2.4-3.111-.621-.826a1.974,1.974,0,0,1-.2-.294,2.051,2.051,0,0,1,.238.264l.658.8,2.462,3.058,8.733,10.985.1.124-.127.1a14.029,14.029,0,0,1-4.61,2.315l.024-.313a8.653,8.653,0,0,1,4.431,5.781,21.081,21.081,0,0,1,.119,7.953c-.675,5.449-1.318,10.639-1.9,15.365-.614,4.72-1.227,8.964-1.832,12.514s-1.192,6.407-1.668,8.365c-.224.982-.438,1.735-.579,2.245-.069.239-.124.43-.167.58a.864.864,0,0,1-.069.194" transform="translate(-98.12 -38.205)" fill="#263238"/>
        <g id="Grupo_1065220" data-name="Grupo 1065220" transform="translate(242.57 161.466)" opacity="0.3">
          <g id="Grupo_1065219" data-name="Grupo 1065219">
            <g id="Grupo_1065218" data-name="Grupo 1065218" clip-path="url(#clip-path-9)">
              <path id="Trazado_801074" data-name="Trazado 801074" d="M353.713,236.095a15.5,15.5,0,0,0-4.98,6.511,9.39,9.39,0,0,0,.521,8l.231.377c1.082-2.852,3.464-4.965,5.413-7.312a28.253,28.253,0,0,0,5.84-11.975,46.207,46.207,0,0,0-7.025,4.394" transform="translate(-348.084 -231.701)"/>
            </g>
          </g>
        </g>
        <path id="Trazado_801075" data-name="Trazado 801075" d="M364.719,191.917c.451-4.332-1.491-34.7-2.751-40.828-2.37-11.519-11.294-14.262-11.294-14.262l-1.242,27.613,1.43,23.253-10.08,21.129,7.459,7.7s15.977-19.793,16.478-24.605" transform="translate(-103.301 -41.476)" fill="#b0c0d2"/>
        <path id="Trazado_801076" data-name="Trazado 801076" d="M356.251,144.271a15.97,15.97,0,0,1-.591,2.024c-.382,1.242-.865,2.969-1.268,4.907s-.643,3.716-.785,5.007a16.127,16.127,0,0,1-.261,2.092,9.749,9.749,0,0,1,.006-2.114,36.794,36.794,0,0,1,2.065-9.972,9.835,9.835,0,0,1,.835-1.943" transform="translate(-107.096 -43.733)" fill="#263238"/>
        <path id="Trazado_801077" data-name="Trazado 801077" d="M339.315,241.779a88.058,88.058,0,0,0-3.549,8.464l-.67,4.788,10.438.514v-6.882l.36-.893Z" transform="translate(-101.577 -73.29)" fill="#ffbe9d"/>
        <path id="Trazado_801078" data-name="Trazado 801078" d="M358.507,213.2a1.714,1.714,0,0,1-.178.275l-.556.772-2.152,2.913-7.788,10.4-.1.133-.124-.112-8.473-7.684-.1-.091.063-.121c1.481-2.829,3.068-5.861,4.705-8.988l6.377-12.139-.019.091c-.5-7.5-.93-13.926-1.235-18.5l-.325-5.314q-.046-.9-.072-1.415c0-.146-.008-.266-.012-.364a.4.4,0,0,1,.006-.123.429.429,0,0,1,.023.123c.01.1.024.218.04.364.031.346.073.816.127,1.414l.422,5.31c.337,4.569.811,10.983,1.365,18.48l0,.048-.022.043-6.358,12.149-4.716,8.983-.037-.211,8.441,7.718-.223.021,7.891-10.322,2.218-2.862.592-.746a1.706,1.706,0,0,1,.215-.246" transform="translate(-102.772 -52.422)" fill="#263238"/>
        <path id="Trazado_801079" data-name="Trazado 801079" d="M346.205,261.168a11.006,11.006,0,0,1-2.088.113c-1.29.014-3.073,0-5.04-.1s-3.747-.248-5.027-.426a9.353,9.353,0,0,1-2.052-.41,16.354,16.354,0,0,1,2.08.155c1.282.111,3.054.226,5.017.318l5.026.2a12.984,12.984,0,0,1,2.084.144" transform="translate(-100.638 -78.915)" fill="#263238"/>
        <g id="Grupo_1065223" data-name="Grupo 1065223" transform="translate(231.856 113.265)" opacity="0.3">
          <g id="Grupo_1065222" data-name="Grupo 1065222">
            <g id="Grupo_1065221" data-name="Grupo 1065221" clip-path="url(#clip-path-10)">
              <path id="Trazado_801080" data-name="Trazado 801080" d="M333.08,205.239q-.185,1.141-.371,2.282a99.844,99.844,0,0,0,6.319-44.987Z" transform="translate(-332.71 -162.534)"/>
            </g>
          </g>
        </g>
        <g id="Grupo_1065226" data-name="Grupo 1065226" transform="translate(197.547 111.909)" opacity="0.3">
          <g id="Grupo_1065225" data-name="Grupo 1065225">
            <g id="Grupo_1065224" data-name="Grupo 1065224" clip-path="url(#clip-path-11)">
              <path id="Trazado_801081" data-name="Trazado 801081" d="M283.477,160.588a217.951,217.951,0,0,0,5.927,45.125c.086-15.165-2.566-29.982-5.927-45.125" transform="translate(-283.477 -160.588)"/>
            </g>
          </g>
        </g>
        <g id="Grupo_1065229" data-name="Grupo 1065229" transform="translate(230.502 191.242)" opacity="0.3">
          <g id="Grupo_1065228" data-name="Grupo 1065228">
            <g id="Grupo_1065227" data-name="Grupo 1065227" clip-path="url(#clip-path-12)">
              <path id="Trazado_801082" data-name="Trazado 801082" d="M332.125,274.63a34.223,34.223,0,0,0,1.185,9.972,8.379,8.379,0,0,0,2.151,4.146,6.4,6.4,0,0,0,5.027,1.346,18.966,18.966,0,0,0,5.1-1.6,4,4,0,0,1-1.965,2.883,10.124,10.124,0,0,1-3.4,1.178c-1.971.4-4.18.634-5.856-.479a6.955,6.955,0,0,1-2.414-3.532,19.762,19.762,0,0,1,.239-14.11" transform="translate(-330.767 -274.43)"/>
            </g>
          </g>
        </g>
        <path id="Trazado_801083" data-name="Trazado 801083" d="M322.5,196.047a2.216,2.216,0,0,1-.68.022,10.858,10.858,0,0,1-1.838-.251,12.592,12.592,0,0,1-9-7.668,10.818,10.818,0,0,1-.54-1.774,2.194,2.194,0,0,1-.086-.675c.065-.016.24.939.863,2.351a13.206,13.206,0,0,0,8.828,7.518c1.493.39,2.463.412,2.458.478" transform="translate(-94.075 -56.291)" fill="#263238"/>
        <g id="Grupo_1065232" data-name="Grupo 1065232" transform="translate(216.785 131.48)" opacity="0.3">
          <g id="Grupo_1065231" data-name="Grupo 1065231">
            <g id="Grupo_1065230" data-name="Grupo 1065230" clip-path="url(#clip-path-13)">
              <path id="Trazado_801084" data-name="Trazado 801084" d="M317.105,195.4a12.139,12.139,0,0,1-5.75-6.312l-.272-.412a11.752,11.752,0,0,0,4.964,8.377c2.737,1.728,6.641,1.565,9.7.495-2.866-.433-6.077-.79-8.637-2.148" transform="translate(-311.083 -188.672)"/>
            </g>
          </g>
        </g>
        <path id="Trazado_801085" data-name="Trazado 801085" d="M324.837,124.886c-2.513,5.721-1.264,12.3-.125,18.448s2.036,12.877-1.034,18.319a4.651,4.651,0,0,0,3.671-2.763q-.01,1.689-.021,3.378c3.675-1.077,5.455-5.294,5.822-9.106s-.158-7.776,1.1-11.392c.763-2.185,2.168-4.212,2.252-6.524.066-1.817-.7-3.571-.754-5.388-.075-2.648,1.353-5.069,2.2-7.578s.918-5.735-1.2-7.33" transform="translate(-98.024 -34.845)" fill="#263238"/>
        <path id="Trazado_801086" data-name="Trazado 801086" d="M309.733,94.5a35,35,0,0,0-2.21-11.441,21.835,21.835,0,0,0-6.8-9.358,9.765,9.765,0,0,0-9.908-1.5c-.052.021-.156-.02-.123.025-3.288,1.713-3.67,6.587-3.821,9.743-.18,3.785-.19,7.576-.063,11.363a79.515,79.515,0,0,0,1.19,13.7,20.67,20.67,0,0,0,4.227,9.4,11.1,11.1,0,0,0,9.162,4.066,7.36,7.36,0,0,0,5.473-3.139,12.343,12.343,0,0,0,1.475-5.086c.816-5.892,1.634-11.822,1.4-17.765" transform="translate(-86.915 -21.664)" fill="#ff725e"/>
        <g id="Grupo_1065235" data-name="Grupo 1065235" transform="translate(199.812 49.804)" opacity="0.3">
          <g id="Grupo_1065234" data-name="Grupo 1065234">
            <g id="Grupo_1065233" data-name="Grupo 1065233" clip-path="url(#clip-path-14)">
              <path id="Trazado_801087" data-name="Trazado 801087" d="M309.733,94.5a35,35,0,0,0-2.21-11.441,21.835,21.835,0,0,0-6.8-9.358,9.765,9.765,0,0,0-9.908-1.5c-.052.021-.156-.02-.123.025-3.288,1.713-3.67,6.587-3.821,9.743-.18,3.785-.19,7.576-.063,11.363a79.515,79.515,0,0,0,1.19,13.7,20.67,20.67,0,0,0,4.227,9.4,11.1,11.1,0,0,0,9.162,4.066,7.36,7.36,0,0,0,5.473-3.139,12.343,12.343,0,0,0,1.475-5.086c.816-5.892,1.634-11.822,1.4-17.765" transform="translate(-286.727 -71.468)"/>
            </g>
          </g>
        </g>
        <path id="Trazado_801088" data-name="Trazado 801088" d="M306.229,113.953c-5.855-1.382-7.281-1.479-7.351-6.629l-.088-6.55s-6.48-.337-7.991-9.988a96,96,0,0,1-.985-18.988c.378-5.788,6.391-15.994,12.157-15.371l15.836,7.7a3.4,3.4,0,0,1,3.029,3.449L319.606,105" transform="translate(-87.811 -17.097)" fill="#ffbe9d"/>
        <path id="Trazado_801089" data-name="Trazado 801089" d="M295.191,87.616a1.237,1.237,0,0,0,1.19,1.251,1.183,1.183,0,0,0,1.278-1.113A1.238,1.238,0,0,0,296.47,86.5a1.184,1.184,0,0,0-1.279,1.114" transform="translate(-89.481 -26.221)" fill="#263238"/>
        <path id="Trazado_801090" data-name="Trazado 801090" d="M292.32,84.407c.11.208,1.2-.349,2.5-.063,1.3.265,2.089,1.219,2.271,1.072.087-.064.007-.415-.332-.843a3.13,3.13,0,0,0-1.769-1.076,3.072,3.072,0,0,0-2.039.27c-.478.256-.686.545-.63.64" transform="translate(-88.608 -25.29)" fill="#263238"/>
        <path id="Trazado_801091" data-name="Trazado 801091" d="M313.533,87.416a1.238,1.238,0,0,0,1.19,1.251A1.184,1.184,0,0,0,316,87.554a1.238,1.238,0,0,0-1.19-1.252,1.184,1.184,0,0,0-1.279,1.114" transform="translate(-95.041 -26.16)" fill="#263238"/>
        <path id="Trazado_801092" data-name="Trazado 801092" d="M311.231,85.8c.211.129.974-.912,2.365-1.313,1.383-.421,2.618.029,2.718-.192.052-.1-.2-.371-.744-.579a3.572,3.572,0,0,0-2.238-.064,3.465,3.465,0,0,0-1.818,1.265c-.328.467-.383.828-.282.884" transform="translate(-94.329 -25.313)" fill="#263238"/>
        <path id="Trazado_801093" data-name="Trazado 801093" d="M302.647,94.1a8.82,8.82,0,0,0-2.162-.4c-.34-.036-.661-.1-.718-.336A1.732,1.732,0,0,1,300,92.363l1.011-2.587a44.592,44.592,0,0,0,2.273-6.767,44.612,44.612,0,0,0-2.813,6.568q-.507,1.362-.969,2.6a1.97,1.97,0,0,0-.18,1.335.857.857,0,0,0,.558.5,2.314,2.314,0,0,0,.578.082,8.656,8.656,0,0,0,2.192.008" transform="translate(-90.713 -25.162)" fill="#263238"/>
        <path id="Trazado_801094" data-name="Trazado 801094" d="M302.752,118.725a24.547,24.547,0,0,0,12.929-3.418s-3.239,6.889-12.893,5.965Z" transform="translate(-91.773 -34.953)" fill="#eb996e"/>
        <path id="Trazado_801095" data-name="Trazado 801095" d="M304.336,102.835a3.554,3.554,0,0,1,2.559-1.691,1.525,1.525,0,0,1,1.5.836,2.413,2.413,0,0,1-.214,2.214,2.038,2.038,0,0,1-2.018.976,3.411,3.411,0,0,1-1.666-1.086,1.194,1.194,0,0,1-.337-.477.819.819,0,0,1,.105-.7" transform="translate(-92.189 -30.659)" fill="#eb996e"/>
        <path id="Trazado_801096" data-name="Trazado 801096" d="M307.893,100.261c-.217-.013-.222,1.432-1.462,2.455s-2.777.861-2.789,1.063c-.02.091.342.282.992.3a3.6,3.6,0,0,0,2.328-.806,3.137,3.137,0,0,0,1.133-2.059c.056-.6-.1-.962-.2-.954" transform="translate(-92.042 -30.392)" fill="#263238"/>
        <path id="Trazado_801097" data-name="Trazado 801097" d="M309.578,77.43c.167.347,1.472.046,3.045.08,1.574,0,2.872.333,3.047-.01.077-.164-.175-.482-.716-.78a5.29,5.29,0,0,0-4.641-.054c-.548.286-.808.6-.734.763" transform="translate(-93.838 -23.086)" fill="#263238"/>
        <path id="Trazado_801098" data-name="Trazado 801098" d="M291.717,80.039c.292.3,1.431-.014,2.8-.031,1.369-.056,2.531.2,2.8-.118.116-.154-.067-.456-.574-.742a4.6,4.6,0,0,0-2.278-.491,4.5,4.5,0,0,0-2.233.612c-.484.312-.642.623-.514.771" transform="translate(-88.415 -23.842)" fill="#263238"/>
        <path id="Trazado_801099" data-name="Trazado 801099" d="M332.754,107.719c-2.1-3.4,2.71.631.305-4.983-1.716-4.006-1.693-29.931-5.352-37.167s-7.969-10.163-12.2-11.3a9.721,9.721,0,0,0-9.309,2.114c-1.91,1.707-2.561,6.678-2.561,6.678s10.2,2.268,13.634,8.084c3.946,6.681,4.9,10.041,4.9,10.041l1.277,3.654s-1.2,7.074-1.634,10.57.261,6.744,3.139,8.162l5.789,4.091" transform="translate(-92.042 -16.332)" fill="#263238"/>
        <path id="Trazado_801100" data-name="Trazado 801100" d="M299.219,63.477a8.284,8.284,0,0,0-8.464,5.971c-.975,2.98-1.719,11.585-1.719,11.585A70.131,70.131,0,0,1,288.5,70.3c.314-3.9,2.261-8.831,5.25-11.562,2.907-2.655,5.358-3.9,10.556-3.586a9.161,9.161,0,0,0-3.4,2.91c-.666.987-.828,1.707-1.684,5.414" transform="translate(-87.431 -16.704)" fill="#263238"/>
        <path id="Trazado_801101" data-name="Trazado 801101" d="M330.014,92.551a2.927,2.927,0,0,1,4.284-2.491c1.016.587,1.793,1.769,1.7,4.036-.249,6.045-6.267,4.548-6.27,4.375,0-.108.162-3.42.287-5.92" transform="translate(-99.95 -27.19)" fill="#ffbe9d"/>
        <path id="Trazado_801102" data-name="Trazado 801102" d="M332.51,97.049c.027-.018.1.078.277.167a1.052,1.052,0,0,0,.786.049,2.609,2.609,0,0,0,1.3-2.289,3.485,3.485,0,0,0-.233-1.52,1.218,1.218,0,0,0-.759-.841.537.537,0,0,0-.633.263c-.088.166-.054.288-.087.3-.017.014-.125-.107-.067-.355a.68.68,0,0,1,.254-.369.8.8,0,0,1,.589-.13,1.481,1.481,0,0,1,1.061.983,3.583,3.583,0,0,1,.3,1.7,2.735,2.735,0,0,1-1.644,2.547,1.131,1.131,0,0,1-.957-.2c-.181-.157-.208-.293-.186-.3" transform="translate(-100.792 -27.983)" fill="#eb996e"/>
        <path id="Trazado_801103" data-name="Trazado 801103" d="M327.4,92.912c.076.091.629-.165,1.358-.974a7.616,7.616,0,0,0,1.748-4.238,7.794,7.794,0,0,0-.4-3.256,10.651,10.651,0,0,0-1.862-3.2,25.072,25.072,0,0,0-2.762-2.8c-1-.893-2.089-1.771-3.241-2.609a42.446,42.446,0,0,0-6.9-4.1c-2.252-1.06-4.31-1.741-5.908-2.509a13.4,13.4,0,0,1-3.48-2.236c-.721-.666-1.067-1.123-1.2-1.051-.1.052.019.649.627,1.545a10.591,10.591,0,0,0,3.406,2.952c1.624.98,3.673,1.809,5.759,2.9A51.815,51.815,0,0,1,321.1,77.4c1.105.8,2.152,1.635,3.133,2.472a27.16,27.16,0,0,1,2.648,2.522,9.672,9.672,0,0,1,1.723,2.622,6.842,6.842,0,0,1,.528,2.617,8.244,8.244,0,0,1-1,3.87c-.473.854-.838,1.3-.739,1.407" transform="translate(-92.372 -19.986)" fill="#263238"/>
        <path id="Trazado_801104" data-name="Trazado 801104" d="M327.784,95.538a1.038,1.038,0,0,0,.3-.138,5.685,5.685,0,0,0,.792-.515,7.443,7.443,0,0,0,2.13-2.732,7.591,7.591,0,0,0,.517-5.093,10.282,10.282,0,0,0-3.622-5.118,52.859,52.859,0,0,0-5.151-3.593c-1.633-1.025-3.138-1.891-4.42-2.583s-2.339-1.217-3.076-1.564c-.368-.174-.657-.3-.854-.386a1.084,1.084,0,0,0-.31-.11,8.429,8.429,0,0,0,1.1.631c.715.387,1.75.947,3.01,1.669s2.747,1.607,4.362,2.645a57.691,57.691,0,0,1,5.094,3.589,10.079,10.079,0,0,1,3.525,4.912,7.417,7.417,0,0,1-.421,4.888,7.732,7.732,0,0,1-1.976,2.728c-.613.523-1.017.732-.994.769" transform="translate(-95.209 -22.342)" fill="#455a64"/>
        <path id="Trazado_801105" data-name="Trazado 801105" d="M312.661,53.85a4.007,4.007,0,0,0-1.985.13,10.6,10.6,0,0,0-4.246,2.24,7.941,7.941,0,0,0-2.465,4.109,6.57,6.57,0,0,0-.182,1.451,1.291,1.291,0,0,0,.051.535c.07,0,.062-.761.4-1.916a8.344,8.344,0,0,1,2.457-3.888,11.639,11.639,0,0,1,4.063-2.266,18.013,18.013,0,0,1,1.912-.4" transform="translate(-92.086 -16.304)" fill="#455a64"/>
        <path id="Trazado_801106" data-name="Trazado 801106" d="M335.128,101.153c-.024.025.28.283.7.849a6.1,6.1,0,0,1,1.115,2.713,5.83,5.83,0,0,1-.992,4.135,4.945,4.945,0,0,1-4.52,2.2,3.979,3.979,0,0,1-2.394-1.145,4.638,4.638,0,0,1-1.141-2.234,6.836,6.836,0,0,1,.374-4.277,3.983,3.983,0,0,1,2.056-2,6.425,6.425,0,0,1,1.056-.27.7.7,0,0,0-.289-.024,2.83,2.83,0,0,0-.82.152,4.02,4.02,0,0,0-2.249,2.022,6.985,6.985,0,0,0-.477,4.477,4.953,4.953,0,0,0,1.217,2.421,4.337,4.337,0,0,0,2.622,1.267,4.812,4.812,0,0,0,2.852-.564,5.692,5.692,0,0,0,2.007-1.814,6.034,6.034,0,0,0,.969-4.381,5.894,5.894,0,0,0-1.267-2.762,5.117,5.117,0,0,0-.581-.592c-.147-.118-.229-.175-.238-.165" transform="translate(-99.24 -30.644)" fill="#e0e0e0"/>
        <path id="Trazado_801107" data-name="Trazado 801107" d="M330.355,104.112c-.592-3.236-1.357-6.424-2-9.65C326.933,87.4,328,80.02,326.58,72.96c-1.569-7.792-6.5-15.092-13.693-18.465s-16.588-2.185-22,3.635a22.419,22.419,0,0,0-5.193,10.9,65.378,65.378,0,0,0-.938,12.172c-.065,4.921.049,9.773,1.371,14.513a15.677,15.677,0,0,1,.907,6.155c-.174,1.255-.753,2.433-.874,3.695a4.827,4.827,0,0,0,1.514,4.406,5.455,5.455,0,0,0,3.424,1.675c2.492,3,6.912,3.564,10.785,3.079s7.671-1.787,11.572-1.641c2.266.084,4.484.657,6.74.885s4.751.2,6.569-1.157c2.764-2.057,3.786-7.638,3.592-8.7m-10.528-17.8a37.085,37.085,0,0,1-10.44,23.073,8.872,8.872,0,0,1-4.7,3,8.764,8.764,0,0,1-5.2-1.233,19.381,19.381,0,0,1-7.665-6.23c-2.541-3.817-2.886-8.636-3.155-13.214q-.548-9.344-1.095-18.688c-.169-2.895-.318-5.916.84-8.575a12.04,12.04,0,0,1,4.886-5.282,26.954,26.954,0,0,1,6.2-2.6,20.5,20.5,0,0,1,11.721,6.181,31.014,31.014,0,0,1,8.6,23.574" transform="translate(-86.313 -15.953)" fill="#74c67b"/>
        <path id="Trazado_801108" data-name="Trazado 801108" d="M333.817,84.762a2.251,2.251,0,0,1,.053.467c.02.344.047.79.079,1.343.059,1.166.128,2.855.133,4.946a56.866,56.866,0,0,1-.426,7.333,32.952,32.952,0,0,1-2.282,8.7,28.318,28.318,0,0,1-4.82,7.6,28.938,28.938,0,0,1-5.516,4.857,27.155,27.155,0,0,1-4.335,2.4c-.533.241-.967.383-1.253.495a2.266,2.266,0,0,1-.447.144,2.259,2.259,0,0,1,.42-.212c.277-.135.7-.3,1.222-.555a30.244,30.244,0,0,0,4.249-2.479,29.658,29.658,0,0,0,5.408-4.866,28.526,28.526,0,0,0,4.739-7.519,33.364,33.364,0,0,0,2.284-8.6,60.93,60.93,0,0,0,.5-7.291c.027-2.084,0-3.773-.018-4.939,0-.553-.008-1-.011-1.344a2.312,2.312,0,0,1,.02-.47" transform="translate(-95.487 -25.694)" fill="#263238"/>
        <path id="Trazado_801109" data-name="Trazado 801109" d="M304.563,134.89a2.7,2.7,0,0,1-.717.017,6.486,6.486,0,0,1-.839-.062,10.843,10.843,0,0,1-1.1-.163,16.083,16.083,0,0,1-2.8-.79,17.024,17.024,0,0,1-5.944-3.852,16.093,16.093,0,0,1-1.863-2.23,10.915,10.915,0,0,1-.6-.94,6.511,6.511,0,0,1-.4-.741,2.7,2.7,0,0,1-.277-.661c.062-.033.509.884,1.484,2.192A18.048,18.048,0,0,0,293.4,129.8a18.07,18.07,0,0,0,5.832,3.779,18.021,18.021,0,0,0,2.725.85c1.591.355,2.611.389,2.607.459" transform="translate(-87.914 -38.033)" fill="#263238"/>
        <path id="Trazado_801110" data-name="Trazado 801110" d="M307.247,54.322a1.138,1.138,0,0,1,.333.006c.216.02.538.033.946.1a21.5,21.5,0,0,1,3.422.753,23.5,23.5,0,0,1,15.733,15.765,21.446,21.446,0,0,1,.746,3.422c.063.409.075.731.1.947a1.151,1.151,0,0,1,0,.333,11.177,11.177,0,0,1-.24-1.258,25.627,25.627,0,0,0-.852-3.367,24.06,24.06,0,0,0-15.565-15.6,25.712,25.712,0,0,0-3.367-.859,11.038,11.038,0,0,1-1.257-.243" transform="translate(-93.136 -16.464)" fill="#263238"/>
        <g id="Grupo_1065238" data-name="Grupo 1065238" transform="translate(224.236 73.634)" opacity="0.3">
          <g id="Grupo_1065237" data-name="Grupo 1065237">
            <g id="Grupo_1065236" data-name="Grupo 1065236" clip-path="url(#clip-path-15)">
              <path id="Trazado_801111" data-name="Trazado 801111" d="M335.651,105.664a31.125,31.125,0,0,1-10.68,18.708l-3.2,3.006a21.632,21.632,0,0,0,13.876-21.715" transform="translate(-321.775 -105.664)"/>
            </g>
          </g>
        </g>
        <g id="Grupo_1065241" data-name="Grupo 1065241" transform="translate(219.128 38.301)" opacity="0.3">
          <g id="Grupo_1065240" data-name="Grupo 1065240">
            <g id="Grupo_1065239" data-name="Grupo 1065239" clip-path="url(#clip-path-16)">
              <path id="Trazado_801112" data-name="Trazado 801112" d="M314.445,54.961c7.951,2.767,14.031,9.785,16.7,17.77-1.516-8.415-3.652-15.936-16.7-17.77" transform="translate(-314.445 -54.961)"/>
            </g>
          </g>
        </g>
        <path id="Trazado_801113" data-name="Trazado 801113" d="M284.671,96.261a1.083,1.083,0,0,1,.036.32c.008.253.017.556.028.918.017.8.012,1.951.062,3.371a24.664,24.664,0,0,0,.612,4.928c.425,1.822,1.222,3.748,1.631,5.918a10.854,10.854,0,0,1,.127,3.213c-.14,1.044-.434,1.99-.631,2.9a6.367,6.367,0,0,0-.181,2.588,5.506,5.506,0,0,0,.863,2.083,5.857,5.857,0,0,0,2.525,2.081c.728.3,1.173.348,1.166.386a1.055,1.055,0,0,1-.322-.022,4.312,4.312,0,0,1-.9-.232,5.771,5.771,0,0,1-2.682-2.066,5.675,5.675,0,0,1-.949-2.175,6.585,6.585,0,0,1,.151-2.714c.192-.928.478-1.883.6-2.875a10.637,10.637,0,0,0-.131-3.108c-.4-2.112-1.183-4.05-1.6-5.9a23.44,23.44,0,0,1-.543-5c-.017-1.43.027-2.583.053-3.38a8.444,8.444,0,0,1,.078-1.237" transform="translate(-86.251 -29.18)" fill="#263238"/>
        <path id="Trazado_801114" data-name="Trazado 801114" d="M349.337,127.339s4.3-1.2,5.16-.449a9.654,9.654,0,0,1,1.438,1.585,2.253,2.253,0,0,1,1.943-.047l1.7-.817,3.667,2.452-.072,3.4a.867.867,0,0,1-1.362-.39l-.2,3.343-1.5,5.512s-1.484.353-1.98-2.085a10.1,10.1,0,0,1,.073-4.4l-2.522,6.077a1.326,1.326,0,0,1-1.708-.888c-.363-1.3.236-4.817.236-4.817L346.1,134.7" transform="translate(-104.912 -38.389)" fill="#ffd4bd"/>
        <path id="Trazado_801115" data-name="Trazado 801115" d="M352.066,136.667a1.8,1.8,0,0,1,.545-.068,7.44,7.44,0,0,0,1.446-.224,2.97,2.97,0,0,0,1.7-1.151,1.646,1.646,0,0,0-.26-2.2,5.343,5.343,0,0,0-2.51-.556l-2.2-.215a11.266,11.266,0,0,1-2.019-.29,11.466,11.466,0,0,1,2.039.034l2.2.137c.415.032.847.05,1.311.108a2.94,2.94,0,0,1,1.391.492,1.764,1.764,0,0,1,.7,1.335,2.161,2.161,0,0,1-.376,1.34,3.139,3.139,0,0,1-1.915,1.213,5.708,5.708,0,0,1-1.507.116,1.475,1.475,0,0,1-.547-.073" transform="translate(-105.722 -39.994)" fill="#fb987c"/>
        <path id="Trazado_801116" data-name="Trazado 801116" d="M366.93,133.854A25.627,25.627,0,0,1,363,129.2a25.687,25.687,0,0,1,3.93,4.65" transform="translate(-110.035 -39.164)" fill="#fb987c"/>
        <path id="Trazado_801117" data-name="Trazado 801117" d="M362.329,136.6c-.043-.018.078-.431.026-1.118a3.662,3.662,0,0,0-.077-.546,4.611,4.611,0,0,0-.21-.6l-.532-1.414c-.734-2.015-1.4-3.607-1.33-3.647a13.181,13.181,0,0,1,1.67,3.521c.189.5.359.987.507,1.428a4.2,4.2,0,0,1,.19.656,3.315,3.315,0,0,1,.038.6c-.013.729-.236,1.151-.283,1.124" transform="translate(-109.188 -39.186)" fill="#fb987c"/>
      </g>
    </g>
    <g id="Grupo_1065245" data-name="Grupo 1065245">
      <g id="Grupo_1065244" data-name="Grupo 1065244" clip-path="url(#clip-path)">
        <path id="Trazado_801118" data-name="Trazado 801118" d="M296.37,386.078c0,.1-63.688.181-142.232.181-78.571,0-142.246-.081-142.246-.181s63.674-.181,142.246-.181c78.544,0,142.232.081,142.232.181" transform="translate(-3.605 -116.977)" fill="#263238"/>
      </g>
    </g>
  </g>
</svg>
