<svg xmlns="http://www.w3.org/2000/svg" xmlns:xlink="http://www.w3.org/1999/xlink" width="505.508" height="405.347" viewBox="0 0 505.508 405.347">
  <defs>
    <clipPath id="clip-path">
      <rect id="Rectángulo_374188" data-name="Rectángulo 374188" width="414.461" height="405.347" fill="none"/>
    </clipPath>
    <clipPath id="clip-path-5">
      <rect id="Rectángulo_374160" data-name="Rectángulo 374160" width="172.76" height="55.059" fill="none"/>
    </clipPath>
    <clipPath id="clip-path-6">
      <rect id="Rectángulo_374161" data-name="Rectángulo 374161" width="4.427" height="17.348" fill="none"/>
    </clipPath>
    <clipPath id="clip-path-8">
      <rect id="Rectángulo_374174" data-name="Rectángulo 374174" width="13.279" height="28.279" fill="none"/>
    </clipPath>
    <clipPath id="clip-path-9">
      <rect id="Rectángulo_374175" data-name="Rectángulo 374175" width="24.817" height="15.53" fill="none"/>
    </clipPath>
    <clipPath id="clip-path-16">
      <rect id="Rectángulo_374186" data-name="Rectángulo 374186" width="8.872" height="22.002" fill="none"/>
    </clipPath>
  </defs>
  <g id="Grupo_1065509" data-name="Grupo 1065509" transform="translate(-179.999 -3540.018)">
    <path id="Unión_11" data-name="Unión 11" d="M41,300.293a41,41,0,0,1-41-41V77.81a41,41,0,0,1,41-41H464.505a41.42,41.42,0,0,1,4.578.253L505.507,0V98.16h0V259.293a41,41,0,0,1-41,41Z" transform="translate(685.505 3903.011) rotate(180)" fill="#f3f9ff"/>
    <g id="Grupo_1065287" data-name="Grupo 1065287" transform="translate(225.522 3540.018)">
      <g id="Grupo_1065286" data-name="Grupo 1065286" clip-path="url(#clip-path)">
        <g id="Grupo_1065252" data-name="Grupo 1065252">
          <g id="Grupo_1065251" data-name="Grupo 1065251" clip-path="url(#clip-path)">
            <path id="Trazado_801120" data-name="Trazado 801120" d="M26.295,438.994c-1.188-1.018-3.838-4.247-1.795-8,.749-1.376,2.34-2.057,3.781-2.664a15.349,15.349,0,0,0,4.146-2.147c2.248-1.913,2.867-5.089,4.359-7.64,1.713-2.928,4.91-5.122,8.287-4.969,3.868.176,7.094,3.335,8.556,6.937s1.513,7.6,1.543,11.491c.017,2.15-.078,4.575-1.658,6.028-1.456,1.339-3.648,1.356-5.621,1.295l-21.137-.649" transform="translate(-2.364 -41.173)" fill="#f5f5f5"/>
            <path id="Trazado_801121" data-name="Trazado 801121" d="M65.325,377.257H9.74l10.013,59.7a6.666,6.666,0,0,0,4.745,5.315c.064.02.131.035.2.053.166.042.325.1.494.128a7.068,7.068,0,0,0,1.131.131c0,.018.005.038.009.057l.271-.043H51.374a6.988,6.988,0,0,0,1.361-.135,6.693,6.693,0,0,0,5.623-5.836l4.827-41.138.217-1.635h-.025l1.912-16.292ZM54.84,415.341h-5.7l.575-17.327H56.32Zm2.034-17.327h5.461L60.3,415.341H55.393Zm-16.3,36.536L40.23,419.5h8.215l-.5,15.054ZM31.7,419.5h7.982l.347,15.054H32.866Zm.617,15.054H25.62c-.636-4.065-1.463-9.347-2.359-15.054h7.882Zm-.939-19.209-1.347-17.327h9.157l.4,17.327Zm8.761,0-.4-17.327h9.423l-.575,17.327Zm-.5-21.483-.369-16.047H49.83L49.3,393.858Zm-.552,0H29.7l-1.246-16.047H38.717Zm-9.937,0H19.222c-.351-2.216-.685-4.314-.986-6.2-1.036-6.488-1.425-8.928-1.642-9.845H27.9Zm.323,4.156,1.347,17.327H22.609c-.276-1.758-.556-3.536-.836-5.316-.644-4.091-1.289-8.18-1.895-12.011Zm-7.422,17.327H16.687L13.78,398.014h5.54c.846,5.355,1.785,11.315,2.73,17.327M22.7,419.5c.818,5.209,1.623,10.345,2.359,15.054H19.908L17.384,419.5ZM48.5,434.55,49,419.5h5.487L53.2,434.55Zm1.352-40.692.533-16.047h7.665l-1.371,16.047Zm-33.78-16.047c.221,1.16,1.235,7.475,2.594,16.047H13.083l-2.691-16.047Zm41.98,56.739h-4.3L55.038,419.5h4.776Zm4.774-40.692H57.229L58.6,377.812H64.7Z" transform="translate(-0.97 -37.558)" fill="#e0e0e0"/>
          </g>
        </g>
        <g id="Grupo_1065254" data-name="Grupo 1065254">
          <g id="Grupo_1065253" data-name="Grupo 1065253" clip-path="url(#clip-path)">
            <path id="Trazado_801122" data-name="Trazado 801122" d="M414.461,449.876c0,.13-92.788.234-207.221.234-114.473,0-207.24-.1-207.24-.234s92.767-.234,207.24-.234c114.433,0,207.221.1,207.221.234" transform="translate(0 -44.765)" fill="#263238"/>
          </g>
        </g>
        <g id="Grupo_1065262" data-name="Grupo 1065262">
          <g id="Grupo_1065261" data-name="Grupo 1065261" clip-path="url(#clip-path)">
            <path id="Trazado_801123" data-name="Trazado 801123" d="M314.562,311.737H125.351a8.316,8.316,0,0,1-8.316-8.316V27.889a8.316,8.316,0,0,1,8.316-8.316H314.562a8.315,8.315,0,0,1,8.316,8.316V303.422a8.315,8.315,0,0,1-8.316,8.316" transform="translate(-11.652 -1.949)" fill="#e0e0e0"/>
            <path id="Trazado_801124" data-name="Trazado 801124" d="M314.54,311.715s.214-.018.638-.042a8.982,8.982,0,0,0,1.853-.359,8.582,8.582,0,0,0,2.719-1.476,8.35,8.35,0,0,0,2.5-3.439,7.936,7.936,0,0,0,.539-2.514c.048-.908.011-1.874.02-2.881q0-3.027-.009-6.615c-.005-4.781-.012-10.3-.019-16.507-.014-24.842-.036-60.785-.063-105.2-.007-22.208-.015-46.532-.024-72.645q-.005-19.585-.01-40.47,0-10.433,0-21.164-.007-5.361-.015-10.795a8.1,8.1,0,0,0-6.32-7.671,11.475,11.475,0,0,0-2.7-.206h-2.765l-5.557,0H294.108l-22.806,0-47.037,0-98.913,0a8.118,8.118,0,0,0-8.12,7.716c-.041,4.191-.011,8.4-.02,12.583q0,12.552,0,24.932,0,24.755,0,48.745c0,31.959-.007,62.784-.011,92.15s-.014,57.27-.019,83.386q0,4.9,0,9.708c.007,1.6-.019,3.208.016,4.783a8.079,8.079,0,0,0,1.477,4.345,8.245,8.245,0,0,0,3.553,2.844,8.758,8.758,0,0,0,2.211.565c.754.067,1.532.051,2.305.052l9.182,0,34.858.014,105.192.063,28.6.038,7.438.019c1.676.007,2.534.021,2.534.021s-.858.014-2.534.021l-7.438.02-28.6.037-105.192.063-34.858.013-9.182,0c-.773,0-1.545.016-2.339-.053a9.045,9.045,0,0,1-2.3-.585,8.577,8.577,0,0,1-3.694-2.953,8.408,8.408,0,0,1-1.537-4.516c-.037-1.6-.011-3.189-.02-4.8q0-4.811,0-9.708c-.005-26.116-.012-54.02-.018-83.386s-.007-60.191-.012-92.15q0-23.968,0-48.745,0-12.379,0-24.932c.009-4.188-.022-8.373.021-12.6a8.514,8.514,0,0,1,8.517-8.095l98.913,0,47.037.005,22.806,0,11.211,0h8.322a11.852,11.852,0,0,1,2.781.217,8.467,8.467,0,0,1,6.6,8.018q.005,5.438.012,10.805,0,10.73,0,21.164-.005,20.865-.01,40.47c-.009,26.113-.017,50.437-.024,72.645-.027,44.412-.049,80.355-.064,105.2-.006,6.209-.013,11.726-.018,16.507q-.005,3.586-.009,6.615c-.013,1.01.022,1.969-.03,2.887a8,8,0,0,1-.555,2.537,8.4,8.4,0,0,1-2.533,3.457,8.574,8.574,0,0,1-2.746,1.468,8.7,8.7,0,0,1-1.864.341c-.424.018-.638.022-.638.022" transform="translate(-11.629 -1.927)" fill="#263238"/>
            <g id="Grupo_1065257" data-name="Grupo 1065257" transform="translate(123.342 248.127)" opacity="0.3">
              <g id="Grupo_1065256" data-name="Grupo 1065256">
                <g id="Grupo_1065255" data-name="Grupo 1065255" clip-path="url(#clip-path-5)">
                  <path id="Trazado_801125" data-name="Trazado 801125" d="M136.979,330.621h172.76l-1.9-35.933V275.561l-170.865,26.7Z" transform="translate(-136.979 -275.561)"/>
                </g>
              </g>
            </g>
            <g id="Grupo_1065260" data-name="Grupo 1065260" transform="translate(259.745 18.221)" opacity="0.3">
              <g id="Grupo_1065259" data-name="Grupo 1065259">
                <g id="Grupo_1065258" data-name="Grupo 1065258" clip-path="url(#clip-path-6)">
                  <path id="Trazado_801126" data-name="Trazado 801126" d="M288.964,20.236l3.926,11.644v5.7h-4.427Z" transform="translate(-288.463 -20.236)"/>
                </g>
              </g>
            </g>
            <path id="Trazado_801127" data-name="Trazado 801127" d="M127.23,32.573V300.955H314.713V32.573Z" transform="translate(-12.667 -3.243)" fill="#fff"/>
            <path id="Trazado_801128" data-name="Trazado 801128" d="M314.69,252.943s-.01-.348-.014-1.032-.008-1.707-.013-3.05c-.006-2.694-.015-6.683-.027-11.88-.012-10.4-.029-25.633-.05-44.968-.018-38.679-.042-93.776-.072-159.462l.177.176-187.482.023.2-.2v.239c-.019,103.171-.036,197.388-.049,268.143l-.15-.149,102.353.066,27.91.04,7.267.021c1.638.008,2.478.023,2.478.023s-.84.015-2.478.023l-7.267.021-27.91.041-102.353.066h-.149v-.149c-.013-70.755-.031-164.972-.05-268.143v-.438h.2l187.482.023h.176v.176c-.03,65.686-.055,120.783-.072,159.462-.021,19.335-.038,34.566-.049,44.968-.012,5.2-.021,9.185-.027,11.88-.005,1.343-.011,2.363-.014,3.05s-.014,1.032-.014,1.032" transform="translate(-12.645 -3.221)" fill="#263238"/>
            <path id="Trazado_801129" data-name="Trazado 801129" d="M278.531,39.005H183.67V17.187a5.7,5.7,0,0,1,5.7-5.7h83.468a5.7,5.7,0,0,1,5.7,5.7Z" transform="translate(-18.285 -1.144)" fill="#12263f"/>
            <path id="Trazado_801130" data-name="Trazado 801130" d="M247.082,0H222.938l2.822,20.695h18.186Z" transform="translate(-22.195 0)" fill="#12263f"/>
            <path id="Trazado_801131" data-name="Trazado 801131" d="M273.111,11.469c0,.11-18.509.2-41.335.2s-41.339-.089-41.339-.2,18.505-.2,41.339-.2,41.335.089,41.335.2" transform="translate(-18.959 -1.122)" fill="#455a64"/>
            <path id="Trazado_801132" data-name="Trazado 801132" d="M186.006,35.195c-.11,0-.2-3.891-.2-8.691s.089-8.693.2-8.693.2,3.892.2,8.693-.089,8.691-.2,8.691" transform="translate(-18.498 -1.773)" fill="#455a64"/>
            <path id="Trazado_801133" data-name="Trazado 801133" d="M285.587,33.086a78.427,78.427,0,0,1-.2-7.891,78.412,78.412,0,0,1,.2-7.891,78.429,78.429,0,0,1,.2,7.891,78.444,78.444,0,0,1-.2,7.891" transform="translate(-28.412 -1.723)" fill="#455a64"/>
            <path id="Trazado_801134" data-name="Trazado 801134" d="M271.145,38.874c0,.11-19,.2-42.43.2s-42.433-.089-42.433-.2,18.995-.2,42.433-.2,42.43.089,42.43.2" transform="translate(-18.545 -3.85)" fill="#455a64"/>
            <rect id="Rectángulo_374162" data-name="Rectángulo 374162" width="103.538" height="6.364" transform="translate(174.771 80.836)" fill="#e0e0e0"/>
            <rect id="Rectángulo_374163" data-name="Rectángulo 374163" width="46.973" height="6.32" transform="translate(174.77 93.838)" fill="#e0e0e0"/>
            <path id="Trazado_801135" data-name="Trazado 801135" d="M176.268,110.694H159.286a3.478,3.478,0,0,1-3.478-3.478V90.234a3.478,3.478,0,0,1,3.478-3.478h16.982a3.478,3.478,0,0,1,3.478,3.478v16.981a3.478,3.478,0,0,1-3.478,3.478" transform="translate(-15.512 -8.637)" fill="#fccd92"/>
            <path id="Trazado_801136" data-name="Trazado 801136" d="M167.978,105.121l-6.706-5.182,1.808-2.34,4.5,3.475,6.395-7.358,2.232,1.94Z" transform="translate(-16.056 -9.33)" fill="#fff"/>
            <rect id="Rectángulo_374164" data-name="Rectángulo 374164" width="103.538" height="6.364" transform="translate(174.771 120.242)" fill="#e0e0e0"/>
            <rect id="Rectángulo_374165" data-name="Rectángulo 374165" width="46.973" height="6.32" transform="translate(174.77 133.243)" fill="#e0e0e0"/>
            <path id="Trazado_801137" data-name="Trazado 801137" d="M176.268,154.456H159.286a3.478,3.478,0,0,1-3.478-3.478V134a3.478,3.478,0,0,1,3.478-3.478h16.982A3.478,3.478,0,0,1,179.746,134v16.981a3.478,3.478,0,0,1-3.478,3.478" transform="translate(-15.512 -12.994)" fill="#fccd92"/>
            <path id="Trazado_801138" data-name="Trazado 801138" d="M167.978,148.883l-6.706-5.182,1.808-2.34,4.5,3.475,6.395-7.358,2.232,1.94Z" transform="translate(-16.056 -13.687)" fill="#fff"/>
            <rect id="Rectángulo_374166" data-name="Rectángulo 374166" width="103.538" height="6.364" transform="translate(174.771 162.463)" fill="#e0e0e0"/>
            <rect id="Rectángulo_374167" data-name="Rectángulo 374167" width="46.973" height="6.32" transform="translate(174.77 175.463)" fill="#e0e0e0"/>
            <rect id="Rectángulo_374168" data-name="Rectángulo 374168" width="103.538" height="6.364" transform="translate(174.771 201.494)" fill="#e0e0e0"/>
            <rect id="Rectángulo_374169" data-name="Rectángulo 374169" width="46.973" height="6.32" transform="translate(174.77 214.496)" fill="#e0e0e0"/>
            <path id="Trazado_801139" data-name="Trazado 801139" d="M176.268,201.345H159.286a3.478,3.478,0,0,1-3.478-3.478V180.885a3.478,3.478,0,0,1,3.478-3.478h16.982a3.478,3.478,0,0,1,3.478,3.478v16.981a3.478,3.478,0,0,1-3.478,3.478" transform="translate(-15.512 -17.662)" fill="#fccd92"/>
            <path id="Trazado_801140" data-name="Trazado 801140" d="M167.978,195.772l-6.706-5.182,1.808-2.34,4.5,3.475,6.395-7.358,2.232,1.94Z" transform="translate(-16.056 -18.355)" fill="#fff"/>
            <path id="Trazado_801141" data-name="Trazado 801141" d="M176.565,246.288H158.9a3.546,3.546,0,0,1-3.541-3.542V225.079a3.546,3.546,0,0,1,3.541-3.542h17.667a3.547,3.547,0,0,1,3.542,3.542v17.666a3.547,3.547,0,0,1-3.542,3.542M158.9,222.349a2.733,2.733,0,0,0-2.73,2.73v17.666a2.733,2.733,0,0,0,2.73,2.73h17.667a2.733,2.733,0,0,0,2.73-2.73V225.079a2.733,2.733,0,0,0-2.73-2.73Z" transform="translate(-15.467 -22.055)" fill="#fccd92"/>
            <rect id="Rectángulo_374170" data-name="Rectángulo 374170" width="103.538" height="6.364" transform="translate(174.771 246.143)" fill="#e0e0e0"/>
            <rect id="Rectángulo_374171" data-name="Rectángulo 374171" width="46.973" height="6.32" transform="translate(174.77 259.144)" fill="#e0e0e0"/>
            <path id="Trazado_801142" data-name="Trazado 801142" d="M176.565,295.873H158.9a3.546,3.546,0,0,1-3.541-3.542V274.664a3.546,3.546,0,0,1,3.541-3.542h17.667a3.547,3.547,0,0,1,3.542,3.542V292.33a3.547,3.547,0,0,1-3.542,3.542M158.9,271.934a2.733,2.733,0,0,0-2.73,2.73V292.33a2.733,2.733,0,0,0,2.73,2.73h17.667a2.733,2.733,0,0,0,2.73-2.73V274.664a2.733,2.733,0,0,0-2.73-2.73Z" transform="translate(-15.467 -26.992)" fill="#fccd92"/>
            <rect id="Rectángulo_374172" data-name="Rectángulo 374172" width="103.23" height="8.838" transform="translate(162.309 56.193)" fill="#fccd92"/>
          </g>
        </g>
        <g id="Grupo_1065270" data-name="Grupo 1065270">
          <g id="Grupo_1065269" data-name="Grupo 1065269" clip-path="url(#clip-path)">
            <path id="Trazado_801143" data-name="Trazado 801143" d="M199.72,419.659s-3.107-21.364-2.849-33.795-.015-26.414-.015-26.414h1.433s-.97,24.672.086,39.553,3.833,20.655,3.833,20.655Z" transform="translate(-19.598 -35.785)" fill="#263238"/>
            <path id="Trazado_801144" data-name="Trazado 801144" d="M208.732,332.506a3.771,3.771,0,0,0-1.3-1.91,3.632,3.632,0,0,0-3.113.022c-4.327,1.531-8.163,9.6-9.911,13.84l5.744,19.355c10.368-9.619,12.163-22.237,8.585-31.307" transform="translate(-19.354 -32.878)" fill="#455a64"/>
            <path id="Trazado_801145" data-name="Trazado 801145" d="M207.727,331.5a1.137,1.137,0,0,1-.084.252l-.281.706c-.252.609-.605,1.495-1.027,2.593-.846,2.2-1.923,5.271-2.887,8.732s-1.62,6.652-2.028,8.972c-.205,1.16-.358,2.1-.457,2.753-.05.3-.091.552-.122.749a1.1,1.1,0,0,1-.059.259,1.141,1.141,0,0,1,.012-.266c.021-.2.047-.448.078-.755.07-.656.2-1.6.384-2.768a82.363,82.363,0,0,1,4.924-17.738c.443-1.093.82-1.97,1.1-2.569l.322-.688a1.119,1.119,0,0,1,.127-.233" transform="translate(-19.989 -33.003)" fill="#263238"/>
            <path id="Trazado_801146" data-name="Trazado 801146" d="M196.966,369.55a17.528,17.528,0,0,1-8.853-14.716c-.207-4.3,1.113-8.509,2.608-12.54a1.623,1.623,0,0,1,.608-.911,1.545,1.545,0,0,1,1.468.229c3.912,2.229,6.283,6.475,7.545,10.8a21.794,21.794,0,0,1,.885,8.878,14.753,14.753,0,0,1-4.26,8.263" transform="translate(-18.726 -33.975)" fill="#455a64"/>
            <path id="Trazado_801147" data-name="Trazado 801147" d="M197.525,369.9a1.069,1.069,0,0,1-.021-.259c0-.2-.009-.442-.014-.743,0-.645-.028-1.578-.081-2.728a74.592,74.592,0,0,0-1-8.941c-.6-3.467-1.322-6.571-1.856-8.814-.263-1.1-.479-2-.638-2.656-.067-.294-.122-.534-.166-.725a1.153,1.153,0,0,1-.042-.257,1.026,1.026,0,0,1,.088.245c.056.188.124.424.209.713.177.62.421,1.522.71,2.639.576,2.235,1.328,5.339,1.927,8.815a65.373,65.373,0,0,1,.934,8.974c.032,1.155.032,2.091.005,2.736-.013.3-.023.547-.031.744a1.07,1.07,0,0,1-.026.258" transform="translate(-19.285 -34.324)" fill="#263238"/>
            <g id="Grupo_1065265" data-name="Grupo 1065265" transform="translate(169.365 307.295)" opacity="0.3">
              <g id="Grupo_1065264" data-name="Grupo 1065264">
                <g id="Grupo_1065263" data-name="Grupo 1065263" clip-path="url(#clip-path-8)">
                  <path id="Trazado_801148" data-name="Trazado 801148" d="M196.966,369.55a17.528,17.528,0,0,1-8.853-14.716c-.207-4.3,1.113-8.509,2.608-12.54a1.623,1.623,0,0,1,.608-.911,1.545,1.545,0,0,1,1.468.229c3.912,2.229,6.283,6.475,7.545,10.8a21.794,21.794,0,0,1,.885,8.878,14.753,14.753,0,0,1-4.26,8.263" transform="translate(-188.091 -341.271)"/>
                </g>
              </g>
            </g>
            <path id="Trazado_801149" data-name="Trazado 801149" d="M204.693,408.928c5.3,1.164,9.662,4.9,14.774,6.719,3.382,1.2,7.207,1.628,9.908,3.993a8.394,8.394,0,0,0-3.677-3.658,65.924,65.924,0,0,0-13.391-6.393c-2.405-.83-5.015-1.524-7.466-.84" transform="translate(-20.378 -40.666)" fill="#455a64"/>
            <path id="Trazado_801150" data-name="Trazado 801150" d="M193.948,413.448c-6.636-.107-13.624-5.757-20.228-6.094,6.912-2.231,16.809-.409,20.228,6.094" transform="translate(-17.295 -40.464)" fill="#455a64"/>
            <path id="Trazado_801151" data-name="Trazado 801151" d="M199.064,395.649a21.6,21.6,0,0,1,10.609-.722,64.5,64.5,0,0,1,10.358,2.816c-.341-2.3-2.206-4.034-3.957-5.567a27.574,27.574,0,0,0-4.159-3.2,9.264,9.264,0,0,0-4.988-1.407,7.887,7.887,0,0,0-5.5,2.774,9.143,9.143,0,0,0-2.358,5.3" transform="translate(-19.818 -38.585)" fill="#455a64"/>
            <path id="Trazado_801152" data-name="Trazado 801152" d="M182.17,388.056c-4.177-3.567-10.5-3.218-16-3.094a130.277,130.277,0,0,1,24.808,15.459c.223-3.882-3.535-7.86-8.812-12.365" transform="translate(-16.544 -38.318)" fill="#455a64"/>
            <g id="Grupo_1065268" data-name="Grupo 1065268" transform="translate(149.63 346.573)" opacity="0.3">
              <g id="Grupo_1065267" data-name="Grupo 1065267">
                <g id="Grupo_1065266" data-name="Grupo 1065266" clip-path="url(#clip-path-9)">
                  <path id="Trazado_801153" data-name="Trazado 801153" d="M182.17,388.056c-4.177-3.567-10.5-3.218-16-3.094a130.277,130.277,0,0,1,24.808,15.459c.223-3.882-3.535-7.86-8.812-12.365" transform="translate(-166.174 -384.891)"/>
                </g>
              </g>
            </g>
            <path id="Trazado_801154" data-name="Trazado 801154" d="M201.148,381.041a46.579,46.579,0,0,1,6.425-3.734c2.2-1,4.25-2.591,6.373-3.74a69.577,69.577,0,0,0,7.666-5.412,19.91,19.91,0,0,1,8.4-4.007,16.5,16.5,0,0,0-7.641.442,49.341,49.341,0,0,0-7.192,2.8c-3.259,1.469-6.574,2.972-9.238,5.356s-5.072,4.735-4.79,8.3" transform="translate(-20.023 -36.226)" fill="#455a64"/>
            <path id="Trazado_801155" data-name="Trazado 801155" d="M218.74,413.668a.81.81,0,0,1-.21-.091l-.579-.3c-.5-.266-1.217-.66-2.121-1.114-.447-.237-.942-.483-1.48-.735s-1.11-.526-1.723-.791a25.2,25.2,0,0,0-4.086-1.424,8.765,8.765,0,0,0-4.256-.107,12.12,12.12,0,0,0-1.8.538,9.287,9.287,0,0,0-3.286,2.259c-.384.411-.572.664-.589.651a.859.859,0,0,1,.119-.2,6.476,6.476,0,0,1,.4-.518,8.577,8.577,0,0,1,1.807-1.59,9.042,9.042,0,0,1,1.472-.789,11.951,11.951,0,0,1,1.828-.569,8.851,8.851,0,0,1,4.362.089,24.18,24.18,0,0,1,4.119,1.454c.614.272,1.192.541,1.723.814s1.029.517,1.472.763c.9.475,1.6.891,2.088,1.182l.557.339a.828.828,0,0,1,.186.132" transform="translate(-19.772 -40.685)" fill="#263238"/>
            <path id="Trazado_801156" data-name="Trazado 801156" d="M190.688,410.57a1.539,1.539,0,0,1,.416.122,9.3,9.3,0,0,1,1.081.47,13.125,13.125,0,0,1,5.545,5.327,9.128,9.128,0,0,1,.512,1.062,1.522,1.522,0,0,1,.139.41c-.039.017-.286-.545-.8-1.388a14.714,14.714,0,0,0-5.477-5.263c-.863-.475-1.434-.7-1.419-.739" transform="translate(-18.984 -40.874)" fill="#263238"/>
            <path id="Trazado_801157" data-name="Trazado 801157" d="M174.382,388.035a1.365,1.365,0,0,1,.283.084l.8.284,1.255.463c.49.182,1.021.45,1.623.715a38.383,38.383,0,0,1,8.64,5.5,42.281,42.281,0,0,1,4.029,3.967,44.445,44.445,0,0,1,2.859,3.623c.758,1.073,1.333,1.967,1.726,2.585l.454.712a1.417,1.417,0,0,1,.148.257,1.35,1.35,0,0,1-.186-.23c-.116-.155-.285-.385-.492-.688-.418-.6-1.013-1.481-1.786-2.539s-1.742-2.278-2.886-3.576a44.19,44.19,0,0,0-4.02-3.931,40.4,40.4,0,0,0-8.557-5.533c-.594-.274-1.119-.552-1.6-.745l-1.238-.5-.78-.324a1.4,1.4,0,0,1-.267-.129" transform="translate(-17.361 -38.631)" fill="#263238"/>
            <path id="Trazado_801158" data-name="Trazado 801158" d="M208.925,392.347a2.268,2.268,0,0,1-.529-.068l-.61-.113c-.237-.046-.513-.047-.815-.078a8.352,8.352,0,0,0-4.561.9,8.247,8.247,0,0,0-2.076,1.54,9.359,9.359,0,0,0-1.334,1.65,13.641,13.641,0,0,0-.912,1.741,1.927,1.927,0,0,1,.134-.517,7.441,7.441,0,0,1,.636-1.312,8.788,8.788,0,0,1,1.321-1.714,8.073,8.073,0,0,1,6.806-2.454c.305.042.585.056.823.114l.608.153a2.326,2.326,0,0,1,.509.158" transform="translate(-19.721 -39.013)" fill="#263238"/>
            <path id="Trazado_801159" data-name="Trazado 801159" d="M215.561,369.422a1.4,1.4,0,0,1-.251.155l-.74.4c-.644.348-1.57.859-2.7,1.523s-2.44,1.5-3.845,2.5a32.166,32.166,0,0,0-4.292,3.6,10.922,10.922,0,0,0-1.756,2.273c-.435.836-.85,1.642-1.232,2.417a43.555,43.555,0,0,0-1.844,4.2,25.551,25.551,0,0,0-.9,2.955c-.17.71-.231,1.111-.255,1.107a1.4,1.4,0,0,1,.027-.293c.023-.192.064-.474.138-.833a22.03,22.03,0,0,1,.829-2.993,40.45,40.45,0,0,1,1.805-4.237c.378-.78.79-1.59,1.222-2.427a10.977,10.977,0,0,1,1.792-2.331,31.154,31.154,0,0,1,4.336-3.609c1.418-1,2.752-1.813,3.886-2.468s2.08-1.137,2.738-1.459l.761-.364a1.409,1.409,0,0,1,.273-.112" transform="translate(-19.687 -36.778)" fill="#263238"/>
            <path id="Trazado_801160" data-name="Trazado 801160" d="M196.374,390.21a2.676,2.676,0,0,1-.131-.559c-.077-.41-.175-.923-.291-1.533a39.184,39.184,0,0,0-3.15-9.754l-.647-1.421a2.7,2.7,0,0,1-.213-.534,2.737,2.737,0,0,1,.3.493c.176.324.424.8.716,1.389a32.733,32.733,0,0,1,3.163,9.8c.1.653.179,1.181.217,1.549a2.679,2.679,0,0,1,.041.574" transform="translate(-19.109 -37.474)" fill="#263238"/>
            <path id="Trazado_801161" data-name="Trazado 801161" d="M194.32,372.855a18,18,0,0,0-2.158-7.164,23.649,23.649,0,0,0-16.03-11.954l14.841,22.119,1.916,3.948a11.347,11.347,0,0,0,1.431-6.949" transform="translate(-17.535 -35.217)" fill="#455a64"/>
            <rect id="Rectángulo_374176" data-name="Rectángulo 374176" width="34.509" height="6.117" transform="translate(163.565 381.23)" fill="#b0c0d2"/>
            <path id="Trazado_801162" data-name="Trazado 801162" d="M184.51,428.826l2.938,18.979h22.91l3.506-18.979Z" transform="translate(-18.369 -42.692)" fill="#b0c0d2"/>
            <path id="Trazado_801163" data-name="Trazado 801163" d="M216.108,430.169c0,.067-7.784.122-17.384.122s-17.385-.055-17.385-.122,7.781-.122,17.385-.122,17.384.055,17.384.122" transform="translate(-18.053 -42.814)" fill="#263238"/>
          </g>
        </g>
        <g id="Grupo_1065272" data-name="Grupo 1065272">
          <g id="Grupo_1065271" data-name="Grupo 1065271" clip-path="url(#clip-path)">
            <path id="Trazado_801164" data-name="Trazado 801164" d="M357.637,184.08l-1.83-4.343a17.97,17.97,0,1,0-3.032,5.68l0,.01Z" transform="translate(-31.935 -15.564)" fill="#fff"/>
            <path id="Trazado_801165" data-name="Trazado 801165" d="M357.615,184.058a2.2,2.2,0,0,1-.3.1l-.918.275-3.628,1.057a.087.087,0,0,1-.106-.059.092.092,0,0,1,0-.059l0-.009.146.087a17.865,17.865,0,0,1-6.842,5.352,18.5,18.5,0,0,1-5.557,1.47,18.066,18.066,0,0,1-6.511-.557,18.475,18.475,0,0,1-6.44-3.267,17.715,17.715,0,0,1-4.965-6.028,18.525,18.525,0,0,1-1.949-8.076A18.186,18.186,0,0,1,328.44,159.3a18.487,18.487,0,0,1,7.833-3.01,17.678,17.678,0,0,1,7.85.71,18.49,18.49,0,0,1,6.363,3.533,18.162,18.162,0,0,1,4.129,5.117l.66,1.379c.205.457.349.929.521,1.38a16.311,16.311,0,0,1,.7,2.7,17.867,17.867,0,0,1-.628,8.639l0-.058c.567,1.4,1.011,2.5,1.323,3.266l.33.834a2.08,2.08,0,0,1,.1.276,3.133,3.133,0,0,1-.14-.293l-.375-.837-1.392-3.18a.087.087,0,0,1,0-.059,17.923,17.923,0,0,0,.52-8.54,16.138,16.138,0,0,0-.708-2.649c-.173-.442-.317-.906-.522-1.353l-.657-1.351a17.887,17.887,0,0,0-4.082-5,18.19,18.19,0,0,0-6.251-3.438,17.316,17.316,0,0,0-7.68-.672,18.1,18.1,0,0,0-7.65,2.954,17.8,17.8,0,0,0-7.7,14.7,18.158,18.158,0,0,0,1.893,7.9,17.367,17.367,0,0,0,4.84,5.911,18.164,18.164,0,0,0,6.3,3.227,17.831,17.831,0,0,0,6.387.583,18.334,18.334,0,0,0,5.477-1.406,17.931,17.931,0,0,0,6.818-5.209.086.086,0,0,1,.121-.015.089.089,0,0,1,.025.1l0,.009-.1-.116,3.6-.945.948-.242a3.129,3.129,0,0,1,.337-.077" transform="translate(-31.913 -15.543)" fill="#263238"/>
            <path id="Trazado_801166" data-name="Trazado 801166" d="M335.634,176.575a1.963,1.963,0,1,1-1.962-1.962,1.962,1.962,0,0,1,1.962,1.962" transform="translate(-33.024 -17.384)" fill="#263238"/>
            <path id="Trazado_801167" data-name="Trazado 801167" d="M342.975,176.575a1.963,1.963,0,1,1-1.962-1.962,1.962,1.962,0,0,1,1.962,1.962" transform="translate(-33.754 -17.384)" fill="#263238"/>
            <path id="Trazado_801168" data-name="Trazado 801168" d="M350.123,176.575a1.963,1.963,0,1,1-1.962-1.962,1.962,1.962,0,0,1,1.962,1.962" transform="translate(-34.466 -17.384)" fill="#263238"/>
          </g>
        </g>
        <g id="Grupo_1065274" data-name="Grupo 1065274">
          <g id="Grupo_1065273" data-name="Grupo 1065273" clip-path="url(#clip-path)">
            <path id="Trazado_801169" data-name="Trazado 801169" d="M96.9,142.678l.854-5.009a17.066,17.066,0,1,1,3.933,4.679l.005.008Z" transform="translate(-9.509 -11.171)" fill="#fff"/>
            <path id="Trazado_801170" data-name="Trazado 801170" d="M96.886,142.659a2.733,2.733,0,0,0,.3-.008l.911-.045,3.587-.2a.07.07,0,0,0,.067-.075.068.068,0,0,0-.013-.038l-.005-.008-.1.1a17.08,17.08,0,0,0,7.451,3.63,17.359,17.359,0,0,0,2.628.336c.458.032.927,0,1.4,0,.238-.007.478,0,.719-.021l.728-.084a16.978,16.978,0,0,0,5.957-1.82,17.121,17.121,0,0,0,8.809-18.927,17.365,17.365,0,0,0-6.78-10.278,17.285,17.285,0,0,0-3.61-1.959,17,17,0,0,0-7.774-1.18A17.175,17.175,0,0,0,95.4,129.7a16.94,16.94,0,0,0,2.276,7.988l-.009-.049c-.258,1.627-.457,2.886-.6,3.757-.062.407-.11.722-.145.953a3.044,3.044,0,0,0-.041.312s.028-.118.07-.337c.044-.234.1-.554.182-.966.156-.856.382-2.094.674-3.695a.076.076,0,0,0-.008-.049,16.942,16.942,0,0,1,13.381-25.2,16.685,16.685,0,0,1,7.617,1.167,17.028,17.028,0,0,1,3.535,1.922,16.668,16.668,0,0,1,6.644,10.067,16.844,16.844,0,0,1-.095,7.767,17,17,0,0,1-8.511,10.825,16.761,16.761,0,0,1-5.851,1.818l-.716.087c-.237.026-.474.015-.708.024-.468,0-.93.038-1.382.01a16.857,16.857,0,0,1-10-3.83.072.072,0,0,0-.1.1l.005.008.053-.113-3.534.28-.927.079c-.211.019-.325.034-.325.034" transform="translate(-9.497 -11.152)" fill="#263238"/>
            <path id="Trazado_801171" data-name="Trazado 801171" d="M106.259,131.811l1.88-1.88,3.626,3.223,7.117-6.849,1.746,1.88-9.132,8.595Z" transform="translate(-10.579 -12.574)" fill="#fccd92"/>
          </g>
        </g>
        <g id="Grupo_1065276" data-name="Grupo 1065276">
          <g id="Grupo_1065275" data-name="Grupo 1065275" clip-path="url(#clip-path)">
            <path id="Trazado_801172" data-name="Trazado 801172" d="M434.663,340.922c.022-.212.042-.422.051-.633.181-4.052-1.465-7.936-3.049-11.671-4.247-10.014-8.356-20.637-7.162-31.444,1.578-14.292,12.087-26.111,15.837-39.932a3.747,3.747,0,0,1,3.625-2.747h0a3.749,3.749,0,0,1,3.6,4.866c-4.178,12.927-13.709,24.258-15.207,37.813-1.193,10.807,2.916,21.431,7.162,31.444,1.585,3.735,3.23,7.619,3.05,11.671s-2.787,8.31-6.8,8.959H376.051a3.763,3.763,0,0,1-3.767-3.757v-.813a3.763,3.763,0,0,1,3.767-3.757Z" transform="translate(-37.063 -25.336)" fill="#455a64"/>
            <path id="Trazado_801173" data-name="Trazado 801173" d="M444.877,440.9H358.219a3.808,3.808,0,0,1-3.089-1.633,4.677,4.677,0,0,1-.633-4.187l24.668-75.59,1.287.421L355.784,435.5a3.316,3.316,0,0,0,.442,2.971,2.47,2.47,0,0,0,1.994,1.074h86.658a2.437,2.437,0,0,0,1.958-1.024,3.322,3.322,0,0,0,.52-2.888l-21.2-75.753,1.3-.365,21.2,75.753a4.679,4.679,0,0,1-.745,4.071,3.81,3.81,0,0,1-3.035,1.559" transform="translate(-35.269 -35.79)" fill="#e0e0e0"/>
            <path id="Trazado_801174" data-name="Trazado 801174" d="M319.916,296.2s3.156-7.669,6.273-9.292a39.853,39.853,0,0,1,7.088-2.659h13.879l.138,8.985a6.112,6.112,0,0,1-4.752,1.63c-2.747-.38-9.606-2.076-9.606-2.076l-3.386.185-3.12,4s-2.533.769-1.642-1.627,1.289-3.453,1.289-3.453-3,4.663-4.147,4.878a2.547,2.547,0,0,1-2.016-.573" transform="translate(-31.85 -28.299)" fill="#6f4439"/>
            <path id="Trazado_801175" data-name="Trazado 801175" d="M380.262,265.406l-11.045,15.887-19.078,1.085-.26,8.715,14.376,2.83a23.172,23.172,0,0,0,20.633-6.125l2.1-19.215Z" transform="translate(-34.833 -26.423)" fill="#ae7461"/>
            <path id="Trazado_801176" data-name="Trazado 801176" d="M374.109,410.337l12.838,12.554s-9.268,17.895-7.136,20.456l26.8-25.217-19.148-20.421Z" transform="translate(-37.245 -39.594)" fill="#727997"/>
            <path id="Trazado_801177" data-name="Trazado 801177" d="M396.333,415.781a1.425,1.425,0,0,1,1.874.466,1.445,1.445,0,0,1-.551,1.876,1.5,1.5,0,0,1-1.981-.5,1.519,1.519,0,0,1,.788-1.9" transform="translate(-39.383 -41.376)" fill="#e0e0e0"/>
            <path id="Trazado_801178" data-name="Trazado 801178" d="M407.19,420.17l-2.016-1.979-24.94,24.918s-.729,1.613.157,2.278Z" transform="translate(-37.827 -41.633)" fill="#455a64"/>
            <path id="Trazado_801179" data-name="Trazado 801179" d="M387.746,425.841c.122.12.829-.44,1.849-.649,1.017-.235,1.855-.013,1.929-.176.1-.137-.8-.692-2.028-.417s-1.886,1.155-1.75,1.242" transform="translate(-38.601 -42.264)" fill="#fff"/>
            <path id="Trazado_801180" data-name="Trazado 801180" d="M385.78,430.066c.084.148.849-.176,1.788-.072.944.077,1.591.536,1.716.407.141-.1-.453-.9-1.624-1.011s-1.989.556-1.88.676" transform="translate(-38.406 -42.747)" fill="#fff"/>
            <path id="Trazado_801181" data-name="Trazado 801181" d="M387.013,435.18c.144-.086-.258-.873-1.235-1.234s-1.844-.053-1.8.1c.023.172.764.16,1.56.468.8.288,1.335.773,1.477.664" transform="translate(-38.227 -43.185)" fill="#fff"/>
            <path id="Trazado_801182" data-name="Trazado 801182" d="M384.869,422.152c.162.061.6-.674,1.385-1.323.773-.664,1.569-.972,1.538-1.142-.009-.16-1-.088-1.918.688s-1.161,1.74-1,1.777" transform="translate(-38.312 -41.775)" fill="#fff"/>
            <path id="Trazado_801183" data-name="Trazado 801183" d="M367.322,312.358c-2.347,0-59.533,16.658-65.721,22.289s-10.818,75.313-10.818,75.313l23.978,8.221s5.053-34.032,8.117-45.023a56.2,56.2,0,0,0,1.875-16.9l47.477-20.677Z" transform="translate(-28.949 -31.097)" fill="#12263f"/>
            <path id="Trazado_801184" data-name="Trazado 801184" d="M372.111,315.29c-1.067.469-42.615,18.209-46.52,30.094-3.182,9.684.517,18.212,4.962,24.877,5.018,7.524,41.818,41.105,41.818,41.105l20.77-14.851L357.533,359.74s18.683-11.533,19.324-11.533,20.062-1.284,26.218-1.981c5.749-.651,8.895-8.9,8.895-8.9l5.128-23.636L378.564,304.8Z" transform="translate(-32.296 -30.345)" fill="#12263f"/>
            <path id="Trazado_801185" data-name="Trazado 801185" d="M372.1,315.282s.133-.237.406-.691l1.221-2.016,4.771-7.815.024-.04.045.011,38.547,8.834.119.027-.026.12-5.107,23.64,0,.013,0,.009a20.717,20.717,0,0,1-3.658,5.925,10.546,10.546,0,0,1-2.818,2.242,4.318,4.318,0,0,1-.834.384,4.952,4.952,0,0,1-.88.281c-.3.057-.61.13-.913.173l-.91.1c-4.864.48-9.9.84-15.071,1.217l-7.869.537-2,.122-.258.011c-.056,0-.049.018-.074.02a1.014,1.014,0,0,0-.1.043c-.143.061-.293.146-.439.22l-.88.486c-1.169.665-2.335,1.356-3.505,2.054-4.68,2.8-9.435,5.713-14.272,8.693l.033-.265,27.808,28.712,7.8,8.06.141.147-.166.118L372.458,411.5l-.113.082-.1-.095q-11.155-10.225-21.359-19.968c-3.389-3.241-6.686-6.436-9.856-9.608s-6.246-6.285-9.02-9.529c-.363-.391-.662-.838-.991-1.254a14.621,14.621,0,0,1-.924-1.29c-.574-.881-1.122-1.771-1.627-2.677a36.866,36.866,0,0,1-2.58-5.555,27.37,27.37,0,0,1-1.432-5.76,24.079,24.079,0,0,1-.041-5.735,21.163,21.163,0,0,1,1.295-5.376,15.6,15.6,0,0,1,3.064-4.338,51.4,51.4,0,0,1,7.665-6.311,148.578,148.578,0,0,1,14.539-8.71c4.383-2.338,8.209-4.209,11.343-5.7s5.581-2.582,7.24-3.313l1.89-.817c.428-.181.648-.265.648-.265s-.213.1-.636.294l-1.877.845c-1.651.748-4.089,1.862-7.213,3.365s-6.941,3.39-11.312,5.741a150.02,150.02,0,0,0-14.494,8.739,51.3,51.3,0,0,0-7.614,6.3,15.378,15.378,0,0,0-3.007,4.267,20.9,20.9,0,0,0-1.266,5.307,23.815,23.815,0,0,0,.049,5.669,27.187,27.187,0,0,0,1.425,5.7,36.683,36.683,0,0,0,2.568,5.508c.5.9,1.048,1.784,1.621,2.659a14.63,14.63,0,0,0,.916,1.275c.326.411.619.848.981,1.238,2.762,3.224,5.843,6.336,9.013,9.5s6.469,6.357,9.86,9.594c6.781,6.475,13.927,13.14,21.364,19.95l-.216-.013,20.768-14.854-.024.265-7.8-8.058-27.8-28.719-.149-.154.182-.112c4.839-2.979,9.6-5.892,14.281-8.688,1.172-.7,2.339-1.388,3.514-2.055l.888-.49c.153-.077.3-.158.461-.23a.911.911,0,0,1,.133-.055.661.661,0,0,1,.17-.035l.244-.011,2-.12,7.867-.53c5.173-.372,10.207-.727,15.063-1.2a8.067,8.067,0,0,0,3.425-.9,10.22,10.22,0,0,0,2.74-2.176,20.443,20.443,0,0,0,3.609-5.827l-.006.021c1.862-8.549,3.6-16.529,5.148-23.631l.093.147-38.52-8.951.068-.029c-2.112,3.406-3.735,6.024-4.833,7.8l-1.246,1.994c-.28.446-.429.666-.429.666" transform="translate(-32.282 -30.337)" fill="#455a64"/>
            <path id="Trazado_801186" data-name="Trazado 801186" d="M381.069,187.948a3.9,3.9,0,0,1-2.3-7.4,4.053,4.053,0,0,1,2.926-7.115,4.851,4.851,0,0,1,6.941-4.6,5.452,5.452,0,0,1,6.679-.718,3.879,3.879,0,0,1,3.984,6.257" transform="translate(-37.474 -16.655)" fill="#263238"/>
            <path id="Trazado_801187" data-name="Trazado 801187" d="M396.94,172.378l-.853.076a16.53,16.53,0,0,0-15.076,16.594c.062,8.012.233,16.864.663,21.127.891,8.828,9.852,9.421,9.852,9.421l.191,10.684,21.39-2.561L411.6,189.044c-.02-9.246-5.417-16.941-14.659-16.665" transform="translate(-37.932 -17.161)" fill="#ae7461"/>
            <path id="Trazado_801188" data-name="Trazado 801188" d="M392.675,224.328a21.445,21.445,0,0,0,11.218-4.418s-2.275,6.761-11.165,6.745Z" transform="translate(-39.093 -21.893)" fill="#6f4439"/>
            <path id="Trazado_801189" data-name="Trazado 801189" d="M384.552,199.854a1.268,1.268,0,0,0,1.33,1.166,1.211,1.211,0,0,0,1.2-1.253,1.268,1.268,0,0,0-1.328-1.167,1.213,1.213,0,0,0-1.2,1.254" transform="translate(-38.284 -19.772)" fill="#263238"/>
            <path id="Trazado_801190" data-name="Trazado 801190" d="M383.542,195.335c.171.15,1.064-.641,2.423-.758,1.355-.136,2.413.475,2.546.3.067-.081-.12-.364-.581-.641a3.475,3.475,0,0,0-2.057-.44,3.339,3.339,0,0,0-1.911.809c-.389.357-.5.668-.421.735" transform="translate(-38.181 -19.292)" fill="#263238"/>
            <path id="Trazado_801191" data-name="Trazado 801191" d="M398.114,199.074a1.267,1.267,0,0,0,1.33,1.165,1.211,1.211,0,0,0,1.2-1.253,1.269,1.269,0,0,0-1.329-1.167,1.213,1.213,0,0,0-1.2,1.254" transform="translate(-39.634 -19.694)" fill="#263238"/>
            <path id="Trazado_801192" data-name="Trazado 801192" d="M398.393,194.306c.17.15,1.065-.641,2.422-.757,1.355-.136,2.414.475,2.546.3.066-.08-.118-.364-.582-.641a3.485,3.485,0,0,0-2.057-.44,3.342,3.342,0,0,0-1.911.809c-.388.357-.5.668-.42.735" transform="translate(-39.66 -19.189)" fill="#263238"/>
            <path id="Trazado_801193" data-name="Trazado 801193" d="M393.518,204.89a8.968,8.968,0,0,0-2.241-.2c-.349,0-.684-.045-.764-.276a1.774,1.774,0,0,1,.14-1.048q.378-1.3.792-2.731a45.527,45.527,0,0,0,1.693-7.112,45.56,45.56,0,0,0-2.261,6.959q-.392,1.436-.747,2.743a2.016,2.016,0,0,0-.059,1.378.875.875,0,0,0,.615.457,2.4,2.4,0,0,0,.6.03,8.889,8.889,0,0,0,2.236-.195" transform="translate(-38.823 -19.266)" fill="#263238"/>
            <path id="Trazado_801194" data-name="Trazado 801194" d="M396.571,188.6c.21.329,1.341-.148,2.77-.321,1.424-.205,2.656-.042,2.755-.411.041-.176-.24-.462-.782-.692a4.319,4.319,0,0,0-2.19-.262,4.165,4.165,0,0,0-2.019.82c-.448.361-.629.71-.535.866" transform="translate(-39.479 -18.604)" fill="#263238"/>
            <path id="Trazado_801195" data-name="Trazado 801195" d="M382.916,189.11c.313.284,1.406-.136,2.753-.27,1.343-.174,2.508-.014,2.742-.359.1-.167-.106-.46-.63-.708a4.4,4.4,0,0,0-2.284-.307,4.33,4.33,0,0,0-2.143.814c-.448.359-.576.691-.437.83" transform="translate(-38.116 -18.66)" fill="#263238"/>
            <path id="Trazado_801196" data-name="Trazado 801196" d="M381.547,184.8s1.841-5.74,4.4-7.268c3.093-1.85,4.8,1.574,7.8.441s5.955-2.906,9.311-.8c3.675,2.3,2.222,4.271,2.781,8.174,2.268,15.82,5.569,20.06,5.733,12.5.018-.828,2.238-1.682,2.268-5.179.04-4.532-.27-10.006-1.555-13.107-1.083-2.613-2.78-4.335-5.71-6.14-4.626-2.849-10.592-2.391-14.6-1.626s-11.4,6.113-10.422,13.01" transform="translate(-37.976 -17.046)" fill="#263238"/>
            <path id="Trazado_801197" data-name="Trazado 801197" d="M414.249,200.3a2.408,2.408,0,0,1,2.385-2.541c1.662.011,3.579.785,3.772,4.2.34,6.059-5.812,5.151-5.833,4.979-.014-.118-.2-4.1-.324-6.638" transform="translate(-41.241 -19.688)" fill="#ae7461"/>
            <path id="Trazado_801198" data-name="Trazado 801198" d="M415.929,204.8c.025-.021.11.068.293.14a1.054,1.054,0,0,0,.79-.028,2.613,2.613,0,0,0,1.077-2.411,3.506,3.506,0,0,0-.381-1.495,1.222,1.222,0,0,0-.839-.765.54.54,0,0,0-.607.324c-.071.175-.026.294-.058.305-.016.016-.136-.095-.1-.347a.673.673,0,0,1,.217-.393.8.8,0,0,1,.574-.187,1.485,1.485,0,0,1,1.155.878,3.58,3.58,0,0,1,.461,1.668,2.742,2.742,0,0,1-1.392,2.7,1.134,1.134,0,0,1-.974-.105c-.2-.14-.235-.273-.215-.285" transform="translate(-41.408 -19.905)" fill="#6f4439"/>
            <path id="Trazado_801199" data-name="Trazado 801199" d="M410.213,185.751a5.762,5.762,0,0,1-2.455,1.408,1.98,1.98,0,0,1-2.309-1.193c-.109-.414-.05-.911-.355-1.212-.364-.358-.962-.184-1.463-.085-1.741.341-3.965-1.417-4.563-3.087a1.583,1.583,0,0,1-2.069.623,5.676,5.676,0,0,1-1.57-1.166,2.5,2.5,0,0,0-2.166-.854,5.948,5.948,0,0,1-1.289.405c-.8,0-1.269-.9-1.459-1.672s-.365-1.687-1.074-2.056a3.173,3.173,0,0,0-2.166.131c-.72.172-1.678.084-1.929-.614a1.44,1.44,0,0,1,.173-1.119,3.929,3.929,0,0,1,4.489-1.89,5.324,5.324,0,0,1,9.654-1.889,5.4,5.4,0,0,1,8.777,1.2,3.917,3.917,0,0,1,4.9,5.287,3.719,3.719,0,0,1,2.3,2.77,2.129,2.129,0,0,1-2.211,2.38,2.169,2.169,0,0,1-3.547,2.486" transform="translate(-38.358 -16.836)" fill="#263238"/>
            <path id="Trazado_801200" data-name="Trazado 801200" d="M390.207,175.861c-.005,0,0,.038.011.111s.029.181.068.319a3.8,3.8,0,0,0,.541,1.126,4.34,4.34,0,0,0,1.466,1.31,4.045,4.045,0,0,0,2.537.487l-.114-.125a2.2,2.2,0,0,0,.269,1.658,6.28,6.28,0,0,0,1.165,1.395,4.534,4.534,0,0,0,.737.633,2.12,2.12,0,0,0,.989.271,2.217,2.217,0,0,0,1.884-.869l-.231-.045a4.549,4.549,0,0,0,2.2,2.966,3.325,3.325,0,0,0,2.041.475,5.975,5.975,0,0,0,1.918-.6l-.168-.057a4.781,4.781,0,0,0,1.6,1.739,2.543,2.543,0,0,0,2.155.387,3.341,3.341,0,0,0,2.333-2.831l-.131.076a3.13,3.13,0,0,0,2.1.122,3.394,3.394,0,0,0,1.39-.773,2.928,2.928,0,0,0,.61-.8,1.4,1.4,0,0,0,.126-.326,3.627,3.627,0,0,1-.8,1.048,3.369,3.369,0,0,1-1.361.708,2.991,2.991,0,0,1-1.987-.149l-.119-.054-.013.131a3.153,3.153,0,0,1-2.211,2.628,2.311,2.311,0,0,1-1.958-.374,4.55,4.55,0,0,1-1.5-1.65l-.058-.107-.111.05a5.771,5.771,0,0,1-1.833.574,3.061,3.061,0,0,1-1.886-.443,4.3,4.3,0,0,1-2.078-2.794l-.063-.283-.169.239a1.968,1.968,0,0,1-1.663.766,1.882,1.882,0,0,1-.875-.232,4.327,4.327,0,0,1-.7-.594,6.11,6.11,0,0,1-1.137-1.332,1.994,1.994,0,0,1-.265-1.5l.037-.149-.151.023a3.892,3.892,0,0,1-2.428-.43,4.329,4.329,0,0,1-1.452-1.234,4.689,4.689,0,0,1-.711-1.488" transform="translate(-38.847 -17.508)" fill="#455a64"/>
            <path id="Trazado_801201" data-name="Trazado 801201" d="M394.04,210.535c.013-.228,1.528-.05,2.758-1.215s1.257-2.8,1.47-2.784c.1-.01.25.394.187,1.078a3.8,3.8,0,0,1-1.142,2.334,3.3,3.3,0,0,1-2.3.922c-.64-.018-1-.232-.973-.335" transform="translate(-39.229 -20.562)" fill="#263238"/>
            <path id="Trazado_801202" data-name="Trazado 801202" d="M291.811,420.8l-.572,9.375s-21.721,3.355-22.606,6.882l39.453,7.367,2.807-17.147Z" transform="translate(-26.744 -40.897)" fill="#727997"/>
            <path id="Trazado_801203" data-name="Trazado 801203" d="M307.375,433.034a1.553,1.553,0,0,1,.8,1.949,1.576,1.576,0,0,1-2.006.723,1.636,1.636,0,0,1-.831-2.069,1.655,1.655,0,0,1,2.18-.529" transform="translate(-30.384 -43.096)" fill="#e0e0e0"/>
            <path id="Trazado_801204" data-name="Trazado 801204" d="M308.086,447.152l.445-3.049-37.992-5.923s-1.889.4-1.905,1.6Z" transform="translate(-26.744 -43.623)" fill="#455a64"/>
            <path id="Trazado_801205" data-name="Trazado 801205" d="M293.067,431.966c-.027.184.921.447,1.761,1.21.862.743,1.206,1.624,1.4,1.586.185,0,.1-1.147-.938-2.055s-2.23-.917-2.219-.741" transform="translate(-29.177 -42.996)" fill="#fff"/>
            <path id="Trazado_801206" data-name="Trazado 801206" d="M288.141,432.913c-.077.168.7.635,1.215,1.529.54.88.552,1.745.746,1.773.176.063.505-.982-.155-2.082s-1.769-1.394-1.805-1.22" transform="translate(-28.686 -43.094)" fill="#fff"/>
            <path id="Trazado_801207" data-name="Trazado 801207" d="M284.469,437.262c.168.071.6-.79.291-1.882s-1.14-1.658-1.249-1.521c-.137.13.35.775.592,1.675.264.894.178,1.674.366,1.728" transform="translate(-28.223 -43.191)" fill="#fff"/>
            <path id="Trazado_801208" data-name="Trazado 801208" d="M294.348,427.116c.05.182.98.095,2.057.368,1.081.253,1.864.757,1.994.619.135-.112-.568-.941-1.841-1.246s-2.279.1-2.21.258" transform="translate(-29.304 -42.485)" fill="#fff"/>
            <path id="Trazado_801209" data-name="Trazado 801209" d="M389.552,236.622l.81-3.667,21.549-10.7,1.879,2.933s8.064,6.562,11.152,12.258-.575,52.333-1.09,59.139c-1.037,13.716-6.163,31.667-6.163,31.667s-6.914-4.813-27.257-13.165S369,302.952,369,302.952l11.988-15.2Z" transform="translate(-36.736 -22.127)" fill="#92df98"/>
            <path id="Trazado_801210" data-name="Trazado 801210" d="M391.095,239.636c-.121.676-9.86,24.065-9.86,24.065s5.061,2.824,5.766,2.964,4.093-27.03,4.093-27.03" transform="translate(-37.954 -23.857)" fill="#92df98"/>
            <path id="Trazado_801211" data-name="Trazado 801211" d="M390.629,243.9c.1.015-.768,5.958-1.93,13.273s-2.182,13.235-2.278,13.219.768-5.957,1.93-13.274,2.182-13.233,2.278-13.218" transform="translate(-38.47 -24.281)" fill="#263238"/>
            <path id="Trazado_801212" data-name="Trazado 801212" d="M315.176,294.49s5.8-8.564,9.264-10.068a42.767,42.767,0,0,1,7.787-2.319l14.6,1.952-.259,8.715a6.561,6.561,0,0,1-5.21,1.389c-2.913-.612-10.129-2.94-10.129-2.94l-3.639-.054-3.64,4.051s-2.77.635-1.636-1.865,1.639-3.6,1.639-3.6-3.557,4.77-4.8,4.913a25.05,25.05,0,0,1-3.968-.175" transform="translate(-31.378 -28.085)" fill="#ae7461"/>
            <path id="Trazado_801213" data-name="Trazado 801213" d="M394.9,257.764l-10.118,23.515-34.646.338-.259,8.715s33.408,11.78,42.3,9.492,23.65-33.747,23.65-33.747Z" transform="translate(-34.833 -25.662)" fill="#ae7461"/>
            <path id="Trazado_801214" data-name="Trazado 801214" d="M407.272,235.389c-.946.858-4.076,4.536-7.418,12.529s-8.03,17.335-8.03,17.335l23.884,9.521s5.446-12.528,7.973-18.1c1.923-4.244,3.271-12.591,1.517-16.631s-9.608-12.2-17.926-4.653" transform="translate(-39.008 -23.127)" fill="#92df98"/>
            <path id="Trazado_801215" data-name="Trazado 801215" d="M407.248,235.38s.07-.076.219-.21.366-.34.674-.581a11.883,11.883,0,0,1,2.944-1.741,8.978,8.978,0,0,1,5.359-.4,12.8,12.8,0,0,1,6.12,3.659,14.62,14.62,0,0,1,2.494,3.369,10.952,10.952,0,0,1,1.04,4.421,31.583,31.583,0,0,1-1.244,9.9,36.537,36.537,0,0,1-1.976,5.04L420.615,264l-4.769,10.838-.069.156-.158-.063-.347-.138-23.531-9.4-.161-.064.077-.155c2.231-4.471,4.207-8.636,5.9-12.369s2.992-7.09,4.4-9.714a40.065,40.065,0,0,1,3.642-5.879,17.5,17.5,0,0,1,1.182-1.4,4.592,4.592,0,0,1,.463-.43.746.746,0,0,1-.106.12l-.319.345c-.273.311-.665.783-1.139,1.426a42.273,42.273,0,0,0-3.554,5.906c-1.381,2.624-2.642,5.993-4.332,9.735-1.675,3.747-3.634,7.92-5.856,12.4l-.084-.22,23.545,9.367.347.138-.227.094,4.777-10.838,2.274-5.151a36.506,36.506,0,0,0,1.971-4.992,31.47,31.47,0,0,0,1.263-9.8,10.713,10.713,0,0,0-.99-4.314,14.42,14.42,0,0,0-2.431-3.319,12.648,12.648,0,0,0-5.987-3.641,8.887,8.887,0,0,0-5.264.334,12.336,12.336,0,0,0-2.951,1.669c-.314.23-.535.431-.694.552s-.242.183-.242.183" transform="translate(-38.984 -23.118)" fill="#263238"/>
            <path id="Trazado_801216" data-name="Trazado 801216" d="M331.448,286.978a8.724,8.724,0,0,0-6.637,3.355,2.57,2.57,0,0,1,.6-.992,6.891,6.891,0,0,1,4.889-2.471,2.573,2.573,0,0,1,1.153.108" transform="translate(-32.336 -28.559)" fill="#6f4439"/>
            <path id="Trazado_801217" data-name="Trazado 801217" d="M390.187,270.008a.942.942,0,0,1-.077.243c-.071.182-.16.408-.268.686-.26.631-.616,1.5-1.059,2.573-.946,2.238-2.265,5.358-3.825,9.05l-.04.095h-.1l-10.523.121-17.058.114-5.17-.005-1.406-.02a2.5,2.5,0,0,1-.49-.031,2.484,2.484,0,0,1,.49-.041l1.4-.047,5.169-.106,17.057-.218,10.523-.085-.143.1,3.942-9c.477-1.063.861-1.916,1.141-2.538.126-.27.23-.49.313-.667a.982.982,0,0,1,.123-.222" transform="translate(-34.861 -26.881)" fill="#6f4439"/>
          </g>
        </g>
        <rect id="Rectángulo_374181" data-name="Rectángulo 374181" width="6.669" height="130.484" transform="translate(42.115 274.456)" fill="#455a64"/>
        <rect id="Rectángulo_374182" data-name="Rectángulo 374182" width="6.669" height="129.579" transform="translate(315.847 275.376)" fill="#455a64"/>
        <rect id="Rectángulo_374183" data-name="Rectángulo 374183" width="303.668" height="7.873" transform="translate(25.454 273.17)" fill="#455a64"/>
        <g id="Grupo_1065278" data-name="Grupo 1065278">
          <g id="Grupo_1065277" data-name="Grupo 1065277" clip-path="url(#clip-path)">
            <path id="Trazado_801218" data-name="Trazado 801218" d="M344.764,312.1c0,.1-35.436.177-79.138.177-43.717,0-79.146-.079-79.146-.177s35.429-.176,79.146-.176c43.7,0,79.138.079,79.138.176" transform="translate(-18.565 -31.054)" fill="#263238"/>
          </g>
        </g>
        <g id="Grupo_1065280" data-name="Grupo 1065280">
          <g id="Grupo_1065279" data-name="Grupo 1065279" clip-path="url(#clip-path)">
            <path id="Trazado_801219" data-name="Trazado 801219" d="M265.06,252.22h0a1.473,1.473,0,0,1,1.72,1.173L275,296.941h39.959a1.082,1.082,0,1,1,0,2.164H272.577v-.174l-.194.036-8.5-45.027a1.471,1.471,0,0,1,1.173-1.72" transform="translate(-26.269 -25.107)" fill="#263238"/>
          </g>
        </g>
        <g id="Grupo_1065285" data-name="Grupo 1065285">
          <g id="Grupo_1065284" data-name="Grupo 1065284" clip-path="url(#clip-path)">
            <path id="Trazado_801220" data-name="Trazado 801220" d="M42.436,138.277a21.694,21.694,0,0,1,15.995-9.823c3.8-.4,5.44.249,8.244.743a12.046,12.046,0,0,1,7.245,3.916,20.208,20.208,0,0,1,4.755,8.834,29.019,29.019,0,0,1,.313,9.625,38.193,38.193,0,0,1-4.129,11.774l-5.772,1.229c-4.834.6-9.735,1.194-14.556.51S44.895,162.268,42,158.353c-4.026-5.437-3.361-14.48.441-20.076" transform="translate(-3.909 -12.776)" fill="#263238"/>
            <path id="Trazado_801221" data-name="Trazado 801221" d="M51.144,137.91l11.288-5.7,3.089.083c6.881-.589,12.3,6.575,12.843,12.142.6,6.186,1.093,13.761.516,18.411-1.16,9.35-8.921,10.812-8.921,10.812s1.3,10.905,1.634,13.98l-18.738-5.727-4.525-40.589a3.272,3.272,0,0,1,2.813-3.417" transform="translate(-4.811 -13.163)" fill="#ffc09d"/>
            <path id="Trazado_801222" data-name="Trazado 801222" d="M66.764,165.009a1.963,1.963,0,0,1,.568-1.265,2,2,0,0,1,2.409-.353,2.685,2.685,0,0,1,1.239,2.419,2.437,2.437,0,0,1-1.65,1.164,2.8,2.8,0,0,1-.325.039,2.189,2.189,0,0,1-1.523-.45,1.954,1.954,0,0,1-.719-1.553" transform="translate(-6.647 -16.241)" fill="#ff9b6c"/>
            <path id="Trazado_801223" data-name="Trazado 801223" d="M79.432,154.954a1.194,1.194,0,0,1-1.109,1.243,1.142,1.142,0,0,1-1.266-1.034,1.193,1.193,0,0,1,1.108-1.243,1.142,1.142,0,0,1,1.268,1.034" transform="translate(-7.671 -15.323)" fill="#263238"/>
            <path id="Trazado_801224" data-name="Trazado 801224" d="M79.143,149.306c-.142.16-1.069-.477-2.353-.43-1.282.029-2.2.721-2.347.569-.07-.068.071-.353.47-.666a3.286,3.286,0,0,1,1.873-.647,3.143,3.143,0,0,1,1.878.537c.405.289.548.566.478.638" transform="translate(-7.41 -14.747)" fill="#263238"/>
            <path id="Trazado_801225" data-name="Trazado 801225" d="M71.433,160.193a8.481,8.481,0,0,1,2.072-.447c.326-.046.634-.122.682-.347a1.663,1.663,0,0,0-.251-.963q-.5-1.175-1.054-2.464a43.082,43.082,0,0,1-2.4-6.453,42.852,42.852,0,0,1,2.913,6.245q.531,1.3,1.014,2.479a1.893,1.893,0,0,1,.214,1.28.823.823,0,0,1-.522.5,2.238,2.238,0,0,1-.555.1,8.336,8.336,0,0,1-2.112.075" transform="translate(-7.016 -14.886)" fill="#263238"/>
            <path id="Trazado_801226" data-name="Trazado 801226" d="M70.977,177.913a23.673,23.673,0,0,1-12.568-2.9s3.538,6.333,12.816,5.145Z" transform="translate(-5.815 -17.424)" fill="#ff9b6c"/>
            <path id="Trazado_801227" data-name="Trazado 801227" d="M79.147,144.956c-.206.321-1.2.145-2.341.279-1.148.1-2.085.469-2.347.2-.119-.134,0-.444.384-.773a3.649,3.649,0,0,1,3.777-.384c.443.245.615.526.527.681" transform="translate(-7.408 -14.328)" fill="#263238"/>
            <path id="Trazado_801228" data-name="Trazado 801228" d="M65.064,156.01a1.193,1.193,0,0,0,1.234,1.118,1.142,1.142,0,0,0,1.151-1.161,1.194,1.194,0,0,0-1.233-1.119,1.142,1.142,0,0,0-1.152,1.162" transform="translate(-6.477 -15.416)" fill="#263238"/>
            <path id="Trazado_801229" data-name="Trazado 801229" d="M60.416,150.441c.158.144,1.013-.587,2.294-.676,1.278-.106,2.266.485,2.393.319.063-.075-.108-.344-.538-.612a3.276,3.276,0,0,0-1.931-.448,3.149,3.149,0,0,0-1.812.732c-.372.33-.485.62-.408.685" transform="translate(-6.013 -14.835)" fill="#263238"/>
            <path id="Trazado_801230" data-name="Trazado 801230" d="M62.291,145.409c.268.277,1.242-.079,2.43-.158,1.186-.116,2.207.076,2.422-.241.094-.154-.081-.437-.536-.688a3.883,3.883,0,0,0-3.911.321c-.4.322-.525.63-.406.766" transform="translate(-6.197 -14.33)" fill="#263238"/>
            <path id="Trazado_801231" data-name="Trazado 801231" d="M50.91,159.181c-.025-.692-.882-2.3-1.569-2.382-1.836-.222-5.123.036-5,4.676.175,6.343,6.507,4.859,6.513,4.677,0-.142.14-4.581.052-6.971" transform="translate(-4.414 -15.605)" fill="#ffc09d"/>
            <path id="Trazado_801232" data-name="Trazado 801232" d="M49.244,164.122c-.029-.02-.108.08-.293.171a1.1,1.1,0,0,1-.826.04,2.732,2.732,0,0,1-1.332-2.418,3.65,3.65,0,0,1,.265-1.591,1.28,1.28,0,0,1,.809-.871.564.564,0,0,1,.66.285c.09.176.053.3.087.313.018.015.133-.11.075-.37a.7.7,0,0,0-.261-.392.832.832,0,0,0-.615-.144,1.556,1.556,0,0,0-1.127,1.015,3.755,3.755,0,0,0-.334,1.778,2.87,2.87,0,0,0,1.687,2.7,1.183,1.183,0,0,0,1.006-.2c.192-.161.222-.3.2-.315" transform="translate(-4.614 -15.843)" fill="#ff9b6c"/>
            <path id="Trazado_801233" data-name="Trazado 801233" d="M49.116,154.286l1.751,1.519c10.1-6.641,20.362-24.716,17.71-23.978a20.23,20.23,0,0,0-9.983-.192c-5.068,1.335-14.6,4.781-13.908,10.838s4.43,11.813,4.43,11.813" transform="translate(-4.445 -13.051)" fill="#263238"/>
            <path id="Trazado_801234" data-name="Trazado 801234" d="M44.907,128.589c2.457,1.436,4.647,5.624,3.642,8.288a8.351,8.351,0,0,1-10.671,9.333,8.038,8.038,0,0,1-4.527-3.491,9.67,9.67,0,0,1-.988-6.71,10.691,10.691,0,0,1,4.443-7.021,7.894,7.894,0,0,1,8.1-.4" transform="translate(-3.202 -12.709)" fill="#263238"/>
            <path id="Trazado_801235" data-name="Trazado 801235" d="M45.7,154.381a6.089,6.089,0,0,0,1.155-.5c.728-.354,1.768-.892,3.026-1.612a45.787,45.787,0,0,0,9.1-6.725,30.413,30.413,0,0,0,6.58-9.19,21.838,21.838,0,0,0,1.175-3.231,5.556,5.556,0,0,0,.257-1.234c-.091-.027-.487,1.732-1.74,4.32a32.453,32.453,0,0,1-6.607,8.99,51.261,51.261,0,0,1-8.935,6.778c-1.228.753-2.241,1.335-2.94,1.739a6.6,6.6,0,0,0-1.068.665" transform="translate(-4.549 -13.13)" fill="#455a64"/>
            <path id="Trazado_801236" data-name="Trazado 801236" d="M39.546,149.6c.087,0,.124-1.181.478-3.044a24.037,24.037,0,0,1,6.931-12.794c1.367-1.314,2.338-1.993,2.288-2.063a2.771,2.771,0,0,0-.724.416,15.658,15.658,0,0,0-1.8,1.4A21.844,21.844,0,0,0,39.689,146.5a15.52,15.52,0,0,0-.189,2.267,2.791,2.791,0,0,0,.046.834" transform="translate(-3.932 -13.111)" fill="#455a64"/>
            <path id="Trazado_801237" data-name="Trazado 801237" d="M47.033,167.655a2.376,2.376,0,1,0,2.375-2.375,2.375,2.375,0,0,0-2.375,2.375" transform="translate(-4.682 -16.455)" fill="#263238"/>
            <path id="Trazado_801238" data-name="Trazado 801238" d="M71.369,165.923c-.026-.224-1.509.034-2.785-1.049s-1.391-2.691-1.6-2.666c-.1,0-.226.4-.126,1.073a3.749,3.749,0,0,0,1.252,2.24,3.267,3.267,0,0,0,2.319.784c.63-.052.969-.283.942-.383" transform="translate(-6.652 -16.149)" fill="#263238"/>
            <path id="Trazado_801240" data-name="Trazado 801240" d="M78.485,272.382s45.82,16.257,50.986,19.008c5.633,3,9.886,13.522,5.19,22.467s-45.889,34.556-45.889,34.556L78.485,332.76,108.3,309.28l-32.271-7.6-10.51-12.455Z" transform="translate(-6.522 -27.117)" fill="#12263f"/>
            <path id="Trazado_801241" data-name="Trazado 801241" d="M100.917,354.291a16.743,16.743,0,0,0-.023-3.185,35.858,35.858,0,0,0-2.319-8.372c-.653-1.722-1.436-3.583-2.26-5.592-.419-1-.816-2.061-1.228-3.136s-.891-2.16-1.371-3.279c-1.953-4.467-4.179-9.348-6.518-14.469L77.124,294.365l-.028-.06.015-.063c1.192-4.937,2.241-8.977,3.038-11.77.4-1.4.74-2.48,1-3.207a7.331,7.331,0,0,1,.344-.813,1.21,1.21,0,0,1,.165-.253,1.239,1.239,0,0,1-.113.278c-.081.177-.166.462-.289.825-.229.735-.534,1.825-.9,3.227-.733,2.806-1.728,6.857-2.878,11.8l-.013-.123c2.853,6.047,6.39,13.626,10.159,21.858,2.339,5.123,4.554,10.009,6.489,14.493.475,1.126.952,2.214,1.361,3.306s.79,2.129,1.2,3.134c.808,2.012,1.575,3.885,2.21,5.621a34.111,34.111,0,0,1,2.191,8.47,9.367,9.367,0,0,1-.159,3.2" transform="translate(-7.675 -27.696)" fill="#455a64"/>
            <g id="Grupo_1065283" data-name="Grupo 1065283" transform="translate(69.62 254.674)" opacity="0.3">
              <g id="Grupo_1065282" data-name="Grupo 1065282">
                <g id="Grupo_1065281" data-name="Grupo 1065281" clip-path="url(#clip-path-16)">
                  <path id="Trazado_801242" data-name="Trazado 801242" d="M80.31,282.832c-.09.33,0,12.038,0,12.038l5.879,9.964-4.695-1.106-4.177-8.7Z" transform="translate(-77.317 -282.832)"/>
                </g>
              </g>
            </g>
            <path id="Trazado_801246" data-name="Trazado 801246" d="M37.05,222.011c1.21,11-1.153,15.736-1.153,15.736a8.547,8.547,0,0,0-3.08,5.639,1.608,1.608,0,0,0,1.657,1.79l40.028-.9s5.6.534,5.482-4.777c-.132-5.929,1.5-26.758-.652-34.947-.742-2.826-9.883-16.605-9.883-16.605l-19.081-10.82-2.02,5.2s-6.054,2.21-8.819,5.774a20.031,20.031,0,0,0-3.83,7.779c-1.656,5.7.7,20.231,1.35,26.134" transform="translate(-3.266 -17.634)" fill="#59bee2"/>
            <path id="Trazado_801247" data-name="Trazado 801247" d="M146.388,206.563s-.349-.313-1.563.078-4.664,2.085-6.229,2.489-4.958,1.71-4.958,1.71a6.851,6.851,0,0,0-4.288,1.441c-2.4,1.659-9.17,6.131-9.17,6.131L122.506,225a13.765,13.765,0,0,1,3.36-.218,10.374,10.374,0,0,0,4.8-.2c1.84-.553,4.332-1.549,4.332-1.549s2.427.2,3.063-.682-.048-2.471-.048-2.471,2.382-2.184,1.358-3.413-2.3-2.588-2.3-2.588,7.063-3.744,8.4-4.736,1.6-1.786.918-2.582" transform="translate(-11.965 -20.553)" fill="#ffc09d"/>
            <path id="Trazado_801248" data-name="Trazado 801248" d="M116.769,219.735,94.8,227.128l-8.877,4.485,12.46,6.717L119.1,226.32Z" transform="translate(-8.554 -21.876)" fill="#ffc09d"/>
            <path id="Trazado_801249" data-name="Trazado 801249" d="M134.86,213.706a10.927,10.927,0,0,1-.27,5.661c-.034.119-.068.237-.1.348l-.184-.3c1.457.262,2.754.519,3.689.728.96.192,1.466.6,1.419.646a12.762,12.762,0,0,0-1.478-.33c-.945-.126-2.255-.33-3.712-.583l-.257-.045.073-.253c.031-.107.064-.222.1-.338a28.765,28.765,0,0,0,.722-5.536" transform="translate(-13.337 -21.276)" fill="#ff9b6c"/>
            <path id="Trazado_801250" data-name="Trazado 801250" d="M134.842,217.174c.017-.039.2-.02.452.148a1.775,1.775,0,0,1,.716,1.023l-.235-.163a7.829,7.829,0,0,1,1.243-.122,4.821,4.821,0,0,1,2.8.574c-.037.131-1.266-.14-2.793-.105-.43.009-.837.036-1.193.071l-.2.02-.035-.184c-.168-.851-.82-1.181-.756-1.262" transform="translate(-13.424 -21.619)" fill="#ff9b6c"/>
            <path id="Trazado_801251" data-name="Trazado 801251" d="M138.291,215.3c.076.113-.516.613-1.048,1.375s-.818,1.479-.95,1.445-.032-.876.567-1.716,1.371-1.212,1.431-1.1" transform="translate(-13.564 -21.433)" fill="#ff9b6c"/>
            <path id="Trazado_801252" data-name="Trazado 801252" d="M73.038,183.774l2.206,5.927c2.4,2.277,8.381,8.676,9.517,13.08,1.486,5.759,8.179,20.237,8.179,20.237s15.18-6.471,16.227-5.409,6.365,13.536,4.616,16.155-17.251,9.48-23.522,7.937-12.216-10.62-12.216-10.62Z" transform="translate(-7.271 -18.296)" fill="#59bee2"/>
            <path id="Trazado_801253" data-name="Trazado 801253" d="M84.107,204.947a8.4,8.4,0,0,1,.5,1.352,12.61,12.61,0,0,1,.457,1.627,22.227,22.227,0,0,1,.449,2.2,40.764,40.764,0,0,1,.522,5.805c.036,2.193-.04,4.6-.2,7.125-.347,5.039-.7,9.586-.663,12.885-.017.826.032,1.569.05,2.224s.052,1.218.093,1.678a8.583,8.583,0,0,1,.059,1.437,8.37,8.37,0,0,1-.241-1.419c-.068-.458-.137-1.022-.173-1.679s-.115-1.406-.119-2.234c-.126-3.318.181-7.893.526-12.921.158-2.514.246-4.91.233-7.088a44.84,44.84,0,0,0-.418-5.762c-.466-3.26-1.177-5.193-1.074-5.224" transform="translate(-8.372 -20.404)" fill="#263238"/>
            <path id="Trazado_801254" data-name="Trazado 801254" d="M94.866,235.913a41.382,41.382,0,0,1,.127-8.8,41.381,41.381,0,0,1-.127,8.8" transform="translate(-9.427 -22.611)" fill="#263238"/>
            <path id="Trazado_801256" data-name="Trazado 801256" d="M46.884,184.054c.02.053-.908.314-2.418,1.131a16.688,16.688,0,0,0-5.4,4.742,15.989,15.989,0,0,0-2.314,4.4,14.984,14.984,0,0,0-.664,2.688c-.131.94-.208,1.938-.274,2.947a51.277,51.277,0,0,0,.011,6.365c.147,2.2.452,4.484.685,6.824.5,4.68.966,9.135,1.395,13.2a67.058,67.058,0,0,0,1.587,10.674,18.5,18.5,0,0,0,3.109,6.5A14.762,14.762,0,0,0,43.905,245a4.475,4.475,0,0,1,.487.493c-.005.006-.055-.027-.149-.1s-.232-.175-.4-.326a12.048,12.048,0,0,1-1.387-1.434,17.994,17.994,0,0,1-3.285-6.526,64.305,64.305,0,0,1-1.7-10.719c-.44-4.059-.924-8.514-1.432-13.191-.233-2.342-.534-4.616-.677-6.845a50.65,50.65,0,0,1,.016-6.421c.073-1.024.155-2.011.3-2.982a15.288,15.288,0,0,1,.7-2.754,16.153,16.153,0,0,1,2.416-4.467,16.323,16.323,0,0,1,5.584-4.7,12.178,12.178,0,0,1,1.836-.777,3.838,3.838,0,0,1,.667-.193" transform="translate(-3.511 -18.323)" fill="#263238"/>
            <path id="Trazado_801257" data-name="Trazado 801257" d="M71.049,189.811a4.77,4.77,0,0,1-.927-.553L67.681,187.6l.26-.13c-.012,1.246-.025,2.707-.041,4.312l0,.341-.309-.155-5.056-2.542c-3.448-1.749-6.557-3.355-8.8-4.539L51.1,183.465a5.061,5.061,0,0,1-.94-.579,4.979,4.979,0,0,1,1.023.416l2.709,1.29c2.278,1.108,5.411,2.667,8.859,4.417l5.039,2.578-.312.186c.052-1.6.1-3.064.14-4.31l.011-.319.249.188,2.355,1.778a4.81,4.81,0,0,1,.821.7" transform="translate(-4.993 -18.207)" fill="#263238"/>
            <path id="Trazado_801258" data-name="Trazado 801258" d="M78.292,412.109l-7.4,15.5S85.1,440.631,84.027,443.633L51.665,429.8l10.483-24.639Z" transform="translate(-5.144 -40.336)" fill="#727997"/>
            <path id="Trazado_801259" data-name="Trazado 801259" d="M62.367,423.863a1.361,1.361,0,0,0-1.529,1.035,1.381,1.381,0,0,0,1.111,1.5,1.434,1.434,0,0,0,1.614-1.1,1.451,1.451,0,0,0-1.333-1.447" transform="translate(-6.055 -42.197)" fill="#e0e0e0"/>
            <path id="Trazado_801260" data-name="Trazado 801260" d="M51.664,432.251l1.16-2.44,30.594,14.178s1.185,1.208.608,2.1Z" transform="translate(-5.143 -42.79)" fill="#455a64"/>
            <path id="Trazado_801261" data-name="Trazado 801261" d="M73.266,430.1c-.07.147-.891-.123-1.875.024-.99.123-1.67.6-1.789.477-.134-.091.488-.883,1.684-1.042s2.073.418,1.98.54" transform="translate(-6.928 -42.762)" fill="#fff"/>
            <path id="Trazado_801262" data-name="Trazado 801262" d="M76.465,433.223c-.026.16-.82.122-1.63.524-.823.378-1.253,1-1.408.929-.158-.04.11-.961,1.127-1.443s1.969-.155,1.911-.011" transform="translate(-7.306 -43.105)" fill="#fff"/>
            <path id="Trazado_801263" data-name="Trazado 801263" d="M77.1,438.2c-.158-.03-.055-.87.7-1.514s1.639-.655,1.651-.5c.036.161-.633.394-1.247.933s-.945,1.135-1.108,1.082" transform="translate(-7.669 -43.416)" fill="#fff"/>
            <path id="Trazado_801264" data-name="Trazado 801264" d="M33.824,255.586s-7.083,24.99-2.875,38.557c2.524,8.139,37.95,52.974,39.656,54.9,1.188,1.343-15.147,43.7-18.135,52.52l18.781,9.1s23.5-49.973,24.939-58.731c1.845-11.247-24.593-59.361-23.622-60.006l9.5-19.821L74.184,251.7s-33.24.36-40.027.9Z" transform="translate(-1.709 -25.007)" fill="#12263f"/>
            <path id="Trazado_801265" data-name="Trazado 801265" d="M108.583,279.641c-1.323-1.3-5.2-4.94-7.927-7.492a1.592,1.592,0,0,1,1.058-2.753l31.379-.641a1.592,1.592,0,0,1,1.222.533l6.559,7.367a1.593,1.593,0,0,1-1.148,2.651l-29.989.786a1.584,1.584,0,0,1-1.153-.452" transform="translate(-9.97 -26.756)" fill="#455a64"/>
            <path id="Trazado_801266" data-name="Trazado 801266" d="M96.771,273.041a27.54,27.54,0,0,1,7.293-1.981c3.647-.363,5.47,1.172,7.423.99s7.293.339,7.293,1.772-7.422,1.953-7.422,1.953l6.511,2.084s7.423-.911,7.553,0-6.642,1.823-9.767,2.214-21.227.651-23.832,0-21.1-11.851-21.1-11.851l8.856-9.116Z" transform="translate(-7.041 -25.796)" fill="#ffc09d"/>
            <path id="Trazado_801267" data-name="Trazado 801267" d="M47.664,184.053a15.212,15.212,0,0,0-11.43,10.576c-2.422,7.711,2.2,39.4,4.161,45.119s23.11,24.134,24.968,22.569,12.164-10.682,12.164-10.682L60.984,232.082s.876-23.216-.219-27.6-8.5-20.87-13.1-20.432" transform="translate(-3.472 -18.316)" fill="#59bee2"/>
            <path id="Trazado_801268" data-name="Trazado 801268" d="M63.406,203.8a2.279,2.279,0,0,1,.035.532c0,.4.01.9.017,1.523.019,1.386.044,3.283.076,5.6.056,4.726.3,11.266.108,18.483a10.4,10.4,0,0,0,.924,5.016,22.515,22.515,0,0,0,2.975,3.821l5.473,6.252,3.659,4.242.977,1.169a2.239,2.239,0,0,1,.316.429,2.375,2.375,0,0,1-.387-.366l-1.044-1.111-3.771-4.144-5.549-6.186a22.361,22.361,0,0,1-3.055-3.891,10.764,10.764,0,0,1-.987-5.233c.194-7.215,0-13.744.029-18.478,0-2.366.029-4.282.074-5.6.02-.662.048-1.175.071-1.524a2.281,2.281,0,0,1,.059-.529" transform="translate(-6.289 -20.29)" fill="#263238"/>
          </g>
        </g>
      </g>
    </g>
  </g>
</svg>
