<svg xmlns="http://www.w3.org/2000/svg" xmlns:xlink="http://www.w3.org/1999/xlink" width="678.312" height="467.612" viewBox="0 0 678.312 467.612">
  <defs>
    <clipPath id="clip-path">
      <rect id="Rectángulo_373767" data-name="Rectángulo 373767" width="14.191" height="23.324" fill="none"/>
    </clipPath>
    <clipPath id="clip-path-2">
      <rect id="Rectángulo_373768" data-name="Rectángulo 373768" width="6.461" height="23.162" fill="none"/>
    </clipPath>
    <clipPath id="clip-path-3">
      <rect id="Rectángulo_373769" data-name="Rectángulo 373769" width="16.87" height="9.332" fill="none"/>
    </clipPath>
    <clipPath id="clip-path-4">
      <rect id="Rectángulo_373771" data-name="Rectángulo 373771" width="32.523" height="20.337" fill="none"/>
    </clipPath>
    <clipPath id="clip-path-5">
      <rect id="Rectángulo_373772" data-name="Rectángulo 373772" width="27.83" height="50.407" fill="none"/>
    </clipPath>
    <clipPath id="clip-path-6">
      <rect id="Rectángulo_373773" data-name="Rectángulo 373773" width="3.933" height="12.263" fill="none"/>
    </clipPath>
    <clipPath id="clip-path-7">
      <rect id="Rectángulo_373777" data-name="Rectángulo 373777" width="15.201" height="7.598" fill="none"/>
    </clipPath>
    <clipPath id="clip-path-8">
      <rect id="Rectángulo_373781" data-name="Rectángulo 373781" width="34.578" height="7.324" fill="none"/>
    </clipPath>
    <clipPath id="clip-path-9">
      <rect id="Rectángulo_373783" data-name="Rectángulo 373783" width="16.463" height="7.599" fill="none"/>
    </clipPath>
    <clipPath id="clip-path-10">
      <rect id="Rectángulo_373785" data-name="Rectángulo 373785" width="21.205" height="7.598" fill="none"/>
    </clipPath>
    <clipPath id="clip-path-11">
      <rect id="Rectángulo_373786" data-name="Rectángulo 373786" width="15.262" height="31.84" fill="none"/>
    </clipPath>
  </defs>
  <g id="Grupo_1065491" data-name="Grupo 1065491" transform="translate(-591.256 -10059.105)">
    <path id="Trazado_797924" data-name="Trazado 797924" d="M596.245,94.294a11.045,11.045,0,0,1-4.488-8.941l-3.666-2.692-21.3,28.305,24.653,18.1,3.262-4.335a11.84,11.84,0,0,1,18.2-12.645,11.372,11.372,0,0,1,2.1,16.073,11.967,11.967,0,0,1-9.116,4.784l-3.263,4.335,24.653,18.105,21.3-28.305,2.1,1.54a11.053,11.053,0,0,0,4.488,8.941,11.7,11.7,0,0,0,16.186-2.643,11.215,11.215,0,0,0-12.061-17.743l-2.1-1.54L672.738,94.98l-24.653-18.1,2.142-2.848a11.967,11.967,0,0,0,9.116-4.784,11.372,11.372,0,0,0-2.1-16.073,11.839,11.839,0,0,0-18.2,12.645L636.9,68.662,612.249,50.557,596.7,71.216l3.665,2.692a11.216,11.216,0,0,1,12.061,17.744,11.7,11.7,0,0,1-16.186,2.642" transform="translate(544.138 10065.271)" fill="#ebebeb"/>
    <path id="Trazado_797925" data-name="Trazado 797925" d="M333.139,35.254a8.906,8.906,0,0,1-3.617-7.206l-2.954-2.17L309.4,48.692l19.87,14.594L331.9,59.79A9.543,9.543,0,0,1,346.567,49.6a9.166,9.166,0,0,1,1.694,12.956,9.643,9.643,0,0,1-7.348,3.856L338.284,69.9,358.155,84.5l17.167-22.814,1.691,1.242a8.908,8.908,0,0,0,3.617,7.206A9.428,9.428,0,0,0,393.676,68a9.04,9.04,0,0,0-9.722-14.3l-1.691-1.241,12.53-16.652-19.87-14.592,1.726-2.294A9.642,9.642,0,0,0,384,15.062,9.166,9.166,0,0,0,382.3,2.107a9.428,9.428,0,0,0-13.046,2.131,9.406,9.406,0,0,0-1.621,8.061l-1.726,2.294L346.038,0,333.509,16.652l2.954,2.17a9.04,9.04,0,0,1,9.722,14.3,9.428,9.428,0,0,1-13.046,2.131" transform="translate(512.74 10059.104)" fill="#ebebeb"/>
    <path id="Trazado_797927" data-name="Trazado 797927" d="M583.917,355.719a11.05,11.05,0,0,1,6.791,7.346l4.268,1.571,12.617-33.1-28.706-10.56-1.933,5.07a11.839,11.839,0,0,1-13.978,17.194,11.372,11.372,0,0,1-6.476-14.861,11.97,11.97,0,0,1,7.432-7.125l1.933-5.07-28.706-10.56-12.617,33.1-2.443-.9a11.052,11.052,0,0,0-6.791-7.346,11.7,11.7,0,0,0-14.819,7.027A11.215,11.215,0,0,0,517,351.21l2.443.9-9.208,24.16,28.7,10.56-1.268,3.329a11.964,11.964,0,0,0-7.432,7.125,11.37,11.37,0,0,0,6.476,14.86,11.84,11.84,0,0,0,13.978-17.194l1.269-3.329,28.706,10.56,9.208-24.159-4.268-1.57a11.216,11.216,0,0,1-16.509-13.7,11.7,11.7,0,0,1,14.819-7.027" transform="translate(535.953 10096.384)" fill="#ebebeb"/>
    <path id="Trazado_797928" data-name="Trazado 797928" d="M655.56,415.891c0,.162-146.764.292-327.765.292-181.063,0-327.8-.13-327.8-.292s146.732-.292,327.8-.292c181,0,327.765.13,327.765.292" transform="translate(606.169 10109.798)" fill="#455a64"/>
    <path id="Trazado_797929" data-name="Trazado 797929" d="M285.241,90.886l6.767-1.178a21.935,21.935,0,1,0-4.779-6.238l-.009-.009Z" transform="translate(509.741 10065.396)" fill="#fff"/>
    <path id="Trazado_797930" data-name="Trazado 797930" d="M285.258,90.911s.057-.175.15-.5c.1-.344.232-.817.406-1.427l1.528-5.472-.186.046.009.009.543.6-.366-.727A21.9,21.9,0,0,1,285,72.941a21.282,21.282,0,0,1,1.332-6.813,21.668,21.668,0,0,1,41.654,3.365,22.076,22.076,0,0,1-.442,9.958,21.342,21.342,0,0,1-4.472,8.254,21.779,21.779,0,0,1-30.979,1.952l-.038-.035-.049.009-4.987.933-1.3.25c-.3.058-.458.1-.458.1a4.18,4.18,0,0,0,.418-.056l1.284-.2,5.083-.818-.088-.026a21.792,21.792,0,0,0,9.549,5.123A22.1,22.1,0,0,0,323.411,88,21.776,21.776,0,0,0,328,79.581a22.491,22.491,0,0,0,.466-10.177A22.076,22.076,0,0,0,285.98,66a21.508,21.508,0,0,0-1.307,6.932,21.909,21.909,0,0,0,2.476,10.614l.178-.123-.009-.009-.137-.148-.049.193c-.615,2.423-1.089,4.292-1.418,5.583-.149.6-.266,1.069-.35,1.409-.076.313-.112.468-.105.461" transform="translate(509.724 10065.37)" fill="#263238"/>
    <path id="Trazado_797931" data-name="Trazado 797931" d="M293.728,72.735l3.264-3.611,6.926,5.559,10.287-11.814,3.365,3.277-13.809,15.19Z" transform="translate(510.829 10066.772)" fill="#fad4a5"/>
    <path id="Trazado_797932" data-name="Trazado 797932" d="M542.245,253.706a17.084,17.084,0,0,0-2.8-4.2c-7.15-9.117-2.827-23.522-3.66-38.7l-22.9,4.2c-.213,15.738-.458,31.7-4.828,46.82a16.874,16.874,0,0,0-.935,4.735,5.077,5.077,0,0,0,1.954,4.223c2.116,1.427,5,.34,7.127-1.066s4.3-3.185,6.853-3.087c1.517.058,2.989.8,4.494.6,3.436-.465,4.545-5.18,7.668-6.687,2.042-.985,4.771-.494,6.376-2.1a4.5,4.5,0,0,0,.652-4.741" transform="translate(536.858 10084.817)" fill="#263238"/>
    <path id="Trazado_797933" data-name="Trazado 797933" d="M461.467,170.394c-.232-.275.246-10.192,3.107-12.9s13.035-2.941,13.035-2.941a37.286,37.286,0,0,1,6.08-3.944,1.794,1.794,0,0,1,2.206.643s1.077-1.211,1.977-.2c.365.41-2.422,5.773-4.169,7.139s-8.19,4.3-8.19,4.3l-2.623,1.823-.481,8.426Z" transform="translate(531.283 10077.457)" fill="#ffc09d"/>
    <path id="Trazado_797934" data-name="Trazado 797934" d="M475.769,157.357a9.745,9.745,0,0,0-9.711,2.054c-.052-.042.269-.568,1.018-1.213a7.85,7.85,0,0,1,7.27-1.538c.946.287,1.453.638,1.423.7" transform="translate(531.85 10078.175)" fill="#ff9b6c"/>
    <path id="Trazado_797935" data-name="Trazado 797935" d="M505.993,230.285c-.89-1.7-25.543-26.346-25.543-26.346L473.337,164.9l-13.076,2.016s3.321,41.208,4.619,45.731,32.349,32.083,32.608,32.323,8.5-14.684,8.5-14.684" transform="translate(531.143 10079.218)" fill="#59bee2"/>
    <g id="Grupo_1064702" data-name="Grupo 1064702" transform="translate(1020.584 10296.546)" opacity="0.3">
      <g id="Grupo_1064701" data-name="Grupo 1064701">
        <g id="Grupo_1064700" data-name="Grupo 1064700" clip-path="url(#clip-path)">
          <path id="Trazado_797936" data-name="Trazado 797936" d="M486.269,232.13l5.773-3.843-5.549-16.659,13.966,14.287-.786,4.566-10.232,4.471Z" transform="translate(-486.269 -211.628)"/>
        </g>
      </g>
    </g>
    <path id="Trazado_797937" data-name="Trazado 797937" d="M459.772,390.982l6.741,14.772.075,1.484s-17.944,7.656-18.085,11.29l34.928-.716-.121-9.548-6.1-17.693Z" transform="translate(529.708 10106.745)" fill="#263238"/>
    <path id="Trazado_797938" data-name="Trazado 797938" d="M474.4,403.767a1.562,1.562,0,0,1,1.018,1.75,1.376,1.376,0,0,1-1.586,1.112,1.65,1.65,0,0,1-1.068-1.86c.22-.724,1.143-1.3,1.768-.957" transform="translate(532.663 10108.348)" fill="#e0e0e0"/>
    <path id="Trazado_797939" data-name="Trazado 797939" d="M483.432,415.185l-.149-3.076-33.433,1.837s-1.543.767-1.345,1.956Z" transform="translate(529.707 10109.373)" fill="#455a64"/>
    <path id="Trazado_797940" data-name="Trazado 797940" d="M464.114,405.283c.009.185.863.252,1.712.831.864.555,1.31,1.35,1.466,1.273.156-.039-.118-1.143-1.157-1.825s-2.062-.449-2.022-.279" transform="translate(531.612 10108.518)" fill="#fff"/>
    <path id="Trazado_797941" data-name="Trazado 797941" d="M460.874,406.808c-.036.181.708.481,1.3,1.254.614.753.774,1.6.944,1.586.162.027.26-1.063-.494-2.008s-1.751-1.01-1.751-.833" transform="translate(531.217 10108.716)" fill="#fff"/>
    <path id="Trazado_797942" data-name="Trazado 797942" d="M459.247,411.433c.156.036.377-.9-.079-1.9s-1.26-1.395-1.33-1.239c-.094.155.433.689.8,1.523.38.822.443,1.6.613,1.619" transform="translate(530.846 10108.903)" fill="#fff"/>
    <path id="Trazado_797943" data-name="Trazado 797943" d="M520.518,390.982l6.741,14.772.075,1.484s-17.944,7.656-18.085,11.29l34.927-.716-.12-9.548-6.1-17.693Z" transform="translate(537.118 10106.745)" fill="#263238"/>
    <path id="Trazado_797944" data-name="Trazado 797944" d="M535.151,403.767a1.56,1.56,0,0,1,1.017,1.75,1.375,1.375,0,0,1-1.585,1.112,1.65,1.65,0,0,1-1.068-1.86c.22-.724,1.143-1.3,1.768-.957" transform="translate(540.072 10108.348)" fill="#e0e0e0"/>
    <path id="Trazado_797945" data-name="Trazado 797945" d="M544.178,415.185l-.149-3.076L510.6,413.946s-1.543.767-1.346,1.956Z" transform="translate(537.116 10109.373)" fill="#455a64"/>
    <path id="Trazado_797946" data-name="Trazado 797946" d="M524.86,405.283c.009.185.863.252,1.713.831.863.555,1.309,1.35,1.465,1.273.156-.039-.117-1.143-1.157-1.825s-2.062-.449-2.022-.279" transform="translate(539.022 10108.518)" fill="#fff"/>
    <path id="Trazado_797947" data-name="Trazado 797947" d="M521.62,406.808c-.036.181.708.481,1.3,1.254.613.753.774,1.6.944,1.586.162.027.26-1.063-.494-2.008s-1.751-1.01-1.751-.833" transform="translate(538.627 10108.716)" fill="#fff"/>
    <path id="Trazado_797948" data-name="Trazado 797948" d="M519.993,411.433c.156.036.377-.9-.079-1.9s-1.26-1.395-1.329-1.239c-.094.155.433.689.8,1.523.38.822.443,1.6.613,1.619" transform="translate(538.256 10108.903)" fill="#fff"/>
    <path id="Trazado_797949" data-name="Trazado 797949" d="M509.654,283.611c3.351,7.424,13.273,20,3.961,35.835l9.081,34.631s8.949,22.811,12.715,30.454,11.094,31.328,11.094,31.328l-20.389,4.39s-23.243-46.02-27.76-53.927-21.962-35.569-25.363-56.679c-3.542-21.993,1.153-30.96,1.153-30.96l35.507-9.956Z" transform="translate(532.534 10091.883)" fill="#263238"/>
    <path id="Trazado_797950" data-name="Trazado 797950" d="M487.173,324.863l-22.33,27.073,18.745,59.033-22.647,4.812c0-.791-20.586-58.4-23.207-68.311-1.475-5.579,11.455-25.951,17.529-33.49,4.746-5.892,14.548-17.612,15.3-18.4s5.418-8.055,5.418-8.055Z" transform="translate(528.381 10094.176)" fill="#263238"/>
    <path id="Trazado_797951" data-name="Trazado 797951" d="M471.1,290.42a11,11,0,0,0,.007,1.553c.025,1,.112,2.444.264,4.224a100.4,100.4,0,0,0,2.19,13.761,104.23,104.23,0,0,0,4.044,13.256c.631,1.652,1.171,2.973,1.573,3.872a10.521,10.521,0,0,0,.655,1.38,10.83,10.83,0,0,0-.507-1.452c-.356-.919-.854-2.257-1.447-3.918a122.629,122.629,0,0,1-3.915-13.249,116.47,116.47,0,0,1-2.3-13.684c-.188-1.77-.321-3.208-.395-4.2a11.094,11.094,0,0,0-.168-1.542" transform="translate(532.462 10094.529)" fill="#455a64"/>
    <path id="Trazado_797952" data-name="Trazado 797952" d="M453.886,343.107c-.008.138,2.086.3,4.56,1.039,2.48.726,4.357,1.746,4.414,1.623a11.985,11.985,0,0,0-4.3-2.061,11.439,11.439,0,0,0-4.67-.6" transform="translate(530.365 10100.948)" fill="#455a64"/>
    <g id="Grupo_1064705" data-name="Grupo 1064705" transform="translate(1005.829 10403.267)" opacity="0.3">
      <g id="Grupo_1064704" data-name="Grupo 1064704">
        <g id="Grupo_1064703" data-name="Grupo 1064703" clip-path="url(#clip-path-2)">
          <path id="Trazado_797953" data-name="Trazado 797953" d="M476.748,329.908s-4.13-16.157-3.58-23.162c0,0,2.851,14.31,6.412,19.729Z" transform="translate(-473.118 -306.746)"/>
        </g>
      </g>
    </g>
    <path id="Trazado_797954" data-name="Trazado 797954" d="M520.013,404.289c-.021.009.284-.037.8-.132l2.216-.421,7.3-1.474c2.849-.594,5.424-1.149,7.284-1.573.93-.212,1.682-.39,2.2-.524a2.972,2.972,0,0,0,.8-.252,2.944,2.944,0,0,0-.826.08c-.526.08-1.286.211-2.224.383-1.874.343-4.458.849-7.306,1.443s-5.421,1.16-7.278,1.6a12.175,12.175,0,0,0-2.962.867" transform="translate(538.431 10107.884)" fill="#455a64"/>
    <path id="Trazado_797955" data-name="Trazado 797955" d="M460.232,401.927c-.021.009.284-.037.8-.132l2.216-.421,7.3-1.474c2.849-.594,5.424-1.149,7.284-1.573.93-.212,1.682-.39,2.2-.524a2.971,2.971,0,0,0,.8-.252,2.943,2.943,0,0,0-.826.08c-.526.08-1.286.211-2.224.383-1.874.343-4.458.849-7.306,1.442s-5.421,1.161-7.278,1.606a12.174,12.174,0,0,0-2.962.867" transform="translate(531.139 10107.596)" fill="#455a64"/>
    <path id="Trazado_797956" data-name="Trazado 797956" d="M543.01,196.15a21.065,21.065,0,0,0-11.1-14.46c-3.3-1.682-5.019-1.664-7.733-2.189a11.7,11.7,0,0,0-7.93,1.037,19.61,19.61,0,0,0-7.378,6.359,55.008,55.008,0,0,0-4.864,8.856,18.424,18.424,0,0,0-1.335,9.9l7.036,5.093c4.176,2.22,8.414,4.463,13.024,5.516s9.718.791,13.7-1.751c5.539-3.533,8.076-11.965,6.57-18.36" transform="translate(536.29 10080.968)" fill="#263238"/>
    <path id="Trazado_797957" data-name="Trazado 797957" d="M536.251,192.482l-8.26-9.084-2.83-1c-6.036-2.924-13.439,1.692-15.863,6.552-2.694,5.4-5.768,12.1-6.86,16.518-2.195,8.882,4.338,12.9,4.338,12.9a32.3,32.3,0,0,0-1.549,2.885l3.292,10.513,13.16-4.448,15.938-30.764a3.18,3.18,0,0,0-1.365-4.077" transform="translate(536.232 10081.241)" fill="#ffc09d"/>
    <path id="Trazado_797958" data-name="Trazado 797958" d="M506.357,214.35a22.99,22.99,0,0,0,12.4,1.736s-5.407,4.515-13.409.217Z" transform="translate(536.643 10085.25)" fill="#ff9b6c"/>
    <path id="Trazado_797959" data-name="Trazado 797959" d="M514.4,206.711a1.9,1.9,0,0,0-.076-1.344,1.944,1.944,0,0,0-2.061-1.157,2.6,2.6,0,0,0-1.963,1.763,2.364,2.364,0,0,0,1.092,1.628,2.588,2.588,0,0,0,.282.149,2.128,2.128,0,0,0,1.537.12,1.9,1.9,0,0,0,1.19-1.159" transform="translate(537.246 10084.011)" fill="#ff9b6c"/>
    <path id="Trazado_797960" data-name="Trazado 797960" d="M508.473,194.426a1.16,1.16,0,0,0,.574,1.512,1.109,1.109,0,0,0,1.507-.5,1.158,1.158,0,0,0-.573-1.511,1.108,1.108,0,0,0-1.508.5" transform="translate(537.012 10082.744)" fill="#263238"/>
    <path id="Trazado_797961" data-name="Trazado 797961" d="M508.96,191.413c.074.2,1.135-.062,2.283.426,1.152.471,1.746,1.418,1.93,1.331.088-.037.059-.344-.2-.767a3.177,3.177,0,0,0-1.473-1.236,3.051,3.051,0,0,0-1.889-.166c-.468.122-.695.323-.655.413" transform="translate(537.082 10082.392)" fill="#263238"/>
    <path id="Trazado_797962" data-name="Trazado 797962" d="M511.836,203.327a8.309,8.309,0,0,0-1.723-1.125c-.281-.154-.534-.33-.5-.55.02-.241.276-.506.562-.788L511.989,199a41.713,41.713,0,0,0,4.416-5.02,41.817,41.817,0,0,0-4.81,4.653c-.622.662-1.215,1.291-1.781,1.9a1.843,1.843,0,0,0-.638,1.087.8.8,0,0,0,.3.633,2.189,2.189,0,0,0,.468.281,8.176,8.176,0,0,0,1.891.8" transform="translate(537.109 10082.765)" fill="#263238"/>
    <path id="Trazado_797963" data-name="Trazado 797963" d="M514.8,204.292c-.182-.09-.711,1.156-2.153,1.59s-2.71-.263-2.793-.093c-.05.071.193.367.747.619a3.369,3.369,0,0,0,2.3.148,2.934,2.934,0,0,0,1.726-1.367c.267-.5.259-.868.171-.9" transform="translate(537.191 10084.022)" fill="#263238"/>
    <path id="Trazado_797964" data-name="Trazado 797964" d="M511.006,188.083c.074.362,1.033.546,2.025,1.066,1.008.487,1.729,1.15,2.061.993.153-.082.156-.4-.081-.835a3.542,3.542,0,0,0-3.293-1.658c-.486.068-.739.263-.712.434" transform="translate(537.332 10081.99)" fill="#263238"/>
    <path id="Trazado_797965" data-name="Trazado 797965" d="M519.188,199.564a1.157,1.157,0,0,1-1.507.586,1.108,1.108,0,0,1-.641-1.452,1.159,1.159,0,0,1,1.507-.587,1.109,1.109,0,0,1,.641,1.453" transform="translate(538.059 10083.258)" fill="#263238"/>
    <path id="Trazado_797966" data-name="Trazado 797966" d="M523.092,197.823c-.194.077-.715-.883-1.846-1.408-1.122-.541-2.224-.347-2.281-.543-.031-.089.216-.274.7-.368a3.171,3.171,0,0,1,1.905.265,3.049,3.049,0,0,1,1.389,1.293c.223.429.226.73.132.762" transform="translate(538.303 10082.945)" fill="#263238"/>
    <path id="Trazado_797967" data-name="Trazado 797967" d="M524.064,194.358c-.342.153-1.089-.521-2.132-1.023-1.027-.535-2.016-.733-2.095-1.1-.029-.172.231-.364.733-.425a3.567,3.567,0,0,1,1.938.394,3.524,3.524,0,0,1,1.468,1.314c.247.436.246.757.089.837" transform="translate(538.409 10082.499)" fill="#263238"/>
    <path id="Trazado_797968" data-name="Trazado 797968" d="M526.826,206.632c.263-.618,1.6-1.778,2.25-1.615,1.742.435,4.634,1.811,2.907,5.975-2.36,5.691-7.587,2.147-7.53,1.98.046-.13,1.464-4.2,2.373-6.34" transform="translate(538.973 10084.109)" fill="#ffc09d"/>
    <path id="Trazado_797969" data-name="Trazado 797969" d="M526.624,211.283c.033-.008.071.111.205.257a1.075,1.075,0,0,0,.736.322,2.652,2.652,0,0,0,2.046-1.73,3.529,3.529,0,0,0,.312-1.535,1.234,1.234,0,0,0-.431-1.069.546.546,0,0,0-.7.028c-.142.128-.154.257-.187.254s-.083-.146.059-.361a.686.686,0,0,1,.372-.264.808.808,0,0,1,.608.082,1.508,1.508,0,0,1,.67,1.312,3.634,3.634,0,0,1-.314,1.729,2.785,2.785,0,0,1-2.465,1.858,1.153,1.153,0,0,1-.845-.526c-.118-.213-.094-.353-.071-.356" transform="translate(539.235 10084.372)" fill="#ff9b6c"/>
    <path id="Trazado_797970" data-name="Trazado 797970" d="M529.84,208.082l-2.115.77c-3.227-8.764-7.975-29.082-7.737-27.892a19.65,19.65,0,0,1,9.119,3.292c4.133,2.97,11.58,9.4,8.851,14.656s-8.119,9.174-8.119,9.174" transform="translate(538.427 10081.171)" fill="#263238"/>
    <path id="Trazado_797971" data-name="Trazado 797971" d="M541.3,208.267c-2.2-1.473-5.417-1.746-7.349.061l-5.908,8.7a8.613,8.613,0,1,0,13.257-8.759" transform="translate(539.411 10084.361)" fill="#263238"/>
    <path id="Trazado_797972" data-name="Trazado 797972" d="M521.219,182.322s7.752,24.321,17.36,27.45a16.084,16.084,0,0,0,1.269-3.432Z" transform="translate(538.578 10081.343)" fill="#e0e0e0"/>
    <path id="Trazado_797973" data-name="Trazado 797973" d="M531.226,212.341a12.766,12.766,0,0,1,1.187,11.249c-.18-.039.489-2.567.139-5.7-.312-3.138-1.492-5.472-1.326-5.547" transform="translate(539.797 10085.005)" fill="#455a64"/>
    <path id="Trazado_797974" data-name="Trazado 797974" d="M538.65,205a11.651,11.651,0,0,1-7.6,7.923c-.082-.164,2.259-1.185,4.37-3.415,2.141-2.2,3.064-4.583,3.23-4.508" transform="translate(539.777 10084.109)" fill="#455a64"/>
    <path id="Trazado_797975" data-name="Trazado 797975" d="M471.88,287.319,483.038,255.2c.1-7.456,1.226-18.266,9.494-23.363L511.1,221.511l11.343,2.012,3.176,1.187s6.126,5.959,2.677,16.875-17.9,35.153-17.9,35.153l1.877,6.7c.906,3.228-1.034,5.133-4.373,5.429l-35.66,4c-3.363.3-3.907-2.259-.365-5.547" transform="translate(532.265 10086.123)" fill="#59bee2"/>
    <g id="Grupo_1064708" data-name="Grupo 1064708" transform="translate(1031.019 10319.321)" opacity="0.3">
      <g id="Grupo_1064707" data-name="Grupo 1064707">
        <g id="Grupo_1064706" data-name="Grupo 1064706" clip-path="url(#clip-path-3)">
          <path id="Trazado_797976" data-name="Trazado 797976" d="M495.569,235.781c.016-.02,9.566,6.706,16.87,5.278l-13.744-9.132Z" transform="translate(-495.569 -231.927)"/>
        </g>
      </g>
    </g>
    <path id="Trazado_797977" data-name="Trazado 797977" d="M514.963,106.755a15.869,15.869,0,0,1,12.517,6.095l6.4.03.826-47-43.076-.2-.127,7.2A15.136,15.136,0,0,1,497.5,85.185a16.012,16.012,0,0,1-16.25,15.465,15.367,15.367,0,0,1-9.282-27.861l.126-7.2-43.076-.2-.825,47-3.665-.017a16.145,16.145,0,0,0-28.768,9.37,15.52,15.52,0,0,0,15.7,15.613,16.322,16.322,0,0,0,12.729-5.979l3.665.018-.6,34.3,43.076.2-.082,4.727a15.367,15.367,0,0,0,9.281,27.861,16.012,16.012,0,0,0,16.251-15.465,15.132,15.132,0,0,0-5.991-12.3l.083-4.727,43.076.2.6-34.3-6.4-.03a16.326,16.326,0,0,1-12.729,5.979,15.52,15.52,0,0,1-15.705-15.613,16.013,16.013,0,0,1,16.251-15.465" transform="translate(523.274 10067.08)" fill="#1969d5"/>
    <path id="Trazado_797978" data-name="Trazado 797978" d="M480.66,167.931c-.232-.275,1.263-8.123,4.123-10.832s12-5.022,12-5.022a37.416,37.416,0,0,1,6.078-3.949,1.8,1.8,0,0,1,2.207.642s1.075-1.213,1.976-.2c.365.408-2.418,5.776-4.163,7.143s-6.874,5.184-6.874,5.184l-4.9,5.446.206,1.668Z" transform="translate(533.628 10077.154)" fill="#ffc09d"/>
    <path id="Trazado_797979" data-name="Trazado 797979" d="M493.229,156.98a6.527,6.527,0,0,0,1.849-.62,18.851,18.851,0,0,0,7.332-5.8,6.508,6.508,0,0,0,1.03-1.656,34.841,34.841,0,0,1-4.589,4.691,34.914,34.914,0,0,1-5.622,3.385" transform="translate(535.164 10077.267)" fill="#ff9b6c"/>
    <path id="Trazado_797980" data-name="Trazado 797980" d="M521.916,247.521c-2.7,3.322-9.447,4.961-16.65,1.195S483,207.105,480.927,201.229s-1.3-35.148-1.3-35.148l12.54-1.666,5.9,36.412,14.662,24.123c1.109.423,10.365,6.358,11.3,12.562a11.961,11.961,0,0,1-2.113,10.01" transform="translate(533.487 10079.159)" fill="#59bee2"/>
    <path id="Trazado_797981" data-name="Trazado 797981" d="M651.1,168.154l-.835-.048a16.2,16.2,0,0,0-17,13.75c-1.12,7.675-2.256,16.17-2.468,20.31-.439,8.573,8.127,10.406,8.127,10.406l-.35,9.771,17.567.478,4.078-21.994,2.583-14.655c1.341-8.851-2.739-16.977-11.7-18.018" transform="translate(551.942 10079.605)" fill="#ffc09d"/>
    <path id="Trazado_797982" data-name="Trazado 797982" d="M637.978,208.006a21.251,21.251,0,0,0,11.542-2.63s-2.983,6.519-11.564,5.247Z" transform="translate(552.818 10084.155)" fill="#ff9b6c"/>
    <path id="Trazado_797983" data-name="Trazado 797983" d="M633.96,178.1s2.623-5.233,5.314-6.334c3.258-1.333,4.4,2.183,7.467,1.524s6.178-1.94,9.109.545c3.21,2.721,1.518,4.4,1.484,8.214-.137,15.46,2.426,19.982,3.7,12.77.139-.79,5.179-.013,5.195-9.1.007-4.389-1.529-4.635-2.314-7.784a12.358,12.358,0,0,0-4.113-7.2c-4.047-3.379-9.876-3.784-13.862-3.618s-11.91,4.239-11.977,10.977" transform="translate(552.33 10079.484)" fill="#263238"/>
    <path id="Trazado_797984" data-name="Trazado 797984" d="M633.877,178.147a9.39,9.39,0,0,1,5.217-3.506c6.271-1.451,14.616-.987,23.4,9.461l3.827,1.794s.458-6.4-.926-9.815c-.533-1.322-2.611-8.12-12.508-9.922,0,0-16.238-4.664-19.012,11.988" transform="translate(552.32 10079.298)" fill="#455a64"/>
    <g id="Grupo_1064713" data-name="Grupo 1064713" transform="translate(1186.197 10244.855)" opacity="0.3">
      <g id="Grupo_1064712" data-name="Grupo 1064712">
        <g id="Grupo_1064711" data-name="Grupo 1064711" clip-path="url(#clip-path-4)">
          <path id="Trazado_797985" data-name="Trazado 797985" d="M633.877,178.147a9.39,9.39,0,0,1,5.217-3.506c6.271-1.451,14.616-.987,23.4,9.461l3.827,1.794a36.705,36.705,0,0,0,.037-4.145,20.533,20.533,0,0,0-.889-5.492c-.616-1.545-2.7-8.28-12.582-10.1,0,0-16.238-4.664-19.012,11.988" transform="translate(-633.877 -165.557)"/>
        </g>
      </g>
    </g>
    <path id="Trazado_797986" data-name="Trazado 797986" d="M664.112,183.341c-3.909-4.684-9.137-7.557-14.669-9.931s-14.373-4.259-20.375-4.954a13.112,13.112,0,0,0-5.393.187,4.719,4.719,0,0,0-3.47,3.661c-.232,2.186,4.123,4.912,6.132,5.943s8.192,3.792,8.192,3.792.751-5.6,4.9-6.763c8.619-2.419,24.984,8.245,24.684,8.064" transform="translate(550.651 10079.629)" fill="#455a64"/>
    <path id="Trazado_797987" data-name="Trazado 797987" d="M642.269,174.678a3,3,0,0,0-3.846-.646,6.915,6.915,0,0,0-4.391-3.967,4.923,4.923,0,0,0-5.359,1.983,3.845,3.845,0,0,0,1.359,5.271,2.823,2.823,0,0,0,.942,3.764,5.287,5.287,0,0,0,4.172.487c1.794-.429,3.611-1.579,4.017-3.378a2.092,2.092,0,0,0,2.368,1.558,3.417,3.417,0,0,0,2.382-1.877,8.94,8.94,0,0,0,1.051-2.754Z" transform="translate(551.622 10079.829)" fill="#263238"/>
    <path id="Trazado_797988" data-name="Trazado 797988" d="M634.549,188.048a1.223,1.223,0,0,0,1.112,1.3,1.189,1.189,0,0,0,1.344-1.03,1.223,1.223,0,0,0-1.112-1.3,1.189,1.189,0,0,0-1.344,1.03" transform="translate(552.401 10081.915)" fill="#263238"/>
    <path id="Trazado_797989" data-name="Trazado 797989" d="M634.417,184.315c.143.168,1.122-.463,2.45-.383,1.33.061,2.262.794,2.416.642.075-.067-.062-.365-.467-.7a3.408,3.408,0,0,0-1.922-.711,3.309,3.309,0,0,0-1.964.5c-.429.287-.585.568-.514.644" transform="translate(552.384 10081.445)" fill="#263238"/>
    <path id="Trazado_797990" data-name="Trazado 797990" d="M644.811,188.76a1.222,1.222,0,0,0,1.112,1.3,1.189,1.189,0,0,0,1.344-1.03,1.222,1.222,0,0,0-1.112-1.3,1.188,1.188,0,0,0-1.344,1.03" transform="translate(553.653 10082.002)" fill="#263238"/>
    <path id="Trazado_797991" data-name="Trazado 797991" d="M646.046,185.207c.144.168,1.124-.463,2.452-.383,1.328.062,2.261.8,2.416.642.075-.067-.061-.364-.468-.695a3.388,3.388,0,0,0-1.921-.711,3.3,3.3,0,0,0-1.965.5c-.426.286-.585.568-.514.643" transform="translate(553.803 10081.555)" fill="#263238"/>
    <path id="Trazado_797992" data-name="Trazado 797992" d="M641.553,194.725a8.813,8.813,0,0,0-2.134-.51c-.337-.055-.654-.14-.7-.372a1.718,1.718,0,0,1,.289-.984q.557-1.192,1.167-2.5a44.066,44.066,0,0,0,2.68-6.565,44.287,44.287,0,0,0-3.207,6.339q-.589,1.318-1.125,2.519a1.945,1.945,0,0,0-.26,1.309.845.845,0,0,0,.527.524,2.279,2.279,0,0,0,.571.112,8.756,8.756,0,0,0,2.188.13" transform="translate(552.851 10081.522)" fill="#263238"/>
    <path id="Trazado_797993" data-name="Trazado 797993" d="M645.475,181.393c.153.344,1.315.048,2.721.084,1.406,0,2.57.335,2.721,0,.066-.162-.164-.476-.653-.773a4.235,4.235,0,0,0-2.076-.56,4.119,4.119,0,0,0-2.07.5c-.485.283-.712.59-.643.754" transform="translate(553.733 10081.077)" fill="#263238"/>
    <path id="Trazado_797994" data-name="Trazado 797994" d="M634.794,180.032c.261.315,1.378.068,2.7.13,1.322.024,2.424.342,2.7.044.122-.145-.035-.456-.5-.766a4.6,4.6,0,0,0-4.35-.14c-.486.28-.659.58-.544.733" transform="translate(552.428 10080.916)" fill="#263238"/>
    <path id="Trazado_797995" data-name="Trazado 797995" d="M641.321,196.938l.156-.218,3.083-1.379a1.024,1.024,0,0,1,.526-.128.841.841,0,0,1,.527.368,2.393,2.393,0,1,1-4.293,1.356" transform="translate(553.229 10082.915)" fill="#ff9b6c"/>
    <path id="Trazado_797996" data-name="Trazado 797996" d="M642.675,199.223a4.185,4.185,0,0,0,1.637.01,2.385,2.385,0,0,0,.756-.269,2.125,2.125,0,0,0,.674-.6,1.523,1.523,0,0,0,.27-.921,3.066,3.066,0,0,0-.252-1.061q-.109-.268-.237-.526a2.535,2.535,0,0,0-.257-.461c-.175-.242-.484-.15-.78.007-.6.3-1.155.582-1.634.825a8.284,8.284,0,0,1-1.548.683,8.142,8.142,0,0,1,1.433-.9c.472-.261,1.01-.562,1.6-.891a1.552,1.552,0,0,1,.552-.2.7.7,0,0,1,.633.257,2.622,2.622,0,0,1,.309.528c.088.176.172.358.248.549a3.265,3.265,0,0,1,.27,1.185,1.824,1.824,0,0,1-.349,1.111,2.415,2.415,0,0,1-1.647.928,3.174,3.174,0,0,1-1.261-.05c-.291-.082-.427-.183-.417-.2" transform="translate(553.227 10082.879)" fill="#263238"/>
    <path id="Trazado_797997" data-name="Trazado 797997" d="M657.682,191.8a2.36,2.36,0,0,1,2.677-2.095c1.6.246,3.341,1.257,3.024,4.552-.561,5.847-6.369,4.109-6.364,3.94,0-.114.406-3.953.663-6.4" transform="translate(555.144 10082.24)" fill="#ffc09d"/>
    <path id="Trazado_797998" data-name="Trazado 797998" d="M658.352,195.9c.028-.016.1.081.263.175a1.033,1.033,0,0,0,.766.084,2.543,2.543,0,0,0,1.395-2.154,3.338,3.338,0,0,0-.148-1.484,1.174,1.174,0,0,0-.7-.85.53.53,0,0,0-.634.224c-.094.156-.068.276-.1.284s-.118-.11-.047-.347a.657.657,0,0,1,.267-.346.788.788,0,0,1,.583-.1,1.433,1.433,0,0,1,.986,1,3.44,3.44,0,0,1,.2,1.662,2.671,2.671,0,0,1-1.741,2.39,1.1,1.1,0,0,1-.926-.239c-.169-.16-.187-.294-.166-.3" transform="translate(555.305 10082.447)" fill="#ff9b6c"/>
    <path id="Trazado_797999" data-name="Trazado 797999" d="M598.651,242.181l24.643,8.337s11.108-20.407,11.822-21.026,14.089,6.129,14.089,6.129-14.54,27.1-17.433,28.972-3.345,2.8-6.089,2.891-31.216-17.939-31.216-17.939Z" transform="translate(547.513 10087.092)" fill="#ffc09d"/>
    <path id="Trazado_798000" data-name="Trazado 798000" d="M601.134,242.249a12.243,12.243,0,0,0-1.9-5.984c-1.791-2.505-3.151-4.27-4.085-5.739s-1.777-2.432-2.586-.725.263,3.525,1.217,4.692,1.865,1.674.683,2.556-4.886.137-6.7-.43a46.809,46.809,0,0,0-8.193-1.278c-2.181-.128-2.5.972-2.5.972a2.367,2.367,0,0,0-2.171-.055,1.084,1.084,0,0,0-.59,1.668l.668.4a1.443,1.443,0,0,0,.318,2.176,67.334,67.334,0,0,0,7.457,2.973s-4.83-1.3-5.886-.959-.574,1.453.067,1.71,11.536,3.726,13,4.43,8.976,1.023,8.976,1.023Z" transform="translate(545.03 10087.024)" fill="#ffc09d"/>
    <path id="Trazado_798001" data-name="Trazado 798001" d="M585.344,240.78a47.86,47.86,0,0,1-5.193-1.728,48.422,48.422,0,0,1-5.133-1.9,43.12,43.12,0,0,1,10.326,3.628" transform="translate(545.141 10088.029)" fill="#ff9b6c"/>
    <path id="Trazado_798002" data-name="Trazado 798002" d="M587,238.335a197.441,197.441,0,0,1-10.339-2.993A39.652,39.652,0,0,1,587,238.335" transform="translate(545.341 10087.809)" fill="#ff9b6c"/>
    <path id="Trazado_798003" data-name="Trazado 798003" d="M593.857,242.8c-.025.043-.436-.137-.874-.691a4.519,4.519,0,0,1-.875-2.541,8.362,8.362,0,0,1,.353-2.638c.187-.65.348-1.034.405-1.021a2.969,2.969,0,0,1-.1,1.088,12.417,12.417,0,0,0-.218,2.549,5.106,5.106,0,0,0,.691,2.384c.336.551.662.813.618.87" transform="translate(547.225 10087.879)" fill="#ff9b6c"/>
    <path id="Trazado_798004" data-name="Trazado 798004" d="M628.618,253.774s-9.588-5.51-9.784-5.152l17.833-32.549Z" transform="translate(550.485 10085.46)" fill="#f8dab4"/>
    <path id="Trazado_798005" data-name="Trazado 798005" d="M613,413.059c.153.035.381-.782-.054-1.676s-1.221-1.248-1.291-1.112c-.094.135.417.614.763,1.353.364.73.415,1.419.582,1.435" transform="translate(549.607 10109.145)" fill="#263238"/>
    <path id="Trazado_798006" data-name="Trazado 798006" d="M632.988,392.731l-.006,26.893-34.352.084c.185-3.2,17.925-9.657,17.925-9.657l-.723-17.233Z" transform="translate(548.021 10107.009)" fill="#455a64"/>
    <path id="Trazado_798007" data-name="Trazado 798007" d="M624.25,406.858a1.368,1.368,0,0,1,.977,1.557,1.347,1.347,0,0,1-1.573.954,1.442,1.442,0,0,1-1.027-1.654,1.407,1.407,0,0,1,1.75-.816" transform="translate(550.942 10108.726)" fill="#fff"/>
    <path id="Trazado_798008" data-name="Trazado 798008" d="M632.984,416.98l.006-2.576-33.009.959s-1.526.652-1.347,1.7Z" transform="translate(548.02 10109.652)" fill="#263238"/>
    <path id="Trazado_798009" data-name="Trazado 798009" d="M614.561,408.235c.007.164.846.236,1.673.758.843.5,1.271,1.209,1.425,1.144.155-.033-.1-1.009-1.114-1.626s-2.021-.427-1.984-.277" transform="translate(549.964 10108.881)" fill="#263238"/>
    <path id="Trazado_798010" data-name="Trazado 798010" d="M611.053,409.568c-.038.158.69.434,1.263,1.124.594.673.742,1.42.909,1.413.157.026.269-.932-.461-1.776s-1.708-.917-1.711-.761" transform="translate(549.536 10109.055)" fill="#263238"/>
    <path id="Trazado_798011" data-name="Trazado 798011" d="M614.508,405.242c.071.149.839-.079,1.787-.018.95.042,1.69.35,1.776.21.1-.119-.627-.721-1.745-.778s-1.9.458-1.819.586" transform="translate(549.957 10108.463)" fill="#263238"/>
    <path id="Trazado_798012" data-name="Trazado 798012" d="M615.073,401.256a3.3,3.3,0,0,0,1.72-.013,7.853,7.853,0,0,0,1.8-.542,8.142,8.142,0,0,0,.986-.514,2.1,2.1,0,0,0,.516-.395.7.7,0,0,0,.073-.87.929.929,0,0,0-.737-.371,2.261,2.261,0,0,0-.644.089,6.279,6.279,0,0,0-1.068.359,6.059,6.059,0,0,0-1.581,1.019c-.793.72-1.062,1.332-1.005,1.363.076.054.462-.459,1.27-1.055a6.9,6.9,0,0,1,1.53-.846,6.53,6.53,0,0,1,.986-.3c.363-.094.672-.1.766.061.035.059.039.083-.037.187a1.689,1.689,0,0,1-.38.288,9.149,9.149,0,0,1-.905.508,9.692,9.692,0,0,1-1.661.625,12.133,12.133,0,0,0-1.627.405" transform="translate(550.026 10107.719)" fill="#263238"/>
    <path id="Trazado_798013" data-name="Trazado 798013" d="M615.516,401.748a2.615,2.615,0,0,0,.445-1.62,5.313,5.313,0,0,0-.244-1.833,5.429,5.429,0,0,0-.443-1.017,1.418,1.418,0,0,0-1.1-.843.8.8,0,0,0-.717.468,2.241,2.241,0,0,0-.173.615,3.619,3.619,0,0,0,0,1.129,3.817,3.817,0,0,0,.743,1.73c.677.865,1.377,1.058,1.391,1,.055-.082-.532-.4-1.049-1.229a3.8,3.8,0,0,1-.552-1.573,3.4,3.4,0,0,1,.027-.968c.052-.356.187-.643.324-.607.171,0,.462.265.6.548a5.546,5.546,0,0,1,.431.908,5.884,5.884,0,0,1,.341,1.671c.052.982-.123,1.594-.033,1.619" transform="translate(549.803 10107.461)" fill="#263238"/>
    <path id="Trazado_798014" data-name="Trazado 798014" d="M690.21,374.586l21.36,15.447L691.91,419.065c-2.432-1.992,2.621-20.668,2.621-20.668l-14.1-9.287Z" transform="translate(557.998 10104.796)" fill="#455a64"/>
    <path id="Trazado_798015" data-name="Trazado 798015" d="M693.63,395.016a1.3,1.3,0,0,1,1.8.07,1.421,1.421,0,0,1-.146,1.875,1.367,1.367,0,0,1-1.9-.083,1.493,1.493,0,0,1,.357-1.946" transform="translate(559.553 10107.247)" fill="#fff"/>
    <path id="Trazado_798016" data-name="Trazado 798016" d="M710.391,388.524l-2.156-1.56-18.08,28.476s-.358,1.663.578,2.115Z" transform="translate(559.177 10106.306)" fill="#263238"/>
    <path id="Trazado_798017" data-name="Trazado 798017" d="M693.015,396.069c.133.089.672-.578,1.563-.976.883-.422,1.691-.378,1.728-.545.063-.149-.859-.495-1.931.007s-1.5,1.46-1.36,1.515" transform="translate(559.531 10107.199)" fill="#263238"/>
    <path id="Trazado_798018" data-name="Trazado 798018" d="M692.067,399.718c.1.122.742-.333,1.619-.42.875-.116,1.554.19,1.644.044.11-.119-.586-.762-1.676-.632s-1.709.916-1.586,1.008" transform="translate(559.416 10107.736)" fill="#263238"/>
    <path id="Trazado_798019" data-name="Trazado 798019" d="M694.3,403.417c.114-.109-.4-.772-1.362-.918s-1.693.314-1.625.452c.053.156.727,0,1.512.132.789.113,1.365.465,1.474.333" transform="translate(559.325 10108.196)" fill="#263238"/>
    <path id="Trazado_798020" data-name="Trazado 798020" d="M690.573,394.5c.159.026.42-.753,1.012-1.519s1.249-1.224,1.186-1.378c-.038-.149-.932.116-1.619,1.027s-.728,1.867-.579,1.87" transform="translate(559.228 10106.866)" fill="#263238"/>
    <path id="Trazado_798021" data-name="Trazado 798021" d="M687.586,391.89c.053.04.513-.462.977-1.459a8.433,8.433,0,0,0,.6-1.829,8.871,8.871,0,0,0,.158-1.126,2.237,2.237,0,0,0-.017-.663.67.67,0,0,0-.65-.56.935.935,0,0,0-.718.408,2.422,2.422,0,0,0-.3.595,6.7,6.7,0,0,0-.328,1.107,6.435,6.435,0,0,0-.1,1.919c.117,1.084.448,1.662.5,1.63.088-.034-.1-.653-.108-1.676a7.356,7.356,0,0,1,.206-1.776,6.974,6.974,0,0,1,.329-1c.135-.36.31-.624.488-.613.067.006.089.016.128.139a1.779,1.779,0,0,1,.011.487,9.893,9.893,0,0,1-.117,1.056,10.472,10.472,0,0,1-.457,1.76,13.069,13.069,0,0,0-.613,1.6" transform="translate(558.822 10106.219)" fill="#263238"/>
    <path id="Trazado_798022" data-name="Trazado 798022" d="M688.378,391.489c.054-.036-.222-.651-1.031-1.306a4.966,4.966,0,0,0-1.6-.847,5.037,5.037,0,0,0-1.063-.21,1.385,1.385,0,0,0-1.3.445.845.845,0,0,0-.039.873,2.135,2.135,0,0,0,.389.5,3.4,3.4,0,0,0,.9.644,3.555,3.555,0,0,0,1.8.366,2.21,2.21,0,0,0,1.6-.6,13.345,13.345,0,0,1-1.577.179,3.545,3.545,0,0,1-1.567-.438,3.2,3.2,0,0,1-.754-.579c-.253-.248-.4-.527-.3-.622a.95.95,0,0,1,.782-.2,5.26,5.26,0,0,1,.968.157,5.534,5.534,0,0,1,1.524.672c.81.521,1.195,1.02,1.267.957" transform="translate(558.342 10106.568)" fill="#263238"/>
    <path id="Trazado_798023" data-name="Trazado 798023" d="M677.912,364.334a60.486,60.486,0,0,0-7.52-6.078l-10.561-54.638L630.66,318.251s9.372,25.462,10.507,34.535.569,9.658,10.536,20.487,42.569,32.486,43.706,33.07,11.927-16.682,11.927-16.682Z" transform="translate(551.928 10096.139)" fill="#263238"/>
    <path id="Trazado_798024" data-name="Trazado 798024" d="M672.227,294.98l-34.491,63.658s3.691.585,1.419,3.8l-1.419,2.342s-2.841,56.484-3.693,56.777-24.138-2.633-24.138-2.633,1.135-63.8,1.7-72,20.14-55.295,20.14-55.295Z" transform="translate(549.396 10094.678)" fill="#263238"/>
    <path id="Trazado_798025" data-name="Trazado 798025" d="M639.171,347.227c.1.052,4.706-8.361,10.292-18.788s10.041-18.926,9.944-18.977-4.7,8.359-10.294,18.789-10.038,18.924-9.942,18.976" transform="translate(552.966 10096.852)" fill="#455a64"/>
    <path id="Trazado_798026" data-name="Trazado 798026" d="M659.4,208.7s13.306,11.88,14.041,23.876c.37,6.056-1.16,72.662-1.16,72.662l.332,7.006-51.1,2.705,1.557-30.862,2.3-35.332c.73-11.234,5.132-22.583,10.492-31.786l3.841-2.74c2.676,3.939,11.794-2.03,19.7-5.528" transform="translate(550.813 10084.562)" fill="#fad4a5"/>
    <path id="Trazado_798027" data-name="Trazado 798027" d="M615.837,305.547l-.724-4.813,42.657-6.416-5.253-34.928-6.343.954a16,16,0,1,1-2.91-19.351l6.343-.954-7.2-47.857L599.751,198.6l1.1,7.33a16,16,0,1,1-19.351,2.91l-1.1-7.33-42.658,6.415,7.2,47.857-3.63.545a16,16,0,1,0,2.91,19.351l3.63-.545,5.253,34.928,42.658-6.415.724,4.812a16,16,0,1,0,19.351-2.91" transform="translate(537.73 10082.546)" fill="#1969d5"/>
    <g id="Grupo_1064716" data-name="Grupo 1064716" transform="translate(1193.867 10305.479)" opacity="0.3">
      <g id="Grupo_1064715" data-name="Grupo 1064715">
        <g id="Grupo_1064714" data-name="Grupo 1064714" clip-path="url(#clip-path-5)">
          <path id="Trazado_798028" data-name="Trazado 798028" d="M664.593,220.721c1.347.522,3.405,2.645,3.876,18.556A235.6,235.6,0,0,1,667.1,270l-26.389-3.624s4.194-24.082,5.879-30.389c1.207-4.516,3.734-20.79,18-15.263" transform="translate(-640.713 -219.59)"/>
        </g>
      </g>
    </g>
    <path id="Trazado_798029" data-name="Trazado 798029" d="M615.635,279.556l-1.7-.176-.035-.12-.316.085c-3.6-.367-10.929-1.1-13.562-1.224a16.2,16.2,0,0,1-3.513-.581c-2.223-.771-2.374,1.144-1.08,2.412a9.7,9.7,0,0,0,2.651,1.216,8.429,8.429,0,0,1,3.163,1.5s-7.226,12.573-5.909,13.538,4.174-.358,4.174-.358a6.156,6.156,0,0,0,4.289.9,6.5,6.5,0,0,0,3.232-2.08s2.748.715,3.916-.073c.841-.569,6.347-5.955,7.71-7.495Z" transform="translate(547.53 10092.937)" fill="#ffc09d"/>
    <path id="Trazado_798030" data-name="Trazado 798030" d="M610.021,286.834s32.585-21.5,32.824-22.175,8.166-30.939,8.166-30.939,17.957,1.48,17.9,2.3-.187,7.049-.187,7.049-9.841,32.665-12.273,35.24-43.529,15.764-43.529,15.764Z" transform="translate(549.41 10087.613)" fill="#ffc09d"/>
    <path id="Trazado_798031" data-name="Trazado 798031" d="M663.4,218.035c1.347.522,7.646,4.381,5.766,20.189-2.014,16.934-3.257,29.087-3.257,29.087l-26.389-3.624s4.194-24.082,5.879-30.389c1.207-4.516,3.734-20.79,18-15.263" transform="translate(553.008 10085.562)" fill="#fad4a5"/>
    <g id="Grupo_1064719" data-name="Grupo 1064719" transform="translate(1173.392 10325.166)" opacity="0.3">
      <g id="Grupo_1064718" data-name="Grupo 1064718">
        <g id="Grupo_1064717" data-name="Grupo 1064717" clip-path="url(#clip-path-6)">
          <path id="Trazado_798032" data-name="Trazado 798032" d="M624.989,249.4l1.408-12.263-3.934,10.869Z" transform="translate(-622.464 -237.137)"/>
        </g>
      </g>
    </g>
    <path id="Trazado_798033" data-name="Trazado 798033" d="M663.433,218.047a1.2,1.2,0,0,1-.288-.072l-.829-.261a15.526,15.526,0,0,0-3.271-.635,9.524,9.524,0,0,0-5.12.917,11.612,11.612,0,0,0-4.8,4.969,32.127,32.127,0,0,0-2.907,8.091c-.76,3.052-1.512,6.291-2.18,9.784-1.368,6.957-2.762,14.692-4.2,22.91l-.246-.337,9.474,1.3,16.913,2.333-.32.251c.839-7.365,1.622-14.245,2.327-20.429.653-6.183,1.581-11.641,1.316-16.2-.243-4.555-1.5-8.1-3.019-10.084a8.965,8.965,0,0,0-2.008-2.011c-.531-.376-.852-.5-.843-.521a3.4,3.4,0,0,1,.9.438,8.518,8.518,0,0,1,2.107,1.977c1.593,1.986,2.93,5.576,3.225,10.18.315,4.624-.574,10.108-1.192,16.279-.68,6.184-1.437,13.067-2.248,20.431l-.033.292-.287-.039-16.916-2.315-9.473-1.3-.3-.04.053-.3c1.45-8.221,2.868-15.952,4.269-22.912.68-3.476,1.466-6.772,2.241-9.792a32.122,32.122,0,0,1,3.014-8.17,11.874,11.874,0,0,1,5-5.052,9.654,9.654,0,0,1,5.271-.854,14.24,14.24,0,0,1,3.286.742l.815.312a1.172,1.172,0,0,1,.269.123" transform="translate(552.972 10085.55)" fill="#263238"/>
    <path id="Trazado_798034" data-name="Trazado 798034" d="M280.373,440.916l-.187-237.322h-7.058c.456,1.626,0,237.322,0,237.322Z" transform="translate(508.316 10083.938)" fill="#e0e0e0"/>
    <path id="Trazado_798035" data-name="Trazado 798035" d="M280.4,440.944s-.561.015-1.751.026l-5.494.035H273.1v-.061c0-12.561-.006-42.988-.01-84.712.007-20.876.015-44.573.022-70.266,0-12.847-.009-26.193-.013-39.933q-.015-10.3-.031-20.895-.017-5.291-.035-10.645-.02-2.676-.038-5.366l-.022-2.692-.059-2.639c0-.036,0-.071,0-.1l-.007-.33h7.573v.258c.01,65.947.02,125.306.027,168.192-.017,21.407-.03,38.7-.039,50.653-.011,5.956-.02,10.578-.027,13.723-.007,1.556-.011,2.745-.015,3.557s-.018,1.2-.018,1.2-.012-.424-.019-1.235-.012-2.02-.021-3.591c-.011-3.158-.027-7.8-.048-13.783-.028-11.966-.068-29.28-.119-50.714-.061-42.836-.145-102.127-.238-168l.258.258h-7.058l.25-.329,0,.108.077,2.763.022,2.7q.019,2.693.037,5.37.017,5.354.034,10.646.013,10.582.026,20.9c0,13.741-.006,27.087-.009,39.935-.038,25.692-.074,49.391-.105,70.265-.136,41.724-.234,72.152-.275,84.712l-.061-.061,5.46.035c1.2.011,1.786.026,1.786.026" transform="translate(508.288 10083.91)" fill="#263238"/>
    <path id="Trazado_798036" data-name="Trazado 798036" d="M294.749,158.994l-93,287.265h8.327l93-284.92Z" transform="translate(499.609 10078.498)" fill="#e0e0e0"/>
    <path id="Trazado_798037" data-name="Trazado 798037" d="M294.788,158.994s.656.169,2.031.545l6.314,1.742.059.017-.019.058c-9.651,29.633-47.53,145.94-92.812,284.983l-.058.178h-8.871l.11-.339,65.98-203.467c8.426-25.919,15.235-46.862,19.94-61.335,2.354-7.215,4.181-12.818,5.423-16.623l1.414-4.308c.321-.968.49-1.452.49-1.452s-.154.515-.464,1.5-.781,2.444-1.39,4.352c-1.229,3.825-3.037,9.453-5.368,16.7-4.674,14.5-11.437,35.477-19.807,61.44-16.769,51.883-39.973,123.674-65.724,203.351l-.246-.339h8.326l-.247.178c45.469-138.981,83.5-255.239,93.194-284.858l.04.075-6.264-1.8c-1.374-.4-2.05-.6-2.05-.6" transform="translate(499.57 10078.498)" fill="#263238"/>
    <rect id="Rectángulo_373775" data-name="Rectángulo 373775" width="69.844" height="7.599" transform="translate(739.76 10411.455)" fill="#e0e0e0"/>
    <path id="Trazado_798038" data-name="Trazado 798038" d="M305.848,321.674s-.013-.179-.021-.512c-.007-.355-.016-.839-.027-1.464-.015-1.3-.035-3.184-.063-5.623l.111.111c-12.194.088-38.9.148-69.841.148h0c.114-.116-.26.259.257-.259v1.942q0,.968,0,1.923v3.734l-.258-.258,49.555.111,14.836.076,4.029.036,1.055.017a3.164,3.164,0,0,1,.37.018,2.2,2.2,0,0,1-.335.018l-1.021.017-3.971.036-14.775.076L236,321.932h-.258v-.258c0-1.212,0-2.462,0-3.734v-3.865c.518-.517.145-.142.261-.258h0c30.941,0,57.647.061,69.841.148h.112v.109c-.028,2.466-.049,4.37-.063,5.687-.011.615-.02,1.092-.027,1.44a4,4,0,0,1-.021.472" transform="translate(503.756 10097.38)" fill="#263238"/>
    <g id="Grupo_1064724" data-name="Grupo 1064724" transform="translate(794.403 10411.456)" opacity="0.3">
      <g id="Grupo_1064723" data-name="Grupo 1064723">
        <g id="Grupo_1064722" data-name="Grupo 1064722" clip-path="url(#clip-path-7)">
          <rect id="Rectángulo_373776" data-name="Rectángulo 373776" width="15.199" height="7.599" transform="translate(0.001 -0.001)"/>
        </g>
      </g>
    </g>
    <rect id="Rectángulo_373778" data-name="Rectángulo 373778" width="69.844" height="7.599" transform="translate(722.622 10459.536)" fill="#e0e0e0"/>
    <path id="Trazado_798039" data-name="Trazado 798039" d="M290.574,364.528s-.013-.18-.021-.512c-.007-.355-.016-.839-.027-1.464-.013-1.3-.035-3.185-.063-5.622l.111.11c-12.194.088-38.9.148-69.841.148h0c.114-.116-.26.259.257-.258v3.864c0,1.272,0,2.522,0,3.734l-.258-.258,49.555.111,14.836.076,4.029.036,1.055.017a3.5,3.5,0,0,1,.37.018,2.418,2.418,0,0,1-.335.018l-1.021.017-3.971.036-14.775.076-49.742.111h-.258v-.258c0-1.212,0-2.462,0-3.734V356.93c.518-.518.145-.144.261-.259h0c30.941,0,57.647.061,69.841.148h.112v.11c-.028,2.465-.048,4.369-.063,5.686-.011.615-.02,1.092-.027,1.439a3.991,3.991,0,0,1-.021.472" transform="translate(501.893 10102.607)" fill="#263238"/>
    <rect id="Rectángulo_373779" data-name="Rectángulo 373779" width="69.844" height="7.598" transform="translate(711.735 10500.773)" fill="#e0e0e0"/>
    <path id="Trazado_798040" data-name="Trazado 798040" d="M280.871,401.281s-.013-.18-.021-.512c-.007-.355-.016-.839-.027-1.464-.015-1.3-.035-3.184-.063-5.622l.111.11c-12.194.087-38.9.148-69.841.148h0c.114-.116-.26.259.257-.258v3.864c0,1.272,0,2.522,0,3.734l-.258-.258,49.554.111,14.836.076,4.029.036,1.055.017a3.5,3.5,0,0,1,.37.018,2.442,2.442,0,0,1-.335.018l-1.021.017-3.971.036-14.775.076-49.742.111h-.258v-.258c0-1.212,0-2.462,0-3.734v-3.864c.518-.518.145-.144.261-.259h0c30.941,0,57.647.061,69.841.148h.112v.11c-.028,2.465-.048,4.369-.063,5.686-.011.615-.02,1.092-.027,1.439a3.993,3.993,0,0,1-.021.472" transform="translate(500.709 10107.091)" fill="#263238"/>
    <path id="Trazado_798041" data-name="Trazado 798041" d="M249.846,276.448h83.4v7.6h-83.4" transform="translate(505.477 10092.825)" fill="#e0e0e0"/>
    <path id="Trazado_798042" data-name="Trazado 798042" d="M249.846,284.075a2.7,2.7,0,0,1,.425-.026l1.252-.025,4.825-.048,17.784-.081,59.115-.08-.259.259v-7.6l.259.258c-23.214-.031-44.055-.058-59.119-.08l-17.782-.081-4.822-.047-1.252-.026a2.544,2.544,0,0,1-.425-.026,2.9,2.9,0,0,1,.425-.026l1.252-.025,4.822-.047,17.782-.081,59.119-.08h.259v8.116h-.259l-59.115-.08-17.784-.081-4.825-.048-1.252-.025a2.711,2.711,0,0,1-.425-.026" transform="translate(505.477 10092.797)" fill="#263238"/>
    <g id="Grupo_1064727" data-name="Grupo 1064727" transform="translate(804.4 10369.272)" opacity="0.3">
      <g id="Grupo_1064726" data-name="Grupo 1064726">
        <g id="Grupo_1064725" data-name="Grupo 1064725" clip-path="url(#clip-path-8)">
          <rect id="Rectángulo_373780" data-name="Rectángulo 373780" width="34.578" height="7.323" transform="translate(0 0.001)"/>
        </g>
      </g>
    </g>
    <g id="Grupo_1064730" data-name="Grupo 1064730" transform="translate(776.004 10459.537)" opacity="0.3">
      <g id="Grupo_1064729" data-name="Grupo 1064729">
        <g id="Grupo_1064728" data-name="Grupo 1064728" clip-path="url(#clip-path-9)">
          <rect id="Rectángulo_373782" data-name="Rectángulo 373782" width="16.463" height="7.599" transform="translate(0 -0.001)"/>
        </g>
      </g>
    </g>
    <g id="Grupo_1064733" data-name="Grupo 1064733" transform="translate(760.239 10500.772)" opacity="0.3">
      <g id="Grupo_1064732" data-name="Grupo 1064732">
        <g id="Grupo_1064731" data-name="Grupo 1064731" clip-path="url(#clip-path-10)">
          <rect id="Rectángulo_373784" data-name="Rectángulo 373784" width="21.205" height="7.598" transform="translate(0 0.001)"/>
        </g>
      </g>
    </g>
    <path id="Trazado_798043" data-name="Trazado 798043" d="M296.618,163.495s5.76-10.636,16.861-13.7c8-2.207,19.358-1.855,21.872-1.3,5.194,1.137,7.955,6.625,4.55,16.951l-85.19,282.975h8.653l85.993-284.969c1-3.276,5.235-21.9-15.765-22.116-11.689-.123-21.126.816-28.874,4.224-8.455,3.72-14.253,9.735-16.959,17.123" transform="translate(506.069 10076.342)" fill="#e0e0e0"/>
    <path id="Trazado_798044" data-name="Trazado 798044" d="M287.8,162.69s.2-.628.717-1.808a25.693,25.693,0,0,1,2.842-4.946,30.613,30.613,0,0,1,2.711-3.22,32.9,32.9,0,0,1,3.846-3.319,37.562,37.562,0,0,1,11.331-5.585,66.094,66.094,0,0,1,15.656-2.444q4.347-.222,9.072-.147a21.744,21.744,0,0,1,9.545,2.09,12.7,12.7,0,0,1,4.039,3.25,13.327,13.327,0,0,1,2.39,4.8,22.953,22.953,0,0,1-.122,11.145c-2.156,7.382-4.533,15.125-6.976,23.289L266,440.7l-2.355,7.8-.056.184H254.4l.1-.334,73.6-244.183q3.517-11.648,6.686-22.143,1.584-5.241,3.074-10.177.744-2.466,1.466-4.855c.457-1.6,1.013-3.138,1.349-4.7a16.246,16.246,0,0,0-.056-9.095,7.215,7.215,0,0,0-2.545-3.4,7.832,7.832,0,0,0-3.879-1.346,70.786,70.786,0,0,0-14.985.348,38.993,38.993,0,0,0-6.239,1.282,24.909,24.909,0,0,0-5.121,2.215,31.407,31.407,0,0,0-6.814,5.473,34.944,34.944,0,0,0-3.382,4.2c-.687,1-1,1.544-1,1.544a16.865,16.865,0,0,1,.953-1.573,33.4,33.4,0,0,1,3.35-4.235,31.238,31.238,0,0,1,6.813-5.535,25.049,25.049,0,0,1,5.145-2.251,39.212,39.212,0,0,1,6.264-1.312,70.842,70.842,0,0,1,15.038-.393,8.078,8.078,0,0,1,4,1.381,7.464,7.464,0,0,1,2.646,3.514,16.505,16.505,0,0,1,.086,9.25c-.335,1.582-.893,3.129-1.345,4.728l-1.457,4.858q-1.481,4.938-3.055,10.183l-6.651,22.153C309.751,266.425,283.851,352.552,255,448.5l-.248-.333H263.4l-.248.184c.744-2.464,1.548-5.13,2.354-7.8L342.5,185.687c2.452-8.152,4.847-15.916,7.007-23.261a22.657,22.657,0,0,0,.144-10.985,13.025,13.025,0,0,0-2.326-4.691,12.408,12.408,0,0,0-3.938-3.181,21.507,21.507,0,0,0-9.417-2.079c-3.139-.058-6.164-.015-9.054.126a66.12,66.12,0,0,0-15.61,2.39,37.486,37.486,0,0,0-11.3,5.517,32.938,32.938,0,0,0-3.844,3.285A30.7,30.7,0,0,0,291.44,156a26.429,26.429,0,0,0-2.878,4.905c-.286.576-.439,1.039-.572,1.335s-.193.451-.193.451" transform="translate(506.031 10076.327)" fill="#263238"/>
    <path id="Trazado_798045" data-name="Trazado 798045" d="M324.968,439.438l-.187-233.131h-7.058c.456,1.6,0,233.131,0,233.131Z" transform="translate(513.756 10084.269)" fill="#e0e0e0"/>
    <path id="Trazado_798046" data-name="Trazado 798046" d="M311.288,121.259c.937,1.027.876,2.529.2,3.989a2.071,2.071,0,0,0,.494,2.438,56.525,56.525,0,0,0,6.4-3.833c1.887-1.492,5.433-5.007,6.974-5.2s2.457.719,1.1,1.845-5.528,5.132-5.292,5.693,9.155-3.434,9.765-2.827,1.5,2.006-.812,2.6a53.039,53.039,0,0,0-6.96,2.868s8.248-1.912,8.273-.58-.791,1.5-2.17,1.9-6.725,2.821-6.725,2.821,6.964-1.045,7.107.265.074,1.565-1.352,1.732-14.343,4.241-14.81,4.335l-4.915,1-2.279-7.314.6-2.318s1.115-5.82,2.14-7.366,1.325-3.065,2.263-2.039" transform="translate(512.36 10073.574)" fill="#ae7461"/>
    <path id="Trazado_798047" data-name="Trazado 798047" d="M265.342,121.164c2.153,2.392,20.333,22.782,20.333,22.782l26.456.9.988,9.6s-25.3,6.284-31.826,6.122-10.762-6.11-10.762-6.11l-12.616-17.243Z" transform="translate(506.461 10073.883)" fill="#455a64"/>
    <path id="Trazado_798048" data-name="Trazado 798048" d="M325.658,141.99s-4.191-3.534-7.02-3.415-12.4,4.467-12.4,4.467l.888,8.625,9.928,1.483a4.686,4.686,0,0,0,4.526-2.418l1.041-2.873a48.917,48.917,0,0,0-5.767-.022s1.231-4.994,3.254-5.6a44.414,44.414,0,0,1,5.552-.245" transform="translate(512.354 10076.007)" fill="#ae7461"/>
    <path id="Trazado_798049" data-name="Trazado 798049" d="M316.476,144.776c.138.021.058.76-.267,1.554s-.582,1.4-.7,1.387c-.138-.021-.058-.758.267-1.554s.582-1.4.7-1.387" transform="translate(513.478 10076.764)" fill="#6f4439"/>
    <path id="Trazado_798050" data-name="Trazado 798050" d="M291.294,254.325l-2.127,16.029s17.294,7.185,17.367,10.432l-33.148-1.111.107-2.423,1.69-8.224,2.631-16Z" transform="translate(508.348 10089.968)" fill="#455a64"/>
    <path id="Trazado_798051" data-name="Trazado 798051" d="M278.753,265.928a1.386,1.386,0,0,0-1.019,1.544,1.332,1.332,0,0,0,1.52,1.023,1.463,1.463,0,0,0,1.071-1.64,1.382,1.382,0,0,0-1.7-.889" transform="translate(508.876 10091.536)" fill="#e0e0e0"/>
    <path id="Trazado_798052" data-name="Trazado 798052" d="M273.386,277.042l.107-2.423,31.769,1.763s1.484.715,1.272,1.772Z" transform="translate(508.348 10092.602)" fill="#263238"/>
    <path id="Trazado_798053" data-name="Trazado 798053" d="M288.291,268.354c-.012.166-.843.209-1.678.709-.848.479-1.3,1.18-1.446,1.108-.151-.038.133-1.018,1.156-1.607s2.011-.361,1.969-.211" transform="translate(509.78 10091.816)" fill="#263238"/>
    <path id="Trazado_798054" data-name="Trazado 798054" d="M291.321,269.777c.031.162-.7.415-1.286,1.094-.61.662-.781,1.414-.946,1.4-.157.02-.233-.955.515-1.784s1.719-.868,1.717-.71" transform="translate(510.25 10092.002)" fill="#263238"/>
    <path id="Trazado_798055" data-name="Trazado 798055" d="M292.74,273.939c-.151.029-.35-.807.11-1.7s1.249-1.222,1.314-1.08c.089.139-.433.607-.8,1.343-.384.728-.459,1.425-.624,1.435" transform="translate(510.688 10092.176)" fill="#263238"/>
    <path id="Trazado_798056" data-name="Trazado 798056" d="M289.5,265c-.075.148-.827-.11-1.765-.082-.939.008-1.68.294-1.76.148-.091-.123.644-.709,1.749-.725s1.862.532,1.776.659" transform="translate(509.883 10091.348)" fill="#263238"/>
    <path id="Trazado_798057" data-name="Trazado 798057" d="M274.12,292.065l-2.265,16.3s17.558,7.422,17.612,10.728l-33.732-1.339.122-2.466,1.772-8.36,2.779-16.268Z" transform="translate(506.194 10094.559)" fill="#455a64"/>
    <path id="Trazado_798058" data-name="Trazado 798058" d="M261.265,303.8a1.411,1.411,0,0,0-1.047,1.565,1.355,1.355,0,0,0,1.542,1.05,1.489,1.489,0,0,0,1.1-1.663,1.408,1.408,0,0,0-1.726-.916" transform="translate(506.739 10096.155)" fill="#e0e0e0"/>
    <path id="Trazado_798059" data-name="Trazado 798059" d="M255.734,315.079l.123-2.466,32.325,1.993s1.507.737,1.285,1.812Z" transform="translate(506.194 10097.236)" fill="#263238"/>
    <path id="Trazado_798060" data-name="Trazado 798060" d="M270.959,306.328c-.013.168-.859.208-1.712.711-.867.482-1.327,1.195-1.48,1.12-.154-.04.143-1.037,1.187-1.629s2.049-.353,2-.2" transform="translate(507.657 10096.447)" fill="#263238"/>
    <path id="Trazado_798061" data-name="Trazado 798061" d="M274.035,307.8c.03.165-.711.419-1.316,1.106-.626.669-.8,1.433-.972,1.418-.16.02-.232-.973.536-1.813s1.754-.872,1.751-.711" transform="translate(508.135 10096.639)" fill="#263238"/>
    <path id="Trazado_798062" data-name="Trazado 798062" d="M275.453,312.042c-.155.029-.351-.824.122-1.727s1.279-1.235,1.344-1.093c.09.144-.444.616-.822,1.363-.4.739-.476,1.447-.644,1.456" transform="translate(508.578 10096.818)" fill="#263238"/>
    <path id="Trazado_798063" data-name="Trazado 798063" d="M272.214,302.92c-.077.15-.84-.117-1.8-.094-.956,0-1.711.288-1.793.14-.092-.127.66-.718,1.786-.728s1.892.553,1.8.682" transform="translate(507.766 10095.971)" fill="#263238"/>
    <path id="Trazado_798064" data-name="Trazado 798064" d="M236.769,107.491l31.7-1.7s9.631,15.756,11.607,33.029,4.431,34.57,4.431,34.57l-30.853,1.139a35.311,35.311,0,0,1-9.551-.953l-3.14-.754,3.541-10.556a219.011,219.011,0,0,1-7.044-28.7c-2.67-17.033-.692-26.074-.692-26.074" transform="translate(503.795 10072.008)" fill="#1969d5"/>
    <path id="Trazado_798065" data-name="Trazado 798065" d="M310.137,131.028l-19.374,12.15s-6.5-14.093-8.552-19.927-5.6-13.3-9.84-15.781S260.876,106,260.876,106l3.046,19.125,5.962,17.172s6.992,15.805,11.6,19.543,10.146,1.656,13.094,0,22.295-19.1,22.295-19.1Z" transform="translate(506.821 10072.009)" fill="#1969d5"/>
    <path id="Trazado_798066" data-name="Trazado 798066" d="M285.428,147.345a22.178,22.178,0,0,0,1.356-3.981,22.014,22.014,0,0,0,.968-4.093,22.086,22.086,0,0,0-1.355,3.982,22.144,22.144,0,0,0-.969,4.092" transform="translate(509.814 10076.092)" fill="#263238"/>
    <g id="Grupo_1064736" data-name="Grupo 1064736" transform="translate(770.849 10200.44)" opacity="0.3">
      <g id="Grupo_1064735" data-name="Grupo 1064735">
        <g id="Grupo_1064734" data-name="Grupo 1064734" clip-path="url(#clip-path-11)">
          <path id="Trazado_798067" data-name="Trazado 798067" d="M278.947,157.811c-3.036-1.637-12.949-17.511-14.194-20.727a17.708,17.708,0,0,1-.322-11.112c2.351,5.917,12.187,26.7,14.516,31.84" transform="translate(-263.685 -125.971)"/>
        </g>
      </g>
    </g>
    <path id="Trazado_798068" data-name="Trazado 798068" d="M244,156.6a8.9,8.9,0,0,0,2.022.774,30.87,30.87,0,0,0,10.338,1.291,9.009,9.009,0,0,0,2.151-.254,16.02,16.02,0,0,0-2.156-.031A41.67,41.67,0,0,1,246.1,157.1a16.151,16.151,0,0,0-2.1-.5" transform="translate(504.763 10078.205)" fill="#263238"/>
    <path id="Trazado_798069" data-name="Trazado 798069" d="M241.995,165.109a53.777,53.777,0,0,0-6.277,25.015c.074,9.14,9.216,19.121,17.817,22.213l29.689,8.1-2.464,53.052,15.353,3.732s11.323-54.7,12.549-60.44-1.517-18.606-15.8-27.4-23.454-22.615-23.454-22.615Z" transform="translate(503.753 10079.243)" fill="#263238"/>
    <path id="Trazado_798070" data-name="Trazado 798070" d="M282.677,166.106s6.385,22.379,5.931,39.616-1.34,44.638-6.2,74.7-7.034,42.135-7.034,42.135l-18.2-.772a356.589,356.589,0,0,1-.134-35.931c.994-16.931,2.546-22.24,1.709-40.946s-2.937-30.01-5.409-35.772a38.923,38.923,0,0,1-7.164-21.516,55.331,55.331,0,0,1,4.639-21.934Z" transform="translate(505.028 10079.313)" fill="#263238"/>
    <path id="Trazado_798071" data-name="Trazado 798071" d="M247.295,173.368a3.989,3.989,0,0,0-.325.577,11.458,11.458,0,0,0-.733,1.755,23.6,23.6,0,0,0-.934,6.911,45.824,45.824,0,0,0,1.16,10.283,32.834,32.834,0,0,0,1.87,5.838,40.923,40.923,0,0,0,3.265,5.7,33.712,33.712,0,0,1,4.432,11.7,81.992,81.992,0,0,1,1.41,10.207c.233,2.929.348,5.307.439,6.95q.069,1.188.11,1.891a3.982,3.982,0,0,0,.065.659,4.169,4.169,0,0,0,.017-.662q-.012-.7-.034-1.894c-.043-1.645-.113-4.026-.311-6.964a78.1,78.1,0,0,0-1.33-10.263,49.714,49.714,0,0,0-1.585-5.914,28.978,28.978,0,0,0-1.227-3.01,30.841,30.841,0,0,0-1.641-2.914,41.39,41.39,0,0,1-3.246-5.649,32.881,32.881,0,0,1-1.869-5.76,46.9,46.9,0,0,1-1.238-10.2,24.655,24.655,0,0,1,.8-6.865,13.837,13.837,0,0,1,.655-1.765,4.064,4.064,0,0,0,.251-.613" transform="translate(504.922 10080.251)" fill="#455a64"/>
    <path id="Trazado_798072" data-name="Trazado 798072" d="M275.932,295.726a1.111,1.111,0,0,1,.035-.294c.042-.223.093-.5.158-.846.159-.738.331-1.841.586-3.254.471-2.834,1.115-6.942,1.848-12.028,1.439-10.173,3.326-24.248,4.868-39.847.748-7.8,1.355-15.248,1.418-22.036.1-6.787-.112-12.9-.414-18.028s-.669-9.269-.955-12.126c-.144-1.393-.257-2.493-.339-3.291-.035-.348-.062-.629-.085-.857a.148.148,0,1,1,.059-.008c.038.226.085.5.143.849.117.748.273,1.855.449,3.282.356,2.853.79,6.993,1.14,12.125s.608,11.256.541,18.061c-.034,6.808-.626,14.276-1.376,22.085-1.544,15.616-3.495,29.688-5.041,39.853-.785,5.08-1.492,9.181-2.033,12.006-.289,1.409-.5,2.507-.695,3.239-.088.339-.158.614-.214.835a1.129,1.129,0,0,1-.093.279" transform="translate(508.658 10081.404)" fill="#455a64"/>
    <path id="Trazado_798073" data-name="Trazado 798073" d="M258.168,125.294s1.284-13.123,10.528-13.384c11.641-.33,14.067,16.852,17.323,11.832,0,0,.123-14.175-2.1-12.889,0,0,1.958-2,2.234-7.111s-3.41-28.921-5.746-34.28S273,57.817,264.052,57.731s-15.5,6.376-17.007,9.532-5.761,19.41-6.028,20.449c-.167.648-.977,5.44-1.56,8.94a62.106,62.106,0,0,0-.763,6.908c-.16,2.991-.452,7.152-.872,8.1-3.808,8.616-2.813,7.249,1.854,15.432,2.071,2.835,11.655,18.571,18.492-1.8" transform="translate(503.725 10066.146)" fill="#59bee2"/>
    <path id="Trazado_798074" data-name="Trazado 798074" d="M268.261,100.865a24.517,24.517,0,0,1-12.867-3.591s3.378,6.72,13.035,5.929Z" transform="translate(506.153 10070.969)" fill="#6f4439"/>
    <path id="Trazado_798075" data-name="Trazado 798075" d="M265.725,90.387c0-.084-.01-.169-.015-.254,0-.011.007-.021.007-.031Z" transform="translate(507.411 10070.094)" fill="#6f4439"/>
    <path id="Trazado_798076" data-name="Trazado 798076" d="M251.832,84.412c.007-.718-.8-2.419-1.511-2.538-1.889-.318-5.3-.2-5.39,4.6-.119,6.57,6.5,5.334,6.518,5.145.011-.147.361-4.731.384-7.21" transform="translate(504.877 10069.078)" fill="#ae7461"/>
    <path id="Trazado_798077" data-name="Trazado 798077" d="M249.305,88.869c-.028-.021-.116.077-.311.163a1.144,1.144,0,0,1-.856,0,2.831,2.831,0,0,1-1.264-2.564,3.793,3.793,0,0,1,.35-1.634,1.321,1.321,0,0,1,.877-.863.583.583,0,0,1,.67.325c.084.185.04.316.075.328.018.017.142-.107.094-.379a.726.726,0,0,0-.251-.416.864.864,0,0,0-.629-.18,1.613,1.613,0,0,0-1.214,1,3.882,3.882,0,0,0-.43,1.824,2.971,2.971,0,0,0,1.618,2.868,1.23,1.23,0,0,0,1.05-.155c.206-.158.243-.305.221-.318" transform="translate(505.058 10069.307)" fill="#6f4439"/>
    <path id="Trazado_798078" data-name="Trazado 798078" d="M250.727,67.3l11.947-5.36,1.165,1.027c7.147-.284,13.523,4.85,14.255,13.727.528,6.414.968,12.935.154,17.719-1.634,9.568-8.963,10.749-9.041,10.761.029.021.452.762.375,4.134l-19.1-1.922s-.273-10.465-.361-13.146L247.654,70.7a3.39,3.39,0,0,1,3.073-3.4" transform="translate(505.209 10066.659)" fill="#ae7461"/>
    <path id="Trazado_798079" data-name="Trazado 798079" d="M262.1,81.2a1.236,1.236,0,0,1-1.206,1.233,1.182,1.182,0,0,1-1.261-1.129,1.236,1.236,0,0,1,1.2-1.234A1.183,1.183,0,0,1,262.1,81.2" transform="translate(506.67 10068.871)" fill="#263238"/>
    <path id="Trazado_798080" data-name="Trazado 798080" d="M273.245,81.677a1.235,1.235,0,0,1-1.206,1.233,1.182,1.182,0,0,1-1.261-1.129,1.237,1.237,0,0,1,1.2-1.234,1.183,1.183,0,0,1,1.262,1.13" transform="translate(508.029 10068.929)" fill="#263238"/>
    <path id="Trazado_798081" data-name="Trazado 798081" d="M274.271,77.544c-.155.159-1.084-.544-2.413-.557-1.328-.03-2.312.643-2.455.478-.071-.073.09-.362.517-.666a3.4,3.4,0,0,1,1.968-.582,3.261,3.261,0,0,1,1.919.644c.405.319.541.611.465.683" transform="translate(507.859 10068.4)" fill="#263238"/>
    <path id="Trazado_798082" data-name="Trazado 798082" d="M262.266,78.159c-.171.142-1.023-.653-2.345-.8-1.317-.167-2.365.4-2.49.223-.063-.08.125-.351.583-.61a3.4,3.4,0,0,1,2.016-.377,3.268,3.268,0,0,1,1.843.838c.369.358.475.664.392.727" transform="translate(506.4 10068.443)" fill="#263238"/>
    <path id="Trazado_798083" data-name="Trazado 798083" d="M266.258,87.643a8.833,8.833,0,0,1,2.164-.365c.34-.031.662-.1.723-.326a1.723,1.723,0,0,0-.215-1.009q-.464-1.239-.975-2.6a44.528,44.528,0,0,1-2.178-6.79,44.277,44.277,0,0,1,2.72,6.6q.488,1.368.932,2.613a1.968,1.968,0,0,1,.16,1.335.851.851,0,0,1-.564.489,2.239,2.239,0,0,1-.578.074,8.593,8.593,0,0,1-2.189-.022" transform="translate(507.418 10068.441)" fill="#263238"/>
    <path id="Trazado_798084" data-name="Trazado 798084" d="M261.93,89.538a2.483,2.483,0,0,1,1.3-1.849,2.036,2.036,0,0,1,2.242.666,3.452,3.452,0,0,1,.706,2.088,1.172,1.172,0,0,1-.586.867,3.277,3.277,0,0,1-1.015.5,4.612,4.612,0,0,1-1.3-.045,1.638,1.638,0,0,1-1.106-.533,2,2,0,0,1-.247-1.7" transform="translate(506.941 10069.785)" fill="#6f4439"/>
    <path id="Trazado_798085" data-name="Trazado 798085" d="M262.73,87.218c.217-.01.2,1.433,1.426,2.473s2.762.9,2.771,1.1c.019.091-.346.276-1,.286a3.6,3.6,0,0,1-2.315-.836,3.135,3.135,0,0,1-1.1-2.072c-.048-.6.117-.96.215-.95" transform="translate(507.021 10069.742)" fill="#263238"/>
    <path id="Trazado_798086" data-name="Trazado 798086" d="M263.356,73.473c-.172.344-1.471.024-3.043.034-1.572-.021-2.874.289-3.043-.056-.074-.165.182-.478.727-.767a5.285,5.285,0,0,1,4.637.017c.543.294.8.609.721.773" transform="translate(506.381 10067.905)" fill="#263238"/>
    <path id="Trazado_798087" data-name="Trazado 798087" d="M273.866,72.476c-.237.3-1.15-.025-2.252-.053-1.1-.065-2.036.18-2.247-.138-.093-.155.057-.456.469-.737a3.263,3.263,0,0,1,3.625.154c.386.315.51.628.405.774" transform="translate(507.854 10067.772)" fill="#263238"/>
    <path id="Trazado_798088" data-name="Trazado 798088" d="M275.709,70.77s-3.146-4.027-7.557-3.842-13.049,5.1-13.049,5.1,2.614-9.354,9.492-9.139,9.444,3.718,11.113,7.884" transform="translate(506.117 10066.773)" fill="#e0e0e0"/>
    <path id="Trazado_798089" data-name="Trazado 798089" d="M277.819,99.773s-5.173,6.336-11.1,5.374-8.067-3.636-10.491-8.344c-4.064-7.891-.462-18.817-.462-18.817s2.888-10.175,3.723-11.165,3.544-4.716,9.84-3.286-2.887-4.875-7.847-2.355-12.783,3.763-14.709,8.289-6.616,21.516-4.432,27.388-1.619,11.184,9.955,13.5,19,1.189,23.121-2.438a7.585,7.585,0,0,0,2.407-8.146" transform="translate(504.491 10066.493)" fill="#59bee2"/>
    <path id="Trazado_798090" data-name="Trazado 798090" d="M281.092,108.43a2.06,2.06,0,0,1-.554.1c-.365.053-.905.112-1.6.166a38.67,38.67,0,0,1-5.934.016,27.248,27.248,0,0,1-8.585-1.988,20.945,20.945,0,0,1-4.526-2.633,25.987,25.987,0,0,1-4.029-3.91,53.626,53.626,0,0,1-5.883-9.042,42.77,42.77,0,0,1-3.383-8.131,26.683,26.683,0,0,1-1.058-5.842,14.947,14.947,0,0,1-.029-1.615,2.059,2.059,0,0,1,.045-.562c.062,0,.051.774.211,2.156a30.021,30.021,0,0,0,1.226,5.743,44.894,44.894,0,0,0,3.464,8,55.463,55.463,0,0,0,5.854,8.92,22.379,22.379,0,0,0,8.321,6.426,27.839,27.839,0,0,0,8.408,2.071,46.485,46.485,0,0,0,5.886.167,20.455,20.455,0,0,1,2.17-.043" transform="translate(504.945 10068.251)" fill="#263238"/>
    <path id="Trazado_798091" data-name="Trazado 798091" d="M242.282,122.2a9.665,9.665,0,0,1-1.3-2.319,37.5,37.5,0,0,1-3.265-12.349,9.68,9.68,0,0,1-.021-2.656c.183-.015.406,4.03,1.69,8.821,1.251,4.8,3.057,8.424,2.892,8.5" transform="translate(503.986 10071.896)" fill="#263238"/>
    <path id="Trazado_798092" data-name="Trazado 798092" d="M279.414,80.373a4.625,4.625,0,0,1,.109,1.183c.029.762.041,1.865,0,3.229a47.606,47.606,0,0,1-1.46,10.56,24.028,24.028,0,0,1-4.527,9.643,10.6,10.6,0,0,1-2.457,2.137,3.533,3.533,0,0,1-1.07.522,16.782,16.782,0,0,0,3.21-2.923A25.626,25.626,0,0,0,277.5,95.2a56.265,56.265,0,0,0,1.612-10.434c.181-2.707.211-4.391.3-4.391" transform="translate(507.936 10068.907)" fill="#263238"/>
    <path id="Trazado_798110" data-name="Trazado 798110" d="M0,0H105.842V103.285H0Z" transform="translate(725.642 10422.05)" fill="#77c8e5"/>
    <g id="Grupo_1064745" data-name="Grupo 1064745" transform="translate(475 10059.104)">
      <path id="Trazado_798093" data-name="Trazado 798093" d="M380.432,323.487H317.727V426.772H423.569V323.487Z" transform="translate(38.756 39.459)" fill="#c2ffc7"/>
      <g id="Grupo_1065490" data-name="Grupo 1065490">
        <path id="Trazado_798095" data-name="Trazado 798095" d="M321.844,364.685h-7.413v19.568h7.413a16,16,0,1,0,0-19.568" transform="translate(38.354 43.726)" fill="#77c8e5"/>
        <g id="Grupo_1064746" data-name="Grupo 1064746">
          <path id="Trazado_798094" data-name="Trazado 798094" d="M231.484,364.685h-7.413v19.568h7.413a16,16,0,1,0,0-19.568" transform="translate(27.332 43.727)" fill="#1969d5"/>
          <path id="Trazado_798096" data-name="Trazado 798096" d="M132.258,384.253h7.413V364.685h-7.413a16,16,0,1,0,0,19.568" transform="translate(12.639 43.727)" fill="#1969d5"/>
          <path id="Trazado_798097" data-name="Trazado 798097" d="M196.064,323.487V330.9a16,16,0,1,1-19.57,0v-7.413H133.359V426.772H239.2V323.487Z" transform="translate(16.267 39.459)" fill="#1969d5"/>
        </g>
        <g id="Grupo_1064743" data-name="Grupo 1064743">
          <path id="Trazado_798098" data-name="Trazado 798098" d="M357.194,137.889V145.3h19.568v-7.413a16,16,0,1,0-19.568,0" transform="translate(42.812 13.326)" fill="#74c67b"/>
          <path id="Trazado_798099" data-name="Trazado 798099" d="M413.636,171.27h-7.413v19.568h7.413a16,16,0,1,0,0-19.568" transform="translate(49.551 20.133)" fill="#74c67b"/>
          <path id="Trazado_798100" data-name="Trazado 798100" d="M318.071,139.113v35.322h6.286a15.536,15.536,0,0,1,12.39-6.217,16,16,0,0,1,0,32A15.535,15.535,0,0,1,324.357,194h-6.286V242.4H421.813V139.113Z" transform="translate(38.798 16.969)" fill="#74c67b"/>
        </g>
        <path id="Trazado_798101" data-name="Trazado 798101" d="M473.24,323.487H410.534V426.772H516.376V323.487Z" transform="translate(50.077 39.459)" fill="#59bee2"/>
        <path id="Trazado_798102" data-name="Trazado 798102" d="M414.652,364.685h-7.413v19.568h7.413a16,16,0,1,0,0-19.568" transform="translate(49.675 43.726)" fill="#c2ffc7"/>
        <path id="Trazado_798103" data-name="Trazado 798103" d="M376.762,328.64v-7.413H357.194v7.413a16,16,0,1,0,19.568,0" transform="translate(42.812 39.183)" fill="#59bee2"/>
        <path id="Trazado_798104" data-name="Trazado 798104" d="M317.914,294.817h7.413V275.25h-7.413a16,16,0,1,0,0,19.567" transform="translate(35.286 32.817)" fill="#59bee2"/>
        <path id="Trazado_798105" data-name="Trazado 798105" d="M403.137,273.619a15.537,15.537,0,0,1,12.39,6.216h6.285V231.44H318.071V334.725H421.813V299.4h-6.285a15.537,15.537,0,0,1-12.39,6.216,16,16,0,0,1,0-32" transform="translate(38.798 28.231)" fill="#59bee2"/>
        <g id="Grupo_1064744" data-name="Grupo 1064744">
          <path id="Trazado_798106" data-name="Trazado 798106" d="M469.214,328.676v-7.413H449.646v7.413a16,16,0,1,0,19.568,0" transform="translate(54.089 39.188)" fill="#74c67b"/>
          <path id="Trazado_798107" data-name="Trazado 798107" d="M408.113,294.853h7.412V275.285h-7.412a16,16,0,1,0,0,19.568" transform="translate(46.287 32.821)" fill="#74c67b"/>
          <path id="Trazado_798108" data-name="Trazado 798108" d="M509.952,299.439a16,16,0,1,1,0-19.568h6.413V231.476H473.228v7.413a16,16,0,1,1-19.568,0v-7.413H410.523V334.761H516.365V299.439Z" transform="translate(50.075 28.235)" fill="#74c67b"/>
        </g>
        <path id="Trazado_798109" data-name="Trazado 798109" d="M357.194,227.947v7.414h19.568v-7.414a16,16,0,1,0-19.568,0" transform="translate(42.812 24.311)" fill="#59bee2"/>
      </g>
    </g>
  </g>
</svg>
