<svg xmlns="http://www.w3.org/2000/svg" xmlns:xlink="http://www.w3.org/1999/xlink" width="261.865" height="254.504" viewBox="0 0 261.865 254.504">
  <defs>
    <clipPath id="clip-path">
      <rect id="Rectángulo_373889" data-name="Rectángulo 373889" width="261.865" height="254.504" fill="none"/>
    </clipPath>
    <clipPath id="clip-path-5">
      <rect id="Rectángulo_373882" data-name="Rectángulo 373882" width="46.716" height="27.983" fill="none"/>
    </clipPath>
    <clipPath id="clip-path-6">
      <rect id="Rectángulo_373883" data-name="Rectángulo 373883" width="14.171" height="52.973" fill="none"/>
    </clipPath>
    <clipPath id="clip-path-7">
      <rect id="Rectángulo_373884" data-name="Rectángulo 373884" width="28.433" height="59.545" fill="none"/>
    </clipPath>
    <clipPath id="clip-path-8">
      <rect id="Rectángulo_373885" data-name="Rectángulo 373885" width="28.137" height="2.562" fill="none"/>
    </clipPath>
    <clipPath id="clip-path-9">
      <rect id="Rectángulo_373886" data-name="Rectángulo 373886" width="57.48" height="57.48" fill="none"/>
    </clipPath>
  </defs>
  <g id="Grupo_1064905" data-name="Grupo 1064905" clip-path="url(#clip-path)">
    <g id="Grupo_1064883" data-name="Grupo 1064883">
      <g id="Grupo_1064882" data-name="Grupo 1064882" clip-path="url(#clip-path)">
        <path id="Trazado_798734" data-name="Trazado 798734" d="M24.676,214.16a12.4,12.4,0,0,0-3.026-1.315l-.624-3-5.062-.089-.728,2.972a12.367,12.367,0,0,0-3.071,1.208l-2.558-1.677-3.642,3.516,1.585,2.615a12.391,12.391,0,0,0-1.315,3.027l-3,.623-.089,5.062,2.972.728a12.409,12.409,0,0,0,1.208,3.071l-1.676,2.558,3.516,3.642,2.615-1.585a12.4,12.4,0,0,0,3.027,1.315l.624,3,5.061.089.729-2.972A12.411,12.411,0,0,0,24.3,235.74l2.558,1.677L30.5,233.9l-1.586-2.615a12.369,12.369,0,0,0,1.315-3.027l3-.623.089-5.061-2.972-.729a12.436,12.436,0,0,0-1.208-3.071l1.677-2.558-3.516-3.642Zm-2.7,6.743a5.43,5.43,0,1,1-7.679-.135,5.43,5.43,0,0,1,7.679.135" transform="translate(226.559 -76.91)" fill="#f5f5f5"/>
        <path id="Trazado_798735" data-name="Trazado 798735" d="M27.974,226.336a4.1,4.1,0,0,0-1.011-.887,5.408,5.408,0,0,0-3.543-.838,5.467,5.467,0,0,0-2.408.856,5.557,5.557,0,0,0-1.948,2.194,5.566,5.566,0,0,0-.524,3.2,5.54,5.54,0,0,0,4.584,4.749,5.565,5.565,0,0,0,3.213-.412,5.561,5.561,0,0,0,2.261-1.869,5.478,5.478,0,0,0,.94-2.377,5.4,5.4,0,0,0-.713-3.57,4.1,4.1,0,0,0-.851-1.042c-.029.025.328.357.746,1.1a5.415,5.415,0,0,1,.6,3.476,5.307,5.307,0,0,1-3.1,4.017,5.292,5.292,0,0,1-3.044.373,5.263,5.263,0,0,1-4.333-4.488,5.306,5.306,0,0,1,.48-3.029,5.306,5.306,0,0,1,4.123-2.957,5.418,5.418,0,0,1,3.454.722c.73.445,1.049.813,1.075.785" transform="translate(220.563 -82.343)" fill="#f5f5f5"/>
        <path id="Trazado_798736" data-name="Trazado 798736" d="M24.65,214.106a1.125,1.125,0,0,0,.168-.089l.5-.289,1.972-1.164-.061-.008,3.495,3.662-.01-.1-1.687,2.552-.03.046.027.049a12.394,12.394,0,0,1,1.189,3.051l.015.06.06.015,2.97.737-.084-.11c-.032,1.594-.065,3.285-.1,5.061l.1-.118-3,.617-.077.016-.022.075a12.337,12.337,0,0,1-1.306,2.993l-.042.069.042.07,1.581,2.617.022-.172-3.646,3.512.181-.017-2.557-1.68-.075-.049-.079.044a12.333,12.333,0,0,1-3.034,1.191l-.089.022-.022.089c-.229.931-.479,1.946-.731,2.972l.151-.117-5.061-.091.148.124c-.2-.946-.409-1.967-.623-3l-.019-.092-.091-.025a12.306,12.306,0,0,1-2.986-1.3h0l-.082-.048-.08.048-2.615,1.586.193.025L5.739,233.3l.018.192,1.676-2.559.051-.077-.045-.08a12.249,12.249,0,0,1-1.2-3.032l-.022-.089-.089-.022-2.972-.726.113.146q.043-2.592.084-5.061l-.114.137,2.994-.627.083-.018.023-.081a12.318,12.318,0,0,1,1.3-3l.042-.07-.042-.07-1.59-2.613-.021.16,3.635-3.523-.148.014,2.563,1.67.057.037.058-.033a12.355,12.355,0,0,1,3.041-1.207l.061-.015.014-.06c.262-1.081.5-2.055.719-2.974l-.091.07,5.062.066-.067-.055c.257,1.194.467,2.175.642,2.991l.007.03.029.008a12.832,12.832,0,0,1,2.315.89l.544.284a1.208,1.208,0,0,0,.182.092,1.563,1.563,0,0,0-.168-.115c-.116-.072-.291-.178-.534-.308a11.975,11.975,0,0,0-2.31-.941l.035.038-.6-3-.011-.054H21l-5.061-.111-.073,0-.018.072c-.229.918-.47,1.891-.738,2.969l.075-.075a12.491,12.491,0,0,0-3.1,1.21l.115,0-2.554-1.683-.079-.052-.069.066-3.649,3.509-.074.072.054.089,1.581,2.618v-.139a12.521,12.521,0,0,0-1.334,3.059l.105-.1-3,.62-.112.023,0,.115q-.046,2.468-.094,5.061l0,.118.115.028,2.971.731-.11-.11a12.567,12.567,0,0,0,1.221,3.109l.006-.158L5.5,233.326l-.067.1.085.089,3.516,3.643.086.089.106-.065L11.84,235.6h-.158a12.572,12.572,0,0,0,3.062,1.33l-.11-.118.624,3,.025.122.124,0,5.062.087.122,0,.029-.118.726-2.972-.11.11a12.6,12.6,0,0,0,3.107-1.225l-.153-.006,2.56,1.675.1.063.083-.08,3.638-3.521.08-.077-.058-.094L29,231.162v.139a12.535,12.535,0,0,0,1.324-3.061l-.1.091,2.994-.63.1-.02v-.1c.027-1.776.053-3.468.077-5.062v-.089l-.086-.021-2.974-.72.075.075a12.5,12.5,0,0,0-1.227-3.091l0,.094,1.666-2.565.034-.053-.044-.045L27.3,212.485l-.028-.029-.034.021-1.927,1.2-.5.315a1.428,1.428,0,0,0-.168.115" transform="translate(226.584 -76.855)" fill="#f5f5f5"/>
        <path id="Trazado_798737" data-name="Trazado 798737" d="M352.65,137.9a8.485,8.485,0,0,0-2.067-.9l-.426-2.045L346.7,134.9l-.5,2.029a8.444,8.444,0,0,0-2.1.825l-1.747-1.144-2.487,2.4,1.082,1.785a8.489,8.489,0,0,0-.9,2.067l-2.045.426-.061,3.456,2.029.5a8.476,8.476,0,0,0,.825,2.1l-1.145,1.746,2.4,2.487,1.785-1.082a8.465,8.465,0,0,0,2.067.9l.426,2.045,3.456.061.5-2.029a8.488,8.488,0,0,0,2.1-.825l1.746,1.144,2.487-2.4-1.082-1.785a8.462,8.462,0,0,0,.9-2.067l2.045-.426.061-3.456-2.029-.5a8.472,8.472,0,0,0-.825-2.1l1.144-1.746-2.4-2.487Zm-1.842,4.6a3.708,3.708,0,1,1-5.243-.092,3.707,3.707,0,0,1,5.243.092" transform="translate(-310.72 -49.461)" fill="#f5f5f5"/>
        <path id="Trazado_798738" data-name="Trazado 798738" d="M354.9,146.217a2.811,2.811,0,0,0-.69-.606,3.692,3.692,0,0,0-2.419-.572,3.737,3.737,0,0,0-1.644.585,3.788,3.788,0,0,0-1.329,1.5,3.791,3.791,0,0,0-.358,2.182,3.783,3.783,0,0,0,3.129,3.242,3.794,3.794,0,0,0,2.194-.281,3.8,3.8,0,0,0,1.543-1.276,3.734,3.734,0,0,0,.642-1.623,3.69,3.69,0,0,0-.486-2.437,2.794,2.794,0,0,0-.581-.711c-.02.017.224.243.509.752a3.7,3.7,0,0,1,.41,2.373,3.623,3.623,0,0,1-2.117,2.743,3.624,3.624,0,0,1-2.079.255,3.593,3.593,0,0,1-2.958-3.065,3.629,3.629,0,0,1,.328-2.068,3.622,3.622,0,0,1,2.815-2.019,3.7,3.7,0,0,1,2.358.493c.5.3.716.555.734.536" transform="translate(-314.814 -53.171)" fill="#f5f5f5"/>
        <path id="Trazado_798739" data-name="Trazado 798739" d="M352.63,137.866a.732.732,0,0,0,.115-.061l.343-.2,1.345-.8-.042-.005,2.386,2.5-.006-.067-1.152,1.742-.021.032.018.033a8.474,8.474,0,0,1,.812,2.083l.01.041.041.01,2.028.5-.058-.075c-.022,1.088-.044,2.243-.068,3.456l.066-.08-2.046.422-.052.011-.015.051a8.422,8.422,0,0,1-.892,2.043l-.029.047.029.048,1.08,1.787.015-.117-2.49,2.4.123-.012-1.746-1.146-.051-.034-.054.03a8.39,8.39,0,0,1-2.072.813l-.06.015-.015.06c-.156.636-.327,1.329-.5,2.029l.1-.08-3.456-.062.1.084c-.134-.646-.279-1.343-.425-2.045l-.013-.063-.061-.018a8.383,8.383,0,0,1-2.039-.885h0l-.056-.033-.054.033-1.785,1.083.131.017-2.4-2.486.012.13,1.144-1.747.035-.053-.03-.055a8.351,8.351,0,0,1-.816-2.07l-.015-.061-.06-.015-2.029-.5.077.1q.029-1.769.057-3.456l-.078.094,2.044-.428.057-.012.015-.056a8.388,8.388,0,0,1,.885-2.045l.029-.048-.029-.048-1.086-1.784-.015.109,2.481-2.405-.1.01,1.749,1.141.039.025.041-.023a8.445,8.445,0,0,1,2.076-.824l.041-.01.009-.041c.179-.738.339-1.4.491-2.03l-.062.047,3.456.046-.046-.038c.175.816.319,1.485.438,2.043l0,.02.02.006a8.73,8.73,0,0,1,1.58.608l.372.194a.843.843,0,0,0,.124.063,1.094,1.094,0,0,0-.115-.079c-.079-.048-.2-.122-.364-.21a8.21,8.21,0,0,0-1.578-.643l.024.026c-.113-.559-.248-1.23-.412-2.048l-.008-.037h-.039l-3.455-.075h-.05l-.013.049c-.156.627-.32,1.291-.5,2.027l.051-.051a8.557,8.557,0,0,0-2.117.827l.079,0-1.744-1.149-.054-.035-.047.045-2.492,2.4-.051.049.037.06,1.079,1.787v-.1a8.6,8.6,0,0,0-.911,2.088l.072-.067-2.046.423-.077.016v.079q-.031,1.685-.064,3.456l0,.08.079.02,2.029.5-.075-.075a8.54,8.54,0,0,0,.833,2.122l0-.108-1.146,1.746-.046.07.058.061,2.4,2.487.059.061.072-.044,1.786-1.082h-.108a8.61,8.61,0,0,0,2.091.908l-.075-.08c.146.7.291,1.4.426,2.045l.017.082.084,0,3.456.059h.084l.02-.08.5-2.029-.075.075a8.589,8.589,0,0,0,2.121-.836l-.1,0,1.747,1.143.066.043.056-.055,2.483-2.4.055-.053-.039-.065-1.086-1.784v.094a8.564,8.564,0,0,0,.9-2.09l-.066.062,2.044-.429.065-.014v-.066c.018-1.213.036-2.367.053-3.456v-.06l-.059-.015-2.03-.491.051.051a8.57,8.57,0,0,0-.839-2.11l0,.065,1.138-1.751.023-.036-.03-.03-2.415-2.473-.019-.02-.023.015-1.315.818-.338.215a1.028,1.028,0,0,0-.115.079" transform="translate(-310.701 -49.424)" fill="#f5f5f5"/>
        <path id="Trazado_798740" data-name="Trazado 798740" d="M333.93,54.505a19.952,19.952,0,0,0-4.862-2.113l-1-4.812-8.131-.143-1.17,4.774a19.926,19.926,0,0,0-4.934,1.941l-4.109-2.694-5.851,5.649,2.547,4.2a19.926,19.926,0,0,0-2.113,4.863l-4.812,1-.142,8.131,4.773,1.17a19.923,19.923,0,0,0,1.941,4.933l-2.694,4.11,5.648,5.851,4.2-2.548a19.929,19.929,0,0,0,4.863,2.113l1,4.813,8.131.143,1.17-4.774a19.921,19.921,0,0,0,4.933-1.941l4.109,2.694,5.851-5.649-2.547-4.2a19.921,19.921,0,0,0,2.113-4.863l4.812-1,.142-8.131-4.774-1.171a19.978,19.978,0,0,0-1.941-4.933l2.693-4.109-5.648-5.851ZM329.6,65.337a8.724,8.724,0,1,1-12.335-.217,8.724,8.724,0,0,1,12.335.217" transform="translate(-275.528 -17.393)" fill="#ebebeb"/>
        <path id="Trazado_798741" data-name="Trazado 798741" d="M339.228,74.066A6.593,6.593,0,0,0,337.6,72.64a8.681,8.681,0,0,0-5.691-1.345,8.8,8.8,0,0,0-3.868,1.374,8.937,8.937,0,0,0-3.129,3.525,8.957,8.957,0,0,0-.842,5.135,8.9,8.9,0,0,0,7.364,7.628,8.946,8.946,0,0,0,5.162-.661,8.937,8.937,0,0,0,3.633-3,8.8,8.8,0,0,0,1.509-3.818,8.682,8.682,0,0,0-1.145-5.735,6.587,6.587,0,0,0-1.367-1.673c-.047.04.527.573,1.2,1.77a8.7,8.7,0,0,1,.964,5.584,8.522,8.522,0,0,1-4.98,6.453,8.517,8.517,0,0,1-4.891.6,8.453,8.453,0,0,1-6.96-7.211,8.532,8.532,0,0,1,.771-4.866,8.524,8.524,0,0,1,6.624-4.75,8.7,8.7,0,0,1,5.547,1.16c1.174.714,1.686,1.307,1.727,1.26" transform="translate(-285.161 -26.122)" fill="#ebebeb"/>
        <path id="Trazado_798742" data-name="Trazado 798742" d="M333.887,54.418a1.874,1.874,0,0,0,.271-.143l.806-.466,3.167-1.87-.1-.013,5.614,5.883-.015-.157-2.71,4.1-.049.073.043.079a19.9,19.9,0,0,1,1.91,4.9l.023.1.1.024,4.771,1.184-.136-.176c-.051,2.56-.105,5.277-.162,8.13l.156-.189-4.814.992-.122.025-.034.121a19.811,19.811,0,0,1-2.1,4.807l-.068.111.068.112,2.541,4.2.035-.276-5.857,5.642.289-.027-4.107-2.7-.121-.079-.125.07a19.806,19.806,0,0,1-4.875,1.914l-.143.034-.035.143c-.367,1.5-.769,3.126-1.174,4.773l.243-.186-8.131-.146.239.2c-.316-1.52-.657-3.16-1-4.812l-.03-.148-.146-.041a19.745,19.745,0,0,1-4.8-2.084l0,0-.131-.077-.128.077-4.2,2.548.309.04-5.65-5.849.029.307,2.692-4.11.081-.125-.072-.129a19.7,19.7,0,0,1-1.92-4.872l-.035-.142-.142-.035-4.775-1.167.182.236q.068-4.163.134-8.131l-.183.221,4.811-1.007.133-.028.037-.13a19.76,19.76,0,0,1,2.082-4.812l.068-.113-.068-.111-2.554-4.2-.033.257,5.838-5.66-.238.023,4.115,2.683.092.06.094-.053a19.841,19.841,0,0,1,4.886-1.939l.1-.024.023-.1c.42-1.736.8-3.3,1.155-4.777l-.146.113,8.131.106-.108-.089,1.032,4.806.011.048.046.013a20.647,20.647,0,0,1,3.718,1.43l.874.457a1.989,1.989,0,0,0,.292.148,2.61,2.61,0,0,0-.271-.184c-.186-.115-.467-.286-.857-.494a19.274,19.274,0,0,0-3.712-1.512l.056.061-.97-4.819-.018-.087-.09,0L319.9,47.2l-.118,0-.029.115-1.186,4.769.12-.12a20.085,20.085,0,0,0-4.981,1.944l.186.006-4.1-2.7-.127-.084-.11.106-5.862,5.637-.119.115.086.143,2.54,4.2v-.224a20.159,20.159,0,0,0-2.143,4.913l.17-.158-4.813,1-.18.037,0,.184q-.073,3.965-.151,8.13l0,.19.185.046,4.774,1.174-.177-.177a20.158,20.158,0,0,0,1.961,4.995l.01-.254-2.7,4.109-.108.165.137.143,5.646,5.852.139.143.17-.1,4.2-2.547h-.259l.005,0a20.19,20.19,0,0,0,4.919,2.136L317.8,90.9c.344,1.652.686,3.293,1,4.812l.041.194.2,0,8.131.139.2,0,.047-.19c.4-1.648.8-3.279,1.167-4.775l-.177.177a20.24,20.24,0,0,0,4.991-1.968l-.246-.009,4.112,2.689.156.1.134-.13,5.843-5.655.129-.124-.092-.152-2.554-4.2v.224A20.2,20.2,0,0,0,343,77.124l-.156.146,4.81-1.011.154-.032,0-.157c.044-2.853.085-5.57.124-8.131l0-.143-.138-.034L343.024,66.6l.12.12a20.112,20.112,0,0,0-1.972-4.965l-.006.152,2.677-4.12.055-.086-.07-.072-5.682-5.817-.046-.047-.053.034-3.1,1.926-.8.505a2.425,2.425,0,0,0-.27.184" transform="translate(-275.486 -17.306)" fill="#ebebeb"/>
        <path id="Trazado_798743" data-name="Trazado 798743" d="M29.795,176.23l-.7,1.165a7.979,7.979,0,0,1-3.3,3.04l-1.219.6,1.165.7a7.979,7.979,0,0,1,3.04,3.3l.6,1.219.7-1.165a7.982,7.982,0,0,1,3.3-3.04l1.219-.6-1.165-.7a7.982,7.982,0,0,1-3.04-3.3Z" transform="translate(211.699 -64.616)" fill="#e0e0e0"/>
        <path id="Trazado_798744" data-name="Trazado 798744" d="M284.208,28.446l-.35.583a3.985,3.985,0,0,1-1.651,1.52l-.609.3.583.351a3.988,3.988,0,0,1,1.52,1.65l.3.61.35-.583A3.99,3.99,0,0,1,286,31.359l.609-.3-.583-.351a3.99,3.99,0,0,1-1.52-1.651Z" transform="translate(-203.096 -10.43)" fill="#e0e0e0"/>
        <path id="Trazado_798745" data-name="Trazado 798745" d="M265.264,0l-1.079,1.794A12.285,12.285,0,0,1,259.1,6.472l-1.876.927,1.793,1.079a12.278,12.278,0,0,1,4.678,5.08l.928,1.876,1.079-1.793a12.274,12.274,0,0,1,5.08-4.678l1.876-.928-1.794-1.079a12.286,12.286,0,0,1-4.678-5.08Z" transform="translate(-173.712)" fill="#e0e0e0"/>
        <path id="Trazado_798746" data-name="Trazado 798746" d="M316.276,359.1l-.351.583a3.985,3.985,0,0,1-1.65,1.52l-.609.3.583.351a3.989,3.989,0,0,1,1.52,1.651l.3.61.35-.583a3.99,3.99,0,0,1,1.651-1.52l.609-.3-.583-.35a3.99,3.99,0,0,1-1.52-1.651Z" transform="translate(-255.473 -131.666)" fill="#e0e0e0"/>
        <path id="Trazado_798747" data-name="Trazado 798747" d="M371.539,196.683l-1.079,1.794a12.285,12.285,0,0,1-5.079,4.678l-1.876.927,1.793,1.079a12.278,12.278,0,0,1,4.678,5.08l.928,1.876,1.079-1.794a12.277,12.277,0,0,1,5.08-4.677l1.876-.928-1.794-1.079a12.286,12.286,0,0,1-4.678-5.08Z" transform="translate(-347.296 -72.115)" fill="#e0e0e0"/>
      </g>
    </g>
    <g id="Grupo_1064885" data-name="Grupo 1064885">
      <g id="Grupo_1064884" data-name="Grupo 1064884" clip-path="url(#clip-path)">
        <path id="Trazado_798748" data-name="Trazado 798748" d="M0,401.486c0,.091,54.853.165,122.5.165,67.672,0,122.513-.073,122.513-.165s-54.841-.165-122.513-.165c-67.648,0-122.5.073-122.5.165" transform="translate(16.851 -147.146)" fill="#263238"/>
      </g>
    </g>
    <g id="Grupo_1064902" data-name="Grupo 1064902">
      <g id="Grupo_1064901" data-name="Grupo 1064901" clip-path="url(#clip-path)">
        <path id="Trazado_798749" data-name="Trazado 798749" d="M23.409,185.895c5.972,2.373,9.722,6.242,13.625,11.348,7.066,9.247,48.282,54.522,48.414,55.488,5.283,17.06-19.256,32.715-34.919,19.954-8.1-6.6-33.136-40.35-33.136-40.35l1.2-48.352Z" transform="translate(164.67 -67.458)" fill="#e0e0e0"/>
        <path id="Trazado_798750" data-name="Trazado 798750" d="M329.088,181.3c4.873-4.177,20.236-6.7,20.236-6.7l2.483.767c-1.31,6.686-9.493,48.478-9.493,49.439,0,1.044-67.176,44.2-67.176,44.2l-7.667-30.066s56.744-53.47,61.617-57.646" transform="translate(-259.343 -64.018)" fill="#e0e0e0"/>
        <path id="Trazado_798751" data-name="Trazado 798751" d="M216.794,173.968l-27.062-7.181L180.957,155.5,140.2,156.785l-6.838,7.725-23.9,6.584,1.785,117.235-7.185,22.848H228.954l-9.973-32.125,4.736-55.18Z" transform="translate(-32.997 -57.016)" fill="#e0e0e0"/>
        <path id="Trazado_798752" data-name="Trazado 798752" d="M152.408,27.858c8.589-10.5,20.124-16.542,33.686-16.767,7.651-.127,10.818,1.464,16.328,2.95a24.154,24.154,0,0,1,13.77,9.109c3.9,5.542,7.184,11.747,7.923,18.486.758,6.922,1.517,13.891.995,20.835s-2.408,13.937-6.5,19.573l-17.668,3.07c-9.757.333-19.65.652-29.156-1.573S153.045,76.2,147.954,67.869c-7.073-11.574-4.136-29.513,4.454-40.011" transform="translate(-54.61 -4.064)" fill="#263238"/>
        <path id="Trazado_798753" data-name="Trazado 798753" d="M139.486,129.484c-.035.041.288.436,1.055.927a8.665,8.665,0,0,0,3.64,1.23A9.443,9.443,0,0,0,149.8,130.5a9.423,9.423,0,0,0,3.4-12.574,9.444,9.444,0,0,0-4.278-3.814,8.662,8.662,0,0,0-3.763-.772,2.7,2.7,0,0,0-1.378.269c-.013.21,2.058-.228,4.818,1.175a9.1,9.1,0,0,1,3.754,3.618,8.68,8.68,0,0,1-3.045,11.26,9.1,9.1,0,0,1-5.066,1.233c-3.091-.179-4.659-1.6-4.754-1.413" transform="translate(19.17 -41.555)" fill="#e0e0e0"/>
        <path id="Trazado_798754" data-name="Trazado 798754" d="M244.284,112.014a13.185,13.185,0,0,1,5.981-9.944c3.453-2.04,8.277-1.828,11.153.966l2.776,3.309a11.4,11.4,0,0,1,6.56,11.5,12.5,12.5,0,0,1-8.665,10.225,13.835,13.835,0,0,1-13.171-3.182,15.509,15.509,0,0,1-4.634-12.875" transform="translate(-163.611 -36.927)" fill="#263238"/>
        <path id="Trazado_798755" data-name="Trazado 798755" d="M260.614,126.475a5.979,5.979,0,0,1-.95-3.516c.148-2.261,1.79-5.225,4.043-7.942a23.888,23.888,0,0,1,7.08-5.676c2.07-1.112,3.493-1.517,3.449-1.663a9.634,9.634,0,0,0-3.718,1.112,21.286,21.286,0,0,0-7.471,5.667,20.9,20.9,0,0,0-2.857,4.344,9.54,9.54,0,0,0-1.139,4.139,4.988,4.988,0,0,0,.793,2.8c.4.573.738.771.771.733" transform="translate(-176.44 -39.474)" fill="#455a64"/>
        <path id="Trazado_798756" data-name="Trazado 798756" d="M258.72,132.735c.288-.018-.913-5.359.788-11.668,1.608-6.337,5.272-10.4,5.029-10.56a9.5,9.5,0,0,0-2.335,2.623,24.6,24.6,0,0,0-4.233,16.174,9.521,9.521,0,0,0,.751,3.431" transform="translate(-165.998 -40.517)" fill="#455a64"/>
        <path id="Trazado_798757" data-name="Trazado 798757" d="M150.926,38.29a6.562,6.562,0,0,1,6.226-6.324L180.706,22.6l6.153.715c13.845.049,23.394,15.319,23.485,26.533.1,12.458-.268,27.671-2.247,36.854-3.981,18.465-18.387,20.052-18.387,20.052a51.792,51.792,0,0,1-.854,10.1l-17.621,54.549-21.017-54.252Z" transform="translate(-43.634 -8.288)" fill="#a26760"/>
        <path id="Trazado_798758" data-name="Trazado 798758" d="M184.4,115.026a3.931,3.931,0,0,1,1.359-2.425,4.017,4.017,0,0,1,4.873-.277,5.381,5.381,0,0,1,2.044,5.051,4.891,4.891,0,0,1-3.5,2.03,5.832,5.832,0,0,1-.657.021,4.4,4.4,0,0,1-2.96-1.172,3.915,3.915,0,0,1-1.158-3.228" transform="translate(-47.632 -40.93)" fill="#7b4b45"/>
        <path id="Trazado_798759" data-name="Trazado 798759" d="M169.479,84.443a2.392,2.392,0,0,1-2.436,2.284,2.289,2.289,0,0,1-2.345-2.289,2.394,2.394,0,0,1,2.433-2.285,2.29,2.29,0,0,1,2.347,2.29" transform="translate(-11.925 -30.122)" fill="#263238"/>
        <path id="Trazado_798760" data-name="Trazado 798760" d="M166.847,74.934c-.314.3-2.05-1.143-4.621-1.278-2.566-.171-4.525,1.048-4.787.718-.13-.147.2-.692,1.057-1.246a6.573,6.573,0,0,1,3.853-.96,6.305,6.305,0,0,1,3.657,1.407c.757.65.994,1.228.84,1.359" transform="translate(-4.722 -26.457)" fill="#263238"/>
        <path id="Trazado_798761" data-name="Trazado 798761" d="M172.514,94.853c0-.146,1.609-.335,4.216-.524.66-.032,1.289-.128,1.424-.569a3.337,3.337,0,0,0-.331-1.97q-.8-2.434-1.667-5.105c-2.3-7.264-3.936-13.224-3.642-13.313s2.4,5.725,4.705,12.989q.828,2.686,1.583,5.13a3.8,3.8,0,0,1,.2,2.6,1.652,1.652,0,0,1-1.132.9,4.482,4.482,0,0,1-1.124.094c-2.613,0-4.23-.08-4.232-.227" transform="translate(-26.544 -26.902)" fill="#263238"/>
        <path id="Trazado_798762" data-name="Trazado 798762" d="M207.4,150.829a47.459,47.459,0,0,1-24.581-8.023s5.706,13.3,24.445,12.584Z" transform="translate(-61.327 -52.361)" fill="#7b4b45"/>
        <path id="Trazado_798763" data-name="Trazado 798763" d="M183.243,109.442c.419,0,.272,2.789,2.552,4.9s5.266,1.968,5.266,2.359c.029.178-.692.506-1.949.471a6.959,6.959,0,0,1-4.4-1.811,6.057,6.057,0,0,1-1.96-4.1c-.042-1.172.307-1.847.5-1.82" transform="translate(-44.935 -40.127)" fill="#263238"/>
        <path id="Trazado_798764" data-name="Trazado 798764" d="M167.7,59.812c-.466.6-2.412.076-4.722.141-2.312-.009-4.249.566-4.723-.027-.21-.288.075-.886.906-1.474a7.319,7.319,0,0,1,7.611-.092c.84.567,1.133,1.158.928,1.452" transform="translate(-6.087 -21.023)" fill="#263238"/>
        <path id="Trazado_798765" data-name="Trazado 798765" d="M204.4,83.465a2.392,2.392,0,0,0,2.265,2.454,2.288,2.288,0,0,0,2.5-2.113,2.394,2.394,0,0,0-2.262-2.455,2.289,2.289,0,0,0-2.506,2.115" transform="translate(-76.76 -29.825)" fill="#263238"/>
        <path id="Trazado_798766" data-name="Trazado 798766" d="M198.206,73.679c.291.317,2.127-.992,4.7-.941,2.571.015,4.438,1.372,4.722,1.061.14-.137-.153-.706-.965-1.319a6.572,6.572,0,0,0-3.774-1.236,6.306,6.306,0,0,0-3.748,1.138c-.8.594-1.08,1.153-.937,1.3" transform="translate(-71.308 -26.122)" fill="#263238"/>
        <path id="Trazado_798767" data-name="Trazado 798767" d="M199.994,64.869c.5.593,2.494.022,4.882.034,2.388-.061,4.4.469,4.879-.134.21-.293-.1-.884-.973-1.454a7.368,7.368,0,0,0-3.951-1.027,7.275,7.275,0,0,0-3.913,1.107c-.854.586-1.142,1.183-.923,1.473" transform="translate(-74.574 -22.839)" fill="#263238"/>
        <path id="Trazado_798768" data-name="Trazado 798768" d="M252.554,93.7c.073-1.388-1.351-4.746-2.709-5.035-3.627-.771-10.237-.839-10.808,8.448-.781,12.7,12.126,10.861,12.171,10.5.035-.283,1.1-9.12,1.346-13.911" transform="translate(-142.063 -32.393)" fill="#a26760"/>
        <path id="Trazado_798769" data-name="Trazado 798769" d="M251.587,105.193c-.053-.044-.231.141-.614.289a2.216,2.216,0,0,1-1.656-.068c-1.311-.574-2.309-2.773-2.229-5.065a7.307,7.307,0,0,1,.813-3.129,2.556,2.556,0,0,1,1.768-1.595,1.129,1.129,0,0,1,1.268.686c.149.366.052.614.118.64.034.035.286-.2.215-.726a1.408,1.408,0,0,0-.451-.827,1.669,1.669,0,0,0-1.2-.4,3.113,3.113,0,0,0-2.431,1.827,7.524,7.524,0,0,0-.984,3.491c-.076,2.564,1.086,5.038,2.889,5.681a2.373,2.373,0,0,0,2.043-.212c.413-.289.5-.569.454-.595" transform="translate(-145.66 -34.832)" fill="#7b4b45"/>
        <path id="Trazado_798770" data-name="Trazado 798770" d="M182.639,63.079l3.673,3.7c13.929-13.333,41.151-46.716,39.632-44.727,0,0-9.543-3.924-19.9-2.16s-30,6.948-29.7,19.164,6.3,24.025,6.3,24.025" transform="translate(-75.822 -7.125)" fill="#263238"/>
        <path id="Trazado_798771" data-name="Trazado 798771" d="M258.5,129.484c.035.041-.288.436-1.055.927a8.665,8.665,0,0,1-3.64,1.23,9.445,9.445,0,0,1-5.617-1.139,9.423,9.423,0,0,1-3.4-12.574,9.443,9.443,0,0,1,4.278-3.814,8.662,8.662,0,0,1,3.763-.772,2.7,2.7,0,0,1,1.378.269c.013.21-2.058-.228-4.818,1.175a9.093,9.093,0,0,0-3.753,3.618,8.679,8.679,0,0,0,3.044,11.26,9.1,9.1,0,0,0,5.065,1.233c3.091-.179,4.659-1.6,4.754-1.413" transform="translate(-150.938 -41.555)" fill="#e0e0e0"/>
        <path id="Trazado_798772" data-name="Trazado 798772" d="M180,60.45a3.29,3.29,0,0,1,.194-.735,12.847,12.847,0,0,1,.866-2,18.48,18.48,0,0,1,5.306-5.97,34.7,34.7,0,0,1,10.683-5.138c4.246-1.384,9.033-2.457,13.733-4.475a62.2,62.2,0,0,0,12.543-7.025,64.938,64.938,0,0,0,8.853-7.739,69.3,69.3,0,0,0,5.119-6.075l1.274-1.751a3.352,3.352,0,0,1,.478-.59,3.29,3.29,0,0,1-.369.662c-.265.419-.64,1.05-1.177,1.825a58.319,58.319,0,0,1-4.989,6.242,62.089,62.089,0,0,1-8.836,7.91,60.928,60.928,0,0,1-12.646,7.141c-4.76,2.043-9.581,3.1-13.8,4.446a35.2,35.2,0,0,0-10.59,4.936,19.092,19.092,0,0,0-5.359,5.724c-.931,1.622-1.215,2.637-1.281,2.613" transform="translate(-91.183 -6.948)" fill="#455a64"/>
        <path id="Trazado_798773" data-name="Trazado 798773" d="M180.908,64.022a6.669,6.669,0,0,1,.493-2.775,12.967,12.967,0,0,1,4.77-5.978c2.651-1.979,6.435-3.2,10.594-4.153A62.617,62.617,0,0,0,209.93,46.94a55.8,55.8,0,0,0,11.737-7.245,57.34,57.34,0,0,0,8.045-7.908,60.644,60.644,0,0,0,4.486-6.166c.437-.723.794-1.31,1.076-1.778a3.142,3.142,0,0,1,.415-.6,3.048,3.048,0,0,1-.3.664l-.974,1.846a51.771,51.771,0,0,1-4.347,6.326,55.082,55.082,0,0,1-8.025,8.083A54.775,54.775,0,0,1,210.2,47.532,61.194,61.194,0,0,1,196.9,51.7c-4.153.915-7.858,2.07-10.463,3.944a13.112,13.112,0,0,0-4.8,5.693,15.082,15.082,0,0,0-.729,2.684" transform="translate(-88.396 -8.522)" fill="#455a64"/>
        <g id="Grupo_1064888" data-name="Grupo 1064888" transform="translate(80.352 175.911)" opacity="0.3">
          <g id="Grupo_1064887" data-name="Grupo 1064887" transform="translate(0)">
            <g id="Grupo_1064886" data-name="Grupo 1064886" clip-path="url(#clip-path-5)">
              <path id="Trazado_798774" data-name="Trazado 798774" d="M213.675,280.853a4.665,4.665,0,0,1,1.721-2.7c1.377-.859,3.256-.251,4.443.856a22.691,22.691,0,0,1,2.825,3.946,14.974,14.974,0,0,0,13.242,6.28c3.566-.286,6.931-1.864,10.5-2.162,4.245-.356,9.144.759,13.148,2.209l-.258,8.384c.161,1.643-1.771,2.3-3.416,2.17s-3.366-.775-4.886-.131a8.308,8.308,0,0,0-2.522,2.206,12.9,12.9,0,0,1-14.853,2.487c-1.854-.961-3.526-2.407-5.585-2.755-1.89-.319-3.833.343-5.734.094-2.479-.326-4.511-2.157-5.962-4.193a19.3,19.3,0,0,1-2.659-16.693" transform="translate(-212.835 -277.749)"/>
            </g>
          </g>
        </g>
        <g id="Grupo_1064891" data-name="Grupo 1064891" transform="translate(195.407 123.796)" opacity="0.3">
          <g id="Grupo_1064890" data-name="Grupo 1064890" transform="translate(0)">
            <g id="Grupo_1064889" data-name="Grupo 1064889" clip-path="url(#clip-path-6)">
              <path id="Trazado_798775" data-name="Trazado 798775" d="M83.613,200.771c-1.117-1.56-1.562-3.9-.257-5.306,3.047,2.772,8.015,3.208,10.225,6.684,1.1,1.731,1.262,3.875,1.388,5.921q1.15,18.587,1.76,37.2l-.581,3.165L85.532,220.8c-.942-2.452-1.815-5.447-.188-7.51.938-1.189,2.542-1.773,3.3-3.084.964-1.659.182-3.824-1.047-5.3s-2.87-2.582-3.988-4.142" transform="translate(-82.558 -195.464)"/>
            </g>
          </g>
        </g>
        <path id="Trazado_798776" data-name="Trazado 798776" d="M43.9,201.577l25.615,57.605L36.936,274.674l-18.389-56.44Z" transform="translate(180.6 -73.909)" fill="#e0e0e0"/>
        <path id="Trazado_798777" data-name="Trazado 798777" d="M84.526,201.577a.621.621,0,0,0-.133.07l-.376.23-1.439.913-5.333,3.447L59.081,218.1l-.091.059.018.075c.185.766.414,1.41.625,2.12l.671,2.112,1.4,4.339c3.35,10.319,6.437,19.641,8.684,26.384l2.682,7.978.745,2.163c.084.232.151.417.2.561a.9.9,0,0,0,.08.187.971.971,0,0,0-.048-.2l-.171-.57c-.163-.521-.394-1.252-.687-2.183l-2.582-8.011L62.018,226.7l-1.4-4.338q-.34-1.066-.673-2.11-.161-.522-.322-1.037l-.155-.508-.068-.239-.034-.119-.018-.06-.008-.03,0-.015,0-.008v-.006l-.121,0,.048.134,18.1-11.959,5.281-3.526,1.409-.958.36-.253a.57.57,0,0,0,.117-.094" transform="translate(139.978 -73.909)" fill="#263238"/>
        <path id="Trazado_798778" data-name="Trazado 798778" d="M82.155,289.729a16.879,16.879,0,0,0-.341-2.253c-.255-1.473-.578-3.343-.937-5.411l-.865-5.424A16.784,16.784,0,0,0,79.6,274.4a2.206,2.206,0,0,0,.012.614c.029.393.084.959.163,1.659.158,1.4.419,3.328.771,5.447s.73,4.027,1.034,5.4c.151.687.282,1.242.383,1.623a2.218,2.218,0,0,0,.187.585" transform="translate(129.294 -100.609)" fill="#263238"/>
        <path id="Trazado_798779" data-name="Trazado 798779" d="M115.742,228.891a.89.89,0,0,0-.044.192c-.025.146-.057.334-.1.569-.079.5-.2,1.239-.336,2.194-.118.964-.262,2.132-.428,3.485-.144,1.365-.307,2.914-.486,4.624-.68,6.857-1.459,16.342-2.283,26.819s-1.567,19.968-2.187,26.827c-.162,1.711-.308,3.261-.437,4.626-.144,1.354-.269,2.524-.372,3.488-.117.938-.209,1.675-.275,2.2l-.065.573a.966.966,0,0,0-.011.2.843.843,0,0,0,.044-.192c.025-.146.057-.334.1-.569.079-.5.2-1.239.336-2.194.118-.964.262-2.132.428-3.485.144-1.364.307-2.913.486-4.623.68-6.857,1.459-16.343,2.284-26.823s1.566-19.964,2.187-26.823c.162-1.711.308-3.261.436-4.627.144-1.353.269-2.523.372-3.488.117-.937.21-1.675.275-2.2.027-.238.048-.426.065-.573a.876.876,0,0,0,.011-.2" transform="translate(77.266 -83.924)" fill="#263238"/>
        <path id="Trazado_798780" data-name="Trazado 798780" d="M155.187,249.749a1.443,1.443,0,0,0,.136-.212l.368-.638c.327-.58.793-1.408,1.388-2.467l5.052-9.1,16.558-30.088,8.773-16.02.084-.154-.164-.063-6.344-2.4.027.25,10.45-6.891.094-.062-.068-.088-4.968-6.408-1.332-1.7-.349-.431a.81.81,0,0,0-.126-.141.932.932,0,0,0,.1.158l.326.449,1.289,1.728,4.891,6.467.026-.15-10.492,6.828-.232.151.259.1,6.336,2.426-.079-.216L178.4,207.085l-16.473,30.135-4.96,9.152-1.334,2.5-.339.653a1.438,1.438,0,0,0-.106.228" transform="translate(-28.032 -63.481)" fill="#263238"/>
        <path id="Trazado_798781" data-name="Trazado 798781" d="M246.079,248.255a1.433,1.433,0,0,0-.094-.236c-.075-.168-.175-.392-.3-.678l-1.2-2.594-4.466-9.511-14.848-31.327-8.054-16.9-.084.208,6.336-2.427.258-.1-.231-.15L212.9,177.711l.026.149,4.892-6.467,1.289-1.728.326-.449a1,1,0,0,0,.1-.158.929.929,0,0,0-.126.14l-.348.432-1.332,1.695-4.968,6.409-.068.088.093.061,10.451,6.891.027-.25-6.344,2.4-.155.058.071.149,8.031,16.913,14.936,31.285,4.561,9.466,1.255,2.567.334.664a1.487,1.487,0,0,0,.124.222" transform="translate(-118.924 -61.986)" fill="#263238"/>
        <path id="Trazado_798782" data-name="Trazado 798782" d="M222.737,171.932s-15.853,29.6-38.759-.035l20.828,63.614Z" transform="translate(-77.394 -63.027)" fill="#455a64"/>
        <path id="Trazado_798783" data-name="Trazado 798783" d="M212.254,349.959a.936.936,0,0,0,.039-.2c.02-.15.047-.343.08-.585l.276-2.252c.223-1.979.542-4.805.934-8.288.753-7,1.733-16.684,2.5-27.405s1.108-20.454,1.251-27.5c.068-3.521.1-6.371.1-8.341,0-.967,0-1.727,0-2.267,0-.244-.006-.439-.009-.59a.1.1,0,1,0-.034,0c-.006.151-.014.345-.023.59-.015.54-.035,1.3-.06,2.267-.05,1.991-.121,4.832-.209,8.335-.2,7.038-.59,16.76-1.347,27.478s-1.706,20.4-2.4,27.4c-.349,3.487-.632,6.316-.83,8.3-.091.963-.163,1.72-.214,2.257-.02.244-.035.438-.047.588a.914.914,0,0,0-.005.2" transform="translate(-89.998 -99.854)" fill="#263238"/>
        <g id="Grupo_1064894" data-name="Grupo 1064894" transform="translate(93.921 116.63)" opacity="0.3">
          <g id="Grupo_1064893" data-name="Grupo 1064893">
            <g id="Grupo_1064892" data-name="Grupo 1064892" clip-path="url(#clip-path-7)">
              <path id="Trazado_798784" data-name="Trazado 798784" d="M221.527,184.149l-1.25,1.522,6.38,4.269-6.2,2.262,28.248,51.493-24.3-51.089,6.34-2.416Z" transform="translate(-220.277 -184.149)"/>
            </g>
          </g>
        </g>
        <path id="Trazado_798785" data-name="Trazado 798785" d="M289.935,218.22a1.317,1.317,0,0,0-.015.237c0,.174-.007.4-.011.7,0,.63-.006,1.528-.01,2.673.009,2.341.022,5.7.039,9.832.054,8.3.164,19.77.364,32.435s.455,24.137.717,32.435c.136,4.149.251,7.506.364,9.825.056,1.144.1,2.04.131,2.67.018.291.032.521.043.694a1.128,1.128,0,0,0,.026.236,1.233,1.233,0,0,0,.007-.237c0-.173-.006-.4-.009-.7-.016-.63-.04-1.526-.069-2.671-.062-2.34-.151-5.692-.261-9.827-.2-8.3-.421-19.765-.619-32.434-.18-12.657-.342-24.115-.46-32.432-.06-4.136-.109-7.49-.144-9.831-.022-1.145-.041-2.043-.053-2.673-.009-.292-.016-.522-.022-.695a1.2,1.2,0,0,0-.019-.237" transform="translate(-213.331 -80.012)" fill="#263238"/>
        <path id="Trazado_798786" data-name="Trazado 798786" d="M130.485,274.935a.89.89,0,0,0,.009-.14c0-.1.006-.233.01-.393q.009-.545.024-1.509c.013-1.326.031-3.227.054-5.623l-.1.1,31.385.067c-.073-.073.166.165-.163-.165v3.889q0,1.918,0,3.777l.161-.161-22.35.073-6.612.046-1.79.022-.469.01a1.093,1.093,0,0,0-.166.011.668.668,0,0,0,.146.011l.448.01,1.754.022,6.575.046,22.464.073h.162v-.162q0-1.856,0-3.777,0-.96,0-1.932V267.27c-.33-.33-.092-.091-.167-.165l-31.385.067h-.1v.1c.023,2.421.041,4.342.054,5.681q.015.95.024,1.487c0,.153.007.277.01.376a.518.518,0,0,0,.01.121" transform="translate(17.249 -97.93)" fill="#263238"/>
        <g id="Grupo_1064897" data-name="Grupo 1064897" transform="translate(149.262 177.005)" opacity="0.3">
          <g id="Grupo_1064896" data-name="Grupo 1064896" transform="translate(0)">
            <g id="Grupo_1064895" data-name="Grupo 1064895" clip-path="url(#clip-path-8)">
              <path id="Trazado_798787" data-name="Trazado 798787" d="M161.5,279.477s-14.655,5.765-28.137,0Z" transform="translate(-133.365 -279.477)"/>
            </g>
          </g>
        </g>
        <path id="Trazado_798788" data-name="Trazado 798788" d="M167.669,249.1h.194a2.34,2.34,0,0,1,2.34,2.34v9.235H165.33v-9.235a2.339,2.339,0,0,1,2.339-2.34" transform="translate(-13.048 -91.333)" fill="#455a64"/>
        <path id="Trazado_798789" data-name="Trazado 798789" d="M170.347,277.458h.1a1.17,1.17,0,0,0,1.17-1.17V263.274h-2.437v13.015a1.17,1.17,0,0,0,1.17,1.17" transform="translate(-16.896 -96.531)" fill="#455a64"/>
        <path id="Trazado_798790" data-name="Trazado 798790" d="M168.088,288.475a3.977,3.977,0,0,0-.082.823c-.029.531-.057,1.3-.073,2.251-.03,1.9,0,4.53.184,7.427.089,1.449.205,2.827.334,4.078a12.267,12.267,0,0,0,.6,3.307,2.822,2.822,0,0,0,1.58,1.614,1.7,1.7,0,0,0,.616.108c.143,0,.216-.023.215-.032a3.407,3.407,0,0,1-.783-.194,2.769,2.769,0,0,1-1.411-1.583,12.913,12.913,0,0,1-.514-3.248c-.111-1.25-.219-2.625-.308-4.069-.18-2.889-.249-5.509-.279-7.407-.013-.9-.024-1.652-.032-2.248a4.006,4.006,0,0,0-.047-.826" transform="translate(-15.951 -105.771)" fill="#263238"/>
        <path id="Trazado_798791" data-name="Trazado 798791" d="M163.275,302.845a98.266,98.266,0,0,0-.054-11.372,98.255,98.255,0,0,0,.054,11.372" transform="translate(-4.835 -106.87)" fill="#263238"/>
        <path id="Trazado_798792" data-name="Trazado 798792" d="M238.027,224.867a23.66,23.66,0,0,0-5.768-2.507l-1.188-5.71-9.646-.169-1.388,5.664a23.615,23.615,0,0,0-5.853,2.3l-2.413-3.221-2.462.026-6.941,6.7,3.022,4.983a23.609,23.609,0,0,0-2.506,5.77l-5.709,1.188L197,249.54l5.664,1.389a23.62,23.62,0,0,0,2.3,5.852l-3.2,4.875,6.7,6.941,2.627-.125,2.357-2.9a23.613,23.613,0,0,0,5.769,2.506l1.189,5.71,9.646.17,1.388-5.665a23.614,23.614,0,0,0,5.853-2.3l4.876,3.2,2.462-.026,4.478-6.675-3.022-4.984a23.621,23.621,0,0,0,2.507-5.769l5.709-1.188.169-9.646-5.664-1.388a23.658,23.658,0,0,0-2.3-5.853l3.2-4.875-4.238-6.966-2.462.025Zm-5.142,12.851a10.349,10.349,0,1,1-14.634-.257,10.349,10.349,0,0,1,14.634.257" transform="translate(-117.39 -79.374)" fill="#1969d5"/>
        <path id="Trazado_798794" data-name="Trazado 798794" d="M234.139,224.826a23.659,23.659,0,0,0-5.768-2.507l-1.188-5.709-9.646-.17-1.388,5.664a23.615,23.615,0,0,0-5.853,2.3l-4.875-3.2-6.941,6.7L201.5,232.9a23.608,23.608,0,0,0-2.506,5.77l-5.709,1.188-.17,9.646,5.664,1.388a23.62,23.62,0,0,0,2.3,5.852l-3.2,4.876,6.7,6.94,4.984-3.022a23.641,23.641,0,0,0,5.768,2.507l1.189,5.709,9.646.17,1.388-5.665a23.616,23.616,0,0,0,5.853-2.3l4.876,3.2,6.941-6.7-3.022-4.984a23.622,23.622,0,0,0,2.507-5.769l5.709-1.188.169-9.646-5.664-1.389a23.659,23.659,0,0,0-2.3-5.853l3.2-4.875-6.7-6.941ZM229,237.677a10.349,10.349,0,1,1-14.634-.257,10.349,10.349,0,0,1,14.634.257" transform="translate(-111.04 -79.359)" fill="#59bee2"/>
        <path id="Trazado_798795" data-name="Trazado 798795" d="M275.4,234.519c0,.091.552.165,1.232.165s1.232-.073,1.232-.165-.552-.165-1.232-.165-1.232.073-1.232.165" transform="translate(-190.425 -85.927)" fill="#263238"/>
        <path id="Trazado_798796" data-name="Trazado 798796" d="M270.892,242.262c0,.091.533.16,1.189.154s1.187-.085,1.186-.176-.533-.16-1.189-.154-1.187.085-1.186.176" transform="translate(-182.97 -88.762)" fill="#263238"/>
        <path id="Trazado_798797" data-name="Trazado 798797" d="M283.585,253.4c-.005.091.482.191,1.087.224s1.1-.015,1.105-.106-.482-.191-1.087-.224-1.1.015-1.105.105" transform="translate(-203.519 -92.867)" fill="#263238"/>
        <path id="Trazado_798798" data-name="Trazado 798798" d="M283.777,268.594c0,.091.455.151,1.01.135s1-.1,1-.2-.455-.151-1.01-.134-1,.1-1,.194" transform="translate(-203.65 -98.409)" fill="#263238"/>
        <path id="Trazado_798799" data-name="Trazado 798799" d="M271.56,280.116c.009.091.535.112,1.174.048s1.15-.19,1.141-.281-.535-.111-1.174-.047-1.15.19-1.141.281" transform="translate(-184.001 -102.59)" fill="#263238"/>
        <path id="Trazado_798800" data-name="Trazado 798800" d="M276.276,287.668c0,.091.528.179,1.183.2s1.189-.044,1.192-.134-.528-.179-1.183-.2-1.189.043-1.192.134" transform="translate(-191.764 -105.425)" fill="#263238"/>
        <path id="Trazado_798801" data-name="Trazado 798801" d="M248.681,298c.016.091.574.07,1.254.027s1.236-.1,1.24-.188-.562-.187-1.262-.141-1.248.214-1.232.3" transform="translate(-146.811 -109.148)" fill="#263238"/>
        <path id="Trazado_798802" data-name="Trazado 798802" d="M247.816,225.441c0,.091.536.151,1.192.134s1.186-.1,1.183-.2-.536-.151-1.192-.134-1.186.1-1.183.2" transform="translate(-145.279 -82.587)" fill="#263238"/>
        <path id="Trazado_798803" data-name="Trazado 798803" d="M202.309,227.441a42.52,42.52,0,0,0,5.366,5.212,42.517,42.517,0,0,0-5.366-5.212" transform="translate(-73.941 -83.392)" fill="#fff"/>
        <path id="Trazado_798804" data-name="Trazado 798804" d="M219.647,243.775a19.128,19.128,0,0,1,2.661,1.45,11.474,11.474,0,0,1,4.536,12.826,19.254,19.254,0,0,1-1.157,2.8,3.315,3.315,0,0,0,.468-.678,10.27,10.27,0,0,0,.912-2.055,11.325,11.325,0,0,0-4.628-13.088,10.271,10.271,0,0,0-2-1.025,3.249,3.249,0,0,0-.79-.232" transform="translate(-104.873 -89.381)" fill="#fff"/>
        <path id="Trazado_798805" data-name="Trazado 798805" d="M236.511,242.9c-.006.091.325.186.738.212s.753-.027.759-.118-.325-.186-.738-.212-.753.027-.759.118" transform="translate(-125.936 -89.016)" fill="#fff"/>
        <path id="Trazado_798806" data-name="Trazado 798806" d="M229.77,219.326a8.837,8.837,0,0,0,.374,3.38,8.838,8.838,0,0,0-.374-3.38" transform="translate(-113.825 -80.417)" fill="#fff"/>
        <path id="Trazado_798807" data-name="Trazado 798807" d="M259.1,225.953c-.058.071.376.526.97,1.018s1.122.833,1.181.763-.376-.526-.97-1.017-1.122-.834-1.18-.764" transform="translate(-163.488 -82.843)" fill="#fff"/>
        <path id="Trazado_798808" data-name="Trazado 798808" d="M276.262,254.686a9.222,9.222,0,0,0,3.38-.8,9.224,9.224,0,0,0-3.38.8" transform="translate(-192.746 -93.079)" fill="#fff"/>
        <path id="Trazado_798809" data-name="Trazado 798809" d="M194.542,254.806a3.368,3.368,0,0,0,3.284.664c-.014-.1-.77-.031-1.665-.218s-1.569-.529-1.619-.447" transform="translate(-59.172 -93.421)" fill="#fff"/>
        <path id="Trazado_798810" data-name="Trazado 798810" d="M203.1,283.464a4.563,4.563,0,0,0,.643,1.591,10.43,10.43,0,0,0,.747,1.26l.141-.092c-.118-.108-.2-.158-.22-.138s.008.106.089.244l.4.685-.255-.777a10.554,10.554,0,0,0-.6-1.334,4.578,4.578,0,0,0-.935-1.439" transform="translate(-71.657 -103.933)" fill="#fff"/>
        <path id="Trazado_798811" data-name="Trazado 798811" d="M231.636,303.232a11.117,11.117,0,0,0,1.072-3.665,11.141,11.141,0,0,0-1.072,3.665" transform="translate(-117.556 -109.838)" fill="#fff"/>
        <path id="Trazado_798812" data-name="Trazado 798812" d="M253.362,248.069s1.949-3.774,4.691-4.036,28.378,6.7,28.378,6.7-.6,3.736-3.454,3.591a76.414,76.414,0,0,1-9.391-1.739L285.62,257.7a5.721,5.721,0,0,1-6.946,3.233c-5.027-1.412-13.75-3.124-13.75-3.124l15.752,6.915s-1.164,4.208-5.338,2.858a55.093,55.093,0,0,0-9.467-1.9l9.82,4.379s-.327,3.526-4.731,2.9-12.414-2-12.414-2a52.1,52.1,0,0,1-5.473,7.737c-6.84,7.755-10.856,3.169-10.856,3.169l-6.2,2.224c-.244-1.291-3.472-21.1-3.472-21.1l12.271-1.557s4.805-10.612,5.647-11.685a4.894,4.894,0,0,1,2.9-1.674" transform="translate(-171.848 -89.473)" fill="#a26760"/>
        <path id="Trazado_798813" data-name="Trazado 798813" d="M251.282,250.94c-.027.087,3.316,1.176,7.463,2.43s7.533,2.2,7.56,2.114-3.315-1.175-7.464-2.43-7.532-2.2-7.558-2.114" transform="translate(-163.587 -92.006)" fill="#7b4b45"/>
        <path id="Trazado_798814" data-name="Trazado 798814" d="M241.633,261.838a5.06,5.06,0,0,0,.827.435l2.307,1.073c1.953.891,4.662,2.1,7.666,3.409s5.736,2.469,7.725,3.279c.994.406,1.8.723,2.367.933a4.939,4.939,0,0,0,.891.285,5.173,5.173,0,0,0-.842-.4l-2.325-1.029-7.684-3.367-7.7-3.321-2.348-.977a5.047,5.047,0,0,0-.879-.317" transform="translate(-154.587 -96.003)" fill="#7b4b45"/>
        <path id="Trazado_798815" data-name="Trazado 798815" d="M264.163,272.143a59.841,59.841,0,0,0,5.875,2.2,59.706,59.706,0,0,0,5.983,1.891,60.138,60.138,0,0,0-5.876-2.2,59.8,59.8,0,0,0-5.983-1.891" transform="translate(-181.462 -99.78)" fill="#7b4b45"/>
        <path id="Trazado_798816" data-name="Trazado 798816" d="M275.719,284.455a14.289,14.289,0,0,0,6.365,1.494c.009-.1-1.443-.284-3.194-.7s-3.136-.885-3.171-.795" transform="translate(-194.843 -104.293)" fill="#7b4b45"/>
        <path id="Trazado_798817" data-name="Trazado 798817" d="M291.293,274.838l4.2-8.792c2.074-4.356,3.483-7.316,4.185-8.789-.154-.125-2.161,3.793-4.483,8.647s-4.092,8.871-3.907,8.934" transform="translate(-222.299 -94.324)" fill="#7b4b45"/>
        <path id="Trazado_798818" data-name="Trazado 798818" d="M97.877,122.2l20.4,41.273L114,165.35,94.169,123.586Z" transform="translate(83.944 -44.804)" fill="#455a64"/>
        <path id="Trazado_798819" data-name="Trazado 798819" d="M108.6,82.177a21.325,21.325,0,1,0,20.313-22.291A21.325,21.325,0,0,0,108.6,82.177" transform="translate(41.872 -21.949)" fill="#a26760"/>
        <path id="Trazado_798820" data-name="Trazado 798820" d="M107.489,81.773a4.384,4.384,0,0,0,.172-1.358q.019-.333.043-.74c.027-.271.082-.566.125-.885a16.2,16.2,0,0,1,.4-2.185,20.622,20.622,0,0,1,2.174-5.632,21.028,21.028,0,0,1,5.09-6.076,20.693,20.693,0,0,1,8.554-4.189,19.248,19.248,0,0,1,2.595-.4c.444-.033.889-.095,1.341-.106l1.366.016c.229.007.46,0,.689.016l.69.078c.461.058.929.091,1.393.167a22.041,22.041,0,0,1,2.773.691,21.584,21.584,0,0,1,2.728,1.063c.443.217.871.474,1.31.71a10.3,10.3,0,0,1,1.276.8,18.812,18.812,0,0,1,4.527,4.166,19.907,19.907,0,0,1,3.182,5.513,20.38,20.38,0,0,1,.6,12.927,19.909,19.909,0,0,1-2.658,5.786,18.8,18.8,0,0,1-4.122,4.568,10.357,10.357,0,0,1-1.2.915c-.416.276-.818.571-1.239.828a21.542,21.542,0,0,1-2.618,1.312,22.049,22.049,0,0,1-2.7.945c-.455.118-.918.2-1.372.3l-.68.142c-.227.042-.458.052-.685.08l-1.359.142c-.45.031-.9.01-1.345.019a19.24,19.24,0,0,1-2.621-.163,20.694,20.694,0,0,1-8.905-3.379,21.024,21.024,0,0,1-5.63-5.578A20.625,20.625,0,0,1,108.7,86.85a16.186,16.186,0,0,1-.6-2.138c-.073-.315-.155-.6-.207-.87s-.078-.513-.111-.733a4.4,4.4,0,0,0-.3-1.336,4.28,4.28,0,0,0-.034,1.372q.015.34.034.756c.027.277.084.576.133.9a14.617,14.617,0,0,0,.467,2.233,19.984,19.984,0,0,0,2.53,5.729,21.718,21.718,0,0,0,15.116,9.8,20.378,20.378,0,0,0,2.794.218c.475,0,.956.026,1.437,0l1.455-.131c.243-.027.491-.035.734-.077l.731-.141c.487-.1.984-.179,1.474-.3a23.915,23.915,0,0,0,5.736-2.365c.456-.272.892-.585,1.342-.878a11.581,11.581,0,0,0,1.295-.974,20.214,20.214,0,0,0,4.471-4.894,21.381,21.381,0,0,0,2.892-6.237,21.873,21.873,0,0,0-.65-13.961,21.381,21.381,0,0,0-3.457-5.94,20.225,20.225,0,0,0-4.905-4.457,11.452,11.452,0,0,0-1.379-.85c-.475-.251-.938-.521-1.417-.75a22.868,22.868,0,0,0-2.943-1.117,23.242,23.242,0,0,0-2.986-.707c-.5-.076-1-.108-1.5-.163l-.74-.073c-.246-.019-.493,0-.738-.009l-1.46,0c-.482.019-.958.091-1.431.133a20.41,20.41,0,0,0-2.762.476,21.722,21.722,0,0,0-14.143,11.161,19.988,19.988,0,0,0-1.989,5.94,14.621,14.621,0,0,0-.258,2.266c-.018.33-.048.633-.049.911s.025.529.037.756a4.267,4.267,0,0,0,.16,1.364" transform="translate(42.982 -21.545)" fill="#263238"/>
        <path id="Trazado_798821" data-name="Trazado 798821" d="M138.745,96.951a4.339,4.339,0,0,0,4.31,4.255,4.149,4.149,0,0,0,4.357-4.039,4.34,4.34,0,0,0-4.3-4.257,4.153,4.153,0,0,0-4.363,4.042" transform="translate(26.58 -34.065)" fill="#263238"/>
        <path id="Trazado_798822" data-name="Trazado 798822" d="M128.378,79.2c.554.55,3.77-1.976,8.438-2.1,4.66-.19,8.156,2.113,8.645,1.526.242-.26-.337-1.265-1.858-2.308a11.914,11.914,0,0,0-6.941-1.922,11.446,11.446,0,0,0-6.7,2.378c-1.4,1.143-1.86,2.18-1.588,2.426" transform="translate(35.091 -27.277)" fill="#263238"/>
        <path id="Trazado_798823" data-name="Trazado 798823" d="M111.6,100.026c.115.158,1.55-.583,3.254-2.52a17.078,17.078,0,0,0,2.271-18.924c-1.2-2.285-2.416-3.345-2.565-3.219-.206.153.649,1.439,1.5,3.694a18.793,18.793,0,0,1-2.129,17.736c-1.361,1.989-2.5,3.036-2.332,3.234" transform="translate(72.204 -27.629)" fill="#fff"/>
        <path id="Trazado_798824" data-name="Trazado 798824" d="M127.706,119.008c.035.222.25.4.595.463a2.094,2.094,0,0,0,2.121-1.189.645.645,0,0,0-.086-.749c-.364-.282-1-.077-1.592.245-.585.338-1.091.773-1.039,1.231" transform="translate(50.488 -43.045)" fill="#fff"/>
        <path id="Trazado_798825" data-name="Trazado 798825" d="M97.123,164.779s-9.238-20.636-10.5-21.672-14.238-10.3-14.238-10.3a7.24,7.24,0,0,0-3.865.666c-1.219.731-4.09,5.275-5.235,7.139a2.072,2.072,0,0,0-.218,1.682l1.505,4.1s-1.568,2.477-1.122,4.2a11.229,11.229,0,0,0,1.466,3.185,6.37,6.37,0,0,0-.416,4.9,6.738,6.738,0,0,0,3.59,3.362s1.1,4.268,1.265,5.113,4.868,2.575,5.348,2.431,3.82-1.638,3.82-1.638,1.785,6.979,3.8,8.468a10.36,10.36,0,0,0,4.586,1.735l1.4,10.048,16.086-10.2Z" transform="translate(117.59 -48.683)" fill="#a26760"/>
        <path id="Trazado_798826" data-name="Trazado 798826" d="M115.548,174.729a31.568,31.568,0,0,0-4.051,1.386c-2.21.828-4.016,1.46-3.99,1.547a20.581,20.581,0,0,0,4.1-1.238,24.914,24.914,0,0,0,3.937-1.7" transform="translate(78.228 -64.062)" fill="#7b4b45"/>
        <path id="Trazado_798827" data-name="Trazado 798827" d="M119.223,160.933a8.014,8.014,0,0,0-1.676.293c-1.024.231-2.429.592-3.962,1.057s-2.9.946-3.882,1.323a8.055,8.055,0,0,0-1.556.688,9.457,9.457,0,0,0,1.633-.467c1-.32,2.373-.764,3.9-1.228s2.918-.859,3.924-1.146a9.468,9.468,0,0,0,1.618-.519" transform="translate(74.148 -59.003)" fill="#7b4b45"/>
        <path id="Trazado_798828" data-name="Trazado 798828" d="M118.3,150.021a8.584,8.584,0,0,0-1.869.038,34.485,34.485,0,0,0-8.8,1.9,8.56,8.56,0,0,0-1.717.738,13.4,13.4,0,0,0,1.791-.517c1.1-.337,2.623-.768,4.334-1.139s3.278-.607,4.416-.754a13.435,13.435,0,0,0,1.844-.27" transform="translate(76.48 -54.995)" fill="#7b4b45"/>
        <path id="Trazado_798829" data-name="Trazado 798829" d="M111.669,150.017a5.771,5.771,0,0,0,.27-3.1,3.568,3.568,0,0,0,2.722-1.037c.82.892,1.925,2.124,2.744,3.016Z" transform="translate(73.735 -53.486)" fill="#455a64"/>
        <path id="Trazado_798830" data-name="Trazado 798830" d="M365.187,258.984l-34.522-12.11L308.7,267.517c-15.346,20.835,2.231,38.758,18.842,36,12.238-2.033,45.348-15.165,45.348-15.165Z" transform="translate(-302.802 -90.518)" fill="#e0e0e0"/>
        <path id="Trazado_798831" data-name="Trazado 798831" d="M356.666,295.966a.58.58,0,0,0-.022-.142c-.025-.109-.056-.244-.094-.412l-.389-1.584c-.357-1.4-.866-3.4-1.5-5.9l-5.241-20.149-.037-.141-.144.023-8.871,1.441-26.576,4.382-8.048,1.366-2.185.388-.567.11a.842.842,0,0,0-.191.048.9.9,0,0,0,.2-.015l.573-.077,2.2-.327,8.064-1.262,26.592-4.287,8.869-1.451-.181-.117,5.352,20.12,1.594,5.872.441,1.571c.049.165.089.3.121.4a.563.563,0,0,0,.05.135" transform="translate(-286.578 -98.132)" fill="#263238"/>
        <path id="Trazado_798832" data-name="Trazado 798832" d="M358.536,271.487c-.016.09,3.072.709,6.9,1.384s6.939,1.15,6.955,1.06-3.072-.709-6.9-1.384-6.938-1.15-6.954-1.06" transform="translate(-337.599 -99.538)" fill="#263238"/>
      </g>
    </g>
    <g id="Grupo_1064904" data-name="Grupo 1064904">
      <g id="Grupo_1064903" data-name="Grupo 1064903" clip-path="url(#clip-path)">
        <path id="Trazado_798833" data-name="Trazado 798833" d="M23.507,358.624h95.059a4.637,4.637,0,0,0,4.563-3.811L134.9,289.829a4.638,4.638,0,0,0-4.563-5.464H35.278a4.638,4.638,0,0,0-4.563,3.811L18.944,353.16a4.638,4.638,0,0,0,4.563,5.464" transform="translate(114.939 -104.264)" fill="#263238"/>
        <path id="Trazado_798834" data-name="Trazado 798834" d="M193.15,391.811h55.086v6.209H187.19v-.248a5.96,5.96,0,0,1,5.96-5.96" transform="translate(-104.927 -143.66)" fill="#263238"/>
        <path id="Trazado_798835" data-name="Trazado 798835" d="M189.46,284.366c-.089-.018-3.465,16.588-7.539,37.085s-7.306,37.134-7.216,37.152,3.464-16.583,7.539-37.088,7.305-37.131,7.216-37.149" transform="translate(-38.244 -104.264)" fill="#455a64"/>
        <path id="Trazado_798836" data-name="Trazado 798836" d="M95.479,343.214a3.332,3.332,0,0,1,2.837-2.428l-.28-.006a3.26,3.26,0,1,1-2.557,2.435" transform="translate(99.537 -124.93)" fill="#455a64"/>
      </g>
    </g>
  </g>
</svg>
